G04 #@! TF.GenerationSoftware,KiCad,Pcbnew,(5.1.9)-1*
G04 #@! TF.CreationDate,2021-10-19T01:50:32-03:00*
G04 #@! TF.ProjectId,Blue_LED,426c7565-5f4c-4454-942e-6b696361645f,rev?*
G04 #@! TF.SameCoordinates,Original*
G04 #@! TF.FileFunction,Legend,Bot*
G04 #@! TF.FilePolarity,Positive*
%FSLAX46Y46*%
G04 Gerber Fmt 4.6, Leading zero omitted, Abs format (unit mm)*
G04 Created by KiCad (PCBNEW (5.1.9)-1) date 2021-10-19 01:50:32*
%MOMM*%
%LPD*%
G01*
G04 APERTURE LIST*
%ADD10C,0.600000*%
%ADD11C,0.010000*%
%ADD12C,0.120000*%
%ADD13C,0.150000*%
%ADD14C,1.800000*%
%ADD15O,1.800000X2.500000*%
G04 APERTURE END LIST*
D10*
X158228571Y-69585714D02*
X157800000Y-69728571D01*
X157657142Y-69871428D01*
X157514285Y-70157142D01*
X157514285Y-70585714D01*
X157657142Y-70871428D01*
X157800000Y-71014285D01*
X158085714Y-71157142D01*
X159228571Y-71157142D01*
X159228571Y-68157142D01*
X158228571Y-68157142D01*
X157942857Y-68300000D01*
X157800000Y-68442857D01*
X157657142Y-68728571D01*
X157657142Y-69014285D01*
X157800000Y-69300000D01*
X157942857Y-69442857D01*
X158228571Y-69585714D01*
X159228571Y-69585714D01*
X155800000Y-71157142D02*
X156085714Y-71014285D01*
X156228571Y-70728571D01*
X156228571Y-68157142D01*
X153371428Y-69157142D02*
X153371428Y-71157142D01*
X154657142Y-69157142D02*
X154657142Y-70728571D01*
X154514285Y-71014285D01*
X154228571Y-71157142D01*
X153800000Y-71157142D01*
X153514285Y-71014285D01*
X153371428Y-70871428D01*
X150800000Y-71014285D02*
X151085714Y-71157142D01*
X151657142Y-71157142D01*
X151942857Y-71014285D01*
X152085714Y-70728571D01*
X152085714Y-69585714D01*
X151942857Y-69300000D01*
X151657142Y-69157142D01*
X151085714Y-69157142D01*
X150800000Y-69300000D01*
X150657142Y-69585714D01*
X150657142Y-69871428D01*
X152085714Y-70157142D01*
X150085714Y-71442857D02*
X147800000Y-71442857D01*
X145657142Y-71157142D02*
X147085714Y-71157142D01*
X147085714Y-68157142D01*
X144657142Y-69585714D02*
X143657142Y-69585714D01*
X143228571Y-71157142D02*
X144657142Y-71157142D01*
X144657142Y-68157142D01*
X143228571Y-68157142D01*
X141942857Y-71157142D02*
X141942857Y-68157142D01*
X141228571Y-68157142D01*
X140800000Y-68300000D01*
X140514285Y-68585714D01*
X140371428Y-68871428D01*
X140228571Y-69442857D01*
X140228571Y-69871428D01*
X140371428Y-70442857D01*
X140514285Y-70728571D01*
X140800000Y-71014285D01*
X141228571Y-71157142D01*
X141942857Y-71157142D01*
X161200000Y-61957142D02*
X162628571Y-61957142D01*
X162628571Y-58957142D01*
X158914285Y-61957142D02*
X158914285Y-60385714D01*
X159057142Y-60100000D01*
X159342857Y-59957142D01*
X159914285Y-59957142D01*
X160200000Y-60100000D01*
X158914285Y-61814285D02*
X159200000Y-61957142D01*
X159914285Y-61957142D01*
X160200000Y-61814285D01*
X160342857Y-61528571D01*
X160342857Y-61242857D01*
X160200000Y-60957142D01*
X159914285Y-60814285D01*
X159200000Y-60814285D01*
X158914285Y-60671428D01*
X157485714Y-61957142D02*
X157485714Y-58957142D01*
X157485714Y-60100000D02*
X157200000Y-59957142D01*
X156628571Y-59957142D01*
X156342857Y-60100000D01*
X156200000Y-60242857D01*
X156057142Y-60528571D01*
X156057142Y-61385714D01*
X156200000Y-61671428D01*
X156342857Y-61814285D01*
X156628571Y-61957142D01*
X157200000Y-61957142D01*
X157485714Y-61814285D01*
X155200000Y-58957142D02*
X153485714Y-58957142D01*
X154342857Y-61957142D02*
X154342857Y-58957142D01*
X151342857Y-61814285D02*
X151628571Y-61957142D01*
X152200000Y-61957142D01*
X152485714Y-61814285D01*
X152628571Y-61528571D01*
X152628571Y-60385714D01*
X152485714Y-60100000D01*
X152200000Y-59957142D01*
X151628571Y-59957142D01*
X151342857Y-60100000D01*
X151200000Y-60385714D01*
X151200000Y-60671428D01*
X152628571Y-60957142D01*
X148628571Y-61814285D02*
X148914285Y-61957142D01*
X149485714Y-61957142D01*
X149771428Y-61814285D01*
X149914285Y-61671428D01*
X150057142Y-61385714D01*
X150057142Y-60528571D01*
X149914285Y-60242857D01*
X149771428Y-60100000D01*
X149485714Y-59957142D01*
X148914285Y-59957142D01*
X148628571Y-60100000D01*
X145914285Y-61957142D02*
X147342857Y-61957142D01*
X147342857Y-58957142D01*
X144914285Y-61957142D02*
X144914285Y-59957142D01*
X144914285Y-58957142D02*
X145057142Y-59100000D01*
X144914285Y-59242857D01*
X144771428Y-59100000D01*
X144914285Y-58957142D01*
X144914285Y-59242857D01*
X143485714Y-61957142D02*
X143485714Y-58957142D01*
X143485714Y-60100000D02*
X143200000Y-59957142D01*
X142628571Y-59957142D01*
X142342857Y-60100000D01*
X142200000Y-60242857D01*
X142057142Y-60528571D01*
X142057142Y-61385714D01*
X142200000Y-61671428D01*
X142342857Y-61814285D01*
X142628571Y-61957142D01*
X143200000Y-61957142D01*
X143485714Y-61814285D01*
X140771428Y-61957142D02*
X140771428Y-59957142D01*
X140771428Y-60528571D02*
X140628571Y-60242857D01*
X140485714Y-60100000D01*
X140200000Y-59957142D01*
X139914285Y-59957142D01*
X137771428Y-61814285D02*
X138057142Y-61957142D01*
X138628571Y-61957142D01*
X138914285Y-61814285D01*
X139057142Y-61528571D01*
X139057142Y-60385714D01*
X138914285Y-60100000D01*
X138628571Y-59957142D01*
X138057142Y-59957142D01*
X137771428Y-60100000D01*
X137628571Y-60385714D01*
X137628571Y-60671428D01*
X139057142Y-60957142D01*
D11*
G36*
X117262117Y-96221576D02*
G01*
X117259933Y-96080650D01*
X117254399Y-95971394D01*
X117243966Y-95888476D01*
X117227082Y-95826564D01*
X117202200Y-95780326D01*
X117167769Y-95744432D01*
X117122238Y-95713548D01*
X117064060Y-95682344D01*
X117052308Y-95676375D01*
X117002598Y-95652513D01*
X116958020Y-95636240D01*
X116908769Y-95626113D01*
X116845043Y-95620688D01*
X116757039Y-95618523D01*
X116656988Y-95618167D01*
X116376566Y-95618167D01*
X116369741Y-95178402D01*
X116362917Y-94738636D01*
X116293478Y-94597698D01*
X116199049Y-94450046D01*
X116076004Y-94326806D01*
X115931987Y-94235206D01*
X115890935Y-94217013D01*
X115770250Y-94168250D01*
X109208584Y-94168250D01*
X109067799Y-94234952D01*
X108912107Y-94329038D01*
X108787943Y-94450200D01*
X108691408Y-94602339D01*
X108682780Y-94620132D01*
X108616241Y-94760917D01*
X108608646Y-95187603D01*
X108601052Y-95614289D01*
X108301568Y-95621519D01*
X108181426Y-95624907D01*
X108094759Y-95629279D01*
X108032710Y-95636074D01*
X107986422Y-95646734D01*
X107947039Y-95662699D01*
X107905705Y-95685410D01*
X107904545Y-95686091D01*
X107856947Y-95714508D01*
X107819375Y-95740880D01*
X107790643Y-95770369D01*
X107769565Y-95808137D01*
X107754956Y-95859346D01*
X107745632Y-95929159D01*
X107740407Y-96022738D01*
X107738096Y-96145245D01*
X107737513Y-96301843D01*
X107737500Y-96413662D01*
X107737500Y-96977814D01*
X107817459Y-97057772D01*
X107890093Y-97116990D01*
X107976287Y-97159454D01*
X108083187Y-97187093D01*
X108217939Y-97201834D01*
X108365759Y-97205667D01*
X108605334Y-97205667D01*
X108605334Y-98640196D01*
X108314292Y-98649013D01*
X108165526Y-98656249D01*
X108051098Y-98669413D01*
X107963152Y-98691007D01*
X107893830Y-98723533D01*
X107835278Y-98769495D01*
X107793080Y-98815029D01*
X107737500Y-98881082D01*
X107737580Y-99435083D01*
X107737901Y-99617556D01*
X107739645Y-99762749D01*
X107744068Y-99875716D01*
X107752427Y-99961511D01*
X107765977Y-100025186D01*
X107785976Y-100071795D01*
X107813679Y-100106392D01*
X107850342Y-100134029D01*
X107897223Y-100159761D01*
X107920641Y-100171402D01*
X107967719Y-100192350D01*
X108015564Y-100207048D01*
X108073565Y-100216867D01*
X108151107Y-100223175D01*
X108257579Y-100227342D01*
X108314292Y-100228808D01*
X108605334Y-100235700D01*
X108605334Y-101665830D01*
X108321362Y-101676666D01*
X108164908Y-101686232D01*
X108043164Y-101703024D01*
X107948794Y-101729365D01*
X107874461Y-101767573D01*
X107812827Y-101819971D01*
X107790911Y-101844440D01*
X107737500Y-101907915D01*
X107737500Y-102474936D01*
X107737631Y-102656180D01*
X107738941Y-102800156D01*
X107742807Y-102911932D01*
X107750606Y-102996573D01*
X107763713Y-103059146D01*
X107783505Y-103104716D01*
X107811359Y-103138350D01*
X107848651Y-103165114D01*
X107896759Y-103190073D01*
X107936915Y-103208862D01*
X107985995Y-103229739D01*
X108033899Y-103243917D01*
X108090435Y-103252667D01*
X108165408Y-103257259D01*
X108268626Y-103258964D01*
X108324875Y-103259127D01*
X108605334Y-103259333D01*
X108605334Y-104715864D01*
X108303709Y-104723140D01*
X108183128Y-104726527D01*
X108096074Y-104730869D01*
X108033743Y-104737591D01*
X107987330Y-104748118D01*
X107948032Y-104763877D01*
X107907044Y-104786291D01*
X107904545Y-104787758D01*
X107856947Y-104816175D01*
X107819375Y-104842547D01*
X107790643Y-104872036D01*
X107769565Y-104909804D01*
X107754956Y-104961013D01*
X107745632Y-105030826D01*
X107740407Y-105124405D01*
X107738096Y-105246912D01*
X107737513Y-105403509D01*
X107737500Y-105515329D01*
X107737500Y-106079481D01*
X107817459Y-106159439D01*
X107890610Y-106218956D01*
X107977585Y-106261560D01*
X108085520Y-106289184D01*
X108221551Y-106303759D01*
X108363550Y-106307333D01*
X108600917Y-106307333D01*
X108609954Y-106725375D01*
X108613609Y-106873406D01*
X108617827Y-106986460D01*
X108623379Y-107071895D01*
X108631038Y-107137066D01*
X108641574Y-107189331D01*
X108655760Y-107236046D01*
X108666573Y-107265054D01*
X108736588Y-107395486D01*
X108837342Y-107518489D01*
X108957522Y-107621776D01*
X109042705Y-107673541D01*
X109166250Y-107736083D01*
X112074037Y-107736083D01*
X112074037Y-105460549D01*
X111794458Y-105460537D01*
X111553956Y-105460277D01*
X111349273Y-105459512D01*
X111177152Y-105457983D01*
X111034336Y-105455434D01*
X110917569Y-105451607D01*
X110823593Y-105446246D01*
X110749151Y-105439093D01*
X110690987Y-105429890D01*
X110645842Y-105418382D01*
X110610461Y-105404310D01*
X110581586Y-105387417D01*
X110555960Y-105367447D01*
X110530326Y-105344141D01*
X110523931Y-105338136D01*
X110450752Y-105241895D01*
X110410839Y-105127845D01*
X110406491Y-105007045D01*
X110433727Y-104904362D01*
X110485092Y-104823885D01*
X110562429Y-104747251D01*
X110650626Y-104688523D01*
X110679667Y-104675419D01*
X110716586Y-104669187D01*
X110791271Y-104663403D01*
X110899159Y-104658098D01*
X111035684Y-104653302D01*
X111196283Y-104649045D01*
X111376390Y-104645355D01*
X111571442Y-104642264D01*
X111776874Y-104639800D01*
X111988120Y-104637994D01*
X112076667Y-104637528D01*
X112076667Y-103968417D01*
X111900109Y-103965941D01*
X111755132Y-103957136D01*
X111631199Y-103939930D01*
X111517775Y-103912256D01*
X111404321Y-103872044D01*
X111280301Y-103817225D01*
X111261750Y-103808390D01*
X111048660Y-103685586D01*
X110865751Y-103536784D01*
X110752830Y-103412618D01*
X110638071Y-103242127D01*
X110539781Y-103044709D01*
X110464025Y-102834471D01*
X110418331Y-102634917D01*
X110411879Y-102557886D01*
X110410524Y-102450868D01*
X110413631Y-102325819D01*
X110420565Y-102194695D01*
X110430691Y-102069452D01*
X110443375Y-101962046D01*
X110457981Y-101884434D01*
X110458227Y-101883500D01*
X110543879Y-101635480D01*
X110661965Y-101414513D01*
X110811789Y-101221298D01*
X110992655Y-101056534D01*
X111203869Y-100920919D01*
X111444735Y-100815151D01*
X111558084Y-100778780D01*
X111629428Y-100759763D01*
X111696707Y-100746331D01*
X111769732Y-100737559D01*
X111858315Y-100732522D01*
X111972267Y-100730297D01*
X112076667Y-100729917D01*
X112215118Y-100730673D01*
X112321052Y-100733559D01*
X112404269Y-100739500D01*
X112474566Y-100749422D01*
X112541744Y-100764248D01*
X112594968Y-100778851D01*
X112848678Y-100871706D01*
X113072412Y-100994238D01*
X113265448Y-101145525D01*
X113392969Y-101286854D01*
X113392969Y-100334074D01*
X113357706Y-100331107D01*
X113313096Y-100323315D01*
X113255334Y-100309583D01*
X113180618Y-100288797D01*
X113085144Y-100259841D01*
X112965106Y-100221600D01*
X112816702Y-100172961D01*
X112636127Y-100112809D01*
X112419578Y-100040028D01*
X112404750Y-100035030D01*
X112106338Y-99934394D01*
X111845357Y-99846262D01*
X111619105Y-99769680D01*
X111424875Y-99703694D01*
X111259963Y-99647351D01*
X111121664Y-99599699D01*
X111007272Y-99559784D01*
X110914084Y-99526651D01*
X110839393Y-99499350D01*
X110780495Y-99476925D01*
X110734685Y-99458423D01*
X110699258Y-99442892D01*
X110671509Y-99429379D01*
X110648733Y-99416928D01*
X110645444Y-99415015D01*
X110546846Y-99340642D01*
X110469710Y-99249687D01*
X110426024Y-99159668D01*
X110409816Y-99066423D01*
X110408190Y-98959051D01*
X110420967Y-98860643D01*
X110428547Y-98833367D01*
X110474832Y-98741924D01*
X110550407Y-98662887D01*
X110659279Y-98593203D01*
X110805456Y-98529821D01*
X110845890Y-98515429D01*
X110891514Y-98500945D01*
X110972768Y-98476449D01*
X111084542Y-98443430D01*
X111221725Y-98403380D01*
X111379206Y-98357788D01*
X111551875Y-98308143D01*
X111734622Y-98255936D01*
X111788825Y-98240516D01*
X111969215Y-98189079D01*
X112137334Y-98140829D01*
X112288717Y-98097069D01*
X112418904Y-98059102D01*
X112523432Y-98028233D01*
X112597838Y-98005766D01*
X112637660Y-97993004D01*
X112642794Y-97990972D01*
X112628599Y-97982340D01*
X112577584Y-97963235D01*
X112493612Y-97934882D01*
X112380549Y-97898504D01*
X112242259Y-97855327D01*
X112082607Y-97806576D01*
X111905456Y-97753475D01*
X111732628Y-97702502D01*
X111536644Y-97644675D01*
X111349429Y-97588567D01*
X111175696Y-97535651D01*
X111020156Y-97487400D01*
X110887520Y-97445289D01*
X110782502Y-97410790D01*
X110709813Y-97385379D01*
X110678757Y-97372894D01*
X110557562Y-97298273D01*
X110473026Y-97204625D01*
X110422959Y-97088412D01*
X110405172Y-96946093D01*
X110405083Y-96930500D01*
X110424525Y-96799928D01*
X110482077Y-96686380D01*
X110578102Y-96589431D01*
X110712963Y-96508657D01*
X110794149Y-96474547D01*
X110912560Y-96431060D01*
X111056216Y-96379700D01*
X111220869Y-96321883D01*
X111402272Y-96259021D01*
X111596177Y-96192529D01*
X111798336Y-96123820D01*
X112004500Y-96054309D01*
X112210422Y-95985409D01*
X112411854Y-95918534D01*
X112604547Y-95855098D01*
X112784255Y-95796515D01*
X112946728Y-95744199D01*
X113087720Y-95699564D01*
X113202981Y-95664023D01*
X113288265Y-95638991D01*
X113339322Y-95625881D01*
X113348515Y-95624352D01*
X113476247Y-95629661D01*
X113582438Y-95670046D01*
X113663681Y-95742327D01*
X113716565Y-95843327D01*
X113737684Y-95969866D01*
X113737920Y-95987470D01*
X113724634Y-96104321D01*
X113682721Y-96193423D01*
X113608071Y-96261534D01*
X113552894Y-96291876D01*
X113515211Y-96306065D01*
X113441140Y-96330724D01*
X113334954Y-96364538D01*
X113200928Y-96406192D01*
X113043333Y-96454373D01*
X112866443Y-96507766D01*
X112674531Y-96565057D01*
X112471871Y-96624932D01*
X112429857Y-96637267D01*
X112166076Y-96715138D01*
X111943029Y-96782068D01*
X111760570Y-96838105D01*
X111618551Y-96883297D01*
X111516824Y-96917690D01*
X111455242Y-96941332D01*
X111433657Y-96954270D01*
X111435024Y-96956098D01*
X111463244Y-96965169D01*
X111527652Y-96984425D01*
X111623692Y-97012549D01*
X111746812Y-97048224D01*
X111892458Y-97090131D01*
X112056075Y-97136954D01*
X112233111Y-97187374D01*
X112298917Y-97206057D01*
X112550620Y-97277574D01*
X112764942Y-97338849D01*
X112945273Y-97391050D01*
X113094998Y-97435344D01*
X113217506Y-97472895D01*
X113316184Y-97504872D01*
X113394419Y-97532441D01*
X113455600Y-97556767D01*
X113503113Y-97579018D01*
X113540346Y-97600359D01*
X113570688Y-97621958D01*
X113597524Y-97644981D01*
X113611262Y-97657945D01*
X113694751Y-97765053D01*
X113740582Y-97884948D01*
X113748814Y-98011189D01*
X113719505Y-98137334D01*
X113652712Y-98256944D01*
X113605378Y-98312181D01*
X113585120Y-98332393D01*
X113564170Y-98350668D01*
X113539281Y-98368101D01*
X113507205Y-98385790D01*
X113464693Y-98404830D01*
X113408497Y-98426317D01*
X113335370Y-98451348D01*
X113242063Y-98481018D01*
X113125328Y-98516425D01*
X112981917Y-98558663D01*
X112808582Y-98608830D01*
X112602075Y-98668021D01*
X112359149Y-98737332D01*
X112272046Y-98762154D01*
X112088109Y-98814727D01*
X111917604Y-98863771D01*
X111764656Y-98908078D01*
X111633395Y-98946437D01*
X111527946Y-98977637D01*
X111452437Y-99000470D01*
X111410995Y-99013724D01*
X111404213Y-99016595D01*
X111425044Y-99023433D01*
X111482607Y-99040927D01*
X111572983Y-99067919D01*
X111692252Y-99103252D01*
X111836494Y-99145769D01*
X112001791Y-99194311D01*
X112184222Y-99247722D01*
X112379869Y-99304844D01*
X112404750Y-99312097D01*
X112664726Y-99388226D01*
X112886953Y-99454191D01*
X113074495Y-99511083D01*
X113230412Y-99559997D01*
X113357765Y-99602026D01*
X113459616Y-99638260D01*
X113539028Y-99669795D01*
X113599060Y-99697722D01*
X113642775Y-99723134D01*
X113673233Y-99747124D01*
X113693498Y-99770784D01*
X113694666Y-99772536D01*
X113733033Y-99865396D01*
X113743982Y-99974821D01*
X113726945Y-100084647D01*
X113707424Y-100135343D01*
X113640895Y-100236002D01*
X113554469Y-100300294D01*
X113443850Y-100331208D01*
X113422690Y-100333330D01*
X113392969Y-100334074D01*
X113392969Y-101286854D01*
X113427066Y-101324644D01*
X113556543Y-101530673D01*
X113653159Y-101762690D01*
X113716191Y-102019774D01*
X113742082Y-102244945D01*
X113740626Y-102520926D01*
X113701255Y-102781549D01*
X113624653Y-103024857D01*
X113511507Y-103248898D01*
X113362501Y-103451717D01*
X113292622Y-103526857D01*
X113203409Y-103613161D01*
X113126648Y-103677107D01*
X113047955Y-103729079D01*
X112952947Y-103779461D01*
X112921905Y-103794486D01*
X112787285Y-103855725D01*
X112669047Y-103901042D01*
X112556238Y-103932691D01*
X112437905Y-103952927D01*
X112303094Y-103964002D01*
X112140852Y-103968172D01*
X112076667Y-103968417D01*
X112076667Y-104637528D01*
X112200618Y-104636875D01*
X112409802Y-104636473D01*
X112611108Y-104636818D01*
X112799971Y-104637940D01*
X112971826Y-104639868D01*
X113122110Y-104642631D01*
X113246258Y-104646261D01*
X113339706Y-104650786D01*
X113397888Y-104656237D01*
X113405901Y-104657645D01*
X113525925Y-104700906D01*
X113622004Y-104771554D01*
X113691903Y-104862629D01*
X113733389Y-104967169D01*
X113744227Y-105078215D01*
X113722183Y-105188805D01*
X113665023Y-105291979D01*
X113624038Y-105337224D01*
X113559472Y-105387824D01*
X113489364Y-105426999D01*
X113460472Y-105437647D01*
X113417935Y-105443207D01*
X113333226Y-105447999D01*
X113206498Y-105452022D01*
X113037906Y-105455273D01*
X112827604Y-105457750D01*
X112575745Y-105459450D01*
X112282483Y-105460370D01*
X112074037Y-105460549D01*
X112074037Y-107736083D01*
X114525331Y-107736083D01*
X114525331Y-105460202D01*
X114400325Y-105440738D01*
X114294726Y-105387531D01*
X114212509Y-105306256D01*
X114157648Y-105202590D01*
X114134116Y-105082209D01*
X114145887Y-104950788D01*
X114151932Y-104926866D01*
X114199416Y-104824866D01*
X114275937Y-104735489D01*
X114349313Y-104683905D01*
X114427129Y-104659580D01*
X114524816Y-104650576D01*
X114623419Y-104656960D01*
X114703984Y-104678796D01*
X114711917Y-104682654D01*
X114813303Y-104757813D01*
X114885145Y-104857310D01*
X114924536Y-104972619D01*
X114928574Y-105095213D01*
X114894353Y-105216568D01*
X114894038Y-105217250D01*
X114821301Y-105331212D01*
X114725815Y-105410181D01*
X114609738Y-105452735D01*
X114525331Y-105460202D01*
X114525331Y-107736083D01*
X115812584Y-107736083D01*
X115938682Y-107674170D01*
X116088169Y-107577794D01*
X116213580Y-107449614D01*
X116303200Y-107306755D01*
X116323069Y-107264774D01*
X116338019Y-107226767D01*
X116348875Y-107185809D01*
X116356463Y-107134974D01*
X116361608Y-107067338D01*
X116365136Y-106975976D01*
X116367873Y-106853963D01*
X116369722Y-106748894D01*
X116377136Y-106312038D01*
X116666360Y-106303737D01*
X116784248Y-106299839D01*
X116869336Y-106294918D01*
X116931151Y-106287292D01*
X116979223Y-106275285D01*
X117023078Y-106257216D01*
X117070085Y-106232593D01*
X117125209Y-106201099D01*
X117168656Y-106170522D01*
X117201814Y-106135583D01*
X117226073Y-106091001D01*
X117242822Y-106031497D01*
X117253450Y-105951792D01*
X117259345Y-105846605D01*
X117261896Y-105710656D01*
X117262493Y-105538666D01*
X117262500Y-105501169D01*
X117262117Y-105323243D01*
X117259933Y-105182317D01*
X117254399Y-105073061D01*
X117243966Y-104990143D01*
X117227082Y-104928231D01*
X117202200Y-104881993D01*
X117167769Y-104846098D01*
X117122238Y-104815215D01*
X117064060Y-104784011D01*
X117052308Y-104778042D01*
X117002774Y-104754252D01*
X116958357Y-104738002D01*
X116909311Y-104727864D01*
X116845892Y-104722410D01*
X116758355Y-104720211D01*
X116655177Y-104719833D01*
X116372945Y-104719833D01*
X116378514Y-103994875D01*
X116384084Y-103269917D01*
X116691000Y-103259278D01*
X116828358Y-103253252D01*
X116931613Y-103244442D01*
X117008994Y-103230406D01*
X117068729Y-103208703D01*
X117119049Y-103176892D01*
X117168183Y-103132532D01*
X117188417Y-103111704D01*
X117251917Y-103044962D01*
X117257833Y-102501273D01*
X117259517Y-102318207D01*
X117259263Y-102172344D01*
X117255751Y-102058558D01*
X117247662Y-101971722D01*
X117233676Y-101906711D01*
X117212474Y-101858399D01*
X117182736Y-101821659D01*
X117143143Y-101791366D01*
X117092375Y-101762394D01*
X117063810Y-101747534D01*
X117011548Y-101722090D01*
X116964028Y-101704307D01*
X116911346Y-101692436D01*
X116843598Y-101684727D01*
X116750880Y-101679433D01*
X116658617Y-101675981D01*
X116373500Y-101666311D01*
X116373500Y-100236470D01*
X116675125Y-100229193D01*
X116796863Y-100225675D01*
X116885071Y-100221053D01*
X116948553Y-100213989D01*
X116996114Y-100203145D01*
X117036555Y-100187183D01*
X117071181Y-100169000D01*
X117138823Y-100121627D01*
X117198115Y-100064559D01*
X117215033Y-100042713D01*
X117230060Y-100019421D01*
X117241619Y-99996041D01*
X117250091Y-99967097D01*
X117255860Y-99927110D01*
X117259309Y-99870605D01*
X117260819Y-99792104D01*
X117260775Y-99686129D01*
X117259557Y-99547205D01*
X117258185Y-99425090D01*
X117255951Y-99247395D01*
X117252842Y-99106796D01*
X117247411Y-98998056D01*
X117238207Y-98915943D01*
X117223783Y-98855220D01*
X117202688Y-98810654D01*
X117173476Y-98777011D01*
X117134695Y-98749055D01*
X117084898Y-98721552D01*
X117059874Y-98708631D01*
X117013750Y-98686849D01*
X116968207Y-98671563D01*
X116913911Y-98661345D01*
X116841526Y-98654768D01*
X116741718Y-98650403D01*
X116665185Y-98648262D01*
X116373501Y-98640941D01*
X116373501Y-97210471D01*
X116664542Y-97202120D01*
X116782801Y-97198222D01*
X116868206Y-97193330D01*
X116930232Y-97185779D01*
X116978352Y-97173907D01*
X117022043Y-97156051D01*
X117070085Y-97130927D01*
X117125209Y-97099432D01*
X117168656Y-97068855D01*
X117201814Y-97033916D01*
X117226073Y-96989334D01*
X117242822Y-96929831D01*
X117253450Y-96850125D01*
X117259345Y-96744938D01*
X117261896Y-96608989D01*
X117262493Y-96437000D01*
X117262500Y-96399502D01*
X117262117Y-96221576D01*
G37*
X117262117Y-96221576D02*
X117259933Y-96080650D01*
X117254399Y-95971394D01*
X117243966Y-95888476D01*
X117227082Y-95826564D01*
X117202200Y-95780326D01*
X117167769Y-95744432D01*
X117122238Y-95713548D01*
X117064060Y-95682344D01*
X117052308Y-95676375D01*
X117002598Y-95652513D01*
X116958020Y-95636240D01*
X116908769Y-95626113D01*
X116845043Y-95620688D01*
X116757039Y-95618523D01*
X116656988Y-95618167D01*
X116376566Y-95618167D01*
X116369741Y-95178402D01*
X116362917Y-94738636D01*
X116293478Y-94597698D01*
X116199049Y-94450046D01*
X116076004Y-94326806D01*
X115931987Y-94235206D01*
X115890935Y-94217013D01*
X115770250Y-94168250D01*
X109208584Y-94168250D01*
X109067799Y-94234952D01*
X108912107Y-94329038D01*
X108787943Y-94450200D01*
X108691408Y-94602339D01*
X108682780Y-94620132D01*
X108616241Y-94760917D01*
X108608646Y-95187603D01*
X108601052Y-95614289D01*
X108301568Y-95621519D01*
X108181426Y-95624907D01*
X108094759Y-95629279D01*
X108032710Y-95636074D01*
X107986422Y-95646734D01*
X107947039Y-95662699D01*
X107905705Y-95685410D01*
X107904545Y-95686091D01*
X107856947Y-95714508D01*
X107819375Y-95740880D01*
X107790643Y-95770369D01*
X107769565Y-95808137D01*
X107754956Y-95859346D01*
X107745632Y-95929159D01*
X107740407Y-96022738D01*
X107738096Y-96145245D01*
X107737513Y-96301843D01*
X107737500Y-96413662D01*
X107737500Y-96977814D01*
X107817459Y-97057772D01*
X107890093Y-97116990D01*
X107976287Y-97159454D01*
X108083187Y-97187093D01*
X108217939Y-97201834D01*
X108365759Y-97205667D01*
X108605334Y-97205667D01*
X108605334Y-98640196D01*
X108314292Y-98649013D01*
X108165526Y-98656249D01*
X108051098Y-98669413D01*
X107963152Y-98691007D01*
X107893830Y-98723533D01*
X107835278Y-98769495D01*
X107793080Y-98815029D01*
X107737500Y-98881082D01*
X107737580Y-99435083D01*
X107737901Y-99617556D01*
X107739645Y-99762749D01*
X107744068Y-99875716D01*
X107752427Y-99961511D01*
X107765977Y-100025186D01*
X107785976Y-100071795D01*
X107813679Y-100106392D01*
X107850342Y-100134029D01*
X107897223Y-100159761D01*
X107920641Y-100171402D01*
X107967719Y-100192350D01*
X108015564Y-100207048D01*
X108073565Y-100216867D01*
X108151107Y-100223175D01*
X108257579Y-100227342D01*
X108314292Y-100228808D01*
X108605334Y-100235700D01*
X108605334Y-101665830D01*
X108321362Y-101676666D01*
X108164908Y-101686232D01*
X108043164Y-101703024D01*
X107948794Y-101729365D01*
X107874461Y-101767573D01*
X107812827Y-101819971D01*
X107790911Y-101844440D01*
X107737500Y-101907915D01*
X107737500Y-102474936D01*
X107737631Y-102656180D01*
X107738941Y-102800156D01*
X107742807Y-102911932D01*
X107750606Y-102996573D01*
X107763713Y-103059146D01*
X107783505Y-103104716D01*
X107811359Y-103138350D01*
X107848651Y-103165114D01*
X107896759Y-103190073D01*
X107936915Y-103208862D01*
X107985995Y-103229739D01*
X108033899Y-103243917D01*
X108090435Y-103252667D01*
X108165408Y-103257259D01*
X108268626Y-103258964D01*
X108324875Y-103259127D01*
X108605334Y-103259333D01*
X108605334Y-104715864D01*
X108303709Y-104723140D01*
X108183128Y-104726527D01*
X108096074Y-104730869D01*
X108033743Y-104737591D01*
X107987330Y-104748118D01*
X107948032Y-104763877D01*
X107907044Y-104786291D01*
X107904545Y-104787758D01*
X107856947Y-104816175D01*
X107819375Y-104842547D01*
X107790643Y-104872036D01*
X107769565Y-104909804D01*
X107754956Y-104961013D01*
X107745632Y-105030826D01*
X107740407Y-105124405D01*
X107738096Y-105246912D01*
X107737513Y-105403509D01*
X107737500Y-105515329D01*
X107737500Y-106079481D01*
X107817459Y-106159439D01*
X107890610Y-106218956D01*
X107977585Y-106261560D01*
X108085520Y-106289184D01*
X108221551Y-106303759D01*
X108363550Y-106307333D01*
X108600917Y-106307333D01*
X108609954Y-106725375D01*
X108613609Y-106873406D01*
X108617827Y-106986460D01*
X108623379Y-107071895D01*
X108631038Y-107137066D01*
X108641574Y-107189331D01*
X108655760Y-107236046D01*
X108666573Y-107265054D01*
X108736588Y-107395486D01*
X108837342Y-107518489D01*
X108957522Y-107621776D01*
X109042705Y-107673541D01*
X109166250Y-107736083D01*
X112074037Y-107736083D01*
X112074037Y-105460549D01*
X111794458Y-105460537D01*
X111553956Y-105460277D01*
X111349273Y-105459512D01*
X111177152Y-105457983D01*
X111034336Y-105455434D01*
X110917569Y-105451607D01*
X110823593Y-105446246D01*
X110749151Y-105439093D01*
X110690987Y-105429890D01*
X110645842Y-105418382D01*
X110610461Y-105404310D01*
X110581586Y-105387417D01*
X110555960Y-105367447D01*
X110530326Y-105344141D01*
X110523931Y-105338136D01*
X110450752Y-105241895D01*
X110410839Y-105127845D01*
X110406491Y-105007045D01*
X110433727Y-104904362D01*
X110485092Y-104823885D01*
X110562429Y-104747251D01*
X110650626Y-104688523D01*
X110679667Y-104675419D01*
X110716586Y-104669187D01*
X110791271Y-104663403D01*
X110899159Y-104658098D01*
X111035684Y-104653302D01*
X111196283Y-104649045D01*
X111376390Y-104645355D01*
X111571442Y-104642264D01*
X111776874Y-104639800D01*
X111988120Y-104637994D01*
X112076667Y-104637528D01*
X112076667Y-103968417D01*
X111900109Y-103965941D01*
X111755132Y-103957136D01*
X111631199Y-103939930D01*
X111517775Y-103912256D01*
X111404321Y-103872044D01*
X111280301Y-103817225D01*
X111261750Y-103808390D01*
X111048660Y-103685586D01*
X110865751Y-103536784D01*
X110752830Y-103412618D01*
X110638071Y-103242127D01*
X110539781Y-103044709D01*
X110464025Y-102834471D01*
X110418331Y-102634917D01*
X110411879Y-102557886D01*
X110410524Y-102450868D01*
X110413631Y-102325819D01*
X110420565Y-102194695D01*
X110430691Y-102069452D01*
X110443375Y-101962046D01*
X110457981Y-101884434D01*
X110458227Y-101883500D01*
X110543879Y-101635480D01*
X110661965Y-101414513D01*
X110811789Y-101221298D01*
X110992655Y-101056534D01*
X111203869Y-100920919D01*
X111444735Y-100815151D01*
X111558084Y-100778780D01*
X111629428Y-100759763D01*
X111696707Y-100746331D01*
X111769732Y-100737559D01*
X111858315Y-100732522D01*
X111972267Y-100730297D01*
X112076667Y-100729917D01*
X112215118Y-100730673D01*
X112321052Y-100733559D01*
X112404269Y-100739500D01*
X112474566Y-100749422D01*
X112541744Y-100764248D01*
X112594968Y-100778851D01*
X112848678Y-100871706D01*
X113072412Y-100994238D01*
X113265448Y-101145525D01*
X113392969Y-101286854D01*
X113392969Y-100334074D01*
X113357706Y-100331107D01*
X113313096Y-100323315D01*
X113255334Y-100309583D01*
X113180618Y-100288797D01*
X113085144Y-100259841D01*
X112965106Y-100221600D01*
X112816702Y-100172961D01*
X112636127Y-100112809D01*
X112419578Y-100040028D01*
X112404750Y-100035030D01*
X112106338Y-99934394D01*
X111845357Y-99846262D01*
X111619105Y-99769680D01*
X111424875Y-99703694D01*
X111259963Y-99647351D01*
X111121664Y-99599699D01*
X111007272Y-99559784D01*
X110914084Y-99526651D01*
X110839393Y-99499350D01*
X110780495Y-99476925D01*
X110734685Y-99458423D01*
X110699258Y-99442892D01*
X110671509Y-99429379D01*
X110648733Y-99416928D01*
X110645444Y-99415015D01*
X110546846Y-99340642D01*
X110469710Y-99249687D01*
X110426024Y-99159668D01*
X110409816Y-99066423D01*
X110408190Y-98959051D01*
X110420967Y-98860643D01*
X110428547Y-98833367D01*
X110474832Y-98741924D01*
X110550407Y-98662887D01*
X110659279Y-98593203D01*
X110805456Y-98529821D01*
X110845890Y-98515429D01*
X110891514Y-98500945D01*
X110972768Y-98476449D01*
X111084542Y-98443430D01*
X111221725Y-98403380D01*
X111379206Y-98357788D01*
X111551875Y-98308143D01*
X111734622Y-98255936D01*
X111788825Y-98240516D01*
X111969215Y-98189079D01*
X112137334Y-98140829D01*
X112288717Y-98097069D01*
X112418904Y-98059102D01*
X112523432Y-98028233D01*
X112597838Y-98005766D01*
X112637660Y-97993004D01*
X112642794Y-97990972D01*
X112628599Y-97982340D01*
X112577584Y-97963235D01*
X112493612Y-97934882D01*
X112380549Y-97898504D01*
X112242259Y-97855327D01*
X112082607Y-97806576D01*
X111905456Y-97753475D01*
X111732628Y-97702502D01*
X111536644Y-97644675D01*
X111349429Y-97588567D01*
X111175696Y-97535651D01*
X111020156Y-97487400D01*
X110887520Y-97445289D01*
X110782502Y-97410790D01*
X110709813Y-97385379D01*
X110678757Y-97372894D01*
X110557562Y-97298273D01*
X110473026Y-97204625D01*
X110422959Y-97088412D01*
X110405172Y-96946093D01*
X110405083Y-96930500D01*
X110424525Y-96799928D01*
X110482077Y-96686380D01*
X110578102Y-96589431D01*
X110712963Y-96508657D01*
X110794149Y-96474547D01*
X110912560Y-96431060D01*
X111056216Y-96379700D01*
X111220869Y-96321883D01*
X111402272Y-96259021D01*
X111596177Y-96192529D01*
X111798336Y-96123820D01*
X112004500Y-96054309D01*
X112210422Y-95985409D01*
X112411854Y-95918534D01*
X112604547Y-95855098D01*
X112784255Y-95796515D01*
X112946728Y-95744199D01*
X113087720Y-95699564D01*
X113202981Y-95664023D01*
X113288265Y-95638991D01*
X113339322Y-95625881D01*
X113348515Y-95624352D01*
X113476247Y-95629661D01*
X113582438Y-95670046D01*
X113663681Y-95742327D01*
X113716565Y-95843327D01*
X113737684Y-95969866D01*
X113737920Y-95987470D01*
X113724634Y-96104321D01*
X113682721Y-96193423D01*
X113608071Y-96261534D01*
X113552894Y-96291876D01*
X113515211Y-96306065D01*
X113441140Y-96330724D01*
X113334954Y-96364538D01*
X113200928Y-96406192D01*
X113043333Y-96454373D01*
X112866443Y-96507766D01*
X112674531Y-96565057D01*
X112471871Y-96624932D01*
X112429857Y-96637267D01*
X112166076Y-96715138D01*
X111943029Y-96782068D01*
X111760570Y-96838105D01*
X111618551Y-96883297D01*
X111516824Y-96917690D01*
X111455242Y-96941332D01*
X111433657Y-96954270D01*
X111435024Y-96956098D01*
X111463244Y-96965169D01*
X111527652Y-96984425D01*
X111623692Y-97012549D01*
X111746812Y-97048224D01*
X111892458Y-97090131D01*
X112056075Y-97136954D01*
X112233111Y-97187374D01*
X112298917Y-97206057D01*
X112550620Y-97277574D01*
X112764942Y-97338849D01*
X112945273Y-97391050D01*
X113094998Y-97435344D01*
X113217506Y-97472895D01*
X113316184Y-97504872D01*
X113394419Y-97532441D01*
X113455600Y-97556767D01*
X113503113Y-97579018D01*
X113540346Y-97600359D01*
X113570688Y-97621958D01*
X113597524Y-97644981D01*
X113611262Y-97657945D01*
X113694751Y-97765053D01*
X113740582Y-97884948D01*
X113748814Y-98011189D01*
X113719505Y-98137334D01*
X113652712Y-98256944D01*
X113605378Y-98312181D01*
X113585120Y-98332393D01*
X113564170Y-98350668D01*
X113539281Y-98368101D01*
X113507205Y-98385790D01*
X113464693Y-98404830D01*
X113408497Y-98426317D01*
X113335370Y-98451348D01*
X113242063Y-98481018D01*
X113125328Y-98516425D01*
X112981917Y-98558663D01*
X112808582Y-98608830D01*
X112602075Y-98668021D01*
X112359149Y-98737332D01*
X112272046Y-98762154D01*
X112088109Y-98814727D01*
X111917604Y-98863771D01*
X111764656Y-98908078D01*
X111633395Y-98946437D01*
X111527946Y-98977637D01*
X111452437Y-99000470D01*
X111410995Y-99013724D01*
X111404213Y-99016595D01*
X111425044Y-99023433D01*
X111482607Y-99040927D01*
X111572983Y-99067919D01*
X111692252Y-99103252D01*
X111836494Y-99145769D01*
X112001791Y-99194311D01*
X112184222Y-99247722D01*
X112379869Y-99304844D01*
X112404750Y-99312097D01*
X112664726Y-99388226D01*
X112886953Y-99454191D01*
X113074495Y-99511083D01*
X113230412Y-99559997D01*
X113357765Y-99602026D01*
X113459616Y-99638260D01*
X113539028Y-99669795D01*
X113599060Y-99697722D01*
X113642775Y-99723134D01*
X113673233Y-99747124D01*
X113693498Y-99770784D01*
X113694666Y-99772536D01*
X113733033Y-99865396D01*
X113743982Y-99974821D01*
X113726945Y-100084647D01*
X113707424Y-100135343D01*
X113640895Y-100236002D01*
X113554469Y-100300294D01*
X113443850Y-100331208D01*
X113422690Y-100333330D01*
X113392969Y-100334074D01*
X113392969Y-101286854D01*
X113427066Y-101324644D01*
X113556543Y-101530673D01*
X113653159Y-101762690D01*
X113716191Y-102019774D01*
X113742082Y-102244945D01*
X113740626Y-102520926D01*
X113701255Y-102781549D01*
X113624653Y-103024857D01*
X113511507Y-103248898D01*
X113362501Y-103451717D01*
X113292622Y-103526857D01*
X113203409Y-103613161D01*
X113126648Y-103677107D01*
X113047955Y-103729079D01*
X112952947Y-103779461D01*
X112921905Y-103794486D01*
X112787285Y-103855725D01*
X112669047Y-103901042D01*
X112556238Y-103932691D01*
X112437905Y-103952927D01*
X112303094Y-103964002D01*
X112140852Y-103968172D01*
X112076667Y-103968417D01*
X112076667Y-104637528D01*
X112200618Y-104636875D01*
X112409802Y-104636473D01*
X112611108Y-104636818D01*
X112799971Y-104637940D01*
X112971826Y-104639868D01*
X113122110Y-104642631D01*
X113246258Y-104646261D01*
X113339706Y-104650786D01*
X113397888Y-104656237D01*
X113405901Y-104657645D01*
X113525925Y-104700906D01*
X113622004Y-104771554D01*
X113691903Y-104862629D01*
X113733389Y-104967169D01*
X113744227Y-105078215D01*
X113722183Y-105188805D01*
X113665023Y-105291979D01*
X113624038Y-105337224D01*
X113559472Y-105387824D01*
X113489364Y-105426999D01*
X113460472Y-105437647D01*
X113417935Y-105443207D01*
X113333226Y-105447999D01*
X113206498Y-105452022D01*
X113037906Y-105455273D01*
X112827604Y-105457750D01*
X112575745Y-105459450D01*
X112282483Y-105460370D01*
X112074037Y-105460549D01*
X112074037Y-107736083D01*
X114525331Y-107736083D01*
X114525331Y-105460202D01*
X114400325Y-105440738D01*
X114294726Y-105387531D01*
X114212509Y-105306256D01*
X114157648Y-105202590D01*
X114134116Y-105082209D01*
X114145887Y-104950788D01*
X114151932Y-104926866D01*
X114199416Y-104824866D01*
X114275937Y-104735489D01*
X114349313Y-104683905D01*
X114427129Y-104659580D01*
X114524816Y-104650576D01*
X114623419Y-104656960D01*
X114703984Y-104678796D01*
X114711917Y-104682654D01*
X114813303Y-104757813D01*
X114885145Y-104857310D01*
X114924536Y-104972619D01*
X114928574Y-105095213D01*
X114894353Y-105216568D01*
X114894038Y-105217250D01*
X114821301Y-105331212D01*
X114725815Y-105410181D01*
X114609738Y-105452735D01*
X114525331Y-105460202D01*
X114525331Y-107736083D01*
X115812584Y-107736083D01*
X115938682Y-107674170D01*
X116088169Y-107577794D01*
X116213580Y-107449614D01*
X116303200Y-107306755D01*
X116323069Y-107264774D01*
X116338019Y-107226767D01*
X116348875Y-107185809D01*
X116356463Y-107134974D01*
X116361608Y-107067338D01*
X116365136Y-106975976D01*
X116367873Y-106853963D01*
X116369722Y-106748894D01*
X116377136Y-106312038D01*
X116666360Y-106303737D01*
X116784248Y-106299839D01*
X116869336Y-106294918D01*
X116931151Y-106287292D01*
X116979223Y-106275285D01*
X117023078Y-106257216D01*
X117070085Y-106232593D01*
X117125209Y-106201099D01*
X117168656Y-106170522D01*
X117201814Y-106135583D01*
X117226073Y-106091001D01*
X117242822Y-106031497D01*
X117253450Y-105951792D01*
X117259345Y-105846605D01*
X117261896Y-105710656D01*
X117262493Y-105538666D01*
X117262500Y-105501169D01*
X117262117Y-105323243D01*
X117259933Y-105182317D01*
X117254399Y-105073061D01*
X117243966Y-104990143D01*
X117227082Y-104928231D01*
X117202200Y-104881993D01*
X117167769Y-104846098D01*
X117122238Y-104815215D01*
X117064060Y-104784011D01*
X117052308Y-104778042D01*
X117002774Y-104754252D01*
X116958357Y-104738002D01*
X116909311Y-104727864D01*
X116845892Y-104722410D01*
X116758355Y-104720211D01*
X116655177Y-104719833D01*
X116372945Y-104719833D01*
X116378514Y-103994875D01*
X116384084Y-103269917D01*
X116691000Y-103259278D01*
X116828358Y-103253252D01*
X116931613Y-103244442D01*
X117008994Y-103230406D01*
X117068729Y-103208703D01*
X117119049Y-103176892D01*
X117168183Y-103132532D01*
X117188417Y-103111704D01*
X117251917Y-103044962D01*
X117257833Y-102501273D01*
X117259517Y-102318207D01*
X117259263Y-102172344D01*
X117255751Y-102058558D01*
X117247662Y-101971722D01*
X117233676Y-101906711D01*
X117212474Y-101858399D01*
X117182736Y-101821659D01*
X117143143Y-101791366D01*
X117092375Y-101762394D01*
X117063810Y-101747534D01*
X117011548Y-101722090D01*
X116964028Y-101704307D01*
X116911346Y-101692436D01*
X116843598Y-101684727D01*
X116750880Y-101679433D01*
X116658617Y-101675981D01*
X116373500Y-101666311D01*
X116373500Y-100236470D01*
X116675125Y-100229193D01*
X116796863Y-100225675D01*
X116885071Y-100221053D01*
X116948553Y-100213989D01*
X116996114Y-100203145D01*
X117036555Y-100187183D01*
X117071181Y-100169000D01*
X117138823Y-100121627D01*
X117198115Y-100064559D01*
X117215033Y-100042713D01*
X117230060Y-100019421D01*
X117241619Y-99996041D01*
X117250091Y-99967097D01*
X117255860Y-99927110D01*
X117259309Y-99870605D01*
X117260819Y-99792104D01*
X117260775Y-99686129D01*
X117259557Y-99547205D01*
X117258185Y-99425090D01*
X117255951Y-99247395D01*
X117252842Y-99106796D01*
X117247411Y-98998056D01*
X117238207Y-98915943D01*
X117223783Y-98855220D01*
X117202688Y-98810654D01*
X117173476Y-98777011D01*
X117134695Y-98749055D01*
X117084898Y-98721552D01*
X117059874Y-98708631D01*
X117013750Y-98686849D01*
X116968207Y-98671563D01*
X116913911Y-98661345D01*
X116841526Y-98654768D01*
X116741718Y-98650403D01*
X116665185Y-98648262D01*
X116373501Y-98640941D01*
X116373501Y-97210471D01*
X116664542Y-97202120D01*
X116782801Y-97198222D01*
X116868206Y-97193330D01*
X116930232Y-97185779D01*
X116978352Y-97173907D01*
X117022043Y-97156051D01*
X117070085Y-97130927D01*
X117125209Y-97099432D01*
X117168656Y-97068855D01*
X117201814Y-97033916D01*
X117226073Y-96989334D01*
X117242822Y-96929831D01*
X117253450Y-96850125D01*
X117259345Y-96744938D01*
X117261896Y-96608989D01*
X117262493Y-96437000D01*
X117262500Y-96399502D01*
X117262117Y-96221576D01*
G36*
X113458029Y-88645827D02*
G01*
X113411469Y-88420089D01*
X113334522Y-88221603D01*
X113227719Y-88051434D01*
X113091593Y-87910649D01*
X112926678Y-87800313D01*
X112924260Y-87799038D01*
X112867282Y-87770027D01*
X112812858Y-87745332D01*
X112757146Y-87724606D01*
X112696306Y-87707504D01*
X112626497Y-87693678D01*
X112543879Y-87682784D01*
X112444611Y-87674475D01*
X112324852Y-87668404D01*
X112180763Y-87664226D01*
X112008502Y-87661593D01*
X111804229Y-87660161D01*
X111564104Y-87659583D01*
X111376305Y-87659500D01*
X110298667Y-87659500D01*
X110298667Y-88252167D01*
X110511036Y-88252167D01*
X110437988Y-88358360D01*
X110370452Y-88466960D01*
X110322647Y-88572228D01*
X110291362Y-88685596D01*
X110273389Y-88818499D01*
X110265753Y-88971833D01*
X110264028Y-89078314D01*
X110263962Y-89173522D01*
X110265464Y-89247169D01*
X110268446Y-89288965D01*
X110268508Y-89289333D01*
X110305861Y-89473412D01*
X110350550Y-89623023D01*
X110406048Y-89745854D01*
X110475832Y-89849593D01*
X110563373Y-89941930D01*
X110563441Y-89941991D01*
X110665322Y-90023626D01*
X110771073Y-90082084D01*
X110890804Y-90120972D01*
X111034623Y-90143894D01*
X111153076Y-90152281D01*
X111260644Y-90150934D01*
X111260644Y-89584111D01*
X111122033Y-89573947D01*
X111071250Y-89562041D01*
X110976016Y-89515422D01*
X110891679Y-89435830D01*
X110826702Y-89332557D01*
X110801272Y-89265643D01*
X110783689Y-89177401D01*
X110772035Y-89060679D01*
X110766569Y-88928946D01*
X110767555Y-88795675D01*
X110775252Y-88674336D01*
X110788108Y-88586584D01*
X110810030Y-88504493D01*
X110838252Y-88425361D01*
X110851325Y-88396441D01*
X110879272Y-88345650D01*
X110908697Y-88308402D01*
X110946377Y-88282607D01*
X110999090Y-88266175D01*
X111073615Y-88257017D01*
X111176728Y-88253044D01*
X111315209Y-88252167D01*
X111653334Y-88252167D01*
X111653334Y-88741836D01*
X111652050Y-88936178D01*
X111648243Y-89093595D01*
X111641981Y-89212568D01*
X111633330Y-89291576D01*
X111627919Y-89316334D01*
X111575132Y-89424707D01*
X111492671Y-89507073D01*
X111386016Y-89561014D01*
X111260644Y-89584111D01*
X111260644Y-90150934D01*
X111370925Y-90149553D01*
X111558168Y-90119262D01*
X111717191Y-90060370D01*
X111850384Y-89971837D01*
X111960133Y-89852624D01*
X112007344Y-89780537D01*
X112045021Y-89711716D01*
X112075365Y-89643530D01*
X112099273Y-89570209D01*
X112117646Y-89485987D01*
X112131383Y-89385096D01*
X112141383Y-89261766D01*
X112148546Y-89110231D01*
X112153772Y-88924723D01*
X112155724Y-88828958D01*
X112166547Y-88252167D01*
X112297682Y-88252167D01*
X112470159Y-88268959D01*
X112618381Y-88318964D01*
X112729197Y-88391548D01*
X112805959Y-88466783D01*
X112859273Y-88545472D01*
X112893359Y-88637930D01*
X112912436Y-88754470D01*
X112919110Y-88855672D01*
X112921896Y-88962044D01*
X112918710Y-89042521D01*
X112907518Y-89113362D01*
X112886285Y-89190821D01*
X112871414Y-89236672D01*
X112838268Y-89327005D01*
X112801967Y-89411805D01*
X112769487Y-89474992D01*
X112764595Y-89482814D01*
X112714126Y-89559877D01*
X112862852Y-89779147D01*
X112920102Y-89863235D01*
X112968610Y-89933888D01*
X113003537Y-89984098D01*
X113020042Y-90006859D01*
X113020456Y-90007320D01*
X113041984Y-90001577D01*
X113081249Y-89967439D01*
X113132104Y-89911463D01*
X113188406Y-89840209D01*
X113224542Y-89789497D01*
X113339026Y-89584353D01*
X113418712Y-89355648D01*
X113463345Y-89104289D01*
X113473667Y-88897750D01*
X113458029Y-88645827D01*
G37*
X113458029Y-88645827D02*
X113411469Y-88420089D01*
X113334522Y-88221603D01*
X113227719Y-88051434D01*
X113091593Y-87910649D01*
X112926678Y-87800313D01*
X112924260Y-87799038D01*
X112867282Y-87770027D01*
X112812858Y-87745332D01*
X112757146Y-87724606D01*
X112696306Y-87707504D01*
X112626497Y-87693678D01*
X112543879Y-87682784D01*
X112444611Y-87674475D01*
X112324852Y-87668404D01*
X112180763Y-87664226D01*
X112008502Y-87661593D01*
X111804229Y-87660161D01*
X111564104Y-87659583D01*
X111376305Y-87659500D01*
X110298667Y-87659500D01*
X110298667Y-88252167D01*
X110511036Y-88252167D01*
X110437988Y-88358360D01*
X110370452Y-88466960D01*
X110322647Y-88572228D01*
X110291362Y-88685596D01*
X110273389Y-88818499D01*
X110265753Y-88971833D01*
X110264028Y-89078314D01*
X110263962Y-89173522D01*
X110265464Y-89247169D01*
X110268446Y-89288965D01*
X110268508Y-89289333D01*
X110305861Y-89473412D01*
X110350550Y-89623023D01*
X110406048Y-89745854D01*
X110475832Y-89849593D01*
X110563373Y-89941930D01*
X110563441Y-89941991D01*
X110665322Y-90023626D01*
X110771073Y-90082084D01*
X110890804Y-90120972D01*
X111034623Y-90143894D01*
X111153076Y-90152281D01*
X111260644Y-90150934D01*
X111260644Y-89584111D01*
X111122033Y-89573947D01*
X111071250Y-89562041D01*
X110976016Y-89515422D01*
X110891679Y-89435830D01*
X110826702Y-89332557D01*
X110801272Y-89265643D01*
X110783689Y-89177401D01*
X110772035Y-89060679D01*
X110766569Y-88928946D01*
X110767555Y-88795675D01*
X110775252Y-88674336D01*
X110788108Y-88586584D01*
X110810030Y-88504493D01*
X110838252Y-88425361D01*
X110851325Y-88396441D01*
X110879272Y-88345650D01*
X110908697Y-88308402D01*
X110946377Y-88282607D01*
X110999090Y-88266175D01*
X111073615Y-88257017D01*
X111176728Y-88253044D01*
X111315209Y-88252167D01*
X111653334Y-88252167D01*
X111653334Y-88741836D01*
X111652050Y-88936178D01*
X111648243Y-89093595D01*
X111641981Y-89212568D01*
X111633330Y-89291576D01*
X111627919Y-89316334D01*
X111575132Y-89424707D01*
X111492671Y-89507073D01*
X111386016Y-89561014D01*
X111260644Y-89584111D01*
X111260644Y-90150934D01*
X111370925Y-90149553D01*
X111558168Y-90119262D01*
X111717191Y-90060370D01*
X111850384Y-89971837D01*
X111960133Y-89852624D01*
X112007344Y-89780537D01*
X112045021Y-89711716D01*
X112075365Y-89643530D01*
X112099273Y-89570209D01*
X112117646Y-89485987D01*
X112131383Y-89385096D01*
X112141383Y-89261766D01*
X112148546Y-89110231D01*
X112153772Y-88924723D01*
X112155724Y-88828958D01*
X112166547Y-88252167D01*
X112297682Y-88252167D01*
X112470159Y-88268959D01*
X112618381Y-88318964D01*
X112729197Y-88391548D01*
X112805959Y-88466783D01*
X112859273Y-88545472D01*
X112893359Y-88637930D01*
X112912436Y-88754470D01*
X112919110Y-88855672D01*
X112921896Y-88962044D01*
X112918710Y-89042521D01*
X112907518Y-89113362D01*
X112886285Y-89190821D01*
X112871414Y-89236672D01*
X112838268Y-89327005D01*
X112801967Y-89411805D01*
X112769487Y-89474992D01*
X112764595Y-89482814D01*
X112714126Y-89559877D01*
X112862852Y-89779147D01*
X112920102Y-89863235D01*
X112968610Y-89933888D01*
X113003537Y-89984098D01*
X113020042Y-90006859D01*
X113020456Y-90007320D01*
X113041984Y-90001577D01*
X113081249Y-89967439D01*
X113132104Y-89911463D01*
X113188406Y-89840209D01*
X113224542Y-89789497D01*
X113339026Y-89584353D01*
X113418712Y-89355648D01*
X113463345Y-89104289D01*
X113473667Y-88897750D01*
X113458029Y-88645827D01*
G36*
X113022220Y-86114333D02*
G01*
X113117414Y-86040168D01*
X113252362Y-85908976D01*
X113358364Y-85751278D01*
X113431465Y-85574741D01*
X113467711Y-85387029D01*
X113469787Y-85357226D01*
X113463931Y-85136704D01*
X113422471Y-84937517D01*
X113346079Y-84760899D01*
X113235430Y-84608084D01*
X113091196Y-84480307D01*
X112943488Y-84392693D01*
X112862490Y-84355103D01*
X112785104Y-84324742D01*
X112705588Y-84300859D01*
X112618199Y-84282705D01*
X112517196Y-84269533D01*
X112396837Y-84260592D01*
X112251382Y-84255133D01*
X112075087Y-84252408D01*
X111862503Y-84251667D01*
X111668502Y-84252166D01*
X111511342Y-84253824D01*
X111385538Y-84256885D01*
X111285610Y-84261593D01*
X111206073Y-84268190D01*
X111141444Y-84276919D01*
X111096596Y-84285645D01*
X110881827Y-84352162D01*
X110696585Y-84448436D01*
X110542157Y-84572850D01*
X110419829Y-84723787D01*
X110330888Y-84899628D01*
X110276621Y-85098755D01*
X110258315Y-85319551D01*
X110258460Y-85339348D01*
X110262276Y-85428736D01*
X110270132Y-85513205D01*
X110279314Y-85569378D01*
X110334981Y-85724064D01*
X110423587Y-85871786D01*
X110536220Y-85999191D01*
X110602709Y-86053984D01*
X110686019Y-86114333D01*
X110298667Y-86114333D01*
X110298667Y-86728167D01*
X112051639Y-86728167D01*
X112051639Y-86111758D01*
X111902788Y-86111253D01*
X111750510Y-86108946D01*
X111602058Y-86104957D01*
X111464689Y-86099410D01*
X111345656Y-86092428D01*
X111252215Y-86084133D01*
X111191620Y-86074648D01*
X111180756Y-86071527D01*
X111103221Y-86031721D01*
X111018826Y-85969701D01*
X110941797Y-85897597D01*
X110886363Y-85827539D01*
X110878661Y-85813959D01*
X110832872Y-85684949D01*
X110814631Y-85537595D01*
X110823784Y-85385562D01*
X110860175Y-85242515D01*
X110885808Y-85183909D01*
X110971880Y-85060367D01*
X111087935Y-84964043D01*
X111227969Y-84899858D01*
X111234776Y-84897793D01*
X111300260Y-84885542D01*
X111399905Y-84875934D01*
X111525622Y-84868964D01*
X111669322Y-84864626D01*
X111822916Y-84862915D01*
X111978315Y-84863826D01*
X112127430Y-84867355D01*
X112262172Y-84873496D01*
X112374451Y-84882245D01*
X112456178Y-84893596D01*
X112477445Y-84898563D01*
X112627016Y-84959919D01*
X112748048Y-85051302D01*
X112838461Y-85171054D01*
X112852284Y-85197442D01*
X112883642Y-85267558D01*
X112901971Y-85330184D01*
X112910561Y-85401817D01*
X112912699Y-85498951D01*
X112912698Y-85500500D01*
X112910698Y-85596962D01*
X112902480Y-85667727D01*
X112884623Y-85729341D01*
X112853702Y-85798349D01*
X112849198Y-85807417D01*
X112765533Y-85930530D01*
X112653673Y-86022249D01*
X112514670Y-86081786D01*
X112467669Y-86093288D01*
X112405077Y-86101224D01*
X112310038Y-86106866D01*
X112189808Y-86110336D01*
X112051639Y-86111758D01*
X112051639Y-86728167D01*
X114680167Y-86728167D01*
X114680167Y-86114333D01*
X113022220Y-86114333D01*
G37*
X113022220Y-86114333D02*
X113117414Y-86040168D01*
X113252362Y-85908976D01*
X113358364Y-85751278D01*
X113431465Y-85574741D01*
X113467711Y-85387029D01*
X113469787Y-85357226D01*
X113463931Y-85136704D01*
X113422471Y-84937517D01*
X113346079Y-84760899D01*
X113235430Y-84608084D01*
X113091196Y-84480307D01*
X112943488Y-84392693D01*
X112862490Y-84355103D01*
X112785104Y-84324742D01*
X112705588Y-84300859D01*
X112618199Y-84282705D01*
X112517196Y-84269533D01*
X112396837Y-84260592D01*
X112251382Y-84255133D01*
X112075087Y-84252408D01*
X111862503Y-84251667D01*
X111668502Y-84252166D01*
X111511342Y-84253824D01*
X111385538Y-84256885D01*
X111285610Y-84261593D01*
X111206073Y-84268190D01*
X111141444Y-84276919D01*
X111096596Y-84285645D01*
X110881827Y-84352162D01*
X110696585Y-84448436D01*
X110542157Y-84572850D01*
X110419829Y-84723787D01*
X110330888Y-84899628D01*
X110276621Y-85098755D01*
X110258315Y-85319551D01*
X110258460Y-85339348D01*
X110262276Y-85428736D01*
X110270132Y-85513205D01*
X110279314Y-85569378D01*
X110334981Y-85724064D01*
X110423587Y-85871786D01*
X110536220Y-85999191D01*
X110602709Y-86053984D01*
X110686019Y-86114333D01*
X110298667Y-86114333D01*
X110298667Y-86728167D01*
X112051639Y-86728167D01*
X112051639Y-86111758D01*
X111902788Y-86111253D01*
X111750510Y-86108946D01*
X111602058Y-86104957D01*
X111464689Y-86099410D01*
X111345656Y-86092428D01*
X111252215Y-86084133D01*
X111191620Y-86074648D01*
X111180756Y-86071527D01*
X111103221Y-86031721D01*
X111018826Y-85969701D01*
X110941797Y-85897597D01*
X110886363Y-85827539D01*
X110878661Y-85813959D01*
X110832872Y-85684949D01*
X110814631Y-85537595D01*
X110823784Y-85385562D01*
X110860175Y-85242515D01*
X110885808Y-85183909D01*
X110971880Y-85060367D01*
X111087935Y-84964043D01*
X111227969Y-84899858D01*
X111234776Y-84897793D01*
X111300260Y-84885542D01*
X111399905Y-84875934D01*
X111525622Y-84868964D01*
X111669322Y-84864626D01*
X111822916Y-84862915D01*
X111978315Y-84863826D01*
X112127430Y-84867355D01*
X112262172Y-84873496D01*
X112374451Y-84882245D01*
X112456178Y-84893596D01*
X112477445Y-84898563D01*
X112627016Y-84959919D01*
X112748048Y-85051302D01*
X112838461Y-85171054D01*
X112852284Y-85197442D01*
X112883642Y-85267558D01*
X112901971Y-85330184D01*
X112910561Y-85401817D01*
X112912699Y-85498951D01*
X112912698Y-85500500D01*
X112910698Y-85596962D01*
X112902480Y-85667727D01*
X112884623Y-85729341D01*
X112853702Y-85798349D01*
X112849198Y-85807417D01*
X112765533Y-85930530D01*
X112653673Y-86022249D01*
X112514670Y-86081786D01*
X112467669Y-86093288D01*
X112405077Y-86101224D01*
X112310038Y-86106866D01*
X112189808Y-86110336D01*
X112051639Y-86111758D01*
X112051639Y-86728167D01*
X114680167Y-86728167D01*
X114680167Y-86114333D01*
X113022220Y-86114333D01*
G36*
X113451282Y-81892156D02*
G01*
X113414249Y-81695826D01*
X113355267Y-81499045D01*
X113346388Y-81474117D01*
X113313639Y-81392380D01*
X113271875Y-81300695D01*
X113225371Y-81207006D01*
X113178400Y-81119260D01*
X113135236Y-81045401D01*
X113100152Y-80993375D01*
X113077420Y-80971125D01*
X113075682Y-80970833D01*
X113052648Y-80983953D01*
X113002528Y-81020661D01*
X112930370Y-81076986D01*
X112841219Y-81148951D01*
X112740121Y-81232585D01*
X112692543Y-81272572D01*
X112623484Y-81330893D01*
X112698784Y-81465542D01*
X112740719Y-81548890D01*
X112787131Y-81654164D01*
X112830011Y-81762844D01*
X112842892Y-81798804D01*
X112873152Y-81890014D01*
X112893041Y-81964273D01*
X112904725Y-82035726D01*
X112910372Y-82118516D01*
X112912146Y-82226787D01*
X112912225Y-82251417D01*
X112911817Y-82361232D01*
X112908844Y-82439737D01*
X112901485Y-82497951D01*
X112887920Y-82546889D01*
X112866326Y-82597570D01*
X112849250Y-82632417D01*
X112776487Y-82742366D01*
X112687163Y-82819770D01*
X112586700Y-82862029D01*
X112480519Y-82866538D01*
X112405155Y-82845617D01*
X112353411Y-82817169D01*
X112311003Y-82776311D01*
X112276533Y-82718479D01*
X112248607Y-82639110D01*
X112225829Y-82533639D01*
X112206803Y-82397503D01*
X112190133Y-82226138D01*
X112181363Y-82113833D01*
X112161656Y-81893099D01*
X112136737Y-81709128D01*
X112104929Y-81556499D01*
X112064559Y-81429791D01*
X112013950Y-81323581D01*
X111951427Y-81232449D01*
X111887390Y-81162524D01*
X111801011Y-81087152D01*
X111713858Y-81032455D01*
X111616977Y-80995572D01*
X111501415Y-80973639D01*
X111358219Y-80963795D01*
X111261750Y-80962495D01*
X111140883Y-80963509D01*
X111051700Y-80967409D01*
X110983580Y-80975478D01*
X110925905Y-80989003D01*
X110868054Y-81009269D01*
X110864831Y-81010535D01*
X110705283Y-81092137D01*
X110571085Y-81201761D01*
X110461618Y-81340745D01*
X110376264Y-81510424D01*
X110314406Y-81712133D01*
X110275425Y-81947209D01*
X110258702Y-82216988D01*
X110258005Y-82321740D01*
X110261296Y-82464135D01*
X110270317Y-82579890D01*
X110286791Y-82684510D01*
X110309059Y-82780583D01*
X110349031Y-82927134D01*
X110386043Y-83043680D01*
X110424411Y-83141920D01*
X110468448Y-83233554D01*
X110492417Y-83277821D01*
X110539503Y-83356842D01*
X110592562Y-83437474D01*
X110645645Y-83511657D01*
X110692804Y-83571330D01*
X110728094Y-83608436D01*
X110742446Y-83616667D01*
X110764026Y-83604242D01*
X110810533Y-83571013D01*
X110874183Y-83523050D01*
X110947194Y-83466423D01*
X111021782Y-83407201D01*
X111090164Y-83351453D01*
X111144558Y-83305251D01*
X111162538Y-83289060D01*
X111171874Y-83270339D01*
X111165575Y-83239613D01*
X111140760Y-83189905D01*
X111094551Y-83114238D01*
X111082889Y-83095999D01*
X110953789Y-82862026D01*
X110865429Y-82626111D01*
X110818292Y-82389959D01*
X110812864Y-82155276D01*
X110813450Y-82146907D01*
X110837224Y-81962323D01*
X110878986Y-81814847D01*
X110939176Y-81703059D01*
X110958884Y-81678537D01*
X111041965Y-81600805D01*
X111130124Y-81557701D01*
X111237914Y-81542595D01*
X111257845Y-81542333D01*
X111344379Y-81550559D01*
X111416281Y-81577498D01*
X111475222Y-81626548D01*
X111522870Y-81701105D01*
X111560898Y-81804564D01*
X111590974Y-81940323D01*
X111614769Y-82111778D01*
X111632578Y-82304333D01*
X111653405Y-82532155D01*
X111678450Y-82722354D01*
X111709285Y-82879557D01*
X111747485Y-83008392D01*
X111794623Y-83113487D01*
X111852273Y-83199470D01*
X111922009Y-83270968D01*
X111975397Y-83312454D01*
X112047414Y-83360197D01*
X112112378Y-83393983D01*
X112180136Y-83416129D01*
X112260534Y-83428953D01*
X112363419Y-83434771D01*
X112498639Y-83435900D01*
X112500000Y-83435896D01*
X112662736Y-83431471D01*
X112792924Y-83417360D01*
X112899800Y-83390677D01*
X112992599Y-83348536D01*
X113080557Y-83288051D01*
X113141970Y-83235287D01*
X113247048Y-83122878D01*
X113329236Y-82996137D01*
X113390563Y-82849454D01*
X113433054Y-82677221D01*
X113458736Y-82473830D01*
X113466858Y-82336083D01*
X113468206Y-82101190D01*
X113451282Y-81892156D01*
G37*
X113451282Y-81892156D02*
X113414249Y-81695826D01*
X113355267Y-81499045D01*
X113346388Y-81474117D01*
X113313639Y-81392380D01*
X113271875Y-81300695D01*
X113225371Y-81207006D01*
X113178400Y-81119260D01*
X113135236Y-81045401D01*
X113100152Y-80993375D01*
X113077420Y-80971125D01*
X113075682Y-80970833D01*
X113052648Y-80983953D01*
X113002528Y-81020661D01*
X112930370Y-81076986D01*
X112841219Y-81148951D01*
X112740121Y-81232585D01*
X112692543Y-81272572D01*
X112623484Y-81330893D01*
X112698784Y-81465542D01*
X112740719Y-81548890D01*
X112787131Y-81654164D01*
X112830011Y-81762844D01*
X112842892Y-81798804D01*
X112873152Y-81890014D01*
X112893041Y-81964273D01*
X112904725Y-82035726D01*
X112910372Y-82118516D01*
X112912146Y-82226787D01*
X112912225Y-82251417D01*
X112911817Y-82361232D01*
X112908844Y-82439737D01*
X112901485Y-82497951D01*
X112887920Y-82546889D01*
X112866326Y-82597570D01*
X112849250Y-82632417D01*
X112776487Y-82742366D01*
X112687163Y-82819770D01*
X112586700Y-82862029D01*
X112480519Y-82866538D01*
X112405155Y-82845617D01*
X112353411Y-82817169D01*
X112311003Y-82776311D01*
X112276533Y-82718479D01*
X112248607Y-82639110D01*
X112225829Y-82533639D01*
X112206803Y-82397503D01*
X112190133Y-82226138D01*
X112181363Y-82113833D01*
X112161656Y-81893099D01*
X112136737Y-81709128D01*
X112104929Y-81556499D01*
X112064559Y-81429791D01*
X112013950Y-81323581D01*
X111951427Y-81232449D01*
X111887390Y-81162524D01*
X111801011Y-81087152D01*
X111713858Y-81032455D01*
X111616977Y-80995572D01*
X111501415Y-80973639D01*
X111358219Y-80963795D01*
X111261750Y-80962495D01*
X111140883Y-80963509D01*
X111051700Y-80967409D01*
X110983580Y-80975478D01*
X110925905Y-80989003D01*
X110868054Y-81009269D01*
X110864831Y-81010535D01*
X110705283Y-81092137D01*
X110571085Y-81201761D01*
X110461618Y-81340745D01*
X110376264Y-81510424D01*
X110314406Y-81712133D01*
X110275425Y-81947209D01*
X110258702Y-82216988D01*
X110258005Y-82321740D01*
X110261296Y-82464135D01*
X110270317Y-82579890D01*
X110286791Y-82684510D01*
X110309059Y-82780583D01*
X110349031Y-82927134D01*
X110386043Y-83043680D01*
X110424411Y-83141920D01*
X110468448Y-83233554D01*
X110492417Y-83277821D01*
X110539503Y-83356842D01*
X110592562Y-83437474D01*
X110645645Y-83511657D01*
X110692804Y-83571330D01*
X110728094Y-83608436D01*
X110742446Y-83616667D01*
X110764026Y-83604242D01*
X110810533Y-83571013D01*
X110874183Y-83523050D01*
X110947194Y-83466423D01*
X111021782Y-83407201D01*
X111090164Y-83351453D01*
X111144558Y-83305251D01*
X111162538Y-83289060D01*
X111171874Y-83270339D01*
X111165575Y-83239613D01*
X111140760Y-83189905D01*
X111094551Y-83114238D01*
X111082889Y-83095999D01*
X110953789Y-82862026D01*
X110865429Y-82626111D01*
X110818292Y-82389959D01*
X110812864Y-82155276D01*
X110813450Y-82146907D01*
X110837224Y-81962323D01*
X110878986Y-81814847D01*
X110939176Y-81703059D01*
X110958884Y-81678537D01*
X111041965Y-81600805D01*
X111130124Y-81557701D01*
X111237914Y-81542595D01*
X111257845Y-81542333D01*
X111344379Y-81550559D01*
X111416281Y-81577498D01*
X111475222Y-81626548D01*
X111522870Y-81701105D01*
X111560898Y-81804564D01*
X111590974Y-81940323D01*
X111614769Y-82111778D01*
X111632578Y-82304333D01*
X111653405Y-82532155D01*
X111678450Y-82722354D01*
X111709285Y-82879557D01*
X111747485Y-83008392D01*
X111794623Y-83113487D01*
X111852273Y-83199470D01*
X111922009Y-83270968D01*
X111975397Y-83312454D01*
X112047414Y-83360197D01*
X112112378Y-83393983D01*
X112180136Y-83416129D01*
X112260534Y-83428953D01*
X112363419Y-83434771D01*
X112498639Y-83435900D01*
X112500000Y-83435896D01*
X112662736Y-83431471D01*
X112792924Y-83417360D01*
X112899800Y-83390677D01*
X112992599Y-83348536D01*
X113080557Y-83288051D01*
X113141970Y-83235287D01*
X113247048Y-83122878D01*
X113329236Y-82996137D01*
X113390563Y-82849454D01*
X113433054Y-82677221D01*
X113458736Y-82473830D01*
X113466858Y-82336083D01*
X113468206Y-82101190D01*
X113451282Y-81892156D01*
G36*
X110891334Y-92866500D02*
G01*
X110891334Y-90665167D01*
X110298667Y-90665167D01*
X110298667Y-93501500D01*
X114680167Y-93501500D01*
X114680167Y-92866500D01*
X110891334Y-92866500D01*
G37*
X110891334Y-92866500D02*
X110891334Y-90665167D01*
X110298667Y-90665167D01*
X110298667Y-93501500D01*
X114680167Y-93501500D01*
X114680167Y-92866500D01*
X110891334Y-92866500D01*
G36*
X113119603Y-102199198D02*
G01*
X113098393Y-102088757D01*
X113076691Y-102030067D01*
X112980285Y-101878071D01*
X112854769Y-101754961D01*
X112699483Y-101660419D01*
X112513769Y-101594123D01*
X112296966Y-101555754D01*
X112076667Y-101544833D01*
X111831049Y-101558631D01*
X111617169Y-101600161D01*
X111434601Y-101669630D01*
X111282923Y-101767243D01*
X111161708Y-101893207D01*
X111079366Y-102028786D01*
X111050108Y-102117643D01*
X111030966Y-102232501D01*
X111022797Y-102358055D01*
X111026457Y-102478996D01*
X111042803Y-102580018D01*
X111047611Y-102596305D01*
X111118132Y-102750513D01*
X111221710Y-102880635D01*
X111359298Y-102987447D01*
X111531850Y-103071725D01*
X111695279Y-103123334D01*
X111800063Y-103141296D01*
X111932223Y-103150846D01*
X112079835Y-103152405D01*
X112230979Y-103146391D01*
X112373732Y-103133224D01*
X112496172Y-103113322D01*
X112572392Y-103092510D01*
X112754693Y-103010544D01*
X112901126Y-102907959D01*
X113013673Y-102783103D01*
X113079177Y-102669258D01*
X113108182Y-102575543D01*
X113124552Y-102456613D01*
X113128340Y-102326491D01*
X113119603Y-102199198D01*
G37*
X113119603Y-102199198D02*
X113098393Y-102088757D01*
X113076691Y-102030067D01*
X112980285Y-101878071D01*
X112854769Y-101754961D01*
X112699483Y-101660419D01*
X112513769Y-101594123D01*
X112296966Y-101555754D01*
X112076667Y-101544833D01*
X111831049Y-101558631D01*
X111617169Y-101600161D01*
X111434601Y-101669630D01*
X111282923Y-101767243D01*
X111161708Y-101893207D01*
X111079366Y-102028786D01*
X111050108Y-102117643D01*
X111030966Y-102232501D01*
X111022797Y-102358055D01*
X111026457Y-102478996D01*
X111042803Y-102580018D01*
X111047611Y-102596305D01*
X111118132Y-102750513D01*
X111221710Y-102880635D01*
X111359298Y-102987447D01*
X111531850Y-103071725D01*
X111695279Y-103123334D01*
X111800063Y-103141296D01*
X111932223Y-103150846D01*
X112079835Y-103152405D01*
X112230979Y-103146391D01*
X112373732Y-103133224D01*
X112496172Y-103113322D01*
X112572392Y-103092510D01*
X112754693Y-103010544D01*
X112901126Y-102907959D01*
X113013673Y-102783103D01*
X113079177Y-102669258D01*
X113108182Y-102575543D01*
X113124552Y-102456613D01*
X113128340Y-102326491D01*
X113119603Y-102199198D01*
D12*
X180635000Y-108927064D02*
X180635000Y-108472936D01*
X179165000Y-108927064D02*
X179165000Y-108472936D01*
X145735000Y-134827064D02*
X145735000Y-134372936D01*
X144265000Y-134827064D02*
X144265000Y-134372936D01*
X115635000Y-117627064D02*
X115635000Y-117172936D01*
X114165000Y-117627064D02*
X114165000Y-117172936D01*
X115635000Y-83114564D02*
X115635000Y-82660436D01*
X114165000Y-83114564D02*
X114165000Y-82660436D01*
X145635000Y-65314564D02*
X145635000Y-64860436D01*
X144165000Y-65314564D02*
X144165000Y-64860436D01*
X175635000Y-82914564D02*
X175635000Y-82460436D01*
X174165000Y-82914564D02*
X174165000Y-82460436D01*
X170735000Y-108827064D02*
X170735000Y-108372936D01*
X169265000Y-108827064D02*
X169265000Y-108372936D01*
X150635000Y-126214564D02*
X150635000Y-125760436D01*
X149165000Y-126214564D02*
X149165000Y-125760436D01*
X125735000Y-117414564D02*
X125735000Y-116960436D01*
X124265000Y-117414564D02*
X124265000Y-116960436D01*
X120735000Y-91327064D02*
X120735000Y-90872936D01*
X119265000Y-91327064D02*
X119265000Y-90872936D01*
X139065000Y-73672936D02*
X139065000Y-74127064D01*
X140535000Y-73672936D02*
X140535000Y-74127064D01*
X165735000Y-82714564D02*
X165735000Y-82260436D01*
X164265000Y-82714564D02*
X164265000Y-82260436D01*
X160735000Y-109027064D02*
X160735000Y-108572936D01*
X159265000Y-109027064D02*
X159265000Y-108572936D01*
X135835000Y-117227064D02*
X135835000Y-116772936D01*
X134365000Y-117227064D02*
X134365000Y-116772936D01*
X130835000Y-91627064D02*
X130835000Y-91172936D01*
X129365000Y-91627064D02*
X129365000Y-91172936D01*
X155735000Y-82727064D02*
X155735000Y-82272936D01*
X154265000Y-82727064D02*
X154265000Y-82272936D01*
X150635000Y-108727064D02*
X150635000Y-108272936D01*
X149165000Y-108727064D02*
X149165000Y-108272936D01*
X140635000Y-91814564D02*
X140635000Y-91360436D01*
X139165000Y-91814564D02*
X139165000Y-91360436D01*
D13*
X182002380Y-108057142D02*
X181526190Y-107723809D01*
X182002380Y-107485714D02*
X181002380Y-107485714D01*
X181002380Y-107866666D01*
X181050000Y-107961904D01*
X181097619Y-108009523D01*
X181192857Y-108057142D01*
X181335714Y-108057142D01*
X181430952Y-108009523D01*
X181478571Y-107961904D01*
X181526190Y-107866666D01*
X181526190Y-107485714D01*
X182002380Y-109009523D02*
X182002380Y-108438095D01*
X182002380Y-108723809D02*
X181002380Y-108723809D01*
X181145238Y-108628571D01*
X181240476Y-108533333D01*
X181288095Y-108438095D01*
X181430952Y-109580952D02*
X181383333Y-109485714D01*
X181335714Y-109438095D01*
X181240476Y-109390476D01*
X181192857Y-109390476D01*
X181097619Y-109438095D01*
X181050000Y-109485714D01*
X181002380Y-109580952D01*
X181002380Y-109771428D01*
X181050000Y-109866666D01*
X181097619Y-109914285D01*
X181192857Y-109961904D01*
X181240476Y-109961904D01*
X181335714Y-109914285D01*
X181383333Y-109866666D01*
X181430952Y-109771428D01*
X181430952Y-109580952D01*
X181478571Y-109485714D01*
X181526190Y-109438095D01*
X181621428Y-109390476D01*
X181811904Y-109390476D01*
X181907142Y-109438095D01*
X181954761Y-109485714D01*
X182002380Y-109580952D01*
X182002380Y-109771428D01*
X181954761Y-109866666D01*
X181907142Y-109914285D01*
X181811904Y-109961904D01*
X181621428Y-109961904D01*
X181526190Y-109914285D01*
X181478571Y-109866666D01*
X181430952Y-109771428D01*
X147102380Y-133957142D02*
X146626190Y-133623809D01*
X147102380Y-133385714D02*
X146102380Y-133385714D01*
X146102380Y-133766666D01*
X146150000Y-133861904D01*
X146197619Y-133909523D01*
X146292857Y-133957142D01*
X146435714Y-133957142D01*
X146530952Y-133909523D01*
X146578571Y-133861904D01*
X146626190Y-133766666D01*
X146626190Y-133385714D01*
X147102380Y-134909523D02*
X147102380Y-134338095D01*
X147102380Y-134623809D02*
X146102380Y-134623809D01*
X146245238Y-134528571D01*
X146340476Y-134433333D01*
X146388095Y-134338095D01*
X146102380Y-135242857D02*
X146102380Y-135909523D01*
X147102380Y-135480952D01*
X117002380Y-116757142D02*
X116526190Y-116423809D01*
X117002380Y-116185714D02*
X116002380Y-116185714D01*
X116002380Y-116566666D01*
X116050000Y-116661904D01*
X116097619Y-116709523D01*
X116192857Y-116757142D01*
X116335714Y-116757142D01*
X116430952Y-116709523D01*
X116478571Y-116661904D01*
X116526190Y-116566666D01*
X116526190Y-116185714D01*
X117002380Y-117709523D02*
X117002380Y-117138095D01*
X117002380Y-117423809D02*
X116002380Y-117423809D01*
X116145238Y-117328571D01*
X116240476Y-117233333D01*
X116288095Y-117138095D01*
X116002380Y-118566666D02*
X116002380Y-118376190D01*
X116050000Y-118280952D01*
X116097619Y-118233333D01*
X116240476Y-118138095D01*
X116430952Y-118090476D01*
X116811904Y-118090476D01*
X116907142Y-118138095D01*
X116954761Y-118185714D01*
X117002380Y-118280952D01*
X117002380Y-118471428D01*
X116954761Y-118566666D01*
X116907142Y-118614285D01*
X116811904Y-118661904D01*
X116573809Y-118661904D01*
X116478571Y-118614285D01*
X116430952Y-118566666D01*
X116383333Y-118471428D01*
X116383333Y-118280952D01*
X116430952Y-118185714D01*
X116478571Y-118138095D01*
X116573809Y-118090476D01*
X117002380Y-82244642D02*
X116526190Y-81911309D01*
X117002380Y-81673214D02*
X116002380Y-81673214D01*
X116002380Y-82054166D01*
X116050000Y-82149404D01*
X116097619Y-82197023D01*
X116192857Y-82244642D01*
X116335714Y-82244642D01*
X116430952Y-82197023D01*
X116478571Y-82149404D01*
X116526190Y-82054166D01*
X116526190Y-81673214D01*
X117002380Y-83197023D02*
X117002380Y-82625595D01*
X117002380Y-82911309D02*
X116002380Y-82911309D01*
X116145238Y-82816071D01*
X116240476Y-82720833D01*
X116288095Y-82625595D01*
X116002380Y-84101785D02*
X116002380Y-83625595D01*
X116478571Y-83577976D01*
X116430952Y-83625595D01*
X116383333Y-83720833D01*
X116383333Y-83958928D01*
X116430952Y-84054166D01*
X116478571Y-84101785D01*
X116573809Y-84149404D01*
X116811904Y-84149404D01*
X116907142Y-84101785D01*
X116954761Y-84054166D01*
X117002380Y-83958928D01*
X117002380Y-83720833D01*
X116954761Y-83625595D01*
X116907142Y-83577976D01*
X147002380Y-64444642D02*
X146526190Y-64111309D01*
X147002380Y-63873214D02*
X146002380Y-63873214D01*
X146002380Y-64254166D01*
X146050000Y-64349404D01*
X146097619Y-64397023D01*
X146192857Y-64444642D01*
X146335714Y-64444642D01*
X146430952Y-64397023D01*
X146478571Y-64349404D01*
X146526190Y-64254166D01*
X146526190Y-63873214D01*
X147002380Y-65397023D02*
X147002380Y-64825595D01*
X147002380Y-65111309D02*
X146002380Y-65111309D01*
X146145238Y-65016071D01*
X146240476Y-64920833D01*
X146288095Y-64825595D01*
X146335714Y-66254166D02*
X147002380Y-66254166D01*
X145954761Y-66016071D02*
X146669047Y-65777976D01*
X146669047Y-66397023D01*
X177002380Y-82044642D02*
X176526190Y-81711309D01*
X177002380Y-81473214D02*
X176002380Y-81473214D01*
X176002380Y-81854166D01*
X176050000Y-81949404D01*
X176097619Y-81997023D01*
X176192857Y-82044642D01*
X176335714Y-82044642D01*
X176430952Y-81997023D01*
X176478571Y-81949404D01*
X176526190Y-81854166D01*
X176526190Y-81473214D01*
X177002380Y-82997023D02*
X177002380Y-82425595D01*
X177002380Y-82711309D02*
X176002380Y-82711309D01*
X176145238Y-82616071D01*
X176240476Y-82520833D01*
X176288095Y-82425595D01*
X176002380Y-83330357D02*
X176002380Y-83949404D01*
X176383333Y-83616071D01*
X176383333Y-83758928D01*
X176430952Y-83854166D01*
X176478571Y-83901785D01*
X176573809Y-83949404D01*
X176811904Y-83949404D01*
X176907142Y-83901785D01*
X176954761Y-83854166D01*
X177002380Y-83758928D01*
X177002380Y-83473214D01*
X176954761Y-83377976D01*
X176907142Y-83330357D01*
X172102380Y-107957142D02*
X171626190Y-107623809D01*
X172102380Y-107385714D02*
X171102380Y-107385714D01*
X171102380Y-107766666D01*
X171150000Y-107861904D01*
X171197619Y-107909523D01*
X171292857Y-107957142D01*
X171435714Y-107957142D01*
X171530952Y-107909523D01*
X171578571Y-107861904D01*
X171626190Y-107766666D01*
X171626190Y-107385714D01*
X172102380Y-108909523D02*
X172102380Y-108338095D01*
X172102380Y-108623809D02*
X171102380Y-108623809D01*
X171245238Y-108528571D01*
X171340476Y-108433333D01*
X171388095Y-108338095D01*
X171197619Y-109290476D02*
X171150000Y-109338095D01*
X171102380Y-109433333D01*
X171102380Y-109671428D01*
X171150000Y-109766666D01*
X171197619Y-109814285D01*
X171292857Y-109861904D01*
X171388095Y-109861904D01*
X171530952Y-109814285D01*
X172102380Y-109242857D01*
X172102380Y-109861904D01*
X152002380Y-125344642D02*
X151526190Y-125011309D01*
X152002380Y-124773214D02*
X151002380Y-124773214D01*
X151002380Y-125154166D01*
X151050000Y-125249404D01*
X151097619Y-125297023D01*
X151192857Y-125344642D01*
X151335714Y-125344642D01*
X151430952Y-125297023D01*
X151478571Y-125249404D01*
X151526190Y-125154166D01*
X151526190Y-124773214D01*
X152002380Y-126297023D02*
X152002380Y-125725595D01*
X152002380Y-126011309D02*
X151002380Y-126011309D01*
X151145238Y-125916071D01*
X151240476Y-125820833D01*
X151288095Y-125725595D01*
X152002380Y-127249404D02*
X152002380Y-126677976D01*
X152002380Y-126963690D02*
X151002380Y-126963690D01*
X151145238Y-126868452D01*
X151240476Y-126773214D01*
X151288095Y-126677976D01*
X127102380Y-116544642D02*
X126626190Y-116211309D01*
X127102380Y-115973214D02*
X126102380Y-115973214D01*
X126102380Y-116354166D01*
X126150000Y-116449404D01*
X126197619Y-116497023D01*
X126292857Y-116544642D01*
X126435714Y-116544642D01*
X126530952Y-116497023D01*
X126578571Y-116449404D01*
X126626190Y-116354166D01*
X126626190Y-115973214D01*
X127102380Y-117497023D02*
X127102380Y-116925595D01*
X127102380Y-117211309D02*
X126102380Y-117211309D01*
X126245238Y-117116071D01*
X126340476Y-117020833D01*
X126388095Y-116925595D01*
X126102380Y-118116071D02*
X126102380Y-118211309D01*
X126150000Y-118306547D01*
X126197619Y-118354166D01*
X126292857Y-118401785D01*
X126483333Y-118449404D01*
X126721428Y-118449404D01*
X126911904Y-118401785D01*
X127007142Y-118354166D01*
X127054761Y-118306547D01*
X127102380Y-118211309D01*
X127102380Y-118116071D01*
X127054761Y-118020833D01*
X127007142Y-117973214D01*
X126911904Y-117925595D01*
X126721428Y-117877976D01*
X126483333Y-117877976D01*
X126292857Y-117925595D01*
X126197619Y-117973214D01*
X126150000Y-118020833D01*
X126102380Y-118116071D01*
X122102380Y-90933333D02*
X121626190Y-90600000D01*
X122102380Y-90361904D02*
X121102380Y-90361904D01*
X121102380Y-90742857D01*
X121150000Y-90838095D01*
X121197619Y-90885714D01*
X121292857Y-90933333D01*
X121435714Y-90933333D01*
X121530952Y-90885714D01*
X121578571Y-90838095D01*
X121626190Y-90742857D01*
X121626190Y-90361904D01*
X122102380Y-91409523D02*
X122102380Y-91600000D01*
X122054761Y-91695238D01*
X122007142Y-91742857D01*
X121864285Y-91838095D01*
X121673809Y-91885714D01*
X121292857Y-91885714D01*
X121197619Y-91838095D01*
X121150000Y-91790476D01*
X121102380Y-91695238D01*
X121102380Y-91504761D01*
X121150000Y-91409523D01*
X121197619Y-91361904D01*
X121292857Y-91314285D01*
X121530952Y-91314285D01*
X121626190Y-91361904D01*
X121673809Y-91409523D01*
X121721428Y-91504761D01*
X121721428Y-91695238D01*
X121673809Y-91790476D01*
X121626190Y-91838095D01*
X121530952Y-91885714D01*
X138602380Y-73733333D02*
X138126190Y-73400000D01*
X138602380Y-73161904D02*
X137602380Y-73161904D01*
X137602380Y-73542857D01*
X137650000Y-73638095D01*
X137697619Y-73685714D01*
X137792857Y-73733333D01*
X137935714Y-73733333D01*
X138030952Y-73685714D01*
X138078571Y-73638095D01*
X138126190Y-73542857D01*
X138126190Y-73161904D01*
X138030952Y-74304761D02*
X137983333Y-74209523D01*
X137935714Y-74161904D01*
X137840476Y-74114285D01*
X137792857Y-74114285D01*
X137697619Y-74161904D01*
X137650000Y-74209523D01*
X137602380Y-74304761D01*
X137602380Y-74495238D01*
X137650000Y-74590476D01*
X137697619Y-74638095D01*
X137792857Y-74685714D01*
X137840476Y-74685714D01*
X137935714Y-74638095D01*
X137983333Y-74590476D01*
X138030952Y-74495238D01*
X138030952Y-74304761D01*
X138078571Y-74209523D01*
X138126190Y-74161904D01*
X138221428Y-74114285D01*
X138411904Y-74114285D01*
X138507142Y-74161904D01*
X138554761Y-74209523D01*
X138602380Y-74304761D01*
X138602380Y-74495238D01*
X138554761Y-74590476D01*
X138507142Y-74638095D01*
X138411904Y-74685714D01*
X138221428Y-74685714D01*
X138126190Y-74638095D01*
X138078571Y-74590476D01*
X138030952Y-74495238D01*
X167102380Y-82320833D02*
X166626190Y-81987500D01*
X167102380Y-81749404D02*
X166102380Y-81749404D01*
X166102380Y-82130357D01*
X166150000Y-82225595D01*
X166197619Y-82273214D01*
X166292857Y-82320833D01*
X166435714Y-82320833D01*
X166530952Y-82273214D01*
X166578571Y-82225595D01*
X166626190Y-82130357D01*
X166626190Y-81749404D01*
X166102380Y-82654166D02*
X166102380Y-83320833D01*
X167102380Y-82892261D01*
X162102380Y-108633333D02*
X161626190Y-108300000D01*
X162102380Y-108061904D02*
X161102380Y-108061904D01*
X161102380Y-108442857D01*
X161150000Y-108538095D01*
X161197619Y-108585714D01*
X161292857Y-108633333D01*
X161435714Y-108633333D01*
X161530952Y-108585714D01*
X161578571Y-108538095D01*
X161626190Y-108442857D01*
X161626190Y-108061904D01*
X161102380Y-109490476D02*
X161102380Y-109300000D01*
X161150000Y-109204761D01*
X161197619Y-109157142D01*
X161340476Y-109061904D01*
X161530952Y-109014285D01*
X161911904Y-109014285D01*
X162007142Y-109061904D01*
X162054761Y-109109523D01*
X162102380Y-109204761D01*
X162102380Y-109395238D01*
X162054761Y-109490476D01*
X162007142Y-109538095D01*
X161911904Y-109585714D01*
X161673809Y-109585714D01*
X161578571Y-109538095D01*
X161530952Y-109490476D01*
X161483333Y-109395238D01*
X161483333Y-109204761D01*
X161530952Y-109109523D01*
X161578571Y-109061904D01*
X161673809Y-109014285D01*
X137202380Y-116833333D02*
X136726190Y-116500000D01*
X137202380Y-116261904D02*
X136202380Y-116261904D01*
X136202380Y-116642857D01*
X136250000Y-116738095D01*
X136297619Y-116785714D01*
X136392857Y-116833333D01*
X136535714Y-116833333D01*
X136630952Y-116785714D01*
X136678571Y-116738095D01*
X136726190Y-116642857D01*
X136726190Y-116261904D01*
X136202380Y-117738095D02*
X136202380Y-117261904D01*
X136678571Y-117214285D01*
X136630952Y-117261904D01*
X136583333Y-117357142D01*
X136583333Y-117595238D01*
X136630952Y-117690476D01*
X136678571Y-117738095D01*
X136773809Y-117785714D01*
X137011904Y-117785714D01*
X137107142Y-117738095D01*
X137154761Y-117690476D01*
X137202380Y-117595238D01*
X137202380Y-117357142D01*
X137154761Y-117261904D01*
X137107142Y-117214285D01*
X131297619Y-91566666D02*
X131773809Y-91900000D01*
X131297619Y-92138095D02*
X132297619Y-92138095D01*
X132297619Y-91757142D01*
X132250000Y-91661904D01*
X132202380Y-91614285D01*
X132107142Y-91566666D01*
X131964285Y-91566666D01*
X131869047Y-91614285D01*
X131821428Y-91661904D01*
X131773809Y-91757142D01*
X131773809Y-92138095D01*
X131964285Y-90709523D02*
X131297619Y-90709523D01*
X132345238Y-90947619D02*
X131630952Y-91185714D01*
X131630952Y-90566666D01*
X157102380Y-82333333D02*
X156626190Y-82000000D01*
X157102380Y-81761904D02*
X156102380Y-81761904D01*
X156102380Y-82142857D01*
X156150000Y-82238095D01*
X156197619Y-82285714D01*
X156292857Y-82333333D01*
X156435714Y-82333333D01*
X156530952Y-82285714D01*
X156578571Y-82238095D01*
X156626190Y-82142857D01*
X156626190Y-81761904D01*
X156102380Y-82666666D02*
X156102380Y-83285714D01*
X156483333Y-82952380D01*
X156483333Y-83095238D01*
X156530952Y-83190476D01*
X156578571Y-83238095D01*
X156673809Y-83285714D01*
X156911904Y-83285714D01*
X157007142Y-83238095D01*
X157054761Y-83190476D01*
X157102380Y-83095238D01*
X157102380Y-82809523D01*
X157054761Y-82714285D01*
X157007142Y-82666666D01*
X152002380Y-108333333D02*
X151526190Y-108000000D01*
X152002380Y-107761904D02*
X151002380Y-107761904D01*
X151002380Y-108142857D01*
X151050000Y-108238095D01*
X151097619Y-108285714D01*
X151192857Y-108333333D01*
X151335714Y-108333333D01*
X151430952Y-108285714D01*
X151478571Y-108238095D01*
X151526190Y-108142857D01*
X151526190Y-107761904D01*
X151097619Y-108714285D02*
X151050000Y-108761904D01*
X151002380Y-108857142D01*
X151002380Y-109095238D01*
X151050000Y-109190476D01*
X151097619Y-109238095D01*
X151192857Y-109285714D01*
X151288095Y-109285714D01*
X151430952Y-109238095D01*
X152002380Y-108666666D01*
X152002380Y-109285714D01*
X142002380Y-91420833D02*
X141526190Y-91087500D01*
X142002380Y-90849404D02*
X141002380Y-90849404D01*
X141002380Y-91230357D01*
X141050000Y-91325595D01*
X141097619Y-91373214D01*
X141192857Y-91420833D01*
X141335714Y-91420833D01*
X141430952Y-91373214D01*
X141478571Y-91325595D01*
X141526190Y-91230357D01*
X141526190Y-90849404D01*
X142002380Y-92373214D02*
X142002380Y-91801785D01*
X142002380Y-92087500D02*
X141002380Y-92087500D01*
X141145238Y-91992261D01*
X141240476Y-91897023D01*
X141288095Y-91801785D01*
%LPC*%
D14*
X189300000Y-98850000D03*
X189300000Y-101350000D03*
G36*
G01*
X180350001Y-108300000D02*
X179449999Y-108300000D01*
G75*
G02*
X179200000Y-108050001I0J249999D01*
G01*
X179200000Y-107524999D01*
G75*
G02*
X179449999Y-107275000I249999J0D01*
G01*
X180350001Y-107275000D01*
G75*
G02*
X180600000Y-107524999I0J-249999D01*
G01*
X180600000Y-108050001D01*
G75*
G02*
X180350001Y-108300000I-249999J0D01*
G01*
G37*
G36*
G01*
X180350001Y-110125000D02*
X179449999Y-110125000D01*
G75*
G02*
X179200000Y-109875001I0J249999D01*
G01*
X179200000Y-109349999D01*
G75*
G02*
X179449999Y-109100000I249999J0D01*
G01*
X180350001Y-109100000D01*
G75*
G02*
X180600000Y-109349999I0J-249999D01*
G01*
X180600000Y-109875001D01*
G75*
G02*
X180350001Y-110125000I-249999J0D01*
G01*
G37*
G36*
G01*
X145450001Y-134200000D02*
X144549999Y-134200000D01*
G75*
G02*
X144300000Y-133950001I0J249999D01*
G01*
X144300000Y-133424999D01*
G75*
G02*
X144549999Y-133175000I249999J0D01*
G01*
X145450001Y-133175000D01*
G75*
G02*
X145700000Y-133424999I0J-249999D01*
G01*
X145700000Y-133950001D01*
G75*
G02*
X145450001Y-134200000I-249999J0D01*
G01*
G37*
G36*
G01*
X145450001Y-136025000D02*
X144549999Y-136025000D01*
G75*
G02*
X144300000Y-135775001I0J249999D01*
G01*
X144300000Y-135249999D01*
G75*
G02*
X144549999Y-135000000I249999J0D01*
G01*
X145450001Y-135000000D01*
G75*
G02*
X145700000Y-135249999I0J-249999D01*
G01*
X145700000Y-135775001D01*
G75*
G02*
X145450001Y-136025000I-249999J0D01*
G01*
G37*
G36*
G01*
X115350001Y-117000000D02*
X114449999Y-117000000D01*
G75*
G02*
X114200000Y-116750001I0J249999D01*
G01*
X114200000Y-116224999D01*
G75*
G02*
X114449999Y-115975000I249999J0D01*
G01*
X115350001Y-115975000D01*
G75*
G02*
X115600000Y-116224999I0J-249999D01*
G01*
X115600000Y-116750001D01*
G75*
G02*
X115350001Y-117000000I-249999J0D01*
G01*
G37*
G36*
G01*
X115350001Y-118825000D02*
X114449999Y-118825000D01*
G75*
G02*
X114200000Y-118575001I0J249999D01*
G01*
X114200000Y-118049999D01*
G75*
G02*
X114449999Y-117800000I249999J0D01*
G01*
X115350001Y-117800000D01*
G75*
G02*
X115600000Y-118049999I0J-249999D01*
G01*
X115600000Y-118575001D01*
G75*
G02*
X115350001Y-118825000I-249999J0D01*
G01*
G37*
G36*
G01*
X115350001Y-82487500D02*
X114449999Y-82487500D01*
G75*
G02*
X114200000Y-82237501I0J249999D01*
G01*
X114200000Y-81712499D01*
G75*
G02*
X114449999Y-81462500I249999J0D01*
G01*
X115350001Y-81462500D01*
G75*
G02*
X115600000Y-81712499I0J-249999D01*
G01*
X115600000Y-82237501D01*
G75*
G02*
X115350001Y-82487500I-249999J0D01*
G01*
G37*
G36*
G01*
X115350001Y-84312500D02*
X114449999Y-84312500D01*
G75*
G02*
X114200000Y-84062501I0J249999D01*
G01*
X114200000Y-83537499D01*
G75*
G02*
X114449999Y-83287500I249999J0D01*
G01*
X115350001Y-83287500D01*
G75*
G02*
X115600000Y-83537499I0J-249999D01*
G01*
X115600000Y-84062501D01*
G75*
G02*
X115350001Y-84312500I-249999J0D01*
G01*
G37*
G36*
G01*
X145350001Y-64687500D02*
X144449999Y-64687500D01*
G75*
G02*
X144200000Y-64437501I0J249999D01*
G01*
X144200000Y-63912499D01*
G75*
G02*
X144449999Y-63662500I249999J0D01*
G01*
X145350001Y-63662500D01*
G75*
G02*
X145600000Y-63912499I0J-249999D01*
G01*
X145600000Y-64437501D01*
G75*
G02*
X145350001Y-64687500I-249999J0D01*
G01*
G37*
G36*
G01*
X145350001Y-66512500D02*
X144449999Y-66512500D01*
G75*
G02*
X144200000Y-66262501I0J249999D01*
G01*
X144200000Y-65737499D01*
G75*
G02*
X144449999Y-65487500I249999J0D01*
G01*
X145350001Y-65487500D01*
G75*
G02*
X145600000Y-65737499I0J-249999D01*
G01*
X145600000Y-66262501D01*
G75*
G02*
X145350001Y-66512500I-249999J0D01*
G01*
G37*
G36*
G01*
X175350001Y-82287500D02*
X174449999Y-82287500D01*
G75*
G02*
X174200000Y-82037501I0J249999D01*
G01*
X174200000Y-81512499D01*
G75*
G02*
X174449999Y-81262500I249999J0D01*
G01*
X175350001Y-81262500D01*
G75*
G02*
X175600000Y-81512499I0J-249999D01*
G01*
X175600000Y-82037501D01*
G75*
G02*
X175350001Y-82287500I-249999J0D01*
G01*
G37*
G36*
G01*
X175350001Y-84112500D02*
X174449999Y-84112500D01*
G75*
G02*
X174200000Y-83862501I0J249999D01*
G01*
X174200000Y-83337499D01*
G75*
G02*
X174449999Y-83087500I249999J0D01*
G01*
X175350001Y-83087500D01*
G75*
G02*
X175600000Y-83337499I0J-249999D01*
G01*
X175600000Y-83862501D01*
G75*
G02*
X175350001Y-84112500I-249999J0D01*
G01*
G37*
G36*
G01*
X170450001Y-108200000D02*
X169549999Y-108200000D01*
G75*
G02*
X169300000Y-107950001I0J249999D01*
G01*
X169300000Y-107424999D01*
G75*
G02*
X169549999Y-107175000I249999J0D01*
G01*
X170450001Y-107175000D01*
G75*
G02*
X170700000Y-107424999I0J-249999D01*
G01*
X170700000Y-107950001D01*
G75*
G02*
X170450001Y-108200000I-249999J0D01*
G01*
G37*
G36*
G01*
X170450001Y-110025000D02*
X169549999Y-110025000D01*
G75*
G02*
X169300000Y-109775001I0J249999D01*
G01*
X169300000Y-109249999D01*
G75*
G02*
X169549999Y-109000000I249999J0D01*
G01*
X170450001Y-109000000D01*
G75*
G02*
X170700000Y-109249999I0J-249999D01*
G01*
X170700000Y-109775001D01*
G75*
G02*
X170450001Y-110025000I-249999J0D01*
G01*
G37*
G36*
G01*
X150350001Y-125587500D02*
X149449999Y-125587500D01*
G75*
G02*
X149200000Y-125337501I0J249999D01*
G01*
X149200000Y-124812499D01*
G75*
G02*
X149449999Y-124562500I249999J0D01*
G01*
X150350001Y-124562500D01*
G75*
G02*
X150600000Y-124812499I0J-249999D01*
G01*
X150600000Y-125337501D01*
G75*
G02*
X150350001Y-125587500I-249999J0D01*
G01*
G37*
G36*
G01*
X150350001Y-127412500D02*
X149449999Y-127412500D01*
G75*
G02*
X149200000Y-127162501I0J249999D01*
G01*
X149200000Y-126637499D01*
G75*
G02*
X149449999Y-126387500I249999J0D01*
G01*
X150350001Y-126387500D01*
G75*
G02*
X150600000Y-126637499I0J-249999D01*
G01*
X150600000Y-127162501D01*
G75*
G02*
X150350001Y-127412500I-249999J0D01*
G01*
G37*
G36*
G01*
X125450001Y-116787500D02*
X124549999Y-116787500D01*
G75*
G02*
X124300000Y-116537501I0J249999D01*
G01*
X124300000Y-116012499D01*
G75*
G02*
X124549999Y-115762500I249999J0D01*
G01*
X125450001Y-115762500D01*
G75*
G02*
X125700000Y-116012499I0J-249999D01*
G01*
X125700000Y-116537501D01*
G75*
G02*
X125450001Y-116787500I-249999J0D01*
G01*
G37*
G36*
G01*
X125450001Y-118612500D02*
X124549999Y-118612500D01*
G75*
G02*
X124300000Y-118362501I0J249999D01*
G01*
X124300000Y-117837499D01*
G75*
G02*
X124549999Y-117587500I249999J0D01*
G01*
X125450001Y-117587500D01*
G75*
G02*
X125700000Y-117837499I0J-249999D01*
G01*
X125700000Y-118362501D01*
G75*
G02*
X125450001Y-118612500I-249999J0D01*
G01*
G37*
G36*
G01*
X120450001Y-90700000D02*
X119549999Y-90700000D01*
G75*
G02*
X119300000Y-90450001I0J249999D01*
G01*
X119300000Y-89924999D01*
G75*
G02*
X119549999Y-89675000I249999J0D01*
G01*
X120450001Y-89675000D01*
G75*
G02*
X120700000Y-89924999I0J-249999D01*
G01*
X120700000Y-90450001D01*
G75*
G02*
X120450001Y-90700000I-249999J0D01*
G01*
G37*
G36*
G01*
X120450001Y-92525000D02*
X119549999Y-92525000D01*
G75*
G02*
X119300000Y-92275001I0J249999D01*
G01*
X119300000Y-91749999D01*
G75*
G02*
X119549999Y-91500000I249999J0D01*
G01*
X120450001Y-91500000D01*
G75*
G02*
X120700000Y-91749999I0J-249999D01*
G01*
X120700000Y-92275001D01*
G75*
G02*
X120450001Y-92525000I-249999J0D01*
G01*
G37*
G36*
G01*
X139349999Y-74300000D02*
X140250001Y-74300000D01*
G75*
G02*
X140500000Y-74549999I0J-249999D01*
G01*
X140500000Y-75075001D01*
G75*
G02*
X140250001Y-75325000I-249999J0D01*
G01*
X139349999Y-75325000D01*
G75*
G02*
X139100000Y-75075001I0J249999D01*
G01*
X139100000Y-74549999D01*
G75*
G02*
X139349999Y-74300000I249999J0D01*
G01*
G37*
G36*
G01*
X139349999Y-72475000D02*
X140250001Y-72475000D01*
G75*
G02*
X140500000Y-72724999I0J-249999D01*
G01*
X140500000Y-73250001D01*
G75*
G02*
X140250001Y-73500000I-249999J0D01*
G01*
X139349999Y-73500000D01*
G75*
G02*
X139100000Y-73250001I0J249999D01*
G01*
X139100000Y-72724999D01*
G75*
G02*
X139349999Y-72475000I249999J0D01*
G01*
G37*
G36*
G01*
X165450001Y-82087500D02*
X164549999Y-82087500D01*
G75*
G02*
X164300000Y-81837501I0J249999D01*
G01*
X164300000Y-81312499D01*
G75*
G02*
X164549999Y-81062500I249999J0D01*
G01*
X165450001Y-81062500D01*
G75*
G02*
X165700000Y-81312499I0J-249999D01*
G01*
X165700000Y-81837501D01*
G75*
G02*
X165450001Y-82087500I-249999J0D01*
G01*
G37*
G36*
G01*
X165450001Y-83912500D02*
X164549999Y-83912500D01*
G75*
G02*
X164300000Y-83662501I0J249999D01*
G01*
X164300000Y-83137499D01*
G75*
G02*
X164549999Y-82887500I249999J0D01*
G01*
X165450001Y-82887500D01*
G75*
G02*
X165700000Y-83137499I0J-249999D01*
G01*
X165700000Y-83662501D01*
G75*
G02*
X165450001Y-83912500I-249999J0D01*
G01*
G37*
G36*
G01*
X160450001Y-108400000D02*
X159549999Y-108400000D01*
G75*
G02*
X159300000Y-108150001I0J249999D01*
G01*
X159300000Y-107624999D01*
G75*
G02*
X159549999Y-107375000I249999J0D01*
G01*
X160450001Y-107375000D01*
G75*
G02*
X160700000Y-107624999I0J-249999D01*
G01*
X160700000Y-108150001D01*
G75*
G02*
X160450001Y-108400000I-249999J0D01*
G01*
G37*
G36*
G01*
X160450001Y-110225000D02*
X159549999Y-110225000D01*
G75*
G02*
X159300000Y-109975001I0J249999D01*
G01*
X159300000Y-109449999D01*
G75*
G02*
X159549999Y-109200000I249999J0D01*
G01*
X160450001Y-109200000D01*
G75*
G02*
X160700000Y-109449999I0J-249999D01*
G01*
X160700000Y-109975001D01*
G75*
G02*
X160450001Y-110225000I-249999J0D01*
G01*
G37*
G36*
G01*
X135550001Y-116600000D02*
X134649999Y-116600000D01*
G75*
G02*
X134400000Y-116350001I0J249999D01*
G01*
X134400000Y-115824999D01*
G75*
G02*
X134649999Y-115575000I249999J0D01*
G01*
X135550001Y-115575000D01*
G75*
G02*
X135800000Y-115824999I0J-249999D01*
G01*
X135800000Y-116350001D01*
G75*
G02*
X135550001Y-116600000I-249999J0D01*
G01*
G37*
G36*
G01*
X135550001Y-118425000D02*
X134649999Y-118425000D01*
G75*
G02*
X134400000Y-118175001I0J249999D01*
G01*
X134400000Y-117649999D01*
G75*
G02*
X134649999Y-117400000I249999J0D01*
G01*
X135550001Y-117400000D01*
G75*
G02*
X135800000Y-117649999I0J-249999D01*
G01*
X135800000Y-118175001D01*
G75*
G02*
X135550001Y-118425000I-249999J0D01*
G01*
G37*
G36*
G01*
X130550001Y-91000000D02*
X129649999Y-91000000D01*
G75*
G02*
X129400000Y-90750001I0J249999D01*
G01*
X129400000Y-90224999D01*
G75*
G02*
X129649999Y-89975000I249999J0D01*
G01*
X130550001Y-89975000D01*
G75*
G02*
X130800000Y-90224999I0J-249999D01*
G01*
X130800000Y-90750001D01*
G75*
G02*
X130550001Y-91000000I-249999J0D01*
G01*
G37*
G36*
G01*
X130550001Y-92825000D02*
X129649999Y-92825000D01*
G75*
G02*
X129400000Y-92575001I0J249999D01*
G01*
X129400000Y-92049999D01*
G75*
G02*
X129649999Y-91800000I249999J0D01*
G01*
X130550001Y-91800000D01*
G75*
G02*
X130800000Y-92049999I0J-249999D01*
G01*
X130800000Y-92575001D01*
G75*
G02*
X130550001Y-92825000I-249999J0D01*
G01*
G37*
G36*
G01*
X155450001Y-82100000D02*
X154549999Y-82100000D01*
G75*
G02*
X154300000Y-81850001I0J249999D01*
G01*
X154300000Y-81324999D01*
G75*
G02*
X154549999Y-81075000I249999J0D01*
G01*
X155450001Y-81075000D01*
G75*
G02*
X155700000Y-81324999I0J-249999D01*
G01*
X155700000Y-81850001D01*
G75*
G02*
X155450001Y-82100000I-249999J0D01*
G01*
G37*
G36*
G01*
X155450001Y-83925000D02*
X154549999Y-83925000D01*
G75*
G02*
X154300000Y-83675001I0J249999D01*
G01*
X154300000Y-83149999D01*
G75*
G02*
X154549999Y-82900000I249999J0D01*
G01*
X155450001Y-82900000D01*
G75*
G02*
X155700000Y-83149999I0J-249999D01*
G01*
X155700000Y-83675001D01*
G75*
G02*
X155450001Y-83925000I-249999J0D01*
G01*
G37*
G36*
G01*
X150350001Y-108100000D02*
X149449999Y-108100000D01*
G75*
G02*
X149200000Y-107850001I0J249999D01*
G01*
X149200000Y-107324999D01*
G75*
G02*
X149449999Y-107075000I249999J0D01*
G01*
X150350001Y-107075000D01*
G75*
G02*
X150600000Y-107324999I0J-249999D01*
G01*
X150600000Y-107850001D01*
G75*
G02*
X150350001Y-108100000I-249999J0D01*
G01*
G37*
G36*
G01*
X150350001Y-109925000D02*
X149449999Y-109925000D01*
G75*
G02*
X149200000Y-109675001I0J249999D01*
G01*
X149200000Y-109149999D01*
G75*
G02*
X149449999Y-108900000I249999J0D01*
G01*
X150350001Y-108900000D01*
G75*
G02*
X150600000Y-109149999I0J-249999D01*
G01*
X150600000Y-109675001D01*
G75*
G02*
X150350001Y-109925000I-249999J0D01*
G01*
G37*
G36*
G01*
X140350001Y-91187500D02*
X139449999Y-91187500D01*
G75*
G02*
X139200000Y-90937501I0J249999D01*
G01*
X139200000Y-90412499D01*
G75*
G02*
X139449999Y-90162500I249999J0D01*
G01*
X140350001Y-90162500D01*
G75*
G02*
X140600000Y-90412499I0J-249999D01*
G01*
X140600000Y-90937501D01*
G75*
G02*
X140350001Y-91187500I-249999J0D01*
G01*
G37*
G36*
G01*
X140350001Y-93012500D02*
X139449999Y-93012500D01*
G75*
G02*
X139200000Y-92762501I0J249999D01*
G01*
X139200000Y-92237499D01*
G75*
G02*
X139449999Y-91987500I249999J0D01*
G01*
X140350001Y-91987500D01*
G75*
G02*
X140600000Y-92237499I0J-249999D01*
G01*
X140600000Y-92762501D01*
G75*
G02*
X140350001Y-93012500I-249999J0D01*
G01*
G37*
D15*
X186270000Y-108660000D03*
X183730000Y-108660000D03*
X181270000Y-117320000D03*
X178730000Y-117320000D03*
X161270000Y-134640000D03*
X158730000Y-134640000D03*
X151270000Y-134640000D03*
X148730000Y-134640000D03*
X141270000Y-134640000D03*
X138730000Y-134640000D03*
X126270000Y-125980000D03*
X123730000Y-125980000D03*
X121270000Y-117320000D03*
X118730000Y-117320000D03*
X116270000Y-108660000D03*
X113730000Y-108660000D03*
X116270000Y-91340000D03*
X113730000Y-91340000D03*
X121270000Y-82680000D03*
X118730000Y-82680000D03*
X126270000Y-74020000D03*
X123730000Y-74020000D03*
X141270000Y-65360000D03*
X138730000Y-65360000D03*
X151270000Y-65360000D03*
X148730000Y-65360000D03*
X161270000Y-65360000D03*
X158730000Y-65360000D03*
X176270000Y-74020000D03*
X173730000Y-74020000D03*
X181270000Y-82680000D03*
X178730000Y-82680000D03*
X186270000Y-91340000D03*
X183730000Y-91340000D03*
X181270000Y-100000000D03*
X178730000Y-100000000D03*
X176270000Y-108660000D03*
X173730000Y-108660000D03*
X171270000Y-117320000D03*
X168730000Y-117320000D03*
X166270000Y-125980000D03*
X163730000Y-125980000D03*
X156270000Y-125980000D03*
X153730000Y-125980000D03*
X146270000Y-125980000D03*
X143730000Y-125980000D03*
X136270000Y-125980000D03*
X133730000Y-125980000D03*
X131270000Y-117320000D03*
X128730000Y-117320000D03*
X126270000Y-108660000D03*
X123730000Y-108660000D03*
X121270000Y-100000000D03*
X118730000Y-100000000D03*
X126270000Y-91340000D03*
X123730000Y-91340000D03*
X131270000Y-82680000D03*
X128730000Y-82680000D03*
X136270000Y-74020000D03*
X133730000Y-74020000D03*
X146270000Y-74020000D03*
X143730000Y-74020000D03*
X156270000Y-74020000D03*
X153730000Y-74020000D03*
X166270000Y-74020000D03*
X163730000Y-74020000D03*
X171270000Y-82680000D03*
X168730000Y-82680000D03*
X176270000Y-91340000D03*
X173730000Y-91340000D03*
X171270000Y-100000000D03*
X168730000Y-100000000D03*
X166270000Y-108660000D03*
X163730000Y-108660000D03*
X161270000Y-117320000D03*
X158730000Y-117320000D03*
X151270000Y-117320000D03*
X148730000Y-117320000D03*
X141270000Y-117320000D03*
X138730000Y-117320000D03*
X136270000Y-108660000D03*
X133730000Y-108660000D03*
X131270000Y-100000000D03*
X128730000Y-100000000D03*
X136270000Y-91340000D03*
X133730000Y-91340000D03*
X141270000Y-82680000D03*
X138730000Y-82680000D03*
X151270000Y-82680000D03*
X148730000Y-82680000D03*
X161270000Y-82680000D03*
X158730000Y-82680000D03*
X166270000Y-91340000D03*
X163730000Y-91340000D03*
X161270000Y-100000000D03*
X158730000Y-100000000D03*
X156270000Y-108660000D03*
X153730000Y-108660000D03*
X146270000Y-108660000D03*
X143730000Y-108660000D03*
X141270000Y-100000000D03*
X138730000Y-100000000D03*
X146270000Y-91340000D03*
X143730000Y-91340000D03*
X156270000Y-91340000D03*
X153730000Y-91340000D03*
X151270000Y-100000000D03*
X148730000Y-100000000D03*
M02*
