%FSLAX45Y45*%
G04 Gerber Fmt 4.5, Leading zero omitted, Abs format (unit mm)*
G04 Created by KiCad (PCBNEW (5.1.9)-1) date 2021-10-19 01:51:29*
%MOMM*%
%LPD*%
G01*
G04 APERTURE LIST*
%TA.AperFunction,Profile*%
%ADD10C,0.150000*%
%TD*%
%ADD11C,0.200000*%
%ADD12C,0.300000*%
G04 APERTURE END LIST*
D10*
X19500000Y-10000000D02*
G75*
G03*
X19500000Y-10000000I-4500000J0D01*
G01*
D11*
X18880000Y-9835000D02*
X18980000Y-9935000D01*
X18980000Y-9835000D02*
X18880000Y-9935000D01*
X18880000Y-10085000D02*
X18980000Y-10185000D01*
X18980000Y-10085000D02*
X18880000Y-10185000D01*
X11433000Y-9134000D02*
G75*
G03*
X11433000Y-9134000I-60000J0D01*
G01*
X11433000Y-10866000D02*
G75*
G03*
X11433000Y-10866000I-60000J0D01*
G01*
X11687000Y-9134000D02*
G75*
G03*
X11687000Y-9134000I-60000J0D01*
G01*
X11687000Y-10866000D02*
G75*
G03*
X11687000Y-10866000I-60000J0D01*
G01*
X11933000Y-8268000D02*
G75*
G03*
X11933000Y-8268000I-60000J0D01*
G01*
X11933000Y-10000000D02*
G75*
G03*
X11933000Y-10000000I-60000J0D01*
G01*
X11933000Y-11732000D02*
G75*
G03*
X11933000Y-11732000I-60000J0D01*
G01*
X12187000Y-8268000D02*
G75*
G03*
X12187000Y-8268000I-60000J0D01*
G01*
X12187000Y-10000000D02*
G75*
G03*
X12187000Y-10000000I-60000J0D01*
G01*
X12187000Y-11732000D02*
G75*
G03*
X12187000Y-11732000I-60000J0D01*
G01*
X12433000Y-7402000D02*
G75*
G03*
X12433000Y-7402000I-60000J0D01*
G01*
X12433000Y-9134000D02*
G75*
G03*
X12433000Y-9134000I-60000J0D01*
G01*
X12433000Y-10866000D02*
G75*
G03*
X12433000Y-10866000I-60000J0D01*
G01*
X12433000Y-12598000D02*
G75*
G03*
X12433000Y-12598000I-60000J0D01*
G01*
X12687000Y-7402000D02*
G75*
G03*
X12687000Y-7402000I-60000J0D01*
G01*
X12687000Y-9134000D02*
G75*
G03*
X12687000Y-9134000I-60000J0D01*
G01*
X12687000Y-10866000D02*
G75*
G03*
X12687000Y-10866000I-60000J0D01*
G01*
X12687000Y-12598000D02*
G75*
G03*
X12687000Y-12598000I-60000J0D01*
G01*
X12933000Y-8268000D02*
G75*
G03*
X12933000Y-8268000I-60000J0D01*
G01*
X12933000Y-10000000D02*
G75*
G03*
X12933000Y-10000000I-60000J0D01*
G01*
X12933000Y-11732000D02*
G75*
G03*
X12933000Y-11732000I-60000J0D01*
G01*
X13187000Y-8268000D02*
G75*
G03*
X13187000Y-8268000I-60000J0D01*
G01*
X13187000Y-10000000D02*
G75*
G03*
X13187000Y-10000000I-60000J0D01*
G01*
X13187000Y-11732000D02*
G75*
G03*
X13187000Y-11732000I-60000J0D01*
G01*
X13433000Y-7402000D02*
G75*
G03*
X13433000Y-7402000I-60000J0D01*
G01*
X13433000Y-9134000D02*
G75*
G03*
X13433000Y-9134000I-60000J0D01*
G01*
X13433000Y-10866000D02*
G75*
G03*
X13433000Y-10866000I-60000J0D01*
G01*
X13433000Y-12598000D02*
G75*
G03*
X13433000Y-12598000I-60000J0D01*
G01*
X13687000Y-7402000D02*
G75*
G03*
X13687000Y-7402000I-60000J0D01*
G01*
X13687000Y-9134000D02*
G75*
G03*
X13687000Y-9134000I-60000J0D01*
G01*
X13687000Y-10866000D02*
G75*
G03*
X13687000Y-10866000I-60000J0D01*
G01*
X13687000Y-12598000D02*
G75*
G03*
X13687000Y-12598000I-60000J0D01*
G01*
X13933000Y-6536000D02*
G75*
G03*
X13933000Y-6536000I-60000J0D01*
G01*
X13933000Y-8268000D02*
G75*
G03*
X13933000Y-8268000I-60000J0D01*
G01*
X13933000Y-10000000D02*
G75*
G03*
X13933000Y-10000000I-60000J0D01*
G01*
X13933000Y-11732000D02*
G75*
G03*
X13933000Y-11732000I-60000J0D01*
G01*
X13933000Y-13464000D02*
G75*
G03*
X13933000Y-13464000I-60000J0D01*
G01*
X14187000Y-6536000D02*
G75*
G03*
X14187000Y-6536000I-60000J0D01*
G01*
X14187000Y-8268000D02*
G75*
G03*
X14187000Y-8268000I-60000J0D01*
G01*
X14187000Y-10000000D02*
G75*
G03*
X14187000Y-10000000I-60000J0D01*
G01*
X14187000Y-11732000D02*
G75*
G03*
X14187000Y-11732000I-60000J0D01*
G01*
X14187000Y-13464000D02*
G75*
G03*
X14187000Y-13464000I-60000J0D01*
G01*
X14433000Y-7402000D02*
G75*
G03*
X14433000Y-7402000I-60000J0D01*
G01*
X14433000Y-9134000D02*
G75*
G03*
X14433000Y-9134000I-60000J0D01*
G01*
X14433000Y-10866000D02*
G75*
G03*
X14433000Y-10866000I-60000J0D01*
G01*
X14433000Y-12598000D02*
G75*
G03*
X14433000Y-12598000I-60000J0D01*
G01*
X14687000Y-7402000D02*
G75*
G03*
X14687000Y-7402000I-60000J0D01*
G01*
X14687000Y-9134000D02*
G75*
G03*
X14687000Y-9134000I-60000J0D01*
G01*
X14687000Y-10866000D02*
G75*
G03*
X14687000Y-10866000I-60000J0D01*
G01*
X14687000Y-12598000D02*
G75*
G03*
X14687000Y-12598000I-60000J0D01*
G01*
X14933000Y-6536000D02*
G75*
G03*
X14933000Y-6536000I-60000J0D01*
G01*
X14933000Y-8268000D02*
G75*
G03*
X14933000Y-8268000I-60000J0D01*
G01*
X14933000Y-10000000D02*
G75*
G03*
X14933000Y-10000000I-60000J0D01*
G01*
X14933000Y-11732000D02*
G75*
G03*
X14933000Y-11732000I-60000J0D01*
G01*
X14933000Y-13464000D02*
G75*
G03*
X14933000Y-13464000I-60000J0D01*
G01*
X15187000Y-6536000D02*
G75*
G03*
X15187000Y-6536000I-60000J0D01*
G01*
X15187000Y-8268000D02*
G75*
G03*
X15187000Y-8268000I-60000J0D01*
G01*
X15187000Y-10000000D02*
G75*
G03*
X15187000Y-10000000I-60000J0D01*
G01*
X15187000Y-11732000D02*
G75*
G03*
X15187000Y-11732000I-60000J0D01*
G01*
X15187000Y-13464000D02*
G75*
G03*
X15187000Y-13464000I-60000J0D01*
G01*
X15433000Y-7402000D02*
G75*
G03*
X15433000Y-7402000I-60000J0D01*
G01*
X15433000Y-9134000D02*
G75*
G03*
X15433000Y-9134000I-60000J0D01*
G01*
X15433000Y-10866000D02*
G75*
G03*
X15433000Y-10866000I-60000J0D01*
G01*
X15433000Y-12598000D02*
G75*
G03*
X15433000Y-12598000I-60000J0D01*
G01*
X15687000Y-7402000D02*
G75*
G03*
X15687000Y-7402000I-60000J0D01*
G01*
X15687000Y-9134000D02*
G75*
G03*
X15687000Y-9134000I-60000J0D01*
G01*
X15687000Y-10866000D02*
G75*
G03*
X15687000Y-10866000I-60000J0D01*
G01*
X15687000Y-12598000D02*
G75*
G03*
X15687000Y-12598000I-60000J0D01*
G01*
X15933000Y-6536000D02*
G75*
G03*
X15933000Y-6536000I-60000J0D01*
G01*
X15933000Y-8268000D02*
G75*
G03*
X15933000Y-8268000I-60000J0D01*
G01*
X15933000Y-10000000D02*
G75*
G03*
X15933000Y-10000000I-60000J0D01*
G01*
X15933000Y-11732000D02*
G75*
G03*
X15933000Y-11732000I-60000J0D01*
G01*
X15933000Y-13464000D02*
G75*
G03*
X15933000Y-13464000I-60000J0D01*
G01*
X16187000Y-6536000D02*
G75*
G03*
X16187000Y-6536000I-60000J0D01*
G01*
X16187000Y-8268000D02*
G75*
G03*
X16187000Y-8268000I-60000J0D01*
G01*
X16187000Y-10000000D02*
G75*
G03*
X16187000Y-10000000I-60000J0D01*
G01*
X16187000Y-11732000D02*
G75*
G03*
X16187000Y-11732000I-60000J0D01*
G01*
X16187000Y-13464000D02*
G75*
G03*
X16187000Y-13464000I-60000J0D01*
G01*
X16433000Y-7402000D02*
G75*
G03*
X16433000Y-7402000I-60000J0D01*
G01*
X16433000Y-9134000D02*
G75*
G03*
X16433000Y-9134000I-60000J0D01*
G01*
X16433000Y-10866000D02*
G75*
G03*
X16433000Y-10866000I-60000J0D01*
G01*
X16433000Y-12598000D02*
G75*
G03*
X16433000Y-12598000I-60000J0D01*
G01*
X16687000Y-7402000D02*
G75*
G03*
X16687000Y-7402000I-60000J0D01*
G01*
X16687000Y-9134000D02*
G75*
G03*
X16687000Y-9134000I-60000J0D01*
G01*
X16687000Y-10866000D02*
G75*
G03*
X16687000Y-10866000I-60000J0D01*
G01*
X16687000Y-12598000D02*
G75*
G03*
X16687000Y-12598000I-60000J0D01*
G01*
X16933000Y-8268000D02*
G75*
G03*
X16933000Y-8268000I-60000J0D01*
G01*
X16933000Y-10000000D02*
G75*
G03*
X16933000Y-10000000I-60000J0D01*
G01*
X16933000Y-11732000D02*
G75*
G03*
X16933000Y-11732000I-60000J0D01*
G01*
X17187000Y-8268000D02*
G75*
G03*
X17187000Y-8268000I-60000J0D01*
G01*
X17187000Y-10000000D02*
G75*
G03*
X17187000Y-10000000I-60000J0D01*
G01*
X17187000Y-11732000D02*
G75*
G03*
X17187000Y-11732000I-60000J0D01*
G01*
X17433000Y-7402000D02*
G75*
G03*
X17433000Y-7402000I-60000J0D01*
G01*
X17433000Y-9134000D02*
G75*
G03*
X17433000Y-9134000I-60000J0D01*
G01*
X17433000Y-10866000D02*
G75*
G03*
X17433000Y-10866000I-60000J0D01*
G01*
X17687000Y-7402000D02*
G75*
G03*
X17687000Y-7402000I-60000J0D01*
G01*
X17687000Y-9134000D02*
G75*
G03*
X17687000Y-9134000I-60000J0D01*
G01*
X17687000Y-10866000D02*
G75*
G03*
X17687000Y-10866000I-60000J0D01*
G01*
X17933000Y-8268000D02*
G75*
G03*
X17933000Y-8268000I-60000J0D01*
G01*
X17933000Y-10000000D02*
G75*
G03*
X17933000Y-10000000I-60000J0D01*
G01*
X17933000Y-11732000D02*
G75*
G03*
X17933000Y-11732000I-60000J0D01*
G01*
X18187000Y-8268000D02*
G75*
G03*
X18187000Y-8268000I-60000J0D01*
G01*
X18187000Y-10000000D02*
G75*
G03*
X18187000Y-10000000I-60000J0D01*
G01*
X18187000Y-11732000D02*
G75*
G03*
X18187000Y-11732000I-60000J0D01*
G01*
X18433000Y-9134000D02*
G75*
G03*
X18433000Y-9134000I-60000J0D01*
G01*
X18433000Y-10866000D02*
G75*
G03*
X18433000Y-10866000I-60000J0D01*
G01*
X18687000Y-9134000D02*
G75*
G03*
X18687000Y-9134000I-60000J0D01*
G01*
X18687000Y-10866000D02*
G75*
G03*
X18687000Y-10866000I-60000J0D01*
G01*
X13000000Y-6340000D02*
X13000000Y-6660000D01*
X12840000Y-6500000D02*
X13160000Y-6500000D01*
X13000000Y-13340000D02*
X13000000Y-13660000D01*
X12840000Y-13500000D02*
X13160000Y-13500000D01*
X17000000Y-6340000D02*
X17000000Y-6660000D01*
X16840000Y-6500000D02*
X17160000Y-6500000D01*
X17000000Y-13340000D02*
X17000000Y-13660000D01*
X16840000Y-13500000D02*
X17160000Y-13500000D01*
D12*
X10778928Y-14973214D02*
X10778928Y-14673214D01*
X10850357Y-14673214D01*
X10893214Y-14687500D01*
X10921786Y-14716071D01*
X10936071Y-14744643D01*
X10950357Y-14801786D01*
X10950357Y-14844643D01*
X10936071Y-14901786D01*
X10921786Y-14930357D01*
X10893214Y-14958929D01*
X10850357Y-14973214D01*
X10778928Y-14973214D01*
X11078928Y-14973214D02*
X11078928Y-14773214D01*
X11078928Y-14830357D02*
X11093214Y-14801786D01*
X11107500Y-14787500D01*
X11136071Y-14773214D01*
X11164643Y-14773214D01*
X11264643Y-14973214D02*
X11264643Y-14773214D01*
X11264643Y-14673214D02*
X11250357Y-14687500D01*
X11264643Y-14701786D01*
X11278928Y-14687500D01*
X11264643Y-14673214D01*
X11264643Y-14701786D01*
X11450357Y-14973214D02*
X11421786Y-14958929D01*
X11407500Y-14930357D01*
X11407500Y-14673214D01*
X11607500Y-14973214D02*
X11578928Y-14958929D01*
X11564643Y-14930357D01*
X11564643Y-14673214D01*
X11950357Y-14973214D02*
X11950357Y-14673214D01*
X12050357Y-14887500D01*
X12150357Y-14673214D01*
X12150357Y-14973214D01*
X12421786Y-14973214D02*
X12421786Y-14816071D01*
X12407500Y-14787500D01*
X12378928Y-14773214D01*
X12321786Y-14773214D01*
X12293214Y-14787500D01*
X12421786Y-14958929D02*
X12393214Y-14973214D01*
X12321786Y-14973214D01*
X12293214Y-14958929D01*
X12278928Y-14930357D01*
X12278928Y-14901786D01*
X12293214Y-14873214D01*
X12321786Y-14858929D01*
X12393214Y-14858929D01*
X12421786Y-14844643D01*
X12564643Y-14773214D02*
X12564643Y-15073214D01*
X12564643Y-14787500D02*
X12593214Y-14773214D01*
X12650357Y-14773214D01*
X12678928Y-14787500D01*
X12693214Y-14801786D01*
X12707500Y-14830357D01*
X12707500Y-14916071D01*
X12693214Y-14944643D01*
X12678928Y-14958929D01*
X12650357Y-14973214D01*
X12593214Y-14973214D01*
X12564643Y-14958929D01*
X12836071Y-14944643D02*
X12850357Y-14958929D01*
X12836071Y-14973214D01*
X12821786Y-14958929D01*
X12836071Y-14944643D01*
X12836071Y-14973214D01*
X12836071Y-14787500D02*
X12850357Y-14801786D01*
X12836071Y-14816071D01*
X12821786Y-14801786D01*
X12836071Y-14787500D01*
X12836071Y-14816071D01*
X10392500Y-15417500D02*
X10492500Y-15517500D01*
X10492500Y-15417500D02*
X10392500Y-15517500D01*
X10936071Y-15603214D02*
X10764643Y-15603214D01*
X10850357Y-15603214D02*
X10850357Y-15303214D01*
X10821786Y-15346071D01*
X10793214Y-15374643D01*
X10764643Y-15388929D01*
X11064643Y-15574643D02*
X11078928Y-15588929D01*
X11064643Y-15603214D01*
X11050357Y-15588929D01*
X11064643Y-15574643D01*
X11064643Y-15603214D01*
X11264643Y-15303214D02*
X11293214Y-15303214D01*
X11321786Y-15317500D01*
X11336071Y-15331786D01*
X11350357Y-15360357D01*
X11364643Y-15417500D01*
X11364643Y-15488929D01*
X11350357Y-15546071D01*
X11336071Y-15574643D01*
X11321786Y-15588929D01*
X11293214Y-15603214D01*
X11264643Y-15603214D01*
X11236071Y-15588929D01*
X11221786Y-15574643D01*
X11207500Y-15546071D01*
X11193214Y-15488929D01*
X11193214Y-15417500D01*
X11207500Y-15360357D01*
X11221786Y-15331786D01*
X11236071Y-15317500D01*
X11264643Y-15303214D01*
X11550357Y-15303214D02*
X11578928Y-15303214D01*
X11607500Y-15317500D01*
X11621786Y-15331786D01*
X11636071Y-15360357D01*
X11650357Y-15417500D01*
X11650357Y-15488929D01*
X11636071Y-15546071D01*
X11621786Y-15574643D01*
X11607500Y-15588929D01*
X11578928Y-15603214D01*
X11550357Y-15603214D01*
X11521786Y-15588929D01*
X11507500Y-15574643D01*
X11493214Y-15546071D01*
X11478928Y-15488929D01*
X11478928Y-15417500D01*
X11493214Y-15360357D01*
X11507500Y-15331786D01*
X11521786Y-15317500D01*
X11550357Y-15303214D01*
X11778928Y-15603214D02*
X11778928Y-15403214D01*
X11778928Y-15431786D02*
X11793214Y-15417500D01*
X11821786Y-15403214D01*
X11864643Y-15403214D01*
X11893214Y-15417500D01*
X11907500Y-15446071D01*
X11907500Y-15603214D01*
X11907500Y-15446071D02*
X11921786Y-15417500D01*
X11950357Y-15403214D01*
X11993214Y-15403214D01*
X12021786Y-15417500D01*
X12036071Y-15446071D01*
X12036071Y-15603214D01*
X12178928Y-15603214D02*
X12178928Y-15403214D01*
X12178928Y-15431786D02*
X12193214Y-15417500D01*
X12221786Y-15403214D01*
X12264643Y-15403214D01*
X12293214Y-15417500D01*
X12307500Y-15446071D01*
X12307500Y-15603214D01*
X12307500Y-15446071D02*
X12321786Y-15417500D01*
X12350357Y-15403214D01*
X12393214Y-15403214D01*
X12421786Y-15417500D01*
X12436071Y-15446071D01*
X12436071Y-15603214D01*
X13021786Y-15288929D02*
X12764643Y-15674643D01*
X13407500Y-15303214D02*
X13436071Y-15303214D01*
X13464643Y-15317500D01*
X13478928Y-15331786D01*
X13493214Y-15360357D01*
X13507500Y-15417500D01*
X13507500Y-15488929D01*
X13493214Y-15546071D01*
X13478928Y-15574643D01*
X13464643Y-15588929D01*
X13436071Y-15603214D01*
X13407500Y-15603214D01*
X13378928Y-15588929D01*
X13364643Y-15574643D01*
X13350357Y-15546071D01*
X13336071Y-15488929D01*
X13336071Y-15417500D01*
X13350357Y-15360357D01*
X13364643Y-15331786D01*
X13378928Y-15317500D01*
X13407500Y-15303214D01*
X13636071Y-15574643D02*
X13650357Y-15588929D01*
X13636071Y-15603214D01*
X13621786Y-15588929D01*
X13636071Y-15574643D01*
X13636071Y-15603214D01*
X13836071Y-15303214D02*
X13864643Y-15303214D01*
X13893214Y-15317500D01*
X13907500Y-15331786D01*
X13921786Y-15360357D01*
X13936071Y-15417500D01*
X13936071Y-15488929D01*
X13921786Y-15546071D01*
X13907500Y-15574643D01*
X13893214Y-15588929D01*
X13864643Y-15603214D01*
X13836071Y-15603214D01*
X13807500Y-15588929D01*
X13793214Y-15574643D01*
X13778928Y-15546071D01*
X13764643Y-15488929D01*
X13764643Y-15417500D01*
X13778928Y-15360357D01*
X13793214Y-15331786D01*
X13807500Y-15317500D01*
X13836071Y-15303214D01*
X14036071Y-15303214D02*
X14221786Y-15303214D01*
X14121786Y-15417500D01*
X14164643Y-15417500D01*
X14193214Y-15431786D01*
X14207500Y-15446071D01*
X14221786Y-15474643D01*
X14221786Y-15546071D01*
X14207500Y-15574643D01*
X14193214Y-15588929D01*
X14164643Y-15603214D01*
X14078928Y-15603214D01*
X14050357Y-15588929D01*
X14036071Y-15574643D01*
X14364643Y-15603214D02*
X14421786Y-15603214D01*
X14450357Y-15588929D01*
X14464643Y-15574643D01*
X14493214Y-15531786D01*
X14507500Y-15474643D01*
X14507500Y-15360357D01*
X14493214Y-15331786D01*
X14478928Y-15317500D01*
X14450357Y-15303214D01*
X14393214Y-15303214D01*
X14364643Y-15317500D01*
X14350357Y-15331786D01*
X14336071Y-15360357D01*
X14336071Y-15431786D01*
X14350357Y-15460357D01*
X14364643Y-15474643D01*
X14393214Y-15488929D01*
X14450357Y-15488929D01*
X14478928Y-15474643D01*
X14493214Y-15460357D01*
X14507500Y-15431786D01*
X14621786Y-15303214D02*
X14621786Y-15360357D01*
X14736071Y-15303214D02*
X14736071Y-15360357D01*
X15178928Y-15717500D02*
X15164643Y-15703214D01*
X15136071Y-15660357D01*
X15121786Y-15631786D01*
X15107500Y-15588929D01*
X15093214Y-15517500D01*
X15093214Y-15460357D01*
X15107500Y-15388929D01*
X15121786Y-15346071D01*
X15136071Y-15317500D01*
X15164643Y-15274643D01*
X15178928Y-15260357D01*
X15278928Y-15331786D02*
X15293214Y-15317500D01*
X15321786Y-15303214D01*
X15393214Y-15303214D01*
X15421786Y-15317500D01*
X15436071Y-15331786D01*
X15450357Y-15360357D01*
X15450357Y-15388929D01*
X15436071Y-15431786D01*
X15264643Y-15603214D01*
X15450357Y-15603214D01*
X15807500Y-15603214D02*
X15807500Y-15303214D01*
X15936071Y-15603214D02*
X15936071Y-15446071D01*
X15921786Y-15417500D01*
X15893214Y-15403214D01*
X15850357Y-15403214D01*
X15821786Y-15417500D01*
X15807500Y-15431786D01*
X16121786Y-15603214D02*
X16093214Y-15588929D01*
X16078928Y-15574643D01*
X16064643Y-15546071D01*
X16064643Y-15460357D01*
X16078928Y-15431786D01*
X16093214Y-15417500D01*
X16121786Y-15403214D01*
X16164643Y-15403214D01*
X16193214Y-15417500D01*
X16207500Y-15431786D01*
X16221786Y-15460357D01*
X16221786Y-15546071D01*
X16207500Y-15574643D01*
X16193214Y-15588929D01*
X16164643Y-15603214D01*
X16121786Y-15603214D01*
X16393214Y-15603214D02*
X16364643Y-15588929D01*
X16350357Y-15560357D01*
X16350357Y-15303214D01*
X16621786Y-15588929D02*
X16593214Y-15603214D01*
X16536071Y-15603214D01*
X16507500Y-15588929D01*
X16493214Y-15560357D01*
X16493214Y-15446071D01*
X16507500Y-15417500D01*
X16536071Y-15403214D01*
X16593214Y-15403214D01*
X16621786Y-15417500D01*
X16636071Y-15446071D01*
X16636071Y-15474643D01*
X16493214Y-15503214D01*
X16750357Y-15588929D02*
X16778928Y-15603214D01*
X16836071Y-15603214D01*
X16864643Y-15588929D01*
X16878928Y-15560357D01*
X16878928Y-15546071D01*
X16864643Y-15517500D01*
X16836071Y-15503214D01*
X16793214Y-15503214D01*
X16764643Y-15488929D01*
X16750357Y-15460357D01*
X16750357Y-15446071D01*
X16764643Y-15417500D01*
X16793214Y-15403214D01*
X16836071Y-15403214D01*
X16864643Y-15417500D01*
X16978928Y-15717500D02*
X16993214Y-15703214D01*
X17021786Y-15660357D01*
X17036071Y-15631786D01*
X17050357Y-15588929D01*
X17064643Y-15517500D01*
X17064643Y-15460357D01*
X17050357Y-15388929D01*
X17036071Y-15346071D01*
X17021786Y-15317500D01*
X16993214Y-15274643D01*
X16978928Y-15260357D01*
X10492500Y-15863500D02*
G75*
G03*
X10492500Y-15863500I-60000J0D01*
G01*
X10936071Y-15999214D02*
X10764643Y-15999214D01*
X10850357Y-15999214D02*
X10850357Y-15699214D01*
X10821786Y-15742071D01*
X10793214Y-15770643D01*
X10764643Y-15784929D01*
X11064643Y-15970643D02*
X11078928Y-15984929D01*
X11064643Y-15999214D01*
X11050357Y-15984929D01*
X11064643Y-15970643D01*
X11064643Y-15999214D01*
X11193214Y-15727786D02*
X11207500Y-15713500D01*
X11236071Y-15699214D01*
X11307500Y-15699214D01*
X11336071Y-15713500D01*
X11350357Y-15727786D01*
X11364643Y-15756357D01*
X11364643Y-15784929D01*
X11350357Y-15827786D01*
X11178928Y-15999214D01*
X11364643Y-15999214D01*
X11550357Y-15699214D02*
X11578928Y-15699214D01*
X11607500Y-15713500D01*
X11621786Y-15727786D01*
X11636071Y-15756357D01*
X11650357Y-15813500D01*
X11650357Y-15884929D01*
X11636071Y-15942071D01*
X11621786Y-15970643D01*
X11607500Y-15984929D01*
X11578928Y-15999214D01*
X11550357Y-15999214D01*
X11521786Y-15984929D01*
X11507500Y-15970643D01*
X11493214Y-15942071D01*
X11478928Y-15884929D01*
X11478928Y-15813500D01*
X11493214Y-15756357D01*
X11507500Y-15727786D01*
X11521786Y-15713500D01*
X11550357Y-15699214D01*
X11778928Y-15999214D02*
X11778928Y-15799214D01*
X11778928Y-15827786D02*
X11793214Y-15813500D01*
X11821786Y-15799214D01*
X11864643Y-15799214D01*
X11893214Y-15813500D01*
X11907500Y-15842071D01*
X11907500Y-15999214D01*
X11907500Y-15842071D02*
X11921786Y-15813500D01*
X11950357Y-15799214D01*
X11993214Y-15799214D01*
X12021786Y-15813500D01*
X12036071Y-15842071D01*
X12036071Y-15999214D01*
X12178928Y-15999214D02*
X12178928Y-15799214D01*
X12178928Y-15827786D02*
X12193214Y-15813500D01*
X12221786Y-15799214D01*
X12264643Y-15799214D01*
X12293214Y-15813500D01*
X12307500Y-15842071D01*
X12307500Y-15999214D01*
X12307500Y-15842071D02*
X12321786Y-15813500D01*
X12350357Y-15799214D01*
X12393214Y-15799214D01*
X12421786Y-15813500D01*
X12436071Y-15842071D01*
X12436071Y-15999214D01*
X13021786Y-15684929D02*
X12764643Y-16070643D01*
X13407500Y-15699214D02*
X13436071Y-15699214D01*
X13464643Y-15713500D01*
X13478928Y-15727786D01*
X13493214Y-15756357D01*
X13507500Y-15813500D01*
X13507500Y-15884929D01*
X13493214Y-15942071D01*
X13478928Y-15970643D01*
X13464643Y-15984929D01*
X13436071Y-15999214D01*
X13407500Y-15999214D01*
X13378928Y-15984929D01*
X13364643Y-15970643D01*
X13350357Y-15942071D01*
X13336071Y-15884929D01*
X13336071Y-15813500D01*
X13350357Y-15756357D01*
X13364643Y-15727786D01*
X13378928Y-15713500D01*
X13407500Y-15699214D01*
X13636071Y-15970643D02*
X13650357Y-15984929D01*
X13636071Y-15999214D01*
X13621786Y-15984929D01*
X13636071Y-15970643D01*
X13636071Y-15999214D01*
X13836071Y-15699214D02*
X13864643Y-15699214D01*
X13893214Y-15713500D01*
X13907500Y-15727786D01*
X13921786Y-15756357D01*
X13936071Y-15813500D01*
X13936071Y-15884929D01*
X13921786Y-15942071D01*
X13907500Y-15970643D01*
X13893214Y-15984929D01*
X13864643Y-15999214D01*
X13836071Y-15999214D01*
X13807500Y-15984929D01*
X13793214Y-15970643D01*
X13778928Y-15942071D01*
X13764643Y-15884929D01*
X13764643Y-15813500D01*
X13778928Y-15756357D01*
X13793214Y-15727786D01*
X13807500Y-15713500D01*
X13836071Y-15699214D01*
X14193214Y-15799214D02*
X14193214Y-15999214D01*
X14121786Y-15684929D02*
X14050357Y-15899214D01*
X14236071Y-15899214D01*
X14321786Y-15699214D02*
X14521786Y-15699214D01*
X14393214Y-15999214D01*
X14621786Y-15699214D02*
X14621786Y-15756357D01*
X14736071Y-15699214D02*
X14736071Y-15756357D01*
X15178928Y-16113500D02*
X15164643Y-16099214D01*
X15136071Y-16056357D01*
X15121786Y-16027786D01*
X15107500Y-15984929D01*
X15093214Y-15913500D01*
X15093214Y-15856357D01*
X15107500Y-15784929D01*
X15121786Y-15742071D01*
X15136071Y-15713500D01*
X15164643Y-15670643D01*
X15178928Y-15656357D01*
X15450357Y-15999214D02*
X15278928Y-15999214D01*
X15364643Y-15999214D02*
X15364643Y-15699214D01*
X15336071Y-15742071D01*
X15307500Y-15770643D01*
X15278928Y-15784929D01*
X15636071Y-15699214D02*
X15664643Y-15699214D01*
X15693214Y-15713500D01*
X15707500Y-15727786D01*
X15721786Y-15756357D01*
X15736071Y-15813500D01*
X15736071Y-15884929D01*
X15721786Y-15942071D01*
X15707500Y-15970643D01*
X15693214Y-15984929D01*
X15664643Y-15999214D01*
X15636071Y-15999214D01*
X15607500Y-15984929D01*
X15593214Y-15970643D01*
X15578928Y-15942071D01*
X15564643Y-15884929D01*
X15564643Y-15813500D01*
X15578928Y-15756357D01*
X15593214Y-15727786D01*
X15607500Y-15713500D01*
X15636071Y-15699214D01*
X15907500Y-15827786D02*
X15878928Y-15813500D01*
X15864643Y-15799214D01*
X15850357Y-15770643D01*
X15850357Y-15756357D01*
X15864643Y-15727786D01*
X15878928Y-15713500D01*
X15907500Y-15699214D01*
X15964643Y-15699214D01*
X15993214Y-15713500D01*
X16007500Y-15727786D01*
X16021786Y-15756357D01*
X16021786Y-15770643D01*
X16007500Y-15799214D01*
X15993214Y-15813500D01*
X15964643Y-15827786D01*
X15907500Y-15827786D01*
X15878928Y-15842071D01*
X15864643Y-15856357D01*
X15850357Y-15884929D01*
X15850357Y-15942071D01*
X15864643Y-15970643D01*
X15878928Y-15984929D01*
X15907500Y-15999214D01*
X15964643Y-15999214D01*
X15993214Y-15984929D01*
X16007500Y-15970643D01*
X16021786Y-15942071D01*
X16021786Y-15884929D01*
X16007500Y-15856357D01*
X15993214Y-15842071D01*
X15964643Y-15827786D01*
X16378928Y-15999214D02*
X16378928Y-15699214D01*
X16507500Y-15999214D02*
X16507500Y-15842071D01*
X16493214Y-15813500D01*
X16464643Y-15799214D01*
X16421786Y-15799214D01*
X16393214Y-15813500D01*
X16378928Y-15827786D01*
X16693214Y-15999214D02*
X16664643Y-15984929D01*
X16650357Y-15970643D01*
X16636071Y-15942071D01*
X16636071Y-15856357D01*
X16650357Y-15827786D01*
X16664643Y-15813500D01*
X16693214Y-15799214D01*
X16736071Y-15799214D01*
X16764643Y-15813500D01*
X16778928Y-15827786D01*
X16793214Y-15856357D01*
X16793214Y-15942071D01*
X16778928Y-15970643D01*
X16764643Y-15984929D01*
X16736071Y-15999214D01*
X16693214Y-15999214D01*
X16964643Y-15999214D02*
X16936071Y-15984929D01*
X16921786Y-15956357D01*
X16921786Y-15699214D01*
X17193214Y-15984929D02*
X17164643Y-15999214D01*
X17107500Y-15999214D01*
X17078928Y-15984929D01*
X17064643Y-15956357D01*
X17064643Y-15842071D01*
X17078928Y-15813500D01*
X17107500Y-15799214D01*
X17164643Y-15799214D01*
X17193214Y-15813500D01*
X17207500Y-15842071D01*
X17207500Y-15870643D01*
X17064643Y-15899214D01*
X17321786Y-15984929D02*
X17350357Y-15999214D01*
X17407500Y-15999214D01*
X17436071Y-15984929D01*
X17450357Y-15956357D01*
X17450357Y-15942071D01*
X17436071Y-15913500D01*
X17407500Y-15899214D01*
X17364643Y-15899214D01*
X17336071Y-15884929D01*
X17321786Y-15856357D01*
X17321786Y-15842071D01*
X17336071Y-15813500D01*
X17364643Y-15799214D01*
X17407500Y-15799214D01*
X17436071Y-15813500D01*
X17550357Y-16113500D02*
X17564643Y-16099214D01*
X17593214Y-16056357D01*
X17607500Y-16027786D01*
X17621786Y-15984929D01*
X17636071Y-15913500D01*
X17636071Y-15856357D01*
X17621786Y-15784929D01*
X17607500Y-15742071D01*
X17593214Y-15713500D01*
X17564643Y-15670643D01*
X17550357Y-15656357D01*
X10332500Y-16099500D02*
X10332500Y-16419500D01*
X10172500Y-16259500D02*
X10492500Y-16259500D01*
X10750357Y-16095214D02*
X10936071Y-16095214D01*
X10836071Y-16209500D01*
X10878928Y-16209500D01*
X10907500Y-16223786D01*
X10921786Y-16238071D01*
X10936071Y-16266643D01*
X10936071Y-16338071D01*
X10921786Y-16366643D01*
X10907500Y-16380929D01*
X10878928Y-16395214D01*
X10793214Y-16395214D01*
X10764643Y-16380929D01*
X10750357Y-16366643D01*
X11064643Y-16366643D02*
X11078928Y-16380929D01*
X11064643Y-16395214D01*
X11050357Y-16380929D01*
X11064643Y-16366643D01*
X11064643Y-16395214D01*
X11193214Y-16123786D02*
X11207500Y-16109500D01*
X11236071Y-16095214D01*
X11307500Y-16095214D01*
X11336071Y-16109500D01*
X11350357Y-16123786D01*
X11364643Y-16152357D01*
X11364643Y-16180929D01*
X11350357Y-16223786D01*
X11178928Y-16395214D01*
X11364643Y-16395214D01*
X11550357Y-16095214D02*
X11578928Y-16095214D01*
X11607500Y-16109500D01*
X11621786Y-16123786D01*
X11636071Y-16152357D01*
X11650357Y-16209500D01*
X11650357Y-16280929D01*
X11636071Y-16338071D01*
X11621786Y-16366643D01*
X11607500Y-16380929D01*
X11578928Y-16395214D01*
X11550357Y-16395214D01*
X11521786Y-16380929D01*
X11507500Y-16366643D01*
X11493214Y-16338071D01*
X11478928Y-16280929D01*
X11478928Y-16209500D01*
X11493214Y-16152357D01*
X11507500Y-16123786D01*
X11521786Y-16109500D01*
X11550357Y-16095214D01*
X11778928Y-16395214D02*
X11778928Y-16195214D01*
X11778928Y-16223786D02*
X11793214Y-16209500D01*
X11821786Y-16195214D01*
X11864643Y-16195214D01*
X11893214Y-16209500D01*
X11907500Y-16238071D01*
X11907500Y-16395214D01*
X11907500Y-16238071D02*
X11921786Y-16209500D01*
X11950357Y-16195214D01*
X11993214Y-16195214D01*
X12021786Y-16209500D01*
X12036071Y-16238071D01*
X12036071Y-16395214D01*
X12178928Y-16395214D02*
X12178928Y-16195214D01*
X12178928Y-16223786D02*
X12193214Y-16209500D01*
X12221786Y-16195214D01*
X12264643Y-16195214D01*
X12293214Y-16209500D01*
X12307500Y-16238071D01*
X12307500Y-16395214D01*
X12307500Y-16238071D02*
X12321786Y-16209500D01*
X12350357Y-16195214D01*
X12393214Y-16195214D01*
X12421786Y-16209500D01*
X12436071Y-16238071D01*
X12436071Y-16395214D01*
X13021786Y-16080929D02*
X12764643Y-16466643D01*
X13407500Y-16095214D02*
X13436071Y-16095214D01*
X13464643Y-16109500D01*
X13478928Y-16123786D01*
X13493214Y-16152357D01*
X13507500Y-16209500D01*
X13507500Y-16280929D01*
X13493214Y-16338071D01*
X13478928Y-16366643D01*
X13464643Y-16380929D01*
X13436071Y-16395214D01*
X13407500Y-16395214D01*
X13378928Y-16380929D01*
X13364643Y-16366643D01*
X13350357Y-16338071D01*
X13336071Y-16280929D01*
X13336071Y-16209500D01*
X13350357Y-16152357D01*
X13364643Y-16123786D01*
X13378928Y-16109500D01*
X13407500Y-16095214D01*
X13636071Y-16366643D02*
X13650357Y-16380929D01*
X13636071Y-16395214D01*
X13621786Y-16380929D01*
X13636071Y-16366643D01*
X13636071Y-16395214D01*
X13936071Y-16395214D02*
X13764643Y-16395214D01*
X13850357Y-16395214D02*
X13850357Y-16095214D01*
X13821786Y-16138071D01*
X13793214Y-16166643D01*
X13764643Y-16180929D01*
X14050357Y-16123786D02*
X14064643Y-16109500D01*
X14093214Y-16095214D01*
X14164643Y-16095214D01*
X14193214Y-16109500D01*
X14207500Y-16123786D01*
X14221786Y-16152357D01*
X14221786Y-16180929D01*
X14207500Y-16223786D01*
X14036071Y-16395214D01*
X14221786Y-16395214D01*
X14478928Y-16095214D02*
X14421786Y-16095214D01*
X14393214Y-16109500D01*
X14378928Y-16123786D01*
X14350357Y-16166643D01*
X14336071Y-16223786D01*
X14336071Y-16338071D01*
X14350357Y-16366643D01*
X14364643Y-16380929D01*
X14393214Y-16395214D01*
X14450357Y-16395214D01*
X14478928Y-16380929D01*
X14493214Y-16366643D01*
X14507500Y-16338071D01*
X14507500Y-16266643D01*
X14493214Y-16238071D01*
X14478928Y-16223786D01*
X14450357Y-16209500D01*
X14393214Y-16209500D01*
X14364643Y-16223786D01*
X14350357Y-16238071D01*
X14336071Y-16266643D01*
X14621786Y-16095214D02*
X14621786Y-16152357D01*
X14736071Y-16095214D02*
X14736071Y-16152357D01*
X15178928Y-16509500D02*
X15164643Y-16495214D01*
X15136071Y-16452357D01*
X15121786Y-16423786D01*
X15107500Y-16380929D01*
X15093214Y-16309500D01*
X15093214Y-16252357D01*
X15107500Y-16180929D01*
X15121786Y-16138071D01*
X15136071Y-16109500D01*
X15164643Y-16066643D01*
X15178928Y-16052357D01*
X15421786Y-16195214D02*
X15421786Y-16395214D01*
X15350357Y-16080929D02*
X15278928Y-16295214D01*
X15464643Y-16295214D01*
X15807500Y-16395214D02*
X15807500Y-16095214D01*
X15936071Y-16395214D02*
X15936071Y-16238071D01*
X15921786Y-16209500D01*
X15893214Y-16195214D01*
X15850357Y-16195214D01*
X15821786Y-16209500D01*
X15807500Y-16223786D01*
X16121786Y-16395214D02*
X16093214Y-16380929D01*
X16078928Y-16366643D01*
X16064643Y-16338071D01*
X16064643Y-16252357D01*
X16078928Y-16223786D01*
X16093214Y-16209500D01*
X16121786Y-16195214D01*
X16164643Y-16195214D01*
X16193214Y-16209500D01*
X16207500Y-16223786D01*
X16221786Y-16252357D01*
X16221786Y-16338071D01*
X16207500Y-16366643D01*
X16193214Y-16380929D01*
X16164643Y-16395214D01*
X16121786Y-16395214D01*
X16393214Y-16395214D02*
X16364643Y-16380929D01*
X16350357Y-16352357D01*
X16350357Y-16095214D01*
X16621786Y-16380929D02*
X16593214Y-16395214D01*
X16536071Y-16395214D01*
X16507500Y-16380929D01*
X16493214Y-16352357D01*
X16493214Y-16238071D01*
X16507500Y-16209500D01*
X16536071Y-16195214D01*
X16593214Y-16195214D01*
X16621786Y-16209500D01*
X16636071Y-16238071D01*
X16636071Y-16266643D01*
X16493214Y-16295214D01*
X16750357Y-16380929D02*
X16778928Y-16395214D01*
X16836071Y-16395214D01*
X16864643Y-16380929D01*
X16878928Y-16352357D01*
X16878928Y-16338071D01*
X16864643Y-16309500D01*
X16836071Y-16295214D01*
X16793214Y-16295214D01*
X16764643Y-16280929D01*
X16750357Y-16252357D01*
X16750357Y-16238071D01*
X16764643Y-16209500D01*
X16793214Y-16195214D01*
X16836071Y-16195214D01*
X16864643Y-16209500D01*
X16978928Y-16509500D02*
X16993214Y-16495214D01*
X17021786Y-16452357D01*
X17036071Y-16423786D01*
X17050357Y-16380929D01*
X17064643Y-16309500D01*
X17064643Y-16252357D01*
X17050357Y-16180929D01*
X17036071Y-16138071D01*
X17021786Y-16109500D01*
X16993214Y-16066643D01*
X16978928Y-16052357D01*
M02*
