M48
; DRILL file {KiCad (5.1.9)-1} date 10/19/21 01:51:12
; FORMAT={-:-/ absolute / metric / decimal}
; #@! TF.CreationDate,2021-10-19T01:51:12-03:00
; #@! TF.GenerationSoftware,Kicad,Pcbnew,(5.1.9)-1
; #@! TF.FileFunction,Plated,1,2,PTH
FMAT,2
METRIC
T1C1.000
T2C1.200
T3C3.200
%
G90
G05
T1
X189.3Y-98.85
X189.3Y-101.35
T2
X113.73Y-91.34
X113.73Y-108.66
X116.27Y-91.34
X116.27Y-108.66
X118.73Y-82.68
X118.73Y-100.0
X118.73Y-117.32
X121.27Y-82.68
X121.27Y-100.0
X121.27Y-117.32
X123.73Y-74.02
X123.73Y-91.34
X123.73Y-108.66
X123.73Y-125.98
X126.27Y-74.02
X126.27Y-91.34
X126.27Y-108.66
X126.27Y-125.98
X128.73Y-82.68
X128.73Y-100.0
X128.73Y-117.32
X131.27Y-82.68
X131.27Y-100.0
X131.27Y-117.32
X133.73Y-74.02
X133.73Y-91.34
X133.73Y-108.66
X133.73Y-125.98
X136.27Y-74.02
X136.27Y-91.34
X136.27Y-108.66
X136.27Y-125.98
X138.73Y-65.36
X138.73Y-82.68
X138.73Y-100.0
X138.73Y-117.32
X138.73Y-134.64
X141.27Y-65.36
X141.27Y-82.68
X141.27Y-100.0
X141.27Y-117.32
X141.27Y-134.64
X143.73Y-74.02
X143.73Y-91.34
X143.73Y-108.66
X143.73Y-125.98
X146.27Y-74.02
X146.27Y-91.34
X146.27Y-108.66
X146.27Y-125.98
X148.73Y-65.36
X148.73Y-82.68
X148.73Y-100.0
X148.73Y-117.32
X148.73Y-134.64
X151.27Y-65.36
X151.27Y-82.68
X151.27Y-100.0
X151.27Y-117.32
X151.27Y-134.64
X153.73Y-74.02
X153.73Y-91.34
X153.73Y-108.66
X153.73Y-125.98
X156.27Y-74.02
X156.27Y-91.34
X156.27Y-108.66
X156.27Y-125.98
X158.73Y-65.36
X158.73Y-82.68
X158.73Y-100.0
X158.73Y-117.32
X158.73Y-134.64
X161.27Y-65.36
X161.27Y-82.68
X161.27Y-100.0
X161.27Y-117.32
X161.27Y-134.64
X163.73Y-74.02
X163.73Y-91.34
X163.73Y-108.66
X163.73Y-125.98
X166.27Y-74.02
X166.27Y-91.34
X166.27Y-108.66
X166.27Y-125.98
X168.73Y-82.68
X168.73Y-100.0
X168.73Y-117.32
X171.27Y-82.68
X171.27Y-100.0
X171.27Y-117.32
X173.73Y-74.02
X173.73Y-91.34
X173.73Y-108.66
X176.27Y-74.02
X176.27Y-91.34
X176.27Y-108.66
X178.73Y-82.68
X178.73Y-100.0
X178.73Y-117.32
X181.27Y-82.68
X181.27Y-100.0
X181.27Y-117.32
X183.73Y-91.34
X183.73Y-108.66
X186.27Y-91.34
X186.27Y-108.66
T3
X130.0Y-65.0
X130.0Y-135.0
X170.0Y-65.0
X170.0Y-135.0
T0
M30
