G04 #@! TF.GenerationSoftware,KiCad,Pcbnew,(5.1.9)-1*
G04 #@! TF.CreationDate,2021-10-19T01:50:32-03:00*
G04 #@! TF.ProjectId,Blue_LED,426c7565-5f4c-4454-942e-6b696361645f,rev?*
G04 #@! TF.SameCoordinates,Original*
G04 #@! TF.FileFunction,Paste,Bot*
G04 #@! TF.FilePolarity,Positive*
%FSLAX46Y46*%
G04 Gerber Fmt 4.6, Leading zero omitted, Abs format (unit mm)*
G04 Created by KiCad (PCBNEW (5.1.9)-1) date 2021-10-19 01:50:32*
%MOMM*%
%LPD*%
G01*
G04 APERTURE LIST*
G04 APERTURE END LIST*
G36*
G01*
X180350001Y-108300000D02*
X179449999Y-108300000D01*
G75*
G02*
X179200000Y-108050001I0J249999D01*
G01*
X179200000Y-107524999D01*
G75*
G02*
X179449999Y-107275000I249999J0D01*
G01*
X180350001Y-107275000D01*
G75*
G02*
X180600000Y-107524999I0J-249999D01*
G01*
X180600000Y-108050001D01*
G75*
G02*
X180350001Y-108300000I-249999J0D01*
G01*
G37*
G36*
G01*
X180350001Y-110125000D02*
X179449999Y-110125000D01*
G75*
G02*
X179200000Y-109875001I0J249999D01*
G01*
X179200000Y-109349999D01*
G75*
G02*
X179449999Y-109100000I249999J0D01*
G01*
X180350001Y-109100000D01*
G75*
G02*
X180600000Y-109349999I0J-249999D01*
G01*
X180600000Y-109875001D01*
G75*
G02*
X180350001Y-110125000I-249999J0D01*
G01*
G37*
G36*
G01*
X145450001Y-134200000D02*
X144549999Y-134200000D01*
G75*
G02*
X144300000Y-133950001I0J249999D01*
G01*
X144300000Y-133424999D01*
G75*
G02*
X144549999Y-133175000I249999J0D01*
G01*
X145450001Y-133175000D01*
G75*
G02*
X145700000Y-133424999I0J-249999D01*
G01*
X145700000Y-133950001D01*
G75*
G02*
X145450001Y-134200000I-249999J0D01*
G01*
G37*
G36*
G01*
X145450001Y-136025000D02*
X144549999Y-136025000D01*
G75*
G02*
X144300000Y-135775001I0J249999D01*
G01*
X144300000Y-135249999D01*
G75*
G02*
X144549999Y-135000000I249999J0D01*
G01*
X145450001Y-135000000D01*
G75*
G02*
X145700000Y-135249999I0J-249999D01*
G01*
X145700000Y-135775001D01*
G75*
G02*
X145450001Y-136025000I-249999J0D01*
G01*
G37*
G36*
G01*
X115350001Y-117000000D02*
X114449999Y-117000000D01*
G75*
G02*
X114200000Y-116750001I0J249999D01*
G01*
X114200000Y-116224999D01*
G75*
G02*
X114449999Y-115975000I249999J0D01*
G01*
X115350001Y-115975000D01*
G75*
G02*
X115600000Y-116224999I0J-249999D01*
G01*
X115600000Y-116750001D01*
G75*
G02*
X115350001Y-117000000I-249999J0D01*
G01*
G37*
G36*
G01*
X115350001Y-118825000D02*
X114449999Y-118825000D01*
G75*
G02*
X114200000Y-118575001I0J249999D01*
G01*
X114200000Y-118049999D01*
G75*
G02*
X114449999Y-117800000I249999J0D01*
G01*
X115350001Y-117800000D01*
G75*
G02*
X115600000Y-118049999I0J-249999D01*
G01*
X115600000Y-118575001D01*
G75*
G02*
X115350001Y-118825000I-249999J0D01*
G01*
G37*
G36*
G01*
X115350001Y-82487500D02*
X114449999Y-82487500D01*
G75*
G02*
X114200000Y-82237501I0J249999D01*
G01*
X114200000Y-81712499D01*
G75*
G02*
X114449999Y-81462500I249999J0D01*
G01*
X115350001Y-81462500D01*
G75*
G02*
X115600000Y-81712499I0J-249999D01*
G01*
X115600000Y-82237501D01*
G75*
G02*
X115350001Y-82487500I-249999J0D01*
G01*
G37*
G36*
G01*
X115350001Y-84312500D02*
X114449999Y-84312500D01*
G75*
G02*
X114200000Y-84062501I0J249999D01*
G01*
X114200000Y-83537499D01*
G75*
G02*
X114449999Y-83287500I249999J0D01*
G01*
X115350001Y-83287500D01*
G75*
G02*
X115600000Y-83537499I0J-249999D01*
G01*
X115600000Y-84062501D01*
G75*
G02*
X115350001Y-84312500I-249999J0D01*
G01*
G37*
G36*
G01*
X145350001Y-64687500D02*
X144449999Y-64687500D01*
G75*
G02*
X144200000Y-64437501I0J249999D01*
G01*
X144200000Y-63912499D01*
G75*
G02*
X144449999Y-63662500I249999J0D01*
G01*
X145350001Y-63662500D01*
G75*
G02*
X145600000Y-63912499I0J-249999D01*
G01*
X145600000Y-64437501D01*
G75*
G02*
X145350001Y-64687500I-249999J0D01*
G01*
G37*
G36*
G01*
X145350001Y-66512500D02*
X144449999Y-66512500D01*
G75*
G02*
X144200000Y-66262501I0J249999D01*
G01*
X144200000Y-65737499D01*
G75*
G02*
X144449999Y-65487500I249999J0D01*
G01*
X145350001Y-65487500D01*
G75*
G02*
X145600000Y-65737499I0J-249999D01*
G01*
X145600000Y-66262501D01*
G75*
G02*
X145350001Y-66512500I-249999J0D01*
G01*
G37*
G36*
G01*
X175350001Y-82287500D02*
X174449999Y-82287500D01*
G75*
G02*
X174200000Y-82037501I0J249999D01*
G01*
X174200000Y-81512499D01*
G75*
G02*
X174449999Y-81262500I249999J0D01*
G01*
X175350001Y-81262500D01*
G75*
G02*
X175600000Y-81512499I0J-249999D01*
G01*
X175600000Y-82037501D01*
G75*
G02*
X175350001Y-82287500I-249999J0D01*
G01*
G37*
G36*
G01*
X175350001Y-84112500D02*
X174449999Y-84112500D01*
G75*
G02*
X174200000Y-83862501I0J249999D01*
G01*
X174200000Y-83337499D01*
G75*
G02*
X174449999Y-83087500I249999J0D01*
G01*
X175350001Y-83087500D01*
G75*
G02*
X175600000Y-83337499I0J-249999D01*
G01*
X175600000Y-83862501D01*
G75*
G02*
X175350001Y-84112500I-249999J0D01*
G01*
G37*
G36*
G01*
X170450001Y-108200000D02*
X169549999Y-108200000D01*
G75*
G02*
X169300000Y-107950001I0J249999D01*
G01*
X169300000Y-107424999D01*
G75*
G02*
X169549999Y-107175000I249999J0D01*
G01*
X170450001Y-107175000D01*
G75*
G02*
X170700000Y-107424999I0J-249999D01*
G01*
X170700000Y-107950001D01*
G75*
G02*
X170450001Y-108200000I-249999J0D01*
G01*
G37*
G36*
G01*
X170450001Y-110025000D02*
X169549999Y-110025000D01*
G75*
G02*
X169300000Y-109775001I0J249999D01*
G01*
X169300000Y-109249999D01*
G75*
G02*
X169549999Y-109000000I249999J0D01*
G01*
X170450001Y-109000000D01*
G75*
G02*
X170700000Y-109249999I0J-249999D01*
G01*
X170700000Y-109775001D01*
G75*
G02*
X170450001Y-110025000I-249999J0D01*
G01*
G37*
G36*
G01*
X150350001Y-125587500D02*
X149449999Y-125587500D01*
G75*
G02*
X149200000Y-125337501I0J249999D01*
G01*
X149200000Y-124812499D01*
G75*
G02*
X149449999Y-124562500I249999J0D01*
G01*
X150350001Y-124562500D01*
G75*
G02*
X150600000Y-124812499I0J-249999D01*
G01*
X150600000Y-125337501D01*
G75*
G02*
X150350001Y-125587500I-249999J0D01*
G01*
G37*
G36*
G01*
X150350001Y-127412500D02*
X149449999Y-127412500D01*
G75*
G02*
X149200000Y-127162501I0J249999D01*
G01*
X149200000Y-126637499D01*
G75*
G02*
X149449999Y-126387500I249999J0D01*
G01*
X150350001Y-126387500D01*
G75*
G02*
X150600000Y-126637499I0J-249999D01*
G01*
X150600000Y-127162501D01*
G75*
G02*
X150350001Y-127412500I-249999J0D01*
G01*
G37*
G36*
G01*
X125450001Y-116787500D02*
X124549999Y-116787500D01*
G75*
G02*
X124300000Y-116537501I0J249999D01*
G01*
X124300000Y-116012499D01*
G75*
G02*
X124549999Y-115762500I249999J0D01*
G01*
X125450001Y-115762500D01*
G75*
G02*
X125700000Y-116012499I0J-249999D01*
G01*
X125700000Y-116537501D01*
G75*
G02*
X125450001Y-116787500I-249999J0D01*
G01*
G37*
G36*
G01*
X125450001Y-118612500D02*
X124549999Y-118612500D01*
G75*
G02*
X124300000Y-118362501I0J249999D01*
G01*
X124300000Y-117837499D01*
G75*
G02*
X124549999Y-117587500I249999J0D01*
G01*
X125450001Y-117587500D01*
G75*
G02*
X125700000Y-117837499I0J-249999D01*
G01*
X125700000Y-118362501D01*
G75*
G02*
X125450001Y-118612500I-249999J0D01*
G01*
G37*
G36*
G01*
X120450001Y-90700000D02*
X119549999Y-90700000D01*
G75*
G02*
X119300000Y-90450001I0J249999D01*
G01*
X119300000Y-89924999D01*
G75*
G02*
X119549999Y-89675000I249999J0D01*
G01*
X120450001Y-89675000D01*
G75*
G02*
X120700000Y-89924999I0J-249999D01*
G01*
X120700000Y-90450001D01*
G75*
G02*
X120450001Y-90700000I-249999J0D01*
G01*
G37*
G36*
G01*
X120450001Y-92525000D02*
X119549999Y-92525000D01*
G75*
G02*
X119300000Y-92275001I0J249999D01*
G01*
X119300000Y-91749999D01*
G75*
G02*
X119549999Y-91500000I249999J0D01*
G01*
X120450001Y-91500000D01*
G75*
G02*
X120700000Y-91749999I0J-249999D01*
G01*
X120700000Y-92275001D01*
G75*
G02*
X120450001Y-92525000I-249999J0D01*
G01*
G37*
G36*
G01*
X139349999Y-74300000D02*
X140250001Y-74300000D01*
G75*
G02*
X140500000Y-74549999I0J-249999D01*
G01*
X140500000Y-75075001D01*
G75*
G02*
X140250001Y-75325000I-249999J0D01*
G01*
X139349999Y-75325000D01*
G75*
G02*
X139100000Y-75075001I0J249999D01*
G01*
X139100000Y-74549999D01*
G75*
G02*
X139349999Y-74300000I249999J0D01*
G01*
G37*
G36*
G01*
X139349999Y-72475000D02*
X140250001Y-72475000D01*
G75*
G02*
X140500000Y-72724999I0J-249999D01*
G01*
X140500000Y-73250001D01*
G75*
G02*
X140250001Y-73500000I-249999J0D01*
G01*
X139349999Y-73500000D01*
G75*
G02*
X139100000Y-73250001I0J249999D01*
G01*
X139100000Y-72724999D01*
G75*
G02*
X139349999Y-72475000I249999J0D01*
G01*
G37*
G36*
G01*
X165450001Y-82087500D02*
X164549999Y-82087500D01*
G75*
G02*
X164300000Y-81837501I0J249999D01*
G01*
X164300000Y-81312499D01*
G75*
G02*
X164549999Y-81062500I249999J0D01*
G01*
X165450001Y-81062500D01*
G75*
G02*
X165700000Y-81312499I0J-249999D01*
G01*
X165700000Y-81837501D01*
G75*
G02*
X165450001Y-82087500I-249999J0D01*
G01*
G37*
G36*
G01*
X165450001Y-83912500D02*
X164549999Y-83912500D01*
G75*
G02*
X164300000Y-83662501I0J249999D01*
G01*
X164300000Y-83137499D01*
G75*
G02*
X164549999Y-82887500I249999J0D01*
G01*
X165450001Y-82887500D01*
G75*
G02*
X165700000Y-83137499I0J-249999D01*
G01*
X165700000Y-83662501D01*
G75*
G02*
X165450001Y-83912500I-249999J0D01*
G01*
G37*
G36*
G01*
X160450001Y-108400000D02*
X159549999Y-108400000D01*
G75*
G02*
X159300000Y-108150001I0J249999D01*
G01*
X159300000Y-107624999D01*
G75*
G02*
X159549999Y-107375000I249999J0D01*
G01*
X160450001Y-107375000D01*
G75*
G02*
X160700000Y-107624999I0J-249999D01*
G01*
X160700000Y-108150001D01*
G75*
G02*
X160450001Y-108400000I-249999J0D01*
G01*
G37*
G36*
G01*
X160450001Y-110225000D02*
X159549999Y-110225000D01*
G75*
G02*
X159300000Y-109975001I0J249999D01*
G01*
X159300000Y-109449999D01*
G75*
G02*
X159549999Y-109200000I249999J0D01*
G01*
X160450001Y-109200000D01*
G75*
G02*
X160700000Y-109449999I0J-249999D01*
G01*
X160700000Y-109975001D01*
G75*
G02*
X160450001Y-110225000I-249999J0D01*
G01*
G37*
G36*
G01*
X135550001Y-116600000D02*
X134649999Y-116600000D01*
G75*
G02*
X134400000Y-116350001I0J249999D01*
G01*
X134400000Y-115824999D01*
G75*
G02*
X134649999Y-115575000I249999J0D01*
G01*
X135550001Y-115575000D01*
G75*
G02*
X135800000Y-115824999I0J-249999D01*
G01*
X135800000Y-116350001D01*
G75*
G02*
X135550001Y-116600000I-249999J0D01*
G01*
G37*
G36*
G01*
X135550001Y-118425000D02*
X134649999Y-118425000D01*
G75*
G02*
X134400000Y-118175001I0J249999D01*
G01*
X134400000Y-117649999D01*
G75*
G02*
X134649999Y-117400000I249999J0D01*
G01*
X135550001Y-117400000D01*
G75*
G02*
X135800000Y-117649999I0J-249999D01*
G01*
X135800000Y-118175001D01*
G75*
G02*
X135550001Y-118425000I-249999J0D01*
G01*
G37*
G36*
G01*
X130550001Y-91000000D02*
X129649999Y-91000000D01*
G75*
G02*
X129400000Y-90750001I0J249999D01*
G01*
X129400000Y-90224999D01*
G75*
G02*
X129649999Y-89975000I249999J0D01*
G01*
X130550001Y-89975000D01*
G75*
G02*
X130800000Y-90224999I0J-249999D01*
G01*
X130800000Y-90750001D01*
G75*
G02*
X130550001Y-91000000I-249999J0D01*
G01*
G37*
G36*
G01*
X130550001Y-92825000D02*
X129649999Y-92825000D01*
G75*
G02*
X129400000Y-92575001I0J249999D01*
G01*
X129400000Y-92049999D01*
G75*
G02*
X129649999Y-91800000I249999J0D01*
G01*
X130550001Y-91800000D01*
G75*
G02*
X130800000Y-92049999I0J-249999D01*
G01*
X130800000Y-92575001D01*
G75*
G02*
X130550001Y-92825000I-249999J0D01*
G01*
G37*
G36*
G01*
X155450001Y-82100000D02*
X154549999Y-82100000D01*
G75*
G02*
X154300000Y-81850001I0J249999D01*
G01*
X154300000Y-81324999D01*
G75*
G02*
X154549999Y-81075000I249999J0D01*
G01*
X155450001Y-81075000D01*
G75*
G02*
X155700000Y-81324999I0J-249999D01*
G01*
X155700000Y-81850001D01*
G75*
G02*
X155450001Y-82100000I-249999J0D01*
G01*
G37*
G36*
G01*
X155450001Y-83925000D02*
X154549999Y-83925000D01*
G75*
G02*
X154300000Y-83675001I0J249999D01*
G01*
X154300000Y-83149999D01*
G75*
G02*
X154549999Y-82900000I249999J0D01*
G01*
X155450001Y-82900000D01*
G75*
G02*
X155700000Y-83149999I0J-249999D01*
G01*
X155700000Y-83675001D01*
G75*
G02*
X155450001Y-83925000I-249999J0D01*
G01*
G37*
G36*
G01*
X150350001Y-108100000D02*
X149449999Y-108100000D01*
G75*
G02*
X149200000Y-107850001I0J249999D01*
G01*
X149200000Y-107324999D01*
G75*
G02*
X149449999Y-107075000I249999J0D01*
G01*
X150350001Y-107075000D01*
G75*
G02*
X150600000Y-107324999I0J-249999D01*
G01*
X150600000Y-107850001D01*
G75*
G02*
X150350001Y-108100000I-249999J0D01*
G01*
G37*
G36*
G01*
X150350001Y-109925000D02*
X149449999Y-109925000D01*
G75*
G02*
X149200000Y-109675001I0J249999D01*
G01*
X149200000Y-109149999D01*
G75*
G02*
X149449999Y-108900000I249999J0D01*
G01*
X150350001Y-108900000D01*
G75*
G02*
X150600000Y-109149999I0J-249999D01*
G01*
X150600000Y-109675001D01*
G75*
G02*
X150350001Y-109925000I-249999J0D01*
G01*
G37*
G36*
G01*
X140350001Y-91187500D02*
X139449999Y-91187500D01*
G75*
G02*
X139200000Y-90937501I0J249999D01*
G01*
X139200000Y-90412499D01*
G75*
G02*
X139449999Y-90162500I249999J0D01*
G01*
X140350001Y-90162500D01*
G75*
G02*
X140600000Y-90412499I0J-249999D01*
G01*
X140600000Y-90937501D01*
G75*
G02*
X140350001Y-91187500I-249999J0D01*
G01*
G37*
G36*
G01*
X140350001Y-93012500D02*
X139449999Y-93012500D01*
G75*
G02*
X139200000Y-92762501I0J249999D01*
G01*
X139200000Y-92237499D01*
G75*
G02*
X139449999Y-91987500I249999J0D01*
G01*
X140350001Y-91987500D01*
G75*
G02*
X140600000Y-92237499I0J-249999D01*
G01*
X140600000Y-92762501D01*
G75*
G02*
X140350001Y-93012500I-249999J0D01*
G01*
G37*
M02*
