%FSLAX45Y45*%
G04 Gerber Fmt 4.5, Leading zero omitted, Abs format (unit mm)*
G04 Created by KiCad (PCBNEW (5.1.9)-1) date 2021-10-19 01:51:29*
%MOMM*%
%LPD*%
G01*
G04 APERTURE LIST*
%TA.AperFunction,Profile*%
%ADD10C,0.150000*%
%TD*%
%ADD11C,0.200000*%
%ADD12C,0.300000*%
G04 APERTURE END LIST*
D10*
X19500000Y-10000000D02*
G75*
G03*
X19500000Y-10000000I-4500000J0D01*
G01*
D11*
D12*
X10778928Y-14973214D02*
X10778928Y-14673214D01*
X10850357Y-14673214D01*
X10893214Y-14687500D01*
X10921786Y-14716071D01*
X10936071Y-14744643D01*
X10950357Y-14801786D01*
X10950357Y-14844643D01*
X10936071Y-14901786D01*
X10921786Y-14930357D01*
X10893214Y-14958929D01*
X10850357Y-14973214D01*
X10778928Y-14973214D01*
X11078928Y-14973214D02*
X11078928Y-14773214D01*
X11078928Y-14830357D02*
X11093214Y-14801786D01*
X11107500Y-14787500D01*
X11136071Y-14773214D01*
X11164643Y-14773214D01*
X11264643Y-14973214D02*
X11264643Y-14773214D01*
X11264643Y-14673214D02*
X11250357Y-14687500D01*
X11264643Y-14701786D01*
X11278928Y-14687500D01*
X11264643Y-14673214D01*
X11264643Y-14701786D01*
X11450357Y-14973214D02*
X11421786Y-14958929D01*
X11407500Y-14930357D01*
X11407500Y-14673214D01*
X11607500Y-14973214D02*
X11578928Y-14958929D01*
X11564643Y-14930357D01*
X11564643Y-14673214D01*
X11950357Y-14973214D02*
X11950357Y-14673214D01*
X12050357Y-14887500D01*
X12150357Y-14673214D01*
X12150357Y-14973214D01*
X12421786Y-14973214D02*
X12421786Y-14816071D01*
X12407500Y-14787500D01*
X12378928Y-14773214D01*
X12321786Y-14773214D01*
X12293214Y-14787500D01*
X12421786Y-14958929D02*
X12393214Y-14973214D01*
X12321786Y-14973214D01*
X12293214Y-14958929D01*
X12278928Y-14930357D01*
X12278928Y-14901786D01*
X12293214Y-14873214D01*
X12321786Y-14858929D01*
X12393214Y-14858929D01*
X12421786Y-14844643D01*
X12564643Y-14773214D02*
X12564643Y-15073214D01*
X12564643Y-14787500D02*
X12593214Y-14773214D01*
X12650357Y-14773214D01*
X12678928Y-14787500D01*
X12693214Y-14801786D01*
X12707500Y-14830357D01*
X12707500Y-14916071D01*
X12693214Y-14944643D01*
X12678928Y-14958929D01*
X12650357Y-14973214D01*
X12593214Y-14973214D01*
X12564643Y-14958929D01*
X12836071Y-14944643D02*
X12850357Y-14958929D01*
X12836071Y-14973214D01*
X12821786Y-14958929D01*
X12836071Y-14944643D01*
X12836071Y-14973214D01*
X12836071Y-14787500D02*
X12850357Y-14801786D01*
X12836071Y-14816071D01*
X12821786Y-14801786D01*
X12836071Y-14787500D01*
X12836071Y-14816071D01*
M02*
