G04 #@! TF.GenerationSoftware,KiCad,Pcbnew,(5.1.9)-1*
G04 #@! TF.CreationDate,2021-10-19T01:50:32-03:00*
G04 #@! TF.ProjectId,Blue_LED,426c7565-5f4c-4454-942e-6b696361645f,rev?*
G04 #@! TF.SameCoordinates,Original*
G04 #@! TF.FileFunction,Soldermask,Top*
G04 #@! TF.FilePolarity,Negative*
%FSLAX46Y46*%
G04 Gerber Fmt 4.6, Leading zero omitted, Abs format (unit mm)*
G04 Created by KiCad (PCBNEW (5.1.9)-1) date 2021-10-19 01:50:32*
%MOMM*%
%LPD*%
G01*
G04 APERTURE LIST*
%ADD10C,1.800000*%
%ADD11O,1.800000X2.500000*%
G04 APERTURE END LIST*
D10*
X189300000Y-98850000D03*
X189300000Y-101350000D03*
D11*
X186270000Y-108660000D03*
X183730000Y-108660000D03*
X181270000Y-117320000D03*
X178730000Y-117320000D03*
X161270000Y-134640000D03*
X158730000Y-134640000D03*
X151270000Y-134640000D03*
X148730000Y-134640000D03*
X141270000Y-134640000D03*
X138730000Y-134640000D03*
X126270000Y-125980000D03*
X123730000Y-125980000D03*
X121270000Y-117320000D03*
X118730000Y-117320000D03*
X116270000Y-108660000D03*
X113730000Y-108660000D03*
X116270000Y-91340000D03*
X113730000Y-91340000D03*
X121270000Y-82680000D03*
X118730000Y-82680000D03*
X126270000Y-74020000D03*
X123730000Y-74020000D03*
X141270000Y-65360000D03*
X138730000Y-65360000D03*
X151270000Y-65360000D03*
X148730000Y-65360000D03*
X161270000Y-65360000D03*
X158730000Y-65360000D03*
X176270000Y-74020000D03*
X173730000Y-74020000D03*
X181270000Y-82680000D03*
X178730000Y-82680000D03*
X186270000Y-91340000D03*
X183730000Y-91340000D03*
X181270000Y-100000000D03*
X178730000Y-100000000D03*
X176270000Y-108660000D03*
X173730000Y-108660000D03*
X171270000Y-117320000D03*
X168730000Y-117320000D03*
X166270000Y-125980000D03*
X163730000Y-125980000D03*
X156270000Y-125980000D03*
X153730000Y-125980000D03*
X146270000Y-125980000D03*
X143730000Y-125980000D03*
X136270000Y-125980000D03*
X133730000Y-125980000D03*
X131270000Y-117320000D03*
X128730000Y-117320000D03*
X126270000Y-108660000D03*
X123730000Y-108660000D03*
X121270000Y-100000000D03*
X118730000Y-100000000D03*
X126270000Y-91340000D03*
X123730000Y-91340000D03*
X131270000Y-82680000D03*
X128730000Y-82680000D03*
X136270000Y-74020000D03*
X133730000Y-74020000D03*
X146270000Y-74020000D03*
X143730000Y-74020000D03*
X156270000Y-74020000D03*
X153730000Y-74020000D03*
X166270000Y-74020000D03*
X163730000Y-74020000D03*
X171270000Y-82680000D03*
X168730000Y-82680000D03*
X176270000Y-91340000D03*
X173730000Y-91340000D03*
X171270000Y-100000000D03*
X168730000Y-100000000D03*
X166270000Y-108660000D03*
X163730000Y-108660000D03*
X161270000Y-117320000D03*
X158730000Y-117320000D03*
X151270000Y-117320000D03*
X148730000Y-117320000D03*
X141270000Y-117320000D03*
X138730000Y-117320000D03*
X136270000Y-108660000D03*
X133730000Y-108660000D03*
X131270000Y-100000000D03*
X128730000Y-100000000D03*
X136270000Y-91340000D03*
X133730000Y-91340000D03*
X141270000Y-82680000D03*
X138730000Y-82680000D03*
X151270000Y-82680000D03*
X148730000Y-82680000D03*
X161270000Y-82680000D03*
X158730000Y-82680000D03*
X166270000Y-91340000D03*
X163730000Y-91340000D03*
X161270000Y-100000000D03*
X158730000Y-100000000D03*
X156270000Y-108660000D03*
X153730000Y-108660000D03*
X146270000Y-108660000D03*
X143730000Y-108660000D03*
X141270000Y-100000000D03*
X138730000Y-100000000D03*
X146270000Y-91340000D03*
X143730000Y-91340000D03*
X156270000Y-91340000D03*
X153730000Y-91340000D03*
X151270000Y-100000000D03*
X148730000Y-100000000D03*
M02*
