G04 Layer_Physical_Order=1*
G04 Layer_Color=255*
%FSLAX25Y25*%
%MOIN*%
G70*
G01*
G75*
%ADD10C,0.00500*%
%ADD11R,0.02756X0.03543*%
%ADD12R,0.12598X0.05905*%
%ADD13R,0.03543X0.02756*%
%ADD14R,0.03543X0.03150*%
%ADD15R,0.02756X0.03347*%
%ADD16R,0.09016X0.10709*%
%ADD17R,0.07480X0.04724*%
%ADD18R,0.12598X0.09842*%
%ADD19R,0.03150X0.03150*%
%ADD20R,0.07874X0.02362*%
%ADD21O,0.00787X0.01968*%
%ADD22R,0.02835X0.07087*%
%ADD23O,0.01772X0.05512*%
%ADD24O,0.01378X0.07087*%
%ADD25R,0.02362X0.04724*%
%ADD26R,0.04209X0.13780*%
%ADD27R,0.41968X0.35000*%
%ADD28R,0.03937X0.10236*%
%ADD29C,0.01000*%
%ADD30C,0.06400*%
%ADD31C,0.03200*%
%ADD32C,0.02400*%
%ADD33C,0.02000*%
%ADD34O,0.12598X0.07874*%
%ADD35R,0.07087X0.07087*%
%ADD36C,0.07087*%
%ADD37R,0.07087X0.07087*%
%ADD38C,0.23622*%
%ADD39C,0.05905*%
%ADD40R,0.05905X0.05905*%
%ADD41R,0.06000X0.06000*%
%ADD42C,0.02362*%
G36*
X366142Y157480D02*
X43307D01*
Y413386D01*
X366142D01*
Y157480D01*
D02*
G37*
%LPC*%
G36*
X80077Y264461D02*
X78453D01*
Y262836D01*
X78804Y262906D01*
X79525Y263388D01*
X80007Y264110D01*
X80077Y264461D01*
D02*
G37*
G36*
X77453D02*
X75828D01*
X75898Y264110D01*
X76380Y263388D01*
X77102Y262906D01*
X77453Y262836D01*
Y264461D01*
D02*
G37*
G36*
X207374Y265510D02*
X207023Y265440D01*
X206301Y264958D01*
X205820Y264237D01*
X205750Y263886D01*
X207374D01*
Y265510D01*
D02*
G37*
G36*
X77453Y267085D02*
X77102Y267015D01*
X76380Y266533D01*
X75898Y265812D01*
X75828Y265461D01*
X77453D01*
Y267085D01*
D02*
G37*
G36*
X208374Y265510D02*
Y263886D01*
X209998D01*
X209929Y264237D01*
X209447Y264958D01*
X208725Y265440D01*
X208374Y265510D01*
D02*
G37*
G36*
X53634Y257707D02*
X46835D01*
Y254254D01*
X53634D01*
Y257707D01*
D02*
G37*
G36*
X201118Y271941D02*
X179634D01*
Y253941D01*
X201118D01*
Y271941D01*
D02*
G37*
G36*
X247551Y267826D02*
X242607D01*
Y263670D01*
X243536D01*
X243723Y263170D01*
X240859Y260306D01*
X240397Y260497D01*
Y263670D01*
X241645D01*
Y267826D01*
X236702D01*
Y263670D01*
X237950D01*
Y260349D01*
X234953Y257353D01*
X234491Y257544D01*
Y263670D01*
X235739D01*
Y267826D01*
X230796D01*
Y263670D01*
X232044D01*
Y257397D01*
X224887Y250239D01*
X174213D01*
X173744Y250146D01*
X173347Y249881D01*
X167879Y244413D01*
X167432Y244598D01*
Y244598D01*
X163276D01*
Y239654D01*
X167432D01*
Y240924D01*
X167791Y240996D01*
X168188Y241261D01*
X174719Y247792D01*
X197180D01*
X197372Y247330D01*
X193523Y243481D01*
X193023Y243668D01*
Y244598D01*
X188867D01*
Y239654D01*
X192128D01*
X192354Y239154D01*
X192211Y238992D01*
X191445D01*
Y236221D01*
Y233449D01*
X193323D01*
Y233957D01*
X193811Y234054D01*
X194572Y234562D01*
X195556Y235546D01*
X196064Y236307D01*
X196243Y237205D01*
X196064Y238102D01*
X195556Y238863D01*
X194795Y239371D01*
X193898Y239550D01*
X193442Y239459D01*
X193023Y239886D01*
Y240902D01*
X193898D01*
X194366Y240996D01*
X194763Y241261D01*
X199326Y245824D01*
X225724D01*
X225915Y245362D01*
X223903Y243350D01*
X218613D01*
Y244598D01*
X214458D01*
Y239654D01*
X218613D01*
Y240902D01*
X224409D01*
X224878Y240996D01*
X225275Y241261D01*
X245944Y261930D01*
X246209Y262327D01*
X246302Y262795D01*
Y263670D01*
X247551D01*
Y267826D01*
D02*
G37*
G36*
X209998Y262886D02*
X208374D01*
Y261262D01*
X208725Y261331D01*
X209447Y261813D01*
X209929Y262535D01*
X209998Y262886D01*
D02*
G37*
G36*
X207374D02*
X205750D01*
X205820Y262535D01*
X206301Y261813D01*
X207023Y261331D01*
X207374Y261262D01*
Y262886D01*
D02*
G37*
G36*
X78453Y267085D02*
Y265461D01*
X80077D01*
X80007Y265812D01*
X79525Y266533D01*
X78804Y267015D01*
X78453Y267085D01*
D02*
G37*
G36*
X332833Y270366D02*
X331209D01*
Y268742D01*
X331560Y268812D01*
X332281Y269294D01*
X332763Y270015D01*
X332833Y270366D01*
D02*
G37*
G36*
X330209D02*
X328584D01*
X328654Y270015D01*
X329136Y269294D01*
X329858Y268812D01*
X330209Y268742D01*
Y270366D01*
D02*
G37*
G36*
X208161Y272597D02*
X207810Y272527D01*
X207089Y272045D01*
X206607Y271323D01*
X206537Y270972D01*
X208161D01*
Y272597D01*
D02*
G37*
G36*
X220760D02*
X220409Y272527D01*
X219687Y272045D01*
X219205Y271323D01*
X219135Y270972D01*
X220760D01*
Y272597D01*
D02*
G37*
G36*
X209161D02*
Y270972D01*
X210786D01*
X210716Y271323D01*
X210234Y272045D01*
X209512Y272527D01*
X209161Y272597D01*
D02*
G37*
G36*
X208161Y269972D02*
X206537D01*
X206607Y269621D01*
X207089Y268900D01*
X207810Y268418D01*
X208161Y268348D01*
Y269972D01*
D02*
G37*
G36*
X289370Y270909D02*
X271654D01*
X271185Y270815D01*
X270788Y270550D01*
X267210Y266971D01*
X265267D01*
Y267826D01*
X260324D01*
Y263670D01*
X265267D01*
Y264525D01*
X267717D01*
X268061Y264593D01*
X268343Y264168D01*
X265241Y261066D01*
X260349D01*
X258245Y263170D01*
X258432Y263670D01*
X259361D01*
Y267826D01*
X254418D01*
Y263670D01*
X255666D01*
Y262795D01*
X255759Y262327D01*
X256025Y261930D01*
X258977Y258977D01*
X259374Y258712D01*
X259842Y258619D01*
X265748D01*
X266216Y258712D01*
X266613Y258977D01*
X273145Y265509D01*
X287879D01*
X301064Y252324D01*
X301461Y252059D01*
X301859Y251979D01*
Y251308D01*
X311133D01*
Y255070D01*
X301859D01*
X301859Y255070D01*
Y255070D01*
X301493Y255356D01*
X300240Y256609D01*
X300521Y257034D01*
X300866Y256965D01*
X301859D01*
Y256308D01*
X311133D01*
Y260070D01*
X301859D01*
Y259446D01*
X301359Y259426D01*
X290235Y270550D01*
X289838Y270815D01*
X289370Y270909D01*
D02*
G37*
G36*
X210786Y269972D02*
X209161D01*
Y268348D01*
X209512Y268418D01*
X210234Y268900D01*
X210716Y269621D01*
X210786Y269972D01*
D02*
G37*
G36*
X223384D02*
X221760D01*
Y268348D01*
X222111Y268418D01*
X222832Y268900D01*
X223314Y269621D01*
X223384Y269972D01*
D02*
G37*
G36*
X220760D02*
X219135D01*
X219205Y269621D01*
X219687Y268900D01*
X220409Y268418D01*
X220760Y268348D01*
Y269972D01*
D02*
G37*
G36*
X178634Y271941D02*
X157150D01*
Y253941D01*
X178634D01*
Y271941D01*
D02*
G37*
G36*
X241626Y238992D02*
X239748D01*
Y236720D01*
X241626D01*
Y238992D01*
D02*
G37*
G36*
X190445D02*
X188567D01*
Y236720D01*
X190445D01*
Y238992D01*
D02*
G37*
G36*
X216036D02*
X214158D01*
Y236720D01*
X216036D01*
Y238992D01*
D02*
G37*
G36*
X311133Y245070D02*
X301859D01*
Y241308D01*
X311133D01*
Y245070D01*
D02*
G37*
G36*
X253456Y267826D02*
X248513D01*
Y263670D01*
X249761D01*
Y251491D01*
X242867Y244598D01*
X240048D01*
Y239654D01*
X244204D01*
Y242474D01*
X251850Y250119D01*
X252115Y250516D01*
X252208Y250984D01*
Y263670D01*
X253456D01*
Y267826D01*
D02*
G37*
G36*
X348141Y240070D02*
X338867D01*
Y236308D01*
X348141D01*
Y240070D01*
D02*
G37*
G36*
X311133D02*
X301859D01*
Y236308D01*
X311133D01*
Y240070D01*
D02*
G37*
G36*
X265642Y238345D02*
X265291Y238275D01*
X264569Y237793D01*
X264087Y237071D01*
X264017Y236720D01*
X265642D01*
Y238345D01*
D02*
G37*
G36*
X164854Y238992D02*
X162976D01*
Y236720D01*
X164854D01*
Y238992D01*
D02*
G37*
G36*
X266642Y238345D02*
Y236720D01*
X268266D01*
X268196Y237071D01*
X267714Y237793D01*
X266993Y238275D01*
X266642Y238345D01*
D02*
G37*
G36*
X348141Y245070D02*
X338867D01*
Y241308D01*
X348141D01*
Y245070D01*
D02*
G37*
G36*
X61433Y257707D02*
X54634D01*
Y253754D01*
Y249801D01*
X61433D01*
Y251409D01*
X64777D01*
X65675Y251587D01*
X66436Y252096D01*
X66619Y252279D01*
X67127Y253040D01*
X67306Y253937D01*
X67127Y254834D01*
X66619Y255595D01*
X65858Y256104D01*
X64961Y256282D01*
X64063Y256104D01*
X64056Y256099D01*
X61433D01*
Y257707D01*
D02*
G37*
G36*
X53634Y253254D02*
X46835D01*
Y249801D01*
X53634D01*
Y253254D01*
D02*
G37*
G36*
X98425Y259235D02*
X97528Y259056D01*
X96767Y258548D01*
X96259Y257787D01*
X96183Y257407D01*
X82568D01*
Y250101D01*
X96566D01*
Y251409D01*
X98242D01*
X99139Y251587D01*
X99900Y252096D01*
X100083Y252279D01*
X100592Y253040D01*
X100770Y253937D01*
X100770Y253937D01*
Y256890D01*
X100592Y257787D01*
X100083Y258548D01*
X99323Y259056D01*
X98425Y259235D01*
D02*
G37*
G36*
X360736Y252518D02*
Y250894D01*
X362361D01*
X362291Y251245D01*
X361809Y251966D01*
X361087Y252448D01*
X360736Y252518D01*
D02*
G37*
G36*
X359736D02*
X359385Y252448D01*
X358664Y251966D01*
X358182Y251245D01*
X358112Y250894D01*
X359736D01*
Y252518D01*
D02*
G37*
G36*
X311133Y250070D02*
X301859D01*
Y246308D01*
X311133D01*
Y250070D01*
D02*
G37*
G36*
X128937Y259235D02*
X125984D01*
X125087Y259056D01*
X124326Y258548D01*
X123818Y257787D01*
X123639Y256890D01*
X123818Y255992D01*
X124326Y255232D01*
X124655Y254902D01*
X124464Y254440D01*
X121938D01*
Y243198D01*
X135936D01*
Y254440D01*
X131182D01*
X131104Y254834D01*
X130717Y255413D01*
X131104Y255992D01*
X131282Y256890D01*
X131104Y257787D01*
X130595Y258548D01*
X129834Y259056D01*
X128937Y259235D01*
D02*
G37*
G36*
X348141Y250070D02*
X338867D01*
Y246308D01*
X348141D01*
Y250070D01*
D02*
G37*
G36*
X362361Y249894D02*
X360736D01*
Y248269D01*
X361087Y248339D01*
X361809Y248821D01*
X362291Y249543D01*
X362361Y249894D01*
D02*
G37*
G36*
X359736D02*
X358112D01*
X358182Y249543D01*
X358664Y248821D01*
X359385Y248339D01*
X359736Y248269D01*
Y249894D01*
D02*
G37*
G36*
X62417Y300259D02*
X55618D01*
Y296306D01*
Y292353D01*
X62417D01*
Y293961D01*
X65712D01*
X65945Y293915D01*
X66842Y294093D01*
X67603Y294602D01*
X68111Y295362D01*
X68290Y296260D01*
X68111Y297157D01*
X67603Y297918D01*
X67557Y297964D01*
X66796Y298473D01*
X65899Y298651D01*
X62417D01*
Y300259D01*
D02*
G37*
G36*
X54618Y295806D02*
X47819D01*
Y292353D01*
X54618D01*
Y295806D01*
D02*
G37*
G36*
X353831Y299950D02*
X353145Y299859D01*
X352040Y299402D01*
X351090Y298673D01*
X350362Y297724D01*
X349904Y296619D01*
X349814Y295933D01*
X353831D01*
Y299950D01*
D02*
G37*
G36*
X54618Y300259D02*
X47819D01*
Y296806D01*
X54618D01*
Y300259D01*
D02*
G37*
G36*
X354831Y299950D02*
Y295933D01*
X358847D01*
X358757Y296619D01*
X358299Y297724D01*
X357571Y298673D01*
X356622Y299402D01*
X355517Y299859D01*
X354831Y299950D01*
D02*
G37*
G36*
X353831Y294933D02*
X349814D01*
X349904Y294247D01*
X350362Y293142D01*
X351090Y292193D01*
X352040Y291464D01*
X353145Y291007D01*
X353831Y290916D01*
Y294933D01*
D02*
G37*
G36*
X235646Y295760D02*
X233268D01*
X230890D01*
Y293626D01*
X230890Y293488D01*
X230890Y293488D01*
Y293126D01*
X230890D01*
X230890Y292988D01*
Y290854D01*
X233268D01*
X235646D01*
Y292988D01*
X235646Y293126D01*
X235646Y293126D01*
Y293488D01*
X235646D01*
X235646Y293626D01*
Y295760D01*
D02*
G37*
G36*
X358847Y294933D02*
X354831D01*
Y290916D01*
X355517Y291007D01*
X356622Y291464D01*
X357571Y292193D01*
X358299Y293142D01*
X358757Y294247D01*
X358847Y294933D01*
D02*
G37*
G36*
X74122Y293069D02*
Y291445D01*
X75746D01*
X75677Y291796D01*
X75195Y292517D01*
X74473Y292999D01*
X74122Y293069D01*
D02*
G37*
G36*
X73122D02*
X72771Y292999D01*
X72050Y292517D01*
X71567Y291796D01*
X71498Y291445D01*
X73122D01*
Y293069D01*
D02*
G37*
G36*
X313795Y299106D02*
X311524D01*
Y297031D01*
X313795D01*
Y299106D01*
D02*
G37*
G36*
X213280Y305799D02*
X211655D01*
X211725Y305448D01*
X212207Y304727D01*
X212929Y304245D01*
X213280Y304175D01*
Y305799D01*
D02*
G37*
G36*
X175237Y321763D02*
X169629D01*
Y306583D01*
X169686D01*
X169893Y306083D01*
X169602Y305792D01*
X169093Y305031D01*
X168915Y304134D01*
X169093Y303237D01*
X169602Y302476D01*
X170362Y301967D01*
X171260Y301789D01*
X172157Y301967D01*
X172918Y302476D01*
X174091Y303649D01*
X174600Y304410D01*
X174778Y305307D01*
Y306583D01*
X175237D01*
Y321763D01*
D02*
G37*
G36*
X215904Y305799D02*
X214280D01*
Y304175D01*
X214631Y304245D01*
X215352Y304727D01*
X215834Y305448D01*
X215904Y305799D01*
D02*
G37*
G36*
X165232Y313673D02*
X162628D01*
Y306283D01*
X165232D01*
Y313673D01*
D02*
G37*
G36*
X297244Y322227D02*
X296347Y322048D01*
X295586Y321540D01*
X295242Y321196D01*
X294734Y320435D01*
X294555Y319538D01*
Y315415D01*
Y309018D01*
X294455Y308515D01*
X294634Y307618D01*
X294722Y307485D01*
Y306043D01*
X298878D01*
Y307435D01*
X299067Y307718D01*
X299245Y308615D01*
Y315415D01*
Y318737D01*
X299411Y318985D01*
X299589Y319882D01*
X299411Y320779D01*
X298902Y321540D01*
X298142Y322048D01*
X297244Y322227D01*
D02*
G37*
G36*
X282281Y301306D02*
Y297329D01*
X283503D01*
Y299684D01*
X283372Y300343D01*
X282999Y300901D01*
X282440Y301274D01*
X282281Y301306D01*
D02*
G37*
G36*
X305602Y298713D02*
X303978D01*
X304048Y298362D01*
X304530Y297640D01*
X305251Y297158D01*
X305602Y297088D01*
Y298713D01*
D02*
G37*
G36*
Y301337D02*
X305251Y301267D01*
X304530Y300785D01*
X304048Y300064D01*
X303978Y299713D01*
X305602D01*
Y301337D01*
D02*
G37*
G36*
X310524Y302181D02*
X308252D01*
Y300830D01*
X307608D01*
X306953Y301267D01*
X306602Y301337D01*
Y299213D01*
Y297088D01*
X306953Y297158D01*
X307675Y297640D01*
X307752Y297756D01*
X308252Y297604D01*
Y297031D01*
X310524D01*
Y299606D01*
Y302181D01*
D02*
G37*
G36*
X313795D02*
X311524D01*
Y300106D01*
X313795D01*
Y302181D01*
D02*
G37*
G36*
X75746Y290445D02*
X74122D01*
Y288821D01*
X74473Y288890D01*
X75195Y289372D01*
X75677Y290094D01*
X75746Y290445D01*
D02*
G37*
G36*
X111967Y274697D02*
X110343D01*
Y273073D01*
X110694Y273142D01*
X111415Y273624D01*
X111897Y274346D01*
X111967Y274697D01*
D02*
G37*
G36*
X109343D02*
X107718D01*
X107788Y274346D01*
X108270Y273624D01*
X108992Y273142D01*
X109343Y273073D01*
Y274697D01*
D02*
G37*
G36*
Y277321D02*
X108992Y277251D01*
X108270Y276769D01*
X107788Y276048D01*
X107718Y275697D01*
X109343D01*
Y277321D01*
D02*
G37*
G36*
X235346Y286920D02*
X231190D01*
Y285479D01*
X231101Y285346D01*
X230923Y284449D01*
Y283452D01*
X229641Y282170D01*
X229133Y281409D01*
X228954Y280512D01*
X229133Y279614D01*
X229641Y278854D01*
X230402Y278345D01*
X231299Y278167D01*
X232197Y278345D01*
X232957Y278854D01*
X234926Y280822D01*
X235434Y281583D01*
X235613Y282480D01*
X235613Y282480D01*
Y284449D01*
X235434Y285346D01*
X235346Y285479D01*
Y286920D01*
D02*
G37*
G36*
X110343Y277321D02*
Y275697D01*
X111967D01*
X111897Y276048D01*
X111415Y276769D01*
X110694Y277251D01*
X110343Y277321D01*
D02*
G37*
G36*
X330209Y272990D02*
X329858Y272921D01*
X329136Y272439D01*
X328654Y271717D01*
X328584Y271366D01*
X330209D01*
Y272990D01*
D02*
G37*
G36*
X221760Y272597D02*
Y270972D01*
X223384D01*
X223314Y271323D01*
X222832Y272045D01*
X222111Y272527D01*
X221760Y272597D01*
D02*
G37*
G36*
X331209Y272990D02*
Y271366D01*
X332833D01*
X332763Y271717D01*
X332281Y272439D01*
X331560Y272921D01*
X331209Y272990D01*
D02*
G37*
G36*
X194882Y299209D02*
X191929D01*
X190911Y299075D01*
X189962Y298682D01*
X189148Y298057D01*
X186195Y295104D01*
X185570Y294290D01*
X185177Y293341D01*
X185043Y292323D01*
Y290941D01*
X179634D01*
Y272941D01*
X201118D01*
Y290941D01*
X195667D01*
X195634Y291441D01*
X195900Y291476D01*
X196849Y291869D01*
X197663Y292494D01*
X198289Y293309D01*
X198681Y294257D01*
X198816Y295276D01*
X198681Y296294D01*
X198289Y297242D01*
X197663Y298057D01*
X196849Y298682D01*
X195900Y299075D01*
X194882Y299209D01*
D02*
G37*
G36*
X178634Y290941D02*
X157150D01*
Y272941D01*
X178634D01*
Y290941D01*
D02*
G37*
G36*
X294382Y280996D02*
X292758D01*
X292827Y280645D01*
X293309Y279924D01*
X294031Y279441D01*
X294382Y279372D01*
Y280996D01*
D02*
G37*
G36*
X327173Y291882D02*
Y288189D01*
X326173D01*
Y291882D01*
X325937Y291835D01*
X325314Y291419D01*
X325196Y291243D01*
X324733Y291553D01*
X324114Y291676D01*
X323496Y291553D01*
X323198Y291354D01*
X322835Y291244D01*
X322471Y291354D01*
X322174Y291553D01*
X321555Y291676D01*
X320936Y291553D01*
X320412Y291202D01*
X320139D01*
X319615Y291553D01*
X318996Y291676D01*
X318377Y291553D01*
X317853Y291202D01*
X317502Y290678D01*
X317379Y290059D01*
Y286319D01*
X317502Y285700D01*
X317853Y285176D01*
X318377Y284825D01*
X318996Y284702D01*
X319415Y284785D01*
X319894Y284538D01*
X319969Y284460D01*
X319990Y284318D01*
X318721Y283050D01*
X318611Y282885D01*
X317509D01*
Y278139D01*
X321665D01*
X321665Y278139D01*
X322036D01*
Y278139D01*
X322165Y278139D01*
X326192D01*
Y282241D01*
X350087D01*
Y281190D01*
X358574D01*
Y289676D01*
X350087D01*
Y284688D01*
X330126D01*
X330073Y284737D01*
X330229Y285278D01*
X330575Y285347D01*
X331297Y285829D01*
X331779Y286551D01*
X331849Y286902D01*
X329724D01*
Y287402D01*
X329224D01*
Y289526D01*
X329096Y289500D01*
X328650Y289791D01*
X328596Y289872D01*
Y290059D01*
X328450Y290795D01*
X328033Y291419D01*
X327409Y291835D01*
X327173Y291882D01*
D02*
G37*
G36*
X330224Y289526D02*
Y287902D01*
X331849D01*
X331779Y288253D01*
X331297Y288974D01*
X330575Y289456D01*
X330224Y289526D01*
D02*
G37*
G36*
X280996Y289854D02*
X279372D01*
X279441Y289503D01*
X279924Y288782D01*
X280645Y288300D01*
X280996Y288230D01*
Y289854D01*
D02*
G37*
G36*
X73122Y290445D02*
X71498D01*
X71567Y290094D01*
X72050Y289372D01*
X72771Y288890D01*
X73122Y288821D01*
Y290445D01*
D02*
G37*
G36*
X283620Y289854D02*
X281996D01*
Y288230D01*
X282347Y288300D01*
X283069Y288782D01*
X283551Y289503D01*
X283620Y289854D01*
D02*
G37*
G36*
X294382Y283620D02*
X294031Y283551D01*
X293309Y283069D01*
X292827Y282347D01*
X292758Y281996D01*
X294382D01*
Y283620D01*
D02*
G37*
G36*
X297006Y280996D02*
X295382D01*
Y279372D01*
X295733Y279441D01*
X296454Y279924D01*
X296936Y280645D01*
X297006Y280996D01*
D02*
G37*
G36*
X295382Y283620D02*
Y281996D01*
X297006D01*
X296936Y282347D01*
X296454Y283069D01*
X295733Y283551D01*
X295382Y283620D01*
D02*
G37*
G36*
X235646Y289854D02*
X233768D01*
Y287583D01*
X235646D01*
Y289854D01*
D02*
G37*
G36*
X232768D02*
X230890D01*
Y287583D01*
X232768D01*
Y289854D01*
D02*
G37*
G36*
X293020Y236770D02*
Y235146D01*
X294644D01*
X294574Y235497D01*
X294092Y236218D01*
X293371Y236700D01*
X293020Y236770D01*
D02*
G37*
G36*
X311311Y210786D02*
X310960Y210716D01*
X310239Y210234D01*
X309756Y209512D01*
X309687Y209161D01*
X311311D01*
Y210786D01*
D02*
G37*
G36*
X264329Y210524D02*
X262705D01*
Y208899D01*
X263056Y208969D01*
X263777Y209451D01*
X264259Y210173D01*
X264329Y210524D01*
D02*
G37*
G36*
X312311Y210786D02*
Y209161D01*
X313935D01*
X313866Y209512D01*
X313384Y210234D01*
X312662Y210716D01*
X312311Y210786D01*
D02*
G37*
G36*
X68004Y213148D02*
X67653Y213078D01*
X66931Y212596D01*
X66449Y211875D01*
X66380Y211524D01*
X68004D01*
Y213148D01*
D02*
G37*
G36*
X343504Y220534D02*
X342606Y220356D01*
X342179Y220070D01*
X338867D01*
Y216308D01*
X340175D01*
Y213583D01*
X340353Y212685D01*
X340862Y211925D01*
X341622Y211416D01*
X342520Y211238D01*
X343417Y211416D01*
X344178Y211925D01*
X344686Y212685D01*
X344865Y213583D01*
Y216233D01*
X344939Y216308D01*
X348141D01*
Y220070D01*
X344829D01*
X344401Y220356D01*
X343504Y220534D01*
D02*
G37*
G36*
X253902Y209558D02*
X249667D01*
Y207660D01*
X248902D01*
Y209558D01*
X244667D01*
Y207660D01*
X243902D01*
Y209558D01*
X239667D01*
Y207660D01*
X238902D01*
Y209558D01*
X234667D01*
Y206286D01*
X234618Y206212D01*
X234439Y205315D01*
Y203307D01*
X202769Y171636D01*
X200951D01*
X200428Y172318D01*
X199541Y172998D01*
X198509Y173425D01*
X197402Y173571D01*
X196294Y173425D01*
X195262Y172998D01*
X194375Y172318D01*
X193695Y171431D01*
X193268Y170399D01*
X193122Y169291D01*
X193268Y168184D01*
X193695Y167151D01*
X194375Y166265D01*
X195262Y165585D01*
X196294Y165157D01*
X197402Y165011D01*
X198509Y165157D01*
X199541Y165585D01*
X200428Y166265D01*
X200951Y166946D01*
X203740D01*
X204638Y167125D01*
X205398Y167633D01*
X238442Y200677D01*
X238442Y200677D01*
X238706Y201072D01*
X238902D01*
Y201364D01*
X238951Y201438D01*
X239129Y202335D01*
Y202970D01*
X239667D01*
Y201072D01*
X243902D01*
Y202970D01*
X244667D01*
Y201072D01*
X248902D01*
Y202970D01*
X249667D01*
Y201072D01*
X253902D01*
Y204344D01*
X253951Y204417D01*
X254129Y205315D01*
X253951Y206212D01*
X253902Y206286D01*
Y209558D01*
D02*
G37*
G36*
X227920D02*
X223685D01*
Y207660D01*
X222920D01*
Y209558D01*
X218685D01*
Y207660D01*
X217920D01*
Y209558D01*
X213685D01*
Y207660D01*
X212920D01*
Y209558D01*
X208685D01*
Y206372D01*
X208463Y206040D01*
X208285Y205142D01*
Y203727D01*
X195879Y191321D01*
X187992D01*
X187095Y191143D01*
X186334Y190635D01*
X168072Y172373D01*
X167258Y172998D01*
X166226Y173425D01*
X165118Y173571D01*
X164010Y173425D01*
X162978Y172998D01*
X162092Y172318D01*
X161412Y171431D01*
X160984Y170399D01*
X160838Y169291D01*
X160984Y168184D01*
X161412Y167151D01*
X162092Y166265D01*
X162978Y165585D01*
X164010Y165157D01*
X165118Y165011D01*
X166226Y165157D01*
X167258Y165585D01*
X168145Y166265D01*
X168732Y167031D01*
X169204Y167125D01*
X169965Y167633D01*
X188963Y186631D01*
X196850D01*
X197748Y186810D01*
X198509Y187318D01*
X212262Y201072D01*
X212920D01*
Y202478D01*
X212975Y202756D01*
Y202970D01*
X213685D01*
Y201072D01*
X217920D01*
Y202970D01*
X218685D01*
Y201072D01*
X222920D01*
Y202970D01*
X223685D01*
Y201072D01*
X227920D01*
Y204344D01*
X227969Y204417D01*
X228147Y205315D01*
X227969Y206212D01*
X227920Y206286D01*
Y209558D01*
D02*
G37*
G36*
X68004Y210524D02*
X66380D01*
X66449Y210173D01*
X66931Y209451D01*
X67653Y208969D01*
X68004Y208899D01*
Y210524D01*
D02*
G37*
G36*
X261705D02*
X260080D01*
X260150Y210173D01*
X260632Y209451D01*
X261354Y208969D01*
X261705Y208899D01*
Y210524D01*
D02*
G37*
G36*
X70628D02*
X69004D01*
Y208899D01*
X69355Y208969D01*
X70076Y209451D01*
X70559Y210173D01*
X70628Y210524D01*
D02*
G37*
G36*
X69004Y213148D02*
Y211524D01*
X70628D01*
X70559Y211875D01*
X70076Y212596D01*
X69355Y213078D01*
X69004Y213148D01*
D02*
G37*
G36*
X305996Y220370D02*
X301559D01*
Y218689D01*
X305996D01*
Y220370D01*
D02*
G37*
G36*
X315117Y218004D02*
X313492D01*
Y216380D01*
X313843Y216449D01*
X314565Y216931D01*
X315047Y217653D01*
X315117Y218004D01*
D02*
G37*
G36*
X313492Y220628D02*
Y219004D01*
X315117D01*
X315047Y219355D01*
X314565Y220076D01*
X313843Y220559D01*
X313492Y220628D01*
D02*
G37*
G36*
X187117Y244598D02*
X182961D01*
Y239654D01*
X183816D01*
Y238692D01*
X182961D01*
Y233749D01*
X183816D01*
Y229243D01*
X182703D01*
Y220757D01*
X186903D01*
X186938Y220757D01*
X187403Y220673D01*
Y220457D01*
X187475D01*
Y218644D01*
X187654Y217747D01*
X188162Y216986D01*
X189287Y215862D01*
X190048Y215353D01*
X190945Y215175D01*
X191842Y215353D01*
X192603Y215862D01*
X193111Y216622D01*
X193290Y217520D01*
X193111Y218417D01*
X192603Y219178D01*
X192166Y219615D01*
Y220055D01*
X192403Y220457D01*
X192738Y220457D01*
X194320D01*
Y225000D01*
Y229543D01*
X192738D01*
X192403Y229543D01*
X191903Y229543D01*
X190321D01*
Y225000D01*
X189321D01*
Y229543D01*
X187403D01*
Y229327D01*
X186938Y229243D01*
X186903Y229243D01*
X186263D01*
Y233749D01*
X187117D01*
Y238692D01*
X186263D01*
Y239654D01*
X187117D01*
Y244598D01*
D02*
G37*
G36*
X175197Y233644D02*
X174299Y233466D01*
X173539Y232957D01*
X172180Y231599D01*
X171672Y230838D01*
X171493Y229941D01*
X171256Y229543D01*
X169339D01*
Y225000D01*
Y220457D01*
X171256D01*
Y220457D01*
X171421D01*
Y220457D01*
X173339D01*
Y225000D01*
X173839D01*
Y225500D01*
X176256D01*
Y229042D01*
X176855Y229641D01*
X177363Y230402D01*
X177542Y231299D01*
X177363Y232197D01*
X176855Y232957D01*
X176094Y233466D01*
X175197Y233644D01*
D02*
G37*
G36*
X262705Y213148D02*
Y211524D01*
X264329D01*
X264259Y211875D01*
X263777Y212596D01*
X263056Y213078D01*
X262705Y213148D01*
D02*
G37*
G36*
X261705D02*
X261354Y213078D01*
X260632Y212596D01*
X260150Y211875D01*
X260080Y211524D01*
X261705D01*
Y213148D01*
D02*
G37*
G36*
X161527Y244598D02*
X157371D01*
Y239654D01*
X158225D01*
Y238692D01*
X157371D01*
Y233749D01*
X157615D01*
Y229243D01*
X156721D01*
Y220757D01*
X160921D01*
X160956Y220757D01*
X161421Y220673D01*
Y220457D01*
X161494D01*
Y220020D01*
X161672Y219122D01*
X162180Y218361D01*
X164680Y215862D01*
X165441Y215353D01*
X166339Y215175D01*
X167236Y215353D01*
X167997Y215862D01*
X168505Y216622D01*
X168684Y217520D01*
X168505Y218417D01*
X167997Y219178D01*
X167180Y219995D01*
X167371Y220457D01*
X168339D01*
Y225000D01*
Y229543D01*
X166421D01*
Y229543D01*
X166256D01*
Y229543D01*
X164339D01*
Y225000D01*
X163339D01*
Y229543D01*
X161421D01*
Y229327D01*
X160956Y229243D01*
X160921Y229243D01*
X160062D01*
Y233749D01*
X161527D01*
Y238692D01*
X160672D01*
Y239654D01*
X161527D01*
Y244598D01*
D02*
G37*
G36*
X312492Y220628D02*
X312141Y220559D01*
X311917Y220409D01*
X311433Y220370D01*
Y220370D01*
X306996D01*
Y218189D01*
Y216008D01*
X311433D01*
Y216252D01*
X312492D01*
Y218504D01*
Y220628D01*
D02*
G37*
G36*
X305996Y217689D02*
X301559D01*
Y216008D01*
X305996D01*
Y217689D01*
D02*
G37*
G36*
X201938Y209558D02*
X197703D01*
Y207660D01*
X196938D01*
Y209558D01*
X192703D01*
Y207660D01*
X191938D01*
Y209558D01*
X187703D01*
Y207660D01*
X186938D01*
Y209558D01*
X182703D01*
Y206514D01*
X165542Y189353D01*
X144685D01*
X143788Y189174D01*
X143027Y188666D01*
X143027Y188666D01*
X129934Y175573D01*
X108255D01*
X99099Y184729D01*
X98338Y185237D01*
X97441Y185416D01*
X91148D01*
X90625Y186097D01*
X89738Y186777D01*
X88706Y187205D01*
X87598Y187351D01*
X86491Y187205D01*
X85458Y186777D01*
X84572Y186097D01*
X83892Y185211D01*
X83464Y184179D01*
X83319Y183071D01*
X83464Y181963D01*
X83892Y180931D01*
X84572Y180044D01*
X85458Y179364D01*
X86491Y178937D01*
X87598Y178791D01*
X88706Y178937D01*
X89738Y179364D01*
X90625Y180044D01*
X91148Y180726D01*
X96470D01*
X105625Y171570D01*
X105625Y171570D01*
X106386Y171062D01*
X107283Y170883D01*
X107283Y170883D01*
X130905D01*
X131803Y171062D01*
X132564Y171570D01*
X145656Y184663D01*
X166514D01*
X167411Y184841D01*
X168172Y185350D01*
X183894Y201072D01*
X186938D01*
Y202970D01*
X187703D01*
Y201072D01*
X191938D01*
Y202970D01*
X192703D01*
Y201072D01*
X196938D01*
Y202970D01*
X197703D01*
Y201072D01*
X201938D01*
Y204344D01*
X201987Y204417D01*
X202166Y205315D01*
X201987Y206212D01*
X201938Y206286D01*
Y209558D01*
D02*
G37*
G36*
X105799Y166298D02*
X105448Y166228D01*
X104727Y165746D01*
X104245Y165024D01*
X104175Y164673D01*
X105799D01*
Y166298D01*
D02*
G37*
G36*
X126484Y165117D02*
Y163492D01*
X128109D01*
X128039Y163843D01*
X127557Y164565D01*
X126835Y165047D01*
X126484Y165117D01*
D02*
G37*
G36*
X106799Y166298D02*
Y164673D01*
X108424D01*
X108354Y165024D01*
X107872Y165746D01*
X107150Y166228D01*
X106799Y166298D01*
D02*
G37*
G36*
X159361Y173535D02*
X150875D01*
Y165048D01*
X159361D01*
Y173535D01*
D02*
G37*
G36*
X191645Y173535D02*
X183158D01*
Y165048D01*
X191645D01*
Y173535D01*
D02*
G37*
G36*
X128109Y162492D02*
X126484D01*
Y160868D01*
X126835Y160938D01*
X127557Y161420D01*
X128039Y162141D01*
X128109Y162492D01*
D02*
G37*
G36*
X125484D02*
X123860D01*
X123930Y162141D01*
X124412Y161420D01*
X125133Y160938D01*
X125484Y160868D01*
Y162492D01*
D02*
G37*
G36*
X105799Y163673D02*
X104175D01*
X104245Y163322D01*
X104727Y162601D01*
X105448Y162119D01*
X105799Y162049D01*
Y163673D01*
D02*
G37*
G36*
X125484Y165117D02*
X125133Y165047D01*
X124412Y164565D01*
X123930Y163843D01*
X123860Y163492D01*
X125484D01*
Y165117D01*
D02*
G37*
G36*
X108424Y163673D02*
X106799D01*
Y162049D01*
X107150Y162119D01*
X107872Y162601D01*
X108354Y163322D01*
X108424Y163673D01*
D02*
G37*
G36*
X223653Y173535D02*
X215166D01*
Y165048D01*
X223653D01*
Y173535D01*
D02*
G37*
G36*
X284200Y261314D02*
X278200D01*
X278131Y261300D01*
X277500D01*
Y260669D01*
X277486Y260600D01*
Y189600D01*
X277500Y189531D01*
Y188900D01*
X278131D01*
X278200Y188886D01*
X284200D01*
X284269Y188900D01*
X284900D01*
Y189531D01*
X284914Y189600D01*
Y260600D01*
X284900Y260669D01*
Y261300D01*
X284269D01*
X284200Y261314D01*
D02*
G37*
G36*
X343504Y260534D02*
X332992D01*
X332095Y260355D01*
X331334Y259847D01*
X327082Y255595D01*
X326574Y254834D01*
X326395Y253937D01*
Y209633D01*
X300210Y183447D01*
X236221D01*
X236221Y183447D01*
X235323Y183269D01*
X234562Y182761D01*
X227751Y175950D01*
X227243Y175189D01*
X227064Y174291D01*
Y172840D01*
X226383Y172318D01*
X225703Y171431D01*
X225275Y170399D01*
X225130Y169291D01*
X225275Y168184D01*
X225703Y167151D01*
X226383Y166265D01*
X227270Y165585D01*
X228302Y165157D01*
X229410Y165011D01*
X230517Y165157D01*
X231549Y165585D01*
X232436Y166265D01*
X233116Y167151D01*
X233543Y168184D01*
X233689Y169291D01*
X233543Y170399D01*
X233116Y171431D01*
X232436Y172318D01*
X231754Y172840D01*
Y173320D01*
X237192Y178757D01*
X301181D01*
X301832Y178887D01*
X302078Y178426D01*
X301194Y177542D01*
X266890D01*
X265992Y177363D01*
X265232Y176855D01*
X261836Y173459D01*
X260984Y173571D01*
X259877Y173425D01*
X258844Y172998D01*
X257958Y172318D01*
X257278Y171431D01*
X256850Y170399D01*
X256704Y169291D01*
X256850Y168184D01*
X257278Y167151D01*
X257958Y166265D01*
X258844Y165585D01*
X259877Y165157D01*
X260984Y165011D01*
X262092Y165157D01*
X263124Y165585D01*
X264011Y166265D01*
X264691Y167151D01*
X265118Y168184D01*
X265264Y169291D01*
X265152Y170143D01*
X267861Y172852D01*
X302165D01*
X303063Y173030D01*
X303824Y173539D01*
X336304Y206019D01*
X336812Y206780D01*
X336991Y207677D01*
Y250013D01*
X337822Y250844D01*
X343504D01*
X344401Y251022D01*
X344829Y251308D01*
X348141D01*
Y255070D01*
X344829D01*
X344401Y255356D01*
X344006Y255434D01*
Y255944D01*
X344401Y256022D01*
X344829Y256308D01*
X348141D01*
Y260070D01*
X344829D01*
X344401Y260355D01*
X343504Y260534D01*
D02*
G37*
G36*
X143701Y218881D02*
X94488D01*
X93591Y218702D01*
X92830Y218194D01*
X92830Y218194D01*
X61875Y187239D01*
X61024Y187351D01*
X59916Y187205D01*
X58884Y186777D01*
X57997Y186097D01*
X57317Y185211D01*
X56889Y184179D01*
X56744Y183071D01*
X56889Y181963D01*
X57317Y180931D01*
X57997Y180044D01*
X58884Y179364D01*
X59916Y178937D01*
X61024Y178791D01*
X62131Y178937D01*
X63164Y179364D01*
X64050Y180044D01*
X64730Y180931D01*
X65158Y181963D01*
X65303Y183071D01*
X65191Y183922D01*
X95460Y214190D01*
X142729D01*
X153263Y203657D01*
X154024Y203148D01*
X154921Y202970D01*
X156721D01*
Y201072D01*
X160956D01*
Y202970D01*
X161721D01*
Y201072D01*
X165956D01*
Y202970D01*
X166721D01*
Y201072D01*
X170956D01*
Y202970D01*
X171721D01*
Y201072D01*
X175956D01*
Y204344D01*
X176005Y204417D01*
X176184Y205315D01*
X176005Y206212D01*
X175956Y206286D01*
Y209558D01*
X171721D01*
Y207660D01*
X170956D01*
Y209558D01*
X166721D01*
Y207660D01*
X165956D01*
Y209558D01*
X161721D01*
Y207660D01*
X160956D01*
Y209558D01*
X156721D01*
Y207660D01*
X155893D01*
X145359Y218194D01*
X144598Y218702D01*
X143701Y218881D01*
D02*
G37*
G36*
X313935Y208161D02*
X312311D01*
Y206537D01*
X312662Y206607D01*
X313384Y207089D01*
X313866Y207810D01*
X313935Y208161D01*
D02*
G37*
G36*
X311311D02*
X309687D01*
X309756Y207810D01*
X310239Y207089D01*
X310960Y206607D01*
X311311Y206537D01*
Y208161D01*
D02*
G37*
G36*
X65267Y177314D02*
X56780D01*
Y168828D01*
X65267D01*
Y177314D01*
D02*
G37*
G36*
X255228Y173535D02*
X246741D01*
Y165048D01*
X255228D01*
Y173535D01*
D02*
G37*
G36*
X91842Y177314D02*
X83355D01*
Y168828D01*
X91842D01*
Y177314D01*
D02*
G37*
G36*
X350906Y206991D02*
X348942Y206836D01*
X347027Y206377D01*
X345208Y205623D01*
X343529Y204594D01*
X342032Y203315D01*
X340753Y201817D01*
X339724Y200138D01*
X338970Y198319D01*
X338510Y196404D01*
X338356Y194441D01*
X338510Y192478D01*
X338970Y190563D01*
X339724Y188744D01*
X340753Y187065D01*
X342032Y185567D01*
X343529Y184288D01*
X345208Y183259D01*
X347027Y182506D01*
X348942Y182046D01*
X350906Y181891D01*
X352869Y182046D01*
X354784Y182506D01*
X356603Y183259D01*
X358282Y184288D01*
X359780Y185567D01*
X361058Y187065D01*
X362087Y188744D01*
X362841Y190563D01*
X363301Y192478D01*
X363455Y194441D01*
X363301Y196404D01*
X362841Y198319D01*
X362087Y200138D01*
X361058Y201817D01*
X359780Y203315D01*
X358282Y204594D01*
X356603Y205623D01*
X354784Y206377D01*
X352869Y206836D01*
X350906Y206991D01*
D02*
G37*
G36*
X122559D02*
X120596Y206836D01*
X118681Y206377D01*
X116862Y205623D01*
X115182Y204594D01*
X113685Y203315D01*
X112406Y201817D01*
X111377Y200138D01*
X110624Y198319D01*
X110164Y196404D01*
X110009Y194441D01*
X110164Y192478D01*
X110624Y190563D01*
X111377Y188744D01*
X112406Y187065D01*
X113685Y185567D01*
X115182Y184288D01*
X116862Y183259D01*
X118681Y182506D01*
X120596Y182046D01*
X122559Y181891D01*
X124522Y182046D01*
X126437Y182506D01*
X128256Y183259D01*
X129936Y184288D01*
X131433Y185567D01*
X132712Y187065D01*
X133741Y188744D01*
X134494Y190563D01*
X134954Y192478D01*
X135109Y194441D01*
X134954Y196404D01*
X134494Y198319D01*
X133741Y200138D01*
X132712Y201817D01*
X131433Y203315D01*
X129936Y204594D01*
X128256Y205623D01*
X126437Y206377D01*
X124522Y206836D01*
X122559Y206991D01*
D02*
G37*
G36*
X348141Y235070D02*
X338867D01*
Y231308D01*
X348141D01*
Y235070D01*
D02*
G37*
G36*
X311133D02*
X301859D01*
Y231308D01*
X311133D01*
Y235070D01*
D02*
G37*
G36*
X112098Y234014D02*
X111747Y233944D01*
X111026Y233462D01*
X110544Y232741D01*
X110474Y232390D01*
X112098D01*
Y234014D01*
D02*
G37*
G36*
X292020Y234146D02*
X290395D01*
X290465Y233795D01*
X290947Y233073D01*
X291669Y232591D01*
X292020Y232521D01*
Y234146D01*
D02*
G37*
G36*
X113098Y234014D02*
Y232390D01*
X114723D01*
X114653Y232741D01*
X114171Y233462D01*
X113450Y233944D01*
X113098Y234014D01*
D02*
G37*
G36*
X112098Y231390D02*
X110474D01*
X110544Y231039D01*
X111026Y230317D01*
X111747Y229835D01*
X112098Y229765D01*
Y231390D01*
D02*
G37*
G36*
X252953Y233644D02*
X252055Y233466D01*
X251294Y232957D01*
X250126Y231789D01*
X249618Y231028D01*
X249439Y230131D01*
Y229945D01*
X249202Y229543D01*
X248867Y229543D01*
X247284D01*
Y225000D01*
Y220457D01*
X248867D01*
X249202Y220457D01*
X249702Y220457D01*
X251284D01*
Y225000D01*
X251784D01*
Y225500D01*
X254202D01*
Y229232D01*
X254611Y229641D01*
X255119Y230402D01*
X255298Y231299D01*
X255119Y232197D01*
X254611Y232957D01*
X253850Y233466D01*
X252953Y233644D01*
D02*
G37*
G36*
X114723Y231390D02*
X113098D01*
Y229765D01*
X113450Y229835D01*
X114171Y230317D01*
X114653Y231039D01*
X114723Y231390D01*
D02*
G37*
G36*
X359949Y232046D02*
Y230421D01*
X361573D01*
X361503Y230772D01*
X361021Y231494D01*
X360300Y231976D01*
X359949Y232046D01*
D02*
G37*
G36*
X358949D02*
X358598Y231976D01*
X357876Y231494D01*
X357394Y230772D01*
X357324Y230421D01*
X358949D01*
Y232046D01*
D02*
G37*
G36*
X294644Y234146D02*
X293020D01*
Y232521D01*
X293371Y232591D01*
X294092Y233073D01*
X294574Y233795D01*
X294644Y234146D01*
D02*
G37*
G36*
X244504Y238992D02*
X242626D01*
Y236221D01*
Y233449D01*
X244504D01*
Y233875D01*
X246063D01*
X246960Y234054D01*
X247721Y234562D01*
X248230Y235323D01*
X248408Y236221D01*
X248230Y237118D01*
X247721Y237879D01*
X246960Y238387D01*
X246063Y238565D01*
X244504D01*
Y238992D01*
D02*
G37*
G36*
X241626Y235720D02*
X239748D01*
Y233449D01*
X241626D01*
Y235720D01*
D02*
G37*
G36*
X265642Y235720D02*
X264017D01*
X264087Y235369D01*
X264569Y234648D01*
X265291Y234166D01*
X265642Y234096D01*
Y235720D01*
D02*
G37*
G36*
X292020Y236770D02*
X291669Y236700D01*
X290947Y236218D01*
X290465Y235497D01*
X290395Y235146D01*
X292020D01*
Y236770D01*
D02*
G37*
G36*
X268266Y235720D02*
X266642D01*
Y234096D01*
X266993Y234166D01*
X267714Y234648D01*
X268196Y235369D01*
X268266Y235720D01*
D02*
G37*
G36*
X167732Y238992D02*
X165854D01*
Y236221D01*
Y233449D01*
X167732D01*
Y233875D01*
X168307D01*
X169204Y234054D01*
X169965Y234562D01*
X170474Y235323D01*
X170652Y236221D01*
X170474Y237118D01*
X169965Y237879D01*
X169204Y238387D01*
X168307Y238565D01*
X167732D01*
Y238992D01*
D02*
G37*
G36*
X164854Y235720D02*
X162976D01*
Y233449D01*
X164854D01*
Y235720D01*
D02*
G37*
G36*
X190445D02*
X188567D01*
Y233449D01*
X190445D01*
Y235720D01*
D02*
G37*
G36*
X218913Y238992D02*
X217036D01*
Y236221D01*
Y233449D01*
X218913D01*
Y233875D01*
X219488D01*
X220386Y234054D01*
X221146Y234562D01*
X221655Y235323D01*
X221833Y236221D01*
X221655Y237118D01*
X221146Y237879D01*
X220386Y238387D01*
X219488Y238565D01*
X218913D01*
Y238992D01*
D02*
G37*
G36*
X216036Y235720D02*
X214158D01*
Y233449D01*
X216036D01*
Y235720D01*
D02*
G37*
G36*
X227362Y233644D02*
X226465Y233466D01*
X225704Y232957D01*
X224144Y231398D01*
X223636Y230637D01*
X223495Y229929D01*
X223313Y229674D01*
X223025Y229543D01*
X222885Y229543D01*
X221302D01*
Y225000D01*
Y220457D01*
X222885D01*
X223220Y220457D01*
X223720Y220457D01*
X225302D01*
Y225000D01*
X225802D01*
Y225500D01*
X228220D01*
Y228840D01*
X229020Y229641D01*
X229529Y230402D01*
X229707Y231299D01*
X229529Y232197D01*
X229020Y232957D01*
X228260Y233466D01*
X227362Y233644D01*
D02*
G37*
G36*
X311133Y225070D02*
X301859D01*
Y221308D01*
X311133D01*
Y225070D01*
D02*
G37*
G36*
X254202Y224500D02*
X252284D01*
Y220457D01*
X254202D01*
Y224500D01*
D02*
G37*
G36*
X348141Y225070D02*
X338867D01*
Y221308D01*
X348141D01*
Y225070D01*
D02*
G37*
G36*
X76534Y223122D02*
X74910D01*
Y221498D01*
X75261Y221568D01*
X75982Y222050D01*
X76464Y222771D01*
X76534Y223122D01*
D02*
G37*
G36*
X73909D02*
X72285D01*
X72355Y222771D01*
X72837Y222050D01*
X73558Y221568D01*
X73909Y221498D01*
Y223122D01*
D02*
G37*
G36*
X238298Y244598D02*
X234142D01*
Y239654D01*
X234997D01*
Y238692D01*
X234142D01*
Y233749D01*
X235561D01*
Y229243D01*
X234667D01*
Y220757D01*
X238867D01*
X238902Y220757D01*
X239367Y220673D01*
Y220457D01*
X239439D01*
Y218846D01*
X239618Y217948D01*
X240126Y217187D01*
X240468Y216846D01*
X241229Y216337D01*
X242126Y216159D01*
X243023Y216337D01*
X243784Y216846D01*
X244292Y217606D01*
X244471Y218504D01*
X244292Y219401D01*
X244129Y219646D01*
Y220055D01*
X244367Y220457D01*
X244702Y220457D01*
X246284D01*
Y225000D01*
Y229543D01*
X244702D01*
X244367Y229543D01*
X243867Y229543D01*
X242284D01*
Y225000D01*
X241284D01*
Y229543D01*
X239367D01*
Y229327D01*
X238902Y229243D01*
X238867Y229243D01*
X238008D01*
Y233749D01*
X238298D01*
Y238692D01*
X237444D01*
Y239654D01*
X238298D01*
Y244598D01*
D02*
G37*
G36*
X212708Y244598D02*
X208552D01*
Y239654D01*
X209406D01*
Y238692D01*
X208552D01*
Y233749D01*
X209406D01*
Y229243D01*
X208685D01*
Y220757D01*
X212885D01*
X212920Y220757D01*
X213385Y220673D01*
Y220457D01*
X213457D01*
Y219237D01*
X213636Y218340D01*
X214144Y217579D01*
X214877Y216846D01*
X215638Y216337D01*
X216535Y216159D01*
X217433Y216337D01*
X218194Y216846D01*
X218702Y217606D01*
X218881Y218504D01*
X218702Y219401D01*
X218310Y219988D01*
X218584Y220457D01*
X218720Y220457D01*
X220302D01*
Y225000D01*
Y229543D01*
X218720D01*
X218385Y229543D01*
X217885Y229543D01*
X216302D01*
Y225000D01*
X215302D01*
Y229543D01*
X213385D01*
Y229327D01*
X212920Y229243D01*
X212885Y229243D01*
X211853D01*
Y233749D01*
X212708D01*
Y238692D01*
X211853D01*
Y239654D01*
X212708D01*
Y244598D01*
D02*
G37*
G36*
X176256Y224500D02*
X174339D01*
Y220457D01*
X176256D01*
Y224500D01*
D02*
G37*
G36*
X228220D02*
X226302D01*
Y220457D01*
X228220D01*
Y224500D01*
D02*
G37*
G36*
X202238D02*
X200321D01*
Y220457D01*
X202238D01*
Y224500D01*
D02*
G37*
G36*
X73909Y225746D02*
X73558Y225677D01*
X72837Y225195D01*
X72355Y224473D01*
X72285Y224122D01*
X73909D01*
Y225746D01*
D02*
G37*
G36*
X361573Y229421D02*
X359949D01*
Y227797D01*
X360300Y227867D01*
X361021Y228349D01*
X361503Y229070D01*
X361573Y229421D01*
D02*
G37*
G36*
X358949D02*
X357324D01*
X357394Y229070D01*
X357876Y228349D01*
X358598Y227867D01*
X358949Y227797D01*
Y229421D01*
D02*
G37*
G36*
X134539Y230077D02*
X134188Y230007D01*
X133467Y229525D01*
X132985Y228804D01*
X132915Y228453D01*
X134539D01*
Y230077D01*
D02*
G37*
G36*
X200787Y233644D02*
X199890Y233466D01*
X199129Y232957D01*
X198162Y231991D01*
X197654Y231230D01*
X197475Y230332D01*
Y229945D01*
X197238Y229543D01*
X196903Y229543D01*
X195320D01*
Y225000D01*
Y220457D01*
X196903D01*
X197238Y220457D01*
X197738Y220457D01*
X199320D01*
Y225000D01*
X199820D01*
Y225500D01*
X202238D01*
Y229433D01*
X202446Y229641D01*
X202954Y230402D01*
X203133Y231299D01*
X202954Y232197D01*
X202446Y232957D01*
X201685Y233466D01*
X200787Y233644D01*
D02*
G37*
G36*
X135539Y230077D02*
Y228453D01*
X137164D01*
X137094Y228804D01*
X136612Y229525D01*
X135890Y230007D01*
X135539Y230077D01*
D02*
G37*
G36*
X134539Y227453D02*
X132915D01*
X132985Y227102D01*
X133467Y226380D01*
X134188Y225898D01*
X134539Y225828D01*
Y227453D01*
D02*
G37*
G36*
X74910Y225746D02*
Y224122D01*
X76534D01*
X76464Y224473D01*
X75982Y225195D01*
X75261Y225677D01*
X74910Y225746D01*
D02*
G37*
G36*
X137164Y227453D02*
X135539D01*
Y225828D01*
X135890Y225898D01*
X136612Y226380D01*
X137094Y227102D01*
X137164Y227453D01*
D02*
G37*
G36*
X348141Y230070D02*
X338867D01*
Y226308D01*
X348141D01*
Y230070D01*
D02*
G37*
G36*
X311133D02*
X301859D01*
Y226308D01*
X311133D01*
Y230070D01*
D02*
G37*
G36*
X161000Y391900D02*
X157579D01*
X157649Y391368D01*
X158047Y390407D01*
X158681Y389581D01*
X159507Y388947D01*
X160468Y388549D01*
X161000Y388479D01*
Y391900D01*
D02*
G37*
G36*
X76284Y396881D02*
X67797D01*
Y388394D01*
X76284D01*
Y396881D01*
D02*
G37*
G36*
X165421Y391900D02*
X162000D01*
Y388479D01*
X162532Y388549D01*
X163493Y388947D01*
X164319Y389581D01*
X164953Y390407D01*
X165351Y391368D01*
X165421Y391900D01*
D02*
G37*
G36*
X205421D02*
X202000D01*
Y388479D01*
X202532Y388549D01*
X203493Y388947D01*
X204319Y389581D01*
X204953Y390407D01*
X205351Y391368D01*
X205421Y391900D01*
D02*
G37*
G36*
X201000D02*
X197579D01*
X197649Y391368D01*
X198047Y390407D01*
X198681Y389581D01*
X199507Y388947D01*
X200468Y388549D01*
X201000Y388479D01*
Y391900D01*
D02*
G37*
G36*
X261000Y386321D02*
X260468Y386251D01*
X259507Y385853D01*
X258681Y385219D01*
X258047Y384393D01*
X257649Y383432D01*
X257579Y382900D01*
X261000D01*
Y386321D01*
D02*
G37*
G36*
X182000D02*
Y382900D01*
X185421D01*
X185351Y383432D01*
X184953Y384393D01*
X184319Y385219D01*
X183493Y385853D01*
X182532Y386251D01*
X182000Y386321D01*
D02*
G37*
G36*
X262000D02*
Y382900D01*
X265421D01*
X265351Y383432D01*
X264953Y384393D01*
X264319Y385219D01*
X263493Y385853D01*
X262532Y386251D01*
X262000Y386321D01*
D02*
G37*
G36*
X332000D02*
Y382900D01*
X335421D01*
X335351Y383432D01*
X334953Y384393D01*
X334319Y385219D01*
X333493Y385853D01*
X332532Y386251D01*
X332000Y386321D01*
D02*
G37*
G36*
X331000D02*
X330468Y386251D01*
X329507Y385853D01*
X328681Y385219D01*
X328047Y384393D01*
X327649Y383432D01*
X327579Y382900D01*
X331000D01*
Y386321D01*
D02*
G37*
G36*
X231000Y391900D02*
X227579D01*
X227649Y391368D01*
X228047Y390407D01*
X228681Y389581D01*
X229507Y388947D01*
X230468Y388549D01*
X231000Y388479D01*
Y391900D01*
D02*
G37*
G36*
X151500Y396084D02*
X150546Y395959D01*
X149658Y395591D01*
X148895Y395005D01*
X148309Y394242D01*
X147941Y393354D01*
X147816Y392400D01*
X147941Y391446D01*
X148309Y390558D01*
X148895Y389795D01*
X149658Y389209D01*
X150546Y388841D01*
X151500Y388716D01*
X152454Y388841D01*
X153342Y389209D01*
X154105Y389795D01*
X154691Y390558D01*
X155059Y391446D01*
X155184Y392400D01*
X155059Y393354D01*
X154691Y394242D01*
X154105Y395005D01*
X153342Y395591D01*
X152454Y395959D01*
X151500Y396084D01*
D02*
G37*
G36*
X141500D02*
X140546Y395959D01*
X139658Y395591D01*
X138895Y395005D01*
X138309Y394242D01*
X137941Y393354D01*
X137816Y392400D01*
X137941Y391446D01*
X138309Y390558D01*
X138895Y389795D01*
X139658Y389209D01*
X140546Y388841D01*
X141500Y388716D01*
X142454Y388841D01*
X143342Y389209D01*
X144105Y389795D01*
X144691Y390558D01*
X145059Y391446D01*
X145184Y392400D01*
X145059Y393354D01*
X144691Y394242D01*
X144105Y395005D01*
X143342Y395591D01*
X142454Y395959D01*
X141500Y396084D01*
D02*
G37*
G36*
X171500D02*
X170546Y395959D01*
X169658Y395591D01*
X168895Y395005D01*
X168309Y394242D01*
X167941Y393354D01*
X167816Y392400D01*
X167941Y391446D01*
X168309Y390558D01*
X168895Y389795D01*
X169658Y389209D01*
X170546Y388841D01*
X171500Y388716D01*
X172454Y388841D01*
X173342Y389209D01*
X174105Y389795D01*
X174691Y390558D01*
X175059Y391446D01*
X175184Y392400D01*
X175059Y393354D01*
X174691Y394242D01*
X174105Y395005D01*
X173342Y395591D01*
X172454Y395959D01*
X171500Y396084D01*
D02*
G37*
G36*
X191500D02*
X190546Y395959D01*
X189658Y395591D01*
X188895Y395005D01*
X188309Y394242D01*
X187941Y393354D01*
X187816Y392400D01*
X187941Y391446D01*
X188309Y390558D01*
X188895Y389795D01*
X189658Y389209D01*
X190546Y388841D01*
X191500Y388716D01*
X192454Y388841D01*
X193342Y389209D01*
X194105Y389795D01*
X194691Y390558D01*
X195059Y391446D01*
X195184Y392400D01*
X195059Y393354D01*
X194691Y394242D01*
X194105Y395005D01*
X193342Y395591D01*
X192454Y395959D01*
X191500Y396084D01*
D02*
G37*
G36*
X181500D02*
X180546Y395959D01*
X179658Y395591D01*
X178895Y395005D01*
X178309Y394242D01*
X177941Y393354D01*
X177816Y392400D01*
X177941Y391446D01*
X178309Y390558D01*
X178895Y389795D01*
X179658Y389209D01*
X180546Y388841D01*
X181500Y388716D01*
X182454Y388841D01*
X183342Y389209D01*
X184105Y389795D01*
X184691Y390558D01*
X185059Y391446D01*
X185184Y392400D01*
X185059Y393354D01*
X184691Y394242D01*
X184105Y395005D01*
X183342Y395591D01*
X182454Y395959D01*
X181500Y396084D01*
D02*
G37*
G36*
X281000Y391900D02*
X277579D01*
X277649Y391368D01*
X278047Y390407D01*
X278681Y389581D01*
X279507Y388947D01*
X280468Y388549D01*
X281000Y388479D01*
Y391900D01*
D02*
G37*
G36*
X235421D02*
X232000D01*
Y388479D01*
X232532Y388549D01*
X233493Y388947D01*
X234319Y389581D01*
X234953Y390407D01*
X235351Y391368D01*
X235421Y391900D01*
D02*
G37*
G36*
X285421D02*
X282000D01*
Y388479D01*
X282532Y388549D01*
X283493Y388947D01*
X284319Y389581D01*
X284953Y390407D01*
X285351Y391368D01*
X285421Y391900D01*
D02*
G37*
G36*
X305421D02*
X302000D01*
Y388479D01*
X302532Y388549D01*
X303493Y388947D01*
X304319Y389581D01*
X304953Y390407D01*
X305351Y391368D01*
X305421Y391900D01*
D02*
G37*
G36*
X301000D02*
X297579D01*
X297649Y391368D01*
X298047Y390407D01*
X298681Y389581D01*
X299507Y388947D01*
X300468Y388549D01*
X301000Y388479D01*
Y391900D01*
D02*
G37*
G36*
X181000Y386321D02*
X180468Y386251D01*
X179507Y385853D01*
X178681Y385219D01*
X178047Y384393D01*
X177649Y383432D01*
X177579Y382900D01*
X181000D01*
Y386321D01*
D02*
G37*
G36*
X171500Y386084D02*
X170546Y385959D01*
X169658Y385591D01*
X168895Y385005D01*
X168309Y384242D01*
X167941Y383354D01*
X167816Y382400D01*
X167941Y381446D01*
X168309Y380558D01*
X168895Y379795D01*
X169658Y379209D01*
X170546Y378841D01*
X171500Y378716D01*
X172454Y378841D01*
X173342Y379209D01*
X174105Y379795D01*
X174691Y380558D01*
X175059Y381446D01*
X175184Y382400D01*
X175059Y383354D01*
X174691Y384242D01*
X174105Y385005D01*
X173342Y385591D01*
X172454Y385959D01*
X171500Y386084D01*
D02*
G37*
G36*
X161500D02*
X160546Y385959D01*
X159658Y385591D01*
X158895Y385005D01*
X158309Y384242D01*
X157941Y383354D01*
X157816Y382400D01*
X157941Y381446D01*
X158309Y380558D01*
X158895Y379795D01*
X159658Y379209D01*
X160546Y378841D01*
X161500Y378716D01*
X162454Y378841D01*
X163342Y379209D01*
X164105Y379795D01*
X164691Y380558D01*
X165059Y381446D01*
X165184Y382400D01*
X165059Y383354D01*
X164691Y384242D01*
X164105Y385005D01*
X163342Y385591D01*
X162454Y385959D01*
X161500Y386084D01*
D02*
G37*
G36*
X191500D02*
X190546Y385959D01*
X189658Y385591D01*
X188895Y385005D01*
X188309Y384242D01*
X187941Y383354D01*
X187816Y382400D01*
X187941Y381446D01*
X188309Y380558D01*
X188895Y379795D01*
X189658Y379209D01*
X190546Y378841D01*
X191500Y378716D01*
X192454Y378841D01*
X193342Y379209D01*
X194105Y379795D01*
X194691Y380558D01*
X195059Y381446D01*
X195184Y382400D01*
X195059Y383354D01*
X194691Y384242D01*
X194105Y385005D01*
X193342Y385591D01*
X192454Y385959D01*
X191500Y386084D01*
D02*
G37*
G36*
X211500D02*
X210546Y385959D01*
X209658Y385591D01*
X208895Y385005D01*
X208309Y384242D01*
X207941Y383354D01*
X207816Y382400D01*
X207941Y381446D01*
X208309Y380558D01*
X208895Y379795D01*
X209658Y379209D01*
X210546Y378841D01*
X211500Y378716D01*
X212454Y378841D01*
X213342Y379209D01*
X214105Y379795D01*
X214691Y380558D01*
X215059Y381446D01*
X215184Y382400D01*
X215059Y383354D01*
X214691Y384242D01*
X214105Y385005D01*
X213342Y385591D01*
X212454Y385959D01*
X211500Y386084D01*
D02*
G37*
G36*
X201500D02*
X200546Y385959D01*
X199658Y385591D01*
X198895Y385005D01*
X198309Y384242D01*
X197941Y383354D01*
X197816Y382400D01*
X197941Y381446D01*
X198309Y380558D01*
X198895Y379795D01*
X199658Y379209D01*
X200546Y378841D01*
X201500Y378716D01*
X202454Y378841D01*
X203342Y379209D01*
X204105Y379795D01*
X204691Y380558D01*
X205059Y381446D01*
X205184Y382400D01*
X205059Y383354D01*
X204691Y384242D01*
X204105Y385005D01*
X203342Y385591D01*
X202454Y385959D01*
X201500Y386084D01*
D02*
G37*
G36*
X265421Y381900D02*
X262000D01*
Y378479D01*
X262532Y378549D01*
X263493Y378947D01*
X264319Y379581D01*
X264953Y380407D01*
X265351Y381368D01*
X265421Y381900D01*
D02*
G37*
G36*
X261000D02*
X257579D01*
X257649Y381368D01*
X258047Y380407D01*
X258681Y379581D01*
X259507Y378947D01*
X260468Y378549D01*
X261000Y378479D01*
Y381900D01*
D02*
G37*
G36*
X331000D02*
X327579D01*
X327649Y381368D01*
X328047Y380407D01*
X328681Y379581D01*
X329507Y378947D01*
X330468Y378549D01*
X331000Y378479D01*
Y381900D01*
D02*
G37*
G36*
X151500Y386084D02*
X150546Y385959D01*
X149658Y385591D01*
X148895Y385005D01*
X148309Y384242D01*
X147941Y383354D01*
X147816Y382400D01*
X147941Y381446D01*
X148309Y380558D01*
X148895Y379795D01*
X149658Y379209D01*
X150546Y378841D01*
X151500Y378716D01*
X152454Y378841D01*
X153342Y379209D01*
X154105Y379795D01*
X154691Y380558D01*
X155059Y381446D01*
X155184Y382400D01*
X155059Y383354D01*
X154691Y384242D01*
X154105Y385005D01*
X153342Y385591D01*
X152454Y385959D01*
X151500Y386084D01*
D02*
G37*
G36*
X335421Y381900D02*
X332000D01*
Y378479D01*
X332532Y378549D01*
X333493Y378947D01*
X334319Y379581D01*
X334953Y380407D01*
X335351Y381368D01*
X335421Y381900D01*
D02*
G37*
G36*
X221500Y386084D02*
X220546Y385959D01*
X219658Y385591D01*
X218895Y385005D01*
X218309Y384242D01*
X217941Y383354D01*
X217816Y382400D01*
X217941Y381446D01*
X218309Y380558D01*
X218895Y379795D01*
X219658Y379209D01*
X220546Y378841D01*
X221500Y378716D01*
X222454Y378841D01*
X223342Y379209D01*
X224105Y379795D01*
X224691Y380558D01*
X225059Y381446D01*
X225184Y382400D01*
X225059Y383354D01*
X224691Y384242D01*
X224105Y385005D01*
X223342Y385591D01*
X222454Y385959D01*
X221500Y386084D01*
D02*
G37*
G36*
X301500D02*
X300546Y385959D01*
X299658Y385591D01*
X298895Y385005D01*
X298309Y384242D01*
X297941Y383354D01*
X297816Y382400D01*
X297941Y381446D01*
X298309Y380558D01*
X298895Y379795D01*
X299658Y379209D01*
X300546Y378841D01*
X301500Y378716D01*
X302454Y378841D01*
X303342Y379209D01*
X304105Y379795D01*
X304691Y380558D01*
X305059Y381446D01*
X305184Y382400D01*
X305059Y383354D01*
X304691Y384242D01*
X304105Y385005D01*
X303342Y385591D01*
X302454Y385959D01*
X301500Y386084D01*
D02*
G37*
G36*
X291500D02*
X290546Y385959D01*
X289658Y385591D01*
X288895Y385005D01*
X288309Y384242D01*
X287941Y383354D01*
X287816Y382400D01*
X287941Y381446D01*
X288309Y380558D01*
X288895Y379795D01*
X289658Y379209D01*
X290546Y378841D01*
X291500Y378716D01*
X292454Y378841D01*
X293342Y379209D01*
X294105Y379795D01*
X294691Y380558D01*
X295059Y381446D01*
X295184Y382400D01*
X295059Y383354D01*
X294691Y384242D01*
X294105Y385005D01*
X293342Y385591D01*
X292454Y385959D01*
X291500Y386084D01*
D02*
G37*
G36*
X311500D02*
X310546Y385959D01*
X309658Y385591D01*
X308895Y385005D01*
X308309Y384242D01*
X307941Y383354D01*
X307816Y382400D01*
X307941Y381446D01*
X308309Y380558D01*
X308895Y379795D01*
X309658Y379209D01*
X310546Y378841D01*
X311500Y378716D01*
X312454Y378841D01*
X313342Y379209D01*
X314105Y379795D01*
X314691Y380558D01*
X315059Y381446D01*
X315184Y382400D01*
X315059Y383354D01*
X314691Y384242D01*
X314105Y385005D01*
X313342Y385591D01*
X312454Y385959D01*
X311500Y386084D01*
D02*
G37*
G36*
X145153Y386053D02*
X137847D01*
Y378747D01*
X145153D01*
Y386053D01*
D02*
G37*
G36*
X321500Y386084D02*
X320546Y385959D01*
X319658Y385591D01*
X318895Y385005D01*
X318309Y384242D01*
X317941Y383354D01*
X317816Y382400D01*
X317941Y381446D01*
X318309Y380558D01*
X318895Y379795D01*
X319658Y379209D01*
X320546Y378841D01*
X321500Y378716D01*
X322454Y378841D01*
X323342Y379209D01*
X324105Y379795D01*
X324691Y380558D01*
X325059Y381446D01*
X325184Y382400D01*
X325059Y383354D01*
X324691Y384242D01*
X324105Y385005D01*
X323342Y385591D01*
X322454Y385959D01*
X321500Y386084D01*
D02*
G37*
G36*
X241500D02*
X240546Y385959D01*
X239658Y385591D01*
X238895Y385005D01*
X238309Y384242D01*
X237941Y383354D01*
X237816Y382400D01*
X237941Y381446D01*
X238309Y380558D01*
X238895Y379795D01*
X239658Y379209D01*
X240546Y378841D01*
X241500Y378716D01*
X242454Y378841D01*
X243342Y379209D01*
X244105Y379795D01*
X244691Y380558D01*
X245059Y381446D01*
X245184Y382400D01*
X245059Y383354D01*
X244691Y384242D01*
X244105Y385005D01*
X243342Y385591D01*
X242454Y385959D01*
X241500Y386084D01*
D02*
G37*
G36*
X231500D02*
X230546Y385959D01*
X229658Y385591D01*
X228895Y385005D01*
X228309Y384242D01*
X227941Y383354D01*
X227816Y382400D01*
X227941Y381446D01*
X228309Y380558D01*
X228895Y379795D01*
X229658Y379209D01*
X230546Y378841D01*
X231500Y378716D01*
X232454Y378841D01*
X233342Y379209D01*
X234105Y379795D01*
X234691Y380558D01*
X235059Y381446D01*
X235184Y382400D01*
X235059Y383354D01*
X234691Y384242D01*
X234105Y385005D01*
X233342Y385591D01*
X232454Y385959D01*
X231500Y386084D01*
D02*
G37*
G36*
X251500D02*
X250546Y385959D01*
X249658Y385591D01*
X248895Y385005D01*
X248309Y384242D01*
X247941Y383354D01*
X247816Y382400D01*
X247941Y381446D01*
X248309Y380558D01*
X248895Y379795D01*
X249658Y379209D01*
X250546Y378841D01*
X251500Y378716D01*
X252454Y378841D01*
X253342Y379209D01*
X254105Y379795D01*
X254691Y380558D01*
X255059Y381446D01*
X255184Y382400D01*
X255059Y383354D01*
X254691Y384242D01*
X254105Y385005D01*
X253342Y385591D01*
X252454Y385959D01*
X251500Y386084D01*
D02*
G37*
G36*
X281500D02*
X280546Y385959D01*
X279658Y385591D01*
X278895Y385005D01*
X278309Y384242D01*
X277941Y383354D01*
X277816Y382400D01*
X277941Y381446D01*
X278309Y380558D01*
X278895Y379795D01*
X279658Y379209D01*
X280546Y378841D01*
X281500Y378716D01*
X282454Y378841D01*
X283342Y379209D01*
X284105Y379795D01*
X284691Y380558D01*
X285059Y381446D01*
X285184Y382400D01*
X285059Y383354D01*
X284691Y384242D01*
X284105Y385005D01*
X283342Y385591D01*
X282454Y385959D01*
X281500Y386084D01*
D02*
G37*
G36*
X271500D02*
X270546Y385959D01*
X269658Y385591D01*
X268895Y385005D01*
X268309Y384242D01*
X267941Y383354D01*
X267816Y382400D01*
X267941Y381446D01*
X268309Y380558D01*
X268895Y379795D01*
X269658Y379209D01*
X270546Y378841D01*
X271500Y378716D01*
X272454Y378841D01*
X273342Y379209D01*
X274105Y379795D01*
X274691Y380558D01*
X275059Y381446D01*
X275184Y382400D01*
X275059Y383354D01*
X274691Y384242D01*
X274105Y385005D01*
X273342Y385591D01*
X272454Y385959D01*
X271500Y386084D01*
D02*
G37*
G36*
X211500Y396084D02*
X210546Y395959D01*
X209658Y395591D01*
X208895Y395005D01*
X208309Y394242D01*
X207941Y393354D01*
X207816Y392400D01*
X207941Y391446D01*
X208309Y390558D01*
X208895Y389795D01*
X209658Y389209D01*
X210546Y388841D01*
X211500Y388716D01*
X212454Y388841D01*
X213342Y389209D01*
X214105Y389795D01*
X214691Y390558D01*
X215059Y391446D01*
X215184Y392400D01*
X215059Y393354D01*
X214691Y394242D01*
X214105Y395005D01*
X213342Y395591D01*
X212454Y395959D01*
X211500Y396084D01*
D02*
G37*
G36*
X319054Y404618D02*
X317429D01*
Y402994D01*
X317780Y403064D01*
X318502Y403546D01*
X318984Y404267D01*
X319054Y404618D01*
D02*
G37*
G36*
X316429D02*
X314805D01*
X314875Y404267D01*
X315357Y403546D01*
X316078Y403064D01*
X316429Y402994D01*
Y404618D01*
D02*
G37*
G36*
X59539Y407155D02*
X58853Y407064D01*
X57748Y406606D01*
X56799Y405878D01*
X56071Y404929D01*
X55613Y403824D01*
X55523Y403138D01*
X59539D01*
Y407155D01*
D02*
G37*
G36*
X60539Y407155D02*
Y403138D01*
X64556D01*
X64466Y403824D01*
X64008Y404929D01*
X63280Y405878D01*
X62331Y406606D01*
X61225Y407064D01*
X60539Y407155D01*
D02*
G37*
G36*
X71540Y407155D02*
X70854Y407064D01*
X69749Y406606D01*
X68800Y405878D01*
X68072Y404929D01*
X67614Y403824D01*
X67524Y403138D01*
X71540D01*
Y407155D01*
D02*
G37*
G36*
X83541Y402138D02*
X79525D01*
X79615Y401452D01*
X80073Y400347D01*
X80801Y399398D01*
X81750Y398669D01*
X82855Y398212D01*
X83541Y398121D01*
Y402138D01*
D02*
G37*
G36*
X76557Y402138D02*
X72540D01*
Y398121D01*
X73226Y398211D01*
X74332Y398669D01*
X75281Y399397D01*
X76009Y400347D01*
X76467Y401452D01*
X76557Y402138D01*
D02*
G37*
G36*
X88558Y402138D02*
X84541D01*
Y398121D01*
X85227Y398212D01*
X86333Y398669D01*
X87282Y399398D01*
X88010Y400347D01*
X88468Y401452D01*
X88558Y402138D01*
D02*
G37*
G36*
X237951Y403831D02*
X236327D01*
Y402206D01*
X236678Y402276D01*
X237399Y402758D01*
X237881Y403480D01*
X237951Y403831D01*
D02*
G37*
G36*
X235327D02*
X233702D01*
X233772Y403480D01*
X234254Y402758D01*
X234976Y402276D01*
X235327Y402206D01*
Y403831D01*
D02*
G37*
G36*
X72540Y407155D02*
Y403138D01*
X76557D01*
X76467Y403824D01*
X76009Y404929D01*
X75281Y405878D01*
X74332Y406606D01*
X73226Y407064D01*
X72540Y407155D01*
D02*
G37*
G36*
X316429Y407242D02*
X316078Y407173D01*
X315357Y406691D01*
X314875Y405969D01*
X314805Y405618D01*
X316429D01*
Y407242D01*
D02*
G37*
G36*
X182833Y406980D02*
X181209D01*
Y405356D01*
X181560Y405426D01*
X182281Y405908D01*
X182763Y406629D01*
X182833Y406980D01*
D02*
G37*
G36*
X317429Y407242D02*
Y405618D01*
X319054D01*
X318984Y405969D01*
X318502Y406691D01*
X317780Y407173D01*
X317429Y407242D01*
D02*
G37*
G36*
X181209Y409605D02*
Y407980D01*
X182833D01*
X182763Y408331D01*
X182281Y409053D01*
X181560Y409535D01*
X181209Y409605D01*
D02*
G37*
G36*
X180209D02*
X179858Y409535D01*
X179136Y409053D01*
X178654Y408331D01*
X178584Y407980D01*
X180209D01*
Y409605D01*
D02*
G37*
G36*
X84541Y407155D02*
Y403138D01*
X88558D01*
X88468Y403824D01*
X88010Y404929D01*
X87282Y405878D01*
X86333Y406606D01*
X85227Y407064D01*
X84541Y407155D01*
D02*
G37*
G36*
X83541Y407155D02*
X82855Y407064D01*
X81750Y406606D01*
X80801Y405878D01*
X80073Y404929D01*
X79615Y403824D01*
X79525Y403138D01*
X83541D01*
Y407155D01*
D02*
G37*
G36*
X235327Y406455D02*
X234976Y406385D01*
X234254Y405903D01*
X233772Y405182D01*
X233702Y404831D01*
X235327D01*
Y406455D01*
D02*
G37*
G36*
X180209Y406980D02*
X178584D01*
X178654Y406629D01*
X179136Y405908D01*
X179858Y405426D01*
X180209Y405356D01*
Y406980D01*
D02*
G37*
G36*
X236327Y406455D02*
Y404831D01*
X237951D01*
X237881Y405182D01*
X237399Y405903D01*
X236678Y406385D01*
X236327Y406455D01*
D02*
G37*
G36*
X64556Y402138D02*
X60539D01*
Y398121D01*
X61225Y398211D01*
X62331Y398669D01*
X63280Y399397D01*
X64008Y400347D01*
X64466Y401452D01*
X64556Y402138D01*
D02*
G37*
G36*
X311500Y396084D02*
X310546Y395959D01*
X309658Y395591D01*
X308895Y395005D01*
X308309Y394242D01*
X307941Y393354D01*
X307816Y392400D01*
X307941Y391446D01*
X308309Y390558D01*
X308895Y389795D01*
X309658Y389209D01*
X310546Y388841D01*
X311500Y388716D01*
X312454Y388841D01*
X313342Y389209D01*
X314105Y389795D01*
X314691Y390558D01*
X315059Y391446D01*
X315184Y392400D01*
X315059Y393354D01*
X314691Y394242D01*
X314105Y395005D01*
X313342Y395591D01*
X312454Y395959D01*
X311500Y396084D01*
D02*
G37*
G36*
X291500D02*
X290546Y395959D01*
X289658Y395591D01*
X288895Y395005D01*
X288309Y394242D01*
X287941Y393354D01*
X287816Y392400D01*
X287941Y391446D01*
X288309Y390558D01*
X288895Y389795D01*
X289658Y389209D01*
X290546Y388841D01*
X291500Y388716D01*
X292454Y388841D01*
X293342Y389209D01*
X294105Y389795D01*
X294691Y390558D01*
X295059Y391446D01*
X295184Y392400D01*
X295059Y393354D01*
X294691Y394242D01*
X294105Y395005D01*
X293342Y395591D01*
X292454Y395959D01*
X291500Y396084D01*
D02*
G37*
G36*
X321500D02*
X320546Y395959D01*
X319658Y395591D01*
X318895Y395005D01*
X318309Y394242D01*
X317941Y393354D01*
X317816Y392400D01*
X317941Y391446D01*
X318309Y390558D01*
X318895Y389795D01*
X319658Y389209D01*
X320546Y388841D01*
X321500Y388716D01*
X322454Y388841D01*
X323342Y389209D01*
X324105Y389795D01*
X324691Y390558D01*
X325059Y391446D01*
X325184Y392400D01*
X325059Y393354D01*
X324691Y394242D01*
X324105Y395005D01*
X323342Y395591D01*
X322454Y395959D01*
X321500Y396084D01*
D02*
G37*
G36*
X161000Y396321D02*
X160468Y396251D01*
X159507Y395853D01*
X158681Y395219D01*
X158047Y394393D01*
X157649Y393432D01*
X157579Y392900D01*
X161000D01*
Y396321D01*
D02*
G37*
G36*
X331500Y396084D02*
X330546Y395959D01*
X329658Y395591D01*
X328895Y395005D01*
X328309Y394242D01*
X327941Y393354D01*
X327816Y392400D01*
X327941Y391446D01*
X328309Y390558D01*
X328895Y389795D01*
X329658Y389209D01*
X330546Y388841D01*
X331500Y388716D01*
X332454Y388841D01*
X333342Y389209D01*
X334105Y389795D01*
X334691Y390558D01*
X335059Y391446D01*
X335184Y392400D01*
X335059Y393354D01*
X334691Y394242D01*
X334105Y395005D01*
X333342Y395591D01*
X332454Y395959D01*
X331500Y396084D01*
D02*
G37*
G36*
X241500D02*
X240546Y395959D01*
X239658Y395591D01*
X238895Y395005D01*
X238309Y394242D01*
X237941Y393354D01*
X237816Y392400D01*
X237941Y391446D01*
X238309Y390558D01*
X238895Y389795D01*
X239658Y389209D01*
X240546Y388841D01*
X241500Y388716D01*
X242454Y388841D01*
X243342Y389209D01*
X244105Y389795D01*
X244691Y390558D01*
X245059Y391446D01*
X245184Y392400D01*
X245059Y393354D01*
X244691Y394242D01*
X244105Y395005D01*
X243342Y395591D01*
X242454Y395959D01*
X241500Y396084D01*
D02*
G37*
G36*
X221500D02*
X220546Y395959D01*
X219658Y395591D01*
X218895Y395005D01*
X218309Y394242D01*
X217941Y393354D01*
X217816Y392400D01*
X217941Y391446D01*
X218309Y390558D01*
X218895Y389795D01*
X219658Y389209D01*
X220546Y388841D01*
X221500Y388716D01*
X222454Y388841D01*
X223342Y389209D01*
X224105Y389795D01*
X224691Y390558D01*
X225059Y391446D01*
X225184Y392400D01*
X225059Y393354D01*
X224691Y394242D01*
X224105Y395005D01*
X223342Y395591D01*
X222454Y395959D01*
X221500Y396084D01*
D02*
G37*
G36*
X251500D02*
X250546Y395959D01*
X249658Y395591D01*
X248895Y395005D01*
X248309Y394242D01*
X247941Y393354D01*
X247816Y392400D01*
X247941Y391446D01*
X248309Y390558D01*
X248895Y389795D01*
X249658Y389209D01*
X250546Y388841D01*
X251500Y388716D01*
X252454Y388841D01*
X253342Y389209D01*
X254105Y389795D01*
X254691Y390558D01*
X255059Y391446D01*
X255184Y392400D01*
X255059Y393354D01*
X254691Y394242D01*
X254105Y395005D01*
X253342Y395591D01*
X252454Y395959D01*
X251500Y396084D01*
D02*
G37*
G36*
X271500D02*
X270546Y395959D01*
X269658Y395591D01*
X268895Y395005D01*
X268309Y394242D01*
X267941Y393354D01*
X267816Y392400D01*
X267941Y391446D01*
X268309Y390558D01*
X268895Y389795D01*
X269658Y389209D01*
X270546Y388841D01*
X271500Y388716D01*
X272454Y388841D01*
X273342Y389209D01*
X274105Y389795D01*
X274691Y390558D01*
X275059Y391446D01*
X275184Y392400D01*
X275059Y393354D01*
X274691Y394242D01*
X274105Y395005D01*
X273342Y395591D01*
X272454Y395959D01*
X271500Y396084D01*
D02*
G37*
G36*
X261500D02*
X260546Y395959D01*
X259658Y395591D01*
X258895Y395005D01*
X258309Y394242D01*
X257941Y393354D01*
X257816Y392400D01*
X257941Y391446D01*
X258309Y390558D01*
X258895Y389795D01*
X259658Y389209D01*
X260546Y388841D01*
X261500Y388716D01*
X262454Y388841D01*
X263342Y389209D01*
X264105Y389795D01*
X264691Y390558D01*
X265059Y391446D01*
X265184Y392400D01*
X265059Y393354D01*
X264691Y394242D01*
X264105Y395005D01*
X263342Y395591D01*
X262454Y395959D01*
X261500Y396084D01*
D02*
G37*
G36*
X162000Y396321D02*
Y392900D01*
X165421D01*
X165351Y393432D01*
X164953Y394393D01*
X164319Y395219D01*
X163493Y395853D01*
X162532Y396251D01*
X162000Y396321D01*
D02*
G37*
G36*
X301000D02*
X300468Y396251D01*
X299507Y395853D01*
X298681Y395219D01*
X298047Y394393D01*
X297649Y393432D01*
X297579Y392900D01*
X301000D01*
Y396321D01*
D02*
G37*
G36*
X282000D02*
Y392900D01*
X285421D01*
X285351Y393432D01*
X284953Y394393D01*
X284319Y395219D01*
X283493Y395853D01*
X282532Y396251D01*
X282000Y396321D01*
D02*
G37*
G36*
X302000D02*
Y392900D01*
X305421D01*
X305351Y393432D01*
X304953Y394393D01*
X304319Y395219D01*
X303493Y395853D01*
X302532Y396251D01*
X302000Y396321D01*
D02*
G37*
G36*
X71540Y402138D02*
X67524D01*
X67614Y401452D01*
X68072Y400347D01*
X68800Y399397D01*
X69749Y398669D01*
X70854Y398211D01*
X71540Y398121D01*
Y402138D01*
D02*
G37*
G36*
X59539D02*
X55523D01*
X55613Y401452D01*
X56071Y400347D01*
X56799Y399397D01*
X57748Y398669D01*
X58853Y398211D01*
X59539Y398121D01*
Y402138D01*
D02*
G37*
G36*
X202000Y396321D02*
Y392900D01*
X205421D01*
X205351Y393432D01*
X204953Y394393D01*
X204319Y395219D01*
X203493Y395853D01*
X202532Y396251D01*
X202000Y396321D01*
D02*
G37*
G36*
X201000D02*
X200468Y396251D01*
X199507Y395853D01*
X198681Y395219D01*
X198047Y394393D01*
X197649Y393432D01*
X197579Y392900D01*
X201000D01*
Y396321D01*
D02*
G37*
G36*
X231000D02*
X230468Y396251D01*
X229507Y395853D01*
X228681Y395219D01*
X228047Y394393D01*
X227649Y393432D01*
X227579Y392900D01*
X231000D01*
Y396321D01*
D02*
G37*
G36*
X281000D02*
X280468Y396251D01*
X279507Y395853D01*
X278681Y395219D01*
X278047Y394393D01*
X277649Y393432D01*
X277579Y392900D01*
X281000D01*
Y396321D01*
D02*
G37*
G36*
X232000D02*
Y392900D01*
X235421D01*
X235351Y393432D01*
X234953Y394393D01*
X234319Y395219D01*
X233493Y395853D01*
X232532Y396251D01*
X232000Y396321D01*
D02*
G37*
G36*
X185421Y381900D02*
X182000D01*
Y378479D01*
X182532Y378549D01*
X183493Y378947D01*
X184319Y379581D01*
X184953Y380407D01*
X185351Y381368D01*
X185421Y381900D01*
D02*
G37*
G36*
X266842Y344991D02*
X262686D01*
Y343721D01*
X262327Y343650D01*
X261930Y343385D01*
X257885Y339339D01*
X257619Y338942D01*
X257526Y338474D01*
Y328195D01*
X257026Y327928D01*
X256850Y328046D01*
X256691Y328078D01*
Y323601D01*
X255691D01*
Y328078D01*
X255532Y328046D01*
X255355Y327928D01*
X254855Y328196D01*
Y337904D01*
X254762Y338372D01*
X254497Y338769D01*
X252078Y341188D01*
Y344007D01*
X247922D01*
Y339064D01*
X250729D01*
X251007Y338725D01*
X250816Y338282D01*
X247922D01*
Y333338D01*
X249849D01*
Y327789D01*
X249847Y327787D01*
X249349Y327567D01*
X249055Y327764D01*
X248513Y327871D01*
X247971Y327764D01*
X247512Y327457D01*
X247476Y327402D01*
X246832Y327339D01*
X246391Y327780D01*
X246425Y327953D01*
X246278Y328694D01*
X246032Y329063D01*
Y333338D01*
X246172D01*
Y338282D01*
X246032D01*
Y339064D01*
X246172D01*
Y344007D01*
X242017D01*
Y339064D01*
X242157D01*
Y338282D01*
X242017D01*
Y333338D01*
X242157D01*
Y328346D01*
X242305Y327605D01*
X242725Y326977D01*
X243118Y326583D01*
X243747Y326163D01*
X244488Y326015D01*
X244661Y326050D01*
X247097Y323614D01*
Y320746D01*
X247205Y320205D01*
X247512Y319745D01*
X247971Y319438D01*
X248513Y319330D01*
X249055Y319438D01*
X249349Y319634D01*
X249847Y319415D01*
X249849Y319413D01*
Y317524D01*
X248188Y315863D01*
X248031Y315894D01*
X247298Y315748D01*
X246675Y315333D01*
X246259Y314710D01*
X246113Y313976D01*
X246259Y313242D01*
X246675Y312620D01*
X247298Y312204D01*
X248031Y312058D01*
X248765Y312204D01*
X249388Y312620D01*
X249803Y313242D01*
X249949Y313976D01*
X249918Y314133D01*
X251908Y316123D01*
X252034Y316112D01*
X252408Y315956D01*
Y314090D01*
X252165Y313726D01*
X252019Y312992D01*
X252165Y312258D01*
X252581Y311636D01*
X253203Y311220D01*
X253937Y311074D01*
X254671Y311220D01*
X255293Y311636D01*
X255709Y312258D01*
X255855Y312992D01*
X255709Y313726D01*
X255293Y314348D01*
X254855Y314641D01*
Y317137D01*
X255229Y317293D01*
X255355Y317304D01*
X256628Y316031D01*
X258358D01*
Y317761D01*
X257414Y318705D01*
Y319413D01*
X257417Y319415D01*
X257640Y319545D01*
X258029Y319558D01*
X258208Y319438D01*
X258750Y319330D01*
X259292Y319438D01*
X259720Y319724D01*
X259865Y319787D01*
X260194D01*
X260338Y319724D01*
X260767Y319438D01*
X261309Y319330D01*
X261851Y319438D01*
X262279Y319724D01*
X262424Y319787D01*
X262753D01*
X262897Y319724D01*
X263326Y319438D01*
X263868Y319330D01*
X264410Y319438D01*
X264838Y319724D01*
X264983Y319787D01*
X265312D01*
X265457Y319724D01*
X265885Y319438D01*
X266427Y319330D01*
X266969Y319438D01*
X267428Y319745D01*
X267456Y319787D01*
X267956D01*
X267985Y319745D01*
X268444Y319438D01*
X268986Y319330D01*
X269528Y319438D01*
X269956Y319724D01*
X270101Y319787D01*
X270430D01*
X270575Y319724D01*
X271003Y319438D01*
X271545Y319330D01*
X272087Y319438D01*
X272515Y319724D01*
X272660Y319787D01*
X272989D01*
X273134Y319724D01*
X273562Y319438D01*
X274104Y319330D01*
X274646Y319438D01*
X275074Y319724D01*
X275219Y319787D01*
X275548D01*
X275693Y319724D01*
X276121Y319438D01*
X276663Y319330D01*
X277205Y319438D01*
X277664Y319745D01*
X277693Y319787D01*
X278192D01*
X278221Y319745D01*
X278680Y319438D01*
X279222Y319330D01*
X279764Y319438D01*
X280192Y319724D01*
X280337Y319787D01*
X280666D01*
X280811Y319724D01*
X281239Y319438D01*
X281781Y319330D01*
X282323Y319438D01*
X282783Y319745D01*
X283089Y320205D01*
X283197Y320746D01*
Y326455D01*
X283089Y326997D01*
X282783Y327457D01*
X282323Y327764D01*
X281781Y327871D01*
X281239Y327764D01*
X280811Y327477D01*
X280666Y327414D01*
X280337D01*
X280192Y327477D01*
X279764Y327764D01*
X279222Y327871D01*
X278680Y327764D01*
X278221Y327457D01*
X278192Y327414D01*
X277693D01*
X277664Y327457D01*
X277205Y327764D01*
X276663Y327871D01*
X276121Y327764D01*
X275693Y327477D01*
X275548Y327414D01*
X275219D01*
X275074Y327477D01*
X274646Y327764D01*
X274104Y327871D01*
X273562Y327764D01*
X273134Y327477D01*
X272989Y327414D01*
X272660D01*
X272515Y327477D01*
X272087Y327764D01*
X271545Y327871D01*
X271003Y327764D01*
X270575Y327477D01*
X270430Y327414D01*
X270101D01*
X269956Y327477D01*
X269528Y327764D01*
X268986Y327871D01*
X268444Y327764D01*
X267985Y327457D01*
X267956Y327414D01*
X267456D01*
X267428Y327457D01*
X266969Y327764D01*
X266427Y327871D01*
X265885Y327764D01*
X265457Y327477D01*
X265312Y327414D01*
X264983D01*
X264838Y327477D01*
X264410Y327764D01*
X263868Y327871D01*
X263326Y327764D01*
X263032Y327567D01*
X262534Y327787D01*
X262532Y327789D01*
Y333637D01*
X263038Y334142D01*
X266842D01*
Y339086D01*
X262686D01*
Y337251D01*
X260473Y335038D01*
X260347Y335049D01*
X259973Y335205D01*
Y337967D01*
X262239Y340233D01*
X262686Y340048D01*
Y340048D01*
X266842D01*
Y344991D01*
D02*
G37*
G36*
X205621Y335936D02*
X201465D01*
Y334495D01*
X201377Y334362D01*
X201198Y333465D01*
Y329528D01*
X201377Y328630D01*
X201885Y327869D01*
X202673Y327082D01*
X203433Y326574D01*
X204331Y326395D01*
X205228Y326574D01*
X205989Y327082D01*
X206497Y327843D01*
X206676Y328740D01*
X206497Y329638D01*
X205989Y330398D01*
X205888Y330499D01*
Y333465D01*
X205710Y334362D01*
X205621Y334495D01*
Y335936D01*
D02*
G37*
G36*
X308555Y331193D02*
X306931D01*
X307001Y330842D01*
X307483Y330120D01*
X308204Y329638D01*
X308555Y329569D01*
Y331193D01*
D02*
G37*
G36*
X353831Y334320D02*
X353145Y334229D01*
X352040Y333772D01*
X351090Y333044D01*
X350362Y332094D01*
X349904Y330989D01*
X349814Y330303D01*
X353831D01*
Y334320D01*
D02*
G37*
G36*
X311179Y331193D02*
X309555D01*
Y329569D01*
X309906Y329638D01*
X310628Y330120D01*
X311110Y330842D01*
X311179Y331193D01*
D02*
G37*
G36*
X330224Y325943D02*
Y324319D01*
X331849D01*
X331779Y324670D01*
X331297Y325391D01*
X330575Y325873D01*
X330224Y325943D01*
D02*
G37*
G36*
X164854D02*
X164503Y325873D01*
X163782Y325391D01*
X163300Y324670D01*
X163230Y324319D01*
X164854D01*
Y325943D01*
D02*
G37*
G36*
X353831Y329303D02*
X349814D01*
X349904Y328617D01*
X350362Y327512D01*
X351090Y326563D01*
X352040Y325835D01*
X353145Y325377D01*
X353831Y325287D01*
Y329303D01*
D02*
G37*
G36*
X327173Y329284D02*
Y325591D01*
X326173D01*
Y329284D01*
X325937Y329237D01*
X325314Y328820D01*
X325196Y328645D01*
X324733Y328955D01*
X324114Y329078D01*
X323496Y328955D01*
X323198Y328756D01*
X322835Y328645D01*
X322471Y328756D01*
X322174Y328955D01*
X321555Y329078D01*
X320936Y328955D01*
X320412Y328604D01*
X320139D01*
X319615Y328955D01*
X318996Y329078D01*
X318377Y328955D01*
X317853Y328604D01*
X317502Y328080D01*
X317379Y327461D01*
Y323721D01*
X317502Y323102D01*
X317853Y322577D01*
X318377Y322227D01*
X318996Y322104D01*
X319615Y322227D01*
X319831Y322372D01*
X320332Y322104D01*
Y321078D01*
X318556Y319302D01*
X317213D01*
Y314556D01*
X321241D01*
X321369Y314556D01*
Y314556D01*
X321741D01*
Y314556D01*
X325897D01*
Y318506D01*
X326083Y318658D01*
X350087D01*
Y315560D01*
X358574D01*
Y324046D01*
X350087D01*
Y321105D01*
X330126D01*
X330073Y321155D01*
X330087Y321394D01*
X330229Y321695D01*
X330575Y321764D01*
X331297Y322246D01*
X331779Y322968D01*
X331849Y323319D01*
X329724D01*
Y323819D01*
X329224D01*
Y325943D01*
X329096Y325918D01*
X328650Y326209D01*
X328596Y326289D01*
Y327461D01*
X328450Y328197D01*
X328033Y328820D01*
X327409Y329237D01*
X327173Y329284D01*
D02*
G37*
G36*
X358847Y329303D02*
X354831D01*
Y325287D01*
X355517Y325377D01*
X356622Y325835D01*
X357571Y326563D01*
X358299Y327512D01*
X358757Y328617D01*
X358847Y329303D01*
D02*
G37*
G36*
X354831Y334320D02*
Y330303D01*
X358847D01*
X358757Y330989D01*
X358299Y332094D01*
X357571Y333044D01*
X356622Y333772D01*
X355517Y334229D01*
X354831Y334320D01*
D02*
G37*
G36*
X273047Y336114D02*
X271169D01*
Y333842D01*
X273047D01*
Y336114D01*
D02*
G37*
G36*
X270169D02*
X268291D01*
Y333842D01*
X270169D01*
Y336114D01*
D02*
G37*
G36*
X220192Y336039D02*
X218117D01*
Y333965D01*
X220192D01*
Y336039D01*
D02*
G37*
G36*
X309539Y338402D02*
X307268D01*
Y336327D01*
X309539D01*
Y338402D01*
D02*
G37*
G36*
X223267Y336039D02*
X221192D01*
Y333965D01*
X223267D01*
Y336039D01*
D02*
G37*
G36*
Y332965D02*
X221192D01*
Y330890D01*
X223267D01*
Y332965D01*
D02*
G37*
G36*
X220192D02*
X218117D01*
Y330890D01*
X220192D01*
Y332965D01*
D02*
G37*
G36*
X211527Y335936D02*
X207371D01*
Y330993D01*
X211527D01*
Y331527D01*
X212118D01*
Y331190D01*
X216668D01*
Y335739D01*
X212118D01*
Y335402D01*
X211527D01*
Y335936D01*
D02*
G37*
G36*
X72237Y335957D02*
X65461D01*
Y331477D01*
X67323D01*
X68612Y331647D01*
X69813Y332144D01*
X70844Y332936D01*
X71635Y333967D01*
X72133Y335168D01*
X72237Y335957D01*
D02*
G37*
G36*
X64461D02*
X57685D01*
X57788Y335168D01*
X58286Y333967D01*
X59077Y332936D01*
X60109Y332144D01*
X61310Y331647D01*
X62598Y331477D01*
X64461D01*
Y335957D01*
D02*
G37*
G36*
X144283Y313476D02*
X139276D01*
Y307622D01*
X144283D01*
Y313476D01*
D02*
G37*
G36*
X323819Y313926D02*
X323085Y313780D01*
X322463Y313364D01*
X322047Y312742D01*
X321901Y312008D01*
X321932Y311851D01*
X320690Y310609D01*
X320425Y310212D01*
X320332Y309744D01*
Y307817D01*
X319832Y307550D01*
X319615Y307695D01*
X318996Y307818D01*
X318377Y307695D01*
X317853Y307344D01*
X317502Y306820D01*
X317379Y306201D01*
Y305554D01*
X313495D01*
Y307393D01*
X311377D01*
X311024Y307463D01*
X311011D01*
X308745Y309729D01*
X307984Y310237D01*
X307087Y310416D01*
X306189Y310237D01*
X305428Y309729D01*
X304920Y308968D01*
X304742Y308071D01*
X304920Y307173D01*
X305428Y306413D01*
X308381Y303460D01*
X308552Y303346D01*
Y302843D01*
X309686D01*
X310039Y302773D01*
X311024D01*
X311377Y302843D01*
X313495D01*
Y303107D01*
X317379D01*
Y302461D01*
X317502Y301842D01*
X317853Y301317D01*
X318377Y300967D01*
X318996Y300844D01*
X319615Y300967D01*
X320139Y301317D01*
X320412D01*
X320936Y300967D01*
X321555Y300844D01*
X322174Y300967D01*
X322391Y301112D01*
X322891Y300844D01*
Y300192D01*
X322835Y300146D01*
X322101Y300000D01*
X321479Y299585D01*
X321063Y298962D01*
X320917Y298228D01*
X321063Y297494D01*
X321479Y296872D01*
X322101Y296456D01*
X322835Y296310D01*
X323569Y296456D01*
X324191Y296872D01*
X324607Y297494D01*
X324753Y298228D01*
X324722Y298385D01*
X324979Y298643D01*
X325245Y299040D01*
X325338Y299508D01*
Y300844D01*
X325838Y301112D01*
X326055Y300967D01*
X326673Y300844D01*
X327292Y300967D01*
X327817Y301317D01*
X328167Y301842D01*
X328290Y302461D01*
Y303107D01*
X328937D01*
X329405Y303200D01*
X329802Y303466D01*
X330552Y304216D01*
X330709Y304184D01*
X331443Y304330D01*
X332065Y304746D01*
X332481Y305368D01*
X332627Y306102D01*
X332481Y306836D01*
X332065Y307459D01*
X331443Y307874D01*
X330709Y308020D01*
X329975Y307874D01*
X329352Y307459D01*
X328937Y306836D01*
X328855Y306428D01*
X328765Y306375D01*
X328206Y306624D01*
X328167Y306820D01*
X327817Y307344D01*
X327292Y307695D01*
X326673Y307818D01*
X326055Y307695D01*
X325530Y307344D01*
X325258D01*
X324733Y307695D01*
X324114Y307818D01*
X323496Y307695D01*
X323279Y307550D01*
X322779Y307817D01*
Y309237D01*
X323662Y310121D01*
X323819Y310090D01*
X324553Y310236D01*
X325175Y310652D01*
X325591Y311274D01*
X325737Y312008D01*
X325591Y312742D01*
X325175Y313364D01*
X324553Y313780D01*
X323819Y313926D01*
D02*
G37*
G36*
X150291Y313476D02*
X145283D01*
Y307622D01*
X150291D01*
Y313476D01*
D02*
G37*
G36*
X242282Y311508D02*
X240657D01*
Y309883D01*
X241008Y309953D01*
X241730Y310435D01*
X242212Y311157D01*
X242282Y311508D01*
D02*
G37*
G36*
X239657D02*
X238033D01*
X238103Y311157D01*
X238585Y310435D01*
X239306Y309953D01*
X239657Y309883D01*
Y311508D01*
D02*
G37*
G36*
X178634Y313673D02*
X176030D01*
Y306283D01*
X178634D01*
Y313673D01*
D02*
G37*
G36*
X168837D02*
X166232D01*
Y306283D01*
X168837D01*
Y313673D01*
D02*
G37*
G36*
X213280Y308424D02*
X212929Y308354D01*
X212207Y307872D01*
X211725Y307150D01*
X211655Y306799D01*
X213280D01*
Y308424D01*
D02*
G37*
G36*
X187008Y334642D02*
X115748D01*
X114730Y334508D01*
X113781Y334115D01*
X112967Y333490D01*
X107735Y328259D01*
X105796D01*
Y322135D01*
X107820D01*
X108269Y321790D01*
X109218Y321397D01*
X110236Y321263D01*
X111254Y321397D01*
X112203Y321790D01*
X112652Y322135D01*
X114676D01*
Y324074D01*
X117377Y326775D01*
X178312D01*
X178478Y326275D01*
X178064Y325654D01*
X178022Y325447D01*
X177764Y325189D01*
X177344Y324560D01*
X177197Y323819D01*
Y322063D01*
X176030D01*
Y314673D01*
X179134D01*
X182238D01*
Y322063D01*
X181071D01*
Y322817D01*
X181691Y323231D01*
X182173Y323952D01*
X182243Y324303D01*
X180118D01*
Y325303D01*
X182243D01*
X182173Y325654D01*
X181758Y326275D01*
X181924Y326775D01*
X185379D01*
X188602Y323552D01*
Y321763D01*
X183030D01*
Y307410D01*
X182700Y307080D01*
X182238Y307271D01*
Y313673D01*
X179634D01*
Y306283D01*
X181251D01*
X181442Y305821D01*
X174225Y298605D01*
X144672D01*
X134046Y309231D01*
Y320031D01*
X123631D01*
Y307922D01*
X126494D01*
Y298141D01*
X121938D01*
Y286898D01*
X135936D01*
Y298141D01*
X131184D01*
Y304807D01*
X131646Y304999D01*
X142043Y294602D01*
X142803Y294093D01*
X143701Y293915D01*
X175197D01*
X176094Y294093D01*
X176855Y294602D01*
X187493Y305239D01*
X187493Y305239D01*
X188001Y306000D01*
X188117Y306583D01*
X188639D01*
Y311689D01*
X189096Y311804D01*
X189139Y311800D01*
X189731Y311028D01*
Y306190D01*
X195340D01*
Y311028D01*
X195942Y311813D01*
X196335Y312761D01*
X196469Y313780D01*
Y325181D01*
X196335Y326199D01*
X195942Y327148D01*
X195317Y327963D01*
X189789Y333490D01*
X188975Y334115D01*
X188026Y334508D01*
X187008Y334642D01*
D02*
G37*
G36*
X214280Y308424D02*
Y306799D01*
X215904D01*
X215834Y307150D01*
X215352Y307872D01*
X214631Y308354D01*
X214280Y308424D01*
D02*
G37*
G36*
X242929Y315642D02*
X240158D01*
X237386D01*
Y313567D01*
X238046D01*
X238281Y313126D01*
X238103Y312859D01*
X238033Y312508D01*
X242282D01*
X242212Y312859D01*
X242034Y313126D01*
X242269Y313567D01*
X242929D01*
Y315642D01*
D02*
G37*
G36*
X239657Y318716D02*
X237386D01*
Y316642D01*
X239657D01*
Y318716D01*
D02*
G37*
G36*
X259358Y317655D02*
Y316031D01*
X260983D01*
X260913Y316382D01*
X260431Y317103D01*
X259709Y317585D01*
X259358Y317655D01*
D02*
G37*
G36*
X242929Y318716D02*
X240657D01*
Y316642D01*
X242929D01*
Y318716D01*
D02*
G37*
G36*
X140248Y323975D02*
X139897Y323905D01*
X139175Y323423D01*
X138693Y322701D01*
X138624Y322350D01*
X140248D01*
Y323975D01*
D02*
G37*
G36*
X230315Y325180D02*
X229417Y325001D01*
X228657Y324493D01*
X228148Y323732D01*
X227970Y322835D01*
X228148Y321937D01*
X228657Y321176D01*
X229641Y320192D01*
X230402Y319684D01*
X231299Y319505D01*
X231299Y319505D01*
X233524D01*
X233551Y319487D01*
X234449Y319309D01*
X240158D01*
X240511Y319379D01*
X242629D01*
Y323928D01*
X240511D01*
X240158Y323999D01*
X235177D01*
X235149Y324017D01*
X234252Y324196D01*
X232271D01*
X231973Y324493D01*
X231212Y325001D01*
X230315Y325180D01*
D02*
G37*
G36*
X258358Y315031D02*
X256734D01*
X256804Y314680D01*
X257286Y313958D01*
X258007Y313476D01*
X258358Y313406D01*
Y315031D01*
D02*
G37*
G36*
X236724Y318023D02*
X231780D01*
Y313867D01*
X233029D01*
Y310526D01*
X232780Y310423D01*
X232171Y309956D01*
X231703Y309346D01*
X231409Y308636D01*
X231308Y307874D01*
X231315D01*
X231389Y307503D01*
X231416Y307463D01*
X231559Y307087D01*
X231416Y306710D01*
X231389Y306670D01*
X231315Y306299D01*
X231308D01*
X231409Y305537D01*
X231703Y304827D01*
X232171Y304218D01*
X232780Y303750D01*
X233048Y303639D01*
X233029Y303543D01*
Y302165D01*
X233122Y301697D01*
X233387Y301300D01*
X234812Y299875D01*
X234648Y299332D01*
X234521Y299307D01*
X232957Y300871D01*
X232197Y301379D01*
X231299Y301558D01*
X230402Y301379D01*
X229641Y300871D01*
X229133Y300110D01*
X228954Y299213D01*
X229133Y298315D01*
X229641Y297554D01*
X230436Y296760D01*
X233268D01*
X235646D01*
Y298582D01*
X236146Y298988D01*
X236221Y298973D01*
X236696D01*
X237095Y298731D01*
Y293788D01*
X241251D01*
Y294753D01*
X241288Y294807D01*
X241381Y295276D01*
X241288Y295744D01*
X241251Y295799D01*
Y298576D01*
X241649Y298973D01*
X244639D01*
X247097Y296515D01*
Y293975D01*
X247205Y293433D01*
X247512Y292973D01*
X247971Y292667D01*
X248513Y292559D01*
X248850Y292626D01*
X249096Y292165D01*
X247525Y290594D01*
X241251D01*
Y292826D01*
X237095D01*
Y287883D01*
X241251D01*
Y288147D01*
X248031D01*
X248376Y288215D01*
X248658Y287790D01*
X246540Y285672D01*
X241251D01*
Y286920D01*
X237095D01*
Y281977D01*
X241251D01*
Y283225D01*
X247047D01*
X247516Y283318D01*
X247912Y283584D01*
X254497Y290168D01*
X254762Y290565D01*
X254855Y291033D01*
Y292641D01*
X254857Y292643D01*
X255355Y292863D01*
X255649Y292667D01*
X256190Y292559D01*
X256733Y292667D01*
X257192Y292973D01*
X257220Y293016D01*
X257720D01*
X257748Y292973D01*
X258208Y292667D01*
X258750Y292559D01*
X259292Y292667D01*
X259389Y292731D01*
X259900Y292502D01*
X259942Y292184D01*
X248509Y280751D01*
X240158D01*
X239689Y280658D01*
X239292Y280393D01*
X232631Y273731D01*
X230796D01*
Y269576D01*
X235739D01*
Y273379D01*
X236154Y273794D01*
X236270Y273799D01*
X236702Y273417D01*
X236702Y273272D01*
Y269576D01*
X241645D01*
Y273379D01*
X242059Y273794D01*
X242175Y273799D01*
X242607Y273417D01*
X242607Y273272D01*
Y269576D01*
X247551D01*
Y273731D01*
X247551D01*
X247482Y273897D01*
X247828Y274367D01*
X249890D01*
X250148Y273867D01*
X250052Y273731D01*
X248513D01*
Y269576D01*
X253456D01*
Y273379D01*
X253871Y273794D01*
X253986Y273799D01*
X254418Y273418D01*
X254418Y273272D01*
Y269576D01*
X259361D01*
Y273731D01*
X258113D01*
Y275084D01*
X261110Y278080D01*
X261572Y277889D01*
Y273731D01*
X260324D01*
Y269576D01*
X265267D01*
Y273731D01*
X264019D01*
Y278036D01*
X274969Y288987D01*
X275234Y289384D01*
X275327Y289852D01*
Y292641D01*
X275329Y292643D01*
X275827Y292863D01*
X276121Y292667D01*
X276663Y292559D01*
X277205Y292667D01*
X277664Y292973D01*
X277693Y293016D01*
X278192D01*
X278221Y292973D01*
X278680Y292667D01*
X279222Y292559D01*
X279764Y292667D01*
X279943Y292786D01*
X280036Y292783D01*
X280156Y292653D01*
X280091Y292039D01*
X279924Y291927D01*
X279441Y291205D01*
X279372Y290854D01*
X283620D01*
X283551Y291205D01*
X283069Y291927D01*
X283005Y291969D01*
Y292766D01*
X283372Y293316D01*
X283503Y293975D01*
Y296329D01*
X281781D01*
Y296829D01*
X281281D01*
Y301306D01*
X281122Y301274D01*
X280563Y300901D01*
X279943Y300872D01*
X279764Y300992D01*
X279222Y301100D01*
X278680Y300992D01*
X278221Y300685D01*
X278192Y300643D01*
X277693D01*
X277664Y300685D01*
X277205Y300992D01*
X276663Y301100D01*
X276121Y300992D01*
X275693Y300706D01*
X275548Y300643D01*
X275219D01*
X275074Y300706D01*
X274646Y300992D01*
X274104Y301100D01*
X273562Y300992D01*
X273134Y300706D01*
X272989Y300643D01*
X272660D01*
X272515Y300706D01*
X272087Y300992D01*
X271545Y301100D01*
X271003Y300992D01*
X270575Y300706D01*
X270430Y300643D01*
X270101D01*
X269956Y300706D01*
X269528Y300992D01*
X268986Y301100D01*
X268444Y300992D01*
X267985Y300685D01*
X267956Y300643D01*
X267456D01*
X267428Y300685D01*
X266969Y300992D01*
X266427Y301100D01*
X265885Y300992D01*
X265457Y300706D01*
X265312Y300643D01*
X264983D01*
X264838Y300706D01*
X264410Y300992D01*
X263868Y301100D01*
X263326Y300992D01*
X262897Y300706D01*
X262753Y300643D01*
X262424D01*
X262279Y300706D01*
X261851Y300992D01*
X261309Y301100D01*
X260884Y301015D01*
X260527Y301167D01*
X260337Y301306D01*
X260303Y301541D01*
X266054Y307292D01*
X288816D01*
Y306043D01*
X292972D01*
Y310987D01*
X288816D01*
Y309738D01*
X265547D01*
X265079Y309645D01*
X264682Y309380D01*
X257986Y302684D01*
X257861Y302695D01*
X257486Y302851D01*
Y303824D01*
X267854Y314192D01*
X288916D01*
Y312943D01*
X293072D01*
Y317887D01*
X288916D01*
Y316638D01*
X267347D01*
X266879Y316545D01*
X266482Y316280D01*
X255398Y305196D01*
X255133Y304799D01*
X255039Y304330D01*
Y300969D01*
X254878Y300856D01*
X254539Y300747D01*
X254173Y300992D01*
X253631Y301100D01*
X253090Y300992D01*
X252661Y300706D01*
X252517Y300643D01*
X252187D01*
X252043Y300706D01*
X251614Y300992D01*
X251073Y301100D01*
X250531Y300992D01*
X250071Y300685D01*
X250043Y300643D01*
X249543D01*
X249515Y300685D01*
X249055Y300992D01*
X248513Y301100D01*
X247971Y300992D01*
X247512Y300685D01*
X247345Y300435D01*
X246753Y300320D01*
X246011Y301062D01*
X245614Y301327D01*
X245146Y301420D01*
X236727D01*
X235475Y302672D01*
Y303543D01*
X235456Y303639D01*
X235724Y303750D01*
X236333Y304218D01*
X236801Y304827D01*
X237095Y305537D01*
X237196Y306299D01*
X237189D01*
X237116Y306670D01*
X237089Y306710D01*
X236945Y307087D01*
X237089Y307463D01*
X237116Y307503D01*
X237189Y307874D01*
X237196D01*
X237095Y308636D01*
X236801Y309346D01*
X236333Y309956D01*
X235724Y310423D01*
X235475Y310526D01*
Y313867D01*
X236724D01*
Y318023D01*
D02*
G37*
G36*
X260983Y315031D02*
X259358D01*
Y313406D01*
X259709Y313476D01*
X260431Y313958D01*
X260913Y314680D01*
X260983Y315031D01*
D02*
G37*
G36*
X165854Y325943D02*
Y323819D01*
X165354D01*
Y323319D01*
X163230D01*
X163300Y322968D01*
X163570Y322563D01*
X163303Y322063D01*
X162628D01*
Y314673D01*
X165732D01*
X168837D01*
Y322063D01*
X167669D01*
Y323441D01*
X167522Y324182D01*
X167499Y324217D01*
X167409Y324670D01*
X166927Y325391D01*
X166205Y325873D01*
X165854Y325943D01*
D02*
G37*
G36*
X141248Y323975D02*
Y321850D01*
X140748D01*
Y321350D01*
X138624D01*
X138693Y320999D01*
X139175Y320278D01*
X139276Y320211D01*
Y314476D01*
X144783D01*
X150291D01*
Y320331D01*
X145007D01*
X142844Y322494D01*
X142803Y322701D01*
X142321Y323423D01*
X141599Y323905D01*
X141248Y323975D01*
D02*
G37*
G36*
X64461Y341436D02*
X62598D01*
X61310Y341267D01*
X60109Y340769D01*
X59077Y339978D01*
X58286Y338947D01*
X57788Y337745D01*
X57685Y336957D01*
X64461D01*
Y341436D01*
D02*
G37*
G36*
X343857Y356193D02*
X342232D01*
Y354569D01*
X342583Y354638D01*
X343305Y355120D01*
X343787Y355842D01*
X343857Y356193D01*
D02*
G37*
G36*
X341232D02*
X339608D01*
X339678Y355842D01*
X340160Y355120D01*
X340881Y354638D01*
X341232Y354569D01*
Y356193D01*
D02*
G37*
G36*
X237295Y357242D02*
X236944Y357173D01*
X236223Y356691D01*
X235741Y355969D01*
X235671Y355618D01*
X237295D01*
Y357242D01*
D02*
G37*
G36*
X353831Y357636D02*
X353480Y357566D01*
X352758Y357084D01*
X352276Y356363D01*
X352206Y356012D01*
X353831D01*
Y357636D01*
D02*
G37*
G36*
X238295Y357242D02*
Y355618D01*
X239920D01*
X239850Y355969D01*
X239368Y356691D01*
X238646Y357173D01*
X238295Y357242D01*
D02*
G37*
G36*
X353831Y355012D02*
X352206D01*
X352276Y354661D01*
X352758Y353939D01*
X353480Y353457D01*
X353831Y353387D01*
Y355012D01*
D02*
G37*
G36*
X239920Y354618D02*
X238295D01*
Y352994D01*
X238646Y353064D01*
X239368Y353546D01*
X239850Y354267D01*
X239920Y354618D01*
D02*
G37*
G36*
X356455Y355012D02*
X354831D01*
Y353387D01*
X355182Y353457D01*
X355903Y353939D01*
X356385Y354661D01*
X356455Y355012D01*
D02*
G37*
G36*
X289083Y355668D02*
Y354043D01*
X290707D01*
X290637Y354394D01*
X290155Y355116D01*
X289434Y355598D01*
X289083Y355668D01*
D02*
G37*
G36*
X288083D02*
X287732Y355598D01*
X287010Y355116D01*
X286528Y354394D01*
X286458Y354043D01*
X288083D01*
Y355668D01*
D02*
G37*
G36*
X354831Y357636D02*
Y356012D01*
X356455D01*
X356385Y356363D01*
X355903Y357084D01*
X355182Y357566D01*
X354831Y357636D01*
D02*
G37*
G36*
X257193Y364723D02*
Y363098D01*
X258817D01*
X258748Y363449D01*
X258265Y364171D01*
X257544Y364653D01*
X257193Y364723D01*
D02*
G37*
G36*
X256193D02*
X255842Y364653D01*
X255120Y364171D01*
X254638Y363449D01*
X254569Y363098D01*
X256193D01*
Y364723D01*
D02*
G37*
G36*
X122559Y399904D02*
X120596Y399750D01*
X118681Y399290D01*
X116862Y398536D01*
X115182Y397507D01*
X113685Y396228D01*
X112406Y394731D01*
X111377Y393052D01*
X110624Y391232D01*
X110164Y389318D01*
X110009Y387354D01*
X110164Y385391D01*
X110624Y383476D01*
X111377Y381657D01*
X112406Y379978D01*
X113685Y378480D01*
X115182Y377202D01*
X116862Y376172D01*
X118681Y375419D01*
X120596Y374959D01*
X122559Y374805D01*
X124522Y374959D01*
X126437Y375419D01*
X128256Y376172D01*
X129936Y377202D01*
X131433Y378480D01*
X132712Y379978D01*
X133741Y381657D01*
X134494Y383476D01*
X134954Y385391D01*
X135109Y387354D01*
X134954Y389318D01*
X134494Y391232D01*
X133741Y393052D01*
X132712Y394731D01*
X131433Y396228D01*
X129936Y397507D01*
X128256Y398536D01*
X126437Y399290D01*
X124522Y399750D01*
X122559Y399904D01*
D02*
G37*
G36*
X181000Y381900D02*
X177579D01*
X177649Y381368D01*
X178047Y380407D01*
X178681Y379581D01*
X179507Y378947D01*
X180468Y378549D01*
X181000Y378479D01*
Y381900D01*
D02*
G37*
G36*
X350906Y399904D02*
X348942Y399750D01*
X347027Y399290D01*
X345208Y398536D01*
X343529Y397507D01*
X342032Y396228D01*
X340753Y394731D01*
X339724Y393052D01*
X338970Y391232D01*
X338510Y389318D01*
X338356Y387354D01*
X338510Y385391D01*
X338970Y383476D01*
X339724Y381657D01*
X340753Y379978D01*
X342032Y378480D01*
X343529Y377202D01*
X345208Y376172D01*
X347027Y375419D01*
X348942Y374959D01*
X350906Y374805D01*
X352869Y374959D01*
X354784Y375419D01*
X356603Y376172D01*
X358282Y377202D01*
X359780Y378480D01*
X361058Y379978D01*
X362087Y381657D01*
X362841Y383476D01*
X363301Y385391D01*
X363455Y387354D01*
X363301Y389318D01*
X362841Y391232D01*
X362087Y393052D01*
X361058Y394731D01*
X359780Y396228D01*
X358282Y397507D01*
X356603Y398536D01*
X354784Y399290D01*
X352869Y399750D01*
X350906Y399904D01*
D02*
G37*
G36*
X342232Y358817D02*
Y357193D01*
X343857D01*
X343787Y357544D01*
X343305Y358265D01*
X342583Y358748D01*
X342232Y358817D01*
D02*
G37*
G36*
X341232D02*
X340881Y358748D01*
X340160Y358265D01*
X339678Y357544D01*
X339608Y357193D01*
X341232D01*
Y358817D01*
D02*
G37*
G36*
X98425Y376965D02*
X97407Y376831D01*
X96458Y376438D01*
X95644Y375813D01*
X95019Y374998D01*
X94626Y374050D01*
X94491Y373031D01*
Y365158D01*
X94626Y364139D01*
X95019Y363191D01*
X95457Y362620D01*
Y359039D01*
X97925D01*
Y365158D01*
X98925D01*
Y359039D01*
X101394D01*
Y362620D01*
X101832Y363191D01*
X102225Y364139D01*
X102359Y365158D01*
Y373031D01*
X102225Y374050D01*
X101832Y374998D01*
X101207Y375813D01*
X100392Y376438D01*
X99443Y376831D01*
X98425Y376965D01*
D02*
G37*
G36*
X258817Y362098D02*
X257193D01*
Y360474D01*
X257544Y360544D01*
X258265Y361026D01*
X258748Y361747D01*
X258817Y362098D01*
D02*
G37*
G36*
X256193D02*
X254569D01*
X254638Y361747D01*
X255120Y361026D01*
X255842Y360544D01*
X256193Y360474D01*
Y362098D01*
D02*
G37*
G36*
X237295Y354618D02*
X235671D01*
X235741Y354267D01*
X236223Y353546D01*
X236944Y353064D01*
X237295Y352994D01*
Y354618D01*
D02*
G37*
G36*
X141270Y342851D02*
X139195D01*
Y340776D01*
X141270D01*
Y342851D01*
D02*
G37*
G36*
X211701Y344007D02*
X207545D01*
Y342565D01*
X207456Y342433D01*
X207278Y341535D01*
X207456Y340638D01*
X207545Y340505D01*
Y339064D01*
X211701D01*
Y339190D01*
X214567D01*
X214920Y339261D01*
X216842D01*
Y341182D01*
X216912Y341535D01*
X216842Y341889D01*
Y343810D01*
X214920D01*
X214567Y343881D01*
X211701D01*
Y344007D01*
D02*
G37*
G36*
X64283Y396881D02*
X55796D01*
Y388394D01*
X56106D01*
Y361378D01*
X56240Y360360D01*
X56633Y359411D01*
X57258Y358596D01*
X58112Y357742D01*
X58081Y357667D01*
X57921Y356457D01*
X58081Y355246D01*
X58548Y354118D01*
X59291Y353150D01*
X60260Y352406D01*
X61388Y351939D01*
X62598Y351780D01*
X67323D01*
X68533Y351939D01*
X68636Y351982D01*
X86617Y334001D01*
Y319882D01*
Y299959D01*
X83552D01*
Y292653D01*
X89179D01*
X89533Y292507D01*
X90551Y292372D01*
X91569Y292507D01*
X91924Y292653D01*
X97550D01*
Y299959D01*
X94485D01*
Y309732D01*
X94947Y309923D01*
X95053Y309817D01*
X95868Y309192D01*
X96816Y308799D01*
X97835Y308665D01*
X110236D01*
X111254Y308799D01*
X112203Y309192D01*
X112652Y309536D01*
X114676D01*
Y315661D01*
X112652D01*
X112203Y316005D01*
X111254Y316398D01*
X110236Y316532D01*
X99464D01*
X94485Y321511D01*
Y334001D01*
X101207Y340722D01*
X101832Y341537D01*
X102130Y342258D01*
X102687Y342408D01*
X103214Y341881D01*
X103842Y341461D01*
X104583Y341314D01*
X120340D01*
Y340779D01*
X124496D01*
Y345723D01*
X120340D01*
Y345188D01*
X105386D01*
X102359Y348215D01*
Y349409D01*
X102225Y350428D01*
X101832Y351376D01*
X101207Y352191D01*
X101094Y352278D01*
Y355228D01*
X95757D01*
Y352278D01*
X95644Y352191D01*
X95019Y351376D01*
X94626Y350428D01*
X94491Y349409D01*
Y345133D01*
X90551Y341193D01*
X72506Y359238D01*
X71691Y359863D01*
X70742Y360256D01*
X69832Y360376D01*
X69661Y360507D01*
X68533Y360974D01*
X67323Y361134D01*
X65847D01*
X63973Y363007D01*
Y388394D01*
X64283D01*
Y396881D01*
D02*
G37*
G36*
X144345Y345926D02*
X142270D01*
Y343351D01*
Y340776D01*
X144345D01*
Y341414D01*
X144996D01*
X145169Y341380D01*
Y343504D01*
Y345628D01*
X144845Y345564D01*
X144811Y345563D01*
X144345Y345844D01*
Y345926D01*
D02*
G37*
G36*
X130402Y345723D02*
X126246D01*
Y340779D01*
X130402D01*
Y341518D01*
X131771D01*
X132274Y341618D01*
X133196D01*
Y341076D01*
X137746D01*
Y345626D01*
X133196D01*
Y345085D01*
X131871D01*
X131368Y344985D01*
X130402D01*
Y345723D01*
D02*
G37*
G36*
X273047Y342020D02*
X270669D01*
X268291D01*
Y339748D01*
X268291D01*
Y339386D01*
X268291D01*
Y337114D01*
X270669D01*
X273047D01*
Y339386D01*
X273047D01*
Y339748D01*
X273047D01*
Y342020D01*
D02*
G37*
G36*
X67323Y341436D02*
X65461D01*
Y336957D01*
X72237D01*
X72133Y337745D01*
X71635Y338947D01*
X70844Y339978D01*
X69813Y340769D01*
X68612Y341267D01*
X67323Y341436D01*
D02*
G37*
G36*
X164854Y340248D02*
X162583D01*
Y338173D01*
X164854D01*
Y340248D01*
D02*
G37*
G36*
X223441Y344110D02*
X221366D01*
Y341535D01*
Y338961D01*
X223441D01*
Y339190D01*
X224410D01*
X225307Y339369D01*
X226068Y339877D01*
X226576Y340638D01*
X226754Y341535D01*
X226576Y342433D01*
X226068Y343194D01*
X225307Y343702D01*
X224410Y343881D01*
X223441D01*
Y344110D01*
D02*
G37*
G36*
X220366Y341035D02*
X218291D01*
Y338961D01*
X220366D01*
Y341035D01*
D02*
G37*
G36*
X147794Y343004D02*
X146169D01*
Y341380D01*
X146520Y341449D01*
X147242Y341931D01*
X147724Y342653D01*
X147794Y343004D01*
D02*
G37*
G36*
X272153Y349565D02*
Y347941D01*
X273778D01*
X273708Y348292D01*
X273226Y349013D01*
X272505Y349496D01*
X272153Y349565D01*
D02*
G37*
G36*
X88285Y396881D02*
X79798D01*
Y388395D01*
X88285D01*
Y390026D01*
X88785Y390182D01*
X113499Y365468D01*
X114260Y364959D01*
X115157Y364781D01*
X179147D01*
X192537Y351391D01*
Y347248D01*
X192037Y347199D01*
X192015Y347308D01*
X191533Y348029D01*
X190812Y348511D01*
X190461Y348581D01*
Y346457D01*
X189461D01*
Y348581D01*
X189295Y348548D01*
X188795Y348835D01*
Y348835D01*
X186524D01*
Y346260D01*
X185524D01*
Y348835D01*
X183252D01*
Y346425D01*
X180694D01*
Y348776D01*
X180751Y349058D01*
Y352683D01*
X180603Y353424D01*
X180183Y354052D01*
X179519Y354716D01*
X178891Y355136D01*
X178150Y355284D01*
X177408Y355136D01*
X176780Y354716D01*
X176360Y354088D01*
X176212Y353346D01*
X176297Y352920D01*
X175928Y352420D01*
X175573D01*
Y349058D01*
X174573D01*
Y352420D01*
X172892D01*
Y352120D01*
X172273D01*
X170661Y353732D01*
X170033Y354152D01*
X169291Y354299D01*
X168550Y354152D01*
X167921Y353732D01*
X167502Y353103D01*
X167354Y352362D01*
X167502Y351621D01*
X167921Y350992D01*
X169396Y349518D01*
Y349058D01*
X169452Y348776D01*
Y346393D01*
X168875Y346278D01*
X168326Y345911D01*
X167826Y346060D01*
Y348535D01*
X166396D01*
X165831Y349099D01*
X165071Y349607D01*
X164173Y349786D01*
X161417D01*
X160520Y349607D01*
X159759Y349099D01*
X159251Y348338D01*
X159072Y347441D01*
X159251Y346544D01*
X159759Y345783D01*
X160520Y345274D01*
X161417Y345096D01*
X162883D01*
Y343985D01*
X165001D01*
X165286Y343928D01*
X165447Y343690D01*
X165539Y343466D01*
X165424Y343323D01*
X162583D01*
Y341248D01*
X165354D01*
Y340748D01*
X165854D01*
Y338173D01*
X168126D01*
Y340259D01*
X168990Y341123D01*
X169452Y340931D01*
Y336547D01*
X173214D01*
Y342551D01*
X176932D01*
Y340934D01*
X176647Y340507D01*
X176468Y339609D01*
X176647Y338712D01*
X176932Y338284D01*
Y336547D01*
X180694D01*
Y337264D01*
X187963D01*
X193224Y332003D01*
X193984Y331495D01*
X194882Y331316D01*
X195779Y331495D01*
X196540Y332003D01*
X197048Y332764D01*
X197227Y333661D01*
X197048Y334559D01*
X196540Y335320D01*
X193760Y338100D01*
X193915Y338651D01*
X194572Y339090D01*
X194672Y339190D01*
X201639D01*
Y339064D01*
X205795D01*
Y340505D01*
X205884Y340638D01*
X206062Y341535D01*
X205884Y342433D01*
X205795Y342565D01*
Y344007D01*
X201639D01*
Y343881D01*
X199790D01*
X197227Y346444D01*
Y352362D01*
X197048Y353260D01*
X196540Y354020D01*
X181776Y368784D01*
X181016Y369292D01*
X180118Y369471D01*
X116129D01*
X91304Y394296D01*
X90543Y394804D01*
X89646Y394983D01*
X88285D01*
Y396881D01*
D02*
G37*
G36*
X328740Y352312D02*
X328006Y352166D01*
X327384Y351750D01*
X327049Y351249D01*
X326926Y351218D01*
X326618D01*
X326494Y351249D01*
X326159Y351750D01*
X325537Y352166D01*
X324803Y352312D01*
X324069Y352166D01*
X323447Y351750D01*
X323252Y351458D01*
X322954Y351259D01*
X320690Y348995D01*
X320425Y348598D01*
X320332Y348130D01*
Y345219D01*
X319831Y344951D01*
X319615Y345096D01*
X318996Y345219D01*
X318377Y345096D01*
X317853Y344746D01*
X317502Y344221D01*
X317379Y343602D01*
Y342956D01*
X312511D01*
Y343614D01*
X311081D01*
X308447Y346247D01*
Y346457D01*
X308269Y347354D01*
X307761Y348115D01*
X307000Y348623D01*
X306102Y348802D01*
X305205Y348623D01*
X304444Y348115D01*
X303936Y347354D01*
X303757Y346457D01*
Y345276D01*
X303936Y344378D01*
X304444Y343618D01*
X307568Y340494D01*
Y339064D01*
X309686D01*
X310039Y338994D01*
X310393Y339064D01*
X312511D01*
Y340509D01*
X317379D01*
Y339862D01*
X317502Y339243D01*
X317853Y338719D01*
X318377Y338368D01*
X318531Y338338D01*
X318482Y337838D01*
X315945D01*
X315477Y337744D01*
X315131Y337514D01*
X314961Y337548D01*
X314227Y337402D01*
X313604Y336986D01*
X313311Y336547D01*
X312811Y336699D01*
Y338402D01*
X310539D01*
Y335827D01*
X310039D01*
Y335327D01*
X307268D01*
Y333252D01*
X307268D01*
X307359Y333081D01*
X307001Y332544D01*
X306931Y332193D01*
X311179D01*
X311110Y332544D01*
X310931Y332811D01*
X311167Y333252D01*
X312811D01*
Y334561D01*
X313311Y334713D01*
X313604Y334274D01*
X314227Y333858D01*
X314961Y333712D01*
X315695Y333858D01*
X316317Y334274D01*
X316733Y334896D01*
X316831Y335391D01*
X322835D01*
X323303Y335484D01*
X323700Y335749D01*
X324979Y337029D01*
X325245Y337426D01*
X325338Y337894D01*
Y338246D01*
X325838Y338513D01*
X326055Y338368D01*
X326673Y338245D01*
X327292Y338368D01*
X327817Y338719D01*
X328167Y339243D01*
X328290Y339862D01*
Y343602D01*
X328167Y344221D01*
X327897Y344626D01*
Y347820D01*
X328584Y348507D01*
X328740Y348476D01*
X329474Y348622D01*
X330096Y349038D01*
X330512Y349660D01*
X330658Y350394D01*
X330512Y351128D01*
X330096Y351750D01*
X329474Y352166D01*
X328740Y352312D01*
D02*
G37*
G36*
X290707Y353043D02*
X289083D01*
Y351419D01*
X289434Y351489D01*
X290155Y351971D01*
X290637Y352692D01*
X290707Y353043D01*
D02*
G37*
G36*
X288083D02*
X286458D01*
X286528Y352692D01*
X287010Y351971D01*
X287732Y351489D01*
X288083Y351419D01*
Y353043D01*
D02*
G37*
G36*
X141270Y345926D02*
X139195D01*
Y343851D01*
X141270D01*
Y345926D01*
D02*
G37*
G36*
X220366Y344110D02*
X218291D01*
Y342035D01*
X220366D01*
Y344110D01*
D02*
G37*
G36*
X146169Y345628D02*
Y344004D01*
X147794D01*
X147724Y344355D01*
X147242Y345076D01*
X146520Y345559D01*
X146169Y345628D01*
D02*
G37*
G36*
X271153Y349565D02*
X270802Y349496D01*
X270081Y349013D01*
X269599Y348292D01*
X269558Y348085D01*
X269300Y347827D01*
X268880Y347198D01*
X268732Y346457D01*
Y345291D01*
X268291D01*
Y343020D01*
X270669D01*
X273047D01*
Y345291D01*
X273047D01*
X273086Y345775D01*
X273226Y345868D01*
X273708Y346590D01*
X273778Y346941D01*
X271654D01*
Y347441D01*
X271153D01*
Y349565D01*
D02*
G37*
%LPD*%
G36*
X335944Y255382D02*
X335936Y255344D01*
X335192Y254847D01*
X332987Y252642D01*
X332479Y251882D01*
X332301Y250984D01*
Y208648D01*
X331417Y207765D01*
X330956Y208011D01*
X331085Y208661D01*
X331085Y208662D01*
Y252966D01*
X333963Y255844D01*
X335852D01*
X335944Y255382D01*
D02*
G37*
G36*
X235401Y309693D02*
X235955Y309139D01*
X236255Y308415D01*
Y308024D01*
X232318D01*
Y308415D01*
X232617Y309139D01*
X233171Y309693D01*
X233894Y309992D01*
X234678D01*
X235401Y309693D01*
D02*
G37*
G36*
X236221Y305908D02*
X235921Y305184D01*
X235367Y304630D01*
X234644Y304331D01*
X233860D01*
X233137Y304630D01*
X232583Y305184D01*
X232283Y305908D01*
Y306299D01*
X236221D01*
Y305908D01*
D02*
G37*
D10*
Y307874D02*
G03*
X234152Y309840I-1969J0D01*
G01*
D02*
G03*
X232283Y307874I100J-1966D01*
G01*
Y306299D02*
G03*
X234152Y304333I1969J0D01*
G01*
D02*
G03*
X236221Y306299I100J1966D01*
G01*
X232284Y307874D02*
X236221D01*
X232284Y306299D02*
X236221D01*
D11*
X209623Y341535D02*
D03*
X203717D02*
D03*
X209449Y333465D02*
D03*
X203543D02*
D03*
X242126Y236221D02*
D03*
X236220D02*
D03*
X190945D02*
D03*
X185039D02*
D03*
X128324Y343251D02*
D03*
X122418D02*
D03*
X210630Y236221D02*
D03*
X216535D02*
D03*
X210630Y242126D02*
D03*
X216535D02*
D03*
X159449Y236221D02*
D03*
X165354D02*
D03*
X159449Y242126D02*
D03*
X165354D02*
D03*
X233268Y296260D02*
D03*
X239173D02*
D03*
X233268Y290354D02*
D03*
X239173D02*
D03*
X233268Y284449D02*
D03*
X239173D02*
D03*
X296900Y315415D02*
D03*
X290995D02*
D03*
X296800Y308515D02*
D03*
X290895D02*
D03*
X244094Y335810D02*
D03*
X250000D02*
D03*
X244094Y341535D02*
D03*
X250000D02*
D03*
X270669Y342520D02*
D03*
X264764D02*
D03*
X270669Y336614D02*
D03*
X264764D02*
D03*
X185039Y242126D02*
D03*
X190945D02*
D03*
X236221Y242126D02*
D03*
X242126D02*
D03*
D12*
X55118Y296306D02*
D03*
X90551D02*
D03*
X54134Y253754D02*
D03*
X89567D02*
D03*
D13*
X234252Y315945D02*
D03*
Y321850D02*
D03*
X233268Y265748D02*
D03*
Y271654D02*
D03*
X239173Y265748D02*
D03*
Y271654D02*
D03*
X245079Y265748D02*
D03*
Y271654D02*
D03*
X250984Y265748D02*
D03*
Y271654D02*
D03*
X256890Y265748D02*
D03*
Y271654D02*
D03*
X262795D02*
D03*
Y265748D02*
D03*
D14*
X240158Y321654D02*
D03*
Y316142D02*
D03*
X165354Y340748D02*
D03*
Y346260D02*
D03*
X186024D02*
D03*
Y340748D02*
D03*
X310039Y341339D02*
D03*
Y335827D02*
D03*
X311024Y305118D02*
D03*
Y299606D02*
D03*
D15*
X319291Y316929D02*
D03*
X323819D02*
D03*
X319587Y280512D02*
D03*
X324114D02*
D03*
D16*
X144783Y313976D02*
D03*
X128839D02*
D03*
D17*
X110236Y325197D02*
D03*
Y312598D02*
D03*
D18*
X128937Y292520D02*
D03*
Y248819D02*
D03*
D19*
X141770Y343351D02*
D03*
X135471D02*
D03*
X220866Y341535D02*
D03*
X214567D02*
D03*
X220692Y333465D02*
D03*
X214393D02*
D03*
D20*
X306496Y258189D02*
D03*
Y253189D02*
D03*
Y248189D02*
D03*
Y243189D02*
D03*
Y238189D02*
D03*
Y233189D02*
D03*
Y228189D02*
D03*
Y223189D02*
D03*
Y218189D02*
D03*
X343504Y258189D02*
D03*
Y253189D02*
D03*
Y248189D02*
D03*
Y243189D02*
D03*
Y238189D02*
D03*
Y233189D02*
D03*
Y228189D02*
D03*
Y223189D02*
D03*
Y218189D02*
D03*
D21*
X234252Y303543D02*
D03*
Y310630D02*
D03*
D22*
X251784Y205315D02*
D03*
X246784D02*
D03*
X241784D02*
D03*
X236784D02*
D03*
Y225000D02*
D03*
X241784D02*
D03*
X246784D02*
D03*
X251784D02*
D03*
X225802Y205315D02*
D03*
X220802D02*
D03*
X215802D02*
D03*
X210802D02*
D03*
Y225000D02*
D03*
X215802D02*
D03*
X220802D02*
D03*
X225802D02*
D03*
X199820Y205315D02*
D03*
X194820D02*
D03*
X189821D02*
D03*
X184820D02*
D03*
Y225000D02*
D03*
X189821D02*
D03*
X194820D02*
D03*
X199820D02*
D03*
X173839D02*
D03*
X168839D02*
D03*
X163839D02*
D03*
X158839D02*
D03*
Y205315D02*
D03*
X163839D02*
D03*
X168839D02*
D03*
X173839D02*
D03*
D23*
X318996Y288189D02*
D03*
X321555D02*
D03*
X324114D02*
D03*
X326673D02*
D03*
X318996Y304331D02*
D03*
X321555D02*
D03*
X324114D02*
D03*
X326673D02*
D03*
X318996Y325591D02*
D03*
X321555D02*
D03*
X324114D02*
D03*
X326673D02*
D03*
X318996Y341732D02*
D03*
X321555D02*
D03*
X324114D02*
D03*
X326673D02*
D03*
D24*
X248513Y296829D02*
D03*
X251073D02*
D03*
X253631D02*
D03*
X256190D02*
D03*
X258750D02*
D03*
X261309D02*
D03*
X263868D02*
D03*
X266427D02*
D03*
X268986D02*
D03*
X271545D02*
D03*
X274104D02*
D03*
X276663D02*
D03*
X279222D02*
D03*
X281781D02*
D03*
X248513Y323601D02*
D03*
X251073D02*
D03*
X253631D02*
D03*
X256190D02*
D03*
X258750D02*
D03*
X261309D02*
D03*
X263868D02*
D03*
X266427D02*
D03*
X268986D02*
D03*
X271545D02*
D03*
X274104D02*
D03*
X276663D02*
D03*
X279222D02*
D03*
X281781D02*
D03*
D25*
X178813Y349058D02*
D03*
X175073D02*
D03*
X171333D02*
D03*
Y339609D02*
D03*
X178813D02*
D03*
D26*
X165732Y314173D02*
D03*
X172433D02*
D03*
X179134D02*
D03*
X185835D02*
D03*
X192535Y313780D02*
D03*
D27*
X179134Y272441D02*
D03*
D28*
X98425Y365158D02*
D03*
Y349409D02*
D03*
D29*
X309055Y333858D02*
X311024Y335827D01*
X267347Y315415D02*
X290995D01*
X239173Y285613D02*
X240337Y284449D01*
X234152Y309840D02*
X234252Y309940D01*
X301929Y253189D02*
X306496D01*
X288386Y266732D02*
X301929Y253189D01*
X272638Y266732D02*
X288386D01*
X300866Y258189D02*
X306496D01*
X289370Y269685D02*
X300866Y258189D01*
X271654Y269685D02*
X289370D01*
X265748Y259842D02*
X272638Y266732D01*
X259842Y259842D02*
X265748D01*
X267717Y265748D02*
X271654Y269685D01*
X262795Y265748D02*
X267717D01*
X253631Y313298D02*
X253937Y312992D01*
X253631Y313298D02*
Y323601D01*
X256190Y318198D02*
X258858Y315531D01*
X256190Y318198D02*
Y323601D01*
X251073Y317017D02*
Y323601D01*
X248031Y313976D02*
X251073Y317017D01*
X263779Y336614D02*
X264764D01*
X261309Y334143D02*
X263779Y336614D01*
X261309Y323601D02*
Y334143D01*
X258750Y338474D02*
X262795Y342520D01*
X258750Y323601D02*
Y338474D01*
X262795Y342520D02*
X264764D01*
Y336614D02*
X265246Y336132D01*
X253631Y323601D02*
Y337904D01*
X250000Y341535D02*
X253631Y337904D01*
X250000Y335810D02*
X251073Y334737D01*
Y323601D02*
Y334737D01*
X281496Y290354D02*
X281781Y290639D01*
Y296829D01*
X236221Y300197D02*
X241142D01*
X234252Y302165D02*
X236221Y300197D01*
X234252Y302165D02*
Y303543D01*
X240158Y312008D02*
Y316142D01*
X234252Y310630D02*
Y315945D01*
Y309940D02*
Y310630D01*
X241142Y300197D02*
X245146D01*
X239173Y296260D02*
Y298228D01*
X241142Y300197D01*
X245146D02*
X248513Y296829D01*
X251073Y292411D02*
Y296829D01*
X248031Y289370D02*
X251073Y292411D01*
X240158Y289370D02*
X248031D01*
X253631Y291033D02*
Y296829D01*
X247047Y284449D02*
X253631Y291033D01*
X240337Y284449D02*
X247047D01*
X239173Y296260D02*
X240158Y295276D01*
X239173Y290354D02*
X240158Y289370D01*
X239173Y290354D02*
Y291339D01*
X326673Y304331D02*
X328937D01*
X330709Y306102D01*
X326673Y341732D02*
Y348327D01*
X328740Y350394D01*
X309055Y331693D02*
Y333858D01*
X328740Y323819D02*
X329724D01*
X326968Y325591D02*
X328740Y323819D01*
X314961Y335630D02*
X315945Y336614D01*
X322835D01*
X324114Y337894D01*
Y341732D01*
X323819Y350394D02*
X324803D01*
X321555Y348130D02*
X323819Y350394D01*
X321555Y341732D02*
Y348130D01*
X321555Y309744D02*
X323819Y312008D01*
X321555Y304331D02*
Y309744D01*
X322835Y298228D02*
X324114Y299508D01*
Y304331D01*
X328937Y288189D02*
X329724Y287402D01*
X326673Y288189D02*
X328937D01*
X306102Y299213D02*
X306496Y299606D01*
X311024D01*
X326673Y325591D02*
X326968D01*
X311024Y341339D02*
X311417Y341732D01*
X318996D01*
X311024Y305118D02*
X311811Y304331D01*
X318996D01*
X319587Y280512D02*
Y282185D01*
X321555Y284154D01*
Y288189D01*
X324114Y281496D02*
Y285138D01*
X352362Y283465D02*
X354331Y285433D01*
X325787Y283465D02*
X352362D01*
X324114Y285138D02*
X325787Y283465D01*
X324114Y285138D02*
Y288189D01*
X319291Y316929D02*
Y318307D01*
X321555Y320571D01*
Y325591D01*
X324114Y321850D02*
X326083Y319882D01*
X324114Y321850D02*
Y325591D01*
Y317225D02*
Y321850D01*
X354252Y319882D02*
X354331Y319803D01*
X326083Y319882D02*
X354252D01*
X323819Y316929D02*
X324114Y317225D01*
X256890Y262795D02*
Y265748D01*
Y262795D02*
X259842Y259842D01*
X245079Y262795D02*
Y265748D01*
X224409Y242126D02*
X245079Y262795D01*
X216535Y242126D02*
X224409D01*
X239173Y259843D02*
Y265748D01*
X226378Y247047D02*
X239173Y259843D01*
X198819Y247047D02*
X226378D01*
X233268Y256890D02*
Y265748D01*
X225394Y249016D02*
X233268Y256890D01*
X174213Y249016D02*
X225394D01*
X167323Y242126D02*
X174213Y249016D01*
X165354Y242126D02*
X167323D01*
X193898D02*
X198819Y247047D01*
X190945Y242126D02*
X193898D01*
X242126Y242126D02*
X250984Y250984D01*
Y265748D01*
X249016Y279528D02*
X261309Y291821D01*
X240158Y279528D02*
X249016D01*
X233268Y272638D02*
X240158Y279528D01*
X250549Y277559D02*
X263868Y290878D01*
X244094Y277559D02*
X250549D01*
X239173Y272638D02*
X244094Y277559D01*
X250984Y275590D02*
X266427Y291033D01*
X247047Y275590D02*
X250984D01*
X245079Y273622D02*
X247047Y275590D01*
X263868Y290878D02*
Y296829D01*
X266427Y291033D02*
Y296829D01*
X274104Y289852D02*
Y296829D01*
X262795Y278543D02*
X274104Y289852D01*
X262795Y271654D02*
Y278543D01*
X271545Y290246D02*
Y296829D01*
X256890Y275590D02*
X271545Y290246D01*
X256890Y271654D02*
Y275590D01*
X268986Y290639D02*
Y296829D01*
X250984Y272638D02*
X268986Y290639D01*
X250984Y271654D02*
Y272638D01*
X261309Y291821D02*
Y296829D01*
X233268Y271654D02*
Y272638D01*
X239173Y271654D02*
Y272638D01*
X245079Y271654D02*
Y273622D01*
X236220Y236221D02*
X236221Y236221D01*
Y242126D01*
X236220Y236221D02*
X236784Y235657D01*
Y225000D02*
Y235657D01*
X210630Y225173D02*
Y236221D01*
Y225173D02*
X210802Y225000D01*
X210630Y225173D02*
X210630Y225173D01*
X210630Y225173D02*
Y236221D01*
X210630Y236221D01*
X210630Y236221D02*
Y242126D01*
X185039Y236221D02*
X185039Y236221D01*
X185039Y236221D02*
Y242126D01*
X184820Y225000D02*
X185039Y225219D01*
Y236221D01*
X158839Y235610D02*
X159449Y236221D01*
X158839Y225000D02*
Y235610D01*
X159449Y236221D02*
Y242126D01*
X159449Y242126D02*
X159449Y242126D01*
X256190Y296829D02*
X256263Y296901D01*
Y304330D01*
X267347Y315415D01*
X265547Y308515D02*
X290895D01*
X258750Y296829D02*
X258822Y296901D01*
Y301790D02*
X265547Y308515D01*
X258822Y296901D02*
Y301790D01*
X248513Y323601D02*
Y323928D01*
X244488Y327953D02*
X248513Y323928D01*
X323130Y280512D02*
X324114Y281496D01*
D30*
X188976Y292323D02*
X191929Y295276D01*
X60039Y361378D02*
X64961Y356457D01*
X60039Y361378D02*
Y392638D01*
X191929Y295276D02*
X194882D01*
X188976Y282283D02*
Y292323D01*
X179134Y272441D02*
X188976Y282283D01*
X187008Y330709D02*
X192535Y325181D01*
Y313780D02*
Y325181D01*
X115748Y330709D02*
X187008D01*
X110236Y325197D02*
X115748Y330709D01*
X90551Y319882D02*
Y335630D01*
Y296306D02*
Y319882D01*
X97835Y312598D01*
X110236D01*
X90551Y335630D02*
X98425Y343504D01*
Y349409D01*
X69724Y356457D02*
X90551Y335630D01*
X64961Y356457D02*
X69724D01*
X98425Y365158D02*
Y373031D01*
D31*
X307087Y308071D02*
X310039Y305118D01*
X311024D01*
X306102Y345276D02*
Y346457D01*
Y345276D02*
X310039Y341339D01*
X178813Y339609D02*
X184885D01*
X188934D02*
X194882Y333661D01*
Y345472D02*
Y352362D01*
X180118Y367126D02*
X194882Y352362D01*
X115157Y367126D02*
X180118D01*
X220866Y341535D02*
X224410D01*
X198819Y341535D02*
X203717D01*
X194882Y345472D02*
X198819Y341535D01*
X209623D02*
X209623Y341535D01*
X214567D01*
X89646Y392638D02*
X115157Y367126D01*
X84041Y392638D02*
X89646D01*
X64777Y253754D02*
X64961Y253937D01*
X54134Y253754D02*
X64777D01*
X65899Y296306D02*
X65945Y296260D01*
X55118Y296306D02*
X65899D01*
X184885Y339609D02*
X186024Y340748D01*
X128839Y311122D02*
Y313976D01*
Y292618D02*
Y311122D01*
X143701Y296260D01*
X175197D01*
X185835Y306898D01*
Y314173D01*
X128839Y292618D02*
X128937Y292520D01*
X161417Y347441D02*
X164173D01*
X165354Y346260D01*
X98242Y253754D02*
X98425Y253937D01*
Y256890D01*
X125984D02*
X128937D01*
X89567Y253754D02*
X98242D01*
X128937Y248819D02*
Y253937D01*
X171260Y304134D02*
X172433Y305307D01*
Y314173D01*
X342520Y217205D02*
X343504Y218189D01*
X342520Y213583D02*
Y217205D01*
X266890Y175197D02*
X302165D01*
X260984Y169291D02*
X266890Y175197D01*
X302165D02*
X334646Y207677D01*
Y250984D01*
X336850Y253189D01*
X343504D01*
X328740Y253937D02*
X332992Y258189D01*
X343504D01*
X301181Y181102D02*
X328740Y208661D01*
X236221Y181102D02*
X301181D01*
X229410Y174291D02*
X236221Y181102D01*
X328740Y208661D02*
Y253937D01*
X229410Y169291D02*
Y174291D01*
X87598Y183071D02*
X97441D01*
X107283Y173228D01*
X130905D01*
X144685Y187008D01*
X166514D01*
X184820Y205315D01*
X61024Y183071D02*
X94488Y216535D01*
X143701D01*
X154921Y205315D01*
X158839D01*
X187992Y188976D02*
X196850D01*
X168307Y169291D02*
X187992Y188976D01*
X165118Y169291D02*
X168307D01*
X236784Y202335D02*
Y205315D01*
X203740Y169291D02*
X236784Y202335D01*
X197402Y169291D02*
X203740D01*
X210630Y202756D02*
Y205142D01*
X196850Y188976D02*
X210630Y202756D01*
Y205142D02*
X210802Y205315D01*
X231299Y299213D02*
X233268Y297244D01*
Y296260D02*
Y297244D01*
X231299Y280512D02*
X233268Y282480D01*
Y284449D01*
Y290354D02*
Y296260D01*
X230315Y322835D02*
X231299Y321850D01*
X234252D01*
X234449Y321654D01*
X240158D01*
X296900Y319538D02*
X297244Y319882D01*
X296900Y315415D02*
Y319538D01*
Y308615D02*
Y315415D01*
X296800Y308515D02*
X296900Y308615D01*
X168839Y205315D02*
X173839D01*
X163839D02*
X168839D01*
X158839D02*
X163839D01*
X251784Y230131D02*
X252953Y231299D01*
X251784Y225000D02*
Y230131D01*
X225802Y229739D02*
X227362Y231299D01*
X225802Y225000D02*
Y229739D01*
X215802Y219237D02*
X216535Y218504D01*
X215802Y219237D02*
Y225000D01*
X241784Y218846D02*
X242126Y218504D01*
X241784Y218846D02*
Y225000D01*
X242126Y236221D02*
X246063D01*
X216535D02*
X219488D01*
X192913D02*
X193898Y237205D01*
X190945Y236221D02*
X192913D01*
X199820Y230332D02*
X200787Y231299D01*
X199820Y225000D02*
Y230332D01*
X189821Y218644D02*
X190945Y217520D01*
X189821Y218644D02*
Y225000D01*
X163839Y220020D02*
X166339Y217520D01*
X163839Y220020D02*
Y225000D01*
X165354Y236221D02*
X168307D01*
X173839Y229941D02*
X175197Y231299D01*
X173839Y225000D02*
Y229941D01*
X168839Y225000D02*
X173839D01*
X163839D02*
X168839D01*
X246784Y205315D02*
X251784D01*
X241784D02*
X246784D01*
X236784D02*
X241784D01*
X220802D02*
X225802D01*
X215802D02*
X220802D01*
X210802D02*
X215802D01*
X194820D02*
X199820D01*
X189821D02*
X194820D01*
X184820D02*
X189821D01*
X193701Y341535D02*
X198819D01*
X192913Y340748D02*
X193701Y341535D01*
X186024Y340748D02*
X192913D01*
X203543Y329528D02*
Y333465D01*
Y329528D02*
X204331Y328740D01*
X184885Y339609D02*
X188934D01*
X125984Y256890D02*
X128937Y253937D01*
D32*
X140748Y321850D02*
X144783Y317815D01*
Y313976D02*
Y317815D01*
X179134Y323819D02*
X180118Y324803D01*
X179134Y314173D02*
Y323819D01*
X189764Y346260D02*
X189961Y346457D01*
X186024Y346260D02*
X189764D01*
X176181Y344488D02*
X184252D01*
X169616D02*
X176181D01*
X175073Y345596D02*
X176181Y344488D01*
X175073Y345596D02*
Y349058D01*
X184252Y344488D02*
X186024Y346260D01*
X165876Y340748D02*
X169616Y344488D01*
X165354Y340748D02*
X165876D01*
X178150Y353346D02*
X178813Y352683D01*
Y349058D02*
Y352683D01*
X169291Y352362D02*
X171333Y350321D01*
Y349058D02*
Y350321D01*
X145517Y343351D02*
X145669Y343504D01*
X141770Y343351D02*
X145517D01*
X104583Y343251D02*
X122418D01*
X98425Y349409D02*
X104583Y343251D01*
X312677Y218189D02*
X312992Y218504D01*
X306496Y218189D02*
X312677D01*
X270669Y346457D02*
X271654Y347441D01*
X270669Y342520D02*
Y346457D01*
Y336614D02*
Y342520D01*
X244094Y335810D02*
Y341535D01*
X165732Y314173D02*
Y323441D01*
X165354Y323819D02*
X165732Y323441D01*
X244094Y328346D02*
Y335810D01*
Y328346D02*
X244488Y327953D01*
X209449Y333465D02*
X214393D01*
D33*
X128324Y343251D02*
X131771D01*
X131871Y343351D01*
X135471D01*
D34*
X64961Y336457D02*
D03*
Y356457D02*
D03*
D35*
X219409Y169291D02*
D03*
X250984D02*
D03*
X187402Y169291D02*
D03*
X155118Y169291D02*
D03*
D36*
X229410D02*
D03*
X260984D02*
D03*
X197402Y169291D02*
D03*
X165118Y169291D02*
D03*
X87598Y183071D02*
D03*
X61024D02*
D03*
X354331Y329803D02*
D03*
Y295433D02*
D03*
X84041Y402638D02*
D03*
X72040Y402638D02*
D03*
X60039D02*
D03*
D37*
X87598Y173071D02*
D03*
X61024D02*
D03*
X354331Y319803D02*
D03*
Y285433D02*
D03*
X84041Y392638D02*
D03*
X72040Y392638D02*
D03*
X60039D02*
D03*
D38*
X350906Y194441D02*
D03*
Y387354D02*
D03*
X122559Y194441D02*
D03*
Y387354D02*
D03*
D39*
X301500Y382400D02*
D03*
Y392400D02*
D03*
X311500Y382400D02*
D03*
Y392400D02*
D03*
X321500Y382400D02*
D03*
Y392400D02*
D03*
X331500Y382400D02*
D03*
Y392400D02*
D03*
X291500D02*
D03*
Y382400D02*
D03*
X281500Y392400D02*
D03*
Y382400D02*
D03*
X271500Y392400D02*
D03*
Y382400D02*
D03*
X261500Y392400D02*
D03*
Y382400D02*
D03*
X251500Y392400D02*
D03*
Y382400D02*
D03*
X241500Y392400D02*
D03*
Y382400D02*
D03*
X231500Y392400D02*
D03*
Y382400D02*
D03*
X221500Y392400D02*
D03*
Y382400D02*
D03*
X211500Y392400D02*
D03*
Y382400D02*
D03*
X201500Y392400D02*
D03*
Y382400D02*
D03*
X191500Y392400D02*
D03*
Y382400D02*
D03*
X181500Y392400D02*
D03*
Y382400D02*
D03*
X171500Y392400D02*
D03*
Y382400D02*
D03*
X161500Y392400D02*
D03*
Y382400D02*
D03*
X151500Y392400D02*
D03*
Y382400D02*
D03*
X141500Y392400D02*
D03*
D40*
Y382400D02*
D03*
D41*
X281200Y225100D02*
D03*
D42*
X307087Y308071D02*
D03*
X306102Y346457D02*
D03*
X194882Y333661D02*
D03*
X224410Y341535D02*
D03*
X64961Y253937D02*
D03*
X65945Y296260D02*
D03*
X190945Y295276D02*
D03*
X194882D02*
D03*
X140748Y321850D02*
D03*
X180118Y324803D02*
D03*
X161417Y347441D02*
D03*
X128937Y256890D02*
D03*
X98425D02*
D03*
X171260Y304134D02*
D03*
X189961Y346457D02*
D03*
X178150Y353346D02*
D03*
X169291Y352362D02*
D03*
X145669Y343504D02*
D03*
X342520Y213583D02*
D03*
X312992Y218504D02*
D03*
X253937Y312992D02*
D03*
X258858Y315531D02*
D03*
X248031Y313976D02*
D03*
X231299Y299213D02*
D03*
Y280512D02*
D03*
X271654Y347441D02*
D03*
X230315Y322835D02*
D03*
X297244Y319882D02*
D03*
X281496Y290354D02*
D03*
X240158Y312008D02*
D03*
X330709Y306102D02*
D03*
X328740Y350394D02*
D03*
X329724Y323819D02*
D03*
X314961Y335630D02*
D03*
X324803Y350394D02*
D03*
X323819Y312008D02*
D03*
X322835Y298228D02*
D03*
X329724Y287402D02*
D03*
X306102Y299213D02*
D03*
X309055Y331693D02*
D03*
X252953Y231299D02*
D03*
X227362D02*
D03*
X216535Y218504D02*
D03*
X242126D02*
D03*
X246063Y236221D02*
D03*
X219488D02*
D03*
X193898Y237205D02*
D03*
X200787Y231299D02*
D03*
X190945Y217520D02*
D03*
X166339D02*
D03*
X168307Y236221D02*
D03*
X175197Y231299D02*
D03*
X98425Y373031D02*
D03*
X165354Y323819D02*
D03*
X204331Y328740D02*
D03*
X244488Y327953D02*
D03*
X68504Y211024D02*
D03*
X106299Y164173D02*
D03*
X125984Y162992D02*
D03*
X112598Y231890D02*
D03*
X207874Y263386D02*
D03*
X208661Y270472D02*
D03*
X266142Y236221D02*
D03*
X262205Y211024D02*
D03*
X311811Y208661D02*
D03*
X330709Y270866D02*
D03*
X360236Y250394D02*
D03*
X359449Y229921D02*
D03*
X294882Y281496D02*
D03*
X354331Y355512D02*
D03*
X341732Y356693D02*
D03*
X237795Y355118D02*
D03*
X288583Y353543D02*
D03*
X213779Y306299D02*
D03*
X135039Y227953D02*
D03*
X316929Y405118D02*
D03*
X235827Y404331D02*
D03*
X180709Y407480D02*
D03*
X77953Y264961D02*
D03*
X73622Y290945D02*
D03*
X109843Y275197D02*
D03*
X292520Y234646D02*
D03*
X74410Y223622D02*
D03*
X256693Y362598D02*
D03*
X221260Y270472D02*
D03*
M02*
