G04 Layer_Color=32896*
%FSLAX25Y25*%
%MOIN*%
G70*
G01*
G75*
%ADD46C,0.00787*%
%ADD77C,0.01968*%
G36*
X185345Y318113D02*
X186004Y318015D01*
X186565Y317869D01*
X187078Y317698D01*
X187297Y317600D01*
X187493Y317527D01*
X187639Y317454D01*
X187786Y317381D01*
X187908Y317332D01*
X187981Y317283D01*
X188030Y317234D01*
X188054D01*
X188591Y316868D01*
X189031Y316453D01*
X189445Y316038D01*
X189763Y315623D01*
X190007Y315233D01*
X190105Y315086D01*
X190202Y314940D01*
X190276Y314842D01*
X190300Y314744D01*
X190349Y314696D01*
Y314671D01*
X190617Y314036D01*
X190813Y313377D01*
X190959Y312718D01*
X191057Y312133D01*
X191081Y311864D01*
X191105Y311620D01*
X191130Y311400D01*
Y311205D01*
X191154Y311058D01*
Y310936D01*
Y310863D01*
Y310839D01*
Y310009D01*
X191105Y309252D01*
X191008Y308544D01*
X190861Y307910D01*
X190788Y307617D01*
X190715Y307372D01*
X190642Y307128D01*
X190568Y306909D01*
X190495Y306738D01*
X190422Y306591D01*
X190373Y306469D01*
X190324Y306372D01*
X190300Y306323D01*
Y306298D01*
X189958Y305737D01*
X189592Y305224D01*
X189201Y304809D01*
X188835Y304443D01*
X188518Y304175D01*
X188249Y303980D01*
X188152Y303906D01*
X188078Y303857D01*
X188030Y303809D01*
X188005D01*
X187444Y303516D01*
X186858Y303321D01*
X186297Y303174D01*
X185784Y303052D01*
X185320Y303003D01*
X185149Y302979D01*
X184978D01*
X184832Y302954D01*
X184661D01*
X183978Y303003D01*
X183319Y303101D01*
X182757Y303223D01*
X182269Y303394D01*
X182049Y303467D01*
X181854Y303565D01*
X181683Y303638D01*
X181561Y303687D01*
X181439Y303760D01*
X181366Y303784D01*
X181317Y303833D01*
X181293D01*
X180755Y304199D01*
X180316Y304614D01*
X179901Y305054D01*
X179584Y305444D01*
X179340Y305835D01*
X179218Y305981D01*
X179145Y306128D01*
X179071Y306250D01*
X179047Y306323D01*
X178998Y306372D01*
Y306396D01*
X178729Y307055D01*
X178534Y307714D01*
X178388Y308349D01*
X178290Y308959D01*
X178266Y309228D01*
X178241Y309472D01*
X178217Y309692D01*
X178192Y309887D01*
Y310033D01*
Y310155D01*
Y310228D01*
Y310253D01*
Y310912D01*
X178241Y311693D01*
X178339Y312401D01*
X178461Y313060D01*
X178559Y313353D01*
X178632Y313621D01*
X178705Y313841D01*
X178778Y314061D01*
X178852Y314256D01*
X178925Y314403D01*
X178974Y314525D01*
X179022Y314622D01*
X179047Y314671D01*
Y314696D01*
X179364Y315281D01*
X179730Y315794D01*
X180121Y316233D01*
X180487Y316599D01*
X180804Y316892D01*
X181073Y317088D01*
X181170Y317161D01*
X181244Y317210D01*
X181293Y317259D01*
X181317D01*
X181878Y317551D01*
X182464Y317771D01*
X183026Y317942D01*
X183538Y318040D01*
X183978Y318113D01*
X184173Y318137D01*
X184344D01*
X184466Y318162D01*
X184661D01*
X185345Y318113D01*
D02*
G37*
G36*
X119096Y306445D02*
X119364Y306396D01*
X119608Y306298D01*
X119804Y306225D01*
X119950Y306128D01*
X120072Y306030D01*
X120145Y305981D01*
X120170Y305957D01*
X120341Y305762D01*
X120487Y305566D01*
X120585Y305346D01*
X120634Y305176D01*
X120683Y305005D01*
X120707Y304858D01*
Y304761D01*
Y304736D01*
X120683Y304468D01*
X120634Y304248D01*
X120536Y304028D01*
X120438Y303857D01*
X120341Y303711D01*
X120243Y303613D01*
X120194Y303540D01*
X120170Y303516D01*
X119950Y303345D01*
X119730Y303223D01*
X119511Y303150D01*
X119291Y303101D01*
X119096Y303052D01*
X118949Y303028D01*
X118803D01*
X118510Y303052D01*
X118242Y303101D01*
X118022Y303174D01*
X117827Y303272D01*
X117680Y303345D01*
X117558Y303418D01*
X117485Y303467D01*
X117460Y303491D01*
X117290Y303687D01*
X117143Y303882D01*
X117045Y304102D01*
X116997Y304297D01*
X116948Y304468D01*
X116923Y304614D01*
Y304712D01*
Y304736D01*
X116948Y305005D01*
X116997Y305249D01*
X117094Y305469D01*
X117192Y305639D01*
X117290Y305786D01*
X117387Y305884D01*
X117436Y305957D01*
X117460Y305981D01*
X117680Y306152D01*
X117900Y306274D01*
X118120Y306347D01*
X118339Y306421D01*
X118510Y306445D01*
X118657Y306469D01*
X118803D01*
X119096Y306445D01*
D02*
G37*
G36*
X110015Y318137D02*
X110455Y318089D01*
X110845Y318015D01*
X111212Y317918D01*
X111553Y317771D01*
X111871Y317649D01*
X112139Y317503D01*
X112408Y317356D01*
X112627Y317185D01*
X112822Y317039D01*
X112993Y316917D01*
X113140Y316795D01*
X113238Y316673D01*
X113311Y316599D01*
X113359Y316551D01*
X113384Y316526D01*
X113628Y316209D01*
X113823Y315867D01*
X113994Y315501D01*
X114165Y315110D01*
X114409Y314329D01*
X114556Y313597D01*
X114604Y313255D01*
X114653Y312914D01*
X114678Y312645D01*
X114702Y312377D01*
X114726Y312181D01*
Y312010D01*
Y311913D01*
Y311888D01*
Y309203D01*
X114702Y308666D01*
X114678Y308154D01*
X114604Y307665D01*
X114507Y307226D01*
X114409Y306811D01*
X114312Y306445D01*
X114190Y306079D01*
X114043Y305786D01*
X113921Y305493D01*
X113799Y305273D01*
X113701Y305054D01*
X113604Y304883D01*
X113506Y304761D01*
X113433Y304663D01*
X113408Y304614D01*
X113384Y304590D01*
X113115Y304297D01*
X112822Y304053D01*
X112530Y303833D01*
X112212Y303638D01*
X111895Y303491D01*
X111578Y303345D01*
X110943Y303150D01*
X110674Y303101D01*
X110406Y303052D01*
X110162Y303003D01*
X109967Y302979D01*
X109796Y302954D01*
X109552D01*
X109112Y302979D01*
X108697Y303028D01*
X108307Y303101D01*
X107940Y303198D01*
X107599Y303321D01*
X107281Y303467D01*
X106989Y303613D01*
X106744Y303760D01*
X106525Y303906D01*
X106330Y304053D01*
X106159Y304199D01*
X106012Y304321D01*
X105914Y304419D01*
X105841Y304492D01*
X105792Y304541D01*
X105768Y304565D01*
X105524Y304883D01*
X105304Y305224D01*
X105133Y305591D01*
X104987Y305981D01*
X104743Y306762D01*
X104572Y307495D01*
X104523Y307836D01*
X104474Y308178D01*
X104450Y308447D01*
X104426Y308715D01*
X104401Y308910D01*
Y309081D01*
Y309179D01*
Y309203D01*
Y311888D01*
X104426Y312425D01*
X104450Y312938D01*
X104523Y313426D01*
X104621Y313866D01*
X104718Y314281D01*
X104841Y314647D01*
X104963Y315013D01*
X105085Y315306D01*
X105207Y315599D01*
X105329Y315818D01*
X105451Y316038D01*
X105548Y316209D01*
X105646Y316331D01*
X105719Y316429D01*
X105744Y316477D01*
X105768Y316502D01*
X106036Y316795D01*
X106305Y317039D01*
X106622Y317283D01*
X106940Y317454D01*
X107257Y317625D01*
X107550Y317747D01*
X108185Y317967D01*
X108453Y318015D01*
X108722Y318064D01*
X108966Y318113D01*
X109161Y318137D01*
X109332Y318162D01*
X109576D01*
X110015Y318137D01*
D02*
G37*
G36*
X135727Y354331D02*
X136156Y354253D01*
X136547Y354135D01*
X136859Y353979D01*
X137094Y353823D01*
X137289Y353706D01*
X137406Y353628D01*
X137445Y353589D01*
X137719Y353276D01*
X137953Y352964D01*
X138109Y352651D01*
X138187Y352339D01*
X138266Y352104D01*
X138304Y351870D01*
Y351714D01*
Y351675D01*
X138266Y351245D01*
X138187Y350893D01*
X138031Y350542D01*
X137875Y350268D01*
X137719Y350073D01*
X137562Y349878D01*
X137484Y349800D01*
X137445Y349761D01*
X137094Y349526D01*
X136742Y349331D01*
X136391Y349214D01*
X136039Y349097D01*
X135727Y349058D01*
X135492Y349019D01*
X135258D01*
X134789Y349058D01*
X134320Y349136D01*
X133969Y349253D01*
X133656Y349409D01*
X133383Y349526D01*
X133227Y349643D01*
X133110Y349722D01*
X133071Y349761D01*
X132797Y350073D01*
X132563Y350386D01*
X132406Y350698D01*
X132328Y351011D01*
X132250Y351284D01*
X132211Y351479D01*
Y351636D01*
Y351675D01*
X132250Y352104D01*
X132328Y352456D01*
X132485Y352807D01*
X132641Y353081D01*
X132797Y353276D01*
X132953Y353471D01*
X133031Y353550D01*
X133071Y353589D01*
X133383Y353862D01*
X133774Y354057D01*
X134125Y354174D01*
X134477Y354292D01*
X134789Y354331D01*
X135023Y354370D01*
X135258D01*
X135727Y354331D01*
D02*
G37*
G36*
X170894Y314329D02*
X171162Y314305D01*
X171675Y314159D01*
X172114Y313963D01*
X172481Y313744D01*
X172798Y313524D01*
X173018Y313329D01*
X173140Y313182D01*
X173164Y313158D01*
X173188Y313133D01*
X173286Y314159D01*
X176484D01*
Y298927D01*
X173066D01*
Y304053D01*
X172871Y303857D01*
X172676Y303687D01*
X172261Y303418D01*
X171846Y303223D01*
X171455Y303101D01*
X171114Y303003D01*
X170821Y302979D01*
X170723Y302954D01*
X170577D01*
X170210Y302979D01*
X169869Y303028D01*
X169551Y303101D01*
X169258Y303198D01*
X168721Y303443D01*
X168282Y303711D01*
X167916Y303980D01*
X167769Y304126D01*
X167672Y304224D01*
X167574Y304321D01*
X167501Y304395D01*
X167476Y304443D01*
X167452Y304468D01*
X167257Y304761D01*
X167061Y305078D01*
X166793Y305762D01*
X166573Y306445D01*
X166451Y307104D01*
X166402Y307397D01*
X166354Y307665D01*
X166329Y307934D01*
Y308154D01*
X166305Y308325D01*
Y308447D01*
Y308544D01*
Y308569D01*
Y308715D01*
Y309203D01*
X166354Y309643D01*
X166402Y310082D01*
X166476Y310473D01*
X166573Y310839D01*
X166671Y311180D01*
X166769Y311498D01*
X166866Y311766D01*
X166964Y312010D01*
X167061Y312230D01*
X167159Y312425D01*
X167257Y312572D01*
X167330Y312694D01*
X167379Y312767D01*
X167403Y312816D01*
X167428Y312840D01*
X167647Y313109D01*
X167892Y313329D01*
X168136Y313548D01*
X168404Y313719D01*
X168673Y313866D01*
X168917Y313988D01*
X169429Y314159D01*
X169893Y314281D01*
X170088Y314305D01*
X170259Y314329D01*
X170406Y314354D01*
X170601D01*
X170894Y314329D01*
D02*
G37*
G36*
X157468Y303150D02*
X154027D01*
Y314159D01*
X157468D01*
Y303150D01*
D02*
G37*
G36*
X236313Y314329D02*
X236654Y314281D01*
X236972Y314207D01*
X237289Y314134D01*
X237826Y313890D01*
X238265Y313621D01*
X238632Y313329D01*
X238778Y313207D01*
X238876Y313109D01*
X238973Y313011D01*
X239047Y312938D01*
X239071Y312889D01*
X239095Y312865D01*
X239193Y314159D01*
X242415D01*
Y303150D01*
X238998D01*
Y310912D01*
X238803Y311180D01*
X238558Y311376D01*
X238314Y311522D01*
X238046Y311620D01*
X237826Y311669D01*
X237655Y311718D01*
X237484D01*
X237192Y311693D01*
X236923Y311644D01*
X236728Y311596D01*
X236557Y311522D01*
X236435Y311425D01*
X236362Y311376D01*
X236313Y311327D01*
X236288Y311303D01*
X236166Y311132D01*
X236093Y310936D01*
X235995Y310546D01*
X235971Y310375D01*
X235947Y310228D01*
Y310131D01*
Y310082D01*
Y303150D01*
X232505D01*
Y310228D01*
X232554Y310961D01*
X232651Y311571D01*
X232798Y312108D01*
X232944Y312547D01*
X233115Y312865D01*
X233237Y313109D01*
X233335Y313255D01*
X233383Y313304D01*
X233554Y313499D01*
X233750Y313646D01*
X234140Y313914D01*
X234580Y314110D01*
X234995Y314232D01*
X235361Y314305D01*
X235532Y314329D01*
X235654D01*
X235776Y314354D01*
X235947D01*
X236313Y314329D01*
D02*
G37*
G36*
X247883Y303150D02*
X244441D01*
Y314159D01*
X247883D01*
Y303150D01*
D02*
G37*
G36*
X230430D02*
X226988D01*
Y314159D01*
X230430D01*
Y303150D01*
D02*
G37*
G36*
X208168D02*
X204726D01*
Y318772D01*
X208168D01*
Y303150D01*
D02*
G37*
G36*
X219567D02*
X215979D01*
Y309057D01*
X210243D01*
Y311791D01*
X215979D01*
Y315184D01*
X209657D01*
Y317942D01*
X219567D01*
Y303150D01*
D02*
G37*
G36*
X213651Y348784D02*
X206699D01*
Y329528D01*
X200996D01*
Y348784D01*
X193887D01*
Y353198D01*
X213651D01*
Y348784D01*
D02*
G37*
G36*
X266968Y329528D02*
X251305D01*
Y333902D01*
X261226D01*
Y353198D01*
X266968D01*
Y329528D01*
D02*
G37*
G36*
X156038D02*
X140375D01*
Y333902D01*
X150296D01*
Y353198D01*
X156038D01*
Y329528D01*
D02*
G37*
G36*
X101588Y347417D02*
X102018Y347339D01*
X102408Y347222D01*
X102760Y347065D01*
X103424Y346636D01*
X103971Y346167D01*
X104439Y345698D01*
X104713Y345269D01*
X104830Y345112D01*
X104908Y344995D01*
X104986Y344917D01*
Y344878D01*
X105182Y347144D01*
X110299D01*
Y329528D01*
X104830D01*
Y340660D01*
X104674Y340933D01*
X104479Y341207D01*
X104010Y341597D01*
X103463Y341910D01*
X102877Y342105D01*
X102369Y342222D01*
X101940Y342261D01*
X101744Y342300D01*
X101510D01*
X99713Y342144D01*
X99596Y347261D01*
X100104Y347378D01*
X100612Y347417D01*
X100807Y347456D01*
X101119D01*
X101588Y347417D01*
D02*
G37*
G36*
X137953Y329528D02*
X132446D01*
Y347144D01*
X137953D01*
Y329528D01*
D02*
G37*
G36*
X90768Y347417D02*
X91628Y347300D01*
X92409Y347105D01*
X93073Y346909D01*
X93620Y346675D01*
X94011Y346519D01*
X94167Y346441D01*
X94284Y346362D01*
X94323Y346323D01*
X94362D01*
X95026Y345855D01*
X95612Y345347D01*
X96120Y344800D01*
X96549Y344292D01*
X96862Y343824D01*
X97096Y343472D01*
X97174Y343316D01*
X97253Y343199D01*
X97291Y343160D01*
Y343120D01*
X97604Y342339D01*
X97838Y341519D01*
X98034Y340699D01*
X98151Y339957D01*
X98229Y339332D01*
Y339058D01*
X98268Y338824D01*
Y338629D01*
Y338472D01*
Y338394D01*
Y338355D01*
Y337886D01*
X98229Y337183D01*
X98151Y336519D01*
X98034Y335855D01*
X97877Y335269D01*
X97682Y334722D01*
X97487Y334215D01*
X97253Y333707D01*
X97018Y333277D01*
X96784Y332926D01*
X96549Y332574D01*
X96354Y332262D01*
X96159Y332027D01*
X96003Y331832D01*
X95885Y331715D01*
X95807Y331637D01*
X95768Y331598D01*
X95300Y331168D01*
X94753Y330817D01*
X94245Y330504D01*
X93698Y330231D01*
X93151Y329996D01*
X92604Y329801D01*
X91550Y329528D01*
X91081Y329410D01*
X90612Y329332D01*
X90222Y329293D01*
X89870Y329254D01*
X89597Y329215D01*
X89206D01*
X88425Y329254D01*
X87683Y329332D01*
X86980Y329488D01*
X86394Y329645D01*
X85886Y329762D01*
X85495Y329918D01*
X85378Y329957D01*
X85261Y329996D01*
X85222Y330035D01*
X85183D01*
X84519Y330387D01*
X83933Y330738D01*
X83425Y331090D01*
X82996Y331441D01*
X82683Y331793D01*
X82449Y332027D01*
X82292Y332184D01*
X82253Y332262D01*
X84753Y335230D01*
X85027Y334918D01*
X85339Y334644D01*
X86003Y334176D01*
X86706Y333863D01*
X87370Y333668D01*
X87956Y333512D01*
X88191Y333473D01*
X88425D01*
X88620Y333434D01*
X88855D01*
X89401Y333473D01*
X89909Y333551D01*
X90339Y333707D01*
X90729Y333863D01*
X91042Y333980D01*
X91237Y334137D01*
X91394Y334215D01*
X91433Y334254D01*
X91784Y334605D01*
X92058Y334996D01*
X92253Y335387D01*
X92409Y335738D01*
X92526Y336090D01*
X92604Y336363D01*
X92682Y336519D01*
Y336597D01*
X81785D01*
Y338707D01*
X81824Y339449D01*
X81863Y340191D01*
X81980Y340855D01*
X82136Y341480D01*
X82292Y342027D01*
X82449Y342574D01*
X82644Y343042D01*
X82839Y343472D01*
X83074Y343863D01*
X83269Y344214D01*
X83425Y344488D01*
X83582Y344722D01*
X83738Y344917D01*
X83855Y345034D01*
X83894Y345112D01*
X83933Y345152D01*
X84363Y345542D01*
X84792Y345933D01*
X85261Y346206D01*
X85769Y346480D01*
X86238Y346714D01*
X86745Y346909D01*
X87683Y347183D01*
X88112Y347261D01*
X88503Y347339D01*
X88855Y347378D01*
X89167Y347417D01*
X89441Y347456D01*
X89792D01*
X90768Y347417D01*
D02*
G37*
G36*
X129047Y329528D02*
X124126D01*
X123931Y331324D01*
X123618Y330973D01*
X123266Y330621D01*
X122915Y330348D01*
X122563Y330114D01*
X121821Y329723D01*
X121157Y329488D01*
X120532Y329332D01*
X120259Y329293D01*
X120025Y329254D01*
X119868Y329215D01*
X119595D01*
X119009Y329254D01*
X118462Y329332D01*
X117915Y329410D01*
X117446Y329567D01*
X116587Y329957D01*
X115845Y330387D01*
X115298Y330778D01*
X115064Y330973D01*
X114869Y331168D01*
X114751Y331324D01*
X114634Y331402D01*
X114595Y331481D01*
X114556Y331520D01*
X114244Y331988D01*
X113970Y332496D01*
X113501Y333551D01*
X113189Y334644D01*
X112994Y335738D01*
X112916Y336207D01*
X112837Y336676D01*
X112798Y337105D01*
Y337457D01*
X112759Y337730D01*
Y337965D01*
Y338121D01*
Y338160D01*
Y338433D01*
Y339214D01*
X112837Y339957D01*
X112916Y340660D01*
X113033Y341285D01*
X113189Y341870D01*
X113345Y342417D01*
X113501Y342925D01*
X113658Y343355D01*
X113814Y343745D01*
X113970Y344097D01*
X114126Y344409D01*
X114283Y344644D01*
X114400Y344839D01*
X114478Y344956D01*
X114517Y345034D01*
X114556Y345073D01*
X114908Y345503D01*
X115298Y345855D01*
X115689Y346167D01*
X116119Y346441D01*
X116548Y346675D01*
X116939Y346870D01*
X117759Y347144D01*
X118501Y347339D01*
X118814Y347378D01*
X119087Y347417D01*
X119321Y347456D01*
X120063D01*
X120493Y347378D01*
X121274Y347183D01*
X121938Y346909D01*
X122524Y346597D01*
X122954Y346245D01*
X123305Y345972D01*
X123501Y345777D01*
X123579Y345738D01*
Y354526D01*
X129047D01*
Y329528D01*
D02*
G37*
G36*
X231424D02*
X226502D01*
X226307Y331324D01*
X225994Y330973D01*
X225643Y330621D01*
X225291Y330348D01*
X224940Y330114D01*
X224198Y329723D01*
X223534Y329488D01*
X222908Y329332D01*
X222635Y329293D01*
X222401Y329254D01*
X222245Y329215D01*
X221971D01*
X221385Y329254D01*
X220838Y329332D01*
X220291Y329410D01*
X219823Y329567D01*
X218964Y329957D01*
X218221Y330387D01*
X217674Y330778D01*
X217440Y330973D01*
X217245Y331168D01*
X217128Y331324D01*
X217010Y331402D01*
X216971Y331481D01*
X216932Y331520D01*
X216620Y331988D01*
X216346Y332496D01*
X215878Y333551D01*
X215565Y334644D01*
X215370Y335738D01*
X215292Y336207D01*
X215214Y336676D01*
X215175Y337105D01*
Y337457D01*
X215136Y337730D01*
Y337965D01*
Y338121D01*
Y338160D01*
Y338433D01*
Y339214D01*
X215214Y339957D01*
X215292Y340660D01*
X215409Y341285D01*
X215565Y341870D01*
X215722Y342417D01*
X215878Y342925D01*
X216034Y343355D01*
X216190Y343745D01*
X216346Y344097D01*
X216503Y344409D01*
X216659Y344644D01*
X216776Y344839D01*
X216854Y344956D01*
X216893Y345034D01*
X216932Y345073D01*
X217284Y345503D01*
X217674Y345855D01*
X218065Y346167D01*
X218495Y346441D01*
X218924Y346675D01*
X219315Y346870D01*
X220135Y347144D01*
X220877Y347339D01*
X221190Y347378D01*
X221463Y347417D01*
X221698Y347456D01*
X222440D01*
X222869Y347378D01*
X223651Y347183D01*
X224315Y346909D01*
X224901Y346597D01*
X225330Y346245D01*
X225682Y345972D01*
X225877Y345777D01*
X225955Y345738D01*
Y354526D01*
X231424D01*
Y329528D01*
D02*
G37*
G36*
X243063Y347378D02*
X244118Y347222D01*
X245095Y346948D01*
X245485Y346792D01*
X245876Y346675D01*
X246227Y346519D01*
X246540Y346362D01*
X246774Y346245D01*
X247008Y346089D01*
X247165Y346011D01*
X247282Y345933D01*
X247360Y345855D01*
X247399D01*
X247790Y345542D01*
X248102Y345230D01*
X248376Y344878D01*
X248649Y344527D01*
X249040Y343824D01*
X249274Y343199D01*
X249430Y342613D01*
X249469Y342339D01*
X249508Y342144D01*
X249547Y341949D01*
Y341831D01*
Y341753D01*
Y341714D01*
X244079D01*
X244040Y342066D01*
X244001Y342378D01*
X243884Y342613D01*
X243767Y342847D01*
X243454Y343199D01*
X243103Y343433D01*
X242751Y343550D01*
X242439Y343628D01*
X242204Y343667D01*
X242126D01*
X241735Y343628D01*
X241423Y343550D01*
X241149Y343433D01*
X240915Y343277D01*
X240525Y342886D01*
X240290Y342456D01*
X240134Y341988D01*
X240056Y341597D01*
X240017Y341441D01*
Y341324D01*
Y341246D01*
Y341207D01*
Y340269D01*
X242439D01*
X243103Y340191D01*
X243767Y340152D01*
X244352Y340035D01*
X244899Y339917D01*
X245407Y339800D01*
X245876Y339683D01*
X246305Y339527D01*
X246657Y339371D01*
X246970Y339253D01*
X247243Y339136D01*
X247477Y339019D01*
X247634Y338941D01*
X247751Y338863D01*
X247829Y338785D01*
X247868D01*
X248219Y338511D01*
X248571Y338199D01*
X248844Y337847D01*
X249079Y337496D01*
X249469Y336793D01*
X249704Y336090D01*
X249860Y335465D01*
X249899Y335191D01*
X249938Y334957D01*
X249977Y334762D01*
Y334605D01*
Y334527D01*
Y334488D01*
X249938Y334058D01*
X249899Y333668D01*
X249704Y332926D01*
X249430Y332262D01*
X249118Y331715D01*
X248805Y331285D01*
X248532Y330973D01*
X248337Y330778D01*
X248258Y330699D01*
X247555Y330192D01*
X246852Y329840D01*
X246149Y329567D01*
X245485Y329410D01*
X244899Y329293D01*
X244626Y329254D01*
X244431D01*
X244235Y329215D01*
X244001D01*
X243493Y329254D01*
X243024Y329293D01*
X242204Y329528D01*
X241462Y329801D01*
X240876Y330153D01*
X240407Y330504D01*
X240056Y330817D01*
X239861Y331012D01*
X239782Y331051D01*
Y331090D01*
X239704Y330738D01*
X239587Y330387D01*
X239509Y330153D01*
X239431Y329918D01*
X239353Y329762D01*
X239275Y329606D01*
X239236Y329567D01*
Y329528D01*
X233767D01*
Y329801D01*
X234001Y330309D01*
X234197Y330895D01*
X234314Y331520D01*
X234392Y332145D01*
X234470Y332652D01*
X234509Y333121D01*
Y333277D01*
Y333395D01*
Y333473D01*
Y333512D01*
Y341285D01*
X234548Y341792D01*
X234587Y342300D01*
X234822Y343199D01*
X235173Y343941D01*
X235525Y344605D01*
X235876Y345112D01*
X236189Y345464D01*
X236423Y345698D01*
X236462Y345777D01*
X236501D01*
X236892Y346089D01*
X237283Y346323D01*
X238142Y346753D01*
X239040Y347065D01*
X239900Y347261D01*
X240681Y347378D01*
X240993Y347417D01*
X241306D01*
X241540Y347456D01*
X241853D01*
X243063Y347378D01*
D02*
G37*
G36*
X166975Y347417D02*
X167834Y347300D01*
X168576Y347105D01*
X169240Y346909D01*
X169748Y346675D01*
X170138Y346519D01*
X170295Y346441D01*
X170412Y346362D01*
X170451Y346323D01*
X170490D01*
X171154Y345894D01*
X171701Y345386D01*
X172170Y344839D01*
X172599Y344370D01*
X172912Y343902D01*
X173107Y343550D01*
X173263Y343277D01*
X173302Y343238D01*
Y343199D01*
X173615Y342417D01*
X173849Y341597D01*
X174045Y340816D01*
X174162Y340113D01*
X174240Y339449D01*
Y339175D01*
X174279Y338941D01*
Y338785D01*
Y338629D01*
Y338550D01*
Y338511D01*
Y338277D01*
X174240Y337496D01*
X174201Y336754D01*
X174083Y336090D01*
X173927Y335426D01*
X173771Y334840D01*
X173576Y334293D01*
X173380Y333785D01*
X173185Y333355D01*
X172990Y332926D01*
X172794Y332574D01*
X172599Y332301D01*
X172443Y332027D01*
X172287Y331832D01*
X172170Y331715D01*
X172131Y331637D01*
X172091Y331598D01*
X171662Y331168D01*
X171193Y330817D01*
X170685Y330504D01*
X170217Y330231D01*
X169709Y329996D01*
X169201Y329801D01*
X168225Y329528D01*
X167756Y329410D01*
X167326Y329332D01*
X166975Y329293D01*
X166623Y329254D01*
X166350Y329215D01*
X165998D01*
X165412Y329254D01*
X164826Y329293D01*
X163811Y329488D01*
X162873Y329801D01*
X162131Y330153D01*
X161780Y330309D01*
X161506Y330465D01*
X161272Y330621D01*
X161076Y330778D01*
X160881Y330895D01*
X160764Y330973D01*
X160725Y331051D01*
X160686D01*
X160295Y331402D01*
X159983Y331793D01*
X159709Y332184D01*
X159475Y332574D01*
X159084Y333355D01*
X158850Y334098D01*
X158694Y334762D01*
X158655Y335035D01*
X158616Y335308D01*
X158577Y335504D01*
Y335660D01*
Y335738D01*
Y335777D01*
X163733D01*
X163772Y335387D01*
X163811Y335035D01*
X163928Y334762D01*
X164045Y334527D01*
X164162Y334332D01*
X164240Y334176D01*
X164319Y334098D01*
X164358Y334058D01*
X164631Y333863D01*
X164904Y333707D01*
X165217Y333590D01*
X165490Y333512D01*
X165764Y333473D01*
X165959Y333434D01*
X166154D01*
X166623Y333473D01*
X167053Y333590D01*
X167404Y333746D01*
X167678Y333941D01*
X167912Y334137D01*
X168068Y334293D01*
X168146Y334410D01*
X168185Y334449D01*
X168381Y334918D01*
X168537Y335465D01*
X168654Y336051D01*
X168732Y336676D01*
X168771Y337222D01*
X168810Y337691D01*
Y337886D01*
Y338004D01*
Y338082D01*
Y338121D01*
Y338668D01*
X168771Y339136D01*
Y339527D01*
X168732Y339879D01*
Y340152D01*
X168693Y340347D01*
Y340464D01*
Y340503D01*
X168615Y340972D01*
X168459Y341402D01*
X168303Y341753D01*
X168146Y342105D01*
X167951Y342339D01*
X167717Y342574D01*
X167521Y342769D01*
X167287Y342886D01*
X166896Y343081D01*
X166545Y343199D01*
X166271Y343238D01*
X166193D01*
X165803Y343199D01*
X165451Y343120D01*
X165139Y343003D01*
X164865Y342886D01*
X164670Y342730D01*
X164514Y342613D01*
X164436Y342534D01*
X164397Y342495D01*
X164162Y342183D01*
X164006Y341870D01*
X163889Y341519D01*
X163811Y341167D01*
X163772Y340855D01*
X163733Y340621D01*
Y340464D01*
Y340386D01*
X158577D01*
X158616Y340972D01*
X158655Y341558D01*
X158889Y342574D01*
X159202Y343433D01*
X159592Y344175D01*
X159788Y344488D01*
X159983Y344761D01*
X160139Y344995D01*
X160295Y345191D01*
X160413Y345347D01*
X160530Y345464D01*
X160569Y345503D01*
X160608Y345542D01*
X160998Y345894D01*
X161428Y346167D01*
X161858Y346441D01*
X162326Y346636D01*
X163225Y346987D01*
X164084Y347222D01*
X164865Y347339D01*
X165217Y347417D01*
X165490D01*
X165764Y347456D01*
X166076D01*
X166975Y347417D01*
D02*
G37*
G36*
X184747D02*
X185606Y347300D01*
X186387Y347105D01*
X187051Y346909D01*
X187598Y346675D01*
X187989Y346519D01*
X188145Y346441D01*
X188262Y346362D01*
X188301Y346323D01*
X188340D01*
X189004Y345855D01*
X189590Y345347D01*
X190098Y344800D01*
X190528Y344292D01*
X190840Y343824D01*
X191075Y343472D01*
X191153Y343316D01*
X191231Y343199D01*
X191270Y343160D01*
Y343120D01*
X191582Y342339D01*
X191817Y341519D01*
X192012Y340699D01*
X192129Y339957D01*
X192207Y339332D01*
Y339058D01*
X192246Y338824D01*
Y338629D01*
Y338472D01*
Y338394D01*
Y338355D01*
Y337886D01*
X192207Y337183D01*
X192129Y336519D01*
X192012Y335855D01*
X191856Y335269D01*
X191660Y334722D01*
X191465Y334215D01*
X191231Y333707D01*
X190997Y333277D01*
X190762Y332926D01*
X190528Y332574D01*
X190332Y332262D01*
X190137Y332027D01*
X189981Y331832D01*
X189864Y331715D01*
X189786Y331637D01*
X189747Y331598D01*
X189278Y331168D01*
X188731Y330817D01*
X188223Y330504D01*
X187676Y330231D01*
X187129Y329996D01*
X186583Y329801D01*
X185528Y329528D01*
X185059Y329410D01*
X184591Y329332D01*
X184200Y329293D01*
X183849Y329254D01*
X183575Y329215D01*
X183185D01*
X182403Y329254D01*
X181661Y329332D01*
X180958Y329488D01*
X180372Y329645D01*
X179864Y329762D01*
X179474Y329918D01*
X179357Y329957D01*
X179239Y329996D01*
X179200Y330035D01*
X179161D01*
X178497Y330387D01*
X177911Y330738D01*
X177404Y331090D01*
X176974Y331441D01*
X176662Y331793D01*
X176427Y332027D01*
X176271Y332184D01*
X176232Y332262D01*
X178732Y335230D01*
X179005Y334918D01*
X179318Y334644D01*
X179982Y334176D01*
X180685Y333863D01*
X181349Y333668D01*
X181935Y333512D01*
X182169Y333473D01*
X182403D01*
X182599Y333434D01*
X182833D01*
X183380Y333473D01*
X183888Y333551D01*
X184317Y333707D01*
X184708Y333863D01*
X185020Y333980D01*
X185216Y334137D01*
X185372Y334215D01*
X185411Y334254D01*
X185762Y334605D01*
X186036Y334996D01*
X186231Y335387D01*
X186387Y335738D01*
X186505Y336090D01*
X186583Y336363D01*
X186661Y336519D01*
Y336597D01*
X175763D01*
Y338707D01*
X175802Y339449D01*
X175841Y340191D01*
X175958Y340855D01*
X176115Y341480D01*
X176271Y342027D01*
X176427Y342574D01*
X176622Y343042D01*
X176818Y343472D01*
X177052Y343863D01*
X177247Y344214D01*
X177404Y344488D01*
X177560Y344722D01*
X177716Y344917D01*
X177833Y345034D01*
X177872Y345112D01*
X177911Y345152D01*
X178341Y345542D01*
X178771Y345933D01*
X179239Y346206D01*
X179747Y346480D01*
X180216Y346714D01*
X180724Y346909D01*
X181661Y347183D01*
X182091Y347261D01*
X182481Y347339D01*
X182833Y347378D01*
X183145Y347417D01*
X183419Y347456D01*
X183770D01*
X184747Y347417D01*
D02*
G37*
G36*
X229039Y318650D02*
X229307Y318601D01*
X229551Y318528D01*
X229746Y318430D01*
X229893Y318333D01*
X230015Y318259D01*
X230088Y318211D01*
X230113Y318186D01*
X230283Y317991D01*
X230430Y317796D01*
X230527Y317600D01*
X230576Y317405D01*
X230625Y317259D01*
X230650Y317112D01*
Y317015D01*
Y316990D01*
X230625Y316722D01*
X230576Y316502D01*
X230479Y316282D01*
X230381Y316111D01*
X230283Y315989D01*
X230186Y315867D01*
X230137Y315818D01*
X230113Y315794D01*
X229893Y315648D01*
X229673Y315526D01*
X229453Y315452D01*
X229234Y315379D01*
X229039Y315355D01*
X228892Y315330D01*
X228746D01*
X228453Y315355D01*
X228160Y315403D01*
X227940Y315477D01*
X227745Y315574D01*
X227574Y315648D01*
X227476Y315721D01*
X227403Y315770D01*
X227379Y315794D01*
X227208Y315989D01*
X227061Y316184D01*
X226964Y316380D01*
X226915Y316575D01*
X226866Y316746D01*
X226842Y316868D01*
Y316966D01*
Y316990D01*
X226866Y317259D01*
X226915Y317478D01*
X227012Y317698D01*
X227110Y317869D01*
X227208Y317991D01*
X227305Y318113D01*
X227354Y318162D01*
X227379Y318186D01*
X227574Y318357D01*
X227818Y318479D01*
X228038Y318552D01*
X228257Y318626D01*
X228453Y318650D01*
X228599Y318674D01*
X228746D01*
X229039Y318650D01*
D02*
G37*
G36*
X156077D02*
X156346Y318601D01*
X156590Y318528D01*
X156785Y318430D01*
X156931Y318333D01*
X157053Y318259D01*
X157127Y318211D01*
X157151Y318186D01*
X157322Y317991D01*
X157468Y317796D01*
X157566Y317600D01*
X157615Y317405D01*
X157664Y317259D01*
X157688Y317112D01*
Y317015D01*
Y316990D01*
X157664Y316722D01*
X157615Y316502D01*
X157517Y316282D01*
X157420Y316111D01*
X157322Y315989D01*
X157224Y315867D01*
X157176Y315818D01*
X157151Y315794D01*
X156931Y315648D01*
X156712Y315526D01*
X156492Y315452D01*
X156272Y315379D01*
X156077Y315355D01*
X155931Y315330D01*
X155784D01*
X155491Y315355D01*
X155198Y315403D01*
X154979Y315477D01*
X154783Y315574D01*
X154612Y315648D01*
X154515Y315721D01*
X154442Y315770D01*
X154417Y315794D01*
X154246Y315989D01*
X154100Y316184D01*
X154002Y316380D01*
X153953Y316575D01*
X153904Y316746D01*
X153880Y316868D01*
Y316966D01*
Y316990D01*
X153904Y317259D01*
X153953Y317478D01*
X154051Y317698D01*
X154149Y317869D01*
X154246Y317991D01*
X154344Y318113D01*
X154393Y318162D01*
X154417Y318186D01*
X154612Y318357D01*
X154857Y318479D01*
X155076Y318552D01*
X155296Y318626D01*
X155491Y318650D01*
X155638Y318674D01*
X155784D01*
X156077Y318650D01*
D02*
G37*
G36*
X132253Y315696D02*
Y313060D01*
X128884Y314036D01*
Y303150D01*
X125443D01*
Y317942D01*
X125760D01*
X132253Y315696D01*
D02*
G37*
G36*
X246492Y318650D02*
X246760Y318601D01*
X247004Y318528D01*
X247200Y318430D01*
X247346Y318333D01*
X247468Y318259D01*
X247541Y318211D01*
X247566Y318186D01*
X247737Y317991D01*
X247883Y317796D01*
X247981Y317600D01*
X248029Y317405D01*
X248078Y317259D01*
X248103Y317112D01*
Y317015D01*
Y316990D01*
X248078Y316722D01*
X248029Y316502D01*
X247932Y316282D01*
X247834Y316111D01*
X247737Y315989D01*
X247639Y315867D01*
X247590Y315818D01*
X247566Y315794D01*
X247346Y315648D01*
X247126Y315526D01*
X246907Y315452D01*
X246687Y315379D01*
X246492Y315355D01*
X246345Y315330D01*
X246199D01*
X245906Y315355D01*
X245613Y315403D01*
X245393Y315477D01*
X245198Y315574D01*
X245027Y315648D01*
X244929Y315721D01*
X244856Y315770D01*
X244832Y315794D01*
X244661Y315989D01*
X244514Y316184D01*
X244417Y316380D01*
X244368Y316575D01*
X244319Y316746D01*
X244295Y316868D01*
Y316966D01*
Y316990D01*
X244319Y317259D01*
X244368Y317478D01*
X244466Y317698D01*
X244563Y317869D01*
X244661Y317991D01*
X244759Y318113D01*
X244807Y318162D01*
X244832Y318186D01*
X245027Y318357D01*
X245271Y318479D01*
X245491Y318552D01*
X245711Y318626D01*
X245906Y318650D01*
X246052Y318674D01*
X246199D01*
X246492Y318650D01*
D02*
G37*
G36*
X167211Y268671D02*
X168196D01*
Y268425D01*
X168688D01*
Y268179D01*
X169427D01*
Y267932D01*
X169673D01*
Y267686D01*
X170166D01*
Y267440D01*
X170412D01*
Y267194D01*
X170658D01*
Y266947D01*
X170905D01*
Y266701D01*
X170658D01*
Y266455D01*
X170412D01*
Y266209D01*
X170166D01*
Y265962D01*
X169673D01*
Y265716D01*
X169427D01*
Y265470D01*
X168935D01*
Y265224D01*
X168688D01*
Y265470D01*
X168442D01*
Y265716D01*
X167703D01*
Y265962D01*
X167211D01*
Y266209D01*
X166226D01*
Y266455D01*
X164256D01*
Y266209D01*
X163517D01*
Y265962D01*
X163025D01*
Y265716D01*
X162778D01*
Y265470D01*
X162532D01*
Y265224D01*
X162286D01*
Y264977D01*
X162040D01*
Y264731D01*
X161793D01*
Y264485D01*
Y264239D01*
Y263992D01*
Y263746D01*
X161547D01*
Y263500D01*
Y263254D01*
Y263007D01*
Y262761D01*
Y262515D01*
Y262269D01*
Y262022D01*
X166965D01*
Y261776D01*
X168688D01*
Y261530D01*
X169427D01*
Y261284D01*
X169920D01*
Y261037D01*
X170412D01*
Y260791D01*
X170658D01*
Y260545D01*
X170905D01*
Y260299D01*
X171151D01*
Y260052D01*
Y259806D01*
X171397D01*
Y259560D01*
Y259314D01*
X171643D01*
Y259067D01*
Y258821D01*
Y258575D01*
Y258329D01*
X171890D01*
Y258082D01*
Y257836D01*
Y257590D01*
Y257344D01*
Y257097D01*
Y256851D01*
Y256605D01*
Y256359D01*
Y256112D01*
X171643D01*
Y255866D01*
Y255620D01*
Y255374D01*
Y255127D01*
X171397D01*
Y254881D01*
Y254635D01*
Y254389D01*
X171151D01*
Y254142D01*
Y253896D01*
X170905D01*
Y253650D01*
X170658D01*
Y253404D01*
X170412D01*
Y253157D01*
X169920D01*
Y252911D01*
X169673D01*
Y252665D01*
X168935D01*
Y252419D01*
X167950D01*
Y252172D01*
X164010D01*
Y252419D01*
X163271D01*
Y252665D01*
X162778D01*
Y252911D01*
X162532D01*
Y253157D01*
X162040D01*
Y253404D01*
X161547D01*
Y253157D01*
Y252911D01*
X161793D01*
Y252665D01*
Y252419D01*
X158838D01*
Y252665D01*
Y252911D01*
Y253157D01*
Y253404D01*
Y253650D01*
Y253896D01*
Y254142D01*
Y254389D01*
Y254635D01*
Y254881D01*
Y255127D01*
Y255374D01*
Y255620D01*
Y255866D01*
Y256112D01*
Y256359D01*
Y256605D01*
Y256851D01*
Y257097D01*
Y257344D01*
Y257590D01*
Y257836D01*
Y258082D01*
Y258329D01*
Y258575D01*
Y258821D01*
Y259067D01*
Y259314D01*
Y259560D01*
Y259806D01*
Y260052D01*
Y260299D01*
Y260545D01*
Y260791D01*
Y261037D01*
Y261284D01*
Y261530D01*
Y261776D01*
Y262022D01*
Y262269D01*
Y262515D01*
Y262761D01*
Y263007D01*
Y263254D01*
Y263500D01*
Y263746D01*
Y263992D01*
Y264239D01*
Y264485D01*
X159085D01*
Y264731D01*
Y264977D01*
Y265224D01*
Y265470D01*
X159331D01*
Y265716D01*
Y265962D01*
X159577D01*
Y266209D01*
Y266455D01*
X159823D01*
Y266701D01*
Y266947D01*
X160070D01*
Y267194D01*
X160316D01*
Y267440D01*
X160562D01*
Y267686D01*
X161055D01*
Y267932D01*
X161301D01*
Y268179D01*
X161793D01*
Y268425D01*
X162286D01*
Y268671D01*
X163271D01*
Y268917D01*
X167211D01*
Y268671D01*
D02*
G37*
G36*
X189620Y275074D02*
Y274828D01*
Y274581D01*
Y274335D01*
Y274089D01*
Y273843D01*
Y273596D01*
Y273350D01*
Y273104D01*
Y272857D01*
Y272611D01*
Y272365D01*
Y272119D01*
Y271872D01*
Y271626D01*
Y271380D01*
Y271134D01*
Y270887D01*
Y270641D01*
Y270395D01*
Y270149D01*
Y269902D01*
Y269656D01*
Y269410D01*
Y269164D01*
Y268917D01*
Y268671D01*
Y268425D01*
Y268179D01*
Y267932D01*
Y267686D01*
Y267440D01*
Y267194D01*
Y266947D01*
Y266701D01*
Y266455D01*
Y266209D01*
Y265962D01*
Y265716D01*
Y265470D01*
Y265224D01*
Y264977D01*
Y264731D01*
Y264485D01*
Y264239D01*
Y263992D01*
Y263746D01*
Y263500D01*
Y263254D01*
Y263007D01*
Y262761D01*
Y262515D01*
Y262269D01*
Y262022D01*
Y261776D01*
Y261530D01*
Y261284D01*
Y261037D01*
Y260791D01*
Y260545D01*
Y260299D01*
Y260052D01*
Y259806D01*
Y259560D01*
Y259314D01*
Y259067D01*
Y258821D01*
Y258575D01*
Y258329D01*
Y258082D01*
Y257836D01*
Y257590D01*
Y257344D01*
Y257097D01*
Y256851D01*
Y256605D01*
Y256359D01*
Y256112D01*
Y255866D01*
Y255620D01*
Y255374D01*
Y255127D01*
Y254881D01*
Y254635D01*
Y254389D01*
Y254142D01*
Y253896D01*
Y253650D01*
Y253404D01*
Y253157D01*
Y252911D01*
Y252665D01*
Y252419D01*
X174845D01*
Y252665D01*
Y252911D01*
Y253157D01*
Y253404D01*
Y253650D01*
Y253896D01*
Y254142D01*
Y254389D01*
Y254635D01*
Y254881D01*
Y255127D01*
X186665D01*
Y255374D01*
Y255620D01*
Y255866D01*
Y256112D01*
Y256359D01*
Y256605D01*
Y256851D01*
Y257097D01*
Y257344D01*
Y257590D01*
Y257836D01*
Y258082D01*
Y258329D01*
Y258575D01*
Y258821D01*
Y259067D01*
Y259314D01*
Y259560D01*
Y259806D01*
Y260052D01*
Y260299D01*
Y260545D01*
Y260791D01*
Y261037D01*
Y261284D01*
Y261530D01*
Y261776D01*
Y262022D01*
Y262269D01*
Y262515D01*
Y262761D01*
Y263007D01*
Y263254D01*
Y263500D01*
Y263746D01*
Y263992D01*
Y264239D01*
Y264485D01*
Y264731D01*
Y264977D01*
Y265224D01*
Y265470D01*
Y265716D01*
Y265962D01*
Y266209D01*
Y266455D01*
Y266701D01*
Y266947D01*
Y267194D01*
Y267440D01*
Y267686D01*
Y267932D01*
Y268179D01*
Y268425D01*
Y268671D01*
Y268917D01*
Y269164D01*
Y269410D01*
Y269656D01*
Y269902D01*
Y270149D01*
Y270395D01*
Y270641D01*
Y270887D01*
Y271134D01*
Y271380D01*
Y271626D01*
Y271872D01*
Y272119D01*
Y272365D01*
Y272611D01*
Y272857D01*
Y273104D01*
Y273350D01*
Y273596D01*
Y273843D01*
Y274089D01*
Y274335D01*
Y274581D01*
Y274828D01*
Y275074D01*
Y275320D01*
X189620D01*
Y275074D01*
D02*
G37*
G36*
X131997Y268671D02*
X132982D01*
Y268425D01*
X133474D01*
Y268179D01*
X133967D01*
Y267932D01*
X134459D01*
Y267686D01*
X134706D01*
Y267440D01*
X134952D01*
Y267194D01*
X135198D01*
Y266947D01*
Y266701D01*
X135444D01*
Y266455D01*
X135691D01*
Y266209D01*
Y265962D01*
Y265716D01*
X135937D01*
Y265470D01*
Y265224D01*
Y264977D01*
Y264731D01*
Y264485D01*
Y264239D01*
Y263992D01*
Y263746D01*
Y263500D01*
Y263254D01*
Y263007D01*
Y262761D01*
Y262515D01*
Y262269D01*
Y262022D01*
X135691D01*
Y261776D01*
Y261530D01*
X135444D01*
Y261284D01*
X135198D01*
Y261037D01*
Y260791D01*
X134952D01*
Y260545D01*
X134459D01*
Y260299D01*
X134213D01*
Y260052D01*
X133474D01*
Y259806D01*
X132489D01*
Y259560D01*
X129288D01*
Y259314D01*
X127811D01*
Y259067D01*
X127072D01*
Y258821D01*
X126579D01*
Y258575D01*
X126333D01*
Y258329D01*
X126087D01*
Y258082D01*
X125841D01*
Y257836D01*
Y257590D01*
Y257344D01*
Y257097D01*
Y256851D01*
Y256605D01*
Y256359D01*
X126087D01*
Y256112D01*
Y255866D01*
X126579D01*
Y255620D01*
X126826D01*
Y255374D01*
X127072D01*
Y255127D01*
X127811D01*
Y254881D01*
X128796D01*
Y254635D01*
X130519D01*
Y254881D01*
X131751D01*
Y255127D01*
X132489D01*
Y255374D01*
X133228D01*
Y255620D01*
X133721D01*
Y255866D01*
X133967D01*
Y256112D01*
X134459D01*
Y256359D01*
X134706D01*
Y256605D01*
X135444D01*
Y256359D01*
X135691D01*
Y256112D01*
X135937D01*
Y255866D01*
Y255620D01*
X136183D01*
Y255374D01*
X136429D01*
Y255127D01*
X136676D01*
Y254881D01*
X136922D01*
Y254635D01*
Y254389D01*
X136676D01*
Y254142D01*
X136183D01*
Y253896D01*
X135937D01*
Y253650D01*
X135444D01*
Y253404D01*
X135198D01*
Y253157D01*
X134706D01*
Y252911D01*
X133967D01*
Y252665D01*
X133228D01*
Y252419D01*
X132243D01*
Y252172D01*
X127564D01*
Y252419D01*
X126333D01*
Y252665D01*
X125594D01*
Y252911D01*
X125102D01*
Y253157D01*
X124856D01*
Y253404D01*
X124363D01*
Y253650D01*
X124117D01*
Y253896D01*
Y254142D01*
X123871D01*
Y254389D01*
X123624D01*
Y254635D01*
Y254881D01*
X123378D01*
Y255127D01*
Y255374D01*
X123132D01*
Y255620D01*
Y255866D01*
Y256112D01*
Y256359D01*
Y256605D01*
X122886D01*
Y256851D01*
Y257097D01*
Y257344D01*
Y257590D01*
Y257836D01*
Y258082D01*
X123132D01*
Y258329D01*
Y258575D01*
Y258821D01*
Y259067D01*
X123378D01*
Y259314D01*
Y259560D01*
Y259806D01*
X123624D01*
Y260052D01*
X123871D01*
Y260299D01*
Y260545D01*
X124117D01*
Y260791D01*
X124609D01*
Y261037D01*
X124856D01*
Y261284D01*
X125348D01*
Y261530D01*
X126087D01*
Y261776D01*
X127318D01*
Y262022D01*
X130027D01*
Y262269D01*
X131751D01*
Y262515D01*
X132489D01*
Y262761D01*
X132736D01*
Y263007D01*
X132982D01*
Y263254D01*
X133228D01*
Y263500D01*
Y263746D01*
Y263992D01*
Y264239D01*
Y264485D01*
Y264731D01*
Y264977D01*
X132982D01*
Y265224D01*
X132736D01*
Y265470D01*
X132489D01*
Y265716D01*
X132243D01*
Y265962D01*
X131751D01*
Y266209D01*
X130766D01*
Y266455D01*
X129042D01*
Y266209D01*
X127811D01*
Y265962D01*
X127072D01*
Y265716D01*
X126579D01*
Y265470D01*
X125841D01*
Y265224D01*
X125594D01*
Y264977D01*
X125102D01*
Y264731D01*
X124856D01*
Y264977D01*
X124609D01*
Y265224D01*
X124363D01*
Y265470D01*
Y265716D01*
X124117D01*
Y265962D01*
X123871D01*
Y266209D01*
X123624D01*
Y266455D01*
X123378D01*
Y266701D01*
Y266947D01*
X123132D01*
Y267194D01*
X123624D01*
Y267440D01*
X124117D01*
Y267686D01*
X124609D01*
Y267932D01*
X125102D01*
Y268179D01*
X125594D01*
Y268425D01*
X126333D01*
Y268671D01*
X127564D01*
Y268917D01*
X131997D01*
Y268671D01*
D02*
G37*
G36*
X202676Y307031D02*
X202627Y306323D01*
X202529Y305713D01*
X202383Y305200D01*
X202212Y304785D01*
X202041Y304443D01*
X201895Y304199D01*
X201797Y304053D01*
X201748Y304028D01*
Y304004D01*
X201553Y303809D01*
X201358Y303662D01*
X200918Y303394D01*
X200479Y303223D01*
X200040Y303076D01*
X199625Y303003D01*
X199454Y302979D01*
X199307D01*
X199185Y302954D01*
X199014D01*
X198672Y302979D01*
X198355Y303003D01*
X198062Y303076D01*
X197769Y303174D01*
X197281Y303394D01*
X196842Y303662D01*
X196524Y303906D01*
X196280Y304126D01*
X196207Y304224D01*
X196134Y304297D01*
X196085Y304321D01*
Y304346D01*
X195987Y303150D01*
X192765D01*
Y314159D01*
X196207D01*
Y306421D01*
X196427Y306152D01*
X196695Y305932D01*
X196964Y305786D01*
X197232Y305688D01*
X197501Y305639D01*
X197696Y305615D01*
X197843Y305591D01*
X197891D01*
X198135Y305615D01*
X198331Y305639D01*
X198526Y305713D01*
X198672Y305810D01*
X198917Y306030D01*
X199088Y306298D01*
X199185Y306543D01*
X199234Y306762D01*
X199258Y306860D01*
Y306933D01*
Y306958D01*
Y306982D01*
Y314159D01*
X202676D01*
Y307031D01*
D02*
G37*
G36*
X164230Y314159D02*
X165621D01*
Y311791D01*
X164230D01*
Y306323D01*
X164206Y305713D01*
X164108Y305200D01*
X163962Y304761D01*
X163815Y304419D01*
X163669Y304126D01*
X163522Y303931D01*
X163425Y303833D01*
X163400Y303784D01*
X163034Y303516D01*
X162619Y303296D01*
X162180Y303150D01*
X161765Y303052D01*
X161374Y303003D01*
X161203Y302979D01*
X161057D01*
X160935Y302954D01*
X160764D01*
X160398Y302979D01*
X160031Y303003D01*
X159714Y303052D01*
X159421Y303101D01*
X159177Y303150D01*
X159006Y303174D01*
X158884Y303223D01*
X158835D01*
Y305639D01*
X159104Y305615D01*
X159397Y305591D01*
X159909D01*
X160105Y305639D01*
X160276Y305664D01*
X160398Y305713D01*
X160471Y305762D01*
X160544Y305786D01*
X160568Y305835D01*
X160593D01*
X160666Y305932D01*
X160715Y306079D01*
X160788Y306347D01*
Y306494D01*
X160813Y306591D01*
Y306665D01*
Y306689D01*
Y311791D01*
X158982D01*
Y314159D01*
X160813D01*
Y316892D01*
X164230D01*
Y314159D01*
D02*
G37*
G36*
X256600Y289110D02*
X257093D01*
Y288864D01*
X257339D01*
Y288617D01*
X257585D01*
Y288371D01*
Y288125D01*
X257831D01*
Y287879D01*
Y287632D01*
Y287386D01*
Y287140D01*
X258078D01*
Y286894D01*
Y286648D01*
Y286401D01*
Y286155D01*
Y285909D01*
Y285663D01*
Y285416D01*
Y285170D01*
Y284924D01*
Y284678D01*
Y284431D01*
X263003D01*
Y284185D01*
X263495D01*
Y283939D01*
X263988D01*
Y283693D01*
X264234D01*
Y283446D01*
X264726D01*
Y283200D01*
Y282954D01*
X264973D01*
Y282708D01*
Y282461D01*
X265219D01*
Y282215D01*
X265465D01*
Y281969D01*
Y281722D01*
Y281476D01*
Y281230D01*
X265711D01*
Y280984D01*
Y280737D01*
Y280491D01*
Y280245D01*
Y279999D01*
Y279752D01*
Y279506D01*
Y279260D01*
Y279014D01*
Y278767D01*
Y278521D01*
Y278275D01*
Y278029D01*
Y277783D01*
Y277536D01*
Y277290D01*
Y277044D01*
Y276798D01*
Y276551D01*
Y276305D01*
Y276059D01*
Y275813D01*
Y275566D01*
Y275320D01*
Y275074D01*
Y274828D01*
Y274581D01*
Y274335D01*
Y274089D01*
Y273843D01*
Y273596D01*
Y273350D01*
Y273104D01*
Y272857D01*
Y272611D01*
Y272365D01*
Y272119D01*
Y271872D01*
Y271626D01*
Y271380D01*
Y271134D01*
Y270887D01*
Y270641D01*
Y270395D01*
Y270149D01*
Y269902D01*
Y269656D01*
Y269410D01*
Y269164D01*
Y268917D01*
Y268671D01*
Y268425D01*
Y268179D01*
Y267932D01*
Y267686D01*
Y267440D01*
Y267194D01*
Y266947D01*
Y266701D01*
Y266455D01*
Y266209D01*
Y265962D01*
Y265716D01*
Y265470D01*
Y265224D01*
Y264977D01*
Y264731D01*
Y264485D01*
Y264239D01*
Y263992D01*
Y263746D01*
Y263500D01*
Y263254D01*
Y263007D01*
Y262761D01*
Y262515D01*
Y262269D01*
Y262022D01*
Y261776D01*
Y261530D01*
Y261284D01*
Y261037D01*
Y260791D01*
Y260545D01*
Y260299D01*
Y260052D01*
Y259806D01*
Y259560D01*
Y259314D01*
Y259067D01*
Y258821D01*
Y258575D01*
Y258329D01*
Y258082D01*
Y257836D01*
Y257590D01*
Y257344D01*
Y257097D01*
Y256851D01*
Y256605D01*
Y256359D01*
Y256112D01*
Y255866D01*
Y255620D01*
Y255374D01*
Y255127D01*
Y254881D01*
Y254635D01*
Y254389D01*
Y254142D01*
Y253896D01*
Y253650D01*
Y253404D01*
Y253157D01*
Y252911D01*
Y252665D01*
Y252419D01*
Y252172D01*
Y251926D01*
Y251680D01*
Y251434D01*
Y251187D01*
Y250941D01*
Y250695D01*
Y250449D01*
Y250202D01*
Y249956D01*
Y249710D01*
Y249464D01*
Y249217D01*
Y248971D01*
Y248725D01*
Y248479D01*
Y248232D01*
Y247986D01*
Y247740D01*
Y247494D01*
Y247247D01*
Y247001D01*
Y246755D01*
Y246509D01*
X265465D01*
Y246262D01*
X265711D01*
Y246016D01*
X265465D01*
Y245770D01*
Y245524D01*
X265219D01*
Y245277D01*
X264973D01*
Y245031D01*
Y244785D01*
X264726D01*
Y244538D01*
X264480D01*
Y244292D01*
X264234D01*
Y244046D01*
X263988D01*
Y243800D01*
X263495D01*
Y243553D01*
X262756D01*
Y243307D01*
X258078D01*
Y243061D01*
Y242815D01*
Y242568D01*
Y242322D01*
Y242076D01*
Y241830D01*
Y241583D01*
Y241337D01*
Y241091D01*
Y240845D01*
Y240599D01*
X257831D01*
Y240352D01*
Y240106D01*
Y239860D01*
Y239614D01*
X257585D01*
Y239367D01*
Y239121D01*
X257339D01*
Y238875D01*
X257093D01*
Y238629D01*
X250936D01*
Y238875D01*
X250444D01*
Y239121D01*
Y239367D01*
X250198D01*
Y239614D01*
X249951D01*
Y239860D01*
Y240106D01*
Y240352D01*
Y240599D01*
Y240845D01*
Y241091D01*
Y241337D01*
Y241583D01*
Y241830D01*
Y242076D01*
Y242322D01*
Y242568D01*
Y242815D01*
Y243061D01*
Y243307D01*
X241825D01*
Y243061D01*
Y242815D01*
Y242568D01*
Y242322D01*
Y242076D01*
Y241830D01*
Y241583D01*
Y241337D01*
Y241091D01*
Y240845D01*
Y240599D01*
Y240352D01*
Y240106D01*
X241579D01*
Y239860D01*
Y239614D01*
X241333D01*
Y239367D01*
Y239121D01*
X241086D01*
Y238875D01*
X240840D01*
Y238629D01*
X234684D01*
Y238875D01*
X234437D01*
Y239121D01*
X234191D01*
Y239367D01*
X233945D01*
Y239614D01*
Y239860D01*
X233699D01*
Y240106D01*
Y240352D01*
Y240599D01*
Y240845D01*
X233453D01*
Y241091D01*
X233699D01*
Y241337D01*
Y241583D01*
Y241830D01*
Y242076D01*
Y242322D01*
Y242568D01*
Y242815D01*
Y243061D01*
Y243307D01*
X225572D01*
Y243061D01*
Y242815D01*
Y242568D01*
Y242322D01*
Y242076D01*
Y241830D01*
Y241583D01*
Y241337D01*
Y241091D01*
Y240845D01*
Y240599D01*
Y240352D01*
Y240106D01*
X225326D01*
Y239860D01*
Y239614D01*
Y239367D01*
X225080D01*
Y239121D01*
Y238875D01*
X224587D01*
Y238629D01*
X218431D01*
Y238875D01*
X218185D01*
Y239121D01*
X217939D01*
Y239367D01*
X217692D01*
Y239614D01*
Y239860D01*
X217446D01*
Y240106D01*
Y240352D01*
Y240599D01*
Y240845D01*
Y241091D01*
Y241337D01*
Y241583D01*
Y241830D01*
Y242076D01*
Y242322D01*
Y242568D01*
Y242815D01*
Y243061D01*
Y243307D01*
X209566D01*
Y243061D01*
Y242815D01*
Y242568D01*
Y242322D01*
Y242076D01*
Y241830D01*
Y241583D01*
Y241337D01*
Y241091D01*
Y240845D01*
Y240599D01*
X209320D01*
Y240352D01*
Y240106D01*
Y239860D01*
X209074D01*
Y239614D01*
Y239367D01*
Y239121D01*
X208827D01*
Y238875D01*
X208335D01*
Y238629D01*
X202179D01*
Y238875D01*
X201932D01*
Y239121D01*
X201686D01*
Y239367D01*
Y239614D01*
X201440D01*
Y239860D01*
Y240106D01*
Y240352D01*
X201194D01*
Y240599D01*
Y240845D01*
Y241091D01*
Y241337D01*
Y241583D01*
Y241830D01*
Y242076D01*
Y242322D01*
Y242568D01*
Y242815D01*
Y243061D01*
Y243307D01*
X196515D01*
Y243553D01*
X195776D01*
Y243800D01*
X195283D01*
Y244046D01*
X195037D01*
Y244292D01*
X194791D01*
Y244538D01*
X194545D01*
Y244785D01*
X194299D01*
Y245031D01*
X194052D01*
Y245277D01*
Y245524D01*
X193806D01*
Y245770D01*
Y246016D01*
Y246262D01*
X193560D01*
Y246509D01*
Y246755D01*
Y247001D01*
Y247247D01*
Y247494D01*
Y247740D01*
Y247986D01*
Y248232D01*
Y248479D01*
Y248725D01*
Y248971D01*
Y249217D01*
Y249464D01*
Y249710D01*
Y249956D01*
Y250202D01*
Y250449D01*
Y250695D01*
Y250941D01*
Y251187D01*
Y251434D01*
Y251680D01*
Y251926D01*
Y252172D01*
Y252419D01*
Y252665D01*
Y252911D01*
Y253157D01*
Y253404D01*
Y253650D01*
Y253896D01*
Y254142D01*
Y254389D01*
Y254635D01*
Y254881D01*
Y255127D01*
Y255374D01*
Y255620D01*
Y255866D01*
Y256112D01*
Y256359D01*
Y256605D01*
Y256851D01*
Y257097D01*
Y257344D01*
Y257590D01*
Y257836D01*
Y258082D01*
Y258329D01*
Y258575D01*
Y258821D01*
Y259067D01*
Y259314D01*
Y259560D01*
Y259806D01*
Y260052D01*
Y260299D01*
Y260545D01*
Y260791D01*
Y261037D01*
Y261284D01*
Y261530D01*
Y261776D01*
Y262022D01*
Y262269D01*
Y262515D01*
Y262761D01*
Y263007D01*
Y263254D01*
Y263500D01*
Y263746D01*
Y263992D01*
Y264239D01*
Y264485D01*
Y264731D01*
Y264977D01*
Y265224D01*
Y265470D01*
Y265716D01*
Y265962D01*
Y266209D01*
Y266455D01*
Y266701D01*
Y266947D01*
Y267194D01*
Y267440D01*
Y267686D01*
Y267932D01*
Y268179D01*
Y268425D01*
Y268671D01*
Y268917D01*
Y269164D01*
Y269410D01*
Y269656D01*
Y269902D01*
Y270149D01*
Y270395D01*
Y270641D01*
Y270887D01*
Y271134D01*
Y271380D01*
Y271626D01*
Y271872D01*
Y272119D01*
Y272365D01*
Y272611D01*
Y272857D01*
Y273104D01*
Y273350D01*
Y273596D01*
Y273843D01*
Y274089D01*
Y274335D01*
Y274581D01*
Y274828D01*
Y275074D01*
Y275320D01*
Y275566D01*
Y275813D01*
Y276059D01*
Y276305D01*
Y276551D01*
Y276798D01*
Y277044D01*
Y277290D01*
Y277536D01*
Y277783D01*
Y278029D01*
Y278275D01*
Y278521D01*
Y278767D01*
Y279014D01*
Y279260D01*
Y279506D01*
Y279752D01*
Y279999D01*
Y280245D01*
Y280491D01*
Y280737D01*
Y280984D01*
Y281230D01*
Y281476D01*
X193806D01*
Y281722D01*
Y281969D01*
Y282215D01*
X194052D01*
Y282461D01*
Y282708D01*
X194299D01*
Y282954D01*
X194545D01*
Y283200D01*
X194791D01*
Y283446D01*
X195037D01*
Y283693D01*
X195283D01*
Y283939D01*
X195776D01*
Y284185D01*
X196268D01*
Y284431D01*
X201194D01*
Y284678D01*
Y284924D01*
Y285170D01*
Y285416D01*
Y285663D01*
Y285909D01*
Y286155D01*
Y286401D01*
Y286648D01*
Y286894D01*
Y287140D01*
Y287386D01*
Y287632D01*
X201440D01*
Y287879D01*
Y288125D01*
X201686D01*
Y288371D01*
Y288617D01*
X201932D01*
Y288864D01*
X202179D01*
Y289110D01*
X202671D01*
Y289356D01*
X208089D01*
Y289110D01*
X208581D01*
Y288864D01*
X208827D01*
Y288617D01*
Y288371D01*
X209074D01*
Y288125D01*
Y287879D01*
X209320D01*
Y287632D01*
Y287386D01*
Y287140D01*
X209566D01*
Y286894D01*
Y286648D01*
Y286401D01*
Y286155D01*
Y285909D01*
Y285663D01*
Y285416D01*
Y285170D01*
Y284924D01*
Y284678D01*
Y284431D01*
X217446D01*
Y284678D01*
Y284924D01*
Y285170D01*
Y285416D01*
Y285663D01*
Y285909D01*
Y286155D01*
Y286401D01*
Y286648D01*
Y286894D01*
Y287140D01*
Y287386D01*
Y287632D01*
X217692D01*
Y287879D01*
Y288125D01*
Y288371D01*
X217939D01*
Y288617D01*
Y288864D01*
X218431D01*
Y289110D01*
X218924D01*
Y289356D01*
X224341D01*
Y289110D01*
X224587D01*
Y288864D01*
X225080D01*
Y288617D01*
Y288371D01*
X225326D01*
Y288125D01*
Y287879D01*
X225572D01*
Y287632D01*
Y287386D01*
Y287140D01*
Y286894D01*
Y286648D01*
Y286401D01*
Y286155D01*
Y285909D01*
Y285663D01*
Y285416D01*
Y285170D01*
Y284924D01*
Y284678D01*
Y284431D01*
X233699D01*
Y284678D01*
Y284924D01*
Y285170D01*
Y285416D01*
Y285663D01*
Y285909D01*
Y286155D01*
Y286401D01*
Y286648D01*
X233453D01*
Y286894D01*
X233699D01*
Y287140D01*
Y287386D01*
Y287632D01*
Y287879D01*
X233945D01*
Y288125D01*
Y288371D01*
X234191D01*
Y288617D01*
Y288864D01*
X234437D01*
Y289110D01*
X234930D01*
Y289356D01*
X240348D01*
Y289110D01*
X240840D01*
Y288864D01*
X241086D01*
Y288617D01*
X241333D01*
Y288371D01*
X241579D01*
Y288125D01*
Y287879D01*
Y287632D01*
X241825D01*
Y287386D01*
Y287140D01*
Y286894D01*
Y286648D01*
Y286401D01*
Y286155D01*
Y285909D01*
Y285663D01*
Y285416D01*
Y285170D01*
Y284924D01*
Y284678D01*
Y284431D01*
X249951D01*
Y284678D01*
Y284924D01*
Y285170D01*
Y285416D01*
Y285663D01*
Y285909D01*
Y286155D01*
Y286401D01*
Y286648D01*
Y286894D01*
Y287140D01*
Y287386D01*
Y287632D01*
Y287879D01*
Y288125D01*
X250198D01*
Y288371D01*
Y288617D01*
X250444D01*
Y288864D01*
X250690D01*
Y289110D01*
X251183D01*
Y289356D01*
X256600D01*
Y289110D01*
D02*
G37*
G36*
X142798Y303150D02*
X138892D01*
X133913Y317942D01*
X137892D01*
X140845Y307153D01*
X143774Y317942D01*
X147729D01*
X142798Y303150D01*
D02*
G37*
G36*
X266166D02*
X262578D01*
Y306591D01*
X262944Y313670D01*
X259356Y303150D01*
X256988D01*
X253400Y313670D01*
X253766Y306591D01*
Y303150D01*
X250178D01*
Y317942D01*
X254864D01*
X258160Y307641D01*
X261479Y317942D01*
X266166D01*
Y303150D01*
D02*
G37*
G36*
X153667Y275074D02*
X153421D01*
Y274828D01*
Y274581D01*
Y274335D01*
Y274089D01*
Y273843D01*
Y273596D01*
Y273350D01*
Y273104D01*
Y272857D01*
Y272611D01*
Y272365D01*
Y272119D01*
Y271872D01*
Y271626D01*
Y271380D01*
Y271134D01*
Y270887D01*
Y270641D01*
Y270395D01*
Y270149D01*
Y269902D01*
Y269656D01*
Y269410D01*
Y269164D01*
Y268917D01*
Y268671D01*
Y268425D01*
Y268179D01*
Y267932D01*
Y267686D01*
Y267440D01*
Y267194D01*
Y266947D01*
Y266701D01*
Y266455D01*
Y266209D01*
Y265962D01*
Y265716D01*
Y265470D01*
Y265224D01*
Y264977D01*
Y264731D01*
Y264485D01*
Y264239D01*
Y263992D01*
Y263746D01*
Y263500D01*
Y263254D01*
Y263007D01*
Y262761D01*
Y262515D01*
Y262269D01*
Y262022D01*
Y261776D01*
Y261530D01*
Y261284D01*
Y261037D01*
Y260791D01*
Y260545D01*
Y260299D01*
Y260052D01*
Y259806D01*
Y259560D01*
Y259314D01*
Y259067D01*
Y258821D01*
Y258575D01*
Y258329D01*
Y258082D01*
Y257836D01*
Y257590D01*
Y257344D01*
Y257097D01*
Y256851D01*
Y256605D01*
Y256359D01*
Y256112D01*
Y255866D01*
Y255620D01*
Y255374D01*
Y255127D01*
Y254881D01*
Y254635D01*
Y254389D01*
Y254142D01*
Y253896D01*
Y253650D01*
Y253404D01*
Y253157D01*
Y252911D01*
Y252665D01*
X153667D01*
Y252419D01*
X150466D01*
Y252665D01*
Y252911D01*
Y253157D01*
Y253404D01*
Y253650D01*
Y253896D01*
X150712D01*
Y254142D01*
Y254389D01*
X150220D01*
Y254142D01*
X149973D01*
Y253896D01*
Y253650D01*
X149727D01*
Y253404D01*
X149481D01*
Y253157D01*
X149234D01*
Y252911D01*
X148742D01*
Y252665D01*
X148249D01*
Y252419D01*
X147757D01*
Y252172D01*
X144556D01*
Y252419D01*
X143817D01*
Y252665D01*
X143324D01*
Y252911D01*
X142832D01*
Y253157D01*
X142586D01*
Y253404D01*
X142340D01*
Y253650D01*
X142093D01*
Y253896D01*
X141847D01*
Y254142D01*
Y254389D01*
X141601D01*
Y254635D01*
X141355D01*
Y254881D01*
Y255127D01*
X141108D01*
Y255374D01*
Y255620D01*
X140862D01*
Y255866D01*
Y256112D01*
Y256359D01*
Y256605D01*
X140616D01*
Y256851D01*
X140862D01*
Y257097D01*
X140616D01*
Y257344D01*
Y257590D01*
Y257836D01*
Y258082D01*
Y258329D01*
Y258575D01*
Y258821D01*
Y259067D01*
Y259314D01*
Y259560D01*
Y259806D01*
Y260052D01*
Y260299D01*
Y260545D01*
Y260791D01*
Y261037D01*
Y261284D01*
Y261530D01*
Y261776D01*
Y262022D01*
Y262269D01*
Y262515D01*
Y262761D01*
Y263007D01*
Y263254D01*
Y263500D01*
Y263746D01*
Y263992D01*
X140862D01*
Y264239D01*
X140616D01*
Y264485D01*
X140862D01*
Y264731D01*
Y264977D01*
Y265224D01*
Y265470D01*
X141108D01*
Y265716D01*
Y265962D01*
X141355D01*
Y266209D01*
Y266455D01*
X141601D01*
Y266701D01*
Y266947D01*
X141847D01*
Y267194D01*
X142093D01*
Y267440D01*
X142340D01*
Y267686D01*
X142586D01*
Y267932D01*
X142832D01*
Y268179D01*
X143324D01*
Y268425D01*
X143817D01*
Y268671D01*
X144556D01*
Y268917D01*
X147511D01*
Y268671D01*
X148003D01*
Y268425D01*
X148496D01*
Y268179D01*
X148988D01*
Y267932D01*
X149234D01*
Y267686D01*
X149481D01*
Y267440D01*
X149727D01*
Y267194D01*
X149973D01*
Y266947D01*
X150220D01*
Y266701D01*
X150712D01*
Y266947D01*
Y267194D01*
X150466D01*
Y267440D01*
Y267686D01*
Y267932D01*
Y268179D01*
Y268425D01*
Y268671D01*
Y268917D01*
Y269164D01*
Y269410D01*
Y269656D01*
Y269902D01*
Y270149D01*
Y270395D01*
Y270641D01*
Y270887D01*
Y271134D01*
Y271380D01*
Y271626D01*
Y271872D01*
Y272119D01*
Y272365D01*
Y272611D01*
Y272857D01*
Y273104D01*
Y273350D01*
Y273596D01*
Y273843D01*
Y274089D01*
Y274335D01*
Y274581D01*
Y274828D01*
Y275074D01*
Y275320D01*
X153667D01*
Y275074D01*
D02*
G37*
%LPC*%
G36*
X184783Y315355D02*
X184417D01*
X184173Y315306D01*
X183758Y315184D01*
X183392Y314988D01*
X183099Y314793D01*
X182855Y314574D01*
X182708Y314378D01*
X182586Y314256D01*
X182562Y314232D01*
Y314207D01*
X182440Y313988D01*
X182318Y313744D01*
X182147Y313207D01*
X182001Y312645D01*
X181927Y312108D01*
X181878Y311620D01*
X181854Y311400D01*
X181830Y311229D01*
Y311083D01*
Y310961D01*
Y310888D01*
Y310863D01*
Y310180D01*
X181854Y309423D01*
X181952Y308764D01*
X182001Y308471D01*
X182049Y308203D01*
X182123Y307958D01*
X182196Y307739D01*
X182269Y307543D01*
X182318Y307372D01*
X182391Y307226D01*
X182440Y307104D01*
X182489Y307006D01*
X182537Y306933D01*
X182562Y306909D01*
Y306884D01*
X182708Y306689D01*
X182855Y306518D01*
X183197Y306225D01*
X183538Y306030D01*
X183880Y305884D01*
X184197Y305810D01*
X184441Y305762D01*
X184539Y305737D01*
X184661D01*
X184930Y305762D01*
X185149Y305786D01*
X185589Y305908D01*
X185955Y306103D01*
X186272Y306323D01*
X186492Y306518D01*
X186663Y306714D01*
X186785Y306836D01*
X186809Y306884D01*
X187053Y307372D01*
X187224Y307910D01*
X187346Y308447D01*
X187419Y309008D01*
X187468Y309472D01*
X187493Y309692D01*
X187517Y309862D01*
Y310033D01*
Y310131D01*
Y310204D01*
Y310228D01*
Y311327D01*
X187468Y312035D01*
X187346Y312645D01*
X187200Y313207D01*
X187004Y313646D01*
X186785Y314036D01*
X186541Y314378D01*
X186272Y314647D01*
X186028Y314842D01*
X185760Y315013D01*
X185515Y315135D01*
X185296Y315233D01*
X185076Y315281D01*
X184905Y315330D01*
X184783Y315355D01*
D02*
G37*
G36*
X109722Y315526D02*
X109576D01*
X109259Y315501D01*
X108990Y315403D01*
X108771Y315281D01*
X108575Y315135D01*
X108429Y314964D01*
X108331Y314842D01*
X108282Y314744D01*
X108258Y314720D01*
X108111Y314403D01*
X108014Y314012D01*
X107940Y313621D01*
X107892Y313231D01*
X107867Y312889D01*
X107843Y312596D01*
Y312474D01*
Y312401D01*
Y312352D01*
Y312328D01*
Y308666D01*
X107867Y308105D01*
X107916Y307641D01*
X107965Y307226D01*
X108038Y306909D01*
X108136Y306640D01*
X108185Y306469D01*
X108233Y306347D01*
X108258Y306323D01*
X108429Y306079D01*
X108624Y305908D01*
X108844Y305762D01*
X109063Y305688D01*
X109259Y305639D01*
X109405Y305615D01*
X109503Y305591D01*
X109552D01*
X109869Y305615D01*
X110137Y305713D01*
X110357Y305835D01*
X110552Y305981D01*
X110699Y306103D01*
X110796Y306225D01*
X110845Y306323D01*
X110870Y306347D01*
X111016Y306665D01*
X111114Y307055D01*
X111187Y307446D01*
X111236Y307836D01*
X111260Y308203D01*
X111285Y308495D01*
Y308617D01*
Y308691D01*
Y308739D01*
Y308764D01*
Y312572D01*
X111260Y313085D01*
X111212Y313524D01*
X111138Y313914D01*
X111065Y314232D01*
X110992Y314451D01*
X110918Y314622D01*
X110894Y314744D01*
X110870Y314769D01*
X110699Y315013D01*
X110504Y315208D01*
X110284Y315330D01*
X110064Y315428D01*
X109869Y315477D01*
X109722Y315526D01*
D02*
G37*
G36*
X171480Y311718D02*
X171431D01*
X171138Y311693D01*
X170870Y311596D01*
X170650Y311449D01*
X170430Y311254D01*
X170284Y311034D01*
X170137Y310790D01*
X170015Y310521D01*
X169942Y310253D01*
X169820Y309692D01*
X169771Y309447D01*
X169747Y309228D01*
X169722Y309032D01*
Y308886D01*
Y308788D01*
Y308764D01*
Y308398D01*
X169747Y307910D01*
X169820Y307470D01*
X169893Y307104D01*
X170015Y306787D01*
X170137Y306494D01*
X170284Y306274D01*
X170430Y306079D01*
X170577Y305932D01*
X170747Y305835D01*
X170894Y305737D01*
X171016Y305688D01*
X171138Y305639D01*
X171260Y305615D01*
X171333Y305591D01*
X171406D01*
X171821Y305639D01*
X172188Y305737D01*
X172456Y305884D01*
X172700Y306054D01*
X172871Y306201D01*
X172969Y306347D01*
X173042Y306445D01*
X173066Y306494D01*
Y310839D01*
X172871Y311132D01*
X172627Y311351D01*
X172359Y311498D01*
X172090Y311620D01*
X171846Y311669D01*
X171626Y311693D01*
X171480Y311718D01*
D02*
G37*
G36*
X89948Y343238D02*
X89831D01*
X89362Y343199D01*
X88972Y343120D01*
X88620Y343003D01*
X88347Y342886D01*
X88112Y342730D01*
X87956Y342613D01*
X87878Y342534D01*
X87839Y342495D01*
X87605Y342183D01*
X87448Y341870D01*
X87331Y341519D01*
X87253Y341167D01*
X87214Y340894D01*
X87175Y340660D01*
Y340503D01*
Y340425D01*
Y340035D01*
X92682D01*
X92565Y340581D01*
X92448Y341089D01*
X92253Y341519D01*
X92058Y341870D01*
X91823Y342183D01*
X91589Y342456D01*
X91354Y342652D01*
X91081Y342847D01*
X90612Y343081D01*
X90222Y343199D01*
X90065D01*
X89948Y343238D01*
D02*
G37*
G36*
X121079D02*
X121001D01*
X120493Y343199D01*
X120063Y343081D01*
X119712Y342886D01*
X119439Y342691D01*
X119204Y342495D01*
X119048Y342300D01*
X118970Y342183D01*
X118931Y342144D01*
X118696Y341675D01*
X118540Y341128D01*
X118423Y340503D01*
X118345Y339917D01*
X118306Y339371D01*
X118267Y338941D01*
Y338746D01*
Y338629D01*
Y338550D01*
Y338511D01*
Y337730D01*
X118306Y337066D01*
X118345Y336519D01*
X118384Y336051D01*
X118423Y335738D01*
X118462Y335504D01*
X118501Y335348D01*
Y335308D01*
X118618Y334996D01*
X118774Y334683D01*
X119126Y334215D01*
X119517Y333902D01*
X119946Y333668D01*
X120337Y333551D01*
X120649Y333473D01*
X120884Y333434D01*
X120962D01*
X121626Y333512D01*
X122173Y333668D01*
X122642Y333863D01*
X122993Y334137D01*
X123266Y334371D01*
X123423Y334605D01*
X123540Y334762D01*
X123579Y334801D01*
Y341792D01*
X123266Y342261D01*
X122876Y342613D01*
X122446Y342886D01*
X122017Y343042D01*
X121626Y343160D01*
X121313Y343199D01*
X121079Y343238D01*
D02*
G37*
G36*
X223455D02*
X223377D01*
X222869Y343199D01*
X222440Y343081D01*
X222088Y342886D01*
X221815Y342691D01*
X221581Y342495D01*
X221424Y342300D01*
X221346Y342183D01*
X221307Y342144D01*
X221073Y341675D01*
X220916Y341128D01*
X220799Y340503D01*
X220721Y339917D01*
X220682Y339371D01*
X220643Y338941D01*
Y338746D01*
Y338629D01*
Y338550D01*
Y338511D01*
Y337730D01*
X220682Y337066D01*
X220721Y336519D01*
X220760Y336051D01*
X220799Y335738D01*
X220838Y335504D01*
X220877Y335348D01*
Y335308D01*
X220995Y334996D01*
X221151Y334683D01*
X221502Y334215D01*
X221893Y333902D01*
X222323Y333668D01*
X222713Y333551D01*
X223026Y333473D01*
X223260Y333434D01*
X223338D01*
X224002Y333512D01*
X224549Y333668D01*
X225018Y333863D01*
X225369Y334137D01*
X225643Y334371D01*
X225799Y334605D01*
X225916Y334762D01*
X225955Y334801D01*
Y341792D01*
X225643Y342261D01*
X225252Y342613D01*
X224822Y342886D01*
X224393Y343042D01*
X224002Y343160D01*
X223690Y343199D01*
X223455Y343238D01*
D02*
G37*
G36*
X241892Y337340D02*
X240017D01*
Y334527D01*
X240134Y334332D01*
X240290Y334137D01*
X240603Y333824D01*
X240759Y333707D01*
X240876Y333629D01*
X240954Y333590D01*
X240993Y333551D01*
X241267Y333395D01*
X241540Y333316D01*
X242087Y333160D01*
X242321D01*
X242517Y333121D01*
X242673D01*
X242946Y333160D01*
X243220Y333199D01*
X243610Y333355D01*
X243767Y333434D01*
X243884Y333473D01*
X243923Y333551D01*
X243962D01*
X244118Y333746D01*
X244235Y333941D01*
X244391Y334332D01*
X244431Y334488D01*
X244470Y334644D01*
Y334722D01*
Y334762D01*
X244431Y335230D01*
X244352Y335621D01*
X244196Y335972D01*
X244040Y336246D01*
X243806Y336519D01*
X243571Y336715D01*
X243024Y337027D01*
X242517Y337222D01*
X242048Y337300D01*
X241892Y337340D01*
D02*
G37*
G36*
X183927Y343238D02*
X183809D01*
X183341Y343199D01*
X182950Y343120D01*
X182599Y343003D01*
X182325Y342886D01*
X182091Y342730D01*
X181935Y342613D01*
X181856Y342534D01*
X181817Y342495D01*
X181583Y342183D01*
X181427Y341870D01*
X181310Y341519D01*
X181231Y341167D01*
X181192Y340894D01*
X181153Y340660D01*
Y340503D01*
Y340425D01*
Y340035D01*
X186661D01*
X186544Y340581D01*
X186426Y341089D01*
X186231Y341519D01*
X186036Y341870D01*
X185801Y342183D01*
X185567Y342456D01*
X185333Y342652D01*
X185059Y342847D01*
X184591Y343081D01*
X184200Y343199D01*
X184044D01*
X183927Y343238D01*
D02*
G37*
G36*
X167457Y259560D02*
X161793D01*
Y259314D01*
X161547D01*
Y259067D01*
Y258821D01*
Y258575D01*
Y258329D01*
Y258082D01*
Y257836D01*
Y257590D01*
Y257344D01*
Y257097D01*
Y256851D01*
Y256605D01*
Y256359D01*
Y256112D01*
Y255866D01*
X161793D01*
Y255620D01*
Y255374D01*
X162040D01*
Y255127D01*
X162532D01*
Y254881D01*
X163025D01*
Y254635D01*
X164010D01*
Y254389D01*
X166472D01*
Y254635D01*
X167457D01*
Y254881D01*
X167950D01*
Y255127D01*
X168442D01*
Y255374D01*
X168688D01*
Y255620D01*
Y255866D01*
X168935D01*
Y256112D01*
Y256359D01*
X169181D01*
Y256605D01*
Y256851D01*
Y257097D01*
Y257344D01*
Y257590D01*
Y257836D01*
X168935D01*
Y258082D01*
Y258329D01*
Y258575D01*
X168688D01*
Y258821D01*
X168442D01*
Y259067D01*
X167950D01*
Y259314D01*
X167457D01*
Y259560D01*
D02*
G37*
G36*
X252414Y277044D02*
X250690D01*
Y276798D01*
X250198D01*
Y276551D01*
X249951D01*
Y276305D01*
X249459D01*
Y276059D01*
Y275813D01*
X249213D01*
Y275566D01*
Y275320D01*
Y275074D01*
Y274828D01*
Y274581D01*
Y274335D01*
Y274089D01*
Y273843D01*
X249459D01*
Y273596D01*
Y273350D01*
X249705D01*
Y273104D01*
X249951D01*
Y272857D01*
X250444D01*
Y272611D01*
X251183D01*
Y272365D01*
X251921D01*
Y272611D01*
X252660D01*
Y272857D01*
X252906D01*
Y273104D01*
X253399D01*
Y273350D01*
Y273596D01*
X253645D01*
Y273843D01*
Y274089D01*
X253891D01*
Y274335D01*
Y274581D01*
Y274828D01*
Y275074D01*
Y275320D01*
Y275566D01*
X253645D01*
Y275813D01*
Y276059D01*
X253399D01*
Y276305D01*
X253153D01*
Y276551D01*
X252906D01*
Y276798D01*
X252414D01*
Y277044D01*
D02*
G37*
G36*
X225326Y270641D02*
X223356D01*
Y270395D01*
X223110D01*
Y270149D01*
X222864D01*
Y269902D01*
X222617D01*
Y269656D01*
Y269410D01*
X222371D01*
Y269164D01*
Y268917D01*
X222125D01*
Y268671D01*
Y268425D01*
Y268179D01*
X221879D01*
Y267932D01*
Y267686D01*
Y267440D01*
Y267194D01*
Y266947D01*
X221632D01*
Y266701D01*
Y266455D01*
Y266209D01*
X221386D01*
Y265962D01*
Y265716D01*
Y265470D01*
X221140D01*
Y265224D01*
Y264977D01*
Y264731D01*
X220894D01*
Y264485D01*
Y264239D01*
Y263992D01*
X220647D01*
Y263746D01*
Y263500D01*
Y263254D01*
Y263007D01*
Y262761D01*
X220401D01*
Y262515D01*
Y262269D01*
Y262022D01*
X220155D01*
Y261776D01*
Y261530D01*
Y261284D01*
X219909D01*
Y261037D01*
Y260791D01*
Y260545D01*
X219662D01*
Y260299D01*
Y260052D01*
Y259806D01*
Y259560D01*
X219416D01*
Y259314D01*
Y259067D01*
Y258821D01*
Y258575D01*
X219170D01*
Y258821D01*
Y259067D01*
Y259314D01*
X218924D01*
Y259560D01*
Y259806D01*
Y260052D01*
X218677D01*
Y260299D01*
Y260545D01*
Y260791D01*
Y261037D01*
X218431D01*
Y261284D01*
Y261530D01*
Y261776D01*
Y262022D01*
X218185D01*
Y262269D01*
Y262515D01*
Y262761D01*
X217939D01*
Y263007D01*
Y263254D01*
Y263500D01*
X217692D01*
Y263746D01*
Y263992D01*
Y264239D01*
Y264485D01*
X217446D01*
Y264731D01*
Y264977D01*
Y265224D01*
X217200D01*
Y265470D01*
Y265716D01*
Y265962D01*
Y266209D01*
Y266455D01*
X216954D01*
Y266701D01*
Y266947D01*
Y267194D01*
X216707D01*
Y267440D01*
Y267686D01*
Y267932D01*
X216461D01*
Y268179D01*
Y268425D01*
Y268671D01*
X216215D01*
Y268917D01*
Y269164D01*
Y269410D01*
X215969D01*
Y269656D01*
X215722D01*
Y269902D01*
X215476D01*
Y270149D01*
X215230D01*
Y270395D01*
X214737D01*
Y270641D01*
X212521D01*
Y270395D01*
X212275D01*
Y270149D01*
X212029D01*
Y269902D01*
X211536D01*
Y269656D01*
Y269410D01*
X211290D01*
Y269164D01*
Y268917D01*
X211044D01*
Y268671D01*
Y268425D01*
Y268179D01*
Y267932D01*
X210797D01*
Y267686D01*
Y267440D01*
Y267194D01*
X210551D01*
Y266947D01*
Y266701D01*
Y266455D01*
X210305D01*
Y266209D01*
Y265962D01*
Y265716D01*
Y265470D01*
X210059D01*
Y265224D01*
Y264977D01*
Y264731D01*
X209812D01*
Y264485D01*
Y264239D01*
Y263992D01*
X209566D01*
Y263746D01*
Y263500D01*
Y263254D01*
Y263007D01*
Y262761D01*
X209320D01*
Y262515D01*
Y262269D01*
Y262022D01*
X209074D01*
Y261776D01*
Y261530D01*
Y261284D01*
X208827D01*
Y261037D01*
Y260791D01*
Y260545D01*
X208581D01*
Y260299D01*
Y260052D01*
Y259806D01*
Y259560D01*
X208335D01*
Y259314D01*
Y259067D01*
Y258821D01*
Y258575D01*
X208089D01*
Y258821D01*
Y259067D01*
Y259314D01*
X207842D01*
Y259560D01*
Y259806D01*
Y260052D01*
X207596D01*
Y260299D01*
Y260545D01*
Y260791D01*
Y261037D01*
Y261284D01*
X207350D01*
Y261530D01*
Y261776D01*
Y262022D01*
X207104D01*
Y262269D01*
Y262515D01*
Y262761D01*
X206857D01*
Y263007D01*
Y263254D01*
Y263500D01*
X206611D01*
Y263746D01*
Y263992D01*
Y264239D01*
X206365D01*
Y264485D01*
Y264731D01*
Y264977D01*
Y265224D01*
X206119D01*
Y265470D01*
Y265716D01*
Y265962D01*
Y266209D01*
X205872D01*
Y266455D01*
Y266701D01*
Y266947D01*
X205626D01*
Y267194D01*
Y267440D01*
Y267686D01*
X205380D01*
Y267932D01*
Y268179D01*
Y268425D01*
Y268671D01*
X205134D01*
Y268917D01*
Y269164D01*
X204887D01*
Y269410D01*
Y269656D01*
Y269902D01*
X204641D01*
Y270149D01*
X204395D01*
Y270395D01*
X204149D01*
Y270641D01*
X202179D01*
Y270395D01*
X201686D01*
Y270149D01*
X201440D01*
Y269902D01*
X201194D01*
Y269656D01*
Y269410D01*
X200947D01*
Y269164D01*
Y268917D01*
Y268671D01*
Y268425D01*
Y268179D01*
Y267932D01*
X201194D01*
Y267686D01*
Y267440D01*
Y267194D01*
X201440D01*
Y266947D01*
Y266701D01*
Y266455D01*
Y266209D01*
X201686D01*
Y265962D01*
Y265716D01*
Y265470D01*
X201932D01*
Y265224D01*
Y264977D01*
Y264731D01*
X202179D01*
Y264485D01*
Y264239D01*
Y263992D01*
X202425D01*
Y263746D01*
Y263500D01*
X202671D01*
Y263254D01*
Y263007D01*
Y262761D01*
X202917D01*
Y262515D01*
Y262269D01*
Y262022D01*
Y261776D01*
X203164D01*
Y261530D01*
Y261284D01*
X203410D01*
Y261037D01*
Y260791D01*
Y260545D01*
X203656D01*
Y260299D01*
Y260052D01*
Y259806D01*
X203902D01*
Y259560D01*
Y259314D01*
Y259067D01*
X204149D01*
Y258821D01*
Y258575D01*
Y258329D01*
X204395D01*
Y258082D01*
Y257836D01*
Y257590D01*
X204641D01*
Y257344D01*
Y257097D01*
Y256851D01*
X204887D01*
Y256605D01*
Y256359D01*
Y256112D01*
X205134D01*
Y255866D01*
Y255620D01*
X205380D01*
Y255374D01*
Y255127D01*
Y254881D01*
X205626D01*
Y254635D01*
Y254389D01*
Y254142D01*
X205872D01*
Y253896D01*
X206119D01*
Y253650D01*
Y253404D01*
X206365D01*
Y253157D01*
X206611D01*
Y252911D01*
X207104D01*
Y252665D01*
X209320D01*
Y252911D01*
X209812D01*
Y253157D01*
X210059D01*
Y253404D01*
X210305D01*
Y253650D01*
X210551D01*
Y253896D01*
Y254142D01*
X210797D01*
Y254389D01*
Y254635D01*
X211044D01*
Y254881D01*
Y255127D01*
Y255374D01*
X211290D01*
Y255620D01*
Y255866D01*
Y256112D01*
X211536D01*
Y256359D01*
Y256605D01*
Y256851D01*
Y257097D01*
Y257344D01*
X211782D01*
Y257590D01*
Y257836D01*
Y258082D01*
X212029D01*
Y258329D01*
Y258575D01*
Y258821D01*
X212275D01*
Y259067D01*
Y259314D01*
Y259560D01*
Y259806D01*
X212521D01*
Y260052D01*
Y260299D01*
Y260545D01*
X212767D01*
Y260791D01*
Y261037D01*
Y261284D01*
X213014D01*
Y261530D01*
Y261776D01*
Y262022D01*
Y262269D01*
Y262515D01*
X213260D01*
Y262761D01*
Y263007D01*
Y263254D01*
X213506D01*
Y263500D01*
Y263746D01*
Y263992D01*
X213752D01*
Y263746D01*
X213999D01*
Y263500D01*
Y263254D01*
Y263007D01*
Y262761D01*
X214245D01*
Y262515D01*
Y262269D01*
Y262022D01*
X214491D01*
Y261776D01*
Y261530D01*
Y261284D01*
X214737D01*
Y261037D01*
Y260791D01*
Y260545D01*
X214984D01*
Y260299D01*
Y260052D01*
Y259806D01*
Y259560D01*
Y259314D01*
X215230D01*
Y259067D01*
Y258821D01*
Y258575D01*
X215476D01*
Y258329D01*
Y258082D01*
Y257836D01*
X215722D01*
Y257590D01*
Y257344D01*
Y257097D01*
X215969D01*
Y256851D01*
Y256605D01*
Y256359D01*
Y256112D01*
X216215D01*
Y255866D01*
Y255620D01*
Y255374D01*
X216461D01*
Y255127D01*
Y254881D01*
Y254635D01*
Y254389D01*
X216707D01*
Y254142D01*
X216954D01*
Y253896D01*
Y253650D01*
X217200D01*
Y253404D01*
X217446D01*
Y253157D01*
X217692D01*
Y252911D01*
X218185D01*
Y252665D01*
X220401D01*
Y252911D01*
X220647D01*
Y253157D01*
X221140D01*
Y253404D01*
X221386D01*
Y253650D01*
Y253896D01*
X221632D01*
Y254142D01*
Y254389D01*
X221879D01*
Y254635D01*
Y254881D01*
X222125D01*
Y255127D01*
Y255374D01*
Y255620D01*
X222371D01*
Y255866D01*
Y256112D01*
X222617D01*
Y256359D01*
Y256605D01*
Y256851D01*
Y257097D01*
X222864D01*
Y257344D01*
Y257590D01*
Y257836D01*
X223110D01*
Y258082D01*
Y258329D01*
Y258575D01*
X223356D01*
Y258821D01*
Y259067D01*
X223602D01*
Y259314D01*
Y259560D01*
Y259806D01*
X223849D01*
Y260052D01*
Y260299D01*
Y260545D01*
Y260791D01*
X224095D01*
Y261037D01*
Y261284D01*
Y261530D01*
X224341D01*
Y261776D01*
Y262022D01*
Y262269D01*
X224587D01*
Y262515D01*
Y262761D01*
X224834D01*
Y263007D01*
Y263254D01*
Y263500D01*
X225080D01*
Y263746D01*
Y263992D01*
Y264239D01*
X225326D01*
Y264485D01*
Y264731D01*
Y264977D01*
Y265224D01*
X225572D01*
Y265470D01*
Y265716D01*
Y265962D01*
X225819D01*
Y266209D01*
Y266455D01*
X226065D01*
Y266701D01*
Y266947D01*
Y267194D01*
X226311D01*
Y267440D01*
Y267686D01*
Y267932D01*
X226557D01*
Y268179D01*
Y268425D01*
Y268671D01*
Y268917D01*
Y269164D01*
Y269410D01*
X226311D01*
Y269656D01*
X226065D01*
Y269902D01*
Y270149D01*
X225819D01*
Y270395D01*
X225326D01*
Y270641D01*
D02*
G37*
G36*
X239363D02*
X234684D01*
Y270395D01*
X233945D01*
Y270149D01*
X233206D01*
Y269902D01*
X232714D01*
Y269656D01*
X232221D01*
Y269410D01*
X231975D01*
Y269164D01*
X231483D01*
Y268917D01*
X231236D01*
Y268671D01*
X230990D01*
Y268425D01*
X230744D01*
Y268179D01*
X230498D01*
Y267932D01*
X230251D01*
Y267686D01*
X230005D01*
Y267440D01*
X229759D01*
Y267194D01*
X229513D01*
Y266947D01*
Y266701D01*
X229266D01*
Y266455D01*
Y266209D01*
X229020D01*
Y265962D01*
Y265716D01*
X228774D01*
Y265470D01*
Y265224D01*
Y264977D01*
X228527D01*
Y264731D01*
Y264485D01*
Y264239D01*
Y263992D01*
X228281D01*
Y263746D01*
Y263500D01*
Y263254D01*
Y263007D01*
Y262761D01*
Y262515D01*
Y262269D01*
Y262022D01*
Y261776D01*
Y261530D01*
Y261284D01*
Y261037D01*
Y260791D01*
Y260545D01*
Y260299D01*
Y260052D01*
Y259806D01*
Y259560D01*
Y259314D01*
X228527D01*
Y259067D01*
Y258821D01*
Y258575D01*
Y258329D01*
X228774D01*
Y258082D01*
Y257836D01*
X229020D01*
Y257590D01*
Y257344D01*
Y257097D01*
X229266D01*
Y256851D01*
Y256605D01*
X229513D01*
Y256359D01*
X229759D01*
Y256112D01*
Y255866D01*
X230005D01*
Y255620D01*
X230251D01*
Y255374D01*
X230498D01*
Y255127D01*
X230744D01*
Y254881D01*
X230990D01*
Y254635D01*
X231236D01*
Y254389D01*
X231483D01*
Y254142D01*
X231975D01*
Y253896D01*
X232221D01*
Y253650D01*
X232714D01*
Y253404D01*
X233206D01*
Y253157D01*
X234191D01*
Y252911D01*
X234930D01*
Y252665D01*
X239116D01*
Y252911D01*
X240101D01*
Y253157D01*
X240840D01*
Y253404D01*
X241333D01*
Y253650D01*
X241825D01*
Y253896D01*
X242318D01*
Y254142D01*
X242564D01*
Y254389D01*
X242810D01*
Y254635D01*
X243056D01*
Y254881D01*
X243303D01*
Y255127D01*
X243549D01*
Y255374D01*
X243795D01*
Y255620D01*
X244041D01*
Y255866D01*
X244288D01*
Y256112D01*
X244534D01*
Y256359D01*
Y256605D01*
X244780D01*
Y256851D01*
Y257097D01*
X245026D01*
Y257344D01*
X245273D01*
Y257590D01*
Y257836D01*
Y258082D01*
X245519D01*
Y258329D01*
Y258575D01*
Y258821D01*
X245765D01*
Y259067D01*
Y259314D01*
Y259560D01*
Y259806D01*
Y260052D01*
X246011D01*
Y260299D01*
Y260545D01*
Y260791D01*
Y261037D01*
Y261284D01*
Y261530D01*
Y261776D01*
Y262022D01*
Y262269D01*
Y262515D01*
Y262761D01*
Y263007D01*
Y263254D01*
X245765D01*
Y263500D01*
Y263746D01*
Y263992D01*
Y264239D01*
Y264485D01*
X245519D01*
Y264731D01*
Y264977D01*
Y265224D01*
X245273D01*
Y265470D01*
Y265716D01*
Y265962D01*
X245026D01*
Y266209D01*
X244780D01*
Y266455D01*
Y266701D01*
X244534D01*
Y266947D01*
Y267194D01*
X244288D01*
Y267440D01*
X244041D01*
Y267686D01*
Y267932D01*
X243795D01*
Y268179D01*
X243549D01*
Y268425D01*
X243303D01*
Y268671D01*
X243056D01*
Y268917D01*
X242564D01*
Y269164D01*
X242318D01*
Y269410D01*
X241825D01*
Y269656D01*
X241333D01*
Y269902D01*
X240840D01*
Y270149D01*
X240101D01*
Y270395D01*
X239363D01*
Y270641D01*
D02*
G37*
G36*
X252414D02*
X250444D01*
Y270395D01*
X250198D01*
Y270149D01*
X249951D01*
Y269902D01*
X249705D01*
Y269656D01*
X249459D01*
Y269410D01*
X249213D01*
Y269164D01*
Y268917D01*
Y268671D01*
Y268425D01*
Y268179D01*
Y267932D01*
Y267686D01*
Y267440D01*
Y267194D01*
Y266947D01*
Y266701D01*
Y266455D01*
Y266209D01*
Y265962D01*
Y265716D01*
Y265470D01*
Y265224D01*
Y264977D01*
Y264731D01*
Y264485D01*
Y264239D01*
Y263992D01*
Y263746D01*
Y263500D01*
Y263254D01*
Y263007D01*
Y262761D01*
Y262515D01*
Y262269D01*
Y262022D01*
Y261776D01*
Y261530D01*
Y261284D01*
Y261037D01*
Y260791D01*
Y260545D01*
Y260299D01*
Y260052D01*
Y259806D01*
Y259560D01*
Y259314D01*
Y259067D01*
Y258821D01*
Y258575D01*
Y258329D01*
Y258082D01*
Y257836D01*
Y257590D01*
Y257344D01*
Y257097D01*
Y256851D01*
Y256605D01*
Y256359D01*
Y256112D01*
Y255866D01*
Y255620D01*
Y255374D01*
Y255127D01*
Y254881D01*
Y254635D01*
Y254389D01*
Y254142D01*
Y253896D01*
X249459D01*
Y253650D01*
X249705D01*
Y253404D01*
X249951D01*
Y253157D01*
X250198D01*
Y252911D01*
X250444D01*
Y252665D01*
X252414D01*
Y252911D01*
X252906D01*
Y253157D01*
X253153D01*
Y253404D01*
X253399D01*
Y253650D01*
X253645D01*
Y253896D01*
Y254142D01*
Y254389D01*
X253891D01*
Y254635D01*
Y254881D01*
Y255127D01*
Y255374D01*
Y255620D01*
Y255866D01*
Y256112D01*
Y256359D01*
Y256605D01*
Y256851D01*
Y257097D01*
Y257344D01*
Y257590D01*
Y257836D01*
Y258082D01*
Y258329D01*
Y258575D01*
Y258821D01*
Y259067D01*
Y259314D01*
Y259560D01*
Y259806D01*
Y260052D01*
Y260299D01*
Y260545D01*
Y260791D01*
Y261037D01*
Y261284D01*
Y261530D01*
Y261776D01*
Y262022D01*
Y262269D01*
Y262515D01*
Y262761D01*
Y263007D01*
Y263254D01*
Y263500D01*
Y263746D01*
Y263992D01*
Y264239D01*
Y264485D01*
Y264731D01*
Y264977D01*
Y265224D01*
Y265470D01*
Y265716D01*
Y265962D01*
Y266209D01*
Y266455D01*
Y266701D01*
Y266947D01*
Y267194D01*
Y267440D01*
Y267686D01*
Y267932D01*
Y268179D01*
Y268425D01*
Y268671D01*
Y268917D01*
X253645D01*
Y269164D01*
Y269410D01*
X253399D01*
Y269656D01*
Y269902D01*
X253153D01*
Y270149D01*
X252906D01*
Y270395D01*
X252414D01*
Y270641D01*
D02*
G37*
%LPD*%
G36*
X237885Y266947D02*
X238870D01*
Y266701D01*
X239116D01*
Y266455D01*
X239609D01*
Y266209D01*
X239855D01*
Y265962D01*
X240101D01*
Y265716D01*
Y265470D01*
X240348D01*
Y265224D01*
X240594D01*
Y264977D01*
Y264731D01*
X240840D01*
Y264485D01*
Y264239D01*
Y263992D01*
X241086D01*
Y263746D01*
Y263500D01*
Y263254D01*
Y263007D01*
Y262761D01*
Y262515D01*
Y262269D01*
Y262022D01*
Y261776D01*
Y261530D01*
Y261284D01*
Y261037D01*
Y260791D01*
Y260545D01*
Y260299D01*
Y260052D01*
Y259806D01*
Y259560D01*
Y259314D01*
X240840D01*
Y259067D01*
Y258821D01*
Y258575D01*
X240594D01*
Y258329D01*
Y258082D01*
X240348D01*
Y257836D01*
X240101D01*
Y257590D01*
Y257344D01*
X239855D01*
Y257097D01*
X239609D01*
Y256851D01*
X239116D01*
Y256605D01*
X238870D01*
Y256359D01*
X237885D01*
Y256112D01*
X236161D01*
Y256359D01*
X235422D01*
Y256605D01*
X234930D01*
Y256851D01*
X234437D01*
Y257097D01*
X234191D01*
Y257344D01*
X233945D01*
Y257590D01*
Y257836D01*
X233699D01*
Y258082D01*
X233453D01*
Y258329D01*
Y258575D01*
Y258821D01*
Y259067D01*
X233206D01*
Y259314D01*
Y259560D01*
Y259806D01*
X232960D01*
Y260052D01*
Y260299D01*
Y260545D01*
Y260791D01*
Y261037D01*
Y261284D01*
Y261530D01*
Y261776D01*
Y262022D01*
Y262269D01*
Y262515D01*
Y262761D01*
Y263007D01*
Y263254D01*
Y263500D01*
X233206D01*
Y263746D01*
Y263992D01*
Y264239D01*
X233453D01*
Y264485D01*
Y264731D01*
Y264977D01*
Y265224D01*
X233699D01*
Y265470D01*
X233945D01*
Y265716D01*
Y265962D01*
X234191D01*
Y266209D01*
X234437D01*
Y266455D01*
X234930D01*
Y266701D01*
X235176D01*
Y266947D01*
X236161D01*
Y267194D01*
X237885D01*
Y266947D01*
D02*
G37*
%LPC*%
G36*
X147511Y266455D02*
X146526D01*
Y266209D01*
X145787D01*
Y265962D01*
X145294D01*
Y265716D01*
X144802D01*
Y265470D01*
X144556D01*
Y265224D01*
X144309D01*
Y264977D01*
Y264731D01*
X144063D01*
Y264485D01*
Y264239D01*
X143817D01*
Y263992D01*
Y263746D01*
Y263500D01*
X143571D01*
Y263254D01*
Y263007D01*
Y262761D01*
Y262515D01*
Y262269D01*
Y262022D01*
Y261776D01*
Y261530D01*
Y261284D01*
Y261037D01*
Y260791D01*
Y260545D01*
Y260299D01*
Y260052D01*
Y259806D01*
Y259560D01*
Y259314D01*
Y259067D01*
Y258821D01*
Y258575D01*
Y258329D01*
Y258082D01*
Y257836D01*
Y257590D01*
Y257344D01*
X143817D01*
Y257097D01*
Y256851D01*
Y256605D01*
X144063D01*
Y256359D01*
Y256112D01*
X144309D01*
Y255866D01*
X144556D01*
Y255620D01*
X144802D01*
Y255374D01*
X145048D01*
Y255127D01*
X145541D01*
Y254881D01*
X146526D01*
Y254635D01*
X147511D01*
Y254881D01*
X148742D01*
Y255127D01*
X149234D01*
Y255374D01*
X149481D01*
Y255620D01*
X149727D01*
Y255866D01*
X149973D01*
Y256112D01*
Y256359D01*
X150220D01*
Y256605D01*
Y256851D01*
Y257097D01*
X150466D01*
Y257344D01*
Y257590D01*
Y257836D01*
Y258082D01*
Y258329D01*
Y258575D01*
Y258821D01*
Y259067D01*
Y259314D01*
Y259560D01*
Y259806D01*
Y260052D01*
Y260299D01*
Y260545D01*
Y260791D01*
Y261037D01*
Y261284D01*
Y261530D01*
Y261776D01*
Y262022D01*
Y262269D01*
Y262515D01*
Y262761D01*
Y263007D01*
Y263254D01*
Y263500D01*
Y263746D01*
Y263992D01*
Y264239D01*
X150220D01*
Y264485D01*
Y264731D01*
X149973D01*
Y264977D01*
Y265224D01*
X149727D01*
Y265470D01*
X149481D01*
Y265716D01*
X148988D01*
Y265962D01*
X148496D01*
Y266209D01*
X147511D01*
Y266455D01*
D02*
G37*
%LPD*%
D46*
X136500Y377400D02*
X337000D01*
X136500Y397400D02*
X337000D01*
X136500Y377400D02*
Y397400D01*
X337000Y377400D02*
Y397400D01*
D77*
X140276Y374559D02*
G03*
X140276Y374559I-984J0D01*
G01*
M02*
