G04 Layer_Color=8388736*
%FSLAX25Y25*%
%MOIN*%
G70*
G01*
G75*
%ADD49C,0.01300*%
%ADD50R,0.03556X0.04343*%
%ADD51R,0.13398X0.06706*%
%ADD52R,0.04343X0.03556*%
%ADD53R,0.04343X0.03950*%
%ADD54R,0.03556X0.04147*%
%ADD55R,0.09816X0.11509*%
%ADD56R,0.08280X0.05524*%
%ADD57R,0.13398X0.10642*%
%ADD58R,0.03950X0.03950*%
%ADD59R,0.08674X0.03162*%
%ADD60O,0.01587X0.02768*%
%ADD61R,0.03635X0.07887*%
%ADD62O,0.02572X0.06312*%
%ADD63O,0.02178X0.07887*%
%ADD64R,0.03162X0.05524*%
%ADD65R,0.05009X0.14579*%
%ADD66R,0.42768X0.35800*%
%ADD67R,0.04737X0.11036*%
%ADD68O,0.13398X0.08674*%
%ADD69R,0.07887X0.07887*%
%ADD70C,0.07887*%
%ADD71R,0.07887X0.07887*%
%ADD72C,0.24422*%
%ADD73C,0.06706*%
%ADD74R,0.06706X0.06706*%
%ADD75R,0.06800X0.06800*%
%ADD76C,0.03162*%
G36*
X236221Y305908D02*
X235921Y305184D01*
X235367Y304630D01*
X234644Y304331D01*
X233860D01*
X233137Y304630D01*
X232583Y305184D01*
X232283Y305908D01*
Y306299D01*
X236221D01*
Y305908D01*
D02*
G37*
G36*
X235401Y309693D02*
X235955Y309139D01*
X236255Y308415D01*
Y308024D01*
X232318D01*
Y308415D01*
X232617Y309139D01*
X233171Y309693D01*
X233894Y309992D01*
X234678D01*
X235401Y309693D01*
D02*
G37*
D49*
X236221Y307874D02*
G03*
X234152Y309840I-1969J0D01*
G01*
D02*
G03*
X232283Y307874I100J-1966D01*
G01*
Y306299D02*
G03*
X234152Y304333I1969J0D01*
G01*
D02*
G03*
X236221Y306299I100J1966D01*
G01*
X232284Y307874D02*
X236221D01*
X232284Y306299D02*
X236221D01*
D50*
X209623Y341535D02*
D03*
X203717D02*
D03*
X209449Y333465D02*
D03*
X203543D02*
D03*
X242126Y236221D02*
D03*
X236220D02*
D03*
X190945D02*
D03*
X185039D02*
D03*
X128324Y343251D02*
D03*
X122418D02*
D03*
X210630Y236221D02*
D03*
X216535D02*
D03*
X210630Y242126D02*
D03*
X216535D02*
D03*
X159449Y236221D02*
D03*
X165354D02*
D03*
X159449Y242126D02*
D03*
X165354D02*
D03*
X233268Y296260D02*
D03*
X239173D02*
D03*
X233268Y290354D02*
D03*
X239173D02*
D03*
X233268Y284449D02*
D03*
X239173D02*
D03*
X296900Y315415D02*
D03*
X290995D02*
D03*
X296800Y308515D02*
D03*
X290895D02*
D03*
X244094Y335810D02*
D03*
X250000D02*
D03*
X244094Y341535D02*
D03*
X250000D02*
D03*
X270669Y342520D02*
D03*
X264764D02*
D03*
X270669Y336614D02*
D03*
X264764D02*
D03*
X185039Y242126D02*
D03*
X190945D02*
D03*
X236221Y242126D02*
D03*
X242126D02*
D03*
D51*
X55118Y296306D02*
D03*
X90551D02*
D03*
X54134Y253754D02*
D03*
X89567D02*
D03*
D52*
X234252Y315945D02*
D03*
Y321850D02*
D03*
X233268Y265748D02*
D03*
Y271654D02*
D03*
X239173Y265748D02*
D03*
Y271654D02*
D03*
X245079Y265748D02*
D03*
Y271654D02*
D03*
X250984Y265748D02*
D03*
Y271654D02*
D03*
X256890Y265748D02*
D03*
Y271654D02*
D03*
X262795D02*
D03*
Y265748D02*
D03*
D53*
X240158Y321654D02*
D03*
Y316142D02*
D03*
X165354Y340748D02*
D03*
Y346260D02*
D03*
X186024D02*
D03*
Y340748D02*
D03*
X310039Y341339D02*
D03*
Y335827D02*
D03*
X311024Y305118D02*
D03*
Y299606D02*
D03*
D54*
X319291Y316929D02*
D03*
X323819D02*
D03*
X319587Y280512D02*
D03*
X324114D02*
D03*
D55*
X144783Y313976D02*
D03*
X128839D02*
D03*
D56*
X110236Y325197D02*
D03*
Y312598D02*
D03*
D57*
X128937Y292520D02*
D03*
Y248819D02*
D03*
D58*
X141770Y343351D02*
D03*
X135471D02*
D03*
X220866Y341535D02*
D03*
X214567D02*
D03*
X220692Y333465D02*
D03*
X214393D02*
D03*
D59*
X306496Y258189D02*
D03*
Y253189D02*
D03*
Y248189D02*
D03*
Y243189D02*
D03*
Y238189D02*
D03*
Y233189D02*
D03*
Y228189D02*
D03*
Y223189D02*
D03*
Y218189D02*
D03*
X343504Y258189D02*
D03*
Y253189D02*
D03*
Y248189D02*
D03*
Y243189D02*
D03*
Y238189D02*
D03*
Y233189D02*
D03*
Y228189D02*
D03*
Y223189D02*
D03*
Y218189D02*
D03*
D60*
X234252Y303543D02*
D03*
Y310630D02*
D03*
D61*
X251784Y205315D02*
D03*
X246784D02*
D03*
X241784D02*
D03*
X236784D02*
D03*
Y225000D02*
D03*
X241784D02*
D03*
X246784D02*
D03*
X251784D02*
D03*
X225802Y205315D02*
D03*
X220802D02*
D03*
X215802D02*
D03*
X210802D02*
D03*
Y225000D02*
D03*
X215802D02*
D03*
X220802D02*
D03*
X225802D02*
D03*
X199820Y205315D02*
D03*
X194820D02*
D03*
X189821D02*
D03*
X184820D02*
D03*
Y225000D02*
D03*
X189821D02*
D03*
X194820D02*
D03*
X199820D02*
D03*
X173839D02*
D03*
X168839D02*
D03*
X163839D02*
D03*
X158839D02*
D03*
Y205315D02*
D03*
X163839D02*
D03*
X168839D02*
D03*
X173839D02*
D03*
D62*
X318996Y288189D02*
D03*
X321555D02*
D03*
X324114D02*
D03*
X326673D02*
D03*
X318996Y304331D02*
D03*
X321555D02*
D03*
X324114D02*
D03*
X326673D02*
D03*
X318996Y325591D02*
D03*
X321555D02*
D03*
X324114D02*
D03*
X326673D02*
D03*
X318996Y341732D02*
D03*
X321555D02*
D03*
X324114D02*
D03*
X326673D02*
D03*
D63*
X248513Y296829D02*
D03*
X251073D02*
D03*
X253631D02*
D03*
X256190D02*
D03*
X258750D02*
D03*
X261309D02*
D03*
X263868D02*
D03*
X266427D02*
D03*
X268986D02*
D03*
X271545D02*
D03*
X274104D02*
D03*
X276663D02*
D03*
X279222D02*
D03*
X281781D02*
D03*
X248513Y323601D02*
D03*
X251073D02*
D03*
X253631D02*
D03*
X256190D02*
D03*
X258750D02*
D03*
X261309D02*
D03*
X263868D02*
D03*
X266427D02*
D03*
X268986D02*
D03*
X271545D02*
D03*
X274104D02*
D03*
X276663D02*
D03*
X279222D02*
D03*
X281781D02*
D03*
D64*
X178813Y349058D02*
D03*
X175073D02*
D03*
X171333D02*
D03*
Y339609D02*
D03*
X178813D02*
D03*
D65*
X165732Y314173D02*
D03*
X172433D02*
D03*
X179134D02*
D03*
X185835D02*
D03*
X192535Y313780D02*
D03*
D66*
X179134Y272441D02*
D03*
D67*
X98425Y365158D02*
D03*
Y349409D02*
D03*
D68*
X64961Y336457D02*
D03*
Y356457D02*
D03*
D69*
X219409Y169291D02*
D03*
X250984D02*
D03*
X187402Y169291D02*
D03*
X155118Y169291D02*
D03*
D70*
X229410D02*
D03*
X260984D02*
D03*
X197402Y169291D02*
D03*
X165118Y169291D02*
D03*
X87598Y183071D02*
D03*
X61024D02*
D03*
X354331Y329803D02*
D03*
Y295433D02*
D03*
X84041Y402638D02*
D03*
X72040Y402638D02*
D03*
X60039D02*
D03*
D71*
X87598Y173071D02*
D03*
X61024D02*
D03*
X354331Y319803D02*
D03*
Y285433D02*
D03*
X84041Y392638D02*
D03*
X72040Y392638D02*
D03*
X60039D02*
D03*
D72*
X350906Y194441D02*
D03*
Y387354D02*
D03*
X122559Y194441D02*
D03*
Y387354D02*
D03*
D73*
X301500Y382400D02*
D03*
Y392400D02*
D03*
X311500Y382400D02*
D03*
Y392400D02*
D03*
X321500Y382400D02*
D03*
Y392400D02*
D03*
X331500Y382400D02*
D03*
Y392400D02*
D03*
X291500D02*
D03*
Y382400D02*
D03*
X281500Y392400D02*
D03*
Y382400D02*
D03*
X271500Y392400D02*
D03*
Y382400D02*
D03*
X261500Y392400D02*
D03*
Y382400D02*
D03*
X251500Y392400D02*
D03*
Y382400D02*
D03*
X241500Y392400D02*
D03*
Y382400D02*
D03*
X231500Y392400D02*
D03*
Y382400D02*
D03*
X221500Y392400D02*
D03*
Y382400D02*
D03*
X211500Y392400D02*
D03*
Y382400D02*
D03*
X201500Y392400D02*
D03*
Y382400D02*
D03*
X191500Y392400D02*
D03*
Y382400D02*
D03*
X181500Y392400D02*
D03*
Y382400D02*
D03*
X171500Y392400D02*
D03*
Y382400D02*
D03*
X161500Y392400D02*
D03*
Y382400D02*
D03*
X151500Y392400D02*
D03*
Y382400D02*
D03*
X141500Y392400D02*
D03*
D74*
Y382400D02*
D03*
D75*
X281200Y225100D02*
D03*
D76*
X307087Y308071D02*
D03*
X306102Y346457D02*
D03*
X194882Y333661D02*
D03*
X224410Y341535D02*
D03*
X64961Y253937D02*
D03*
X65945Y296260D02*
D03*
X190945Y295276D02*
D03*
X194882D02*
D03*
X140748Y321850D02*
D03*
X180118Y324803D02*
D03*
X161417Y347441D02*
D03*
X128937Y256890D02*
D03*
X98425D02*
D03*
X171260Y304134D02*
D03*
X189961Y346457D02*
D03*
X178150Y353346D02*
D03*
X169291Y352362D02*
D03*
X145669Y343504D02*
D03*
X342520Y213583D02*
D03*
X312992Y218504D02*
D03*
X253937Y312992D02*
D03*
X258858Y315531D02*
D03*
X248031Y313976D02*
D03*
X231299Y299213D02*
D03*
Y280512D02*
D03*
X271654Y347441D02*
D03*
X230315Y322835D02*
D03*
X297244Y319882D02*
D03*
X281496Y290354D02*
D03*
X240158Y312008D02*
D03*
X330709Y306102D02*
D03*
X328740Y350394D02*
D03*
X329724Y323819D02*
D03*
X314961Y335630D02*
D03*
X324803Y350394D02*
D03*
X323819Y312008D02*
D03*
X322835Y298228D02*
D03*
X329724Y287402D02*
D03*
X306102Y299213D02*
D03*
X309055Y331693D02*
D03*
X252953Y231299D02*
D03*
X227362D02*
D03*
X216535Y218504D02*
D03*
X242126D02*
D03*
X246063Y236221D02*
D03*
X219488D02*
D03*
X193898Y237205D02*
D03*
X200787Y231299D02*
D03*
X190945Y217520D02*
D03*
X166339D02*
D03*
X168307Y236221D02*
D03*
X175197Y231299D02*
D03*
X98425Y373031D02*
D03*
X165354Y323819D02*
D03*
X204331Y328740D02*
D03*
X244488Y327953D02*
D03*
X68504Y211024D02*
D03*
X106299Y164173D02*
D03*
X125984Y162992D02*
D03*
X112598Y231890D02*
D03*
X207874Y263386D02*
D03*
X208661Y270472D02*
D03*
X266142Y236221D02*
D03*
X262205Y211024D02*
D03*
X311811Y208661D02*
D03*
X330709Y270866D02*
D03*
X360236Y250394D02*
D03*
X359449Y229921D02*
D03*
X294882Y281496D02*
D03*
X354331Y355512D02*
D03*
X341732Y356693D02*
D03*
X237795Y355118D02*
D03*
X288583Y353543D02*
D03*
X213779Y306299D02*
D03*
X135039Y227953D02*
D03*
X316929Y405118D02*
D03*
X235827Y404331D02*
D03*
X180709Y407480D02*
D03*
X77953Y264961D02*
D03*
X73622Y290945D02*
D03*
X109843Y275197D02*
D03*
X292520Y234646D02*
D03*
X74410Y223622D02*
D03*
X256693Y362598D02*
D03*
X221260Y270472D02*
D03*
M02*
