G04 Layer_Physical_Order=2*
G04 Layer_Color=16711680*
%FSLAX25Y25*%
%MOIN*%
G70*
G01*
G75*
%ADD29C,0.01000*%
%ADD30C,0.06400*%
%ADD31C,0.03200*%
%ADD32C,0.02400*%
%ADD34O,0.12598X0.07874*%
%ADD35R,0.07087X0.07087*%
%ADD36C,0.07087*%
%ADD37R,0.07087X0.07087*%
%ADD38C,0.23622*%
%ADD39C,0.05905*%
%ADD40R,0.05905X0.05905*%
%ADD41R,0.06000X0.06000*%
%ADD42C,0.02362*%
G36*
X366142Y157480D02*
X43307D01*
Y413386D01*
X366142D01*
Y157480D01*
D02*
G37*
%LPC*%
G36*
X67085Y253437D02*
X65461D01*
Y251813D01*
X65812Y251883D01*
X66533Y252364D01*
X67015Y253086D01*
X67085Y253437D01*
D02*
G37*
G36*
X64461D02*
X62836D01*
X62906Y253086D01*
X63388Y252364D01*
X64110Y251883D01*
X64461Y251813D01*
Y253437D01*
D02*
G37*
G36*
Y256061D02*
X64110Y255992D01*
X63388Y255509D01*
X62906Y254788D01*
X62836Y254437D01*
X64461D01*
Y256061D01*
D02*
G37*
G36*
X207374Y262886D02*
X205750D01*
X205820Y262535D01*
X206301Y261813D01*
X207023Y261331D01*
X207374Y261262D01*
Y262886D01*
D02*
G37*
G36*
X65461Y256061D02*
Y254437D01*
X67085D01*
X67015Y254788D01*
X66533Y255509D01*
X65812Y255992D01*
X65461Y256061D01*
D02*
G37*
G36*
X359736Y249894D02*
X358112D01*
X358182Y249543D01*
X358664Y248821D01*
X359385Y248339D01*
X359736Y248269D01*
Y249894D01*
D02*
G37*
G36*
X194398Y239329D02*
Y237705D01*
X196022D01*
X195952Y238056D01*
X195470Y238777D01*
X194749Y239259D01*
X194398Y239329D01*
D02*
G37*
G36*
X362361Y249894D02*
X360736D01*
Y248269D01*
X361087Y248339D01*
X361809Y248821D01*
X362291Y249543D01*
X362361Y249894D01*
D02*
G37*
G36*
X360736Y252518D02*
Y250894D01*
X362361D01*
X362291Y251245D01*
X361809Y251966D01*
X361087Y252448D01*
X360736Y252518D01*
D02*
G37*
G36*
X359736D02*
X359385Y252448D01*
X358664Y251966D01*
X358182Y251245D01*
X358112Y250894D01*
X359736D01*
Y252518D01*
D02*
G37*
G36*
X78453Y267085D02*
Y265461D01*
X80077D01*
X80007Y265812D01*
X79525Y266533D01*
X78804Y267015D01*
X78453Y267085D01*
D02*
G37*
G36*
X77453D02*
X77102Y267015D01*
X76380Y266533D01*
X75898Y265812D01*
X75828Y265461D01*
X77453D01*
Y267085D01*
D02*
G37*
G36*
X208161Y269972D02*
X206537D01*
X206607Y269621D01*
X207089Y268900D01*
X207810Y268418D01*
X208161Y268348D01*
Y269972D01*
D02*
G37*
G36*
X220760D02*
X219135D01*
X219205Y269621D01*
X219687Y268900D01*
X220409Y268418D01*
X220760Y268348D01*
Y269972D01*
D02*
G37*
G36*
X210786D02*
X209161D01*
Y268348D01*
X209512Y268418D01*
X210234Y268900D01*
X210716Y269621D01*
X210786Y269972D01*
D02*
G37*
G36*
X77453Y264461D02*
X75828D01*
X75898Y264110D01*
X76380Y263388D01*
X77102Y262906D01*
X77453Y262836D01*
Y264461D01*
D02*
G37*
G36*
X209998Y262886D02*
X208374D01*
Y261262D01*
X208725Y261331D01*
X209447Y261813D01*
X209929Y262535D01*
X209998Y262886D01*
D02*
G37*
G36*
X80077Y264461D02*
X78453D01*
Y262836D01*
X78804Y262906D01*
X79525Y263388D01*
X80007Y264110D01*
X80077Y264461D01*
D02*
G37*
G36*
X208374Y265510D02*
Y263886D01*
X209998D01*
X209929Y264237D01*
X209447Y264958D01*
X208725Y265440D01*
X208374Y265510D01*
D02*
G37*
G36*
X207374D02*
X207023Y265440D01*
X206301Y264958D01*
X205820Y264237D01*
X205750Y263886D01*
X207374D01*
Y265510D01*
D02*
G37*
G36*
X193398Y239329D02*
X193047Y239259D01*
X192325Y238777D01*
X191843Y238056D01*
X191773Y237705D01*
X193398D01*
Y239329D01*
D02*
G37*
G36*
X265642Y235720D02*
X264017D01*
X264087Y235369D01*
X264569Y234648D01*
X265291Y234166D01*
X265642Y234096D01*
Y235720D01*
D02*
G37*
G36*
X248187D02*
X246563D01*
Y234096D01*
X246914Y234166D01*
X247636Y234648D01*
X248117Y235369D01*
X248187Y235720D01*
D02*
G37*
G36*
X268266D02*
X266642D01*
Y234096D01*
X266993Y234166D01*
X267714Y234648D01*
X268196Y235369D01*
X268266Y235720D01*
D02*
G37*
G36*
X196022Y236705D02*
X194398D01*
Y235080D01*
X194749Y235150D01*
X195470Y235632D01*
X195952Y236354D01*
X196022Y236705D01*
D02*
G37*
G36*
X193398D02*
X191773D01*
X191843Y236354D01*
X192325Y235632D01*
X193047Y235150D01*
X193398Y235080D01*
Y236705D01*
D02*
G37*
G36*
X170431Y235720D02*
X168807D01*
Y234096D01*
X169158Y234166D01*
X169880Y234648D01*
X170362Y235369D01*
X170431Y235720D01*
D02*
G37*
G36*
X167807D02*
X166183D01*
X166253Y235369D01*
X166735Y234648D01*
X167456Y234166D01*
X167807Y234096D01*
Y235720D01*
D02*
G37*
G36*
X218988D02*
X217364D01*
X217434Y235369D01*
X217916Y234648D01*
X218637Y234166D01*
X218988Y234096D01*
Y235720D01*
D02*
G37*
G36*
X245563D02*
X243939D01*
X244008Y235369D01*
X244491Y234648D01*
X245212Y234166D01*
X245563Y234096D01*
Y235720D01*
D02*
G37*
G36*
X221613D02*
X219988D01*
Y234096D01*
X220339Y234166D01*
X221061Y234648D01*
X221543Y235369D01*
X221613Y235720D01*
D02*
G37*
G36*
X245563Y238345D02*
X245212Y238275D01*
X244491Y237793D01*
X244008Y237071D01*
X243939Y236720D01*
X245563D01*
Y238345D01*
D02*
G37*
G36*
X219988D02*
Y236720D01*
X221613D01*
X221543Y237071D01*
X221061Y237793D01*
X220339Y238275D01*
X219988Y238345D01*
D02*
G37*
G36*
X246563D02*
Y236720D01*
X248187D01*
X248117Y237071D01*
X247636Y237793D01*
X246914Y238275D01*
X246563Y238345D01*
D02*
G37*
G36*
X266642D02*
Y236720D01*
X268266D01*
X268196Y237071D01*
X267714Y237793D01*
X266993Y238275D01*
X266642Y238345D01*
D02*
G37*
G36*
X265642D02*
X265291Y238275D01*
X264569Y237793D01*
X264087Y237071D01*
X264017Y236720D01*
X265642D01*
Y238345D01*
D02*
G37*
G36*
X293020Y236770D02*
Y235146D01*
X294644D01*
X294574Y235497D01*
X294092Y236218D01*
X293371Y236700D01*
X293020Y236770D01*
D02*
G37*
G36*
X292020D02*
X291669Y236700D01*
X290947Y236218D01*
X290465Y235497D01*
X290395Y235146D01*
X292020D01*
Y236770D01*
D02*
G37*
G36*
X167807Y238345D02*
X167456Y238275D01*
X166735Y237793D01*
X166253Y237071D01*
X166183Y236720D01*
X167807D01*
Y238345D01*
D02*
G37*
G36*
X218988D02*
X218637Y238275D01*
X217916Y237793D01*
X217434Y237071D01*
X217364Y236720D01*
X218988D01*
Y238345D01*
D02*
G37*
G36*
X168807D02*
Y236720D01*
X170431D01*
X170362Y237071D01*
X169880Y237793D01*
X169158Y238275D01*
X168807Y238345D01*
D02*
G37*
G36*
X223384Y269972D02*
X221760D01*
Y268348D01*
X222111Y268418D01*
X222832Y268900D01*
X223314Y269621D01*
X223384Y269972D01*
D02*
G37*
G36*
X353831Y294933D02*
X349814D01*
X349904Y294247D01*
X350362Y293142D01*
X351090Y292193D01*
X352040Y291464D01*
X353145Y291007D01*
X353831Y290916D01*
Y294933D01*
D02*
G37*
G36*
X281996Y292479D02*
Y290854D01*
X283620D01*
X283551Y291205D01*
X283069Y291927D01*
X282347Y292409D01*
X281996Y292479D01*
D02*
G37*
G36*
X358847Y294933D02*
X354831D01*
Y290916D01*
X355517Y291007D01*
X356622Y291464D01*
X357571Y292193D01*
X358299Y293142D01*
X358757Y294247D01*
X358847Y294933D01*
D02*
G37*
G36*
X74122Y293069D02*
Y291445D01*
X75746D01*
X75677Y291796D01*
X75195Y292517D01*
X74473Y292999D01*
X74122Y293069D01*
D02*
G37*
G36*
X73122D02*
X72771Y292999D01*
X72050Y292517D01*
X71567Y291796D01*
X71498Y291445D01*
X73122D01*
Y293069D01*
D02*
G37*
G36*
X283620Y289854D02*
X281996D01*
Y288230D01*
X282347Y288300D01*
X283069Y288782D01*
X283551Y289503D01*
X283620Y289854D01*
D02*
G37*
G36*
X280996D02*
X279372D01*
X279441Y289503D01*
X279924Y288782D01*
X280645Y288300D01*
X280996Y288230D01*
Y289854D01*
D02*
G37*
G36*
X73122Y290445D02*
X71498D01*
X71567Y290094D01*
X72050Y289372D01*
X72771Y288890D01*
X73122Y288821D01*
Y290445D01*
D02*
G37*
G36*
X280996Y292479D02*
X280645Y292409D01*
X279924Y291927D01*
X279441Y291205D01*
X279372Y290854D01*
X280996D01*
Y292479D01*
D02*
G37*
G36*
X75746Y290445D02*
X74122D01*
Y288821D01*
X74473Y288890D01*
X75195Y289372D01*
X75677Y290094D01*
X75746Y290445D01*
D02*
G37*
G36*
X353831Y299950D02*
X353145Y299859D01*
X352040Y299402D01*
X351090Y298673D01*
X350362Y297724D01*
X349904Y296619D01*
X349814Y295933D01*
X353831D01*
Y299950D01*
D02*
G37*
G36*
X195382Y297400D02*
Y295776D01*
X197006D01*
X196936Y296127D01*
X196454Y296848D01*
X195733Y297330D01*
X195382Y297400D01*
D02*
G37*
G36*
X354831Y299950D02*
Y295933D01*
X358847D01*
X358757Y296619D01*
X358299Y297724D01*
X357571Y298673D01*
X356622Y299402D01*
X355517Y299859D01*
X354831Y299950D01*
D02*
G37*
G36*
X65445Y298384D02*
X65094Y298314D01*
X64372Y297832D01*
X63890Y297111D01*
X63820Y296760D01*
X65445D01*
Y298384D01*
D02*
G37*
G36*
X194382Y297400D02*
X194031Y297330D01*
X193309Y296848D01*
X193163Y296630D01*
X192663D01*
X192517Y296848D01*
X191796Y297330D01*
X191445Y297400D01*
Y295276D01*
Y293151D01*
X191796Y293221D01*
X192517Y293703D01*
X192663Y293922D01*
X193163D01*
X193309Y293703D01*
X194031Y293221D01*
X194382Y293151D01*
Y295276D01*
Y297400D01*
D02*
G37*
G36*
X197006Y294776D02*
X195382D01*
Y293151D01*
X195733Y293221D01*
X196454Y293703D01*
X196936Y294425D01*
X197006Y294776D01*
D02*
G37*
G36*
X190445D02*
X188821D01*
X188890Y294425D01*
X189372Y293703D01*
X190094Y293221D01*
X190445Y293151D01*
Y294776D01*
D02*
G37*
G36*
X65445Y295760D02*
X63820D01*
X63890Y295409D01*
X64372Y294687D01*
X65094Y294205D01*
X65445Y294135D01*
Y295760D01*
D02*
G37*
G36*
X190445Y297400D02*
X190094Y297330D01*
X189372Y296848D01*
X188890Y296127D01*
X188821Y295776D01*
X190445D01*
Y297400D01*
D02*
G37*
G36*
X68069Y295760D02*
X66445D01*
Y294135D01*
X66796Y294205D01*
X67517Y294687D01*
X67999Y295409D01*
X68069Y295760D01*
D02*
G37*
G36*
X330224Y289526D02*
Y287902D01*
X331849D01*
X331779Y288253D01*
X331297Y288974D01*
X330575Y289456D01*
X330224Y289526D01*
D02*
G37*
G36*
X330209Y272990D02*
X329858Y272921D01*
X329136Y272439D01*
X328654Y271717D01*
X328584Y271366D01*
X330209D01*
Y272990D01*
D02*
G37*
G36*
X221760Y272597D02*
Y270972D01*
X223384D01*
X223314Y271323D01*
X222832Y272045D01*
X222111Y272527D01*
X221760Y272597D01*
D02*
G37*
G36*
X331209Y272990D02*
Y271366D01*
X332833D01*
X332763Y271717D01*
X332281Y272439D01*
X331560Y272921D01*
X331209Y272990D01*
D02*
G37*
G36*
X111967Y274697D02*
X110343D01*
Y273073D01*
X110694Y273142D01*
X111415Y273624D01*
X111897Y274346D01*
X111967Y274697D01*
D02*
G37*
G36*
X109343D02*
X107718D01*
X107788Y274346D01*
X108270Y273624D01*
X108992Y273142D01*
X109343Y273073D01*
Y274697D01*
D02*
G37*
G36*
X332833Y270366D02*
X331209D01*
Y268742D01*
X331560Y268812D01*
X332281Y269294D01*
X332763Y270015D01*
X332833Y270366D01*
D02*
G37*
G36*
X330209D02*
X328584D01*
X328654Y270015D01*
X329136Y269294D01*
X329858Y268812D01*
X330209Y268742D01*
Y270366D01*
D02*
G37*
G36*
X208161Y272597D02*
X207810Y272527D01*
X207089Y272045D01*
X206607Y271323D01*
X206537Y270972D01*
X208161D01*
Y272597D01*
D02*
G37*
G36*
X220760D02*
X220409Y272527D01*
X219687Y272045D01*
X219205Y271323D01*
X219135Y270972D01*
X220760D01*
Y272597D01*
D02*
G37*
G36*
X209161D02*
Y270972D01*
X210786D01*
X210716Y271323D01*
X210234Y272045D01*
X209512Y272527D01*
X209161Y272597D01*
D02*
G37*
G36*
X295382Y283620D02*
Y281996D01*
X297006D01*
X296936Y282347D01*
X296454Y283069D01*
X295733Y283551D01*
X295382Y283620D01*
D02*
G37*
G36*
X294382D02*
X294031Y283551D01*
X293309Y283069D01*
X292827Y282347D01*
X292758Y281996D01*
X294382D01*
Y283620D01*
D02*
G37*
G36*
X329224Y286902D02*
X327600D01*
X327670Y286551D01*
X328152Y285829D01*
X328873Y285347D01*
X329224Y285277D01*
Y286902D01*
D02*
G37*
G36*
Y289526D02*
X328873Y289456D01*
X328152Y288974D01*
X327670Y288253D01*
X327600Y287902D01*
X329224D01*
Y289526D01*
D02*
G37*
G36*
X331849Y286902D02*
X330224D01*
Y285277D01*
X330575Y285347D01*
X331297Y285829D01*
X331779Y286551D01*
X331849Y286902D01*
D02*
G37*
G36*
X110343Y277321D02*
Y275697D01*
X111967D01*
X111897Y276048D01*
X111415Y276769D01*
X110694Y277251D01*
X110343Y277321D01*
D02*
G37*
G36*
X109343D02*
X108992Y277251D01*
X108270Y276769D01*
X107788Y276048D01*
X107718Y275697D01*
X109343D01*
Y277321D01*
D02*
G37*
G36*
X294382Y280996D02*
X292758D01*
X292827Y280645D01*
X293309Y279924D01*
X294031Y279441D01*
X294382Y279372D01*
Y280996D01*
D02*
G37*
G36*
X358574Y289676D02*
X350087D01*
Y281190D01*
X358574D01*
Y289676D01*
D02*
G37*
G36*
X297006Y280996D02*
X295382D01*
Y279372D01*
X295733Y279441D01*
X296454Y279924D01*
X296936Y280645D01*
X297006Y280996D01*
D02*
G37*
G36*
X294644Y234146D02*
X293020D01*
Y232521D01*
X293371Y232591D01*
X294092Y233073D01*
X294574Y233795D01*
X294644Y234146D01*
D02*
G37*
G36*
X69004Y213148D02*
Y211524D01*
X70628D01*
X70559Y211875D01*
X70076Y212596D01*
X69355Y213078D01*
X69004Y213148D01*
D02*
G37*
G36*
X68004D02*
X67653Y213078D01*
X66931Y212596D01*
X66449Y211875D01*
X66380Y211524D01*
X68004D01*
Y213148D01*
D02*
G37*
G36*
X261705D02*
X261354Y213078D01*
X260632Y212596D01*
X260150Y211875D01*
X260080Y211524D01*
X261705D01*
Y213148D01*
D02*
G37*
G36*
X165839Y217020D02*
X164214D01*
X164284Y216669D01*
X164766Y215947D01*
X165488Y215465D01*
X165839Y215395D01*
Y217020D01*
D02*
G37*
G36*
X262705Y213148D02*
Y211524D01*
X264329D01*
X264259Y211875D01*
X263777Y212596D01*
X263056Y213078D01*
X262705Y213148D01*
D02*
G37*
G36*
X261705Y210524D02*
X260080D01*
X260150Y210173D01*
X260632Y209451D01*
X261354Y208969D01*
X261705Y208899D01*
Y210524D01*
D02*
G37*
G36*
X70628D02*
X69004D01*
Y208899D01*
X69355Y208969D01*
X70076Y209451D01*
X70559Y210173D01*
X70628Y210524D01*
D02*
G37*
G36*
X264329D02*
X262705D01*
Y208899D01*
X263056Y208969D01*
X263777Y209451D01*
X264259Y210173D01*
X264329Y210524D01*
D02*
G37*
G36*
X312311Y210786D02*
Y209161D01*
X313935D01*
X313866Y209512D01*
X313384Y210234D01*
X312662Y210716D01*
X312311Y210786D01*
D02*
G37*
G36*
X311311D02*
X310960Y210716D01*
X310239Y210234D01*
X309756Y209512D01*
X309687Y209161D01*
X311311D01*
Y210786D01*
D02*
G37*
G36*
X244250Y218004D02*
X242626D01*
Y216380D01*
X242977Y216449D01*
X243699Y216931D01*
X244180Y217653D01*
X244250Y218004D01*
D02*
G37*
G36*
X241626D02*
X240002D01*
X240071Y217653D01*
X240553Y216931D01*
X241275Y216449D01*
X241626Y216380D01*
Y218004D01*
D02*
G37*
G36*
X312492Y218004D02*
X310868D01*
X310938Y217653D01*
X311420Y216931D01*
X312141Y216449D01*
X312492Y216380D01*
Y218004D01*
D02*
G37*
G36*
X165839Y219644D02*
X165488Y219574D01*
X164766Y219092D01*
X164284Y218371D01*
X164214Y218020D01*
X165839D01*
Y219644D01*
D02*
G37*
G36*
X315117Y218004D02*
X313492D01*
Y216380D01*
X313843Y216449D01*
X314565Y216931D01*
X315047Y217653D01*
X315117Y218004D01*
D02*
G37*
G36*
X190445Y217020D02*
X188821D01*
X188890Y216669D01*
X189372Y215947D01*
X190094Y215465D01*
X190445Y215395D01*
Y217020D01*
D02*
G37*
G36*
X168463D02*
X166839D01*
Y215395D01*
X167190Y215465D01*
X167911Y215947D01*
X168393Y216669D01*
X168463Y217020D01*
D02*
G37*
G36*
X193069D02*
X191445D01*
Y215395D01*
X191796Y215465D01*
X192517Y215947D01*
X192999Y216669D01*
X193069Y217020D01*
D02*
G37*
G36*
X218660Y218004D02*
X217035D01*
Y216380D01*
X217387Y216449D01*
X218108Y216931D01*
X218590Y217653D01*
X218660Y218004D01*
D02*
G37*
G36*
X216035D02*
X214411D01*
X214481Y217653D01*
X214963Y216931D01*
X215684Y216449D01*
X216035Y216380D01*
Y218004D01*
D02*
G37*
G36*
X68004Y210524D02*
X66380D01*
X66449Y210173D01*
X66931Y209451D01*
X67653Y208969D01*
X68004Y208899D01*
Y210524D01*
D02*
G37*
G36*
X105799Y166298D02*
X105448Y166228D01*
X104727Y165746D01*
X104245Y165024D01*
X104175Y164673D01*
X105799D01*
Y166298D01*
D02*
G37*
G36*
X126484Y165117D02*
Y163492D01*
X128109D01*
X128039Y163843D01*
X127557Y164565D01*
X126835Y165047D01*
X126484Y165117D01*
D02*
G37*
G36*
X106799Y166298D02*
Y164673D01*
X108424D01*
X108354Y165024D01*
X107872Y165746D01*
X107150Y166228D01*
X106799Y166298D01*
D02*
G37*
G36*
X165118Y173571D02*
X164010Y173425D01*
X162978Y172998D01*
X162092Y172318D01*
X161412Y171431D01*
X160984Y170399D01*
X160838Y169291D01*
X160984Y168184D01*
X161412Y167151D01*
X162092Y166265D01*
X162978Y165585D01*
X164010Y165157D01*
X165118Y165011D01*
X166226Y165157D01*
X167258Y165585D01*
X168145Y166265D01*
X168825Y167151D01*
X169252Y168184D01*
X169398Y169291D01*
X169252Y170399D01*
X168825Y171431D01*
X168145Y172318D01*
X167258Y172998D01*
X166226Y173425D01*
X165118Y173571D01*
D02*
G37*
G36*
X197402Y173571D02*
X196294Y173425D01*
X195262Y172998D01*
X194375Y172318D01*
X193695Y171431D01*
X193268Y170399D01*
X193122Y169291D01*
X193268Y168184D01*
X193695Y167151D01*
X194375Y166265D01*
X195262Y165585D01*
X196294Y165157D01*
X197402Y165011D01*
X198509Y165157D01*
X199541Y165585D01*
X200428Y166265D01*
X201108Y167151D01*
X201536Y168184D01*
X201681Y169291D01*
X201536Y170399D01*
X201108Y171431D01*
X200428Y172318D01*
X199541Y172998D01*
X198509Y173425D01*
X197402Y173571D01*
D02*
G37*
G36*
X128109Y162492D02*
X126484D01*
Y160868D01*
X126835Y160938D01*
X127557Y161420D01*
X128039Y162141D01*
X128109Y162492D01*
D02*
G37*
G36*
X125484D02*
X123860D01*
X123930Y162141D01*
X124412Y161420D01*
X125133Y160938D01*
X125484Y160868D01*
Y162492D01*
D02*
G37*
G36*
X105799Y163673D02*
X104175D01*
X104245Y163322D01*
X104727Y162601D01*
X105448Y162119D01*
X105799Y162049D01*
Y163673D01*
D02*
G37*
G36*
X125484Y165117D02*
X125133Y165047D01*
X124412Y164565D01*
X123930Y163843D01*
X123860Y163492D01*
X125484D01*
Y165117D01*
D02*
G37*
G36*
X108424Y163673D02*
X106799D01*
Y162049D01*
X107150Y162119D01*
X107872Y162601D01*
X108354Y163322D01*
X108424Y163673D01*
D02*
G37*
G36*
X350906Y206991D02*
X348942Y206836D01*
X347027Y206377D01*
X345208Y205623D01*
X343529Y204594D01*
X342032Y203315D01*
X340753Y201817D01*
X339724Y200138D01*
X338970Y198319D01*
X338510Y196404D01*
X338356Y194441D01*
X338510Y192478D01*
X338970Y190563D01*
X339724Y188744D01*
X340753Y187065D01*
X342032Y185567D01*
X343529Y184288D01*
X345208Y183259D01*
X347027Y182506D01*
X348942Y182046D01*
X350906Y181891D01*
X352869Y182046D01*
X354784Y182506D01*
X356603Y183259D01*
X358282Y184288D01*
X359780Y185567D01*
X361058Y187065D01*
X362087Y188744D01*
X362841Y190563D01*
X363301Y192478D01*
X363455Y194441D01*
X363301Y196404D01*
X362841Y198319D01*
X362087Y200138D01*
X361058Y201817D01*
X359780Y203315D01*
X358282Y204594D01*
X356603Y205623D01*
X354784Y206377D01*
X352869Y206836D01*
X350906Y206991D01*
D02*
G37*
G36*
X122559D02*
X120596Y206836D01*
X118681Y206377D01*
X116862Y205623D01*
X115182Y204594D01*
X113685Y203315D01*
X112406Y201817D01*
X111377Y200138D01*
X110624Y198319D01*
X110164Y196404D01*
X110009Y194441D01*
X110164Y192478D01*
X110624Y190563D01*
X111377Y188744D01*
X112406Y187065D01*
X113685Y185567D01*
X115182Y184288D01*
X116862Y183259D01*
X118681Y182506D01*
X120596Y182046D01*
X122559Y181891D01*
X124522Y182046D01*
X126437Y182506D01*
X128256Y183259D01*
X129936Y184288D01*
X131433Y185567D01*
X132712Y187065D01*
X133741Y188744D01*
X134494Y190563D01*
X134954Y192478D01*
X135109Y194441D01*
X134954Y196404D01*
X134494Y198319D01*
X133741Y200138D01*
X132712Y201817D01*
X131433Y203315D01*
X129936Y204594D01*
X128256Y205623D01*
X126437Y206377D01*
X124522Y206836D01*
X122559Y206991D01*
D02*
G37*
G36*
X284200Y261314D02*
X278200D01*
X278131Y261300D01*
X277500D01*
Y260669D01*
X277486Y260600D01*
Y189600D01*
X277500Y189531D01*
Y188900D01*
X278131D01*
X278200Y188886D01*
X284200D01*
X284269Y188900D01*
X284900D01*
Y189531D01*
X284914Y189600D01*
Y260600D01*
X284900Y260669D01*
Y261300D01*
X284269D01*
X284200Y261314D01*
D02*
G37*
G36*
X313935Y208161D02*
X312311D01*
Y206537D01*
X312662Y206607D01*
X313384Y207089D01*
X313866Y207810D01*
X313935Y208161D01*
D02*
G37*
G36*
X311311D02*
X309687D01*
X309756Y207810D01*
X310239Y207089D01*
X310960Y206607D01*
X311311Y206537D01*
Y208161D01*
D02*
G37*
G36*
X260984Y173571D02*
X259877Y173425D01*
X258844Y172998D01*
X257958Y172318D01*
X257278Y171431D01*
X256850Y170399D01*
X256704Y169291D01*
X256850Y168184D01*
X257278Y167151D01*
X257958Y166265D01*
X258844Y165585D01*
X259877Y165157D01*
X260984Y165011D01*
X262092Y165157D01*
X263124Y165585D01*
X264011Y166265D01*
X264691Y167151D01*
X265118Y168184D01*
X265264Y169291D01*
X265118Y170399D01*
X264691Y171431D01*
X264011Y172318D01*
X263124Y172998D01*
X262092Y173425D01*
X260984Y173571D01*
D02*
G37*
G36*
X229410D02*
X228302Y173425D01*
X227270Y172998D01*
X226383Y172318D01*
X225703Y171431D01*
X225275Y170399D01*
X225130Y169291D01*
X225275Y168184D01*
X225703Y167151D01*
X226383Y166265D01*
X227270Y165585D01*
X228302Y165157D01*
X229410Y165011D01*
X230517Y165157D01*
X231549Y165585D01*
X232436Y166265D01*
X233116Y167151D01*
X233543Y168184D01*
X233689Y169291D01*
X233543Y170399D01*
X233116Y171431D01*
X232436Y172318D01*
X231549Y172998D01*
X230517Y173425D01*
X229410Y173571D01*
D02*
G37*
G36*
X67323Y361134D02*
X62598D01*
X61388Y360974D01*
X60260Y360507D01*
X59291Y359764D01*
X58548Y358795D01*
X58270Y358125D01*
X46431Y346285D01*
X45806Y345471D01*
X45413Y344522D01*
X45279Y343504D01*
Y213583D01*
Y180118D01*
X45413Y179100D01*
X45806Y178151D01*
X46431Y177337D01*
X53478Y170289D01*
X54293Y169664D01*
X55242Y169271D01*
X56260Y169137D01*
X56780D01*
Y168828D01*
X65267D01*
Y169137D01*
X83355D01*
Y168828D01*
X91842D01*
Y177314D01*
X83355D01*
Y177005D01*
X65267D01*
Y177314D01*
X57580D01*
X53146Y181747D01*
Y203433D01*
X53608Y203624D01*
X61195Y196037D01*
X62010Y195412D01*
X62958Y195019D01*
X63976Y194885D01*
X86953D01*
X113360Y168478D01*
X114175Y167853D01*
X115124Y167460D01*
X116142Y167326D01*
X131890D01*
X132908Y167460D01*
X133857Y167853D01*
X134671Y168478D01*
X137456Y171263D01*
X147583D01*
X150875Y167972D01*
Y165048D01*
X159361D01*
Y173535D01*
X156438D01*
X151994Y177978D01*
X151179Y178603D01*
X150231Y178997D01*
X149213Y179130D01*
X145977D01*
X145785Y179592D01*
X148283Y182090D01*
X176520D01*
X183468Y175142D01*
Y173535D01*
X183158D01*
Y165048D01*
X191645D01*
Y173535D01*
X191335D01*
Y176772D01*
X191201Y177790D01*
X190808Y178738D01*
X190183Y179553D01*
X188108Y181628D01*
X188300Y182090D01*
X209001D01*
X215476Y175615D01*
Y173535D01*
X215166D01*
Y165048D01*
X223653D01*
Y173535D01*
X223343D01*
Y177244D01*
X223209Y178262D01*
X222816Y179211D01*
X222191Y180026D01*
X220588Y181628D01*
X220780Y182090D01*
X236560D01*
X246741Y171908D01*
Y165048D01*
X255228D01*
Y173535D01*
X254878D01*
X254784Y174246D01*
X254391Y175195D01*
X253766Y176010D01*
X248148Y181628D01*
X248339Y182090D01*
X259197D01*
X269856Y171431D01*
X270671Y170806D01*
X271620Y170413D01*
X272638Y170279D01*
X303150D01*
X304168Y170413D01*
X305116Y170806D01*
X305931Y171431D01*
X345301Y210801D01*
X345926Y211616D01*
X346319Y212565D01*
X346453Y213583D01*
X346319Y214601D01*
X345926Y215549D01*
X345301Y216364D01*
X344486Y216989D01*
X343538Y217382D01*
X342520Y217516D01*
X341502Y217382D01*
X340553Y216989D01*
X339738Y216364D01*
X301520Y178146D01*
X274267D01*
X263608Y188805D01*
X262794Y189430D01*
X261845Y189823D01*
X260827Y189957D01*
X146653D01*
X145635Y189823D01*
X144687Y189430D01*
X143872Y188805D01*
X133045Y177978D01*
X130260Y175194D01*
X117771D01*
X91364Y201600D01*
X90549Y202225D01*
X89601Y202619D01*
X88583Y202752D01*
X65606D01*
X53146Y215212D01*
Y341875D01*
X63051Y351780D01*
X67323D01*
X68533Y351939D01*
X69661Y352406D01*
X70630Y353150D01*
X71373Y354118D01*
X71841Y355246D01*
X72000Y356457D01*
X71841Y357667D01*
X71373Y358795D01*
X70630Y359764D01*
X69661Y360507D01*
X68533Y360974D01*
X67323Y361134D01*
D02*
G37*
G36*
X87598Y187351D02*
X86491Y187205D01*
X85458Y186777D01*
X84572Y186097D01*
X83892Y185211D01*
X83464Y184179D01*
X83319Y183071D01*
X83464Y181963D01*
X83892Y180931D01*
X84572Y180044D01*
X85458Y179364D01*
X86491Y178937D01*
X87598Y178791D01*
X88706Y178937D01*
X89738Y179364D01*
X90625Y180044D01*
X91305Y180931D01*
X91733Y181963D01*
X91878Y183071D01*
X91733Y184179D01*
X91305Y185211D01*
X90625Y186097D01*
X89738Y186777D01*
X88706Y187205D01*
X87598Y187351D01*
D02*
G37*
G36*
X61024D02*
X59916Y187205D01*
X58884Y186777D01*
X57997Y186097D01*
X57317Y185211D01*
X56889Y184179D01*
X56744Y183071D01*
X56889Y181963D01*
X57317Y180931D01*
X57997Y180044D01*
X58884Y179364D01*
X59916Y178937D01*
X61024Y178791D01*
X62131Y178937D01*
X63164Y179364D01*
X64050Y180044D01*
X64730Y180931D01*
X65158Y181963D01*
X65303Y183071D01*
X65158Y184179D01*
X64730Y185211D01*
X64050Y186097D01*
X63164Y186777D01*
X62131Y187205D01*
X61024Y187351D01*
D02*
G37*
G36*
X166839Y219644D02*
Y218020D01*
X168463D01*
X168393Y218371D01*
X167911Y219092D01*
X167190Y219574D01*
X166839Y219644D01*
D02*
G37*
G36*
X114723Y231390D02*
X113098D01*
Y229765D01*
X113450Y229835D01*
X114171Y230317D01*
X114653Y231039D01*
X114723Y231390D01*
D02*
G37*
G36*
X112098D02*
X110474D01*
X110544Y231039D01*
X111026Y230317D01*
X111747Y229835D01*
X112098Y229765D01*
Y231390D01*
D02*
G37*
G36*
X358949Y232046D02*
X358598Y231976D01*
X357876Y231494D01*
X357394Y230772D01*
X357324Y230421D01*
X358949D01*
Y232046D01*
D02*
G37*
G36*
X174697Y233424D02*
X174346Y233354D01*
X173624Y232872D01*
X173142Y232150D01*
X173073Y231799D01*
X174697D01*
Y233424D01*
D02*
G37*
G36*
X359949Y232046D02*
Y230421D01*
X361573D01*
X361503Y230772D01*
X361021Y231494D01*
X360300Y231976D01*
X359949Y232046D01*
D02*
G37*
G36*
X226862Y230799D02*
X225238D01*
X225308Y230448D01*
X225790Y229727D01*
X226511Y229245D01*
X226862Y229175D01*
Y230799D01*
D02*
G37*
G36*
X202912D02*
X201287D01*
Y229175D01*
X201638Y229245D01*
X202360Y229727D01*
X202842Y230448D01*
X202912Y230799D01*
D02*
G37*
G36*
X229487D02*
X227862D01*
Y229175D01*
X228213Y229245D01*
X228935Y229727D01*
X229417Y230448D01*
X229487Y230799D01*
D02*
G37*
G36*
X255077D02*
X253453D01*
Y229175D01*
X253804Y229245D01*
X254525Y229727D01*
X255007Y230448D01*
X255077Y230799D01*
D02*
G37*
G36*
X252453D02*
X250828D01*
X250898Y230448D01*
X251380Y229727D01*
X252102Y229245D01*
X252453Y229175D01*
Y230799D01*
D02*
G37*
G36*
X253453Y233424D02*
Y231799D01*
X255077D01*
X255007Y232150D01*
X254525Y232872D01*
X253804Y233354D01*
X253453Y233424D01*
D02*
G37*
G36*
X252453D02*
X252102Y233354D01*
X251380Y232872D01*
X250898Y232150D01*
X250828Y231799D01*
X252453D01*
Y233424D01*
D02*
G37*
G36*
X112098Y234014D02*
X111747Y233944D01*
X111026Y233462D01*
X110544Y232741D01*
X110474Y232390D01*
X112098D01*
Y234014D01*
D02*
G37*
G36*
X292020Y234146D02*
X290395D01*
X290465Y233795D01*
X290947Y233073D01*
X291669Y232591D01*
X292020Y232521D01*
Y234146D01*
D02*
G37*
G36*
X113098Y234014D02*
Y232390D01*
X114723D01*
X114653Y232741D01*
X114171Y233462D01*
X113450Y233944D01*
X113098Y234014D01*
D02*
G37*
G36*
X200287Y233424D02*
X199936Y233354D01*
X199215Y232872D01*
X198733Y232150D01*
X198663Y231799D01*
X200287D01*
Y233424D01*
D02*
G37*
G36*
X175697D02*
Y231799D01*
X177321D01*
X177251Y232150D01*
X176769Y232872D01*
X176048Y233354D01*
X175697Y233424D01*
D02*
G37*
G36*
X201287D02*
Y231799D01*
X202912D01*
X202842Y232150D01*
X202360Y232872D01*
X201638Y233354D01*
X201287Y233424D01*
D02*
G37*
G36*
X227862D02*
Y231799D01*
X229487D01*
X229417Y232150D01*
X228935Y232872D01*
X228213Y233354D01*
X227862Y233424D01*
D02*
G37*
G36*
X226862D02*
X226511Y233354D01*
X225790Y232872D01*
X225308Y232150D01*
X225238Y231799D01*
X226862D01*
Y233424D01*
D02*
G37*
G36*
X200287Y230799D02*
X198663D01*
X198733Y230448D01*
X199215Y229727D01*
X199936Y229245D01*
X200287Y229175D01*
Y230799D01*
D02*
G37*
G36*
X312492Y220628D02*
X312141Y220559D01*
X311420Y220076D01*
X310938Y219355D01*
X310868Y219004D01*
X312492D01*
Y220628D01*
D02*
G37*
G36*
X242626Y220628D02*
Y219004D01*
X244250D01*
X244180Y219355D01*
X243699Y220076D01*
X242977Y220559D01*
X242626Y220628D01*
D02*
G37*
G36*
X313492Y220628D02*
Y219004D01*
X315117D01*
X315047Y219355D01*
X314565Y220076D01*
X313843Y220559D01*
X313492Y220628D01*
D02*
G37*
G36*
X76534Y223122D02*
X74910D01*
Y221498D01*
X75261Y221568D01*
X75982Y222050D01*
X76464Y222771D01*
X76534Y223122D01*
D02*
G37*
G36*
X73909D02*
X72285D01*
X72355Y222771D01*
X72837Y222050D01*
X73558Y221568D01*
X73909Y221498D01*
Y223122D01*
D02*
G37*
G36*
X191445Y219644D02*
Y218020D01*
X193069D01*
X192999Y218371D01*
X192517Y219092D01*
X191796Y219574D01*
X191445Y219644D01*
D02*
G37*
G36*
X190445D02*
X190094Y219574D01*
X189372Y219092D01*
X188890Y218371D01*
X188821Y218020D01*
X190445D01*
Y219644D01*
D02*
G37*
G36*
X216035Y220628D02*
X215684Y220559D01*
X214963Y220076D01*
X214481Y219355D01*
X214411Y219004D01*
X216035D01*
Y220628D01*
D02*
G37*
G36*
X241626D02*
X241275Y220559D01*
X240553Y220076D01*
X240071Y219355D01*
X240002Y219004D01*
X241626D01*
Y220628D01*
D02*
G37*
G36*
X217035D02*
Y219004D01*
X218660D01*
X218590Y219355D01*
X218108Y220076D01*
X217387Y220559D01*
X217035Y220628D01*
D02*
G37*
G36*
X134539Y230077D02*
X134188Y230007D01*
X133467Y229525D01*
X132985Y228804D01*
X132915Y228453D01*
X134539D01*
Y230077D01*
D02*
G37*
G36*
X361573Y229421D02*
X359949D01*
Y227797D01*
X360300Y227867D01*
X361021Y228349D01*
X361503Y229070D01*
X361573Y229421D01*
D02*
G37*
G36*
X135539Y230077D02*
Y228453D01*
X137164D01*
X137094Y228804D01*
X136612Y229525D01*
X135890Y230007D01*
X135539Y230077D01*
D02*
G37*
G36*
X177321Y230799D02*
X175697D01*
Y229175D01*
X176048Y229245D01*
X176769Y229727D01*
X177251Y230448D01*
X177321Y230799D01*
D02*
G37*
G36*
X174697D02*
X173073D01*
X173142Y230448D01*
X173624Y229727D01*
X174346Y229245D01*
X174697Y229175D01*
Y230799D01*
D02*
G37*
G36*
X74910Y225746D02*
Y224122D01*
X76534D01*
X76464Y224473D01*
X75982Y225195D01*
X75261Y225677D01*
X74910Y225746D01*
D02*
G37*
G36*
X73909D02*
X73558Y225677D01*
X72837Y225195D01*
X72355Y224473D01*
X72285Y224122D01*
X73909D01*
Y225746D01*
D02*
G37*
G36*
X134539Y227453D02*
X132915D01*
X132985Y227102D01*
X133467Y226380D01*
X134188Y225898D01*
X134539Y225828D01*
Y227453D01*
D02*
G37*
G36*
X358949Y229421D02*
X357324D01*
X357394Y229070D01*
X357876Y228349D01*
X358598Y227867D01*
X358949Y227797D01*
Y229421D01*
D02*
G37*
G36*
X137164Y227453D02*
X135539D01*
Y225828D01*
X135890Y225898D01*
X136612Y226380D01*
X137094Y227102D01*
X137164Y227453D01*
D02*
G37*
G36*
X88285Y396881D02*
X79798D01*
Y388395D01*
X88285D01*
Y396881D01*
D02*
G37*
G36*
X64283Y396881D02*
X55796D01*
Y388394D01*
X64283D01*
Y396881D01*
D02*
G37*
G36*
X140748Y412398D02*
X105315D01*
X104297Y412264D01*
X103348Y411871D01*
X102533Y411246D01*
X96628Y405341D01*
X96003Y404526D01*
X95610Y403577D01*
X95476Y402559D01*
Y383858D01*
X95473Y383855D01*
X78401D01*
X75974Y386282D01*
Y388394D01*
X76284D01*
Y396881D01*
X67797D01*
Y388394D01*
X68107D01*
Y384652D01*
X68241Y383634D01*
X68634Y382686D01*
X69259Y381871D01*
X73990Y377140D01*
X74805Y376515D01*
X75753Y376122D01*
X76772Y375988D01*
X101717D01*
X119266Y358439D01*
X129925Y347780D01*
Y339567D01*
X130059Y338549D01*
X130452Y337600D01*
X131077Y336785D01*
X150594Y317268D01*
Y314961D01*
Y276236D01*
X144040Y269682D01*
X109252D01*
X108234Y269548D01*
X107285Y269155D01*
X106471Y268530D01*
X95461Y257520D01*
X94836Y256705D01*
X94442Y255756D01*
X94308Y254738D01*
X94442Y253720D01*
X94836Y252771D01*
X95461Y251957D01*
X96275Y251331D01*
X97224Y250939D01*
X98242Y250804D01*
X99260Y250939D01*
X100209Y251331D01*
X101024Y251957D01*
X110881Y261814D01*
X128630D01*
X128821Y261352D01*
X128194Y260726D01*
X127919Y260689D01*
X126970Y260296D01*
X126155Y259671D01*
X125530Y258857D01*
X125137Y257908D01*
X125003Y256890D01*
X125137Y255872D01*
X125530Y254923D01*
X126155Y254108D01*
X126970Y253483D01*
X127919Y253090D01*
X128937Y252956D01*
X129921D01*
X130939Y253090D01*
X131888Y253483D01*
X132703Y254108D01*
X140409Y261814D01*
X145669D01*
X146687Y261948D01*
X147636Y262341D01*
X148451Y262966D01*
X157309Y271825D01*
X157934Y272639D01*
X158327Y273588D01*
X158461Y274606D01*
Y304811D01*
X158923Y305002D01*
X162573Y301352D01*
X163388Y300727D01*
X164336Y300334D01*
X165354Y300200D01*
X171260D01*
X172278Y300334D01*
X173227Y300727D01*
X174041Y301352D01*
X174667Y302167D01*
X175059Y303116D01*
X175194Y304134D01*
X175059Y305152D01*
X174667Y306101D01*
X174041Y306915D01*
X173227Y307540D01*
X172278Y307933D01*
X171260Y308067D01*
X166984D01*
X158461Y316590D01*
Y318898D01*
X158327Y319916D01*
X157934Y320865D01*
X157309Y321679D01*
X137792Y341196D01*
Y349409D01*
X137658Y350428D01*
X137265Y351376D01*
X136640Y352191D01*
X132006Y356825D01*
X132197Y357287D01*
X146008D01*
X151254Y352041D01*
X152069Y351416D01*
X152094Y351406D01*
X152105Y351380D01*
X152730Y350565D01*
X158636Y344659D01*
X159450Y344034D01*
X160399Y343641D01*
X161417Y343507D01*
X162435Y343641D01*
X163384Y344034D01*
X164199Y344659D01*
X164824Y345474D01*
X165217Y346423D01*
X165351Y347441D01*
X165217Y348459D01*
X165029Y348913D01*
X165363Y349413D01*
X166142D01*
X167160Y349547D01*
X167717Y349777D01*
X168273Y349547D01*
X168626Y349500D01*
X179339Y338788D01*
X179967Y338368D01*
X180709Y338220D01*
X195654D01*
X202394Y331481D01*
Y328740D01*
X202541Y327999D01*
X202961Y327370D01*
X203355Y327107D01*
X203203Y326607D01*
X201359D01*
X196819Y331147D01*
Y333661D01*
X196672Y334403D01*
X196252Y335031D01*
X195623Y335451D01*
X194882Y335599D01*
X194141Y335451D01*
X193512Y335031D01*
X193092Y334403D01*
X192945Y333661D01*
Y330345D01*
X193092Y329604D01*
X193512Y328975D01*
X199187Y323300D01*
X213508Y308979D01*
X213344Y308436D01*
X212929Y308354D01*
X212207Y307872D01*
X211725Y307150D01*
X211655Y306799D01*
X213779D01*
Y306299D01*
X214280D01*
Y304175D01*
X214631Y304245D01*
X215352Y304727D01*
X215834Y305448D01*
X215917Y305863D01*
X216459Y306028D01*
X219519Y302968D01*
Y290354D01*
X219667Y289613D01*
X220087Y288984D01*
X229929Y279142D01*
X230558Y278722D01*
X231299Y278575D01*
X232041Y278722D01*
X232669Y279142D01*
X233089Y279770D01*
X233236Y280512D01*
X233089Y281253D01*
X232669Y281882D01*
X223394Y291157D01*
Y301833D01*
X230730D01*
X230779Y301333D01*
X230448Y301267D01*
X229727Y300785D01*
X229245Y300064D01*
X229175Y299713D01*
X233424D01*
X233354Y300064D01*
X232872Y300785D01*
X232150Y301267D01*
X231819Y301333D01*
X231869Y301833D01*
X266369D01*
X267110Y301980D01*
X267739Y302400D01*
X269193Y303855D01*
X269598Y303936D01*
X270359Y304444D01*
X271641Y305726D01*
X307087D01*
X307984Y305904D01*
X308745Y306413D01*
X309253Y307173D01*
X309432Y308071D01*
X309253Y308968D01*
X308745Y309729D01*
X307984Y310237D01*
X307087Y310416D01*
X276984D01*
X276793Y310878D01*
X283452Y317537D01*
X297244D01*
X298142Y317715D01*
X298902Y318224D01*
X299411Y318985D01*
X299589Y319882D01*
X299411Y320779D01*
X298902Y321540D01*
X298142Y322048D01*
X297244Y322227D01*
X288795D01*
X288604Y322689D01*
X307761Y341846D01*
X308269Y342606D01*
X308447Y343504D01*
Y346457D01*
X308269Y347354D01*
X307761Y348115D01*
X307000Y348623D01*
X306102Y348802D01*
X305205Y348623D01*
X304444Y348115D01*
X303936Y347354D01*
X303757Y346457D01*
Y344475D01*
X280822Y321540D01*
X280822Y321540D01*
X269011Y309729D01*
X267043Y307761D01*
X266534Y307000D01*
X266454Y306595D01*
X265566Y305707D01*
X222259D01*
X205696Y322271D01*
X205887Y322733D01*
X211284D01*
X212025Y322880D01*
X212654Y323300D01*
X215369Y326015D01*
X221442D01*
X225992Y321465D01*
X226621Y321045D01*
X227362Y320897D01*
X230315D01*
X231056Y321045D01*
X231685Y321465D01*
X232105Y322093D01*
X232252Y322835D01*
X232105Y323576D01*
X231685Y324204D01*
X231056Y324624D01*
X230315Y324772D01*
X228165D01*
X227383Y325554D01*
X227574Y326015D01*
X244488D01*
X245230Y326163D01*
X245858Y326583D01*
X246278Y327211D01*
X246425Y327953D01*
X246278Y328694D01*
X245858Y329323D01*
X245230Y329743D01*
X244488Y329890D01*
X214567D01*
X213826Y329743D01*
X213197Y329323D01*
X210482Y326607D01*
X205458D01*
X205307Y327107D01*
X205700Y327370D01*
X206120Y327999D01*
X206268Y328740D01*
Y332283D01*
X206120Y333025D01*
X205700Y333653D01*
X197827Y341527D01*
X197198Y341947D01*
X196457Y342095D01*
X181511D01*
X174655Y348951D01*
X174846Y349413D01*
X178150D01*
X179168Y349547D01*
X180116Y349940D01*
X180931Y350565D01*
X181556Y351380D01*
X181949Y352328D01*
X182083Y353346D01*
X181949Y354365D01*
X181556Y355313D01*
X180931Y356128D01*
X180116Y356753D01*
X179168Y357146D01*
X178150Y357280D01*
X169291D01*
X168273Y357146D01*
X167717Y356915D01*
X167160Y357146D01*
X166142Y357280D01*
X157066D01*
X156817Y357604D01*
X150419Y364002D01*
X149605Y364627D01*
X148656Y365020D01*
X147638Y365154D01*
X123677D01*
X106128Y382703D01*
X103343Y385488D01*
Y400930D01*
X106944Y404531D01*
X137566D01*
Y392400D01*
X137700Y391382D01*
X138093Y390433D01*
X138718Y389618D01*
X139533Y388993D01*
X140482Y388600D01*
X141500Y388466D01*
X142518Y388600D01*
X143467Y388993D01*
X144281Y389618D01*
X144907Y390433D01*
X145300Y391382D01*
X145434Y392400D01*
Y397563D01*
X145896Y397754D01*
X147566Y396083D01*
Y392400D01*
X147700Y391382D01*
X148093Y390433D01*
X148719Y389618D01*
X149533Y388993D01*
X150482Y388600D01*
X151500Y388466D01*
X152518Y388600D01*
X153467Y388993D01*
X154281Y389618D01*
X154907Y390433D01*
X155300Y391382D01*
X155434Y392400D01*
Y397713D01*
X155300Y398731D01*
X154907Y399679D01*
X154281Y400494D01*
X144281Y410494D01*
X143529Y411246D01*
X142715Y411871D01*
X141766Y412264D01*
X140748Y412398D01*
D02*
G37*
G36*
X165421Y391900D02*
X162000D01*
Y388479D01*
X162532Y388549D01*
X163493Y388947D01*
X164319Y389581D01*
X164953Y390407D01*
X165351Y391368D01*
X165421Y391900D01*
D02*
G37*
G36*
X161000D02*
X157579D01*
X157649Y391368D01*
X158047Y390407D01*
X158681Y389581D01*
X159507Y388947D01*
X160468Y388549D01*
X161000Y388479D01*
Y391900D01*
D02*
G37*
G36*
X182000Y386321D02*
Y382900D01*
X185421D01*
X185351Y383432D01*
X184953Y384393D01*
X184319Y385219D01*
X183493Y385853D01*
X182532Y386251D01*
X182000Y386321D01*
D02*
G37*
G36*
X181000D02*
X180468Y386251D01*
X179507Y385853D01*
X178681Y385219D01*
X178047Y384393D01*
X177649Y383432D01*
X177579Y382900D01*
X181000D01*
Y386321D01*
D02*
G37*
G36*
X331000D02*
X330468Y386251D01*
X329507Y385853D01*
X328681Y385219D01*
X328047Y384393D01*
X327649Y383432D01*
X327579Y382900D01*
X331000D01*
Y386321D01*
D02*
G37*
G36*
X261500Y396084D02*
X260546Y395959D01*
X259658Y395591D01*
X258895Y395005D01*
X258309Y394242D01*
X257941Y393354D01*
X257816Y392400D01*
X257941Y391446D01*
X258309Y390558D01*
X258895Y389795D01*
X259658Y389209D01*
X260546Y388841D01*
X261500Y388716D01*
X262454Y388841D01*
X263072Y389097D01*
X264562Y387608D01*
X264618Y387327D01*
X264883Y386930D01*
X265509Y386304D01*
Y384358D01*
X265009Y384258D01*
X264953Y384393D01*
X264319Y385219D01*
X263493Y385853D01*
X262532Y386251D01*
X262000Y386321D01*
Y382400D01*
Y378479D01*
X262532Y378549D01*
X263493Y378947D01*
X264319Y379581D01*
X264953Y380407D01*
X265009Y380542D01*
X265509Y380442D01*
Y377953D01*
X265602Y377484D01*
X265867Y377088D01*
X269759Y373196D01*
X269568Y372734D01*
X261781D01*
X258113Y376401D01*
Y379543D01*
X258587Y379703D01*
X258681Y379581D01*
X259507Y378947D01*
X260468Y378549D01*
X261000Y378479D01*
Y382400D01*
Y386321D01*
X260468Y386251D01*
X259507Y385853D01*
X258681Y385219D01*
X258587Y385097D01*
X258113Y385257D01*
Y388779D01*
X258020Y389248D01*
X257755Y389645D01*
X255163Y392237D01*
X255184Y392400D01*
X255059Y393354D01*
X254691Y394242D01*
X254105Y395005D01*
X253342Y395591D01*
X252454Y395959D01*
X251500Y396084D01*
X250546Y395959D01*
X249658Y395591D01*
X248895Y395005D01*
X248309Y394242D01*
X247941Y393354D01*
X247816Y392400D01*
X247941Y391446D01*
X248309Y390558D01*
X248895Y389795D01*
X249658Y389209D01*
X250546Y388841D01*
X251500Y388716D01*
X252454Y388841D01*
X253342Y389209D01*
X254105Y389795D01*
X254142Y389797D01*
X255666Y388273D01*
Y382731D01*
X255648Y382708D01*
X255361Y382727D01*
X255128Y382827D01*
X255059Y383354D01*
X254691Y384242D01*
X254105Y385005D01*
X253342Y385591D01*
X252454Y385959D01*
X251500Y386084D01*
X250546Y385959D01*
X249658Y385591D01*
X248895Y385005D01*
X248309Y384242D01*
X247941Y383354D01*
X247816Y382400D01*
X247941Y381446D01*
X248309Y380558D01*
X248895Y379795D01*
X249658Y379209D01*
X250276Y378953D01*
Y378421D01*
X250370Y377953D01*
X250635Y377556D01*
X258395Y369796D01*
X258204Y369334D01*
X256296D01*
X244802Y380828D01*
X245059Y381446D01*
X245184Y382400D01*
X245059Y383354D01*
X244691Y384242D01*
X244105Y385005D01*
X243342Y385591D01*
X242454Y385959D01*
X241500Y386084D01*
X240546Y385959D01*
X239658Y385591D01*
X238895Y385005D01*
X238309Y384242D01*
X237941Y383354D01*
X237816Y382400D01*
X237941Y381446D01*
X238309Y380558D01*
X238895Y379795D01*
X239658Y379209D01*
X240546Y378841D01*
X241500Y378716D01*
X242454Y378841D01*
X243072Y379098D01*
X254925Y367245D01*
X255322Y366980D01*
X255790Y366887D01*
X296737D01*
X318658Y344966D01*
Y341058D01*
X315117Y337517D01*
X314961Y337548D01*
X314227Y337402D01*
X313604Y336986D01*
X313189Y336364D01*
X313043Y335630D01*
X313189Y334896D01*
X313604Y334274D01*
X314227Y333858D01*
X314961Y333712D01*
X315695Y333858D01*
X316317Y334274D01*
X316733Y334896D01*
X316879Y335630D01*
X316847Y335786D01*
X318196Y337135D01*
X318658Y336944D01*
Y301181D01*
X318752Y300713D01*
X319017Y300316D01*
X320948Y298385D01*
X320917Y298228D01*
X321063Y297494D01*
X321479Y296872D01*
X322101Y296456D01*
X322835Y296310D01*
X323569Y296456D01*
X324191Y296872D01*
X324607Y297494D01*
X324753Y298228D01*
X324607Y298962D01*
X324191Y299585D01*
X323569Y300000D01*
X322835Y300146D01*
X322678Y300115D01*
X321105Y301688D01*
Y312338D01*
X321567Y312529D01*
X321932Y312164D01*
X321901Y312008D01*
X322047Y311274D01*
X322463Y310652D01*
X323085Y310236D01*
X323819Y310090D01*
X324553Y310236D01*
X325175Y310652D01*
X325591Y311274D01*
X325737Y312008D01*
X325591Y312742D01*
X325175Y313364D01*
X324553Y313780D01*
X323819Y313926D01*
X323662Y313895D01*
X322805Y314752D01*
Y342997D01*
X325668Y345860D01*
X325934Y346257D01*
X326027Y346725D01*
Y348949D01*
X326159Y349038D01*
X326494Y349538D01*
X326618Y349570D01*
X326926D01*
X327049Y349538D01*
X327384Y349038D01*
X328006Y348622D01*
X328740Y348476D01*
X329474Y348622D01*
X330096Y349038D01*
X330512Y349660D01*
X330658Y350394D01*
X330518Y351100D01*
X330539Y351131D01*
X330991Y351333D01*
X333422Y348903D01*
Y310546D01*
X330865Y307989D01*
X330709Y308020D01*
X329975Y307874D01*
X329352Y307459D01*
X328937Y306836D01*
X328791Y306102D01*
X328937Y305368D01*
X329352Y304746D01*
X329975Y304330D01*
X330709Y304184D01*
X331443Y304330D01*
X332065Y304746D01*
X332481Y305368D01*
X332627Y306102D01*
X332595Y306259D01*
X335511Y309174D01*
X335776Y309571D01*
X335869Y310039D01*
Y349409D01*
X335776Y349878D01*
X335511Y350275D01*
X327637Y358149D01*
X327240Y358414D01*
X326772Y358507D01*
X315790D01*
X300222Y374075D01*
X299825Y374341D01*
X299357Y374434D01*
X271982D01*
X267956Y378460D01*
Y380197D01*
X268456Y380367D01*
X268895Y379795D01*
X269658Y379209D01*
X270546Y378841D01*
X271500Y378716D01*
X272454Y378841D01*
X273342Y379209D01*
X274105Y379795D01*
X274691Y380558D01*
X275059Y381446D01*
X275184Y382400D01*
X275059Y383354D01*
X274691Y384242D01*
X274105Y385005D01*
X273342Y385591D01*
X272454Y385959D01*
X271500Y386084D01*
X270546Y385959D01*
X269658Y385591D01*
X268895Y385005D01*
X268456Y384433D01*
X267956Y384603D01*
Y386811D01*
X267863Y387279D01*
X267597Y387676D01*
X266934Y388339D01*
X266878Y388620D01*
X266613Y389017D01*
X264803Y390828D01*
X265059Y391446D01*
X265184Y392400D01*
X265059Y393354D01*
X264691Y394242D01*
X264105Y395005D01*
X263342Y395591D01*
X262454Y395959D01*
X261500Y396084D01*
D02*
G37*
G36*
X332000Y386321D02*
Y382900D01*
X335421D01*
X335351Y383432D01*
X334953Y384393D01*
X334319Y385219D01*
X333493Y385853D01*
X332532Y386251D01*
X332000Y386321D01*
D02*
G37*
G36*
X201000Y391900D02*
X197579D01*
X197649Y391368D01*
X198047Y390407D01*
X198681Y389581D01*
X199507Y388947D01*
X200468Y388549D01*
X201000Y388479D01*
Y391900D01*
D02*
G37*
G36*
X305421D02*
X302000D01*
Y388479D01*
X302532Y388549D01*
X303493Y388947D01*
X304319Y389581D01*
X304953Y390407D01*
X305351Y391368D01*
X305421Y391900D01*
D02*
G37*
G36*
X301000D02*
X297579D01*
X297649Y391368D01*
X298047Y390407D01*
X298681Y389581D01*
X299507Y388947D01*
X300468Y388549D01*
X301000Y388479D01*
Y391900D01*
D02*
G37*
G36*
X171500Y396084D02*
X170546Y395959D01*
X169658Y395591D01*
X168895Y395005D01*
X168309Y394242D01*
X167941Y393354D01*
X167816Y392400D01*
X167941Y391446D01*
X168309Y390558D01*
X168895Y389795D01*
X169658Y389209D01*
X170546Y388841D01*
X171500Y388716D01*
X172454Y388841D01*
X173342Y389209D01*
X174105Y389795D01*
X174691Y390558D01*
X175059Y391446D01*
X175184Y392400D01*
X175059Y393354D01*
X174691Y394242D01*
X174105Y395005D01*
X173342Y395591D01*
X172454Y395959D01*
X171500Y396084D01*
D02*
G37*
G36*
X191500D02*
X190546Y395959D01*
X189658Y395591D01*
X188895Y395005D01*
X188309Y394242D01*
X187941Y393354D01*
X187816Y392400D01*
X187941Y391446D01*
X188309Y390558D01*
X188895Y389795D01*
X189658Y389209D01*
X190546Y388841D01*
X191500Y388716D01*
X192454Y388841D01*
X193342Y389209D01*
X194105Y389795D01*
X194691Y390558D01*
X195059Y391446D01*
X195184Y392400D01*
X195059Y393354D01*
X194691Y394242D01*
X194105Y395005D01*
X193342Y395591D01*
X192454Y395959D01*
X191500Y396084D01*
D02*
G37*
G36*
X181500D02*
X180546Y395959D01*
X179658Y395591D01*
X178895Y395005D01*
X178309Y394242D01*
X177941Y393354D01*
X177816Y392400D01*
X177941Y391446D01*
X178309Y390558D01*
X178895Y389795D01*
X179658Y389209D01*
X180546Y388841D01*
X181500Y388716D01*
X182454Y388841D01*
X183342Y389209D01*
X184105Y389795D01*
X184691Y390558D01*
X185059Y391446D01*
X185184Y392400D01*
X185059Y393354D01*
X184691Y394242D01*
X184105Y395005D01*
X183342Y395591D01*
X182454Y395959D01*
X181500Y396084D01*
D02*
G37*
G36*
X231000Y391900D02*
X227579D01*
X227649Y391368D01*
X228047Y390407D01*
X228681Y389581D01*
X229507Y388947D01*
X230468Y388549D01*
X231000Y388479D01*
Y391900D01*
D02*
G37*
G36*
X205421D02*
X202000D01*
Y388479D01*
X202532Y388549D01*
X203493Y388947D01*
X204319Y389581D01*
X204953Y390407D01*
X205351Y391368D01*
X205421Y391900D01*
D02*
G37*
G36*
X235421D02*
X232000D01*
Y388479D01*
X232532Y388549D01*
X233493Y388947D01*
X234319Y389581D01*
X234953Y390407D01*
X235351Y391368D01*
X235421Y391900D01*
D02*
G37*
G36*
X285421D02*
X282000D01*
Y388479D01*
X282532Y388549D01*
X283493Y388947D01*
X284319Y389581D01*
X284953Y390407D01*
X285351Y391368D01*
X285421Y391900D01*
D02*
G37*
G36*
X281000D02*
X277579D01*
X277649Y391368D01*
X278047Y390407D01*
X278681Y389581D01*
X279507Y388947D01*
X280468Y388549D01*
X281000Y388479D01*
Y391900D01*
D02*
G37*
G36*
X185421Y381900D02*
X182000D01*
Y378479D01*
X182532Y378549D01*
X183493Y378947D01*
X184319Y379581D01*
X184953Y380407D01*
X185351Y381368D01*
X185421Y381900D01*
D02*
G37*
G36*
X181000D02*
X177579D01*
X177649Y381368D01*
X178047Y380407D01*
X178681Y379581D01*
X179507Y378947D01*
X180468Y378549D01*
X181000Y378479D01*
Y381900D01*
D02*
G37*
G36*
X331000D02*
X327579D01*
X327649Y381368D01*
X328047Y380407D01*
X328681Y379581D01*
X329507Y378947D01*
X330468Y378549D01*
X331000Y378479D01*
Y381900D01*
D02*
G37*
G36*
X171500Y386084D02*
X170546Y385959D01*
X169658Y385591D01*
X168895Y385005D01*
X168309Y384242D01*
X167941Y383354D01*
X167816Y382400D01*
X167941Y381446D01*
X168309Y380558D01*
X168895Y379795D01*
X169658Y379209D01*
X170546Y378841D01*
X171500Y378716D01*
X172454Y378841D01*
X173342Y379209D01*
X174105Y379795D01*
X174691Y380558D01*
X175059Y381446D01*
X175184Y382400D01*
X175059Y383354D01*
X174691Y384242D01*
X174105Y385005D01*
X173342Y385591D01*
X172454Y385959D01*
X171500Y386084D01*
D02*
G37*
G36*
X335421Y381900D02*
X332000D01*
Y378479D01*
X332532Y378549D01*
X333493Y378947D01*
X334319Y379581D01*
X334953Y380407D01*
X335351Y381368D01*
X335421Y381900D01*
D02*
G37*
G36*
X97925Y375156D02*
X97574Y375086D01*
X96853Y374604D01*
X96371Y373883D01*
X96301Y373532D01*
X97925D01*
Y375156D01*
D02*
G37*
G36*
X100550Y372532D02*
X98925D01*
Y370907D01*
X99276Y370977D01*
X99998Y371459D01*
X100480Y372181D01*
X100550Y372532D01*
D02*
G37*
G36*
X98925Y375156D02*
Y373532D01*
X100550D01*
X100480Y373883D01*
X99998Y374604D01*
X99276Y375086D01*
X98925Y375156D01*
D02*
G37*
G36*
X350906Y399904D02*
X348942Y399750D01*
X347027Y399290D01*
X345208Y398536D01*
X343529Y397507D01*
X342032Y396228D01*
X340753Y394731D01*
X339724Y393052D01*
X338970Y391232D01*
X338510Y389318D01*
X338356Y387354D01*
X338510Y385391D01*
X338970Y383476D01*
X339724Y381657D01*
X340753Y379978D01*
X342032Y378480D01*
X343529Y377202D01*
X345208Y376172D01*
X347027Y375419D01*
X348942Y374959D01*
X350906Y374805D01*
X352869Y374959D01*
X354784Y375419D01*
X356603Y376172D01*
X358282Y377202D01*
X359780Y378480D01*
X361058Y379978D01*
X362087Y381657D01*
X362841Y383476D01*
X363301Y385391D01*
X363455Y387354D01*
X363301Y389318D01*
X362841Y391232D01*
X362087Y393052D01*
X361058Y394731D01*
X359780Y396228D01*
X358282Y397507D01*
X356603Y398536D01*
X354784Y399290D01*
X352869Y399750D01*
X350906Y399904D01*
D02*
G37*
G36*
X122559D02*
X120596Y399750D01*
X118681Y399290D01*
X116862Y398536D01*
X115182Y397507D01*
X113685Y396228D01*
X112406Y394731D01*
X111377Y393052D01*
X110624Y391232D01*
X110164Y389318D01*
X110009Y387354D01*
X110164Y385391D01*
X110624Y383476D01*
X111377Y381657D01*
X112406Y379978D01*
X113685Y378480D01*
X115182Y377202D01*
X116862Y376172D01*
X118681Y375419D01*
X120596Y374959D01*
X122559Y374805D01*
X124522Y374959D01*
X126437Y375419D01*
X128256Y376172D01*
X129936Y377202D01*
X131433Y378480D01*
X132712Y379978D01*
X133741Y381657D01*
X134494Y383476D01*
X134954Y385391D01*
X135109Y387354D01*
X134954Y389318D01*
X134494Y391232D01*
X133741Y393052D01*
X132712Y394731D01*
X131433Y396228D01*
X129936Y397507D01*
X128256Y398536D01*
X126437Y399290D01*
X124522Y399750D01*
X122559Y399904D01*
D02*
G37*
G36*
X191500Y386084D02*
X190546Y385959D01*
X189658Y385591D01*
X188895Y385005D01*
X188309Y384242D01*
X187941Y383354D01*
X187816Y382400D01*
X187941Y381446D01*
X188309Y380558D01*
X188895Y379795D01*
X189658Y379209D01*
X190546Y378841D01*
X191500Y378716D01*
X192454Y378841D01*
X193342Y379209D01*
X194105Y379795D01*
X194691Y380558D01*
X195059Y381446D01*
X195184Y382400D01*
X195059Y383354D01*
X194691Y384242D01*
X194105Y385005D01*
X193342Y385591D01*
X192454Y385959D01*
X191500Y386084D01*
D02*
G37*
G36*
X301500D02*
X300546Y385959D01*
X299658Y385591D01*
X298895Y385005D01*
X298309Y384242D01*
X297941Y383354D01*
X297816Y382400D01*
X297941Y381446D01*
X298309Y380558D01*
X298895Y379795D01*
X299658Y379209D01*
X300546Y378841D01*
X301500Y378716D01*
X302454Y378841D01*
X303342Y379209D01*
X304105Y379795D01*
X304691Y380558D01*
X305059Y381446D01*
X305184Y382400D01*
X305059Y383354D01*
X304691Y384242D01*
X304105Y385005D01*
X303342Y385591D01*
X302454Y385959D01*
X301500Y386084D01*
D02*
G37*
G36*
X291500D02*
X290546Y385959D01*
X289658Y385591D01*
X288895Y385005D01*
X288309Y384242D01*
X287941Y383354D01*
X287816Y382400D01*
X287941Y381446D01*
X288309Y380558D01*
X288895Y379795D01*
X289658Y379209D01*
X290546Y378841D01*
X291500Y378716D01*
X292454Y378841D01*
X293342Y379209D01*
X294105Y379795D01*
X294691Y380558D01*
X295059Y381446D01*
X295184Y382400D01*
X295059Y383354D01*
X294691Y384242D01*
X294105Y385005D01*
X293342Y385591D01*
X292454Y385959D01*
X291500Y386084D01*
D02*
G37*
G36*
X311500D02*
X310546Y385959D01*
X309658Y385591D01*
X308895Y385005D01*
X308309Y384242D01*
X307941Y383354D01*
X307816Y382400D01*
X307941Y381446D01*
X308309Y380558D01*
X308895Y379795D01*
X309658Y379209D01*
X310546Y378841D01*
X311500Y378716D01*
X312454Y378841D01*
X313342Y379209D01*
X314105Y379795D01*
X314691Y380558D01*
X315059Y381446D01*
X315184Y382400D01*
X315059Y383354D01*
X314691Y384242D01*
X314105Y385005D01*
X313342Y385591D01*
X312454Y385959D01*
X311500Y386084D01*
D02*
G37*
G36*
X145153Y386053D02*
X137847D01*
Y378747D01*
X145153D01*
Y386053D01*
D02*
G37*
G36*
X321500Y386084D02*
X320546Y385959D01*
X319658Y385591D01*
X318895Y385005D01*
X318309Y384242D01*
X317941Y383354D01*
X317816Y382400D01*
X317941Y381446D01*
X318309Y380558D01*
X318895Y379795D01*
X319658Y379209D01*
X320546Y378841D01*
X321500Y378716D01*
X322454Y378841D01*
X323342Y379209D01*
X324105Y379795D01*
X324691Y380558D01*
X325059Y381446D01*
X325184Y382400D01*
X325059Y383354D01*
X324691Y384242D01*
X324105Y385005D01*
X323342Y385591D01*
X322454Y385959D01*
X321500Y386084D01*
D02*
G37*
G36*
X211500D02*
X210546Y385959D01*
X209658Y385591D01*
X208895Y385005D01*
X208309Y384242D01*
X207941Y383354D01*
X207816Y382400D01*
X207941Y381446D01*
X208309Y380558D01*
X208895Y379795D01*
X209658Y379209D01*
X210546Y378841D01*
X211500Y378716D01*
X212454Y378841D01*
X213342Y379209D01*
X214105Y379795D01*
X214691Y380558D01*
X215059Y381446D01*
X215184Y382400D01*
X215059Y383354D01*
X214691Y384242D01*
X214105Y385005D01*
X213342Y385591D01*
X212454Y385959D01*
X211500Y386084D01*
D02*
G37*
G36*
X201500D02*
X200546Y385959D01*
X199658Y385591D01*
X198895Y385005D01*
X198309Y384242D01*
X197941Y383354D01*
X197816Y382400D01*
X197941Y381446D01*
X198309Y380558D01*
X198895Y379795D01*
X199658Y379209D01*
X200546Y378841D01*
X201500Y378716D01*
X202454Y378841D01*
X203342Y379209D01*
X204105Y379795D01*
X204691Y380558D01*
X205059Y381446D01*
X205184Y382400D01*
X205059Y383354D01*
X204691Y384242D01*
X204105Y385005D01*
X203342Y385591D01*
X202454Y385959D01*
X201500Y386084D01*
D02*
G37*
G36*
X221500D02*
X220546Y385959D01*
X219658Y385591D01*
X218895Y385005D01*
X218309Y384242D01*
X217941Y383354D01*
X217816Y382400D01*
X217941Y381446D01*
X218309Y380558D01*
X218895Y379795D01*
X219658Y379209D01*
X220546Y378841D01*
X221500Y378716D01*
X222454Y378841D01*
X223342Y379209D01*
X224105Y379795D01*
X224691Y380558D01*
X225059Y381446D01*
X225184Y382400D01*
X225059Y383354D01*
X224691Y384242D01*
X224105Y385005D01*
X223342Y385591D01*
X222454Y385959D01*
X221500Y386084D01*
D02*
G37*
G36*
X281500D02*
X280546Y385959D01*
X279658Y385591D01*
X278895Y385005D01*
X278309Y384242D01*
X277941Y383354D01*
X277816Y382400D01*
X277941Y381446D01*
X278309Y380558D01*
X278895Y379795D01*
X279658Y379209D01*
X280546Y378841D01*
X281500Y378716D01*
X282454Y378841D01*
X283342Y379209D01*
X284105Y379795D01*
X284691Y380558D01*
X285059Y381446D01*
X285184Y382400D01*
X285059Y383354D01*
X284691Y384242D01*
X284105Y385005D01*
X283342Y385591D01*
X282454Y385959D01*
X281500Y386084D01*
D02*
G37*
G36*
X231500D02*
X230546Y385959D01*
X229658Y385591D01*
X228895Y385005D01*
X228309Y384242D01*
X227941Y383354D01*
X227816Y382400D01*
X227941Y381446D01*
X228309Y380558D01*
X228895Y379795D01*
X229658Y379209D01*
X230546Y378841D01*
X231500Y378716D01*
X232454Y378841D01*
X233342Y379209D01*
X234105Y379795D01*
X234691Y380558D01*
X235059Y381446D01*
X235184Y382400D01*
X235059Y383354D01*
X234691Y384242D01*
X234105Y385005D01*
X233342Y385591D01*
X232454Y385959D01*
X231500Y386084D01*
D02*
G37*
G36*
X319054Y404618D02*
X317429D01*
Y402994D01*
X317780Y403064D01*
X318502Y403546D01*
X318984Y404267D01*
X319054Y404618D01*
D02*
G37*
G36*
X316429D02*
X314805D01*
X314875Y404267D01*
X315357Y403546D01*
X316078Y403064D01*
X316429Y402994D01*
Y404618D01*
D02*
G37*
G36*
X59539Y407155D02*
X58853Y407064D01*
X57748Y406606D01*
X56799Y405878D01*
X56071Y404929D01*
X55613Y403824D01*
X55523Y403138D01*
X59539D01*
Y407155D01*
D02*
G37*
G36*
X60539Y407155D02*
Y403138D01*
X64556D01*
X64466Y403824D01*
X64008Y404929D01*
X63280Y405878D01*
X62331Y406606D01*
X61225Y407064D01*
X60539Y407155D01*
D02*
G37*
G36*
X71540Y407155D02*
X70854Y407064D01*
X69749Y406606D01*
X68800Y405878D01*
X68072Y404929D01*
X67614Y403824D01*
X67524Y403138D01*
X71540D01*
Y407155D01*
D02*
G37*
G36*
X83541Y402138D02*
X79525D01*
X79615Y401452D01*
X80073Y400347D01*
X80801Y399398D01*
X81750Y398669D01*
X82855Y398212D01*
X83541Y398121D01*
Y402138D01*
D02*
G37*
G36*
X76557Y402138D02*
X72540D01*
Y398121D01*
X73226Y398211D01*
X74332Y398669D01*
X75281Y399397D01*
X76009Y400347D01*
X76467Y401452D01*
X76557Y402138D01*
D02*
G37*
G36*
X88558Y402138D02*
X84541D01*
Y398121D01*
X85227Y398212D01*
X86333Y398669D01*
X87282Y399398D01*
X88010Y400347D01*
X88468Y401452D01*
X88558Y402138D01*
D02*
G37*
G36*
X237951Y403831D02*
X236327D01*
Y402206D01*
X236678Y402276D01*
X237399Y402758D01*
X237881Y403480D01*
X237951Y403831D01*
D02*
G37*
G36*
X235327D02*
X233702D01*
X233772Y403480D01*
X234254Y402758D01*
X234976Y402276D01*
X235327Y402206D01*
Y403831D01*
D02*
G37*
G36*
X72540Y407155D02*
Y403138D01*
X76557D01*
X76467Y403824D01*
X76009Y404929D01*
X75281Y405878D01*
X74332Y406606D01*
X73226Y407064D01*
X72540Y407155D01*
D02*
G37*
G36*
X316429Y407242D02*
X316078Y407173D01*
X315357Y406691D01*
X314875Y405969D01*
X314805Y405618D01*
X316429D01*
Y407242D01*
D02*
G37*
G36*
X182833Y406980D02*
X181209D01*
Y405356D01*
X181560Y405426D01*
X182281Y405908D01*
X182763Y406629D01*
X182833Y406980D01*
D02*
G37*
G36*
X317429Y407242D02*
Y405618D01*
X319054D01*
X318984Y405969D01*
X318502Y406691D01*
X317780Y407173D01*
X317429Y407242D01*
D02*
G37*
G36*
X181209Y409605D02*
Y407980D01*
X182833D01*
X182763Y408331D01*
X182281Y409053D01*
X181560Y409535D01*
X181209Y409605D01*
D02*
G37*
G36*
X180209D02*
X179858Y409535D01*
X179136Y409053D01*
X178654Y408331D01*
X178584Y407980D01*
X180209D01*
Y409605D01*
D02*
G37*
G36*
X84541Y407155D02*
Y403138D01*
X88558D01*
X88468Y403824D01*
X88010Y404929D01*
X87282Y405878D01*
X86333Y406606D01*
X85227Y407064D01*
X84541Y407155D01*
D02*
G37*
G36*
X83541Y407155D02*
X82855Y407064D01*
X81750Y406606D01*
X80801Y405878D01*
X80073Y404929D01*
X79615Y403824D01*
X79525Y403138D01*
X83541D01*
Y407155D01*
D02*
G37*
G36*
X235327Y406455D02*
X234976Y406385D01*
X234254Y405903D01*
X233772Y405182D01*
X233702Y404831D01*
X235327D01*
Y406455D01*
D02*
G37*
G36*
X180209Y406980D02*
X178584D01*
X178654Y406629D01*
X179136Y405908D01*
X179858Y405426D01*
X180209Y405356D01*
Y406980D01*
D02*
G37*
G36*
X236327Y406455D02*
Y404831D01*
X237951D01*
X237881Y405182D01*
X237399Y405903D01*
X236678Y406385D01*
X236327Y406455D01*
D02*
G37*
G36*
X321500Y396084D02*
X320546Y395959D01*
X319658Y395591D01*
X318895Y395005D01*
X318309Y394242D01*
X317941Y393354D01*
X317816Y392400D01*
X317941Y391446D01*
X318309Y390558D01*
X318895Y389795D01*
X319658Y389209D01*
X320546Y388841D01*
X321500Y388716D01*
X322454Y388841D01*
X323342Y389209D01*
X324105Y389795D01*
X324691Y390558D01*
X325059Y391446D01*
X325184Y392400D01*
X325059Y393354D01*
X324691Y394242D01*
X324105Y395005D01*
X323342Y395591D01*
X322454Y395959D01*
X321500Y396084D01*
D02*
G37*
G36*
X311500D02*
X310546Y395959D01*
X309658Y395591D01*
X308895Y395005D01*
X308309Y394242D01*
X307941Y393354D01*
X307816Y392400D01*
X307941Y391446D01*
X308309Y390558D01*
X308895Y389795D01*
X309658Y389209D01*
X310546Y388841D01*
X311500Y388716D01*
X312454Y388841D01*
X313342Y389209D01*
X314105Y389795D01*
X314691Y390558D01*
X315059Y391446D01*
X315184Y392400D01*
X315059Y393354D01*
X314691Y394242D01*
X314105Y395005D01*
X313342Y395591D01*
X312454Y395959D01*
X311500Y396084D01*
D02*
G37*
G36*
X331500D02*
X330546Y395959D01*
X329658Y395591D01*
X328895Y395005D01*
X328309Y394242D01*
X327941Y393354D01*
X327816Y392400D01*
X327941Y391446D01*
X328309Y390558D01*
X328895Y389795D01*
X329658Y389209D01*
X330546Y388841D01*
X331500Y388716D01*
X332454Y388841D01*
X333342Y389209D01*
X334105Y389795D01*
X334691Y390558D01*
X335059Y391446D01*
X335184Y392400D01*
X335059Y393354D01*
X334691Y394242D01*
X334105Y395005D01*
X333342Y395591D01*
X332454Y395959D01*
X331500Y396084D01*
D02*
G37*
G36*
X162000Y396321D02*
Y392900D01*
X165421D01*
X165351Y393432D01*
X164953Y394393D01*
X164319Y395219D01*
X163493Y395853D01*
X162532Y396251D01*
X162000Y396321D01*
D02*
G37*
G36*
X161000D02*
X160468Y396251D01*
X159507Y395853D01*
X158681Y395219D01*
X158047Y394393D01*
X157649Y393432D01*
X157579Y392900D01*
X161000D01*
Y396321D01*
D02*
G37*
G36*
X221500Y396084D02*
X220546Y395959D01*
X219658Y395591D01*
X218895Y395005D01*
X218309Y394242D01*
X217941Y393354D01*
X217816Y392400D01*
X217941Y391446D01*
X218309Y390558D01*
X218895Y389795D01*
X219658Y389209D01*
X220546Y388841D01*
X221500Y388716D01*
X222454Y388841D01*
X223342Y389209D01*
X224105Y389795D01*
X224691Y390558D01*
X225059Y391446D01*
X225184Y392400D01*
X225059Y393354D01*
X224691Y394242D01*
X224105Y395005D01*
X223342Y395591D01*
X222454Y395959D01*
X221500Y396084D01*
D02*
G37*
G36*
X211500D02*
X210546Y395959D01*
X209658Y395591D01*
X208895Y395005D01*
X208309Y394242D01*
X207941Y393354D01*
X207816Y392400D01*
X207941Y391446D01*
X208309Y390558D01*
X208895Y389795D01*
X209658Y389209D01*
X210546Y388841D01*
X211500Y388716D01*
X212454Y388841D01*
X213342Y389209D01*
X214105Y389795D01*
X214691Y390558D01*
X215059Y391446D01*
X215184Y392400D01*
X215059Y393354D01*
X214691Y394242D01*
X214105Y395005D01*
X213342Y395591D01*
X212454Y395959D01*
X211500Y396084D01*
D02*
G37*
G36*
X241500D02*
X240546Y395959D01*
X239658Y395591D01*
X238895Y395005D01*
X238309Y394242D01*
X237941Y393354D01*
X237816Y392400D01*
X237941Y391446D01*
X238309Y390558D01*
X238895Y389795D01*
X239658Y389209D01*
X240546Y388841D01*
X241500Y388716D01*
X242454Y388841D01*
X243342Y389209D01*
X244105Y389795D01*
X244691Y390558D01*
X245059Y391446D01*
X245184Y392400D01*
X245059Y393354D01*
X244691Y394242D01*
X244105Y395005D01*
X243342Y395591D01*
X242454Y395959D01*
X241500Y396084D01*
D02*
G37*
G36*
X291500D02*
X290546Y395959D01*
X289658Y395591D01*
X288895Y395005D01*
X288309Y394242D01*
X287941Y393354D01*
X287816Y392400D01*
X287941Y391446D01*
X288309Y390558D01*
X288895Y389795D01*
X289658Y389209D01*
X290546Y388841D01*
X291500Y388716D01*
X292454Y388841D01*
X293342Y389209D01*
X294105Y389795D01*
X294691Y390558D01*
X295059Y391446D01*
X295184Y392400D01*
X295059Y393354D01*
X294691Y394242D01*
X294105Y395005D01*
X293342Y395591D01*
X292454Y395959D01*
X291500Y396084D01*
D02*
G37*
G36*
X271500D02*
X270546Y395959D01*
X269658Y395591D01*
X268895Y395005D01*
X268309Y394242D01*
X267941Y393354D01*
X267816Y392400D01*
X267941Y391446D01*
X268309Y390558D01*
X268895Y389795D01*
X269658Y389209D01*
X270546Y388841D01*
X271500Y388716D01*
X272454Y388841D01*
X273342Y389209D01*
X274105Y389795D01*
X274691Y390558D01*
X275059Y391446D01*
X275184Y392400D01*
X275059Y393354D01*
X274691Y394242D01*
X274105Y395005D01*
X273342Y395591D01*
X272454Y395959D01*
X271500Y396084D01*
D02*
G37*
G36*
X201000Y396321D02*
X200468Y396251D01*
X199507Y395853D01*
X198681Y395219D01*
X198047Y394393D01*
X197649Y393432D01*
X197579Y392900D01*
X201000D01*
Y396321D01*
D02*
G37*
G36*
X302000D02*
Y392900D01*
X305421D01*
X305351Y393432D01*
X304953Y394393D01*
X304319Y395219D01*
X303493Y395853D01*
X302532Y396251D01*
X302000Y396321D01*
D02*
G37*
G36*
X301000D02*
X300468Y396251D01*
X299507Y395853D01*
X298681Y395219D01*
X298047Y394393D01*
X297649Y393432D01*
X297579Y392900D01*
X301000D01*
Y396321D01*
D02*
G37*
G36*
X59539Y402138D02*
X55523D01*
X55613Y401452D01*
X56071Y400347D01*
X56799Y399397D01*
X57748Y398669D01*
X58853Y398211D01*
X59539Y398121D01*
Y402138D01*
D02*
G37*
G36*
X64556D02*
X60539D01*
Y398121D01*
X61225Y398211D01*
X62331Y398669D01*
X63280Y399397D01*
X64008Y400347D01*
X64466Y401452D01*
X64556Y402138D01*
D02*
G37*
G36*
X71540D02*
X67524D01*
X67614Y401452D01*
X68072Y400347D01*
X68800Y399397D01*
X69749Y398669D01*
X70854Y398211D01*
X71540Y398121D01*
Y402138D01*
D02*
G37*
G36*
X231000Y396321D02*
X230468Y396251D01*
X229507Y395853D01*
X228681Y395219D01*
X228047Y394393D01*
X227649Y393432D01*
X227579Y392900D01*
X231000D01*
Y396321D01*
D02*
G37*
G36*
X202000D02*
Y392900D01*
X205421D01*
X205351Y393432D01*
X204953Y394393D01*
X204319Y395219D01*
X203493Y395853D01*
X202532Y396251D01*
X202000Y396321D01*
D02*
G37*
G36*
X232000D02*
Y392900D01*
X235421D01*
X235351Y393432D01*
X234953Y394393D01*
X234319Y395219D01*
X233493Y395853D01*
X232532Y396251D01*
X232000Y396321D01*
D02*
G37*
G36*
X282000D02*
Y392900D01*
X285421D01*
X285351Y393432D01*
X284953Y394393D01*
X284319Y395219D01*
X283493Y395853D01*
X282532Y396251D01*
X282000Y396321D01*
D02*
G37*
G36*
X281000D02*
X280468Y396251D01*
X279507Y395853D01*
X278681Y395219D01*
X278047Y394393D01*
X277649Y393432D01*
X277579Y392900D01*
X281000D01*
Y396321D01*
D02*
G37*
G36*
X164854Y325943D02*
X164503Y325873D01*
X163782Y325391D01*
X163300Y324670D01*
X163230Y324319D01*
X164854D01*
Y325943D01*
D02*
G37*
G36*
X182243Y324303D02*
X180618D01*
Y322679D01*
X180969Y322749D01*
X181691Y323231D01*
X182173Y323952D01*
X182243Y324303D01*
D02*
G37*
G36*
X165854Y325943D02*
Y324319D01*
X167479D01*
X167409Y324670D01*
X166927Y325391D01*
X166205Y325873D01*
X165854Y325943D01*
D02*
G37*
G36*
X330224D02*
Y324319D01*
X331849D01*
X331779Y324670D01*
X331297Y325391D01*
X330575Y325873D01*
X330224Y325943D01*
D02*
G37*
G36*
X329224D02*
X328873Y325873D01*
X328152Y325391D01*
X327670Y324670D01*
X327600Y324319D01*
X329224D01*
Y325943D01*
D02*
G37*
G36*
X331849Y323319D02*
X330224D01*
Y321694D01*
X330575Y321764D01*
X331297Y322246D01*
X331779Y322968D01*
X331849Y323319D01*
D02*
G37*
G36*
X329224D02*
X327600D01*
X327670Y322968D01*
X328152Y322246D01*
X328873Y321764D01*
X329224Y321694D01*
Y323319D01*
D02*
G37*
G36*
X140248Y323975D02*
X139897Y323905D01*
X139175Y323423D01*
X138693Y322701D01*
X138624Y322350D01*
X140248D01*
Y323975D01*
D02*
G37*
G36*
X179618Y324303D02*
X177994D01*
X178064Y323952D01*
X178546Y323231D01*
X179267Y322749D01*
X179618Y322679D01*
Y324303D01*
D02*
G37*
G36*
X141248Y323975D02*
Y322350D01*
X142872D01*
X142803Y322701D01*
X142321Y323423D01*
X141599Y323905D01*
X141248Y323975D01*
D02*
G37*
G36*
X353831Y329303D02*
X349814D01*
X349904Y328617D01*
X350362Y327512D01*
X351090Y326563D01*
X352040Y325835D01*
X353145Y325377D01*
X353831Y325287D01*
Y329303D01*
D02*
G37*
G36*
X354831Y334320D02*
Y330303D01*
X358847D01*
X358757Y330989D01*
X358299Y332094D01*
X357571Y333044D01*
X356622Y333772D01*
X355517Y334229D01*
X354831Y334320D01*
D02*
G37*
G36*
X353831Y334320D02*
X353145Y334229D01*
X352040Y333772D01*
X351090Y333044D01*
X350362Y332094D01*
X349904Y330989D01*
X349814Y330303D01*
X353831D01*
Y334320D01*
D02*
G37*
G36*
X64461Y335957D02*
X57685D01*
X57788Y335168D01*
X58286Y333967D01*
X59077Y332936D01*
X60109Y332144D01*
X61310Y331647D01*
X62598Y331477D01*
X64461D01*
Y335957D01*
D02*
G37*
G36*
X308555Y333817D02*
X308204Y333748D01*
X307483Y333265D01*
X307001Y332544D01*
X306931Y332193D01*
X308555D01*
Y333817D01*
D02*
G37*
G36*
X72237Y335957D02*
X65461D01*
Y331477D01*
X67323D01*
X68612Y331647D01*
X69813Y332144D01*
X70844Y332936D01*
X71635Y333967D01*
X72133Y335168D01*
X72237Y335957D01*
D02*
G37*
G36*
X179618Y326927D02*
X179267Y326858D01*
X178546Y326376D01*
X178064Y325654D01*
X177994Y325303D01*
X179618D01*
Y326927D01*
D02*
G37*
G36*
X358847Y329303D02*
X354831D01*
Y325287D01*
X355517Y325377D01*
X356622Y325835D01*
X357571Y326563D01*
X358299Y327512D01*
X358757Y328617D01*
X358847Y329303D01*
D02*
G37*
G36*
X180618Y326927D02*
Y325303D01*
X182243D01*
X182173Y325654D01*
X181691Y326376D01*
X180969Y326858D01*
X180618Y326927D01*
D02*
G37*
G36*
X311179Y331193D02*
X309555D01*
Y329569D01*
X309906Y329638D01*
X310628Y330120D01*
X311110Y330842D01*
X311179Y331193D01*
D02*
G37*
G36*
X308555D02*
X306931D01*
X307001Y330842D01*
X307483Y330120D01*
X308204Y329638D01*
X308555Y329569D01*
Y331193D01*
D02*
G37*
G36*
X306602Y301337D02*
Y299713D01*
X308227D01*
X308157Y300064D01*
X307675Y300785D01*
X306953Y301267D01*
X306602Y301337D01*
D02*
G37*
G36*
X305602D02*
X305251Y301267D01*
X304530Y300785D01*
X304048Y300064D01*
X303978Y299713D01*
X305602D01*
Y301337D01*
D02*
G37*
G36*
X213280Y305799D02*
X211655D01*
X211725Y305448D01*
X212207Y304727D01*
X212929Y304245D01*
X213280Y304175D01*
Y305799D01*
D02*
G37*
G36*
X242282Y311508D02*
X240657D01*
Y309883D01*
X241008Y309953D01*
X241730Y310435D01*
X242212Y311157D01*
X242282Y311508D01*
D02*
G37*
G36*
X239657D02*
X238033D01*
X238103Y311157D01*
X238585Y310435D01*
X239306Y309953D01*
X239657Y309883D01*
Y311508D01*
D02*
G37*
G36*
X230799Y298713D02*
X229175D01*
X229245Y298362D01*
X229727Y297640D01*
X230448Y297158D01*
X230799Y297088D01*
Y298713D01*
D02*
G37*
G36*
X66445Y298384D02*
Y296760D01*
X68069D01*
X67999Y297111D01*
X67517Y297832D01*
X66796Y298314D01*
X66445Y298384D01*
D02*
G37*
G36*
X233424Y298713D02*
X231799D01*
Y297088D01*
X232150Y297158D01*
X232872Y297640D01*
X233354Y298362D01*
X233424Y298713D01*
D02*
G37*
G36*
X308227D02*
X306602D01*
Y297088D01*
X306953Y297158D01*
X307675Y297640D01*
X308157Y298362D01*
X308227Y298713D01*
D02*
G37*
G36*
X305602D02*
X303978D01*
X304048Y298362D01*
X304530Y297640D01*
X305251Y297158D01*
X305602Y297088D01*
Y298713D01*
D02*
G37*
G36*
X239657Y314132D02*
X239306Y314062D01*
X238585Y313580D01*
X238103Y312859D01*
X238033Y312508D01*
X239657D01*
Y314132D01*
D02*
G37*
G36*
X140248Y321350D02*
X138624D01*
X138693Y320999D01*
X139175Y320278D01*
X139897Y319796D01*
X140248Y319726D01*
Y321350D01*
D02*
G37*
G36*
X259358Y317655D02*
Y316031D01*
X260983D01*
X260913Y316382D01*
X260431Y317103D01*
X259709Y317585D01*
X259358Y317655D01*
D02*
G37*
G36*
X142872Y321350D02*
X141248D01*
Y319726D01*
X141599Y319796D01*
X142321Y320278D01*
X142803Y320999D01*
X142872Y321350D01*
D02*
G37*
G36*
X167479Y323319D02*
X165854D01*
Y321694D01*
X166205Y321764D01*
X166927Y322246D01*
X167409Y322968D01*
X167479Y323319D01*
D02*
G37*
G36*
X164854D02*
X163230D01*
X163300Y322968D01*
X163782Y322246D01*
X164503Y321764D01*
X164854Y321694D01*
Y323319D01*
D02*
G37*
G36*
X258358Y315031D02*
X256734D01*
X256804Y314680D01*
X257286Y313958D01*
X258007Y313476D01*
X258358Y313406D01*
Y315031D01*
D02*
G37*
G36*
X240657Y314132D02*
Y312508D01*
X242282D01*
X242212Y312859D01*
X241730Y313580D01*
X241008Y314062D01*
X240657Y314132D01*
D02*
G37*
G36*
X260983Y315031D02*
X259358D01*
Y313406D01*
X259709Y313476D01*
X260431Y313958D01*
X260913Y314680D01*
X260983Y315031D01*
D02*
G37*
G36*
X258358Y317655D02*
X258007Y317585D01*
X257286Y317103D01*
X256804Y316382D01*
X256734Y316031D01*
X258358D01*
Y317655D01*
D02*
G37*
G36*
X358574Y324046D02*
X350087D01*
Y315560D01*
X358574D01*
Y324046D01*
D02*
G37*
G36*
X289083Y355668D02*
Y354043D01*
X290707D01*
X290637Y354394D01*
X290155Y355116D01*
X289434Y355598D01*
X289083Y355668D01*
D02*
G37*
G36*
X288083D02*
X287732Y355598D01*
X287010Y355116D01*
X286528Y354394D01*
X286458Y354043D01*
X288083D01*
Y355668D01*
D02*
G37*
G36*
X341232Y356193D02*
X339608D01*
X339678Y355842D01*
X340160Y355120D01*
X340881Y354638D01*
X341232Y354569D01*
Y356193D01*
D02*
G37*
G36*
X237295Y357242D02*
X236944Y357173D01*
X236223Y356691D01*
X235741Y355969D01*
X235671Y355618D01*
X237295D01*
Y357242D01*
D02*
G37*
G36*
X343857Y356193D02*
X342232D01*
Y354569D01*
X342583Y354638D01*
X343305Y355120D01*
X343787Y355842D01*
X343857Y356193D01*
D02*
G37*
G36*
X237295Y354618D02*
X235671D01*
X235741Y354267D01*
X236223Y353546D01*
X236944Y353064D01*
X237295Y352994D01*
Y354618D01*
D02*
G37*
G36*
X290707Y353043D02*
X289083D01*
Y351419D01*
X289434Y351489D01*
X290155Y351971D01*
X290637Y352692D01*
X290707Y353043D01*
D02*
G37*
G36*
X239920Y354618D02*
X238295D01*
Y352994D01*
X238646Y353064D01*
X239368Y353546D01*
X239850Y354267D01*
X239920Y354618D01*
D02*
G37*
G36*
X356455Y355012D02*
X354831D01*
Y353387D01*
X355182Y353457D01*
X355903Y353939D01*
X356385Y354661D01*
X356455Y355012D01*
D02*
G37*
G36*
X353831D02*
X352206D01*
X352276Y354661D01*
X352758Y353939D01*
X353480Y353457D01*
X353831Y353387D01*
Y355012D01*
D02*
G37*
G36*
X238295Y357242D02*
Y355618D01*
X239920D01*
X239850Y355969D01*
X239368Y356691D01*
X238646Y357173D01*
X238295Y357242D01*
D02*
G37*
G36*
X256193Y364723D02*
X255842Y364653D01*
X255120Y364171D01*
X254638Y363449D01*
X254569Y363098D01*
X256193D01*
Y364723D01*
D02*
G37*
G36*
X258817Y362098D02*
X257193D01*
Y360474D01*
X257544Y360544D01*
X258265Y361026D01*
X258748Y361747D01*
X258817Y362098D01*
D02*
G37*
G36*
X257193Y364723D02*
Y363098D01*
X258817D01*
X258748Y363449D01*
X258265Y364171D01*
X257544Y364653D01*
X257193Y364723D01*
D02*
G37*
G36*
X97925Y372532D02*
X96301D01*
X96371Y372181D01*
X96853Y371459D01*
X97574Y370977D01*
X97925Y370907D01*
Y372532D01*
D02*
G37*
G36*
X161500Y386084D02*
X160546Y385959D01*
X159658Y385591D01*
X158895Y385005D01*
X158309Y384242D01*
X157941Y383354D01*
X157816Y382400D01*
X157941Y381446D01*
X158309Y380558D01*
X158895Y379795D01*
X159658Y379209D01*
X160546Y378841D01*
X160801Y378808D01*
X171781Y367827D01*
X171590Y367365D01*
X166845D01*
X154240Y379971D01*
X154691Y380558D01*
X155059Y381446D01*
X155184Y382400D01*
X155059Y383354D01*
X154691Y384242D01*
X154105Y385005D01*
X153342Y385591D01*
X152454Y385959D01*
X151500Y386084D01*
X150546Y385959D01*
X149658Y385591D01*
X148895Y385005D01*
X148309Y384242D01*
X147941Y383354D01*
X147816Y382400D01*
X147941Y381446D01*
X148309Y380558D01*
X148895Y379795D01*
X149658Y379209D01*
X150546Y378841D01*
X151500Y378716D01*
X151972Y378778D01*
X165473Y365277D01*
X165870Y365011D01*
X166339Y364918D01*
X213625D01*
X248205Y330338D01*
Y316370D01*
X248031Y315894D01*
X247298Y315748D01*
X246675Y315333D01*
X246259Y314710D01*
X246113Y313976D01*
X246259Y313242D01*
X246675Y312620D01*
X247298Y312204D01*
X248031Y312058D01*
X248765Y312204D01*
X249388Y312620D01*
X249803Y313242D01*
X249949Y313976D01*
X249918Y314133D01*
X250293Y314508D01*
X250779Y314420D01*
X252050Y313149D01*
X252019Y312992D01*
X252165Y312258D01*
X252581Y311636D01*
X253203Y311220D01*
X253937Y311074D01*
X254671Y311220D01*
X255293Y311636D01*
X255709Y312258D01*
X255855Y312992D01*
X255709Y313726D01*
X255293Y314348D01*
X254671Y314764D01*
X253937Y314910D01*
X253781Y314879D01*
X252352Y316308D01*
Y331549D01*
X252259Y332017D01*
X251993Y332414D01*
X215432Y368975D01*
X215035Y369241D01*
X214567Y369334D01*
X173735D01*
X163903Y379166D01*
X163936Y379665D01*
X164105Y379795D01*
X164691Y380558D01*
X165059Y381446D01*
X165184Y382400D01*
X165059Y383354D01*
X164691Y384242D01*
X164105Y385005D01*
X163342Y385591D01*
X162454Y385959D01*
X161500Y386084D01*
D02*
G37*
G36*
X354831Y357636D02*
Y356012D01*
X356455D01*
X356385Y356363D01*
X355903Y357084D01*
X355182Y357566D01*
X354831Y357636D01*
D02*
G37*
G36*
X353831D02*
X353480Y357566D01*
X352758Y357084D01*
X352276Y356363D01*
X352206Y356012D01*
X353831D01*
Y357636D01*
D02*
G37*
G36*
X341232Y358817D02*
X340881Y358748D01*
X340160Y358265D01*
X339678Y357544D01*
X339608Y357193D01*
X341232D01*
Y358817D01*
D02*
G37*
G36*
X256193Y362098D02*
X254569D01*
X254638Y361747D01*
X255120Y361026D01*
X255842Y360544D01*
X256193Y360474D01*
Y362098D01*
D02*
G37*
G36*
X342232Y358817D02*
Y357193D01*
X343857D01*
X343787Y357544D01*
X343305Y358265D01*
X342583Y358748D01*
X342232Y358817D01*
D02*
G37*
G36*
X147794Y343004D02*
X146169D01*
Y341380D01*
X146520Y341449D01*
X147242Y341931D01*
X147724Y342653D01*
X147794Y343004D01*
D02*
G37*
G36*
X145169D02*
X143545D01*
X143615Y342653D01*
X144097Y341931D01*
X144818Y341449D01*
X145169Y341380D01*
Y343004D01*
D02*
G37*
G36*
X223909Y343660D02*
X223558Y343590D01*
X222837Y343108D01*
X222355Y342387D01*
X222285Y342035D01*
X223909D01*
Y343660D01*
D02*
G37*
G36*
X145169Y345628D02*
X144818Y345559D01*
X144097Y345076D01*
X143615Y344355D01*
X143545Y344004D01*
X145169D01*
Y345628D01*
D02*
G37*
G36*
X224909Y343660D02*
Y342035D01*
X226534D01*
X226464Y342387D01*
X225982Y343108D01*
X225260Y343590D01*
X224909Y343660D01*
D02*
G37*
G36*
X64461Y341436D02*
X62598D01*
X61310Y341267D01*
X60109Y340769D01*
X59077Y339978D01*
X58286Y338947D01*
X57788Y337745D01*
X57685Y336957D01*
X64461D01*
Y341436D01*
D02*
G37*
G36*
X309555Y333817D02*
Y332193D01*
X311179D01*
X311110Y332544D01*
X310628Y333265D01*
X309906Y333748D01*
X309555Y333817D01*
D02*
G37*
G36*
X67323Y341436D02*
X65461D01*
Y336957D01*
X72237D01*
X72133Y337745D01*
X71635Y338947D01*
X70844Y339978D01*
X69813Y340769D01*
X68612Y341267D01*
X67323Y341436D01*
D02*
G37*
G36*
X226534Y341035D02*
X224909D01*
Y339411D01*
X225260Y339481D01*
X225982Y339963D01*
X226464Y340684D01*
X226534Y341035D01*
D02*
G37*
G36*
X223909D02*
X222285D01*
X222355Y340684D01*
X222837Y339963D01*
X223558Y339481D01*
X223909Y339411D01*
Y341035D01*
D02*
G37*
G36*
X146169Y345628D02*
Y344004D01*
X147794D01*
X147724Y344355D01*
X147242Y345076D01*
X146520Y345559D01*
X146169Y345628D01*
D02*
G37*
G36*
X190461Y348581D02*
Y346957D01*
X192085D01*
X192015Y347308D01*
X191533Y348029D01*
X190812Y348511D01*
X190461Y348581D01*
D02*
G37*
G36*
X189461D02*
X189110Y348511D01*
X188388Y348029D01*
X187906Y347308D01*
X187836Y346957D01*
X189461D01*
Y348581D01*
D02*
G37*
G36*
X272153Y349565D02*
Y347941D01*
X273778D01*
X273708Y348292D01*
X273226Y349013D01*
X272505Y349496D01*
X272153Y349565D01*
D02*
G37*
G36*
X271153D02*
X270802Y349496D01*
X270081Y349013D01*
X269599Y348292D01*
X269529Y347941D01*
X271153D01*
Y349565D01*
D02*
G37*
G36*
X288083Y353043D02*
X286458D01*
X286528Y352692D01*
X287010Y351971D01*
X287732Y351489D01*
X288083Y351419D01*
Y353043D01*
D02*
G37*
G36*
X192085Y345957D02*
X190461D01*
Y344332D01*
X190812Y344402D01*
X191533Y344884D01*
X192015Y345606D01*
X192085Y345957D01*
D02*
G37*
G36*
X189461D02*
X187836D01*
X187906Y345606D01*
X188388Y344884D01*
X189110Y344402D01*
X189461Y344332D01*
Y345957D01*
D02*
G37*
G36*
X273778Y346941D02*
X272153D01*
Y345317D01*
X272505Y345386D01*
X273226Y345868D01*
X273708Y346590D01*
X273778Y346941D01*
D02*
G37*
G36*
X271153D02*
X269529D01*
X269599Y346590D01*
X270081Y345868D01*
X270802Y345386D01*
X271153Y345317D01*
Y346941D01*
D02*
G37*
%LPD*%
G36*
X324619Y352785D02*
X324454Y352242D01*
X324069Y352166D01*
X323447Y351750D01*
X323031Y351128D01*
X322885Y350394D01*
X323031Y349660D01*
X323447Y349038D01*
X323580Y348949D01*
Y347232D01*
X323152Y346804D01*
X322541Y346901D01*
X322447Y347042D01*
X315859Y353629D01*
X316051Y354091D01*
X323312D01*
X324619Y352785D01*
D02*
G37*
D29*
X166339Y366142D02*
X214131D01*
X151500Y380980D02*
X166339Y366142D01*
X151500Y380980D02*
Y382400D01*
X173228Y368110D02*
X214567D01*
X161500Y379839D02*
X173228Y368110D01*
X161500Y379839D02*
Y382400D01*
X214567Y368110D02*
X251128Y331549D01*
Y315801D02*
Y331549D01*
Y315801D02*
X253937Y312992D01*
X248031Y313976D02*
X249428Y315373D01*
Y330845D01*
X214131Y366142D02*
X249428Y330845D01*
X334646Y310039D02*
Y349409D01*
X326772Y357283D02*
X334646Y349409D01*
X315283Y357283D02*
X326772D01*
X330709Y306102D02*
X334646Y310039D01*
X299357Y373210D02*
X315283Y357283D01*
X271475Y373210D02*
X299357D01*
X266732Y377953D02*
X271475Y373210D01*
X266732Y377953D02*
Y386811D01*
X265748Y387795D02*
X266732Y386811D01*
X265748Y387795D02*
Y388152D01*
X261500Y392400D02*
X265748Y388152D01*
X323819Y355315D02*
X328740Y350394D01*
X314848Y355315D02*
X323819D01*
X298652Y371510D02*
X314848Y355315D01*
X261274Y371510D02*
X298652D01*
X256890Y375894D02*
X261274Y371510D01*
X256890Y375894D02*
Y388779D01*
X253269Y392400D02*
X256890Y388779D01*
X251500Y392400D02*
X253269D01*
X255790Y368110D02*
X297244D01*
X241500Y382400D02*
X255790Y368110D01*
X260111Y369810D02*
X297948D01*
X251500Y378421D02*
X260111Y369810D01*
X251500Y378421D02*
Y382400D01*
X319882Y340551D02*
Y345472D01*
X314961Y335630D02*
X319882Y340551D01*
X324803Y346725D02*
Y350394D01*
X321582Y343504D02*
X324803Y346725D01*
X321582Y343504D02*
Y346177D01*
Y314245D02*
Y343504D01*
X319882Y301181D02*
Y340551D01*
X297948Y369810D02*
X321582Y346177D01*
Y314245D02*
X323819Y312008D01*
X319882Y301181D02*
X322835Y298228D01*
X297244Y368110D02*
X319882Y345472D01*
D30*
X49213Y213583D02*
Y343504D01*
Y213583D02*
X63976Y198819D01*
X49213Y180118D02*
Y213583D01*
Y343504D02*
X62165Y356457D01*
X63976Y198819D02*
X88583D01*
X56260Y173071D02*
X61024D01*
X49213Y180118D02*
X56260Y173071D01*
X61024D02*
X87598D01*
X62165Y356457D02*
X64961D01*
X88583Y198819D02*
X116142Y171260D01*
X135827Y175197D02*
X149213D01*
X135827D02*
X146653Y186024D01*
X149213Y175197D02*
X155118Y169291D01*
X116142Y171260D02*
X131890D01*
X135827Y175197D01*
X178150Y186024D02*
X210630D01*
X146653D02*
X178150D01*
X187402Y176772D01*
Y169291D02*
Y176772D01*
X210630Y186024D02*
X238189D01*
X210630D02*
X219409Y177244D01*
Y169291D02*
Y177244D01*
X238189Y186024D02*
X260827D01*
X238189D02*
X250984Y173228D01*
Y169291D02*
Y173228D01*
X303150Y174213D02*
X342520Y213583D01*
X272638Y174213D02*
X303150D01*
X260827Y186024D02*
X272638Y174213D01*
X151500Y392400D02*
Y397713D01*
X105315Y408465D02*
X140748D01*
X99410Y402559D02*
X105315Y408465D01*
X99410Y383858D02*
Y402559D01*
Y383858D02*
X103347Y379921D01*
X133858Y339567D02*
Y349409D01*
Y339567D02*
X154528Y318898D01*
X145669Y265748D02*
X154528Y274606D01*
X122047Y361221D02*
X133858Y349409D01*
X128937Y256890D02*
X129921D01*
X138779Y265748D01*
X109252D02*
X138779D01*
X145669D01*
X154528Y314961D02*
X165354Y304134D01*
X171260D01*
X154528Y274606D02*
Y314961D01*
Y318898D01*
X155512Y353346D02*
X161417Y347441D01*
X76772Y379921D02*
X103347D01*
X72040Y384652D02*
X76772Y379921D01*
X72040Y384652D02*
Y392638D01*
X141500Y392400D02*
Y407713D01*
X140748Y408465D02*
X141500Y407713D01*
X151500Y397713D01*
X155512Y353346D02*
X166142D01*
X147638Y361221D02*
X154035Y354823D01*
X103347Y379921D02*
X122047Y361221D01*
X147638D01*
X98242Y254738D02*
X109252Y265748D01*
X169291Y353346D02*
X178150D01*
D31*
X270669Y308071D02*
X282480Y319882D01*
X270669Y308071D02*
X307087D01*
X282480Y319882D02*
X306102Y343504D01*
X282480Y319882D02*
X297244D01*
X306102Y343504D02*
Y346457D01*
X154035Y354823D02*
X155512Y353346D01*
X268701Y306102D02*
X270669Y308071D01*
D32*
X194882Y330345D02*
Y333661D01*
Y330345D02*
X200557Y324670D01*
X211284D01*
X200557D02*
X221457Y303770D01*
X222441Y327756D02*
X227362Y322835D01*
X230315D01*
X221457Y290354D02*
X231299Y280512D01*
X221457Y290354D02*
Y303770D01*
X266369D01*
X268701Y306102D01*
X214567Y327953D02*
X244488D01*
X204331Y328740D02*
Y332283D01*
X196457Y340158D02*
X204331Y332283D01*
X180709Y340158D02*
X196457D01*
X166142Y353346D02*
X167520D01*
X211284Y324670D02*
X214567Y327953D01*
X167520Y353346D02*
X180709Y340158D01*
D34*
X64961Y336457D02*
D03*
Y356457D02*
D03*
D35*
X219409Y169291D02*
D03*
X250984D02*
D03*
X187402Y169291D02*
D03*
X155118Y169291D02*
D03*
D36*
X229410D02*
D03*
X260984D02*
D03*
X197402Y169291D02*
D03*
X165118Y169291D02*
D03*
X87598Y183071D02*
D03*
X61024D02*
D03*
X354331Y329803D02*
D03*
Y295433D02*
D03*
X84041Y402638D02*
D03*
X72040Y402638D02*
D03*
X60039D02*
D03*
D37*
X87598Y173071D02*
D03*
X61024D02*
D03*
X354331Y319803D02*
D03*
Y285433D02*
D03*
X84041Y392638D02*
D03*
X72040Y392638D02*
D03*
X60039D02*
D03*
D38*
X350906Y194441D02*
D03*
Y387354D02*
D03*
X122559Y194441D02*
D03*
Y387354D02*
D03*
D39*
X301500Y382400D02*
D03*
Y392400D02*
D03*
X311500Y382400D02*
D03*
Y392400D02*
D03*
X321500Y382400D02*
D03*
Y392400D02*
D03*
X331500Y382400D02*
D03*
Y392400D02*
D03*
X291500D02*
D03*
Y382400D02*
D03*
X281500Y392400D02*
D03*
Y382400D02*
D03*
X271500Y392400D02*
D03*
Y382400D02*
D03*
X261500Y392400D02*
D03*
Y382400D02*
D03*
X251500Y392400D02*
D03*
Y382400D02*
D03*
X241500Y392400D02*
D03*
Y382400D02*
D03*
X231500Y392400D02*
D03*
Y382400D02*
D03*
X221500Y392400D02*
D03*
Y382400D02*
D03*
X211500Y392400D02*
D03*
Y382400D02*
D03*
X201500Y392400D02*
D03*
Y382400D02*
D03*
X191500Y392400D02*
D03*
Y382400D02*
D03*
X181500Y392400D02*
D03*
Y382400D02*
D03*
X171500Y392400D02*
D03*
Y382400D02*
D03*
X161500Y392400D02*
D03*
Y382400D02*
D03*
X151500Y392400D02*
D03*
Y382400D02*
D03*
X141500Y392400D02*
D03*
D40*
Y382400D02*
D03*
D41*
X281200Y225100D02*
D03*
D42*
X307087Y308071D02*
D03*
X306102Y346457D02*
D03*
X194882Y333661D02*
D03*
X224410Y341535D02*
D03*
X64961Y253937D02*
D03*
X65945Y296260D02*
D03*
X190945Y295276D02*
D03*
X194882D02*
D03*
X140748Y321850D02*
D03*
X180118Y324803D02*
D03*
X161417Y347441D02*
D03*
X128937Y256890D02*
D03*
X98425D02*
D03*
X171260Y304134D02*
D03*
X189961Y346457D02*
D03*
X178150Y353346D02*
D03*
X169291Y352362D02*
D03*
X145669Y343504D02*
D03*
X342520Y213583D02*
D03*
X312992Y218504D02*
D03*
X253937Y312992D02*
D03*
X258858Y315531D02*
D03*
X248031Y313976D02*
D03*
X231299Y299213D02*
D03*
Y280512D02*
D03*
X271654Y347441D02*
D03*
X230315Y322835D02*
D03*
X297244Y319882D02*
D03*
X281496Y290354D02*
D03*
X240158Y312008D02*
D03*
X330709Y306102D02*
D03*
X328740Y350394D02*
D03*
X329724Y323819D02*
D03*
X314961Y335630D02*
D03*
X324803Y350394D02*
D03*
X323819Y312008D02*
D03*
X322835Y298228D02*
D03*
X329724Y287402D02*
D03*
X306102Y299213D02*
D03*
X309055Y331693D02*
D03*
X252953Y231299D02*
D03*
X227362D02*
D03*
X216535Y218504D02*
D03*
X242126D02*
D03*
X246063Y236221D02*
D03*
X219488D02*
D03*
X193898Y237205D02*
D03*
X200787Y231299D02*
D03*
X190945Y217520D02*
D03*
X166339D02*
D03*
X168307Y236221D02*
D03*
X175197Y231299D02*
D03*
X98425Y373031D02*
D03*
X165354Y323819D02*
D03*
X204331Y328740D02*
D03*
X244488Y327953D02*
D03*
X68504Y211024D02*
D03*
X106299Y164173D02*
D03*
X125984Y162992D02*
D03*
X112598Y231890D02*
D03*
X207874Y263386D02*
D03*
X208661Y270472D02*
D03*
X266142Y236221D02*
D03*
X262205Y211024D02*
D03*
X311811Y208661D02*
D03*
X330709Y270866D02*
D03*
X360236Y250394D02*
D03*
X359449Y229921D02*
D03*
X294882Y281496D02*
D03*
X354331Y355512D02*
D03*
X341732Y356693D02*
D03*
X237795Y355118D02*
D03*
X288583Y353543D02*
D03*
X213779Y306299D02*
D03*
X135039Y227953D02*
D03*
X316929Y405118D02*
D03*
X235827Y404331D02*
D03*
X180709Y407480D02*
D03*
X77953Y264961D02*
D03*
X73622Y290945D02*
D03*
X109843Y275197D02*
D03*
X292520Y234646D02*
D03*
X74410Y223622D02*
D03*
X256693Y362598D02*
D03*
X221260Y270472D02*
D03*
M02*
