G04 Layer_Color=65535*
%FSLAX25Y25*%
%MOIN*%
G70*
G01*
G75*
%ADD10C,0.00500*%
%ADD29C,0.01000*%
%ADD43C,0.00984*%
%ADD44C,0.01575*%
%ADD45C,0.02362*%
%ADD46C,0.00787*%
%ADD47C,0.00600*%
%ADD48C,0.00700*%
G36*
X55729Y216040D02*
X55807Y216030D01*
X55895Y216001D01*
X55983Y215972D01*
X56080Y215923D01*
X56158Y215855D01*
X56168Y215845D01*
X56187Y215825D01*
X56227Y215777D01*
X56266Y215728D01*
X56305Y215659D01*
X56344Y215572D01*
X56363Y215484D01*
X56373Y215376D01*
Y215367D01*
Y215328D01*
X56363Y215279D01*
X56344Y215211D01*
X56324Y215132D01*
X56285Y215054D01*
X56227Y214976D01*
X56158Y214898D01*
X56148Y214889D01*
X56119Y214869D01*
X56080Y214840D01*
X56012Y214810D01*
X55934Y214771D01*
X55846Y214742D01*
X55729Y214722D01*
X55612Y214713D01*
X55553D01*
X55495Y214722D01*
X55417Y214732D01*
X55329Y214762D01*
X55241Y214791D01*
X55153Y214840D01*
X55065Y214898D01*
X55055Y214908D01*
X55036Y214928D01*
X54997Y214976D01*
X54958Y215025D01*
X54919Y215093D01*
X54880Y215181D01*
X54860Y215269D01*
X54850Y215376D01*
Y215386D01*
Y215425D01*
X54860Y215484D01*
X54880Y215542D01*
X54899Y215620D01*
X54938Y215699D01*
X54997Y215777D01*
X55065Y215855D01*
X55075Y215864D01*
X55104Y215884D01*
X55153Y215913D01*
X55212Y215952D01*
X55290Y215991D01*
X55387Y216021D01*
X55495Y216040D01*
X55612Y216050D01*
X55670D01*
X55729Y216040D01*
D02*
G37*
G36*
X62707D02*
X62785Y216030D01*
X62873Y216001D01*
X62961Y215972D01*
X63059Y215923D01*
X63137Y215855D01*
X63146Y215845D01*
X63166Y215825D01*
X63205Y215777D01*
X63244Y215728D01*
X63283Y215659D01*
X63322Y215572D01*
X63342Y215484D01*
X63351Y215376D01*
Y215367D01*
Y215328D01*
X63342Y215279D01*
X63322Y215211D01*
X63303Y215132D01*
X63263Y215054D01*
X63205Y214976D01*
X63137Y214898D01*
X63127Y214889D01*
X63098Y214869D01*
X63059Y214840D01*
X62990Y214810D01*
X62912Y214771D01*
X62824Y214742D01*
X62707Y214722D01*
X62590Y214713D01*
X62532D01*
X62473Y214722D01*
X62395Y214732D01*
X62307Y214762D01*
X62219Y214791D01*
X62131Y214840D01*
X62044Y214898D01*
X62034Y214908D01*
X62014Y214928D01*
X61975Y214976D01*
X61936Y215025D01*
X61897Y215093D01*
X61858Y215181D01*
X61839Y215269D01*
X61829Y215376D01*
Y215386D01*
Y215425D01*
X61839Y215484D01*
X61858Y215542D01*
X61878Y215620D01*
X61917Y215699D01*
X61975Y215777D01*
X62044Y215855D01*
X62053Y215864D01*
X62083Y215884D01*
X62131Y215913D01*
X62190Y215952D01*
X62268Y215991D01*
X62366Y216021D01*
X62473Y216040D01*
X62590Y216050D01*
X62649D01*
X62707Y216040D01*
D02*
G37*
G36*
X91880D02*
X91958Y216030D01*
X92046Y216001D01*
X92134Y215972D01*
X92231Y215923D01*
X92309Y215855D01*
X92319Y215845D01*
X92339Y215825D01*
X92378Y215777D01*
X92417Y215728D01*
X92456Y215659D01*
X92495Y215572D01*
X92514Y215484D01*
X92524Y215376D01*
Y215367D01*
Y215328D01*
X92514Y215279D01*
X92495Y215211D01*
X92475Y215132D01*
X92436Y215054D01*
X92378Y214976D01*
X92309Y214898D01*
X92299Y214889D01*
X92270Y214869D01*
X92231Y214840D01*
X92163Y214810D01*
X92085Y214771D01*
X91997Y214742D01*
X91880Y214722D01*
X91763Y214713D01*
X91704D01*
X91646Y214722D01*
X91568Y214732D01*
X91480Y214762D01*
X91392Y214791D01*
X91304Y214840D01*
X91216Y214898D01*
X91206Y214908D01*
X91187Y214928D01*
X91148Y214976D01*
X91109Y215025D01*
X91070Y215093D01*
X91031Y215181D01*
X91011Y215269D01*
X91001Y215376D01*
Y215386D01*
Y215425D01*
X91011Y215484D01*
X91031Y215542D01*
X91050Y215620D01*
X91089Y215699D01*
X91148Y215777D01*
X91216Y215855D01*
X91226Y215864D01*
X91255Y215884D01*
X91304Y215913D01*
X91363Y215952D01*
X91441Y215991D01*
X91538Y216021D01*
X91646Y216040D01*
X91763Y216050D01*
X91821D01*
X91880Y216040D01*
D02*
G37*
G36*
X54021Y209842D02*
X52586D01*
Y211219D01*
X52732Y214049D01*
X51298Y209842D01*
X50351D01*
X48916Y214049D01*
X49063Y211219D01*
Y209842D01*
X47628D01*
Y215757D01*
X49502D01*
X50829Y211638D01*
X52147Y215757D01*
X54021D01*
Y209842D01*
D02*
G37*
G36*
X59828Y214313D02*
X59877D01*
X59945Y214303D01*
X60092Y214274D01*
X60258Y214225D01*
X60433Y214147D01*
X60589Y214039D01*
X60667Y213981D01*
X60736Y213903D01*
X60755Y213883D01*
X60794Y213825D01*
X60843Y213727D01*
X60911Y213600D01*
X60970Y213424D01*
X61028Y213210D01*
X61068Y212966D01*
X61087Y212673D01*
Y209842D01*
X59711D01*
Y212614D01*
Y212634D01*
Y212673D01*
X59701Y212732D01*
X59691Y212800D01*
X59652Y212956D01*
X59623Y213034D01*
X59574Y213102D01*
X59565Y213112D01*
X59545Y213132D01*
X59516Y213151D01*
X59467Y213190D01*
X59399Y213219D01*
X59320Y213239D01*
X59213Y213259D01*
X59096Y213268D01*
X59028D01*
X58959Y213249D01*
X58872Y213229D01*
X58764Y213190D01*
X58667Y213132D01*
X58569Y213054D01*
X58491Y212946D01*
Y209842D01*
X57125D01*
Y214244D01*
X58413D01*
X58452Y213727D01*
X58462Y213737D01*
X58471Y213756D01*
X58501Y213786D01*
X58540Y213825D01*
X58579Y213864D01*
X58637Y213912D01*
X58784Y214030D01*
X58959Y214137D01*
X59174Y214234D01*
X59301Y214264D01*
X59428Y214293D01*
X59565Y214313D01*
X59711Y214322D01*
X59779D01*
X59828Y214313D01*
D02*
G37*
G36*
X85975D02*
X86043Y214303D01*
X86121Y214293D01*
X86307Y214244D01*
X86512Y214176D01*
X86610Y214127D01*
X86717Y214069D01*
X86824Y214000D01*
X86922Y213912D01*
X87019Y213825D01*
X87107Y213717D01*
X87117Y213707D01*
X87127Y213688D01*
X87146Y213659D01*
X87176Y213610D01*
X87215Y213551D01*
X87254Y213473D01*
X87293Y213385D01*
X87332Y213288D01*
X87371Y213180D01*
X87410Y213054D01*
X87449Y212917D01*
X87488Y212771D01*
X87517Y212614D01*
X87537Y212439D01*
X87556Y212263D01*
Y212068D01*
Y212009D01*
Y212000D01*
Y211960D01*
Y211912D01*
X87546Y211843D01*
Y211755D01*
X87537Y211648D01*
X87517Y211541D01*
X87498Y211424D01*
X87449Y211160D01*
X87361Y210887D01*
X87254Y210614D01*
X87176Y210487D01*
X87098Y210370D01*
X87088Y210360D01*
X87078Y210340D01*
X87049Y210311D01*
X87010Y210272D01*
X86971Y210233D01*
X86912Y210174D01*
X86766Y210067D01*
X86590Y209960D01*
X86375Y209862D01*
X86258Y209823D01*
X86131Y209794D01*
X85995Y209774D01*
X85848Y209764D01*
X85790D01*
X85751Y209774D01*
X85633Y209784D01*
X85497Y209823D01*
X85341Y209872D01*
X85175Y209950D01*
X85009Y210057D01*
X84931Y210126D01*
X84853Y210204D01*
Y208154D01*
X83486D01*
Y214244D01*
X84765D01*
X84804Y213834D01*
X84814Y213844D01*
X84823Y213854D01*
X84872Y213912D01*
X84960Y213990D01*
X85087Y214078D01*
X85233Y214166D01*
X85409Y214244D01*
X85614Y214303D01*
X85721Y214313D01*
X85838Y214322D01*
X85917D01*
X85975Y214313D01*
D02*
G37*
G36*
X113477Y224815D02*
X113594Y224801D01*
X113726Y224786D01*
X113872Y224757D01*
X114033Y224728D01*
X114385Y224625D01*
X114575Y224552D01*
X114751Y224464D01*
X114941Y224361D01*
X115117Y224259D01*
X115278Y224113D01*
X115439Y223966D01*
X115453Y223952D01*
X115468Y223922D01*
X115512Y223878D01*
X115571Y223805D01*
X115629Y223717D01*
X115688Y223615D01*
X115761Y223483D01*
X115849Y223337D01*
X115922Y223176D01*
X115995Y223000D01*
X116054Y222795D01*
X116112Y222590D01*
X116171Y222356D01*
X116215Y222107D01*
X116229Y221829D01*
X116244Y221551D01*
Y220760D01*
X112159D01*
Y220731D01*
X112189Y220672D01*
X112218Y220570D01*
X112262Y220438D01*
X112320Y220306D01*
X112394Y220160D01*
X112496Y220013D01*
X112628Y219882D01*
X112643Y219867D01*
X112701Y219838D01*
X112774Y219779D01*
X112891Y219735D01*
X113038Y219677D01*
X113199Y219618D01*
X113389Y219589D01*
X113594Y219574D01*
X113682D01*
X113755Y219589D01*
X113843D01*
X113931Y219603D01*
X114151Y219662D01*
X114399Y219735D01*
X114663Y219852D01*
X114912Y220028D01*
X115029Y220131D01*
X115131Y220248D01*
X116068Y219135D01*
X116054Y219106D01*
X115995Y219047D01*
X115907Y218959D01*
X115790Y218828D01*
X115629Y218696D01*
X115439Y218564D01*
X115219Y218432D01*
X114970Y218301D01*
X114956D01*
X114941Y218286D01*
X114897Y218271D01*
X114853Y218257D01*
X114707Y218198D01*
X114516Y218154D01*
X114297Y218096D01*
X114033Y218037D01*
X113755Y218008D01*
X113462Y217993D01*
X113316D01*
X113214Y218008D01*
X113082Y218022D01*
X112935Y218037D01*
X112760Y218066D01*
X112584Y218110D01*
X112189Y218213D01*
X111984Y218286D01*
X111779Y218374D01*
X111574Y218476D01*
X111383Y218593D01*
X111179Y218725D01*
X111003Y218886D01*
X110988Y218901D01*
X110959Y218930D01*
X110915Y218974D01*
X110856Y219047D01*
X110783Y219135D01*
X110710Y219252D01*
X110622Y219384D01*
X110534Y219516D01*
X110447Y219677D01*
X110359Y219867D01*
X110285Y220057D01*
X110212Y220262D01*
X110154Y220482D01*
X110110Y220731D01*
X110081Y220980D01*
X110066Y221243D01*
Y221419D01*
Y221433D01*
Y221463D01*
Y221521D01*
Y221595D01*
X110081Y221682D01*
Y221785D01*
X110110Y222019D01*
X110154Y222297D01*
X110227Y222605D01*
X110315Y222912D01*
X110432Y223205D01*
Y223220D01*
X110447Y223234D01*
X110476Y223278D01*
X110505Y223337D01*
X110593Y223468D01*
X110710Y223644D01*
X110871Y223834D01*
X111061Y224039D01*
X111281Y224230D01*
X111530Y224405D01*
X111545D01*
X111559Y224420D01*
X111603Y224449D01*
X111662Y224479D01*
X111808Y224537D01*
X112013Y224625D01*
X112262Y224698D01*
X112555Y224771D01*
X112877Y224815D01*
X113243Y224830D01*
X113374D01*
X113477Y224815D01*
D02*
G37*
G36*
X48988Y219750D02*
X52706D01*
Y218110D01*
X46836D01*
Y226982D01*
X48988D01*
Y219750D01*
D02*
G37*
G36*
X56454Y224815D02*
X56571D01*
X56688Y224801D01*
X56981Y224757D01*
X57303Y224684D01*
X57640Y224567D01*
X57962Y224405D01*
X58109Y224318D01*
X58255Y224201D01*
X58270D01*
X58284Y224171D01*
X58372Y224083D01*
X58489Y223952D01*
X58621Y223761D01*
X58753Y223512D01*
X58885Y223234D01*
X58972Y222898D01*
X58987Y222707D01*
X59002Y222517D01*
Y219603D01*
Y219589D01*
Y219560D01*
Y219516D01*
Y219457D01*
X59016Y219281D01*
X59045Y219091D01*
X59075Y218857D01*
X59119Y218623D01*
X59192Y218403D01*
X59280Y218213D01*
Y218110D01*
X57230D01*
Y218125D01*
X57215Y218140D01*
X57186Y218198D01*
X57157Y218257D01*
X57128Y218344D01*
X57098Y218432D01*
X57055Y218564D01*
X57025Y218696D01*
Y218681D01*
X56996Y218667D01*
X56923Y218593D01*
X56791Y218476D01*
X56615Y218344D01*
X56396Y218213D01*
X56117Y218110D01*
X55810Y218022D01*
X55634Y218008D01*
X55444Y217993D01*
X55356D01*
X55283Y218008D01*
X55210D01*
X55107Y218022D01*
X54888Y218066D01*
X54639Y218125D01*
X54375Y218227D01*
X54112Y218359D01*
X53848Y218549D01*
X53819Y218579D01*
X53746Y218652D01*
X53643Y218769D01*
X53526Y218930D01*
X53409Y219135D01*
X53307Y219384D01*
X53233Y219662D01*
X53219Y219809D01*
X53204Y219970D01*
Y219984D01*
Y220013D01*
Y220072D01*
X53219Y220145D01*
X53233Y220233D01*
X53248Y220336D01*
X53307Y220570D01*
X53395Y220833D01*
X53541Y221097D01*
X53629Y221229D01*
X53731Y221360D01*
X53863Y221477D01*
X53995Y221580D01*
X54009D01*
X54039Y221609D01*
X54083Y221638D01*
X54141Y221668D01*
X54229Y221712D01*
X54331Y221756D01*
X54449Y221799D01*
X54580Y221858D01*
X54741Y221917D01*
X54917Y221961D01*
X55107Y222005D01*
X55312Y222048D01*
X55532Y222092D01*
X55781Y222107D01*
X56030Y222136D01*
X56937D01*
Y222488D01*
Y222502D01*
Y222532D01*
Y222575D01*
X56923Y222634D01*
X56893Y222780D01*
X56835Y222956D01*
X56747Y223117D01*
X56601Y223264D01*
X56513Y223322D01*
X56410Y223366D01*
X56293Y223395D01*
X56147Y223410D01*
X56117D01*
X56030Y223395D01*
X55913Y223366D01*
X55781Y223322D01*
X55649Y223234D01*
X55532Y223102D01*
X55488Y223015D01*
X55444Y222927D01*
X55429Y222810D01*
X55415Y222678D01*
X53365D01*
Y222693D01*
Y222722D01*
Y222766D01*
X53380Y222839D01*
X53395Y222912D01*
X53409Y223015D01*
X53468Y223234D01*
X53556Y223468D01*
X53702Y223732D01*
X53804Y223864D01*
X53907Y223995D01*
X54024Y224113D01*
X54170Y224230D01*
X54185D01*
X54214Y224259D01*
X54258Y224288D01*
X54317Y224318D01*
X54405Y224376D01*
X54492Y224420D01*
X54610Y224479D01*
X54741Y224537D01*
X54888Y224581D01*
X55034Y224640D01*
X55400Y224742D01*
X55795Y224801D01*
X56249Y224830D01*
X56366D01*
X56454Y224815D01*
D02*
G37*
G36*
X62208Y224186D02*
X62237Y224201D01*
X62310Y224274D01*
X62442Y224376D01*
X62603Y224508D01*
X62823Y224625D01*
X63072Y224728D01*
X63364Y224801D01*
X63525Y224830D01*
X63803D01*
X63891Y224815D01*
X63994Y224801D01*
X64111Y224786D01*
X64389Y224713D01*
X64697Y224610D01*
X64843Y224537D01*
X65004Y224449D01*
X65165Y224347D01*
X65311Y224230D01*
X65458Y224098D01*
X65590Y223937D01*
X65604Y223922D01*
X65619Y223893D01*
X65648Y223849D01*
X65692Y223776D01*
X65751Y223688D01*
X65809Y223571D01*
X65868Y223439D01*
X65926Y223293D01*
X65985Y223132D01*
X66043Y222941D01*
X66102Y222737D01*
X66161Y222517D01*
X66205Y222283D01*
X66234Y222019D01*
X66263Y221741D01*
Y221448D01*
Y221346D01*
Y221331D01*
Y221272D01*
Y221185D01*
X66248Y221082D01*
Y220950D01*
X66234Y220789D01*
X66205Y220614D01*
X66175Y220438D01*
X66102Y220028D01*
X65985Y219618D01*
X65809Y219223D01*
X65707Y219033D01*
X65590Y218857D01*
X65575Y218842D01*
X65560Y218813D01*
X65516Y218784D01*
X65473Y218725D01*
X65399Y218652D01*
X65311Y218579D01*
X65106Y218432D01*
X64828Y218271D01*
X64506Y218125D01*
X64331Y218066D01*
X64126Y218037D01*
X63921Y218008D01*
X63701Y217993D01*
X63599D01*
X63540Y218008D01*
X63452Y218022D01*
X63350Y218037D01*
X63115Y218096D01*
X62866Y218183D01*
X62588Y218330D01*
X62457Y218418D01*
X62325Y218520D01*
X62193Y218652D01*
X62076Y218784D01*
X62003Y218110D01*
X60158D01*
Y227480D01*
X62208D01*
Y224186D01*
D02*
G37*
G36*
X78253Y224815D02*
X78370Y224801D01*
X78502Y224786D01*
X78649Y224757D01*
X78809Y224728D01*
X79161Y224625D01*
X79351Y224552D01*
X79527Y224464D01*
X79717Y224361D01*
X79893Y224259D01*
X80054Y224113D01*
X80215Y223966D01*
X80230Y223952D01*
X80244Y223922D01*
X80288Y223878D01*
X80347Y223805D01*
X80405Y223717D01*
X80464Y223615D01*
X80537Y223483D01*
X80625Y223337D01*
X80698Y223176D01*
X80771Y223000D01*
X80830Y222795D01*
X80888Y222590D01*
X80947Y222356D01*
X80991Y222107D01*
X81006Y221829D01*
X81020Y221551D01*
Y220760D01*
X76936D01*
Y220731D01*
X76965Y220672D01*
X76994Y220570D01*
X77038Y220438D01*
X77097Y220306D01*
X77170Y220160D01*
X77272Y220013D01*
X77404Y219882D01*
X77419Y219867D01*
X77477Y219838D01*
X77551Y219779D01*
X77668Y219735D01*
X77814Y219677D01*
X77975Y219618D01*
X78165Y219589D01*
X78370Y219574D01*
X78458D01*
X78531Y219589D01*
X78619D01*
X78707Y219603D01*
X78927Y219662D01*
X79176Y219735D01*
X79439Y219852D01*
X79688Y220028D01*
X79805Y220131D01*
X79908Y220248D01*
X80844Y219135D01*
X80830Y219106D01*
X80771Y219047D01*
X80683Y218959D01*
X80566Y218828D01*
X80405Y218696D01*
X80215Y218564D01*
X79995Y218432D01*
X79747Y218301D01*
X79732D01*
X79717Y218286D01*
X79673Y218271D01*
X79629Y218257D01*
X79483Y218198D01*
X79293Y218154D01*
X79073Y218096D01*
X78809Y218037D01*
X78531Y218008D01*
X78238Y217993D01*
X78092D01*
X77990Y218008D01*
X77858Y218022D01*
X77711Y218037D01*
X77536Y218066D01*
X77360Y218110D01*
X76965Y218213D01*
X76760Y218286D01*
X76555Y218374D01*
X76350Y218476D01*
X76160Y218593D01*
X75955Y218725D01*
X75779Y218886D01*
X75764Y218901D01*
X75735Y218930D01*
X75691Y218974D01*
X75633Y219047D01*
X75559Y219135D01*
X75486Y219252D01*
X75398Y219384D01*
X75311Y219516D01*
X75223Y219677D01*
X75135Y219867D01*
X75062Y220057D01*
X74989Y220262D01*
X74930Y220482D01*
X74886Y220731D01*
X74857Y220980D01*
X74842Y221243D01*
Y221419D01*
Y221433D01*
Y221463D01*
Y221521D01*
Y221595D01*
X74857Y221682D01*
Y221785D01*
X74886Y222019D01*
X74930Y222297D01*
X75003Y222605D01*
X75091Y222912D01*
X75208Y223205D01*
Y223220D01*
X75223Y223234D01*
X75252Y223278D01*
X75281Y223337D01*
X75369Y223468D01*
X75486Y223644D01*
X75647Y223834D01*
X75838Y224039D01*
X76057Y224230D01*
X76306Y224405D01*
X76321D01*
X76335Y224420D01*
X76379Y224449D01*
X76438Y224479D01*
X76584Y224537D01*
X76789Y224625D01*
X77038Y224698D01*
X77331Y224771D01*
X77653Y224815D01*
X78019Y224830D01*
X78151D01*
X78253Y224815D01*
D02*
G37*
G36*
X100579Y224186D02*
X100609Y224201D01*
X100682Y224274D01*
X100813Y224376D01*
X100975Y224508D01*
X101194Y224625D01*
X101443Y224728D01*
X101736Y224801D01*
X101897Y224830D01*
X102175D01*
X102263Y224815D01*
X102365Y224801D01*
X102482Y224786D01*
X102761Y224713D01*
X103068Y224610D01*
X103214Y224537D01*
X103375Y224449D01*
X103536Y224347D01*
X103683Y224230D01*
X103829Y224098D01*
X103961Y223937D01*
X103976Y223922D01*
X103990Y223893D01*
X104020Y223849D01*
X104063Y223776D01*
X104122Y223688D01*
X104181Y223571D01*
X104239Y223439D01*
X104298Y223293D01*
X104356Y223132D01*
X104415Y222941D01*
X104473Y222737D01*
X104532Y222517D01*
X104576Y222283D01*
X104605Y222019D01*
X104634Y221741D01*
Y221448D01*
Y221346D01*
Y221331D01*
Y221272D01*
Y221185D01*
X104620Y221082D01*
Y220950D01*
X104605Y220789D01*
X104576Y220614D01*
X104547Y220438D01*
X104473Y220028D01*
X104356Y219618D01*
X104181Y219223D01*
X104078Y219033D01*
X103961Y218857D01*
X103946Y218842D01*
X103932Y218813D01*
X103888Y218784D01*
X103844Y218725D01*
X103771Y218652D01*
X103683Y218579D01*
X103478Y218432D01*
X103200Y218271D01*
X102878Y218125D01*
X102702Y218066D01*
X102497Y218037D01*
X102292Y218008D01*
X102073Y217993D01*
X101970D01*
X101911Y218008D01*
X101824Y218022D01*
X101721Y218037D01*
X101487Y218096D01*
X101238Y218183D01*
X100960Y218330D01*
X100828Y218418D01*
X100696Y218520D01*
X100565Y218652D01*
X100447Y218784D01*
X100374Y218110D01*
X98530D01*
Y227480D01*
X100579D01*
Y224186D01*
D02*
G37*
G36*
X106666Y211160D02*
X106735Y211150D01*
X106822Y211121D01*
X106910Y211092D01*
X106998Y211043D01*
X107086Y210975D01*
X107096Y210965D01*
X107115Y210936D01*
X107154Y210897D01*
X107193Y210838D01*
X107232Y210770D01*
X107271Y210682D01*
X107291Y210584D01*
X107301Y210477D01*
Y210467D01*
Y210428D01*
X107291Y210370D01*
X107271Y210301D01*
X107252Y210223D01*
X107213Y210135D01*
X107154Y210057D01*
X107086Y209979D01*
X107076Y209969D01*
X107047Y209950D01*
X106998Y209921D01*
X106940Y209891D01*
X106861Y209852D01*
X106774Y209823D01*
X106666Y209804D01*
X106549Y209794D01*
X106491D01*
X106432Y209804D01*
X106354Y209823D01*
X106266Y209842D01*
X106178Y209872D01*
X106090Y209921D01*
X106003Y209989D01*
X105993Y209999D01*
X105973Y210028D01*
X105934Y210067D01*
X105895Y210126D01*
X105856Y210194D01*
X105817Y210282D01*
X105798Y210370D01*
X105788Y210477D01*
Y210487D01*
Y210526D01*
X105798Y210584D01*
X105817Y210653D01*
X105837Y210721D01*
X105876Y210809D01*
X105934Y210887D01*
X106003Y210965D01*
X106012Y210975D01*
X106042Y210994D01*
X106090Y211033D01*
X106149Y211072D01*
X106227Y211102D01*
X106325Y211141D01*
X106432Y211160D01*
X106549Y211170D01*
X106608D01*
X106666Y211160D01*
D02*
G37*
G36*
X56314Y209842D02*
X54938D01*
Y214244D01*
X56314D01*
Y209842D01*
D02*
G37*
G36*
X63293D02*
X61917D01*
Y214244D01*
X63293D01*
Y209842D01*
D02*
G37*
G36*
X80344Y215835D02*
X80412D01*
X80490Y215825D01*
X80666Y215796D01*
X80871Y215757D01*
X81095Y215689D01*
X81329Y215601D01*
X81554Y215484D01*
X81564D01*
X81583Y215464D01*
X81612Y215445D01*
X81651Y215416D01*
X81759Y215337D01*
X81886Y215220D01*
X82032Y215074D01*
X82188Y214898D01*
X82335Y214693D01*
X82462Y214459D01*
Y214449D01*
X82471Y214430D01*
X82491Y214391D01*
X82510Y214342D01*
X82539Y214283D01*
X82569Y214205D01*
X82598Y214117D01*
X82627Y214030D01*
X82657Y213922D01*
X82696Y213805D01*
X82744Y213542D01*
X82784Y213259D01*
X82803Y212946D01*
Y212683D01*
Y212673D01*
Y212644D01*
Y212595D01*
Y212536D01*
X82793Y212458D01*
X82784Y212370D01*
X82774Y212273D01*
X82764Y212165D01*
X82725Y211921D01*
X82666Y211668D01*
X82588Y211404D01*
X82481Y211141D01*
Y211131D01*
X82462Y211111D01*
X82452Y211082D01*
X82422Y211033D01*
X82393Y210975D01*
X82344Y210916D01*
X82247Y210760D01*
X82120Y210604D01*
X81954Y210428D01*
X81778Y210262D01*
X81564Y210116D01*
X81554D01*
X81534Y210096D01*
X81505Y210086D01*
X81456Y210057D01*
X81407Y210038D01*
X81339Y210008D01*
X81261Y209969D01*
X81173Y209940D01*
X80978Y209872D01*
X80753Y209823D01*
X80490Y209784D01*
X80217Y209764D01*
X80148D01*
X80090Y209774D01*
X80022D01*
X79953Y209784D01*
X79768Y209804D01*
X79563Y209852D01*
X79338Y209911D01*
X79104Y209989D01*
X78879Y210106D01*
X78870D01*
X78850Y210126D01*
X78821Y210145D01*
X78782Y210174D01*
X78675Y210252D01*
X78548Y210360D01*
X78401Y210506D01*
X78245Y210672D01*
X78099Y210877D01*
X77962Y211102D01*
Y211111D01*
X77952Y211131D01*
X77933Y211170D01*
X77913Y211219D01*
X77884Y211277D01*
X77855Y211346D01*
X77825Y211433D01*
X77796Y211531D01*
X77767Y211629D01*
X77738Y211746D01*
X77679Y212000D01*
X77640Y212282D01*
X77621Y212585D01*
Y212917D01*
Y212927D01*
Y212956D01*
Y213005D01*
X77630Y213063D01*
Y213141D01*
X77640Y213229D01*
X77650Y213327D01*
X77660Y213434D01*
X77699Y213668D01*
X77757Y213932D01*
X77835Y214195D01*
X77943Y214449D01*
Y214459D01*
X77962Y214478D01*
X77972Y214518D01*
X78001Y214557D01*
X78040Y214615D01*
X78079Y214674D01*
X78177Y214830D01*
X78304Y214996D01*
X78470Y215162D01*
X78645Y215328D01*
X78860Y215474D01*
X78870D01*
X78889Y215494D01*
X78919Y215513D01*
X78967Y215533D01*
X79026Y215562D01*
X79084Y215591D01*
X79163Y215620D01*
X79250Y215659D01*
X79455Y215728D01*
X79680Y215786D01*
X79943Y215825D01*
X80217Y215845D01*
X80295D01*
X80344Y215835D01*
D02*
G37*
G36*
X89752Y214244D02*
X90484D01*
Y213298D01*
X89752D01*
Y211258D01*
Y211248D01*
Y211219D01*
X89762Y211180D01*
Y211121D01*
X89791Y211014D01*
X89811Y210955D01*
X89840Y210916D01*
X89850D01*
X89860Y210897D01*
X89889Y210887D01*
X89918Y210867D01*
X89967Y210848D01*
X90035Y210838D01*
X90113Y210819D01*
X90318D01*
X90435Y210828D01*
X90543Y210838D01*
Y209872D01*
X90523D01*
X90474Y209852D01*
X90406Y209842D01*
X90308Y209823D01*
X90191Y209804D01*
X90065Y209784D01*
X89918Y209774D01*
X89772Y209764D01*
X89703D01*
X89655Y209774D01*
X89596D01*
X89528Y209784D01*
X89372Y209804D01*
X89206Y209842D01*
X89030Y209901D01*
X88864Y209989D01*
X88718Y210096D01*
X88708Y210116D01*
X88669Y210155D01*
X88610Y210233D01*
X88552Y210350D01*
X88493Y210487D01*
X88435Y210662D01*
X88396Y210867D01*
X88386Y211111D01*
Y213298D01*
X87830D01*
Y214244D01*
X88386D01*
Y215337D01*
X89752D01*
Y214244D01*
D02*
G37*
G36*
X110404Y215835D02*
X110482Y215825D01*
X110580Y215806D01*
X110687Y215786D01*
X110795Y215767D01*
X111048Y215679D01*
X111166Y215630D01*
X111293Y215562D01*
X111419Y215494D01*
X111546Y215396D01*
X111654Y215298D01*
X111761Y215181D01*
X111771Y215172D01*
X111781Y215152D01*
X111810Y215113D01*
X111849Y215064D01*
X111888Y214996D01*
X111937Y214908D01*
X111986Y214820D01*
X112034Y214703D01*
X112083Y214586D01*
X112132Y214440D01*
X112181Y214293D01*
X112220Y214127D01*
X112259Y213951D01*
X112288Y213756D01*
X112298Y213551D01*
X112308Y213337D01*
Y212263D01*
Y212253D01*
Y212214D01*
Y212146D01*
X112298Y212068D01*
X112288Y211960D01*
X112278Y211853D01*
X112259Y211716D01*
X112239Y211580D01*
X112171Y211287D01*
X112073Y210975D01*
X112015Y210819D01*
X111946Y210672D01*
X111859Y210536D01*
X111761Y210409D01*
X111751Y210399D01*
X111732Y210379D01*
X111702Y210350D01*
X111663Y210311D01*
X111605Y210262D01*
X111537Y210204D01*
X111458Y210145D01*
X111371Y210086D01*
X111273Y210028D01*
X111156Y209969D01*
X111029Y209911D01*
X110892Y209862D01*
X110746Y209823D01*
X110590Y209794D01*
X110424Y209774D01*
X110248Y209764D01*
X110151D01*
X110082Y209774D01*
X110004Y209784D01*
X109907Y209804D01*
X109799Y209823D01*
X109692Y209842D01*
X109438Y209921D01*
X109311Y209979D01*
X109184Y210038D01*
X109057Y210116D01*
X108940Y210204D01*
X108823Y210301D01*
X108716Y210418D01*
X108706Y210428D01*
X108696Y210448D01*
X108667Y210487D01*
X108628Y210536D01*
X108589Y210604D01*
X108550Y210692D01*
X108501Y210780D01*
X108452Y210897D01*
X108394Y211014D01*
X108345Y211160D01*
X108306Y211307D01*
X108267Y211472D01*
X108228Y211648D01*
X108199Y211843D01*
X108189Y212048D01*
X108179Y212263D01*
Y213337D01*
Y213346D01*
Y213385D01*
Y213454D01*
X108189Y213532D01*
X108199Y213639D01*
X108208Y213747D01*
X108228Y213883D01*
X108247Y214020D01*
X108306Y214313D01*
X108404Y214625D01*
X108472Y214781D01*
X108540Y214928D01*
X108618Y215064D01*
X108716Y215191D01*
X108726Y215201D01*
X108745Y215220D01*
X108774Y215250D01*
X108814Y215298D01*
X108872Y215347D01*
X108940Y215396D01*
X109018Y215455D01*
X109106Y215523D01*
X109214Y215581D01*
X109321Y215640D01*
X109448Y215689D01*
X109584Y215747D01*
X109731Y215786D01*
X109887Y215816D01*
X110063Y215835D01*
X110238Y215845D01*
X110336D01*
X110404Y215835D01*
D02*
G37*
G36*
X103894Y209842D02*
X102518D01*
Y214195D01*
X101171Y213805D01*
Y214859D01*
X103768Y215757D01*
X103894D01*
Y209842D01*
D02*
G37*
G36*
X76976D02*
X75688D01*
X75649Y210321D01*
Y210311D01*
X75630Y210301D01*
X75600Y210272D01*
X75571Y210233D01*
X75473Y210145D01*
X75346Y210048D01*
X75171Y209940D01*
X74976Y209852D01*
X74858Y209813D01*
X74741Y209784D01*
X74614Y209774D01*
X74478Y209764D01*
X74410D01*
X74361Y209774D01*
X74302D01*
X74234Y209784D01*
X74068Y209813D01*
X73892Y209872D01*
X73716Y209940D01*
X73541Y210048D01*
X73463Y210106D01*
X73385Y210184D01*
Y210194D01*
X73365Y210204D01*
X73326Y210262D01*
X73268Y210360D01*
X73199Y210496D01*
X73131Y210662D01*
X73072Y210867D01*
X73033Y211111D01*
X73014Y211394D01*
Y214244D01*
X74380D01*
Y211375D01*
Y211365D01*
Y211355D01*
Y211326D01*
X74390Y211287D01*
X74410Y211199D01*
X74449Y211102D01*
X74517Y210994D01*
X74614Y210906D01*
X74673Y210867D01*
X74751Y210838D01*
X74829Y210828D01*
X74927Y210819D01*
X74946D01*
X75005Y210828D01*
X75083Y210838D01*
X75190Y210858D01*
X75298Y210897D01*
X75405Y210955D01*
X75512Y211043D01*
X75600Y211150D01*
Y214244D01*
X76976D01*
Y209842D01*
D02*
G37*
G36*
X98517D02*
X96955D01*
X94984Y215757D01*
X96565D01*
X97736Y211443D01*
X98917Y215757D01*
X100508D01*
X98517Y209842D01*
D02*
G37*
G36*
X70222Y214654D02*
X67695D01*
Y213298D01*
X69988D01*
Y212204D01*
X67695D01*
Y209842D01*
X66260D01*
Y215757D01*
X70222D01*
Y214654D01*
D02*
G37*
G36*
X72194Y209842D02*
X70818D01*
Y216089D01*
X72194D01*
Y209842D01*
D02*
G37*
G36*
X92466D02*
X91089D01*
Y214244D01*
X92466D01*
Y209842D01*
D02*
G37*
G36*
X74227Y225328D02*
X71563D01*
Y218110D01*
X69425D01*
Y225328D01*
X66819D01*
Y226982D01*
X74227D01*
Y225328D01*
D02*
G37*
G36*
X96377Y227407D02*
X96495Y227392D01*
X96626Y227348D01*
X96758Y227304D01*
X96904Y227231D01*
X97022Y227129D01*
X97036Y227114D01*
X97066Y227085D01*
X97124Y227011D01*
X97183Y226938D01*
X97241Y226836D01*
X97300Y226704D01*
X97329Y226572D01*
X97344Y226411D01*
Y226396D01*
Y226338D01*
X97329Y226265D01*
X97300Y226162D01*
X97271Y226045D01*
X97212Y225928D01*
X97124Y225811D01*
X97022Y225694D01*
X97007Y225679D01*
X96963Y225650D01*
X96904Y225606D01*
X96802Y225562D01*
X96685Y225503D01*
X96553Y225460D01*
X96377Y225430D01*
X96202Y225416D01*
X96114D01*
X96026Y225430D01*
X95909Y225445D01*
X95777Y225489D01*
X95645Y225533D01*
X95514Y225606D01*
X95382Y225694D01*
X95367Y225708D01*
X95338Y225738D01*
X95280Y225811D01*
X95221Y225884D01*
X95162Y225987D01*
X95104Y226118D01*
X95074Y226250D01*
X95060Y226411D01*
Y226426D01*
Y226484D01*
X95074Y226572D01*
X95104Y226660D01*
X95133Y226777D01*
X95192Y226894D01*
X95280Y227011D01*
X95382Y227129D01*
X95397Y227143D01*
X95441Y227172D01*
X95514Y227216D01*
X95602Y227275D01*
X95719Y227333D01*
X95865Y227377D01*
X96026Y227407D01*
X96202Y227421D01*
X96290D01*
X96377Y227407D01*
D02*
G37*
G36*
X109187Y224815D02*
X109378Y224801D01*
X109568Y224757D01*
X109524Y222839D01*
X108851Y222898D01*
X108763D01*
X108690Y222883D01*
X108529Y222868D01*
X108338Y222824D01*
X108119Y222751D01*
X107914Y222634D01*
X107738Y222488D01*
X107665Y222385D01*
X107606Y222283D01*
Y218110D01*
X105557D01*
Y224713D01*
X107475D01*
X107548Y223864D01*
Y223878D01*
X107577Y223908D01*
X107606Y223952D01*
X107650Y224010D01*
X107753Y224171D01*
X107929Y224347D01*
X108133Y224523D01*
X108382Y224684D01*
X108514Y224742D01*
X108660Y224786D01*
X108821Y224815D01*
X108997Y224830D01*
X109114D01*
X109187Y224815D01*
D02*
G37*
G36*
X84870D02*
X84973D01*
X85105Y224786D01*
X85397Y224742D01*
X85720Y224654D01*
X86056Y224523D01*
X86232Y224449D01*
X86393Y224347D01*
X86554Y224244D01*
X86700Y224113D01*
X86715Y224098D01*
X86730Y224083D01*
X86774Y224039D01*
X86818Y223981D01*
X86876Y223908D01*
X86935Y223820D01*
X87008Y223717D01*
X87081Y223600D01*
X87227Y223322D01*
X87345Y223000D01*
X87432Y222619D01*
X87447Y222400D01*
X87462Y222180D01*
X85529D01*
Y222209D01*
Y222268D01*
X85515Y222356D01*
X85500Y222473D01*
X85471Y222605D01*
X85427Y222737D01*
X85368Y222854D01*
X85280Y222971D01*
X85266Y222985D01*
X85237Y223015D01*
X85178Y223059D01*
X85105Y223117D01*
X85002Y223161D01*
X84885Y223205D01*
X84753Y223234D01*
X84607Y223249D01*
X84578D01*
X84475Y223234D01*
X84343Y223190D01*
X84197Y223117D01*
X84109Y223073D01*
X84036Y223000D01*
X83948Y222912D01*
X83875Y222824D01*
X83816Y222693D01*
X83758Y222561D01*
X83699Y222400D01*
X83670Y222224D01*
Y222209D01*
Y222165D01*
X83655Y222092D01*
Y221990D01*
X83641Y221858D01*
Y221712D01*
X83626Y221536D01*
Y221331D01*
Y221316D01*
Y221287D01*
Y221243D01*
Y221170D01*
X83641Y220994D01*
X83655Y220789D01*
X83685Y220555D01*
X83728Y220336D01*
X83787Y220131D01*
X83860Y219955D01*
X83875Y219940D01*
X83904Y219896D01*
X83963Y219838D01*
X84051Y219765D01*
X84153Y219691D01*
X84285Y219633D01*
X84446Y219589D01*
X84622Y219574D01*
X84695D01*
X84768Y219589D01*
X84870Y219603D01*
X84973Y219633D01*
X85090Y219677D01*
X85193Y219735D01*
X85295Y219809D01*
X85310Y219823D01*
X85339Y219852D01*
X85368Y219911D01*
X85412Y219984D01*
X85456Y220072D01*
X85500Y220175D01*
X85515Y220306D01*
X85529Y220453D01*
X87462D01*
Y220438D01*
Y220409D01*
Y220350D01*
X87447Y220277D01*
X87432Y220175D01*
X87418Y220072D01*
X87359Y219823D01*
X87271Y219545D01*
X87125Y219252D01*
X87037Y219106D01*
X86935Y218959D01*
X86818Y218813D01*
X86671Y218681D01*
X86657D01*
X86642Y218652D01*
X86598Y218623D01*
X86525Y218579D01*
X86452Y218520D01*
X86364Y218462D01*
X86261Y218403D01*
X86129Y218344D01*
X85851Y218213D01*
X85500Y218096D01*
X85119Y218022D01*
X84900Y218008D01*
X84680Y217993D01*
X84548D01*
X84446Y218008D01*
X84314Y218022D01*
X84182Y218037D01*
X84021Y218066D01*
X83846Y218110D01*
X83480Y218213D01*
X83289Y218286D01*
X83099Y218374D01*
X82923Y218476D01*
X82733Y218593D01*
X82557Y218725D01*
X82396Y218886D01*
X82382Y218901D01*
X82367Y218930D01*
X82323Y218974D01*
X82265Y219047D01*
X82206Y219150D01*
X82133Y219252D01*
X82060Y219384D01*
X81986Y219545D01*
X81913Y219706D01*
X81840Y219896D01*
X81767Y220101D01*
X81708Y220321D01*
X81650Y220570D01*
X81606Y220819D01*
X81591Y221097D01*
X81577Y221390D01*
Y221477D01*
Y221492D01*
Y221521D01*
Y221580D01*
Y221638D01*
X81591Y221726D01*
Y221829D01*
X81620Y222078D01*
X81664Y222341D01*
X81738Y222634D01*
X81825Y222941D01*
X81942Y223234D01*
Y223249D01*
X81957Y223264D01*
X82016Y223366D01*
X82089Y223498D01*
X82206Y223673D01*
X82367Y223849D01*
X82543Y224054D01*
X82748Y224244D01*
X82997Y224405D01*
X83011D01*
X83026Y224420D01*
X83070Y224449D01*
X83128Y224479D01*
X83275Y224537D01*
X83465Y224625D01*
X83714Y224698D01*
X83992Y224771D01*
X84314Y224815D01*
X84651Y224830D01*
X84768D01*
X84870Y224815D01*
D02*
G37*
G36*
X326456Y174057D02*
X326883D01*
Y173951D01*
X327096D01*
Y173844D01*
X327309D01*
Y173738D01*
X327415D01*
Y173631D01*
X327628D01*
Y173524D01*
X327735D01*
Y173418D01*
X327841D01*
Y173311D01*
X327948D01*
Y173205D01*
Y173098D01*
X328055D01*
Y172992D01*
Y172885D01*
X328161D01*
Y172779D01*
Y172672D01*
X328268D01*
Y172565D01*
Y172459D01*
Y172352D01*
Y172246D01*
X328374D01*
Y172139D01*
Y172033D01*
Y171926D01*
Y171820D01*
Y171713D01*
Y171607D01*
Y171500D01*
Y171393D01*
Y171287D01*
Y171180D01*
Y171074D01*
Y170967D01*
Y170861D01*
Y170754D01*
Y170648D01*
Y170541D01*
Y170434D01*
Y170328D01*
Y170221D01*
Y170115D01*
Y170008D01*
Y169902D01*
Y169795D01*
Y169688D01*
Y169582D01*
Y169475D01*
Y169369D01*
Y169262D01*
Y169156D01*
Y169049D01*
Y168943D01*
Y168836D01*
Y168729D01*
Y168623D01*
Y168516D01*
Y168410D01*
Y168303D01*
Y168197D01*
Y168090D01*
Y167984D01*
Y167877D01*
Y167771D01*
Y167664D01*
Y167557D01*
Y167451D01*
Y167344D01*
Y167238D01*
Y167131D01*
Y167025D01*
X327096D01*
Y167131D01*
Y167238D01*
X327202D01*
Y167344D01*
Y167451D01*
X326989D01*
Y167344D01*
X326776D01*
Y167238D01*
X326669D01*
Y167131D01*
X326456D01*
Y167025D01*
X326137D01*
Y166918D01*
X324432D01*
Y167025D01*
X324006D01*
Y167131D01*
X323686D01*
Y167238D01*
X323579D01*
Y167344D01*
X323366D01*
Y167451D01*
X323260D01*
Y167557D01*
X323153D01*
Y167664D01*
X323046D01*
Y167771D01*
Y167877D01*
X322940D01*
Y167984D01*
Y168090D01*
Y168197D01*
X322833D01*
Y168303D01*
Y168410D01*
Y168516D01*
Y168623D01*
X322727D01*
Y168729D01*
Y168836D01*
Y168943D01*
Y169049D01*
Y169156D01*
Y169262D01*
Y169369D01*
Y169475D01*
Y169582D01*
X322833D01*
Y169688D01*
Y169795D01*
Y169902D01*
Y170008D01*
X322940D01*
Y170115D01*
Y170221D01*
X323046D01*
Y170328D01*
Y170434D01*
X323153D01*
Y170541D01*
X323260D01*
Y170648D01*
X323366D01*
Y170754D01*
X323579D01*
Y170861D01*
X323792D01*
Y170967D01*
X324112D01*
Y171074D01*
X324858D01*
Y171180D01*
X327202D01*
Y171287D01*
Y171393D01*
Y171500D01*
Y171607D01*
Y171713D01*
Y171820D01*
Y171926D01*
X327096D01*
Y172033D01*
Y172139D01*
Y172246D01*
Y172352D01*
X326989D01*
Y172459D01*
X326883D01*
Y172565D01*
X326776D01*
Y172672D01*
X326669D01*
Y172779D01*
X326563D01*
Y172885D01*
X326350D01*
Y172992D01*
X326030D01*
Y173098D01*
X325178D01*
Y172992D01*
X324751D01*
Y172885D01*
X324538D01*
Y172779D01*
X324219D01*
Y172672D01*
X324112D01*
Y172565D01*
X324006D01*
Y172672D01*
X323792D01*
Y172779D01*
X323686D01*
Y172885D01*
X323473D01*
Y172992D01*
X323366D01*
Y173098D01*
X323260D01*
Y173205D01*
X323153D01*
Y173311D01*
X323260D01*
Y173418D01*
X323366D01*
Y173524D01*
X323473D01*
Y173631D01*
X323686D01*
Y173738D01*
X323792D01*
Y173844D01*
X324112D01*
Y173951D01*
X324325D01*
Y174057D01*
X324751D01*
Y174164D01*
X326456D01*
Y174057D01*
D02*
G37*
G36*
X316333Y176828D02*
Y176721D01*
Y176615D01*
Y176508D01*
Y176401D01*
Y176295D01*
Y176188D01*
Y176082D01*
Y175975D01*
Y175869D01*
Y175762D01*
Y175656D01*
Y175549D01*
Y175443D01*
Y175336D01*
Y175229D01*
Y175123D01*
Y175016D01*
Y174910D01*
Y174803D01*
Y174697D01*
Y174590D01*
Y174484D01*
Y174377D01*
Y174270D01*
Y174164D01*
Y174057D01*
Y173951D01*
Y173844D01*
Y173738D01*
Y173631D01*
Y173524D01*
Y173418D01*
Y173311D01*
Y173205D01*
Y173098D01*
Y172992D01*
Y172885D01*
Y172779D01*
Y172672D01*
Y172565D01*
Y172459D01*
Y172352D01*
Y172246D01*
Y172139D01*
Y172033D01*
Y171926D01*
Y171820D01*
Y171713D01*
Y171607D01*
Y171500D01*
Y171393D01*
Y171287D01*
Y171180D01*
Y171074D01*
Y170967D01*
Y170861D01*
Y170754D01*
Y170648D01*
Y170541D01*
Y170434D01*
Y170328D01*
Y170221D01*
Y170115D01*
Y170008D01*
Y169902D01*
Y169795D01*
Y169688D01*
Y169582D01*
Y169475D01*
Y169369D01*
Y169262D01*
Y169156D01*
Y169049D01*
Y168943D01*
Y168836D01*
Y168729D01*
Y168623D01*
Y168516D01*
Y168410D01*
Y168303D01*
Y168197D01*
X321448D01*
Y168090D01*
Y167984D01*
Y167877D01*
Y167771D01*
Y167664D01*
Y167557D01*
Y167451D01*
Y167344D01*
Y167238D01*
Y167131D01*
Y167025D01*
X315055D01*
Y167131D01*
Y167238D01*
Y167344D01*
Y167451D01*
Y167557D01*
Y167664D01*
Y167771D01*
Y167877D01*
Y167984D01*
Y168090D01*
Y168197D01*
Y168303D01*
Y168410D01*
Y168516D01*
Y168623D01*
Y168729D01*
Y168836D01*
Y168943D01*
Y169049D01*
Y169156D01*
Y169262D01*
Y169369D01*
Y169475D01*
Y169582D01*
Y169688D01*
Y169795D01*
Y169902D01*
Y170008D01*
Y170115D01*
Y170221D01*
Y170328D01*
Y170434D01*
Y170541D01*
Y170648D01*
Y170754D01*
Y170861D01*
Y170967D01*
Y171074D01*
Y171180D01*
Y171287D01*
Y171393D01*
Y171500D01*
Y171607D01*
Y171713D01*
Y171820D01*
Y171926D01*
Y172033D01*
Y172139D01*
Y172246D01*
Y172352D01*
Y172459D01*
Y172565D01*
Y172672D01*
Y172779D01*
Y172885D01*
Y172992D01*
Y173098D01*
Y173205D01*
Y173311D01*
Y173418D01*
Y173524D01*
Y173631D01*
Y173738D01*
Y173844D01*
Y173951D01*
Y174057D01*
Y174164D01*
Y174270D01*
Y174377D01*
Y174484D01*
Y174590D01*
Y174697D01*
Y174803D01*
Y174910D01*
Y175016D01*
Y175123D01*
Y175229D01*
Y175336D01*
Y175443D01*
Y175549D01*
Y175656D01*
Y175762D01*
Y175869D01*
Y175975D01*
Y176082D01*
Y176188D01*
Y176295D01*
Y176401D01*
Y176508D01*
Y176615D01*
Y176721D01*
Y176828D01*
Y176934D01*
X316333D01*
Y176828D01*
D02*
G37*
G36*
X331997D02*
Y176721D01*
Y176615D01*
Y176508D01*
Y176401D01*
Y176295D01*
Y176188D01*
Y176082D01*
Y175975D01*
Y175869D01*
Y175762D01*
Y175656D01*
Y175549D01*
Y175443D01*
Y175336D01*
Y175229D01*
Y175123D01*
Y175016D01*
Y174910D01*
Y174803D01*
Y174697D01*
Y174590D01*
Y174484D01*
Y174377D01*
Y174270D01*
Y174164D01*
Y174057D01*
Y173951D01*
Y173844D01*
Y173738D01*
Y173631D01*
Y173524D01*
Y173418D01*
X331891D01*
Y173311D01*
Y173205D01*
X332104D01*
Y173311D01*
X332210D01*
Y173418D01*
X332317D01*
Y173524D01*
X332423D01*
Y173631D01*
X332530D01*
Y173738D01*
X332636D01*
Y173844D01*
X332850D01*
Y173951D01*
X333063D01*
Y174057D01*
X333276D01*
Y174164D01*
X334555D01*
Y174057D01*
X334874D01*
Y173951D01*
X335087D01*
Y173844D01*
X335300D01*
Y173738D01*
X335407D01*
Y173631D01*
X335513D01*
Y173524D01*
X335620D01*
Y173418D01*
X335727D01*
Y173311D01*
X335833D01*
Y173205D01*
Y173098D01*
X335940D01*
Y172992D01*
Y172885D01*
X336046D01*
Y172779D01*
Y172672D01*
X336153D01*
Y172565D01*
Y172459D01*
Y172352D01*
Y172246D01*
X336259D01*
Y172139D01*
X336153D01*
Y172033D01*
X336259D01*
Y171926D01*
Y171820D01*
Y171713D01*
Y171607D01*
Y171500D01*
Y171393D01*
Y171287D01*
Y171180D01*
Y171074D01*
Y170967D01*
Y170861D01*
Y170754D01*
Y170648D01*
Y170541D01*
Y170434D01*
Y170328D01*
Y170221D01*
Y170115D01*
Y170008D01*
Y169902D01*
Y169795D01*
Y169688D01*
Y169582D01*
Y169475D01*
Y169369D01*
Y169262D01*
Y169156D01*
Y169049D01*
X336153D01*
Y168943D01*
X336259D01*
Y168836D01*
X336153D01*
Y168729D01*
Y168623D01*
Y168516D01*
Y168410D01*
X336046D01*
Y168303D01*
Y168197D01*
X335940D01*
Y168090D01*
Y167984D01*
X335833D01*
Y167877D01*
X335727D01*
Y167771D01*
Y167664D01*
X335620D01*
Y167557D01*
X335513D01*
Y167451D01*
X335407D01*
Y167344D01*
X335300D01*
Y167238D01*
X335087D01*
Y167131D01*
X334874D01*
Y167025D01*
X334555D01*
Y166918D01*
X333169D01*
Y167025D01*
X332956D01*
Y167131D01*
X332743D01*
Y167238D01*
X332530D01*
Y167344D01*
X332423D01*
Y167451D01*
X332317D01*
Y167557D01*
X332210D01*
Y167664D01*
Y167771D01*
X332104D01*
Y167877D01*
X331891D01*
Y167771D01*
Y167664D01*
X331997D01*
Y167557D01*
Y167451D01*
Y167344D01*
Y167238D01*
Y167131D01*
Y167025D01*
X330612D01*
Y167131D01*
X330718D01*
Y167238D01*
Y167344D01*
Y167451D01*
Y167557D01*
Y167664D01*
Y167771D01*
Y167877D01*
Y167984D01*
Y168090D01*
Y168197D01*
Y168303D01*
Y168410D01*
Y168516D01*
Y168623D01*
Y168729D01*
Y168836D01*
Y168943D01*
Y169049D01*
Y169156D01*
Y169262D01*
Y169369D01*
Y169475D01*
Y169582D01*
Y169688D01*
Y169795D01*
Y169902D01*
Y170008D01*
Y170115D01*
Y170221D01*
Y170328D01*
Y170434D01*
Y170541D01*
Y170648D01*
Y170754D01*
Y170861D01*
Y170967D01*
Y171074D01*
Y171180D01*
Y171287D01*
Y171393D01*
Y171500D01*
Y171607D01*
Y171713D01*
Y171820D01*
Y171926D01*
Y172033D01*
Y172139D01*
Y172246D01*
Y172352D01*
Y172459D01*
Y172565D01*
Y172672D01*
Y172779D01*
Y172885D01*
Y172992D01*
Y173098D01*
Y173205D01*
Y173311D01*
Y173418D01*
Y173524D01*
Y173631D01*
Y173738D01*
Y173844D01*
Y173951D01*
Y174057D01*
Y174164D01*
Y174270D01*
Y174377D01*
Y174484D01*
Y174590D01*
Y174697D01*
Y174803D01*
Y174910D01*
Y175016D01*
Y175123D01*
Y175229D01*
Y175336D01*
Y175443D01*
Y175549D01*
Y175656D01*
Y175762D01*
Y175869D01*
Y175975D01*
Y176082D01*
Y176188D01*
Y176295D01*
Y176401D01*
Y176508D01*
Y176615D01*
Y176721D01*
Y176828D01*
X330612D01*
Y176934D01*
X331997D01*
Y176828D01*
D02*
G37*
G36*
X341907Y174057D02*
X342440D01*
Y173951D01*
X342759D01*
Y173844D01*
X342972D01*
Y173738D01*
X343186D01*
Y173631D01*
X343399D01*
Y173524D01*
X343612D01*
Y173418D01*
X343825D01*
Y173311D01*
X343718D01*
Y173205D01*
Y173098D01*
X343612D01*
Y172992D01*
X343505D01*
Y172885D01*
X343399D01*
Y172779D01*
X343292D01*
Y172672D01*
Y172565D01*
X343186D01*
Y172459D01*
X343079D01*
Y172352D01*
X342972D01*
Y172459D01*
X342759D01*
Y172565D01*
X342653D01*
Y172672D01*
X342333D01*
Y172779D01*
X342120D01*
Y172885D01*
X341800D01*
Y172992D01*
X341267D01*
Y173098D01*
X340522D01*
Y172992D01*
X340095D01*
Y172885D01*
X339882D01*
Y172779D01*
X339776D01*
Y172672D01*
X339669D01*
Y172565D01*
X339563D01*
Y172459D01*
X339456D01*
Y172352D01*
Y172246D01*
Y172139D01*
Y172033D01*
Y171926D01*
Y171820D01*
Y171713D01*
X339563D01*
Y171607D01*
X339669D01*
Y171500D01*
X339776D01*
Y171393D01*
X340095D01*
Y171287D01*
X340841D01*
Y171180D01*
X342013D01*
Y171074D01*
X342546D01*
Y170967D01*
X342866D01*
Y170861D01*
X343079D01*
Y170754D01*
X343186D01*
Y170648D01*
X343399D01*
Y170541D01*
X343505D01*
Y170434D01*
Y170328D01*
X343612D01*
Y170221D01*
X343718D01*
Y170115D01*
Y170008D01*
Y169902D01*
X343825D01*
Y169795D01*
Y169688D01*
Y169582D01*
Y169475D01*
X343931D01*
Y169369D01*
Y169262D01*
Y169156D01*
Y169049D01*
Y168943D01*
Y168836D01*
X343825D01*
Y168729D01*
Y168623D01*
Y168516D01*
Y168410D01*
Y168303D01*
X343718D01*
Y168197D01*
Y168090D01*
X343612D01*
Y167984D01*
Y167877D01*
X343505D01*
Y167771D01*
X343399D01*
Y167664D01*
Y167557D01*
X343292D01*
Y167451D01*
X343079D01*
Y167344D01*
X342972D01*
Y167238D01*
X342759D01*
Y167131D01*
X342440D01*
Y167025D01*
X341907D01*
Y166918D01*
X339882D01*
Y167025D01*
X339456D01*
Y167131D01*
X339136D01*
Y167238D01*
X338817D01*
Y167344D01*
X338604D01*
Y167451D01*
X338497D01*
Y167557D01*
X338284D01*
Y167664D01*
X338177D01*
Y167771D01*
X337964D01*
Y167877D01*
X337858D01*
Y167984D01*
Y168090D01*
X337964D01*
Y168197D01*
X338071D01*
Y168303D01*
X338177D01*
Y168410D01*
X338284D01*
Y168516D01*
Y168623D01*
X338390D01*
Y168729D01*
X338497D01*
Y168836D01*
X338817D01*
Y168729D01*
X338923D01*
Y168623D01*
X339136D01*
Y168516D01*
X339243D01*
Y168410D01*
X339456D01*
Y168303D01*
X339776D01*
Y168197D01*
X340095D01*
Y168090D01*
X340628D01*
Y167984D01*
X341374D01*
Y168090D01*
X341800D01*
Y168197D01*
X342120D01*
Y168303D01*
X342227D01*
Y168410D01*
X342333D01*
Y168516D01*
X342546D01*
Y168623D01*
Y168729D01*
X342653D01*
Y168836D01*
Y168943D01*
Y169049D01*
Y169156D01*
Y169262D01*
Y169369D01*
Y169475D01*
X342546D01*
Y169582D01*
X342440D01*
Y169688D01*
X342333D01*
Y169795D01*
X342120D01*
Y169902D01*
X341800D01*
Y170008D01*
X341161D01*
Y170115D01*
X339776D01*
Y170221D01*
X339350D01*
Y170328D01*
X339030D01*
Y170434D01*
X338923D01*
Y170541D01*
X338710D01*
Y170648D01*
X338604D01*
Y170754D01*
Y170861D01*
X338497D01*
Y170967D01*
X338390D01*
Y171074D01*
Y171180D01*
X338284D01*
Y171287D01*
Y171393D01*
Y171500D01*
Y171607D01*
Y171713D01*
Y171820D01*
Y171926D01*
Y172033D01*
Y172139D01*
Y172246D01*
Y172352D01*
Y172459D01*
Y172565D01*
Y172672D01*
Y172779D01*
X338390D01*
Y172885D01*
Y172992D01*
Y173098D01*
X338497D01*
Y173205D01*
X338604D01*
Y173311D01*
Y173418D01*
X338710D01*
Y173524D01*
X338817D01*
Y173631D01*
X338923D01*
Y173738D01*
X339136D01*
Y173844D01*
X339350D01*
Y173951D01*
X339563D01*
Y174057D01*
X339989D01*
Y174164D01*
X341907D01*
Y174057D01*
D02*
G37*
G36*
X67520Y278196D02*
Y277999D01*
X65748Y278590D01*
X64173Y279771D01*
X61811Y281149D01*
X59449Y282723D01*
X57284Y284889D01*
X56299Y286660D01*
X55118Y289219D01*
X54528Y291385D01*
X62598D01*
Y291975D01*
Y300440D01*
X54134D01*
X54724Y302605D01*
X55315Y303983D01*
X56299Y305558D01*
X57677Y307920D01*
X58858Y309495D01*
X60039Y310282D01*
X61417Y311660D01*
X63386Y312842D01*
X65748Y313826D01*
X67520Y314613D01*
Y278196D01*
D02*
G37*
G36*
X97256Y218110D02*
X95192D01*
Y224713D01*
X97256D01*
Y218110D01*
D02*
G37*
G36*
X90565Y219750D02*
X94284D01*
Y218110D01*
X88413D01*
Y226982D01*
X90565D01*
Y219750D01*
D02*
G37*
G36*
X309407Y182901D02*
X309620D01*
Y182795D01*
X309727D01*
Y182688D01*
X309834D01*
Y182582D01*
Y182475D01*
X309940D01*
Y182369D01*
Y182262D01*
X310047D01*
Y182156D01*
Y182049D01*
Y181942D01*
Y181836D01*
Y181729D01*
Y181623D01*
Y181516D01*
Y181410D01*
Y181303D01*
Y181196D01*
Y181090D01*
Y180983D01*
Y180877D01*
X312178D01*
Y180770D01*
X312391D01*
Y180664D01*
X312604D01*
Y180557D01*
X312710D01*
Y180451D01*
X312817D01*
Y180344D01*
X312924D01*
Y180237D01*
X313030D01*
Y180131D01*
X313137D01*
Y180024D01*
Y179918D01*
X313243D01*
Y179811D01*
Y179705D01*
Y179598D01*
X313350D01*
Y179492D01*
Y179385D01*
Y179279D01*
Y179172D01*
Y179065D01*
Y178959D01*
Y178852D01*
Y178746D01*
Y178639D01*
Y178533D01*
Y178426D01*
Y178320D01*
Y178213D01*
Y178106D01*
Y178000D01*
Y177893D01*
Y177787D01*
Y177680D01*
Y177574D01*
Y177467D01*
Y177360D01*
Y177254D01*
Y177147D01*
Y177041D01*
Y176934D01*
Y176828D01*
Y176721D01*
Y176615D01*
Y176508D01*
Y176401D01*
Y176295D01*
Y176188D01*
Y176082D01*
Y175975D01*
Y175869D01*
Y175762D01*
Y175656D01*
Y175549D01*
Y175443D01*
Y175336D01*
Y175229D01*
Y175123D01*
Y175016D01*
Y174910D01*
Y174803D01*
Y174697D01*
Y174590D01*
Y174484D01*
Y174377D01*
Y174270D01*
Y174164D01*
Y174057D01*
Y173951D01*
Y173844D01*
Y173738D01*
Y173631D01*
Y173524D01*
Y173418D01*
Y173311D01*
Y173205D01*
Y173098D01*
Y172992D01*
Y172885D01*
Y172779D01*
Y172672D01*
Y172565D01*
Y172459D01*
Y172352D01*
Y172246D01*
Y172139D01*
Y172033D01*
Y171926D01*
Y171820D01*
Y171713D01*
Y171607D01*
Y171500D01*
Y171393D01*
Y171287D01*
Y171180D01*
Y171074D01*
Y170967D01*
Y170861D01*
Y170754D01*
Y170648D01*
Y170541D01*
Y170434D01*
Y170328D01*
Y170221D01*
Y170115D01*
Y170008D01*
Y169902D01*
Y169795D01*
Y169688D01*
Y169582D01*
Y169475D01*
Y169369D01*
Y169262D01*
Y169156D01*
Y169049D01*
Y168943D01*
Y168836D01*
Y168729D01*
Y168623D01*
Y168516D01*
Y168410D01*
Y168303D01*
Y168197D01*
Y168090D01*
Y167984D01*
Y167877D01*
Y167771D01*
Y167664D01*
Y167557D01*
Y167451D01*
Y167344D01*
Y167238D01*
Y167131D01*
Y167025D01*
Y166918D01*
Y166811D01*
Y166705D01*
Y166598D01*
Y166492D01*
Y166385D01*
Y166279D01*
Y166172D01*
Y166066D01*
Y165959D01*
Y165852D01*
Y165746D01*
Y165639D01*
Y165533D01*
Y165426D01*
Y165320D01*
Y165213D01*
Y165107D01*
Y165000D01*
Y164893D01*
Y164787D01*
Y164680D01*
Y164574D01*
Y164467D01*
Y164361D01*
X313243D01*
Y164254D01*
Y164148D01*
Y164041D01*
X313137D01*
Y163934D01*
Y163828D01*
X313030D01*
Y163721D01*
X312924D01*
Y163615D01*
X312817D01*
Y163508D01*
X312710D01*
Y163402D01*
X312604D01*
Y163295D01*
X312391D01*
Y163189D01*
X312071D01*
Y163082D01*
X310047D01*
Y162975D01*
Y162869D01*
Y162762D01*
Y162656D01*
Y162549D01*
Y162443D01*
Y162336D01*
Y162230D01*
Y162123D01*
Y162016D01*
Y161910D01*
Y161803D01*
X309940D01*
Y161697D01*
Y161590D01*
Y161484D01*
X309834D01*
Y161377D01*
Y161270D01*
X309727D01*
Y161164D01*
X309620D01*
Y161057D01*
X306957D01*
Y161164D01*
X306743D01*
Y161270D01*
X306637D01*
Y161377D01*
Y161484D01*
Y161590D01*
X306530D01*
Y161697D01*
Y161803D01*
Y161910D01*
X306424D01*
Y162016D01*
Y162123D01*
Y162230D01*
Y162336D01*
Y162443D01*
Y162549D01*
Y162656D01*
Y162762D01*
Y162869D01*
Y162975D01*
Y163082D01*
X303014D01*
Y162975D01*
Y162869D01*
Y162762D01*
Y162656D01*
Y162549D01*
Y162443D01*
Y162336D01*
Y162230D01*
Y162123D01*
Y162016D01*
Y161910D01*
Y161803D01*
Y161697D01*
Y161590D01*
X302907D01*
Y161484D01*
Y161377D01*
X302801D01*
Y161270D01*
X302694D01*
Y161164D01*
X302588D01*
Y161057D01*
X299924D01*
Y161164D01*
X299711D01*
Y161270D01*
Y161377D01*
X299604D01*
Y161484D01*
Y161590D01*
Y161697D01*
X299498D01*
Y161803D01*
Y161910D01*
Y162016D01*
Y162123D01*
Y162230D01*
Y162336D01*
Y162443D01*
Y162549D01*
Y162656D01*
Y162762D01*
Y162869D01*
Y162975D01*
Y163082D01*
X295981D01*
Y162975D01*
Y162869D01*
Y162762D01*
Y162656D01*
Y162549D01*
Y162443D01*
Y162336D01*
Y162230D01*
Y162123D01*
X296088D01*
Y162016D01*
X295981D01*
Y161910D01*
Y161803D01*
Y161697D01*
Y161590D01*
X295875D01*
Y161484D01*
Y161377D01*
X295768D01*
Y161270D01*
X295662D01*
Y161164D01*
X295555D01*
Y161057D01*
X292891D01*
Y161164D01*
X292785D01*
Y161270D01*
X292678D01*
Y161377D01*
Y161484D01*
X292571D01*
Y161590D01*
Y161697D01*
X292465D01*
Y161803D01*
Y161910D01*
Y162016D01*
Y162123D01*
Y162230D01*
Y162336D01*
Y162443D01*
Y162549D01*
Y162656D01*
Y162762D01*
Y162869D01*
Y162975D01*
Y163082D01*
X288949D01*
Y162975D01*
Y162869D01*
Y162762D01*
Y162656D01*
Y162549D01*
Y162443D01*
Y162336D01*
Y162230D01*
Y162123D01*
Y162016D01*
Y161910D01*
Y161803D01*
Y161697D01*
Y161590D01*
Y161484D01*
X288842D01*
Y161377D01*
X288735D01*
Y161270D01*
Y161164D01*
X288522D01*
Y161057D01*
X285858D01*
Y161164D01*
X285752D01*
Y161270D01*
X285645D01*
Y161377D01*
Y161484D01*
X285539D01*
Y161590D01*
Y161697D01*
Y161803D01*
Y161910D01*
X285432D01*
Y162016D01*
Y162123D01*
Y162230D01*
Y162336D01*
Y162443D01*
Y162549D01*
Y162656D01*
Y162762D01*
Y162869D01*
Y162975D01*
Y163082D01*
X283408D01*
Y163189D01*
X283088D01*
Y163295D01*
X282875D01*
Y163402D01*
X282768D01*
Y163508D01*
X282662D01*
Y163615D01*
X282555D01*
Y163721D01*
X282449D01*
Y163828D01*
Y163934D01*
X282342D01*
Y164041D01*
X282236D01*
Y164148D01*
Y164254D01*
X282129D01*
Y164361D01*
X282236D01*
Y164467D01*
X282129D01*
Y164574D01*
Y164680D01*
Y164787D01*
Y164893D01*
Y165000D01*
Y165107D01*
Y165213D01*
Y165320D01*
Y165426D01*
Y165533D01*
Y165639D01*
Y165746D01*
Y165852D01*
Y165959D01*
Y166066D01*
Y166172D01*
Y166279D01*
Y166385D01*
Y166492D01*
Y166598D01*
Y166705D01*
Y166811D01*
Y166918D01*
Y167025D01*
Y167131D01*
Y167238D01*
Y167344D01*
Y167451D01*
Y167557D01*
Y167664D01*
Y167771D01*
Y167877D01*
Y167984D01*
Y168090D01*
Y168197D01*
Y168303D01*
Y168410D01*
Y168516D01*
Y168623D01*
Y168729D01*
Y168836D01*
Y168943D01*
Y169049D01*
Y169156D01*
Y169262D01*
Y169369D01*
Y169475D01*
Y169582D01*
Y169688D01*
Y169795D01*
Y169902D01*
Y170008D01*
Y170115D01*
Y170221D01*
Y170328D01*
Y170434D01*
Y170541D01*
Y170648D01*
Y170754D01*
Y170861D01*
Y170967D01*
Y171074D01*
Y171180D01*
Y171287D01*
Y171393D01*
Y171500D01*
Y171607D01*
Y171713D01*
Y171820D01*
Y171926D01*
Y172033D01*
Y172139D01*
Y172246D01*
Y172352D01*
Y172459D01*
Y172565D01*
Y172672D01*
Y172779D01*
Y172885D01*
Y172992D01*
Y173098D01*
Y173205D01*
Y173311D01*
Y173418D01*
Y173524D01*
Y173631D01*
Y173738D01*
Y173844D01*
Y173951D01*
Y174057D01*
Y174164D01*
Y174270D01*
Y174377D01*
Y174484D01*
Y174590D01*
Y174697D01*
Y174803D01*
Y174910D01*
Y175016D01*
Y175123D01*
Y175229D01*
Y175336D01*
Y175443D01*
Y175549D01*
Y175656D01*
Y175762D01*
Y175869D01*
Y175975D01*
Y176082D01*
Y176188D01*
Y176295D01*
Y176401D01*
Y176508D01*
Y176615D01*
Y176721D01*
Y176828D01*
Y176934D01*
Y177041D01*
Y177147D01*
Y177254D01*
Y177360D01*
Y177467D01*
Y177574D01*
Y177680D01*
Y177787D01*
Y177893D01*
Y178000D01*
Y178106D01*
Y178213D01*
Y178320D01*
Y178426D01*
Y178533D01*
Y178639D01*
Y178746D01*
Y178852D01*
Y178959D01*
Y179065D01*
Y179172D01*
Y179279D01*
Y179385D01*
Y179492D01*
X282236D01*
Y179598D01*
Y179705D01*
Y179811D01*
Y179918D01*
X282342D01*
Y180024D01*
X282449D01*
Y180131D01*
Y180237D01*
X282555D01*
Y180344D01*
Y180451D01*
X282768D01*
Y180557D01*
X282875D01*
Y180664D01*
X283088D01*
Y180770D01*
X283301D01*
Y180877D01*
X285432D01*
Y180983D01*
Y181090D01*
Y181196D01*
Y181303D01*
Y181410D01*
Y181516D01*
Y181623D01*
Y181729D01*
Y181836D01*
Y181942D01*
Y182049D01*
X285539D01*
Y182156D01*
Y182262D01*
Y182369D01*
Y182475D01*
X285645D01*
Y182582D01*
Y182688D01*
X285752D01*
Y182795D01*
X285858D01*
Y182901D01*
X286071D01*
Y183008D01*
X288416D01*
Y182901D01*
X288629D01*
Y182795D01*
X288735D01*
Y182688D01*
X288842D01*
Y182582D01*
Y182475D01*
X288949D01*
Y182369D01*
Y182262D01*
Y182156D01*
Y182049D01*
Y181942D01*
Y181836D01*
Y181729D01*
Y181623D01*
Y181516D01*
Y181410D01*
Y181303D01*
Y181196D01*
Y181090D01*
Y180983D01*
Y180877D01*
X292465D01*
Y180983D01*
Y181090D01*
Y181196D01*
Y181303D01*
Y181410D01*
Y181516D01*
Y181623D01*
Y181729D01*
Y181836D01*
Y181942D01*
Y182049D01*
Y182156D01*
Y182262D01*
X292571D01*
Y182369D01*
Y182475D01*
Y182582D01*
X292678D01*
Y182688D01*
X292785D01*
Y182795D01*
X292891D01*
Y182901D01*
X293104D01*
Y183008D01*
X295448D01*
Y182901D01*
X295662D01*
Y182795D01*
X295768D01*
Y182688D01*
Y182582D01*
X295875D01*
Y182475D01*
Y182369D01*
X295981D01*
Y182262D01*
Y182156D01*
Y182049D01*
Y181942D01*
X296088D01*
Y181836D01*
X295981D01*
Y181729D01*
Y181623D01*
Y181516D01*
Y181410D01*
Y181303D01*
Y181196D01*
Y181090D01*
Y180983D01*
Y180877D01*
X299498D01*
Y180983D01*
Y181090D01*
Y181196D01*
Y181303D01*
Y181410D01*
Y181516D01*
Y181623D01*
Y181729D01*
Y181836D01*
Y181942D01*
Y182049D01*
Y182156D01*
Y182262D01*
Y182369D01*
X299604D01*
Y182475D01*
Y182582D01*
X299711D01*
Y182688D01*
Y182795D01*
X299924D01*
Y182901D01*
X300030D01*
Y183008D01*
X302375D01*
Y182901D01*
X302588D01*
Y182795D01*
X302801D01*
Y182688D01*
Y182582D01*
X302907D01*
Y182475D01*
Y182369D01*
Y182262D01*
X303014D01*
Y182156D01*
Y182049D01*
Y181942D01*
Y181836D01*
Y181729D01*
Y181623D01*
Y181516D01*
Y181410D01*
Y181303D01*
Y181196D01*
Y181090D01*
Y180983D01*
Y180877D01*
X306424D01*
Y180983D01*
Y181090D01*
Y181196D01*
Y181303D01*
Y181410D01*
Y181516D01*
Y181623D01*
Y181729D01*
Y181836D01*
Y181942D01*
Y182049D01*
X306530D01*
Y182156D01*
Y182262D01*
Y182369D01*
X306637D01*
Y182475D01*
Y182582D01*
X306743D01*
Y182688D01*
Y182795D01*
X306850D01*
Y182901D01*
X307063D01*
Y183008D01*
X309407D01*
Y182901D01*
D02*
G37*
G36*
X66535Y235644D02*
Y235447D01*
X64764Y236037D01*
X63189Y237218D01*
X60827Y238596D01*
X58465Y240171D01*
X56299Y242337D01*
X55315Y244108D01*
X54134Y246667D01*
X53543Y248833D01*
X61614D01*
Y249423D01*
Y257888D01*
X53150D01*
X53740Y260053D01*
X54331Y261431D01*
X55315Y263006D01*
X56693Y265368D01*
X57874Y266943D01*
X59055Y267730D01*
X60433Y269108D01*
X62402Y270289D01*
X64764Y271274D01*
X66535Y272061D01*
Y235644D01*
D02*
G37*
%LPC*%
G36*
X85507Y213268D02*
X85487D01*
X85429Y213259D01*
X85341Y213249D01*
X85243Y213229D01*
X85136Y213180D01*
X85028Y213122D01*
X84931Y213034D01*
X84853Y212917D01*
Y211180D01*
X84862Y211160D01*
X84892Y211121D01*
X84931Y211063D01*
X84999Y211004D01*
X85097Y210936D01*
X85204Y210877D01*
X85350Y210838D01*
X85516Y210819D01*
X85546D01*
X85575Y210828D01*
X85624Y210838D01*
X85672Y210858D01*
X85721Y210877D01*
X85780Y210916D01*
X85848Y210955D01*
X85907Y211014D01*
X85965Y211092D01*
X86024Y211180D01*
X86073Y211297D01*
X86121Y211424D01*
X86151Y211570D01*
X86180Y211746D01*
X86190Y211941D01*
Y212087D01*
Y212097D01*
Y212136D01*
Y212195D01*
X86180Y212273D01*
X86170Y212361D01*
X86151Y212458D01*
X86102Y212683D01*
X86073Y212790D01*
X86024Y212897D01*
X85965Y212995D01*
X85907Y213083D01*
X85819Y213161D01*
X85731Y213219D01*
X85624Y213259D01*
X85507Y213268D01*
D02*
G37*
G36*
X113228Y223249D02*
X113184D01*
X113140Y223234D01*
X113082D01*
X112935Y223190D01*
X112760Y223102D01*
X112657Y223029D01*
X112569Y222956D01*
X112481Y222854D01*
X112394Y222737D01*
X112320Y222605D01*
X112247Y222444D01*
X112203Y222253D01*
X112159Y222048D01*
X114224D01*
Y222195D01*
Y222224D01*
Y222283D01*
X114209Y222371D01*
X114194Y222473D01*
X114165Y222605D01*
X114121Y222737D01*
X114063Y222854D01*
X113975Y222971D01*
X113960Y222985D01*
X113931Y223015D01*
X113872Y223059D01*
X113785Y223117D01*
X113682Y223161D01*
X113550Y223205D01*
X113404Y223234D01*
X113228Y223249D01*
D02*
G37*
G36*
X56937Y221038D02*
X56235D01*
X56176Y221024D01*
X56000Y220994D01*
X55810Y220921D01*
X55605Y220804D01*
X55517Y220731D01*
X55429Y220628D01*
X55371Y220526D01*
X55312Y220394D01*
X55283Y220248D01*
X55268Y220072D01*
Y220057D01*
Y220028D01*
X55283Y219970D01*
X55298Y219911D01*
X55356Y219765D01*
X55400Y219691D01*
X55459Y219618D01*
X55473D01*
X55488Y219589D01*
X55532Y219574D01*
X55590Y219545D01*
X55737Y219486D01*
X55839Y219472D01*
X55942Y219457D01*
X56000D01*
X56074Y219472D01*
X56161D01*
X56366Y219530D01*
X56469Y219560D01*
X56571Y219618D01*
X56586Y219633D01*
X56615Y219647D01*
X56659Y219677D01*
X56718Y219721D01*
X56835Y219838D01*
X56893Y219911D01*
X56937Y219984D01*
Y221038D01*
D02*
G37*
G36*
X63174Y223249D02*
X63145D01*
X63057Y223234D01*
X62940Y223220D01*
X62793Y223176D01*
X62632Y223117D01*
X62471Y223015D01*
X62325Y222883D01*
X62208Y222707D01*
Y220087D01*
X62222Y220072D01*
X62266Y220013D01*
X62325Y219926D01*
X62427Y219838D01*
X62559Y219735D01*
X62735Y219662D01*
X62940Y219603D01*
X63189Y219574D01*
X63218D01*
X63306Y219589D01*
X63423Y219618D01*
X63569Y219662D01*
X63730Y219750D01*
X63877Y219867D01*
X64008Y220043D01*
X64067Y220160D01*
X64111Y220277D01*
Y220292D01*
X64126Y220350D01*
X64140Y220438D01*
X64155Y220555D01*
X64170Y220731D01*
X64184Y220936D01*
X64199Y221185D01*
Y221477D01*
Y221492D01*
Y221521D01*
Y221565D01*
Y221638D01*
X64184Y221799D01*
X64170Y222005D01*
X64140Y222224D01*
X64096Y222458D01*
X64038Y222663D01*
X63950Y222839D01*
X63935Y222854D01*
X63906Y222898D01*
X63847Y222971D01*
X63760Y223044D01*
X63657Y223117D01*
X63525Y223190D01*
X63364Y223234D01*
X63174Y223249D01*
D02*
G37*
G36*
X78004D02*
X77960D01*
X77917Y223234D01*
X77858D01*
X77711Y223190D01*
X77536Y223102D01*
X77433Y223029D01*
X77346Y222956D01*
X77258Y222854D01*
X77170Y222737D01*
X77097Y222605D01*
X77023Y222444D01*
X76980Y222253D01*
X76936Y222048D01*
X79000D01*
Y222195D01*
Y222224D01*
Y222283D01*
X78985Y222371D01*
X78971Y222473D01*
X78941Y222605D01*
X78897Y222737D01*
X78839Y222854D01*
X78751Y222971D01*
X78736Y222985D01*
X78707Y223015D01*
X78649Y223059D01*
X78561Y223117D01*
X78458Y223161D01*
X78326Y223205D01*
X78180Y223234D01*
X78004Y223249D01*
D02*
G37*
G36*
X101545D02*
X101516D01*
X101428Y223234D01*
X101311Y223220D01*
X101165Y223176D01*
X101004Y223117D01*
X100843Y223015D01*
X100696Y222883D01*
X100579Y222707D01*
Y220087D01*
X100594Y220072D01*
X100638Y220013D01*
X100696Y219926D01*
X100799Y219838D01*
X100931Y219735D01*
X101106Y219662D01*
X101311Y219603D01*
X101560Y219574D01*
X101589D01*
X101677Y219589D01*
X101794Y219618D01*
X101941Y219662D01*
X102102Y219750D01*
X102248Y219867D01*
X102380Y220043D01*
X102438Y220160D01*
X102482Y220277D01*
Y220292D01*
X102497Y220350D01*
X102512Y220438D01*
X102526Y220555D01*
X102541Y220731D01*
X102556Y220936D01*
X102570Y221185D01*
Y221477D01*
Y221492D01*
Y221521D01*
Y221565D01*
Y221638D01*
X102556Y221799D01*
X102541Y222005D01*
X102512Y222224D01*
X102468Y222458D01*
X102409Y222663D01*
X102321Y222839D01*
X102307Y222854D01*
X102277Y222898D01*
X102219Y222971D01*
X102131Y223044D01*
X102029Y223117D01*
X101897Y223190D01*
X101736Y223234D01*
X101545Y223249D01*
D02*
G37*
G36*
X80314Y214722D02*
X80168D01*
X80119Y214713D01*
X80051Y214693D01*
X79963Y214674D01*
X79875Y214635D01*
X79777Y214586D01*
X79670Y214518D01*
X79572Y214440D01*
X79465Y214332D01*
X79368Y214195D01*
X79280Y214039D01*
X79202Y213864D01*
X79143Y213639D01*
X79094Y213395D01*
X79075Y213112D01*
Y212673D01*
Y212663D01*
Y212634D01*
Y212595D01*
Y212526D01*
X79084Y212458D01*
X79094Y212370D01*
X79114Y212185D01*
X79143Y211960D01*
X79192Y211746D01*
X79260Y211531D01*
X79358Y211336D01*
X79368Y211316D01*
X79416Y211267D01*
X79485Y211189D01*
X79572Y211111D01*
X79699Y211023D01*
X79846Y210945D01*
X80022Y210897D01*
X80109Y210887D01*
X80217Y210877D01*
X80265D01*
X80304Y210887D01*
X80402Y210906D01*
X80529Y210936D01*
X80666Y210994D01*
X80802Y211072D01*
X80939Y211189D01*
X80998Y211258D01*
X81056Y211336D01*
Y211346D01*
X81066Y211355D01*
X81085Y211385D01*
X81105Y211424D01*
X81124Y211472D01*
X81154Y211531D01*
X81173Y211599D01*
X81202Y211677D01*
X81232Y211765D01*
X81261Y211863D01*
X81280Y211970D01*
X81300Y212087D01*
X81339Y212351D01*
X81349Y212653D01*
Y212927D01*
Y212936D01*
Y212966D01*
Y213015D01*
Y213073D01*
X81339Y213141D01*
X81329Y213229D01*
X81310Y213424D01*
X81280Y213639D01*
X81222Y213864D01*
X81154Y214078D01*
X81105Y214176D01*
X81056Y214264D01*
Y214274D01*
X81046Y214283D01*
X80998Y214332D01*
X80939Y214410D01*
X80841Y214498D01*
X80724Y214576D01*
X80578Y214654D01*
X80412Y214703D01*
X80314Y214722D01*
D02*
G37*
G36*
X110238Y214791D02*
X110180D01*
X110121Y214771D01*
X110043Y214752D01*
X109955Y214713D01*
X109868Y214664D01*
X109790Y214586D01*
X109721Y214488D01*
X109711Y214478D01*
X109702Y214430D01*
X109672Y214361D01*
X109643Y214274D01*
X109614Y214147D01*
X109584Y213990D01*
X109565Y213815D01*
X109555Y213610D01*
Y212087D01*
Y212078D01*
Y212058D01*
Y212029D01*
Y211980D01*
X109565Y211863D01*
X109575Y211716D01*
X109594Y211560D01*
X109624Y211404D01*
X109663Y211248D01*
X109721Y211121D01*
X109731Y211111D01*
X109750Y211072D01*
X109790Y211023D01*
X109848Y210975D01*
X109926Y210916D01*
X110014Y210867D01*
X110121Y210828D01*
X110248Y210819D01*
X110268D01*
X110307Y210828D01*
X110365Y210838D01*
X110443Y210858D01*
X110531Y210887D01*
X110619Y210945D01*
X110697Y211014D01*
X110766Y211111D01*
X110775Y211121D01*
X110795Y211170D01*
X110814Y211238D01*
X110853Y211346D01*
X110883Y211472D01*
X110902Y211638D01*
X110922Y211824D01*
X110931Y212048D01*
Y213512D01*
Y213522D01*
Y213542D01*
Y213571D01*
Y213620D01*
X110922Y213737D01*
X110912Y213873D01*
X110892Y214030D01*
X110863Y214186D01*
X110824Y214342D01*
X110766Y214469D01*
X110756Y214478D01*
X110736Y214518D01*
X110697Y214566D01*
X110639Y214635D01*
X110561Y214693D01*
X110473Y214742D01*
X110365Y214781D01*
X110238Y214791D01*
D02*
G37*
G36*
X327096Y170115D02*
X324645D01*
Y170008D01*
X324432D01*
Y169902D01*
X324219D01*
Y169795D01*
X324112D01*
Y169688D01*
X324006D01*
Y169582D01*
Y169475D01*
Y169369D01*
X323899D01*
Y169262D01*
Y169156D01*
Y169049D01*
Y168943D01*
Y168836D01*
Y168729D01*
X324006D01*
Y168623D01*
Y168516D01*
X324112D01*
Y168410D01*
Y168303D01*
X324219D01*
Y168197D01*
X324432D01*
Y168090D01*
X324645D01*
Y167984D01*
X325071D01*
Y167877D01*
X326137D01*
Y167984D01*
X326563D01*
Y168090D01*
X326776D01*
Y168197D01*
X326989D01*
Y168303D01*
X327096D01*
Y168410D01*
Y168516D01*
X327202D01*
Y168623D01*
Y168729D01*
Y168836D01*
Y168943D01*
Y169049D01*
Y169156D01*
Y169262D01*
Y169369D01*
Y169475D01*
Y169582D01*
Y169688D01*
Y169795D01*
Y169902D01*
Y170008D01*
X327096D01*
Y170115D01*
D02*
G37*
G36*
X333702Y173098D02*
X333276D01*
Y172992D01*
X332850D01*
Y172885D01*
X332636D01*
Y172779D01*
X332423D01*
Y172672D01*
X332317D01*
Y172565D01*
X332210D01*
Y172459D01*
Y172352D01*
X332104D01*
Y172246D01*
Y172139D01*
X331997D01*
Y172033D01*
Y171926D01*
Y171820D01*
Y171713D01*
Y171607D01*
Y171500D01*
Y171393D01*
Y171287D01*
Y171180D01*
Y171074D01*
Y170967D01*
Y170861D01*
Y170754D01*
Y170648D01*
Y170541D01*
Y170434D01*
Y170328D01*
Y170221D01*
Y170115D01*
Y170008D01*
Y169902D01*
Y169795D01*
Y169688D01*
Y169582D01*
Y169475D01*
Y169369D01*
Y169262D01*
Y169156D01*
Y169049D01*
X332104D01*
Y168943D01*
Y168836D01*
Y168729D01*
X332210D01*
Y168623D01*
Y168516D01*
X332317D01*
Y168410D01*
X332423D01*
Y168303D01*
X332530D01*
Y168197D01*
X332743D01*
Y168090D01*
X333276D01*
Y167984D01*
X333702D01*
Y168090D01*
X334128D01*
Y168197D01*
X334341D01*
Y168303D01*
X334448D01*
Y168410D01*
X334555D01*
Y168516D01*
X334661D01*
Y168623D01*
X334768D01*
Y168729D01*
Y168836D01*
X334874D01*
Y168943D01*
Y169049D01*
Y169156D01*
X334981D01*
Y169262D01*
Y169369D01*
Y169475D01*
Y169582D01*
Y169688D01*
Y169795D01*
Y169902D01*
Y170008D01*
Y170115D01*
Y170221D01*
Y170328D01*
Y170434D01*
Y170541D01*
Y170648D01*
Y170754D01*
Y170861D01*
Y170967D01*
Y171074D01*
Y171180D01*
Y171287D01*
Y171393D01*
Y171500D01*
Y171607D01*
Y171713D01*
Y171820D01*
X334874D01*
Y171926D01*
Y172033D01*
Y172139D01*
X334768D01*
Y172246D01*
Y172352D01*
X334661D01*
Y172459D01*
Y172565D01*
X334555D01*
Y172672D01*
X334448D01*
Y172779D01*
X334235D01*
Y172885D01*
X334022D01*
Y172992D01*
X333702D01*
Y173098D01*
D02*
G37*
G36*
X295555Y174910D02*
X293531D01*
Y174803D01*
X293211D01*
Y174697D01*
X292891D01*
Y174590D01*
X292678D01*
Y174484D01*
X292465D01*
Y174377D01*
X292252D01*
Y174270D01*
X292145D01*
Y174164D01*
X291932D01*
Y174057D01*
X291826D01*
Y173951D01*
X291719D01*
Y173844D01*
X291613D01*
Y173738D01*
X291506D01*
Y173631D01*
Y173524D01*
X291399D01*
Y173418D01*
X291293D01*
Y173311D01*
Y173205D01*
X291186D01*
Y173098D01*
Y172992D01*
X291080D01*
Y172885D01*
X290973D01*
Y172779D01*
Y172672D01*
Y172565D01*
X290867D01*
Y172459D01*
Y172352D01*
Y172246D01*
X290760D01*
Y172139D01*
Y172033D01*
Y171926D01*
Y171820D01*
Y171713D01*
X290653D01*
Y171607D01*
Y171500D01*
Y171393D01*
Y171287D01*
Y171180D01*
Y171074D01*
Y170967D01*
Y170861D01*
Y170754D01*
Y170648D01*
Y170541D01*
Y170434D01*
Y170328D01*
X290760D01*
Y170221D01*
Y170115D01*
Y170008D01*
Y169902D01*
Y169795D01*
X290867D01*
Y169688D01*
Y169582D01*
Y169475D01*
X290973D01*
Y169369D01*
Y169262D01*
Y169156D01*
X291080D01*
Y169049D01*
X291186D01*
Y168943D01*
Y168836D01*
X291293D01*
Y168729D01*
Y168623D01*
X291399D01*
Y168516D01*
X291506D01*
Y168410D01*
X291613D01*
Y168303D01*
X291719D01*
Y168197D01*
X291826D01*
Y168090D01*
X291932D01*
Y167984D01*
X292039D01*
Y167877D01*
X292145D01*
Y167771D01*
X292252D01*
Y167664D01*
X292465D01*
Y167557D01*
X292678D01*
Y167451D01*
X292891D01*
Y167344D01*
X293211D01*
Y167238D01*
X293637D01*
Y167131D01*
X295448D01*
Y167238D01*
X295768D01*
Y167344D01*
X296194D01*
Y167451D01*
X296408D01*
Y167557D01*
X296621D01*
Y167664D01*
X296727D01*
Y167771D01*
X296940D01*
Y167877D01*
X297047D01*
Y167984D01*
X297153D01*
Y168090D01*
X297260D01*
Y168197D01*
X297366D01*
Y168303D01*
X297473D01*
Y168410D01*
X297580D01*
Y168516D01*
X297686D01*
Y168623D01*
Y168729D01*
X297793D01*
Y168836D01*
X297899D01*
Y168943D01*
Y169049D01*
X298006D01*
Y169156D01*
Y169262D01*
Y169369D01*
X298112D01*
Y169475D01*
Y169582D01*
X298219D01*
Y169688D01*
Y169795D01*
Y169902D01*
Y170008D01*
X298325D01*
Y170115D01*
Y170221D01*
Y170328D01*
Y170434D01*
Y170541D01*
Y170648D01*
Y170754D01*
Y170861D01*
Y170967D01*
Y171074D01*
Y171180D01*
Y171287D01*
Y171393D01*
Y171500D01*
Y171607D01*
Y171713D01*
Y171820D01*
Y171926D01*
Y172033D01*
X298219D01*
Y172139D01*
Y172246D01*
Y172352D01*
Y172459D01*
X298112D01*
Y172565D01*
Y172672D01*
Y172779D01*
X298006D01*
Y172885D01*
Y172992D01*
X297899D01*
Y173098D01*
Y173205D01*
X297793D01*
Y173311D01*
Y173418D01*
X297686D01*
Y173524D01*
X297580D01*
Y173631D01*
X297473D01*
Y173738D01*
X297366D01*
Y173844D01*
X297260D01*
Y173951D01*
X297153D01*
Y174057D01*
X297047D01*
Y174164D01*
X296940D01*
Y174270D01*
X296727D01*
Y174377D01*
X296621D01*
Y174484D01*
X296408D01*
Y174590D01*
X296194D01*
Y174697D01*
X295875D01*
Y174803D01*
X295555D01*
Y174910D01*
D02*
G37*
G36*
X288629Y177680D02*
X287883D01*
Y177574D01*
X287670D01*
Y177467D01*
X287563D01*
Y177360D01*
X287457D01*
Y177254D01*
X287350D01*
Y177147D01*
Y177041D01*
X287244D01*
Y176934D01*
Y176828D01*
Y176721D01*
Y176615D01*
Y176508D01*
Y176401D01*
X287350D01*
Y176295D01*
Y176188D01*
X287457D01*
Y176082D01*
Y175975D01*
X287670D01*
Y175869D01*
X287776D01*
Y175762D01*
X288096D01*
Y175656D01*
X288416D01*
Y175762D01*
X288735D01*
Y175869D01*
X288949D01*
Y175975D01*
X289055D01*
Y176082D01*
X289162D01*
Y176188D01*
Y176295D01*
X289268D01*
Y176401D01*
Y176508D01*
Y176615D01*
Y176721D01*
Y176828D01*
Y176934D01*
Y177041D01*
Y177147D01*
X289162D01*
Y177254D01*
Y177360D01*
X288949D01*
Y177467D01*
X288842D01*
Y177574D01*
X288629D01*
Y177680D01*
D02*
G37*
G36*
X309620Y174910D02*
X308768D01*
Y174803D01*
X308661D01*
Y174697D01*
X308555D01*
Y174590D01*
X308448D01*
Y174484D01*
Y174377D01*
Y174270D01*
X308342D01*
Y174164D01*
Y174057D01*
X308235D01*
Y173951D01*
Y173844D01*
Y173738D01*
Y173631D01*
X308129D01*
Y173524D01*
Y173418D01*
Y173311D01*
X308022D01*
Y173205D01*
Y173098D01*
Y172992D01*
X307915D01*
Y172885D01*
Y172779D01*
Y172672D01*
Y172565D01*
X307809D01*
Y172459D01*
Y172352D01*
Y172246D01*
Y172139D01*
X307702D01*
Y172033D01*
Y171926D01*
Y171820D01*
X307596D01*
Y171713D01*
Y171607D01*
Y171500D01*
X307489D01*
Y171393D01*
Y171287D01*
Y171180D01*
X307383D01*
Y171074D01*
Y170967D01*
Y170861D01*
X307276D01*
Y170754D01*
Y170648D01*
Y170541D01*
Y170434D01*
Y170328D01*
X307170D01*
Y170221D01*
Y170115D01*
Y170008D01*
X307063D01*
Y169902D01*
Y169795D01*
Y169688D01*
X306957D01*
Y169795D01*
Y169902D01*
Y170008D01*
Y170115D01*
X306850D01*
Y170221D01*
Y170328D01*
Y170434D01*
Y170541D01*
X306743D01*
Y170648D01*
Y170754D01*
Y170861D01*
X306637D01*
Y170967D01*
Y171074D01*
Y171180D01*
X306530D01*
Y171287D01*
Y171393D01*
Y171500D01*
X306424D01*
Y171607D01*
Y171713D01*
Y171820D01*
Y171926D01*
Y172033D01*
X306317D01*
Y172139D01*
Y172246D01*
Y172352D01*
X306211D01*
Y172459D01*
Y172565D01*
Y172672D01*
X306104D01*
Y172779D01*
Y172885D01*
Y172992D01*
Y173098D01*
X305997D01*
Y173205D01*
Y173311D01*
Y173418D01*
X305891D01*
Y173524D01*
Y173631D01*
Y173738D01*
X305784D01*
Y173844D01*
Y173951D01*
Y174057D01*
Y174164D01*
X305678D01*
Y174270D01*
Y174377D01*
X305571D01*
Y174484D01*
Y174590D01*
X305358D01*
Y174697D01*
X305252D01*
Y174803D01*
X305145D01*
Y174910D01*
X304186D01*
Y174803D01*
X303973D01*
Y174697D01*
X303866D01*
Y174590D01*
X303760D01*
Y174484D01*
X303653D01*
Y174377D01*
X303547D01*
Y174270D01*
Y174164D01*
Y174057D01*
X303440D01*
Y173951D01*
Y173844D01*
Y173738D01*
X303334D01*
Y173631D01*
Y173524D01*
Y173418D01*
X303227D01*
Y173311D01*
Y173205D01*
Y173098D01*
X303120D01*
Y172992D01*
Y172885D01*
Y172779D01*
Y172672D01*
Y172565D01*
X303014D01*
Y172459D01*
Y172352D01*
Y172246D01*
X302907D01*
Y172139D01*
Y172033D01*
Y171926D01*
Y171820D01*
X302801D01*
Y171713D01*
Y171607D01*
Y171500D01*
X302694D01*
Y171393D01*
Y171287D01*
Y171180D01*
X302588D01*
Y171074D01*
Y170967D01*
Y170861D01*
Y170754D01*
X302481D01*
Y170648D01*
Y170541D01*
Y170434D01*
Y170328D01*
X302375D01*
Y170221D01*
Y170115D01*
Y170008D01*
X302268D01*
Y169902D01*
Y169795D01*
Y169688D01*
X302162D01*
Y169795D01*
Y169902D01*
Y170008D01*
Y170115D01*
X302055D01*
Y170221D01*
Y170328D01*
Y170434D01*
Y170541D01*
X301948D01*
Y170648D01*
Y170754D01*
Y170861D01*
X301842D01*
Y170967D01*
Y171074D01*
Y171180D01*
X301735D01*
Y171287D01*
Y171393D01*
Y171500D01*
X301629D01*
Y171607D01*
Y171713D01*
Y171820D01*
Y171926D01*
Y172033D01*
X301522D01*
Y172139D01*
Y172246D01*
Y172352D01*
X301416D01*
Y172459D01*
Y172565D01*
Y172672D01*
X301309D01*
Y172779D01*
Y172885D01*
Y172992D01*
X301203D01*
Y173098D01*
Y173205D01*
Y173311D01*
X301096D01*
Y173418D01*
Y173524D01*
Y173631D01*
Y173738D01*
Y173844D01*
X300989D01*
Y173951D01*
Y174057D01*
Y174164D01*
X300883D01*
Y174270D01*
Y174377D01*
X300776D01*
Y174484D01*
Y174590D01*
X300670D01*
Y174697D01*
X300563D01*
Y174803D01*
X300457D01*
Y174910D01*
X299604D01*
Y174803D01*
X299391D01*
Y174697D01*
X299285D01*
Y174590D01*
Y174484D01*
X299178D01*
Y174377D01*
X299071D01*
Y174270D01*
Y174164D01*
Y174057D01*
Y173951D01*
Y173844D01*
Y173738D01*
X299178D01*
Y173631D01*
Y173524D01*
Y173418D01*
X299285D01*
Y173311D01*
Y173205D01*
Y173098D01*
X299391D01*
Y172992D01*
Y172885D01*
X299498D01*
Y172779D01*
Y172672D01*
Y172565D01*
X299604D01*
Y172459D01*
Y172352D01*
Y172246D01*
Y172139D01*
X299711D01*
Y172033D01*
Y171926D01*
Y171820D01*
X299817D01*
Y171713D01*
Y171607D01*
Y171500D01*
X299924D01*
Y171393D01*
Y171287D01*
X300030D01*
Y171180D01*
Y171074D01*
Y170967D01*
X300137D01*
Y170861D01*
Y170754D01*
Y170648D01*
X300243D01*
Y170541D01*
Y170434D01*
Y170328D01*
Y170221D01*
X300350D01*
Y170115D01*
Y170008D01*
Y169902D01*
X300457D01*
Y169795D01*
Y169688D01*
X300563D01*
Y169582D01*
Y169475D01*
Y169369D01*
X300670D01*
Y169262D01*
Y169156D01*
Y169049D01*
X300776D01*
Y168943D01*
Y168836D01*
Y168729D01*
Y168623D01*
X300883D01*
Y168516D01*
Y168410D01*
X300989D01*
Y168303D01*
Y168197D01*
Y168090D01*
X301096D01*
Y167984D01*
Y167877D01*
X301203D01*
Y167771D01*
Y167664D01*
X301309D01*
Y167557D01*
Y167451D01*
X301416D01*
Y167344D01*
X301629D01*
Y167238D01*
X301735D01*
Y167131D01*
X302694D01*
Y167238D01*
X302907D01*
Y167344D01*
X303014D01*
Y167451D01*
X303120D01*
Y167557D01*
X303227D01*
Y167664D01*
Y167771D01*
X303334D01*
Y167877D01*
X303440D01*
Y167984D01*
Y168090D01*
Y168197D01*
Y168303D01*
X303547D01*
Y168410D01*
Y168516D01*
Y168623D01*
X303653D01*
Y168729D01*
Y168836D01*
Y168943D01*
Y169049D01*
X303760D01*
Y169156D01*
Y169262D01*
Y169369D01*
X303866D01*
Y169475D01*
Y169582D01*
Y169688D01*
X303973D01*
Y169795D01*
Y169902D01*
Y170008D01*
X304080D01*
Y170115D01*
Y170221D01*
Y170328D01*
Y170434D01*
Y170541D01*
X304186D01*
Y170648D01*
Y170754D01*
Y170861D01*
X304293D01*
Y170967D01*
Y171074D01*
Y171180D01*
X304399D01*
Y171287D01*
Y171393D01*
Y171500D01*
X304506D01*
Y171607D01*
Y171713D01*
Y171820D01*
Y171926D01*
X304612D01*
Y172033D01*
X304719D01*
Y171926D01*
Y171820D01*
Y171713D01*
X304825D01*
Y171607D01*
Y171500D01*
Y171393D01*
X304932D01*
Y171287D01*
Y171180D01*
Y171074D01*
Y170967D01*
Y170861D01*
X305038D01*
Y170754D01*
Y170648D01*
Y170541D01*
X305145D01*
Y170434D01*
Y170328D01*
Y170221D01*
X305252D01*
Y170115D01*
Y170008D01*
Y169902D01*
Y169795D01*
X305358D01*
Y169688D01*
Y169582D01*
Y169475D01*
X305465D01*
Y169369D01*
Y169262D01*
Y169156D01*
X305571D01*
Y169049D01*
Y168943D01*
Y168836D01*
Y168729D01*
Y168623D01*
X305678D01*
Y168516D01*
Y168410D01*
Y168303D01*
X305784D01*
Y168197D01*
Y168090D01*
Y167984D01*
X305891D01*
Y167877D01*
Y167771D01*
X305997D01*
Y167664D01*
Y167557D01*
X306104D01*
Y167451D01*
X306211D01*
Y167344D01*
X306317D01*
Y167238D01*
X306530D01*
Y167131D01*
X307489D01*
Y167238D01*
X307702D01*
Y167344D01*
X307809D01*
Y167451D01*
X307915D01*
Y167557D01*
Y167664D01*
X308022D01*
Y167771D01*
X308129D01*
Y167877D01*
Y167984D01*
Y168090D01*
X308235D01*
Y168197D01*
Y168303D01*
Y168410D01*
X308342D01*
Y168516D01*
Y168623D01*
X308448D01*
Y168729D01*
Y168836D01*
Y168943D01*
X308555D01*
Y169049D01*
Y169156D01*
Y169262D01*
X308661D01*
Y169369D01*
Y169475D01*
Y169582D01*
X308768D01*
Y169688D01*
Y169795D01*
Y169902D01*
X308875D01*
Y170008D01*
Y170115D01*
Y170221D01*
X308981D01*
Y170328D01*
Y170434D01*
Y170541D01*
X309088D01*
Y170648D01*
Y170754D01*
Y170861D01*
X309194D01*
Y170967D01*
Y171074D01*
X309301D01*
Y171180D01*
Y171287D01*
Y171393D01*
Y171500D01*
X309407D01*
Y171607D01*
Y171713D01*
Y171820D01*
X309514D01*
Y171926D01*
Y172033D01*
X309620D01*
Y172139D01*
Y172246D01*
Y172352D01*
X309727D01*
Y172459D01*
Y172565D01*
Y172672D01*
X309834D01*
Y172779D01*
Y172885D01*
Y172992D01*
X309940D01*
Y173098D01*
Y173205D01*
Y173311D01*
Y173418D01*
X310047D01*
Y173524D01*
Y173631D01*
Y173738D01*
X310153D01*
Y173844D01*
Y173951D01*
Y174057D01*
Y174164D01*
Y174270D01*
Y174377D01*
X310047D01*
Y174484D01*
Y174590D01*
X309940D01*
Y174697D01*
X309834D01*
Y174803D01*
X309620D01*
Y174910D01*
D02*
G37*
G36*
X288735D02*
X287883D01*
Y174803D01*
X287670D01*
Y174697D01*
X287563D01*
Y174590D01*
X287457D01*
Y174484D01*
Y174377D01*
X287350D01*
Y174270D01*
Y174164D01*
X287244D01*
Y174057D01*
Y173951D01*
Y173844D01*
Y173738D01*
Y173631D01*
Y173524D01*
Y173418D01*
Y173311D01*
Y173205D01*
Y173098D01*
Y172992D01*
Y172885D01*
Y172779D01*
Y172672D01*
Y172565D01*
Y172459D01*
Y172352D01*
Y172246D01*
Y172139D01*
Y172033D01*
Y171926D01*
Y171820D01*
Y171713D01*
Y171607D01*
Y171500D01*
Y171393D01*
Y171287D01*
Y171180D01*
Y171074D01*
Y170967D01*
Y170861D01*
Y170754D01*
Y170648D01*
Y170541D01*
Y170434D01*
Y170328D01*
Y170221D01*
Y170115D01*
Y170008D01*
Y169902D01*
Y169795D01*
Y169688D01*
Y169582D01*
Y169475D01*
Y169369D01*
Y169262D01*
Y169156D01*
Y169049D01*
Y168943D01*
Y168836D01*
Y168729D01*
Y168623D01*
Y168516D01*
Y168410D01*
Y168303D01*
Y168197D01*
Y168090D01*
Y167984D01*
Y167877D01*
X287350D01*
Y167771D01*
Y167664D01*
Y167557D01*
X287457D01*
Y167451D01*
X287563D01*
Y167344D01*
X287670D01*
Y167238D01*
X287883D01*
Y167131D01*
X288735D01*
Y167238D01*
X288842D01*
Y167344D01*
X288949D01*
Y167451D01*
X289055D01*
Y167557D01*
X289162D01*
Y167664D01*
X289268D01*
Y167771D01*
Y167877D01*
Y167984D01*
Y168090D01*
Y168197D01*
Y168303D01*
Y168410D01*
Y168516D01*
Y168623D01*
Y168729D01*
Y168836D01*
Y168943D01*
Y169049D01*
Y169156D01*
Y169262D01*
Y169369D01*
Y169475D01*
Y169582D01*
Y169688D01*
Y169795D01*
Y169902D01*
Y170008D01*
Y170115D01*
Y170221D01*
Y170328D01*
Y170434D01*
Y170541D01*
Y170648D01*
Y170754D01*
Y170861D01*
Y170967D01*
Y171074D01*
Y171180D01*
Y171287D01*
Y171393D01*
Y171500D01*
Y171607D01*
Y171713D01*
Y171820D01*
Y171926D01*
Y172033D01*
Y172139D01*
Y172246D01*
Y172352D01*
Y172459D01*
Y172565D01*
Y172672D01*
Y172779D01*
Y172885D01*
Y172992D01*
Y173098D01*
Y173205D01*
Y173311D01*
Y173418D01*
Y173524D01*
Y173631D01*
Y173738D01*
Y173844D01*
Y173951D01*
Y174057D01*
Y174164D01*
Y174270D01*
Y174377D01*
X289162D01*
Y174484D01*
X289055D01*
Y174590D01*
X288949D01*
Y174697D01*
X288842D01*
Y174803D01*
X288735D01*
Y174910D01*
D02*
G37*
%LPD*%
G36*
X294916Y173311D02*
X295342D01*
Y173205D01*
X295448D01*
Y173098D01*
X295662D01*
Y172992D01*
X295768D01*
Y172885D01*
X295875D01*
Y172779D01*
Y172672D01*
X295981D01*
Y172565D01*
X296088D01*
Y172459D01*
Y172352D01*
Y172246D01*
Y172139D01*
X296194D01*
Y172033D01*
Y171926D01*
Y171820D01*
X296301D01*
Y171713D01*
Y171607D01*
Y171500D01*
Y171393D01*
Y171287D01*
Y171180D01*
Y171074D01*
Y170967D01*
Y170861D01*
Y170754D01*
Y170648D01*
Y170541D01*
Y170434D01*
Y170328D01*
Y170221D01*
X296194D01*
Y170115D01*
Y170008D01*
Y169902D01*
X296088D01*
Y169795D01*
Y169688D01*
Y169582D01*
Y169475D01*
X295981D01*
Y169369D01*
X295875D01*
Y169262D01*
Y169156D01*
X295768D01*
Y169049D01*
X295662D01*
Y168943D01*
X295448D01*
Y168836D01*
X295235D01*
Y168729D01*
X294916D01*
Y168623D01*
X294170D01*
Y168729D01*
X293744D01*
Y168836D01*
X293637D01*
Y168943D01*
X293424D01*
Y169049D01*
X293317D01*
Y169156D01*
X293211D01*
Y169262D01*
Y169369D01*
X293104D01*
Y169475D01*
X292998D01*
Y169582D01*
Y169688D01*
X292891D01*
Y169795D01*
Y169902D01*
Y170008D01*
X292785D01*
Y170115D01*
Y170221D01*
Y170328D01*
Y170434D01*
Y170541D01*
Y170648D01*
Y170754D01*
Y170861D01*
Y170967D01*
Y171074D01*
Y171180D01*
Y171287D01*
Y171393D01*
Y171500D01*
Y171607D01*
Y171713D01*
Y171820D01*
Y171926D01*
Y172033D01*
X292891D01*
Y172139D01*
Y172246D01*
Y172352D01*
X292998D01*
Y172459D01*
Y172565D01*
X293104D01*
Y172672D01*
X293211D01*
Y172779D01*
Y172885D01*
X293317D01*
Y172992D01*
X293424D01*
Y173098D01*
X293637D01*
Y173205D01*
X293744D01*
Y173311D01*
X294170D01*
Y173418D01*
X294916D01*
Y173311D01*
D02*
G37*
D10*
X318307Y256221D02*
G03*
X318307Y256221I-1969J0D01*
G01*
X252753Y218996D02*
G03*
X252753Y218996I-1087J0D01*
G01*
X226771D02*
G03*
X226771Y218996I-1087J0D01*
G01*
X200789D02*
G03*
X200789Y218996I-1087J0D01*
G01*
X174808D02*
G03*
X174808Y218996I-1087J0D01*
G01*
X210138Y161909D02*
X238681D01*
X210138Y159449D02*
Y182579D01*
X238681D01*
Y159449D02*
Y182579D01*
X210138Y159449D02*
X238681D01*
X241713Y161909D02*
X270256D01*
X241713Y159449D02*
Y182579D01*
X270256D01*
Y159449D02*
Y182579D01*
X241713Y159449D02*
X270256D01*
X178130Y161909D02*
X206673D01*
X178130Y159449D02*
Y182579D01*
X206673D01*
Y159449D02*
Y182579D01*
X178130Y159449D02*
X206673D01*
X145846Y161909D02*
X174390D01*
X145846Y159449D02*
Y182579D01*
X174390D01*
Y159449D02*
Y182579D01*
X145846Y159449D02*
X174390D01*
X94980Y163799D02*
Y192342D01*
X74311Y163799D02*
X97441D01*
X74311D02*
Y192342D01*
X97441D01*
Y163799D02*
Y192342D01*
X68405Y163799D02*
Y192342D01*
X47736Y163799D02*
X70866D01*
X47736D02*
Y192342D01*
X70866D01*
Y163799D02*
Y192342D01*
X361713Y310531D02*
Y339075D01*
X341043Y310531D02*
X364173D01*
X341043D02*
Y339075D01*
X364173D01*
Y310531D02*
Y339075D01*
X361713Y276161D02*
Y304705D01*
X341043Y276161D02*
X364173D01*
X341043D02*
Y304705D01*
X364173D01*
Y276161D02*
Y304705D01*
X138120Y343351D02*
X139120D01*
Y342351D02*
Y344351D01*
X312402Y216850D02*
Y260158D01*
Y216850D02*
X337992D01*
Y260158D01*
X312402D02*
X337992D01*
X233950Y207283D02*
Y223524D01*
X254619Y206791D02*
Y223524D01*
X207968Y207283D02*
Y223524D01*
X228637Y206791D02*
Y223524D01*
X181986Y207283D02*
Y223524D01*
X202655Y206791D02*
Y223524D01*
X176673Y206791D02*
Y223524D01*
X156004Y207283D02*
Y223524D01*
X169561Y346302D02*
X180585D01*
Y342365D02*
Y346302D01*
X169561Y342365D02*
Y346302D01*
Y342365D02*
X180585D01*
X217216Y341535D02*
X218216D01*
Y340535D02*
Y342535D01*
X217043Y333465D02*
X218043D01*
Y332465D02*
Y334465D01*
X106299Y346850D02*
X108858Y349409D01*
X87992D02*
X88150Y349252D01*
X87992Y349409D02*
Y367717D01*
X88150Y349252D02*
X90551Y346850D01*
X101181D02*
X106299D01*
X108858Y349409D02*
Y367717D01*
X101181D02*
X108858D01*
X87992D02*
X95669D01*
X90551Y346850D02*
X95669D01*
X104816Y343027D02*
X104399Y343444D01*
X103566D01*
X103150Y343027D01*
Y341361D01*
X103566Y340945D01*
X104399D01*
X104816Y341361D01*
X105649Y343027D02*
X106065Y343444D01*
X106898D01*
X107315Y343027D01*
Y342611D01*
X106898Y342195D01*
X107315Y341778D01*
Y341361D01*
X106898Y340945D01*
X106065D01*
X105649Y341361D01*
Y341778D01*
X106065Y342195D01*
X105649Y342611D01*
Y343027D01*
X106065Y342195D02*
X106898D01*
X108148Y343027D02*
X108564Y343444D01*
X109398D01*
X109814Y343027D01*
Y341361D01*
X109398Y340945D01*
X108564D01*
X108148Y341361D01*
Y343027D01*
X91233Y321026D02*
X90816Y321443D01*
X89983D01*
X89567Y321026D01*
Y319360D01*
X89983Y318944D01*
X90816D01*
X91233Y319360D01*
X93732Y318944D02*
X92066D01*
X93732Y320610D01*
Y321026D01*
X93316Y321443D01*
X92483D01*
X92066Y321026D01*
X197244Y332283D02*
Y334783D01*
X198494D01*
X198910Y334366D01*
Y333533D01*
X198494Y333117D01*
X197244D01*
X198077D02*
X198910Y332283D01*
X199743D02*
X200576D01*
X200160D01*
Y334783D01*
X199743Y334366D01*
X195843Y340551D02*
Y343050D01*
X197093D01*
X197509Y342634D01*
Y341801D01*
X197093Y341384D01*
X195843D01*
X196676D02*
X197509Y340551D01*
X198342Y342634D02*
X198759Y343050D01*
X199592D01*
X200008Y342634D01*
Y342217D01*
X199592Y341801D01*
X199175D01*
X199592D01*
X200008Y341384D01*
Y340968D01*
X199592Y340551D01*
X198759D01*
X198342Y340968D01*
X226204Y334783D02*
Y332283D01*
X227454D01*
X227870Y332700D01*
Y334366D01*
X227454Y334783D01*
X226204D01*
X228703Y334366D02*
X229120Y334783D01*
X229953D01*
X230369Y334366D01*
Y333950D01*
X229953Y333533D01*
X229536D01*
X229953D01*
X230369Y333117D01*
Y332700D01*
X229953Y332283D01*
X229120D01*
X228703Y332700D01*
X228346Y342657D02*
Y340158D01*
X229596D01*
X230013Y340574D01*
Y342240D01*
X229596Y342657D01*
X228346D01*
X232095Y340158D02*
Y342657D01*
X230846Y341407D01*
X232512D01*
X308760Y315945D02*
Y318444D01*
X310009D01*
X310426Y318027D01*
Y317195D01*
X310009Y316778D01*
X308760D01*
X309593D02*
X310426Y315945D01*
X312925D02*
X311259D01*
X312925Y317611D01*
Y318027D01*
X312509Y318444D01*
X311676D01*
X311259Y318027D01*
X313758D02*
X314175Y318444D01*
X315008D01*
X315424Y318027D01*
Y317611D01*
X315008Y317195D01*
X314591D01*
X315008D01*
X315424Y316778D01*
Y316361D01*
X315008Y315945D01*
X314175D01*
X313758Y316361D01*
X308071Y279528D02*
Y282027D01*
X309320D01*
X309737Y281610D01*
Y280777D01*
X309320Y280361D01*
X308071D01*
X308904D02*
X309737Y279528D01*
X312236D02*
X310570D01*
X312236Y281194D01*
Y281610D01*
X311820Y282027D01*
X310987D01*
X310570Y281610D01*
X314735Y279528D02*
X313069D01*
X314735Y281194D01*
Y281610D01*
X314319Y282027D01*
X313486D01*
X313069Y281610D01*
X308753Y347555D02*
X308336Y347972D01*
X307503D01*
X307087Y347555D01*
Y345889D01*
X307503Y345472D01*
X308336D01*
X308753Y345889D01*
X309586Y345472D02*
X310419D01*
X310002D01*
Y347972D01*
X309586Y347555D01*
X313335Y345472D02*
X311668D01*
X313335Y347139D01*
Y347555D01*
X312918Y347972D01*
X312085D01*
X311668Y347555D01*
X155375Y311024D02*
X157457D01*
X157874Y311440D01*
Y312273D01*
X157457Y312690D01*
X155375D01*
X157874Y313523D02*
Y314356D01*
Y313939D01*
X155375D01*
X155791Y313523D01*
X239627Y305118D02*
X241709D01*
X242126Y305535D01*
Y306368D01*
X241709Y306784D01*
X239627D01*
Y309283D02*
Y307617D01*
X240876D01*
X240460Y308450D01*
Y308867D01*
X240876Y309283D01*
X241709D01*
X242126Y308867D01*
Y308034D01*
X241709Y307617D01*
X302677Y265857D02*
Y263774D01*
X303094Y263357D01*
X303927D01*
X304343Y263774D01*
Y265857D01*
X306426Y263357D02*
Y265857D01*
X305176Y264607D01*
X306843D01*
X174213Y358798D02*
Y356716D01*
X174629Y356299D01*
X175462D01*
X175879Y356716D01*
Y358798D01*
X178378Y356299D02*
X176712D01*
X178378Y357965D01*
Y358382D01*
X177961Y358798D01*
X177128D01*
X176712Y358382D01*
X120971Y348151D02*
Y350650D01*
X122221D01*
X122637Y350234D01*
Y349401D01*
X122221Y348984D01*
X120971D01*
X121804D02*
X122637Y348151D01*
X125136D02*
X123470D01*
X125136Y349817D01*
Y350234D01*
X124720Y350650D01*
X123887D01*
X123470Y350234D01*
X274606Y335630D02*
Y338129D01*
X275856D01*
X276272Y337713D01*
Y336879D01*
X275856Y336463D01*
X274606D01*
X275439D02*
X276272Y335630D01*
X277105D02*
X277939D01*
X277522D01*
Y338129D01*
X277105Y337713D01*
X280854Y338129D02*
X280021Y337713D01*
X279188Y336879D01*
Y336047D01*
X279605Y335630D01*
X280438D01*
X280854Y336047D01*
Y336463D01*
X280438Y336879D01*
X279188D01*
X274606Y341535D02*
Y344035D01*
X275856D01*
X276272Y343618D01*
Y342785D01*
X275856Y342369D01*
X274606D01*
X275439D02*
X276272Y341535D01*
X277105D02*
X277939D01*
X277522D01*
Y344035D01*
X277105Y343618D01*
X279188Y344035D02*
X280854D01*
Y343618D01*
X279188Y341952D01*
Y341535D01*
X235236Y340371D02*
Y342870D01*
X236486D01*
X236902Y342454D01*
Y341621D01*
X236486Y341204D01*
X235236D01*
X236069D02*
X236902Y340371D01*
X237735D02*
X238568D01*
X238152D01*
Y342870D01*
X237735Y342454D01*
X239818D02*
X240235Y342870D01*
X241068D01*
X241484Y342454D01*
Y340788D01*
X241068Y340371D01*
X240235D01*
X239818Y340788D01*
Y342454D01*
X236614Y334646D02*
Y337145D01*
X237864D01*
X238280Y336728D01*
Y335895D01*
X237864Y335479D01*
X236614D01*
X237447D02*
X238280Y334646D01*
X239113Y335062D02*
X239530Y334646D01*
X240363D01*
X240779Y335062D01*
Y336728D01*
X240363Y337145D01*
X239530D01*
X239113Y336728D01*
Y336312D01*
X239530Y335895D01*
X240779D01*
X257874Y254921D02*
X255375D01*
Y256171D01*
X255791Y256587D01*
X256624D01*
X257041Y256171D01*
Y254921D01*
Y255754D02*
X257874Y256587D01*
Y257420D02*
Y258254D01*
Y257837D01*
X255375D01*
X255791Y257420D01*
X257457Y259503D02*
X257874Y259920D01*
Y260753D01*
X257457Y261169D01*
X255791D01*
X255375Y260753D01*
Y259920D01*
X255791Y259503D01*
X256208D01*
X256624Y259920D01*
Y261169D01*
X251969Y254921D02*
X249469D01*
Y256171D01*
X249886Y256587D01*
X250719D01*
X251135Y256171D01*
Y254921D01*
Y255754D02*
X251969Y256587D01*
Y257420D02*
Y258254D01*
Y257837D01*
X249469D01*
X249886Y257420D01*
Y259503D02*
X249469Y259920D01*
Y260753D01*
X249886Y261169D01*
X250302D01*
X250719Y260753D01*
X251135Y261169D01*
X251552D01*
X251969Y260753D01*
Y259920D01*
X251552Y259503D01*
X251135D01*
X250719Y259920D01*
X250302Y259503D01*
X249886D01*
X250719Y259920D02*
Y260753D01*
X246063Y254921D02*
X243564D01*
Y256171D01*
X243980Y256587D01*
X244813D01*
X245230Y256171D01*
Y254921D01*
Y255754D02*
X246063Y256587D01*
Y257420D02*
Y258254D01*
Y257837D01*
X243564D01*
X243980Y257420D01*
X243564Y261169D02*
Y259503D01*
X244813D01*
X244397Y260336D01*
Y260753D01*
X244813Y261169D01*
X245647D01*
X246063Y260753D01*
Y259920D01*
X245647Y259503D01*
X240158Y254921D02*
X237658D01*
Y256171D01*
X238075Y256587D01*
X238908D01*
X239324Y256171D01*
Y254921D01*
Y255754D02*
X240158Y256587D01*
Y257420D02*
Y258254D01*
Y257837D01*
X237658D01*
X238075Y257420D01*
X240158Y260753D02*
X237658D01*
X238908Y259503D01*
Y261169D01*
X234252Y254921D02*
X231753D01*
Y256171D01*
X232169Y256587D01*
X233002D01*
X233419Y256171D01*
Y254921D01*
Y255754D02*
X234252Y256587D01*
Y257420D02*
Y258254D01*
Y257837D01*
X231753D01*
X232169Y257420D01*
Y259503D02*
X231753Y259920D01*
Y260753D01*
X232169Y261169D01*
X232586D01*
X233002Y260753D01*
Y260336D01*
Y260753D01*
X233419Y261169D01*
X233835D01*
X234252Y260753D01*
Y259920D01*
X233835Y259503D01*
X288447Y301715D02*
Y304214D01*
X289697D01*
X290113Y303798D01*
Y302965D01*
X289697Y302548D01*
X288447D01*
X289280D02*
X290113Y301715D01*
X290947D02*
X291779D01*
X291363D01*
Y304214D01*
X290947Y303798D01*
X294695Y301715D02*
X293029D01*
X294695Y303381D01*
Y303798D01*
X294279Y304214D01*
X293446D01*
X293029Y303798D01*
X288947Y320715D02*
Y323214D01*
X290197D01*
X290613Y322798D01*
Y321965D01*
X290197Y321548D01*
X288947D01*
X289780D02*
X290613Y320715D01*
X291446D02*
X292280D01*
X291863D01*
Y323214D01*
X291446Y322798D01*
X293529Y320715D02*
X294362D01*
X293946D01*
Y323214D01*
X293529Y322798D01*
X224410Y283284D02*
Y285784D01*
X225659D01*
X226076Y285367D01*
Y284534D01*
X225659Y284118D01*
X224410D01*
X225242D02*
X226076Y283284D01*
X226909Y285367D02*
X227325Y285784D01*
X228158D01*
X228575Y285367D01*
Y284951D01*
X228158Y284534D01*
X228575Y284118D01*
Y283701D01*
X228158Y283284D01*
X227325D01*
X226909Y283701D01*
Y284118D01*
X227325Y284534D01*
X226909Y284951D01*
Y285367D01*
X227325Y284534D02*
X228158D01*
X224410Y289370D02*
Y291869D01*
X225659D01*
X226076Y291453D01*
Y290620D01*
X225659Y290203D01*
X224410D01*
X225242D02*
X226076Y289370D01*
X226909Y291869D02*
X228575D01*
Y291453D01*
X226909Y289787D01*
Y289370D01*
X224410Y295276D02*
Y297775D01*
X225659D01*
X226076Y297358D01*
Y296525D01*
X225659Y296109D01*
X224410D01*
X225242D02*
X226076Y295276D01*
X228575Y297775D02*
X227742Y297358D01*
X226909Y296525D01*
Y295692D01*
X227325Y295276D01*
X228158D01*
X228575Y295692D01*
Y296109D01*
X228158Y296525D01*
X226909D01*
X235236Y326772D02*
X232737D01*
Y328021D01*
X233154Y328438D01*
X233987D01*
X234403Y328021D01*
Y326772D01*
Y327605D02*
X235236Y328438D01*
X232737Y330937D02*
Y329271D01*
X233987D01*
X233570Y330104D01*
Y330520D01*
X233987Y330937D01*
X234820D01*
X235236Y330520D01*
Y329687D01*
X234820Y329271D01*
X222441Y235236D02*
Y237735D01*
X223691D01*
X224107Y237319D01*
Y236486D01*
X223691Y236069D01*
X222441D01*
X223274D02*
X224107Y235236D01*
X226606D02*
X224940D01*
X226606Y236902D01*
Y237319D01*
X226190Y237735D01*
X225357D01*
X224940Y237319D01*
X227439Y235236D02*
X228272D01*
X227856D01*
Y237735D01*
X227439Y237319D01*
X229522Y234820D02*
X231188D01*
X232021Y237319D02*
X232438Y237735D01*
X233271D01*
X233687Y237319D01*
Y236902D01*
X233271Y236486D01*
X232854D01*
X233271D01*
X233687Y236069D01*
Y235653D01*
X233271Y235236D01*
X232438D01*
X232021Y235653D01*
X171260Y235236D02*
Y237735D01*
X172509D01*
X172926Y237319D01*
Y236486D01*
X172509Y236069D01*
X171260D01*
X172093D02*
X172926Y235236D01*
X175425D02*
X173759D01*
X175425Y236902D01*
Y237319D01*
X175009Y237735D01*
X174176D01*
X173759Y237319D01*
X176258Y235236D02*
X177091D01*
X176675D01*
Y237735D01*
X176258Y237319D01*
X178341Y234820D02*
X180007D01*
X180840Y235236D02*
X181673D01*
X181257D01*
Y237735D01*
X180840Y237319D01*
X221457Y240158D02*
Y242657D01*
X222706D01*
X223123Y242240D01*
Y241407D01*
X222706Y240990D01*
X221457D01*
X222290D02*
X223123Y240158D01*
X225622D02*
X223956D01*
X225622Y241824D01*
Y242240D01*
X225205Y242657D01*
X224372D01*
X223956Y242240D01*
X226455D02*
X226872Y242657D01*
X227705D01*
X228121Y242240D01*
Y240574D01*
X227705Y240158D01*
X226872D01*
X226455Y240574D01*
Y242240D01*
X228954Y239741D02*
X230620D01*
X231453Y242240D02*
X231870Y242657D01*
X232703D01*
X233120Y242240D01*
Y241824D01*
X232703Y241407D01*
X232287D01*
X232703D01*
X233120Y240990D01*
Y240574D01*
X232703Y240158D01*
X231870D01*
X231453Y240574D01*
X171260Y241142D02*
Y243641D01*
X172509D01*
X172926Y243224D01*
Y242391D01*
X172509Y241975D01*
X171260D01*
X172093D02*
X172926Y241142D01*
X175425D02*
X173759D01*
X175425Y242808D01*
Y243224D01*
X175009Y243641D01*
X174176D01*
X173759Y243224D01*
X176258D02*
X176675Y243641D01*
X177508D01*
X177924Y243224D01*
Y241558D01*
X177508Y241142D01*
X176675D01*
X176258Y241558D01*
Y243224D01*
X178757Y240725D02*
X180423D01*
X181257Y241142D02*
X182090D01*
X181673D01*
Y243641D01*
X181257Y243224D01*
X133971Y350350D02*
Y347851D01*
X135221D01*
X135637Y348268D01*
Y349934D01*
X135221Y350350D01*
X133971D01*
X138136Y347851D02*
X136470D01*
X138136Y349517D01*
Y349934D01*
X137720Y350350D01*
X136887D01*
X136470Y349934D01*
X104300Y302876D02*
Y300377D01*
X105966D01*
X106799D02*
X107632D01*
X107216D01*
Y302876D01*
X106799Y302460D01*
X226832Y303150D02*
Y303983D01*
Y303566D01*
X229331D01*
Y303150D01*
Y303983D01*
X226832Y305232D02*
X229331D01*
Y306482D01*
X228914Y306898D01*
X227248D01*
X226832Y306482D01*
Y305232D01*
X228081Y307732D02*
Y309398D01*
X229331Y310231D02*
X226832D01*
Y311480D01*
X227248Y311897D01*
X228081D01*
X228498Y311480D01*
Y310231D01*
X226832Y312730D02*
X229331D01*
X228498Y313563D01*
X229331Y314396D01*
X226832D01*
X229331Y315229D02*
X226832D01*
X227665Y316062D01*
X226832Y316895D01*
X229331D01*
Y317728D02*
Y318561D01*
Y318145D01*
X226832D01*
X227248Y317728D01*
X107198Y334252D02*
X105532D01*
Y333002D01*
X106365D01*
X105532D01*
Y331753D01*
X108031D02*
X108864D01*
X108447D01*
Y334252D01*
X108031Y333835D01*
X124411Y327376D02*
Y324876D01*
X125661D01*
X126077Y325293D01*
Y326959D01*
X125661Y327376D01*
X124411D01*
X126910Y324876D02*
X127743D01*
X127327D01*
Y327376D01*
X126910Y326959D01*
X239059Y327453D02*
X238643Y327037D01*
Y326204D01*
X239059Y325787D01*
X240725D01*
X241142Y326204D01*
Y327037D01*
X240725Y327453D01*
X241142Y328287D02*
Y329120D01*
Y328703D01*
X238643D01*
X239059Y328287D01*
Y330369D02*
X238643Y330786D01*
Y331619D01*
X239059Y332035D01*
X240725D01*
X241142Y331619D01*
Y330786D01*
X240725Y330369D01*
X239059D01*
X185790Y352987D02*
X185373Y353403D01*
X184540D01*
X184124Y352987D01*
Y351321D01*
X184540Y350904D01*
X185373D01*
X185790Y351321D01*
X188289Y353403D02*
X186623D01*
Y352153D01*
X187456Y352570D01*
X187872D01*
X188289Y352153D01*
Y351321D01*
X187872Y350904D01*
X187039D01*
X186623Y351321D01*
X165145Y353014D02*
X164728Y353431D01*
X163895D01*
X163479Y353014D01*
Y351348D01*
X163895Y350932D01*
X164728D01*
X165145Y351348D01*
X167227Y350932D02*
Y353431D01*
X165978Y352181D01*
X167644D01*
X96548Y273736D02*
X96131Y274153D01*
X95298D01*
X94882Y273736D01*
Y272070D01*
X95298Y271654D01*
X96131D01*
X96548Y272070D01*
X97381Y273736D02*
X97798Y274153D01*
X98631D01*
X99047Y273736D01*
Y273320D01*
X98631Y272903D01*
X98214D01*
X98631D01*
X99047Y272487D01*
Y272070D01*
X98631Y271654D01*
X97798D01*
X97381Y272070D01*
X311901Y327096D02*
X313983D01*
X314400Y327513D01*
Y328346D01*
X313983Y328762D01*
X311901D01*
Y329595D02*
Y331262D01*
X312317D01*
X313983Y329595D01*
X314400D01*
X195866Y241142D02*
Y243641D01*
X197116D01*
X197532Y243224D01*
Y242391D01*
X197116Y241975D01*
X195866D01*
X196699D02*
X197532Y241142D01*
X200031D02*
X198365D01*
X200031Y242808D01*
Y243224D01*
X199615Y243641D01*
X198782D01*
X198365Y243224D01*
X200865D02*
X201281Y243641D01*
X202114D01*
X202531Y243224D01*
Y241558D01*
X202114Y241142D01*
X201281D01*
X200865Y241558D01*
Y243224D01*
X203364Y240725D02*
X205030D01*
X207529Y241142D02*
X205863D01*
X207529Y242808D01*
Y243224D01*
X207113Y243641D01*
X206279D01*
X205863Y243224D01*
X196850Y235236D02*
Y237735D01*
X198100D01*
X198516Y237319D01*
Y236486D01*
X198100Y236069D01*
X196850D01*
X197683D02*
X198516Y235236D01*
X201016D02*
X199350D01*
X201016Y236902D01*
Y237319D01*
X200599Y237735D01*
X199766D01*
X199350Y237319D01*
X201849Y235236D02*
X202682D01*
X202265D01*
Y237735D01*
X201849Y237319D01*
X203931Y234820D02*
X205598D01*
X208097Y235236D02*
X206431D01*
X208097Y236902D01*
Y237319D01*
X207680Y237735D01*
X206847D01*
X206431Y237319D01*
X264764Y254921D02*
X262265D01*
Y256171D01*
X262681Y256587D01*
X263514D01*
X263931Y256171D01*
Y254921D01*
Y255754D02*
X264764Y256587D01*
Y258670D02*
X262265D01*
X263514Y257420D01*
Y259087D01*
X262681Y259920D02*
X262265Y260336D01*
Y261169D01*
X262681Y261586D01*
X264347D01*
X264764Y261169D01*
Y260336D01*
X264347Y259920D01*
X262681D01*
X160131Y197267D02*
Y198933D01*
X159714Y199350D01*
X158881D01*
X158465Y198933D01*
Y197267D01*
X158881Y196850D01*
X159714D01*
X159298Y197683D02*
X160131Y196850D01*
X159714D02*
X160131Y197267D01*
X160964Y196850D02*
X161797D01*
X161380D01*
Y199350D01*
X160964Y198933D01*
X184737Y197267D02*
Y198933D01*
X184320Y199350D01*
X183487D01*
X183071Y198933D01*
Y197267D01*
X183487Y196850D01*
X184320D01*
X183904Y197683D02*
X184737Y196850D01*
X184320D02*
X184737Y197267D01*
X187236Y196850D02*
X185570D01*
X187236Y198516D01*
Y198933D01*
X186820Y199350D01*
X185987D01*
X185570Y198933D01*
X211312Y197267D02*
Y198933D01*
X210895Y199350D01*
X210062D01*
X209646Y198933D01*
Y197267D01*
X210062Y196850D01*
X210895D01*
X210479Y197683D02*
X211312Y196850D01*
X210895D02*
X211312Y197267D01*
X212145Y198933D02*
X212561Y199350D01*
X213394D01*
X213811Y198933D01*
Y198516D01*
X213394Y198100D01*
X212978D01*
X213394D01*
X213811Y197683D01*
Y197267D01*
X213394Y196850D01*
X212561D01*
X212145Y197267D01*
X236902D02*
Y198933D01*
X236486Y199350D01*
X235653D01*
X235236Y198933D01*
Y197267D01*
X235653Y196850D01*
X236486D01*
X236069Y197683D02*
X236902Y196850D01*
X236486D02*
X236902Y197267D01*
X238985Y196850D02*
Y199350D01*
X237735Y198100D01*
X239402D01*
X148622Y241142D02*
Y243641D01*
X149872D01*
X150288Y243224D01*
Y242391D01*
X149872Y241975D01*
X148622D01*
X149455D02*
X150288Y241142D01*
X152787D02*
X151121D01*
X152787Y242808D01*
Y243224D01*
X152371Y243641D01*
X151538D01*
X151121Y243224D01*
X153620D02*
X154037Y243641D01*
X154870D01*
X155287Y243224D01*
Y241558D01*
X154870Y241142D01*
X154037D01*
X153620Y241558D01*
Y243224D01*
X149606Y235236D02*
Y237735D01*
X150856D01*
X151272Y237319D01*
Y236486D01*
X150856Y236069D01*
X149606D01*
X150439D02*
X151272Y235236D01*
X153772D02*
X152105D01*
X153772Y236902D01*
Y237319D01*
X153355Y237735D01*
X152522D01*
X152105Y237319D01*
X154605Y235236D02*
X155438D01*
X155021D01*
Y237735D01*
X154605Y237319D01*
X308753Y311138D02*
X308336Y311554D01*
X307503D01*
X307087Y311138D01*
Y309472D01*
X307503Y309055D01*
X308336D01*
X308753Y309472D01*
X309586Y309055D02*
X310419D01*
X310002D01*
Y311554D01*
X309586Y311138D01*
X311668D02*
X312085Y311554D01*
X312918D01*
X313335Y311138D01*
Y310721D01*
X312918Y310305D01*
X312502D01*
X312918D01*
X313335Y309888D01*
Y309472D01*
X312918Y309055D01*
X312085D01*
X311668Y309472D01*
X310493Y291339D02*
X312576D01*
X312992Y291755D01*
Y292588D01*
X312576Y293005D01*
X310493D01*
Y295504D02*
X310910Y294671D01*
X311742Y293838D01*
X312576D01*
X312992Y294254D01*
Y295087D01*
X312576Y295504D01*
X312159D01*
X311742Y295087D01*
Y293838D01*
X47244Y352362D02*
Y353195D01*
Y352779D01*
X44745D01*
X45161Y352362D01*
X47244Y356111D02*
Y354445D01*
X45578Y356111D01*
X45161D01*
X44745Y355695D01*
Y354861D01*
X45161Y354445D01*
X44745Y356944D02*
X46411D01*
X47244Y357777D01*
X46411Y358610D01*
X44745D01*
X45555Y334737D02*
X45139Y334320D01*
Y333487D01*
X45555Y333071D01*
X47221D01*
X47638Y333487D01*
Y334320D01*
X47221Y334737D01*
X46388D01*
Y333904D01*
X47638Y335570D02*
X45139D01*
X47638Y337236D01*
X45139D01*
Y338069D02*
X47638D01*
Y339319D01*
X47221Y339735D01*
X45555D01*
X45139Y339319D01*
Y338069D01*
D29*
X54327Y291597D02*
G03*
X90999Y291789I18311J4906D01*
G01*
X91143Y300234D02*
G03*
X54207Y300589I-18506J-3731D01*
G01*
X110425Y318244D02*
G03*
X106818Y318036I-1806J-47D01*
G01*
X110213Y319086D02*
G03*
X113875Y319520I1842J122D01*
G01*
X53343Y249044D02*
G03*
X90015Y249236I18311J4906D01*
G01*
X90159Y257682D02*
G03*
X53223Y258037I-18506J-3731D01*
G01*
X181673Y347433D02*
G03*
X181673Y347433I-100J0D01*
G01*
X198284Y308689D02*
G03*
X198284Y308689I-650J0D01*
G01*
X49161Y326457D02*
X83465D01*
X49161D02*
Y368110D01*
X83465D01*
X49161Y332283D02*
X55118D01*
Y340158D01*
X49213D02*
X55118D01*
X49213Y352362D02*
X55118D01*
Y360236D01*
X49213D02*
X55118D01*
X83465Y326457D02*
Y368110D01*
X88583Y276030D02*
X93110Y280558D01*
Y292444D01*
Y300168D02*
Y312054D01*
X88583Y316582D02*
X93110Y312054D01*
X52559Y276030D02*
X88583D01*
X52559D02*
Y292444D01*
Y300168D02*
Y316582D01*
X88583D01*
X127559Y321850D02*
X146063D01*
Y320240D02*
Y321850D01*
X127559Y320240D02*
Y321850D01*
Y306102D02*
X146063D01*
X127559D02*
Y307713D01*
X146063Y306102D02*
Y307713D01*
X114961Y322835D02*
Y327559D01*
X105512Y322835D02*
Y327559D01*
X106299Y309055D02*
X114173D01*
X106299Y328740D02*
X114173D01*
X114961Y310236D02*
Y314961D01*
X105512Y310236D02*
Y314961D01*
X136146Y295276D02*
X153543D01*
X136146Y246063D02*
X153543D01*
Y295276D01*
X104331D02*
X121728D01*
X104331Y246063D02*
X121728D01*
X104331D02*
Y295276D01*
X79041Y397634D02*
X89041D01*
X79041Y387638D02*
X89041D01*
Y407638D01*
X79041D02*
X89041D01*
X79041Y387638D02*
Y407638D01*
X67040Y397634D02*
X77040D01*
X67040Y387638D02*
X77040D01*
Y407638D01*
X67040D02*
X77040D01*
X67040Y387638D02*
Y407638D01*
X55039Y387638D02*
Y407638D01*
X65039D01*
Y387638D02*
Y407638D01*
X55039Y387638D02*
X65039D01*
X55039Y397634D02*
X65039D01*
X87598Y233478D02*
X92126Y238006D01*
Y249892D01*
Y257616D02*
Y269502D01*
X87598Y274029D02*
X92126Y269502D01*
X51575Y233478D02*
X87598D01*
X51575D02*
Y249892D01*
Y257616D02*
Y274029D01*
X87598D01*
X159134Y291689D02*
Y297740D01*
X199134D01*
Y291689D02*
Y297740D01*
D43*
X316437Y288189D02*
G03*
X316437Y288189I-492J0D01*
G01*
Y325590D02*
G03*
X316437Y325590I-492J0D01*
G01*
X246151Y296829D02*
G03*
X246151Y296829I-492J0D01*
G01*
D44*
X320669Y295669D02*
G03*
X320669Y295669I-787J0D01*
G01*
Y333071D02*
G03*
X320669Y333071I-787J0D01*
G01*
D45*
X249596Y305884D02*
G03*
X249596Y305884I-1181J0D01*
G01*
D46*
X205883Y340158D02*
X207457D01*
X205883Y342913D02*
X207457D01*
X205709Y332087D02*
X207283D01*
X205709Y334842D02*
X207283D01*
X232874Y318110D02*
Y319685D01*
X235630Y318110D02*
Y319685D01*
X238386Y234842D02*
X239961D01*
X238386Y237598D02*
X239961D01*
X187205Y234842D02*
X188779D01*
X187205Y237598D02*
X188779D01*
X124583Y341873D02*
X126158D01*
X124583Y344629D02*
X126158D01*
X212795Y237598D02*
X214370D01*
X212795Y234842D02*
X214370D01*
X212795Y243504D02*
X214370D01*
X212795Y240748D02*
X214370D01*
X161614Y237598D02*
X163189D01*
X161614Y234842D02*
X163189D01*
X161614Y243504D02*
X163189D01*
X161614Y240748D02*
X163189D01*
X235433Y297638D02*
X237008D01*
X235433Y294882D02*
X237008D01*
X235433Y291732D02*
X237008D01*
X235433Y288976D02*
X237008D01*
X235433Y285827D02*
X237008D01*
X235433Y283071D02*
X237008D01*
X293160Y314037D02*
X294735D01*
X293160Y316793D02*
X294735D01*
X293060Y307137D02*
X294635D01*
X293060Y309893D02*
X294635D01*
X231890Y267913D02*
Y269488D01*
X234646Y267913D02*
Y269488D01*
X237795Y267913D02*
Y269488D01*
X240551Y267913D02*
Y269488D01*
X243701Y267913D02*
Y269488D01*
X246457Y267913D02*
Y269488D01*
X249606Y267913D02*
Y269488D01*
X252362Y267913D02*
Y269488D01*
X255512Y267913D02*
Y269488D01*
X258268Y267913D02*
Y269488D01*
X264173Y267913D02*
Y269488D01*
X261417Y267913D02*
Y269488D01*
X246260Y337188D02*
X247835D01*
X246260Y334432D02*
X247835D01*
X246260Y342913D02*
X247835D01*
X246260Y340157D02*
X247835D01*
X266929Y341142D02*
X268504D01*
X266929Y343898D02*
X268504D01*
X266929Y335236D02*
X268504D01*
X266929Y337992D02*
X268504D01*
X187205Y243504D02*
X188779D01*
X187205Y240748D02*
X188779D01*
X316732Y292520D02*
X328937D01*
X316732Y300000D02*
X328937D01*
X316732Y292520D02*
Y300000D01*
X328937Y292520D02*
Y300000D01*
X316732Y329921D02*
X328937D01*
X316732Y337402D02*
X328937D01*
X316732Y329921D02*
Y337402D01*
X328937Y329921D02*
Y337402D01*
X238386Y243504D02*
X239961D01*
X238386Y240748D02*
X239961D01*
X244478Y301947D02*
X285817D01*
X244478Y318483D02*
X285817D01*
X244478Y301947D02*
Y318483D01*
X285817Y301947D02*
Y318483D01*
D47*
X141319Y369717D02*
Y370883D01*
Y370300D01*
X137820D01*
X138403Y369717D01*
X150903D02*
X150320Y370300D01*
Y371466D01*
X150903Y372049D01*
X151486D01*
X152069Y371466D01*
Y370883D01*
Y371466D01*
X152653Y372049D01*
X153236D01*
X153819Y371466D01*
Y370300D01*
X153236Y369717D01*
X160320Y372049D02*
Y369717D01*
X162069D01*
X161486Y370883D01*
Y371466D01*
X162069Y372049D01*
X163236D01*
X163819Y371466D01*
Y370300D01*
X163236Y369717D01*
X170320D02*
Y372049D01*
X170903D01*
X173236Y369717D01*
X173819D01*
X183236D02*
X183819Y370300D01*
Y371466D01*
X183236Y372049D01*
X180903D01*
X180320Y371466D01*
Y370300D01*
X180903Y369717D01*
X181486D01*
X182070Y370300D01*
Y372049D01*
X193819Y369717D02*
Y370883D01*
Y370300D01*
X190320D01*
X190903Y369717D01*
X193819Y372632D02*
Y373798D01*
Y373215D01*
X190320D01*
X190903Y372632D01*
X203819Y369717D02*
Y370883D01*
Y370300D01*
X200320D01*
X200903Y369717D01*
Y372632D02*
X200320Y373215D01*
Y374382D01*
X200903Y374965D01*
X201486D01*
X202069Y374382D01*
Y373798D01*
Y374382D01*
X202653Y374965D01*
X203236D01*
X203819Y374382D01*
Y373215D01*
X203236Y372632D01*
X213819Y369717D02*
Y370883D01*
Y370300D01*
X210320D01*
X210903Y369717D01*
X210320Y374965D02*
Y372632D01*
X212070D01*
X211486Y373798D01*
Y374382D01*
X212070Y374965D01*
X213236D01*
X213819Y374382D01*
Y373215D01*
X213236Y372632D01*
X223819Y369717D02*
Y370883D01*
Y370300D01*
X220320D01*
X220903Y369717D01*
X220320Y372632D02*
Y374965D01*
X220903D01*
X223236Y372632D01*
X223819D01*
X233819Y369717D02*
Y370883D01*
Y370300D01*
X230320D01*
X230903Y369717D01*
X233236Y372632D02*
X233819Y373215D01*
Y374382D01*
X233236Y374965D01*
X230903D01*
X230320Y374382D01*
Y373215D01*
X230903Y372632D01*
X231486D01*
X232069Y373215D01*
Y374965D01*
X243819Y372049D02*
Y369717D01*
X241486Y372049D01*
X240903D01*
X240320Y371466D01*
Y370300D01*
X240903Y369717D01*
X243819Y373215D02*
Y374382D01*
Y373798D01*
X240320D01*
X240903Y373215D01*
X253819Y372049D02*
Y369717D01*
X251486Y372049D01*
X250903D01*
X250320Y371466D01*
Y370300D01*
X250903Y369717D01*
Y373215D02*
X250320Y373798D01*
Y374965D01*
X250903Y375548D01*
X251486D01*
X252069Y374965D01*
Y374382D01*
Y374965D01*
X252653Y375548D01*
X253236D01*
X253819Y374965D01*
Y373798D01*
X253236Y373215D01*
X263819Y372049D02*
Y369717D01*
X261486Y372049D01*
X260903D01*
X260320Y371466D01*
Y370300D01*
X260903Y369717D01*
X260320Y375548D02*
Y373215D01*
X262070D01*
X261486Y374382D01*
Y374965D01*
X262070Y375548D01*
X263236D01*
X263819Y374965D01*
Y373798D01*
X263236Y373215D01*
X273819Y372049D02*
Y369717D01*
X271486Y372049D01*
X270903D01*
X270320Y371466D01*
Y370300D01*
X270903Y369717D01*
X270320Y373215D02*
Y375548D01*
X270903D01*
X273236Y373215D01*
X273819D01*
X283819Y372049D02*
Y369717D01*
X281486Y372049D01*
X280903D01*
X280320Y371466D01*
Y370300D01*
X280903Y369717D01*
X283236Y373215D02*
X283819Y373798D01*
Y374965D01*
X283236Y375548D01*
X280903D01*
X280320Y374965D01*
Y373798D01*
X280903Y373215D01*
X281486D01*
X282069Y373798D01*
Y375548D01*
X290903Y369717D02*
X290320Y370300D01*
Y371466D01*
X290903Y372049D01*
X291486D01*
X292070Y371466D01*
Y370883D01*
Y371466D01*
X292653Y372049D01*
X293236D01*
X293819Y371466D01*
Y370300D01*
X293236Y369717D01*
X293819Y373215D02*
Y374382D01*
Y373798D01*
X290320D01*
X290903Y373215D01*
X300903Y369717D02*
X300320Y370300D01*
Y371466D01*
X300903Y372049D01*
X301486D01*
X302069Y371466D01*
Y370883D01*
Y371466D01*
X302653Y372049D01*
X303236D01*
X303819Y371466D01*
Y370300D01*
X303236Y369717D01*
X300903Y373215D02*
X300320Y373798D01*
Y374965D01*
X300903Y375548D01*
X301486D01*
X302069Y374965D01*
Y374382D01*
Y374965D01*
X302653Y375548D01*
X303236D01*
X303819Y374965D01*
Y373798D01*
X303236Y373215D01*
X310903Y369717D02*
X310320Y370300D01*
Y371466D01*
X310903Y372049D01*
X311486D01*
X312070Y371466D01*
Y370883D01*
Y371466D01*
X312653Y372049D01*
X313236D01*
X313819Y371466D01*
Y370300D01*
X313236Y369717D01*
X310320Y375548D02*
Y373215D01*
X312070D01*
X311486Y374382D01*
Y374965D01*
X312070Y375548D01*
X313236D01*
X313819Y374965D01*
Y373798D01*
X313236Y373215D01*
X320903Y369717D02*
X320320Y370300D01*
Y371466D01*
X320903Y372049D01*
X321486D01*
X322070Y371466D01*
Y370883D01*
Y371466D01*
X322653Y372049D01*
X323236D01*
X323819Y371466D01*
Y370300D01*
X323236Y369717D01*
X320320Y373215D02*
Y375548D01*
X320903D01*
X323236Y373215D01*
X323819D01*
X330903Y369717D02*
X330320Y370300D01*
Y371466D01*
X330903Y372049D01*
X331486D01*
X332069Y371466D01*
Y370883D01*
Y371466D01*
X332653Y372049D01*
X333236D01*
X333819Y371466D01*
Y370300D01*
X333236Y369717D01*
Y373215D02*
X333819Y373798D01*
Y374965D01*
X333236Y375548D01*
X330903D01*
X330320Y374965D01*
Y373798D01*
X330903Y373215D01*
X331486D01*
X332069Y373798D01*
Y375548D01*
D48*
X61024Y377559D02*
Y378559D01*
Y378059D01*
X58025D01*
X58524Y377559D01*
X61024Y382058D02*
Y380058D01*
X59024Y382058D01*
X58524D01*
X58025Y381558D01*
Y380558D01*
X58524Y380058D01*
X58025Y383057D02*
X60024D01*
X61024Y384057D01*
X60024Y385057D01*
X58025D01*
X70623Y379952D02*
Y377953D01*
X72123D01*
X71623Y378952D01*
Y379452D01*
X72123Y379952D01*
X73122D01*
X73622Y379452D01*
Y378453D01*
X73122Y377953D01*
X70623Y380952D02*
X72622D01*
X73622Y381951D01*
X72622Y382951D01*
X70623D01*
X83721Y374803D02*
X83221Y375303D01*
Y376303D01*
X83721Y376802D01*
X84221D01*
X84721Y376303D01*
Y375803D01*
Y376303D01*
X85221Y376802D01*
X85721D01*
X86221Y376303D01*
Y375303D01*
X85721Y374803D01*
X86221Y377802D02*
X85721D01*
Y378302D01*
X86221D01*
Y377802D01*
X83721Y380301D02*
X83221Y380801D01*
Y381801D01*
X83721Y382301D01*
X84221D01*
X84721Y381801D01*
Y381301D01*
Y381801D01*
X85221Y382301D01*
X85721D01*
X86221Y381801D01*
Y380801D01*
X85721Y380301D01*
X83221Y383300D02*
X85221D01*
X86221Y384300D01*
X85221Y385300D01*
X83221D01*
X122441Y357436D02*
Y353937D01*
X124774D01*
X128272Y357436D02*
X125940D01*
Y353937D01*
X128272D01*
X125940Y355686D02*
X127106D01*
X129439Y357436D02*
Y353937D01*
X131188D01*
X131771Y354520D01*
Y356853D01*
X131188Y357436D01*
X129439D01*
X138186D02*
X137020D01*
X136436Y356853D01*
Y354520D01*
X137020Y353937D01*
X138186D01*
X138769Y354520D01*
Y356853D01*
X138186Y357436D01*
X139935Y353937D02*
Y357436D01*
X142268Y353937D01*
Y357436D01*
X202756Y324759D02*
Y321260D01*
X205088D01*
X208587Y324759D02*
X206255D01*
Y321260D01*
X208587D01*
X206255Y323009D02*
X207421D01*
X209754Y324759D02*
Y321260D01*
X211503D01*
X212086Y321843D01*
Y324176D01*
X211503Y324759D01*
X209754D01*
X219084D02*
X216751D01*
Y323009D01*
X217918Y323592D01*
X218501D01*
X219084Y323009D01*
Y321843D01*
X218501Y321260D01*
X217335D01*
X216751Y321843D01*
X220250Y324759D02*
Y322426D01*
X221417Y321260D01*
X222583Y322426D01*
Y324759D01*
X203150Y351530D02*
Y348031D01*
X205482D01*
X208981Y351530D02*
X206648D01*
Y348031D01*
X208981D01*
X206648Y349781D02*
X207815D01*
X210147Y351530D02*
Y348031D01*
X211897D01*
X212480Y348615D01*
Y350947D01*
X211897Y351530D01*
X210147D01*
X217145Y350947D02*
X217728Y351530D01*
X218895D01*
X219478Y350947D01*
Y350364D01*
X218895Y349781D01*
X218311D01*
X218895D01*
X219478Y349198D01*
Y348615D01*
X218895Y348031D01*
X217728D01*
X217145Y348615D01*
X220644Y348031D02*
Y348615D01*
X221227D01*
Y348031D01*
X220644D01*
X223560Y350947D02*
X224143Y351530D01*
X225309D01*
X225892Y350947D01*
Y350364D01*
X225309Y349781D01*
X224726D01*
X225309D01*
X225892Y349198D01*
Y348615D01*
X225309Y348031D01*
X224143D01*
X223560Y348615D01*
X227059Y351530D02*
Y349198D01*
X228225Y348031D01*
X229391Y349198D01*
Y351530D01*
X335667Y316112D02*
X335084Y315529D01*
Y314363D01*
X335667Y313779D01*
X336250D01*
X336833Y314363D01*
Y315529D01*
X337416Y316112D01*
X338000D01*
X338583Y315529D01*
Y314363D01*
X338000Y313779D01*
X335084Y319611D02*
Y317278D01*
X338583D01*
Y319611D01*
X336833Y317278D02*
Y318445D01*
X338583Y320777D02*
X335084D01*
X338583Y323110D01*
X335084D01*
X335667Y326609D02*
X335084Y326026D01*
Y324859D01*
X335667Y324276D01*
X336250D01*
X336833Y324859D01*
Y326026D01*
X337416Y326609D01*
X338000D01*
X338583Y326026D01*
Y324859D01*
X338000Y324276D01*
X335084Y331274D02*
Y333607D01*
Y332440D01*
X338583D01*
Y337105D02*
Y334773D01*
X336250Y337105D01*
X335667D01*
X335084Y336522D01*
Y335356D01*
X335667Y334773D01*
X336061Y280679D02*
X335477Y280096D01*
Y278930D01*
X336061Y278346D01*
X336644D01*
X337227Y278930D01*
Y280096D01*
X337810Y280679D01*
X338393D01*
X338976Y280096D01*
Y278930D01*
X338393Y278346D01*
X335477Y284178D02*
Y281845D01*
X338976D01*
Y284178D01*
X337227Y281845D02*
Y283012D01*
X338976Y285344D02*
X335477D01*
X338976Y287677D01*
X335477D01*
X336061Y291176D02*
X335477Y290593D01*
Y289426D01*
X336061Y288843D01*
X336644D01*
X337227Y289426D01*
Y290593D01*
X337810Y291176D01*
X338393D01*
X338976Y290593D01*
Y289426D01*
X338393Y288843D01*
X335477Y295841D02*
Y298173D01*
Y297007D01*
X338976D01*
Y299340D02*
Y300506D01*
Y299923D01*
X335477D01*
X336061Y299340D01*
X249577Y193073D02*
X248993Y193656D01*
X247827D01*
X247244Y193073D01*
Y190741D01*
X247827Y190157D01*
X248993D01*
X249577Y190741D01*
Y191907D01*
X248410D01*
X250743Y190157D02*
Y193656D01*
X252492D01*
X253076Y193073D01*
Y191907D01*
X252492Y191324D01*
X250743D01*
X251909D02*
X253076Y190157D01*
X256574Y193656D02*
X254242D01*
Y190157D01*
X256574D01*
X254242Y191907D02*
X255408D01*
X260073Y193656D02*
X257741D01*
Y190157D01*
X260073D01*
X257741Y191907D02*
X258907D01*
X261240Y190157D02*
Y193656D01*
X263572Y190157D01*
Y193656D01*
X249213Y186395D02*
X251545D01*
X250379Y187561D02*
Y185229D01*
X259449Y186395D02*
X261781D01*
X228346Y186001D02*
X230679D01*
X218110Y186001D02*
X220443D01*
X219276Y187168D02*
Y184835D01*
X219291Y190157D02*
Y193656D01*
X221041D01*
X221624Y193073D01*
Y191907D01*
X221041Y191324D01*
X219291D01*
X220458D02*
X221624Y190157D01*
X225123Y193656D02*
X222790D01*
Y190157D01*
X225123D01*
X222790Y191907D02*
X223956D01*
X226289Y193656D02*
Y190157D01*
X228039D01*
X228622Y190741D01*
Y193073D01*
X228039Y193656D01*
X226289D01*
X195669Y186001D02*
X198002D01*
X185433Y186001D02*
X187766D01*
X186599Y187168D02*
Y184835D01*
X164961Y185608D02*
X167293D01*
X154724Y185608D02*
X157057D01*
X155891Y186774D02*
Y184441D01*
X186221Y193656D02*
Y190157D01*
X187970D01*
X188553Y190741D01*
Y191324D01*
X187970Y191907D01*
X186221D01*
X187970D01*
X188553Y192490D01*
Y193073D01*
X187970Y193656D01*
X186221D01*
X189719D02*
Y190157D01*
X192052D01*
X193218Y193656D02*
Y190741D01*
X193801Y190157D01*
X194968D01*
X195551Y190741D01*
Y193656D01*
X199050D02*
X196717D01*
Y190157D01*
X199050D01*
X196717Y191907D02*
X197883D01*
X48031Y203499D02*
Y200000D01*
Y201749D01*
X50364D01*
Y203499D01*
Y200000D01*
X53863Y203499D02*
X51530D01*
Y200000D01*
X53863D01*
X51530Y201749D02*
X52697D01*
X55029Y200000D02*
Y202333D01*
X56195Y203499D01*
X57362Y202333D01*
Y200000D01*
Y201749D01*
X55029D01*
X58528Y203499D02*
X60861D01*
X59694D01*
Y200000D01*
X64360Y203499D02*
X62027D01*
Y200000D01*
X64360D01*
X62027Y201749D02*
X63193D01*
X65526Y200000D02*
Y203499D01*
X67275D01*
X67858Y202916D01*
Y201749D01*
X67275Y201166D01*
X65526D01*
X66692D02*
X67858Y200000D01*
X69025D02*
X70191D01*
X69608D01*
Y203499D01*
X69025Y202916D01*
X85827Y195844D02*
X88159D01*
X86221Y160804D02*
X88553D01*
X87387Y161971D02*
Y159638D01*
X75197Y203105D02*
Y199606D01*
Y201356D01*
X77529D01*
Y203105D01*
Y199606D01*
X81028Y203105D02*
X78696D01*
Y199606D01*
X81028D01*
X78696Y201356D02*
X79862D01*
X82195Y199606D02*
Y201939D01*
X83361Y203105D01*
X84527Y201939D01*
Y199606D01*
Y201356D01*
X82195D01*
X85694Y203105D02*
X88026D01*
X86860D01*
Y199606D01*
X91525Y203105D02*
X89192D01*
Y199606D01*
X91525D01*
X89192Y201356D02*
X90359D01*
X92691Y199606D02*
Y203105D01*
X94441D01*
X95024Y202522D01*
Y201356D01*
X94441Y200773D01*
X92691D01*
X93858D02*
X95024Y199606D01*
X102022D02*
X99689D01*
X102022Y201939D01*
Y202522D01*
X101438Y203105D01*
X100272D01*
X99689Y202522D01*
X60630Y160804D02*
X62963D01*
X61796Y161971D02*
Y159638D01*
X60236Y195844D02*
X62569D01*
X152756Y192475D02*
Y188976D01*
X153922Y190143D01*
X155088Y188976D01*
Y192475D01*
X156255D02*
Y188976D01*
Y190726D01*
X158587D01*
Y192475D01*
Y188976D01*
X159754Y192475D02*
X160920D01*
X160337D01*
Y188976D01*
X159754D01*
X160920D01*
X162669Y192475D02*
X165002D01*
X163836D01*
Y188976D01*
X168501Y192475D02*
X166168D01*
Y188976D01*
X168501D01*
X166168Y190726D02*
X167334D01*
X55512Y370472D02*
Y373971D01*
X57261D01*
X57844Y373388D01*
Y372222D01*
X57261Y371639D01*
X55512D01*
X59011Y373971D02*
Y370472D01*
X60177Y371639D01*
X61343Y370472D01*
Y373971D01*
X62510Y370472D02*
Y373971D01*
X64259D01*
X64842Y373388D01*
Y372222D01*
X64259Y371639D01*
X62510D01*
X63676D02*
X64842Y370472D01*
X69507Y373971D02*
X70674D01*
X70090D01*
Y370472D01*
X69507D01*
X70674D01*
X72423D02*
Y373971D01*
X74756Y370472D01*
Y373971D01*
M02*
