G04 Layer_Color=255*
%FSLAX25Y25*%
%MOIN*%
G70*
G01*
G75*
%ADD11R,0.02756X0.03543*%
%ADD12R,0.12598X0.05905*%
%ADD13R,0.03543X0.02756*%
%ADD14R,0.03543X0.03150*%
%ADD15R,0.02756X0.03347*%
%ADD16R,0.09016X0.10709*%
%ADD17R,0.07480X0.04724*%
%ADD18R,0.12598X0.09842*%
%ADD19R,0.03150X0.03150*%
%ADD20R,0.07874X0.02362*%
%ADD21O,0.00787X0.01968*%
%ADD22R,0.02835X0.07087*%
%ADD23O,0.01772X0.05512*%
%ADD24O,0.01378X0.07087*%
%ADD25R,0.02362X0.04724*%
%ADD26R,0.04209X0.13780*%
%ADD27R,0.41968X0.35000*%
%ADD28R,0.03937X0.10236*%
%ADD34O,0.12598X0.07874*%
%ADD35R,0.07087X0.07087*%
%ADD36C,0.07087*%
%ADD37R,0.07087X0.07087*%
%ADD38C,0.23622*%
%ADD39C,0.05905*%
%ADD40R,0.05905X0.05905*%
%ADD41R,0.06000X0.06000*%
D11*
X209623Y341535D02*
D03*
X203717D02*
D03*
X209449Y333465D02*
D03*
X203543D02*
D03*
X242126Y236221D02*
D03*
X236220D02*
D03*
X190945D02*
D03*
X185039D02*
D03*
X128324Y343251D02*
D03*
X122418D02*
D03*
X210630Y236221D02*
D03*
X216535D02*
D03*
X210630Y242126D02*
D03*
X216535D02*
D03*
X159449Y236221D02*
D03*
X165354D02*
D03*
X159449Y242126D02*
D03*
X165354D02*
D03*
X233268Y296260D02*
D03*
X239173D02*
D03*
X233268Y290354D02*
D03*
X239173D02*
D03*
X233268Y284449D02*
D03*
X239173D02*
D03*
X296900Y315415D02*
D03*
X290995D02*
D03*
X296800Y308515D02*
D03*
X290895D02*
D03*
X244094Y335810D02*
D03*
X250000D02*
D03*
X244094Y341535D02*
D03*
X250000D02*
D03*
X270669Y342520D02*
D03*
X264764D02*
D03*
X270669Y336614D02*
D03*
X264764D02*
D03*
X185039Y242126D02*
D03*
X190945D02*
D03*
X236221Y242126D02*
D03*
X242126D02*
D03*
D12*
X55118Y296306D02*
D03*
X90551D02*
D03*
X54134Y253754D02*
D03*
X89567D02*
D03*
D13*
X234252Y315945D02*
D03*
Y321850D02*
D03*
X233268Y265748D02*
D03*
Y271654D02*
D03*
X239173Y265748D02*
D03*
Y271654D02*
D03*
X245079Y265748D02*
D03*
Y271654D02*
D03*
X250984Y265748D02*
D03*
Y271654D02*
D03*
X256890Y265748D02*
D03*
Y271654D02*
D03*
X262795D02*
D03*
Y265748D02*
D03*
D14*
X240158Y321654D02*
D03*
Y316142D02*
D03*
X165354Y340748D02*
D03*
Y346260D02*
D03*
X186024D02*
D03*
Y340748D02*
D03*
X310039Y341339D02*
D03*
Y335827D02*
D03*
X311024Y305118D02*
D03*
Y299606D02*
D03*
D15*
X319291Y316929D02*
D03*
X323819D02*
D03*
X319587Y280512D02*
D03*
X324114D02*
D03*
D16*
X144783Y313976D02*
D03*
X128839D02*
D03*
D17*
X110236Y325197D02*
D03*
Y312598D02*
D03*
D18*
X128937Y292520D02*
D03*
Y248819D02*
D03*
D19*
X141770Y343351D02*
D03*
X135471D02*
D03*
X220866Y341535D02*
D03*
X214567D02*
D03*
X220692Y333465D02*
D03*
X214393D02*
D03*
D20*
X306496Y258189D02*
D03*
Y253189D02*
D03*
Y248189D02*
D03*
Y243189D02*
D03*
Y238189D02*
D03*
Y233189D02*
D03*
Y228189D02*
D03*
Y223189D02*
D03*
Y218189D02*
D03*
X343504Y258189D02*
D03*
Y253189D02*
D03*
Y248189D02*
D03*
Y243189D02*
D03*
Y238189D02*
D03*
Y233189D02*
D03*
Y228189D02*
D03*
Y223189D02*
D03*
Y218189D02*
D03*
D21*
X234252Y303543D02*
D03*
Y310630D02*
D03*
D22*
X251784Y205315D02*
D03*
X246784D02*
D03*
X241784D02*
D03*
X236784D02*
D03*
Y225000D02*
D03*
X241784D02*
D03*
X246784D02*
D03*
X251784D02*
D03*
X225802Y205315D02*
D03*
X220802D02*
D03*
X215802D02*
D03*
X210802D02*
D03*
Y225000D02*
D03*
X215802D02*
D03*
X220802D02*
D03*
X225802D02*
D03*
X199820Y205315D02*
D03*
X194820D02*
D03*
X189821D02*
D03*
X184820D02*
D03*
Y225000D02*
D03*
X189821D02*
D03*
X194820D02*
D03*
X199820D02*
D03*
X173839D02*
D03*
X168839D02*
D03*
X163839D02*
D03*
X158839D02*
D03*
Y205315D02*
D03*
X163839D02*
D03*
X168839D02*
D03*
X173839D02*
D03*
D23*
X318996Y288189D02*
D03*
X321555D02*
D03*
X324114D02*
D03*
X326673D02*
D03*
X318996Y304331D02*
D03*
X321555D02*
D03*
X324114D02*
D03*
X326673D02*
D03*
X318996Y325591D02*
D03*
X321555D02*
D03*
X324114D02*
D03*
X326673D02*
D03*
X318996Y341732D02*
D03*
X321555D02*
D03*
X324114D02*
D03*
X326673D02*
D03*
D24*
X248513Y296829D02*
D03*
X251073D02*
D03*
X253631D02*
D03*
X256190D02*
D03*
X258750D02*
D03*
X261309D02*
D03*
X263868D02*
D03*
X266427D02*
D03*
X268986D02*
D03*
X271545D02*
D03*
X274104D02*
D03*
X276663D02*
D03*
X279222D02*
D03*
X281781D02*
D03*
X248513Y323601D02*
D03*
X251073D02*
D03*
X253631D02*
D03*
X256190D02*
D03*
X258750D02*
D03*
X261309D02*
D03*
X263868D02*
D03*
X266427D02*
D03*
X268986D02*
D03*
X271545D02*
D03*
X274104D02*
D03*
X276663D02*
D03*
X279222D02*
D03*
X281781D02*
D03*
D25*
X178813Y349058D02*
D03*
X175073D02*
D03*
X171333D02*
D03*
Y339609D02*
D03*
X178813D02*
D03*
D26*
X165732Y314173D02*
D03*
X172433D02*
D03*
X179134D02*
D03*
X185835D02*
D03*
X192535Y313780D02*
D03*
D27*
X179134Y272441D02*
D03*
D28*
X98425Y365158D02*
D03*
Y349409D02*
D03*
D34*
X64961Y336457D02*
D03*
Y356457D02*
D03*
D35*
X219409Y169291D02*
D03*
X250984D02*
D03*
X187402Y169291D02*
D03*
X155118Y169291D02*
D03*
D36*
X229410D02*
D03*
X260984D02*
D03*
X197402Y169291D02*
D03*
X165118Y169291D02*
D03*
X87598Y183071D02*
D03*
X61024D02*
D03*
X354331Y329803D02*
D03*
Y295433D02*
D03*
X84041Y402638D02*
D03*
X72040Y402638D02*
D03*
X60039D02*
D03*
D37*
X87598Y173071D02*
D03*
X61024D02*
D03*
X354331Y319803D02*
D03*
Y285433D02*
D03*
X84041Y392638D02*
D03*
X72040Y392638D02*
D03*
X60039D02*
D03*
D38*
X350906Y194441D02*
D03*
Y387354D02*
D03*
X122559Y194441D02*
D03*
Y387354D02*
D03*
D39*
X301500Y382400D02*
D03*
Y392400D02*
D03*
X311500Y382400D02*
D03*
Y392400D02*
D03*
X321500Y382400D02*
D03*
Y392400D02*
D03*
X331500Y382400D02*
D03*
Y392400D02*
D03*
X291500D02*
D03*
Y382400D02*
D03*
X281500Y392400D02*
D03*
Y382400D02*
D03*
X271500Y392400D02*
D03*
Y382400D02*
D03*
X261500Y392400D02*
D03*
Y382400D02*
D03*
X251500Y392400D02*
D03*
Y382400D02*
D03*
X241500Y392400D02*
D03*
Y382400D02*
D03*
X231500Y392400D02*
D03*
Y382400D02*
D03*
X221500Y392400D02*
D03*
Y382400D02*
D03*
X211500Y392400D02*
D03*
Y382400D02*
D03*
X201500Y392400D02*
D03*
Y382400D02*
D03*
X191500Y392400D02*
D03*
Y382400D02*
D03*
X181500Y392400D02*
D03*
Y382400D02*
D03*
X171500Y392400D02*
D03*
Y382400D02*
D03*
X161500Y392400D02*
D03*
Y382400D02*
D03*
X151500Y392400D02*
D03*
Y382400D02*
D03*
X141500Y392400D02*
D03*
D40*
Y382400D02*
D03*
D41*
X281200Y225100D02*
D03*
M02*
