G04 Layer_Color=16711935*
%FSLAX25Y25*%
%MOIN*%
G70*
G01*
G75*
%ADD68O,0.13398X0.08674*%
%ADD69R,0.07887X0.07887*%
%ADD70C,0.07887*%
%ADD71R,0.07887X0.07887*%
%ADD72C,0.24422*%
%ADD73C,0.06706*%
%ADD74R,0.06706X0.06706*%
%ADD75R,0.06800X0.06800*%
%ADD76C,0.03162*%
D68*
X64961Y336457D02*
D03*
Y356457D02*
D03*
D69*
X219409Y169291D02*
D03*
X250984D02*
D03*
X187402Y169291D02*
D03*
X155118Y169291D02*
D03*
D70*
X229410D02*
D03*
X260984D02*
D03*
X197402Y169291D02*
D03*
X165118Y169291D02*
D03*
X87598Y183071D02*
D03*
X61024D02*
D03*
X354331Y329803D02*
D03*
Y295433D02*
D03*
X84041Y402638D02*
D03*
X72040Y402638D02*
D03*
X60039D02*
D03*
D71*
X87598Y173071D02*
D03*
X61024D02*
D03*
X354331Y319803D02*
D03*
Y285433D02*
D03*
X84041Y392638D02*
D03*
X72040Y392638D02*
D03*
X60039D02*
D03*
D72*
X350906Y194441D02*
D03*
Y387354D02*
D03*
X122559Y194441D02*
D03*
Y387354D02*
D03*
D73*
X301500Y382400D02*
D03*
Y392400D02*
D03*
X311500Y382400D02*
D03*
Y392400D02*
D03*
X321500Y382400D02*
D03*
Y392400D02*
D03*
X331500Y382400D02*
D03*
Y392400D02*
D03*
X291500D02*
D03*
Y382400D02*
D03*
X281500Y392400D02*
D03*
Y382400D02*
D03*
X271500Y392400D02*
D03*
Y382400D02*
D03*
X261500Y392400D02*
D03*
Y382400D02*
D03*
X251500Y392400D02*
D03*
Y382400D02*
D03*
X241500Y392400D02*
D03*
Y382400D02*
D03*
X231500Y392400D02*
D03*
Y382400D02*
D03*
X221500Y392400D02*
D03*
Y382400D02*
D03*
X211500Y392400D02*
D03*
Y382400D02*
D03*
X201500Y392400D02*
D03*
Y382400D02*
D03*
X191500Y392400D02*
D03*
Y382400D02*
D03*
X181500Y392400D02*
D03*
Y382400D02*
D03*
X171500Y392400D02*
D03*
Y382400D02*
D03*
X161500Y392400D02*
D03*
Y382400D02*
D03*
X151500Y392400D02*
D03*
Y382400D02*
D03*
X141500Y392400D02*
D03*
D74*
Y382400D02*
D03*
D75*
X281200Y225100D02*
D03*
D76*
X307087Y308071D02*
D03*
X306102Y346457D02*
D03*
X194882Y333661D02*
D03*
X224410Y341535D02*
D03*
X64961Y253937D02*
D03*
X65945Y296260D02*
D03*
X190945Y295276D02*
D03*
X194882D02*
D03*
X140748Y321850D02*
D03*
X180118Y324803D02*
D03*
X161417Y347441D02*
D03*
X128937Y256890D02*
D03*
X98425D02*
D03*
X171260Y304134D02*
D03*
X189961Y346457D02*
D03*
X178150Y353346D02*
D03*
X169291Y352362D02*
D03*
X145669Y343504D02*
D03*
X342520Y213583D02*
D03*
X312992Y218504D02*
D03*
X253937Y312992D02*
D03*
X258858Y315531D02*
D03*
X248031Y313976D02*
D03*
X231299Y299213D02*
D03*
Y280512D02*
D03*
X271654Y347441D02*
D03*
X230315Y322835D02*
D03*
X297244Y319882D02*
D03*
X281496Y290354D02*
D03*
X240158Y312008D02*
D03*
X330709Y306102D02*
D03*
X328740Y350394D02*
D03*
X329724Y323819D02*
D03*
X314961Y335630D02*
D03*
X324803Y350394D02*
D03*
X323819Y312008D02*
D03*
X322835Y298228D02*
D03*
X329724Y287402D02*
D03*
X306102Y299213D02*
D03*
X309055Y331693D02*
D03*
X252953Y231299D02*
D03*
X227362D02*
D03*
X216535Y218504D02*
D03*
X242126D02*
D03*
X246063Y236221D02*
D03*
X219488D02*
D03*
X193898Y237205D02*
D03*
X200787Y231299D02*
D03*
X190945Y217520D02*
D03*
X166339D02*
D03*
X168307Y236221D02*
D03*
X175197Y231299D02*
D03*
X98425Y373031D02*
D03*
X165354Y323819D02*
D03*
X204331Y328740D02*
D03*
X244488Y327953D02*
D03*
X68504Y211024D02*
D03*
X106299Y164173D02*
D03*
X125984Y162992D02*
D03*
X112598Y231890D02*
D03*
X207874Y263386D02*
D03*
X208661Y270472D02*
D03*
X266142Y236221D02*
D03*
X262205Y211024D02*
D03*
X311811Y208661D02*
D03*
X330709Y270866D02*
D03*
X360236Y250394D02*
D03*
X359449Y229921D02*
D03*
X294882Y281496D02*
D03*
X354331Y355512D02*
D03*
X341732Y356693D02*
D03*
X237795Y355118D02*
D03*
X288583Y353543D02*
D03*
X213779Y306299D02*
D03*
X135039Y227953D02*
D03*
X316929Y405118D02*
D03*
X235827Y404331D02*
D03*
X180709Y407480D02*
D03*
X77953Y264961D02*
D03*
X73622Y290945D02*
D03*
X109843Y275197D02*
D03*
X292520Y234646D02*
D03*
X74410Y223622D02*
D03*
X256693Y362598D02*
D03*
X221260Y270472D02*
D03*
M02*
