G04 Layer_Color=8421504*
%FSLAX25Y25*%
%MOIN*%
G70*
G01*
G75*
%ADD10C,0.00500*%
%ADD11R,0.05905X0.03150*%
%ADD12R,0.05905X0.02992*%
%ADD13R,0.05905X0.02756*%
%ADD14R,0.05512X0.03150*%
%ADD15R,0.03543X0.03150*%
%ADD16R,0.13780X0.04209*%
%ADD17R,0.35000X0.41968*%
%ADD18R,0.06299X0.19685*%
%ADD19R,0.05905X0.12598*%
%ADD20R,0.03150X0.03543*%
%ADD21R,0.09016X0.10709*%
%ADD22R,0.04724X0.07480*%
%ADD23R,0.11811X0.23622*%
%ADD24R,0.03543X0.02756*%
%ADD25R,0.02756X0.03543*%
%ADD26O,0.01968X0.00787*%
%ADD27O,0.00787X0.01968*%
%ADD28R,0.01575X0.05512*%
%ADD29R,0.07874X0.03150*%
%ADD30R,0.23622X0.22047*%
%ADD31R,0.12598X0.29528*%
%ADD32R,0.02362X0.07874*%
%ADD33R,0.03150X0.03150*%
%ADD34R,0.09842X0.12598*%
%ADD35O,0.07087X0.01378*%
%ADD36R,0.02362X0.04724*%
%ADD37R,0.07087X0.02835*%
%ADD38R,0.05905X0.01181*%
%ADD39C,0.03000*%
%ADD40O,0.05709X0.01575*%
D10*
X571657Y666933D02*
G03*
X571657Y670870I0J1969D01*
G01*
X543370Y571791D02*
G03*
X543370Y575728I0J1969D01*
G01*
X530803Y587110D02*
G03*
X529622Y586717I0J-1969D01*
G01*
X529228Y586323D02*
G03*
X530803Y583173I1575J-1181D01*
G01*
X523850Y662795D02*
G03*
X522276Y665945I-1575J1181D01*
G01*
Y662008D02*
G03*
X523457Y662402I0J1969D01*
G01*
X479146Y664252D02*
G03*
X477571Y667402I-1575J1181D01*
G01*
Y663465D02*
G03*
X478752Y663858I0J1969D01*
G01*
X404937Y570953D02*
G03*
X404937Y574890I0J1969D01*
G01*
X431260Y660327D02*
G03*
X429685Y663476I-1575J1181D01*
G01*
Y659539D02*
G03*
X430866Y659933I0J1969D01*
G01*
X392602Y587240D02*
G03*
X392602Y583303I0J-1969D01*
G01*
X490469Y789688D02*
G03*
X490469Y785751I0J-1969D01*
G01*
X550004Y686618D02*
G03*
X550004Y690555I0J1969D01*
G01*
X548429D02*
G03*
X548429Y686618I0J-1969D01*
G01*
X500622Y681693D02*
G03*
X500622Y685630I0J1969D01*
G01*
X499047D02*
G03*
X499047Y681693I0J-1969D01*
G01*
X455917Y683150D02*
G03*
X455917Y687087I0J1969D01*
G01*
X454343D02*
G03*
X454343Y683150I0J-1969D01*
G01*
X408032Y677256D02*
G03*
X408032Y681193I0J1969D01*
G01*
X406457D02*
G03*
X406457Y677256I0J-1969D01*
G01*
X570031Y730713D02*
G03*
X573969Y730713I1969J0D01*
G01*
X520532Y726713D02*
G03*
X524469Y726713I1969J0D01*
G01*
X475032Y731213D02*
G03*
X478968Y731213I1969J0D01*
G01*
X425531Y727213D02*
G03*
X429468Y727213I1969J0D01*
G01*
X570083Y670870D02*
G03*
X570083Y666933I0J-1969D01*
G01*
X520701Y665945D02*
G03*
X520701Y662008I0J-1969D01*
G01*
X475996Y667402D02*
G03*
X475996Y663465I0J-1969D01*
G01*
X428110Y663476D02*
G03*
X428110Y659539I0J-1969D01*
G01*
X443258Y1036841D02*
G03*
X443258Y1032904I0J-1969D01*
G01*
X541795Y575728D02*
G03*
X541795Y571791I0J-1969D01*
G01*
X532378Y583173D02*
G03*
X532378Y587110I0J1969D01*
G01*
X403362Y574890D02*
G03*
X403362Y570953I0J-1969D01*
G01*
X394177Y583303D02*
G03*
X394177Y587240I0J1969D01*
G01*
X444833Y1032904D02*
G03*
X444833Y1036841I0J1969D01*
G01*
X492043Y785751D02*
G03*
X492043Y789688I0J1969D01*
G01*
X573969Y732287D02*
G03*
X570031Y732287I-1969J0D01*
G01*
X524469Y728287D02*
G03*
X520532Y728287I-1969J0D01*
G01*
X478968Y732787D02*
G03*
X478575Y733968I-1969J0D01*
G01*
X478181Y734362D02*
G03*
X475032Y732787I-1181J-1575D01*
G01*
X429468Y728787D02*
G03*
X427239Y730738I-1969J0D01*
G01*
X425549Y729049D02*
G03*
X425531Y728787I1951J-261D01*
G01*
X427239Y730738D02*
G03*
X425549Y729049I261J-1951D01*
G01*
X478575Y733968D02*
G03*
X478181Y734362I-1575J-1181D01*
G01*
X430866Y659933D02*
G03*
X431260Y660327I-1181J1575D01*
G01*
X478752Y663858D02*
G03*
X479146Y664252I-1181J1575D01*
G01*
X523457Y662402D02*
G03*
X523850Y662795I-1181J1575D01*
G01*
X529622Y586717D02*
G03*
X529228Y586323I1181J-1575D01*
G01*
X571657Y666933D02*
Y670870D01*
X543370Y571791D02*
Y575728D01*
X530803Y583173D02*
Y587110D01*
X522276Y662008D02*
Y665945D01*
X477571Y663465D02*
Y667402D01*
X404937Y570953D02*
Y574890D01*
X429685Y659539D02*
Y663476D01*
X392602Y583303D02*
Y587240D01*
X490469Y785751D02*
Y789688D01*
X550004Y686618D02*
Y690555D01*
X548429Y686618D02*
Y690555D01*
X500622Y681693D02*
Y685630D01*
X499047Y681693D02*
Y685630D01*
X455917Y683150D02*
Y687087D01*
X454343Y683150D02*
Y687087D01*
X408032Y677256D02*
Y681193D01*
X406457Y677256D02*
Y681193D01*
X570031Y730713D02*
X573969D01*
X520532Y726713D02*
X524469D01*
X475032Y731213D02*
X478968D01*
X425531Y727213D02*
X429468D01*
X570083Y666933D02*
Y670870D01*
X520701Y662008D02*
Y665945D01*
X475996Y663465D02*
Y667402D01*
X428110Y659539D02*
Y663476D01*
X443258Y1032904D02*
Y1036841D01*
X541795Y571791D02*
Y575728D01*
X532378Y583173D02*
Y587110D01*
X403362Y570953D02*
Y574890D01*
X394177Y583303D02*
Y587240D01*
X444833Y1032904D02*
Y1036841D01*
X492043Y785751D02*
Y789688D01*
X570031Y732287D02*
X573969D01*
X520532Y728287D02*
X524469D01*
X475032Y732787D02*
X478968D01*
X425531Y728787D02*
X429468D01*
D11*
X222244Y640827D02*
D03*
D12*
Y635984D02*
D03*
Y624016D02*
D03*
D13*
Y631968D02*
D03*
Y628031D02*
D03*
D14*
Y619173D02*
D03*
D15*
X497866Y707559D02*
D03*
Y713071D02*
D03*
X296012Y1034630D02*
D03*
Y1040142D02*
D03*
X364768Y1002476D02*
D03*
Y996965D02*
D03*
X405276Y699303D02*
D03*
Y704815D02*
D03*
X452661Y708984D02*
D03*
Y714496D02*
D03*
X547248Y707484D02*
D03*
Y712996D02*
D03*
X395433Y704421D02*
D03*
Y698910D02*
D03*
X442819Y714496D02*
D03*
Y708984D02*
D03*
X488024Y713071D02*
D03*
Y707559D02*
D03*
X537405Y712996D02*
D03*
Y707484D02*
D03*
X428898Y678437D02*
D03*
Y683949D02*
D03*
X476783Y684331D02*
D03*
Y689843D02*
D03*
X520870Y683492D02*
D03*
Y689004D02*
D03*
X570870Y689768D02*
D03*
Y695280D02*
D03*
X364583Y875346D02*
D03*
Y880858D02*
D03*
X313242Y625758D02*
D03*
Y631270D02*
D03*
D16*
X298516Y1054650D02*
D03*
Y1068051D02*
D03*
Y1061350D02*
D03*
Y1074752D02*
D03*
X298909Y1081453D02*
D03*
X324059Y666157D02*
D03*
Y672858D02*
D03*
Y679559D02*
D03*
Y686260D02*
D03*
X324453Y692961D02*
D03*
D17*
X340248Y1068051D02*
D03*
X365791Y679559D02*
D03*
D18*
X261740Y1061547D02*
D03*
Y1015878D02*
D03*
X283500Y683169D02*
D03*
Y637500D02*
D03*
D19*
X322043Y1137138D02*
D03*
Y1101705D02*
D03*
X354925Y980035D02*
D03*
Y944602D02*
D03*
X250594Y970193D02*
D03*
Y934760D02*
D03*
X252378Y856449D02*
D03*
Y821016D02*
D03*
X354740Y858417D02*
D03*
Y822984D02*
D03*
X366276Y748220D02*
D03*
Y712787D02*
D03*
X252126Y750295D02*
D03*
Y714862D02*
D03*
D20*
X275004Y982004D02*
D03*
X269492D02*
D03*
X462217Y730394D02*
D03*
X467728D02*
D03*
X506921Y728937D02*
D03*
X512433D02*
D03*
X556303Y735831D02*
D03*
X561815D02*
D03*
X414512Y730969D02*
D03*
X420024D02*
D03*
X269307Y866291D02*
D03*
X274819D02*
D03*
X538626Y776031D02*
D03*
X544138D02*
D03*
X538626Y768157D02*
D03*
X544138D02*
D03*
X478012Y767500D02*
D03*
X472500D02*
D03*
X478146Y776031D02*
D03*
X472634D02*
D03*
X513035Y791780D02*
D03*
X518547D02*
D03*
X445636Y983577D02*
D03*
X440124D02*
D03*
X465256Y1089000D02*
D03*
X459744D02*
D03*
X521756Y1088500D02*
D03*
X516244D02*
D03*
X410256Y1087000D02*
D03*
X404744D02*
D03*
X433248Y775902D02*
D03*
X438760D02*
D03*
Y785744D02*
D03*
X433248D02*
D03*
D21*
X326917Y1035244D02*
D03*
X342862D02*
D03*
X336520Y995984D02*
D03*
X352465D02*
D03*
X334957Y878102D02*
D03*
X350902D02*
D03*
X320063Y649827D02*
D03*
X336008D02*
D03*
D22*
X273158Y1076114D02*
D03*
X285756D02*
D03*
X258862Y985941D02*
D03*
X246264D02*
D03*
X298228Y696063D02*
D03*
X310827D02*
D03*
X248047Y870228D02*
D03*
X260646D02*
D03*
D23*
X284059Y964287D02*
D03*
X323429D02*
D03*
X283366Y846673D02*
D03*
X322736D02*
D03*
D24*
X314012Y1040339D02*
D03*
Y1034433D02*
D03*
X305012Y1034433D02*
D03*
Y1040339D02*
D03*
X410726Y1034994D02*
D03*
Y1029089D02*
D03*
X404821Y1034994D02*
D03*
Y1029089D02*
D03*
X398915Y1034994D02*
D03*
Y1029089D02*
D03*
X414663Y1019246D02*
D03*
Y1013341D02*
D03*
X408758Y1013341D02*
D03*
Y1019246D02*
D03*
X414663Y1005467D02*
D03*
Y999561D02*
D03*
X408758Y999561D02*
D03*
Y1005467D02*
D03*
X414758Y991577D02*
D03*
Y985671D02*
D03*
X408758Y985671D02*
D03*
Y991577D02*
D03*
X414663Y976923D02*
D03*
Y971018D02*
D03*
X408758Y971018D02*
D03*
Y976923D02*
D03*
X463876Y1034994D02*
D03*
Y1029089D02*
D03*
X469781Y1034994D02*
D03*
Y1029089D02*
D03*
X469781Y1013341D02*
D03*
Y1019246D02*
D03*
X475687Y1019246D02*
D03*
Y1013341D02*
D03*
X469781Y999561D02*
D03*
Y1005467D02*
D03*
X475687Y1005467D02*
D03*
Y999561D02*
D03*
X469781Y985782D02*
D03*
Y991687D02*
D03*
X475687Y991687D02*
D03*
Y985781D02*
D03*
X469781Y972002D02*
D03*
Y977907D02*
D03*
X475687Y977907D02*
D03*
Y972002D02*
D03*
Y1034994D02*
D03*
Y1029089D02*
D03*
X481593Y1034994D02*
D03*
Y1029089D02*
D03*
X401339Y654618D02*
D03*
Y660524D02*
D03*
X449224Y660512D02*
D03*
Y666417D02*
D03*
X493929Y659055D02*
D03*
Y664961D02*
D03*
X541342Y663980D02*
D03*
Y669886D02*
D03*
X419055Y713673D02*
D03*
Y719579D02*
D03*
X466941Y717598D02*
D03*
Y723504D02*
D03*
X511646Y716142D02*
D03*
Y722047D02*
D03*
X561027Y723035D02*
D03*
Y728941D02*
D03*
X420000Y665906D02*
D03*
Y660000D02*
D03*
X468409Y669854D02*
D03*
Y663949D02*
D03*
X513370Y669201D02*
D03*
Y663295D02*
D03*
X562996Y673823D02*
D03*
Y667917D02*
D03*
X500043Y786858D02*
D03*
Y792764D02*
D03*
X505949Y786858D02*
D03*
Y792764D02*
D03*
X408000Y812453D02*
D03*
Y806547D02*
D03*
X245500Y662953D02*
D03*
Y657047D02*
D03*
X259000Y772953D02*
D03*
Y767047D02*
D03*
X531539Y793295D02*
D03*
Y787390D02*
D03*
X525634Y793295D02*
D03*
Y787390D02*
D03*
X483087Y790251D02*
D03*
Y784345D02*
D03*
D25*
X342130Y930823D02*
D03*
X336224D02*
D03*
X336224Y922949D02*
D03*
X342130D02*
D03*
X336224Y915075D02*
D03*
X342130D02*
D03*
X336224Y907201D02*
D03*
X342130D02*
D03*
X432406Y668000D02*
D03*
X426500D02*
D03*
X479736Y672839D02*
D03*
X473831D02*
D03*
X524441Y669882D02*
D03*
X518535D02*
D03*
X573823Y674807D02*
D03*
X567917D02*
D03*
X425945Y706783D02*
D03*
X420039D02*
D03*
X473831Y710709D02*
D03*
X467925D02*
D03*
X518535Y709252D02*
D03*
X512630D02*
D03*
X567917Y716146D02*
D03*
X562012D02*
D03*
X410197Y673319D02*
D03*
X404291D02*
D03*
X458083Y679213D02*
D03*
X452177D02*
D03*
X502787Y677756D02*
D03*
X496882D02*
D03*
X552169Y682681D02*
D03*
X546264D02*
D03*
X404291Y667413D02*
D03*
X410197D02*
D03*
X452177Y673307D02*
D03*
X458083D02*
D03*
X496882Y671850D02*
D03*
X502787D02*
D03*
X546264Y676776D02*
D03*
X552169D02*
D03*
X412165Y700878D02*
D03*
X418071D02*
D03*
X460051Y704803D02*
D03*
X465957D02*
D03*
X504756Y703346D02*
D03*
X510661D02*
D03*
X554138Y710240D02*
D03*
X560043D02*
D03*
X398386Y667413D02*
D03*
X392480D02*
D03*
X446272Y673307D02*
D03*
X440366D02*
D03*
X490976Y671850D02*
D03*
X485071D02*
D03*
X540358Y676776D02*
D03*
X534453D02*
D03*
X336039Y785583D02*
D03*
X341945D02*
D03*
X336039Y793457D02*
D03*
X341945D02*
D03*
X336039Y801331D02*
D03*
X341945D02*
D03*
X341945Y809205D02*
D03*
X336039D02*
D03*
X532524Y768157D02*
D03*
X526618D02*
D03*
X532524Y776031D02*
D03*
X526618D02*
D03*
X493153Y767658D02*
D03*
X487248D02*
D03*
X493153Y776031D02*
D03*
X487248D02*
D03*
X416305Y1030821D02*
D03*
X422211D02*
D03*
X458628Y1034758D02*
D03*
X452722D02*
D03*
X429100Y1034758D02*
D03*
X435006D02*
D03*
X520835Y1033232D02*
D03*
X514929D02*
D03*
X519807Y998197D02*
D03*
X513902D02*
D03*
X519807Y962764D02*
D03*
X513902D02*
D03*
X519807Y929299D02*
D03*
X513902D02*
D03*
X491157Y1039083D02*
D03*
X497063D02*
D03*
X491157Y1003650D02*
D03*
X497063D02*
D03*
X491157Y968217D02*
D03*
X497063D02*
D03*
X491157Y934752D02*
D03*
X497063D02*
D03*
X528496Y573661D02*
D03*
X534402D02*
D03*
X546354Y585142D02*
D03*
X540449D02*
D03*
X390197Y572921D02*
D03*
X396102D02*
D03*
X408153Y585272D02*
D03*
X402248D02*
D03*
D26*
X432441Y661508D02*
D03*
X425354D02*
D03*
X480327Y665433D02*
D03*
X473240D02*
D03*
X525032Y663976D02*
D03*
X517945D02*
D03*
X574413Y668902D02*
D03*
X567327D02*
D03*
X410787Y679224D02*
D03*
X403701D02*
D03*
X458673Y685118D02*
D03*
X451587D02*
D03*
X503378Y683661D02*
D03*
X496291D02*
D03*
X552760Y688587D02*
D03*
X545673D02*
D03*
X389846Y585272D02*
D03*
X396933D02*
D03*
X494799Y787719D02*
D03*
X487713D02*
D03*
X440502Y1034872D02*
D03*
X447589D02*
D03*
X546126Y573760D02*
D03*
X539039D02*
D03*
X528047Y585142D02*
D03*
X535134D02*
D03*
X407693Y572921D02*
D03*
X400606D02*
D03*
D27*
X427500Y724457D02*
D03*
Y731543D02*
D03*
X477000Y728457D02*
D03*
Y735543D02*
D03*
X522500Y723957D02*
D03*
Y731043D02*
D03*
X572000Y727957D02*
D03*
Y735043D02*
D03*
D28*
X415216Y673311D02*
D03*
X417776D02*
D03*
X420335D02*
D03*
X422894D02*
D03*
Y693012D02*
D03*
X420335D02*
D03*
X417776D02*
D03*
X415216D02*
D03*
X462669Y678342D02*
D03*
X465228D02*
D03*
X467787D02*
D03*
X470346D02*
D03*
Y698043D02*
D03*
X467787D02*
D03*
X465228D02*
D03*
X462669D02*
D03*
X507500Y676740D02*
D03*
X510059D02*
D03*
X512618D02*
D03*
X515177D02*
D03*
Y696441D02*
D03*
X512618D02*
D03*
X510059D02*
D03*
X507500D02*
D03*
X557189Y682673D02*
D03*
X559748D02*
D03*
X562307D02*
D03*
X564866D02*
D03*
Y702374D02*
D03*
X562307D02*
D03*
X559748D02*
D03*
X557189D02*
D03*
D29*
X284059Y930980D02*
D03*
Y925980D02*
D03*
Y920980D02*
D03*
Y915980D02*
D03*
Y910980D02*
D03*
X285842Y795268D02*
D03*
Y800268D02*
D03*
Y805268D02*
D03*
Y810268D02*
D03*
Y815268D02*
D03*
D30*
X312405Y920980D02*
D03*
X314189Y805268D02*
D03*
D31*
X264850Y1106484D02*
D03*
X291622D02*
D03*
D32*
X423677Y960126D02*
D03*
X433677D02*
D03*
X428677D02*
D03*
X453677D02*
D03*
X463677D02*
D03*
X458677D02*
D03*
X438677D02*
D03*
X448677D02*
D03*
X443677D02*
D03*
X423677Y923118D02*
D03*
X428677D02*
D03*
X433677D02*
D03*
X443677D02*
D03*
X438677D02*
D03*
X453677D02*
D03*
X448677D02*
D03*
X463677D02*
D03*
X458677D02*
D03*
D33*
X399000Y806350D02*
D03*
Y812650D02*
D03*
X238500Y656850D02*
D03*
Y663150D02*
D03*
X251000Y767350D02*
D03*
Y773650D02*
D03*
D34*
X337878Y728063D02*
D03*
X294177D02*
D03*
D35*
X429589Y993604D02*
D03*
Y991045D02*
D03*
Y1001282D02*
D03*
Y996163D02*
D03*
Y998722D02*
D03*
Y1003841D02*
D03*
Y1011518D02*
D03*
Y1006400D02*
D03*
Y1008959D02*
D03*
Y1014077D02*
D03*
Y1016636D02*
D03*
Y1024313D02*
D03*
Y1019195D02*
D03*
Y1021754D02*
D03*
X456360Y991045D02*
D03*
Y998722D02*
D03*
Y993604D02*
D03*
Y996163D02*
D03*
Y1001282D02*
D03*
Y1003841D02*
D03*
Y1008959D02*
D03*
Y1011518D02*
D03*
Y1016636D02*
D03*
Y1006400D02*
D03*
Y1014077D02*
D03*
Y1024313D02*
D03*
Y1019195D02*
D03*
Y1021754D02*
D03*
D36*
X419520Y776000D02*
D03*
X423260Y785449D02*
D03*
X427000Y776000D02*
D03*
X419520Y785449D02*
D03*
X427000D02*
D03*
D37*
X505921Y1054457D02*
D03*
X525606Y1049457D02*
D03*
Y1054457D02*
D03*
X505921Y1049457D02*
D03*
Y1039457D02*
D03*
Y1044457D02*
D03*
X525606D02*
D03*
Y1039457D02*
D03*
X505921Y1019024D02*
D03*
X525606Y1014024D02*
D03*
Y1019024D02*
D03*
X505921Y1014024D02*
D03*
Y1004024D02*
D03*
Y1009024D02*
D03*
X525606D02*
D03*
Y1004024D02*
D03*
X505921Y983591D02*
D03*
X525606Y978591D02*
D03*
Y983591D02*
D03*
X505921Y978591D02*
D03*
Y968591D02*
D03*
Y973591D02*
D03*
X525606D02*
D03*
Y968591D02*
D03*
X505921Y950126D02*
D03*
X525606Y945126D02*
D03*
Y950126D02*
D03*
X505921Y945126D02*
D03*
Y935126D02*
D03*
Y940126D02*
D03*
X525606D02*
D03*
Y935126D02*
D03*
D38*
X501224Y781937D02*
D03*
Y779969D02*
D03*
Y778000D02*
D03*
Y776031D02*
D03*
Y774063D02*
D03*
X518547D02*
D03*
Y776031D02*
D03*
Y778000D02*
D03*
Y779969D02*
D03*
Y781937D02*
D03*
D39*
X438500Y648500D02*
D03*
X488500D02*
D03*
X532500Y650000D02*
D03*
X562000D02*
D03*
X443000Y725500D02*
D03*
X493500Y727000D02*
D03*
X537500Y728500D02*
D03*
X579500Y706000D02*
D03*
X406500Y738500D02*
D03*
X449000Y738000D02*
D03*
X497000Y739000D02*
D03*
X545500D02*
D03*
X491500Y954500D02*
D03*
X492500Y983000D02*
D03*
Y993000D02*
D03*
Y1051500D02*
D03*
D40*
X337161Y613661D02*
D03*
Y616221D02*
D03*
Y618780D02*
D03*
Y621339D02*
D03*
X319839Y613661D02*
D03*
Y616221D02*
D03*
Y618780D02*
D03*
Y621339D02*
D03*
M02*
