G04 Layer_Color=8388736*
%FSLAX25Y25*%
%MOIN*%
G70*
G01*
G75*
%ADD75C,0.01300*%
%ADD76R,0.06706X0.03950*%
%ADD77R,0.06706X0.03792*%
%ADD78R,0.06706X0.03556*%
%ADD79R,0.06312X0.03950*%
%ADD80R,0.04343X0.03950*%
%ADD81R,0.14579X0.05009*%
%ADD82R,0.35800X0.42768*%
%ADD83R,0.07099X0.20485*%
%ADD84R,0.06706X0.13398*%
%ADD85R,0.03950X0.04343*%
%ADD86R,0.09816X0.11509*%
%ADD87R,0.05524X0.08280*%
%ADD88R,0.12611X0.24422*%
%ADD89R,0.04343X0.03556*%
%ADD90R,0.03556X0.04343*%
%ADD91O,0.02768X0.01587*%
%ADD92O,0.01587X0.02768*%
%ADD93R,0.02375X0.06312*%
%ADD94R,0.08674X0.03950*%
%ADD95R,0.24422X0.22847*%
%ADD96R,0.13398X0.30328*%
%ADD97R,0.03162X0.08674*%
%ADD98R,0.03950X0.03950*%
%ADD99R,0.10642X0.13398*%
%ADD100O,0.07887X0.02178*%
%ADD101R,0.03162X0.05524*%
%ADD102R,0.07887X0.03635*%
%ADD103R,0.06706X0.01981*%
%ADD104C,0.03800*%
%ADD105O,0.06509X0.02375*%
%ADD106O,0.07887X0.05131*%
%ADD107C,0.06800*%
%ADD108C,0.06706*%
%ADD109C,0.07887*%
%ADD110C,0.02768*%
%ADD111R,0.07887X0.07887*%
%ADD112R,0.07887X0.07887*%
%ADD113C,0.02800*%
G36*
X520551Y662042D02*
X520159D01*
X519436Y662342D01*
X518882Y662895D01*
X518582Y663619D01*
Y664402D01*
X518882Y665126D01*
X519436Y665679D01*
X520159Y665979D01*
X520551D01*
Y662042D01*
D02*
G37*
G36*
X478686Y667102D02*
X479240Y666548D01*
X479539Y665825D01*
Y665041D01*
X479240Y664318D01*
X478686Y663764D01*
X477962Y663465D01*
X477571D01*
Y667402D01*
X477962D01*
X478686Y667102D01*
D02*
G37*
G36*
X427960Y659574D02*
X427569D01*
X426845Y659873D01*
X426292Y660427D01*
X425992Y661150D01*
Y661934D01*
X426292Y662657D01*
X426845Y663211D01*
X427569Y663511D01*
X427960D01*
Y659574D01*
D02*
G37*
G36*
X523391Y665645D02*
X523944Y665091D01*
X524244Y664368D01*
Y663585D01*
X523944Y662861D01*
X523391Y662308D01*
X522667Y662008D01*
X522276D01*
Y665945D01*
X522667D01*
X523391Y665645D01*
D02*
G37*
G36*
X475846Y663499D02*
X475455D01*
X474731Y663798D01*
X474177Y664352D01*
X473878Y665076D01*
Y665859D01*
X474177Y666582D01*
X474731Y667136D01*
X475455Y667436D01*
X475846D01*
Y663499D01*
D02*
G37*
G36*
X409146Y680893D02*
X409700Y680339D01*
X410000Y679616D01*
Y678833D01*
X409700Y678109D01*
X409146Y677556D01*
X408423Y677256D01*
X408032D01*
Y681193D01*
X408423D01*
X409146Y680893D01*
D02*
G37*
G36*
X406307Y677290D02*
X405915D01*
X405192Y677590D01*
X404638Y678143D01*
X404338Y678867D01*
Y679650D01*
X404638Y680374D01*
X405192Y680927D01*
X405915Y681227D01*
X406307D01*
Y677290D01*
D02*
G37*
G36*
X572773Y670570D02*
X573326Y670017D01*
X573626Y669293D01*
Y668510D01*
X573326Y667787D01*
X572773Y667233D01*
X572049Y666933D01*
X571657D01*
Y670870D01*
X572049D01*
X572773Y670570D01*
D02*
G37*
G36*
X569933Y666967D02*
X569541D01*
X568818Y667267D01*
X568264Y667821D01*
X567964Y668544D01*
Y669327D01*
X568264Y670051D01*
X568818Y670605D01*
X569541Y670904D01*
X569933D01*
Y666967D01*
D02*
G37*
G36*
X544485Y575429D02*
X545039Y574875D01*
X545339Y574151D01*
Y573368D01*
X545039Y572645D01*
X544485Y572091D01*
X543762Y571791D01*
X543370D01*
Y575728D01*
X543762D01*
X544485Y575429D01*
D02*
G37*
G36*
X541645Y571826D02*
X541254D01*
X540530Y572125D01*
X539977Y572679D01*
X539677Y573402D01*
Y574186D01*
X539977Y574909D01*
X540530Y575463D01*
X541254Y575763D01*
X541645D01*
Y571826D01*
D02*
G37*
G36*
X406052Y574590D02*
X406606Y574036D01*
X406906Y573313D01*
Y572530D01*
X406606Y571806D01*
X406052Y571252D01*
X405329Y570953D01*
X404937D01*
Y574890D01*
X405329D01*
X406052Y574590D01*
D02*
G37*
G36*
X403212Y570987D02*
X402821D01*
X402097Y571287D01*
X401544Y571840D01*
X401244Y572564D01*
Y573347D01*
X401544Y574071D01*
X402097Y574624D01*
X402821Y574924D01*
X403212D01*
Y570987D01*
D02*
G37*
G36*
X533643Y586776D02*
X534197Y586223D01*
X534496Y585499D01*
Y584716D01*
X534197Y583993D01*
X533643Y583439D01*
X532919Y583139D01*
X532528D01*
Y587076D01*
X532919D01*
X533643Y586776D01*
D02*
G37*
G36*
X392602Y583303D02*
X392211D01*
X391487Y583603D01*
X390934Y584157D01*
X390634Y584880D01*
Y585663D01*
X390934Y586387D01*
X391487Y586940D01*
X392211Y587240D01*
X392602D01*
Y583303D01*
D02*
G37*
G36*
X430800Y663177D02*
X431354Y662623D01*
X431653Y661899D01*
Y661116D01*
X431354Y660393D01*
X430800Y659839D01*
X430077Y659539D01*
X429685D01*
Y663476D01*
X430077D01*
X430800Y663177D01*
D02*
G37*
G36*
X530803Y583173D02*
X530412D01*
X529688Y583473D01*
X529134Y584027D01*
X528835Y584750D01*
Y585533D01*
X529134Y586257D01*
X529688Y586811D01*
X530412Y587110D01*
X530803D01*
Y583173D01*
D02*
G37*
G36*
X395442Y586906D02*
X395996Y586353D01*
X396295Y585629D01*
Y584846D01*
X395996Y584123D01*
X395442Y583569D01*
X394719Y583269D01*
X394327D01*
Y587206D01*
X394719D01*
X395442Y586906D01*
D02*
G37*
G36*
X478968Y730821D02*
X478669Y730097D01*
X478115Y729544D01*
X477392Y729244D01*
X476608D01*
X475885Y729544D01*
X475331Y730097D01*
X475032Y730821D01*
Y731213D01*
X478968D01*
Y730821D01*
D02*
G37*
G36*
X573149Y734106D02*
X573703Y733552D01*
X574003Y732829D01*
Y732437D01*
X570066D01*
Y732829D01*
X570365Y733552D01*
X570919Y734106D01*
X571642Y734406D01*
X572426D01*
X573149Y734106D01*
D02*
G37*
G36*
X573969Y730321D02*
X573669Y729598D01*
X573115Y729044D01*
X572392Y728744D01*
X571608D01*
X570885Y729044D01*
X570331Y729598D01*
X570031Y730321D01*
Y730713D01*
X573969D01*
Y730321D01*
D02*
G37*
G36*
X428649Y730606D02*
X429203Y730052D01*
X429503Y729329D01*
Y728937D01*
X425566D01*
Y729329D01*
X425865Y730052D01*
X426419Y730606D01*
X427142Y730906D01*
X427926D01*
X428649Y730606D01*
D02*
G37*
G36*
X478149Y734606D02*
X478703Y734052D01*
X479003Y733329D01*
Y732937D01*
X475066D01*
Y733329D01*
X475365Y734052D01*
X475919Y734606D01*
X476643Y734906D01*
X477426D01*
X478149Y734606D01*
D02*
G37*
G36*
X445948Y1036541D02*
X446501Y1035987D01*
X446801Y1035264D01*
Y1034480D01*
X446501Y1033757D01*
X445948Y1033203D01*
X445224Y1032904D01*
X444833D01*
Y1036841D01*
X445224D01*
X445948Y1036541D01*
D02*
G37*
G36*
X443108Y1032938D02*
X442716D01*
X441993Y1033237D01*
X441439Y1033791D01*
X441140Y1034515D01*
Y1035298D01*
X441439Y1036021D01*
X441993Y1036575D01*
X442716Y1036875D01*
X443108D01*
Y1032938D01*
D02*
G37*
G36*
X493158Y789388D02*
X493712Y788834D01*
X494012Y788111D01*
Y787328D01*
X493712Y786604D01*
X493158Y786050D01*
X492435Y785751D01*
X492043D01*
Y789688D01*
X492435D01*
X493158Y789388D01*
D02*
G37*
G36*
X490319Y785785D02*
X489927D01*
X489204Y786085D01*
X488650Y786638D01*
X488350Y787362D01*
Y788145D01*
X488650Y788868D01*
X489204Y789422D01*
X489927Y789722D01*
X490319D01*
Y785785D01*
D02*
G37*
G36*
X457032Y686787D02*
X457586Y686233D01*
X457886Y685510D01*
Y684727D01*
X457586Y684003D01*
X457032Y683449D01*
X456309Y683150D01*
X455917D01*
Y687087D01*
X456309D01*
X457032Y686787D01*
D02*
G37*
G36*
X454193Y683184D02*
X453801D01*
X453078Y683483D01*
X452524Y684037D01*
X452224Y684761D01*
Y685544D01*
X452524Y686267D01*
X453078Y686821D01*
X453801Y687121D01*
X454193D01*
Y683184D01*
D02*
G37*
G36*
X501737Y685330D02*
X502291Y684776D01*
X502591Y684053D01*
Y683270D01*
X502291Y682546D01*
X501737Y681993D01*
X501014Y681693D01*
X500622D01*
Y685630D01*
X501014D01*
X501737Y685330D01*
D02*
G37*
G36*
X498897Y681727D02*
X498506D01*
X497782Y682027D01*
X497229Y682581D01*
X496929Y683304D01*
Y684087D01*
X497229Y684811D01*
X497782Y685364D01*
X498506Y685664D01*
X498897D01*
Y681727D01*
D02*
G37*
G36*
X551119Y690255D02*
X551673Y689702D01*
X551972Y688978D01*
Y688195D01*
X551673Y687472D01*
X551119Y686918D01*
X550395Y686618D01*
X550004D01*
Y690555D01*
X550395D01*
X551119Y690255D01*
D02*
G37*
G36*
X429468Y726821D02*
X429169Y726097D01*
X428615Y725544D01*
X427892Y725244D01*
X427108D01*
X426385Y725544D01*
X425831Y726097D01*
X425531Y726821D01*
Y727213D01*
X429468D01*
Y726821D01*
D02*
G37*
G36*
X523649Y730106D02*
X524203Y729552D01*
X524503Y728829D01*
Y728437D01*
X520566D01*
Y728829D01*
X520865Y729552D01*
X521419Y730106D01*
X522143Y730406D01*
X522926D01*
X523649Y730106D01*
D02*
G37*
G36*
X548279Y686652D02*
X547888D01*
X547164Y686952D01*
X546610Y687506D01*
X546311Y688229D01*
Y689012D01*
X546610Y689736D01*
X547164Y690289D01*
X547888Y690589D01*
X548279D01*
Y686652D01*
D02*
G37*
G36*
X524469Y726321D02*
X524169Y725597D01*
X523615Y725044D01*
X522892Y724744D01*
X522108D01*
X521385Y725044D01*
X520831Y725597D01*
X520532Y726321D01*
Y726713D01*
X524469D01*
Y726321D01*
D02*
G37*
D75*
X571657Y666933D02*
G03*
X571657Y670870I0J1969D01*
G01*
X543370Y571791D02*
G03*
X543370Y575728I0J1969D01*
G01*
X530803Y587110D02*
G03*
X529622Y586717I0J-1969D01*
G01*
X529228Y586323D02*
G03*
X530803Y583173I1575J-1181D01*
G01*
X523850Y662795D02*
G03*
X522276Y665945I-1575J1181D01*
G01*
Y662008D02*
G03*
X523457Y662402I0J1969D01*
G01*
X479146Y664252D02*
G03*
X477571Y667402I-1575J1181D01*
G01*
Y663465D02*
G03*
X478752Y663858I0J1969D01*
G01*
X404937Y570953D02*
G03*
X404937Y574890I0J1969D01*
G01*
X431260Y660327D02*
G03*
X429685Y663476I-1575J1181D01*
G01*
Y659539D02*
G03*
X430866Y659933I0J1969D01*
G01*
X392602Y587240D02*
G03*
X392602Y583303I0J-1969D01*
G01*
X490469Y789688D02*
G03*
X490469Y785751I0J-1969D01*
G01*
X550004Y686618D02*
G03*
X550004Y690555I0J1969D01*
G01*
X548429D02*
G03*
X548429Y686618I0J-1969D01*
G01*
X500622Y681693D02*
G03*
X500622Y685630I0J1969D01*
G01*
X499047D02*
G03*
X499047Y681693I0J-1969D01*
G01*
X455917Y683150D02*
G03*
X455917Y687087I0J1969D01*
G01*
X454343D02*
G03*
X454343Y683150I0J-1969D01*
G01*
X408032Y677256D02*
G03*
X408032Y681193I0J1969D01*
G01*
X406457D02*
G03*
X406457Y677256I0J-1969D01*
G01*
X570031Y730713D02*
G03*
X573969Y730713I1969J0D01*
G01*
X520532Y726713D02*
G03*
X524469Y726713I1969J0D01*
G01*
X475032Y731213D02*
G03*
X478968Y731213I1969J0D01*
G01*
X425531Y727213D02*
G03*
X429468Y727213I1969J0D01*
G01*
X570083Y670870D02*
G03*
X570083Y666933I0J-1969D01*
G01*
X520701Y665945D02*
G03*
X520701Y662008I0J-1969D01*
G01*
X475996Y667402D02*
G03*
X475996Y663465I0J-1969D01*
G01*
X428110Y663476D02*
G03*
X428110Y659539I0J-1969D01*
G01*
X443258Y1036841D02*
G03*
X443258Y1032904I0J-1969D01*
G01*
X541795Y575728D02*
G03*
X541795Y571791I0J-1969D01*
G01*
X532378Y583173D02*
G03*
X532378Y587110I0J1969D01*
G01*
X403362Y574890D02*
G03*
X403362Y570953I0J-1969D01*
G01*
X394177Y583303D02*
G03*
X394177Y587240I0J1969D01*
G01*
X444833Y1032904D02*
G03*
X444833Y1036841I0J1969D01*
G01*
X492043Y785751D02*
G03*
X492043Y789688I0J1969D01*
G01*
X573969Y732287D02*
G03*
X570031Y732287I-1969J0D01*
G01*
X524469Y728287D02*
G03*
X520532Y728287I-1969J0D01*
G01*
X478968Y732787D02*
G03*
X478575Y733968I-1969J0D01*
G01*
X478181Y734362D02*
G03*
X475032Y732787I-1181J-1575D01*
G01*
X429468Y728787D02*
G03*
X427239Y730738I-1969J0D01*
G01*
X425549Y729049D02*
G03*
X425531Y728787I1951J-261D01*
G01*
X427239Y730738D02*
G03*
X425549Y729049I261J-1951D01*
G01*
X478575Y733968D02*
G03*
X478181Y734362I-1575J-1181D01*
G01*
X430866Y659933D02*
G03*
X431260Y660327I-1181J1575D01*
G01*
X478752Y663858D02*
G03*
X479146Y664252I-1181J1575D01*
G01*
X523457Y662402D02*
G03*
X523850Y662795I-1181J1575D01*
G01*
X529622Y586717D02*
G03*
X529228Y586323I1181J-1575D01*
G01*
X571657Y666933D02*
Y670870D01*
X543370Y571791D02*
Y575728D01*
X530803Y583173D02*
Y587110D01*
X522276Y662008D02*
Y665945D01*
X477571Y663465D02*
Y667402D01*
X404937Y570953D02*
Y574890D01*
X429685Y659539D02*
Y663476D01*
X392602Y583303D02*
Y587240D01*
X490469Y785751D02*
Y789688D01*
X550004Y686618D02*
Y690555D01*
X548429Y686618D02*
Y690555D01*
X500622Y681693D02*
Y685630D01*
X499047Y681693D02*
Y685630D01*
X455917Y683150D02*
Y687087D01*
X454343Y683150D02*
Y687087D01*
X408032Y677256D02*
Y681193D01*
X406457Y677256D02*
Y681193D01*
X570031Y730713D02*
X573969D01*
X520532Y726713D02*
X524469D01*
X475032Y731213D02*
X478968D01*
X425531Y727213D02*
X429468D01*
X570083Y666933D02*
Y670870D01*
X520701Y662008D02*
Y665945D01*
X475996Y663465D02*
Y667402D01*
X428110Y659539D02*
Y663476D01*
X443258Y1032904D02*
Y1036841D01*
X541795Y571791D02*
Y575728D01*
X532378Y583173D02*
Y587110D01*
X403362Y570953D02*
Y574890D01*
X394177Y583303D02*
Y587240D01*
X444833Y1032904D02*
Y1036841D01*
X492043Y785751D02*
Y789688D01*
X570031Y732287D02*
X573969D01*
X520532Y728287D02*
X524469D01*
X475032Y732787D02*
X478968D01*
X425531Y728787D02*
X429468D01*
D76*
X222244Y640827D02*
D03*
D77*
Y635984D02*
D03*
Y624016D02*
D03*
D78*
Y631968D02*
D03*
Y628031D02*
D03*
D79*
Y619173D02*
D03*
D80*
X497866Y707559D02*
D03*
Y713071D02*
D03*
X296012Y1034630D02*
D03*
Y1040142D02*
D03*
X364768Y1002476D02*
D03*
Y996965D02*
D03*
X405276Y699303D02*
D03*
Y704815D02*
D03*
X452661Y708984D02*
D03*
Y714496D02*
D03*
X547248Y707484D02*
D03*
Y712996D02*
D03*
X395433Y704421D02*
D03*
Y698910D02*
D03*
X442819Y714496D02*
D03*
Y708984D02*
D03*
X488024Y713071D02*
D03*
Y707559D02*
D03*
X537405Y712996D02*
D03*
Y707484D02*
D03*
X428898Y678437D02*
D03*
Y683949D02*
D03*
X476783Y684331D02*
D03*
Y689843D02*
D03*
X520870Y683492D02*
D03*
Y689004D02*
D03*
X570870Y689768D02*
D03*
Y695280D02*
D03*
X364583Y875346D02*
D03*
Y880858D02*
D03*
X313242Y625758D02*
D03*
Y631270D02*
D03*
D81*
X298516Y1054650D02*
D03*
Y1068051D02*
D03*
Y1061350D02*
D03*
Y1074752D02*
D03*
X298909Y1081453D02*
D03*
X324059Y666157D02*
D03*
Y672858D02*
D03*
Y679559D02*
D03*
Y686260D02*
D03*
X324453Y692961D02*
D03*
D82*
X340248Y1068051D02*
D03*
X365791Y679559D02*
D03*
D83*
X261740Y1061547D02*
D03*
Y1015878D02*
D03*
X283500Y683169D02*
D03*
Y637500D02*
D03*
D84*
X322043Y1137138D02*
D03*
Y1101705D02*
D03*
X354925Y980035D02*
D03*
Y944602D02*
D03*
X250594Y970193D02*
D03*
Y934760D02*
D03*
X252378Y856449D02*
D03*
Y821016D02*
D03*
X354740Y858417D02*
D03*
Y822984D02*
D03*
X366276Y748220D02*
D03*
Y712787D02*
D03*
X252126Y750295D02*
D03*
Y714862D02*
D03*
D85*
X275004Y982004D02*
D03*
X269492D02*
D03*
X462217Y730394D02*
D03*
X467728D02*
D03*
X506921Y728937D02*
D03*
X512433D02*
D03*
X556303Y735831D02*
D03*
X561815D02*
D03*
X414512Y730969D02*
D03*
X420024D02*
D03*
X269307Y866291D02*
D03*
X274819D02*
D03*
X538626Y776031D02*
D03*
X544138D02*
D03*
X538626Y768157D02*
D03*
X544138D02*
D03*
X478012Y767500D02*
D03*
X472500D02*
D03*
X478146Y776031D02*
D03*
X472634D02*
D03*
X513035Y791780D02*
D03*
X518547D02*
D03*
X445636Y983577D02*
D03*
X440124D02*
D03*
X465256Y1089000D02*
D03*
X459744D02*
D03*
X521756Y1088500D02*
D03*
X516244D02*
D03*
X410256Y1087000D02*
D03*
X404744D02*
D03*
X433248Y775902D02*
D03*
X438760D02*
D03*
Y785744D02*
D03*
X433248D02*
D03*
D86*
X326917Y1035244D02*
D03*
X342862D02*
D03*
X336520Y995984D02*
D03*
X352465D02*
D03*
X334957Y878102D02*
D03*
X350902D02*
D03*
X320063Y649827D02*
D03*
X336008D02*
D03*
D87*
X273158Y1076114D02*
D03*
X285756D02*
D03*
X258862Y985941D02*
D03*
X246264D02*
D03*
X298228Y696063D02*
D03*
X310827D02*
D03*
X248047Y870228D02*
D03*
X260646D02*
D03*
D88*
X284059Y964287D02*
D03*
X323429D02*
D03*
X283366Y846673D02*
D03*
X322736D02*
D03*
D89*
X314012Y1040339D02*
D03*
Y1034433D02*
D03*
X305012Y1034433D02*
D03*
Y1040339D02*
D03*
X410726Y1034994D02*
D03*
Y1029089D02*
D03*
X404821Y1034994D02*
D03*
Y1029089D02*
D03*
X398915Y1034994D02*
D03*
Y1029089D02*
D03*
X414663Y1019246D02*
D03*
Y1013341D02*
D03*
X408758Y1013341D02*
D03*
Y1019246D02*
D03*
X414663Y1005467D02*
D03*
Y999561D02*
D03*
X408758Y999561D02*
D03*
Y1005467D02*
D03*
X414758Y991577D02*
D03*
Y985671D02*
D03*
X408758Y985671D02*
D03*
Y991577D02*
D03*
X414663Y976923D02*
D03*
Y971018D02*
D03*
X408758Y971018D02*
D03*
Y976923D02*
D03*
X463876Y1034994D02*
D03*
Y1029089D02*
D03*
X469781Y1034994D02*
D03*
Y1029089D02*
D03*
X469781Y1013341D02*
D03*
Y1019246D02*
D03*
X475687Y1019246D02*
D03*
Y1013341D02*
D03*
X469781Y999561D02*
D03*
Y1005467D02*
D03*
X475687Y1005467D02*
D03*
Y999561D02*
D03*
X469781Y985782D02*
D03*
Y991687D02*
D03*
X475687Y991687D02*
D03*
Y985781D02*
D03*
X469781Y972002D02*
D03*
Y977907D02*
D03*
X475687Y977907D02*
D03*
Y972002D02*
D03*
Y1034994D02*
D03*
Y1029089D02*
D03*
X481593Y1034994D02*
D03*
Y1029089D02*
D03*
X401339Y654618D02*
D03*
Y660524D02*
D03*
X449224Y660512D02*
D03*
Y666417D02*
D03*
X493929Y659055D02*
D03*
Y664961D02*
D03*
X541342Y663980D02*
D03*
Y669886D02*
D03*
X419055Y713673D02*
D03*
Y719579D02*
D03*
X466941Y717598D02*
D03*
Y723504D02*
D03*
X511646Y716142D02*
D03*
Y722047D02*
D03*
X561027Y723035D02*
D03*
Y728941D02*
D03*
X420000Y665906D02*
D03*
Y660000D02*
D03*
X468409Y669854D02*
D03*
Y663949D02*
D03*
X513370Y669201D02*
D03*
Y663295D02*
D03*
X562996Y673823D02*
D03*
Y667917D02*
D03*
X500043Y786858D02*
D03*
Y792764D02*
D03*
X505949Y786858D02*
D03*
Y792764D02*
D03*
X408000Y812453D02*
D03*
Y806547D02*
D03*
X245500Y662953D02*
D03*
Y657047D02*
D03*
X259000Y772953D02*
D03*
Y767047D02*
D03*
X531539Y793295D02*
D03*
Y787390D02*
D03*
X525634Y793295D02*
D03*
Y787390D02*
D03*
X483087Y790251D02*
D03*
Y784345D02*
D03*
D90*
X342130Y930823D02*
D03*
X336224D02*
D03*
X336224Y922949D02*
D03*
X342130D02*
D03*
X336224Y915075D02*
D03*
X342130D02*
D03*
X336224Y907201D02*
D03*
X342130D02*
D03*
X432406Y668000D02*
D03*
X426500D02*
D03*
X479736Y672839D02*
D03*
X473831D02*
D03*
X524441Y669882D02*
D03*
X518535D02*
D03*
X573823Y674807D02*
D03*
X567917D02*
D03*
X425945Y706783D02*
D03*
X420039D02*
D03*
X473831Y710709D02*
D03*
X467925D02*
D03*
X518535Y709252D02*
D03*
X512630D02*
D03*
X567917Y716146D02*
D03*
X562012D02*
D03*
X410197Y673319D02*
D03*
X404291D02*
D03*
X458083Y679213D02*
D03*
X452177D02*
D03*
X502787Y677756D02*
D03*
X496882D02*
D03*
X552169Y682681D02*
D03*
X546264D02*
D03*
X404291Y667413D02*
D03*
X410197D02*
D03*
X452177Y673307D02*
D03*
X458083D02*
D03*
X496882Y671850D02*
D03*
X502787D02*
D03*
X546264Y676776D02*
D03*
X552169D02*
D03*
X412165Y700878D02*
D03*
X418071D02*
D03*
X460051Y704803D02*
D03*
X465957D02*
D03*
X504756Y703346D02*
D03*
X510661D02*
D03*
X554138Y710240D02*
D03*
X560043D02*
D03*
X398386Y667413D02*
D03*
X392480D02*
D03*
X446272Y673307D02*
D03*
X440366D02*
D03*
X490976Y671850D02*
D03*
X485071D02*
D03*
X540358Y676776D02*
D03*
X534453D02*
D03*
X336039Y785583D02*
D03*
X341945D02*
D03*
X336039Y793457D02*
D03*
X341945D02*
D03*
X336039Y801331D02*
D03*
X341945D02*
D03*
X341945Y809205D02*
D03*
X336039D02*
D03*
X532524Y768157D02*
D03*
X526618D02*
D03*
X532524Y776031D02*
D03*
X526618D02*
D03*
X493153Y767658D02*
D03*
X487248D02*
D03*
X493153Y776031D02*
D03*
X487248D02*
D03*
X416305Y1030821D02*
D03*
X422211D02*
D03*
X458628Y1034758D02*
D03*
X452722D02*
D03*
X429100Y1034758D02*
D03*
X435006D02*
D03*
X520835Y1033232D02*
D03*
X514929D02*
D03*
X519807Y998197D02*
D03*
X513902D02*
D03*
X519807Y962764D02*
D03*
X513902D02*
D03*
X519807Y929299D02*
D03*
X513902D02*
D03*
X491157Y1039083D02*
D03*
X497063D02*
D03*
X491157Y1003650D02*
D03*
X497063D02*
D03*
X491157Y968217D02*
D03*
X497063D02*
D03*
X491157Y934752D02*
D03*
X497063D02*
D03*
X528496Y573661D02*
D03*
X534402D02*
D03*
X546354Y585142D02*
D03*
X540449D02*
D03*
X390197Y572921D02*
D03*
X396102D02*
D03*
X408153Y585272D02*
D03*
X402248D02*
D03*
D91*
X432441Y661508D02*
D03*
X425354D02*
D03*
X480327Y665433D02*
D03*
X473240D02*
D03*
X525032Y663976D02*
D03*
X517945D02*
D03*
X574413Y668902D02*
D03*
X567327D02*
D03*
X410787Y679224D02*
D03*
X403701D02*
D03*
X458673Y685118D02*
D03*
X451587D02*
D03*
X503378Y683661D02*
D03*
X496291D02*
D03*
X552760Y688587D02*
D03*
X545673D02*
D03*
X389846Y585272D02*
D03*
X396933D02*
D03*
X494799Y787719D02*
D03*
X487713D02*
D03*
X440502Y1034872D02*
D03*
X447589D02*
D03*
X546126Y573760D02*
D03*
X539039D02*
D03*
X528047Y585142D02*
D03*
X535134D02*
D03*
X407693Y572921D02*
D03*
X400606D02*
D03*
D92*
X427500Y724457D02*
D03*
Y731543D02*
D03*
X477000Y728457D02*
D03*
Y735543D02*
D03*
X522500Y723957D02*
D03*
Y731043D02*
D03*
X572000Y727957D02*
D03*
Y735043D02*
D03*
D93*
X415216Y673311D02*
D03*
X417776D02*
D03*
X420335D02*
D03*
X422894D02*
D03*
Y693012D02*
D03*
X420335D02*
D03*
X417776D02*
D03*
X415216D02*
D03*
X462669Y678342D02*
D03*
X465228D02*
D03*
X467787D02*
D03*
X470346D02*
D03*
Y698043D02*
D03*
X467787D02*
D03*
X465228D02*
D03*
X462669D02*
D03*
X507500Y676740D02*
D03*
X510059D02*
D03*
X512618D02*
D03*
X515177D02*
D03*
Y696441D02*
D03*
X512618D02*
D03*
X510059D02*
D03*
X507500D02*
D03*
X557189Y682673D02*
D03*
X559748D02*
D03*
X562307D02*
D03*
X564866D02*
D03*
Y702374D02*
D03*
X562307D02*
D03*
X559748D02*
D03*
X557189D02*
D03*
D94*
X284059Y930980D02*
D03*
Y925980D02*
D03*
Y920980D02*
D03*
Y915980D02*
D03*
Y910980D02*
D03*
X285842Y795268D02*
D03*
Y800268D02*
D03*
Y805268D02*
D03*
Y810268D02*
D03*
Y815268D02*
D03*
D95*
X312405Y920980D02*
D03*
X314189Y805268D02*
D03*
D96*
X264850Y1106484D02*
D03*
X291622D02*
D03*
D97*
X423677Y960126D02*
D03*
X433677D02*
D03*
X428677D02*
D03*
X453677D02*
D03*
X463677D02*
D03*
X458677D02*
D03*
X438677D02*
D03*
X448677D02*
D03*
X443677D02*
D03*
X423677Y923118D02*
D03*
X428677D02*
D03*
X433677D02*
D03*
X443677D02*
D03*
X438677D02*
D03*
X453677D02*
D03*
X448677D02*
D03*
X463677D02*
D03*
X458677D02*
D03*
D98*
X399000Y806350D02*
D03*
Y812650D02*
D03*
X238500Y656850D02*
D03*
Y663150D02*
D03*
X251000Y767350D02*
D03*
Y773650D02*
D03*
D99*
X337878Y728063D02*
D03*
X294177D02*
D03*
D100*
X429589Y993604D02*
D03*
Y991045D02*
D03*
Y1001282D02*
D03*
Y996163D02*
D03*
Y998722D02*
D03*
Y1003841D02*
D03*
Y1011518D02*
D03*
Y1006400D02*
D03*
Y1008959D02*
D03*
Y1014077D02*
D03*
Y1016636D02*
D03*
Y1024313D02*
D03*
Y1019195D02*
D03*
Y1021754D02*
D03*
X456360Y991045D02*
D03*
Y998722D02*
D03*
Y993604D02*
D03*
Y996163D02*
D03*
Y1001282D02*
D03*
Y1003841D02*
D03*
Y1008959D02*
D03*
Y1011518D02*
D03*
Y1016636D02*
D03*
Y1006400D02*
D03*
Y1014077D02*
D03*
Y1024313D02*
D03*
Y1019195D02*
D03*
Y1021754D02*
D03*
D101*
X419520Y776000D02*
D03*
X423260Y785449D02*
D03*
X427000Y776000D02*
D03*
X419520Y785449D02*
D03*
X427000D02*
D03*
D102*
X505921Y1054457D02*
D03*
X525606Y1049457D02*
D03*
Y1054457D02*
D03*
X505921Y1049457D02*
D03*
Y1039457D02*
D03*
Y1044457D02*
D03*
X525606D02*
D03*
Y1039457D02*
D03*
X505921Y1019024D02*
D03*
X525606Y1014024D02*
D03*
Y1019024D02*
D03*
X505921Y1014024D02*
D03*
Y1004024D02*
D03*
Y1009024D02*
D03*
X525606D02*
D03*
Y1004024D02*
D03*
X505921Y983591D02*
D03*
X525606Y978591D02*
D03*
Y983591D02*
D03*
X505921Y978591D02*
D03*
Y968591D02*
D03*
Y973591D02*
D03*
X525606D02*
D03*
Y968591D02*
D03*
X505921Y950126D02*
D03*
X525606Y945126D02*
D03*
Y950126D02*
D03*
X505921Y945126D02*
D03*
Y935126D02*
D03*
Y940126D02*
D03*
X525606D02*
D03*
Y935126D02*
D03*
D103*
X501224Y781937D02*
D03*
Y779969D02*
D03*
Y778000D02*
D03*
Y776031D02*
D03*
Y774063D02*
D03*
X518547D02*
D03*
Y776031D02*
D03*
Y778000D02*
D03*
Y779969D02*
D03*
Y781937D02*
D03*
D104*
X438500Y648500D02*
D03*
X488500D02*
D03*
X532500Y650000D02*
D03*
X562000D02*
D03*
X443000Y725500D02*
D03*
X493500Y727000D02*
D03*
X537500Y728500D02*
D03*
X579500Y706000D02*
D03*
X406500Y738500D02*
D03*
X449000Y738000D02*
D03*
X497000Y739000D02*
D03*
X545500D02*
D03*
X491500Y954500D02*
D03*
X492500Y983000D02*
D03*
Y993000D02*
D03*
Y1051500D02*
D03*
D105*
X337161Y613661D02*
D03*
Y616221D02*
D03*
Y618780D02*
D03*
Y621339D02*
D03*
X319839Y613661D02*
D03*
Y616221D02*
D03*
Y618780D02*
D03*
Y621339D02*
D03*
D106*
X206693Y647008D02*
D03*
X221654D02*
D03*
X206693Y612992D02*
D03*
X221654D02*
D03*
D107*
X208661Y1153543D02*
D03*
X618110D02*
D03*
Y566929D02*
D03*
X246232Y585362D02*
D03*
X304264D02*
D03*
X289748D02*
D03*
X279748D02*
D03*
X270248D02*
D03*
X260248D02*
D03*
Y595362D02*
D03*
X270248D02*
D03*
X279748D02*
D03*
X290248D02*
D03*
X381594Y1133500D02*
D03*
X393406D02*
D03*
X503594Y1133000D02*
D03*
X515406D02*
D03*
X463594D02*
D03*
X475406D02*
D03*
X421594D02*
D03*
X433405D02*
D03*
X223000Y1102905D02*
D03*
Y1091094D02*
D03*
X562500Y895469D02*
D03*
Y883657D02*
D03*
X599000Y1019969D02*
D03*
Y1008158D02*
D03*
X561000Y977468D02*
D03*
Y965658D02*
D03*
X600500Y977468D02*
D03*
Y965658D02*
D03*
X599500Y894969D02*
D03*
Y883158D02*
D03*
X561921Y935902D02*
D03*
Y924090D02*
D03*
X564000Y851968D02*
D03*
Y840158D02*
D03*
X223189Y790012D02*
D03*
Y778201D02*
D03*
X598823Y1061079D02*
D03*
Y1049268D02*
D03*
X599323Y935902D02*
D03*
Y924090D02*
D03*
X560500Y1019468D02*
D03*
Y1007658D02*
D03*
X600500Y851874D02*
D03*
Y840063D02*
D03*
X561421Y1061079D02*
D03*
Y1049268D02*
D03*
D108*
X208661Y566929D02*
D03*
D109*
X590098Y1097925D02*
D03*
X600098D02*
D03*
X590098Y1130925D02*
D03*
X600098D02*
D03*
X548598Y1097425D02*
D03*
X558598D02*
D03*
X548598Y1130425D02*
D03*
X558598D02*
D03*
X245500Y1145500D02*
D03*
X235500D02*
D03*
X255500D02*
D03*
X369768Y907043D02*
D03*
Y917043D02*
D03*
Y927043D02*
D03*
X359768Y907043D02*
D03*
Y917043D02*
D03*
X359417Y1035244D02*
D03*
X299492Y898984D02*
D03*
X494189Y585142D02*
D03*
X504189D02*
D03*
X484189D02*
D03*
X472000Y1099500D02*
D03*
X527500D02*
D03*
X413500Y1098000D02*
D03*
X298500Y784000D02*
D03*
X417224Y766059D02*
D03*
X353500Y649827D02*
D03*
X240315Y696240D02*
D03*
X439500Y1100000D02*
D03*
X449500Y1090000D02*
D03*
Y1100000D02*
D03*
X495000Y1099500D02*
D03*
X505000Y1089500D02*
D03*
Y1099500D02*
D03*
X381000Y1100000D02*
D03*
X391000Y1090000D02*
D03*
Y1100000D02*
D03*
X367614Y785425D02*
D03*
Y795425D02*
D03*
Y805425D02*
D03*
X357614Y785425D02*
D03*
Y795425D02*
D03*
X397327Y599051D02*
D03*
X387327D02*
D03*
X535528Y598921D02*
D03*
X525528D02*
D03*
X582772Y585142D02*
D03*
X592772D02*
D03*
X572772D02*
D03*
X440634Y585272D02*
D03*
X450634D02*
D03*
X430634D02*
D03*
X355988D02*
D03*
X365988D02*
D03*
X345988D02*
D03*
X599228Y667929D02*
D03*
Y657929D02*
D03*
X599228Y707299D02*
D03*
Y697299D02*
D03*
X597335Y746071D02*
D03*
Y756071D02*
D03*
Y736071D02*
D03*
X597335Y795284D02*
D03*
Y805284D02*
D03*
Y785284D02*
D03*
D110*
X397106Y1145311D02*
D03*
Y1121689D02*
D03*
X519106Y1144811D02*
D03*
Y1121189D02*
D03*
X479106Y1144811D02*
D03*
Y1121189D02*
D03*
X437106Y1144811D02*
D03*
Y1121189D02*
D03*
X234811Y1087394D02*
D03*
X211189D02*
D03*
X574311Y879957D02*
D03*
X550689D02*
D03*
X610811Y1004457D02*
D03*
X587189D02*
D03*
X572811Y961957D02*
D03*
X549189D02*
D03*
X612311D02*
D03*
X588689D02*
D03*
X611311Y879457D02*
D03*
X587689D02*
D03*
X573732Y920390D02*
D03*
X550110D02*
D03*
X575811Y836457D02*
D03*
X552189D02*
D03*
X235000Y774500D02*
D03*
X211378D02*
D03*
X610634Y1045567D02*
D03*
X587012D02*
D03*
X611134Y920390D02*
D03*
X587512D02*
D03*
X572311Y1003957D02*
D03*
X548689D02*
D03*
X612311Y836362D02*
D03*
X588689D02*
D03*
X573232Y1045567D02*
D03*
X549610D02*
D03*
D111*
X359768Y927043D02*
D03*
X240315Y686240D02*
D03*
X357614Y805425D02*
D03*
D112*
X369417Y1035244D02*
D03*
X309492Y898984D02*
D03*
X462000Y1099500D02*
D03*
X517500D02*
D03*
X403500Y1098000D02*
D03*
X308500Y784000D02*
D03*
X427224Y766059D02*
D03*
X363500Y649827D02*
D03*
X439500Y1090000D02*
D03*
X495000Y1089500D02*
D03*
X381000Y1090000D02*
D03*
X407327Y599051D02*
D03*
X545528Y598921D02*
D03*
D113*
X466500Y1049500D02*
D03*
X547500Y1083000D02*
D03*
X516000Y1063500D02*
D03*
X495500Y1045500D02*
D03*
X515000Y1047000D02*
D03*
X532000Y1083000D02*
D03*
X464000Y1075000D02*
D03*
X487000Y1123000D02*
D03*
X412191Y1113980D02*
D03*
X367500Y1136000D02*
D03*
X425000Y636500D02*
D03*
X236405Y628500D02*
D03*
X237000Y639500D02*
D03*
X516000Y1008500D02*
D03*
X457000Y1029500D02*
D03*
X449045Y1024372D02*
D03*
X267000Y1076114D02*
D03*
X258500Y1075500D02*
D03*
X507000Y1079000D02*
D03*
X374500Y885000D02*
D03*
X371000Y996000D02*
D03*
X359500D02*
D03*
X372000Y1007000D02*
D03*
X405500Y711000D02*
D03*
X450500Y1074500D02*
D03*
X296500Y944000D02*
D03*
X422500Y801500D02*
D03*
X426000Y798000D02*
D03*
X427000Y790575D02*
D03*
X434085Y758915D02*
D03*
X294000Y827500D02*
D03*
X416305Y1035805D02*
D03*
X448000Y704500D02*
D03*
X489500Y696500D02*
D03*
X516500Y751500D02*
D03*
X526500Y742000D02*
D03*
X483000Y740000D02*
D03*
X529500Y697500D02*
D03*
X484000Y663500D02*
D03*
X521500Y788000D02*
D03*
X481500Y1058500D02*
D03*
X475500D02*
D03*
X452500Y1049000D02*
D03*
X486000Y1023000D02*
D03*
Y1009000D02*
D03*
Y1002500D02*
D03*
Y1013000D02*
D03*
X510000Y775500D02*
D03*
X382500Y746500D02*
D03*
X458500Y1045500D02*
D03*
X398000Y969000D02*
D03*
Y975500D02*
D03*
Y1021500D02*
D03*
Y1008500D02*
D03*
Y1013500D02*
D03*
X419976Y655476D02*
D03*
X449000Y655500D02*
D03*
X350638Y1035244D02*
D03*
X354740Y813862D02*
D03*
X346646Y809205D02*
D03*
X538500Y635500D02*
D03*
X588000Y1081500D02*
D03*
X496500Y1115500D02*
D03*
X529000Y1149000D02*
D03*
X461000Y636500D02*
D03*
X395500Y620000D02*
D03*
X488024Y702024D02*
D03*
X512500Y734500D02*
D03*
X494500Y654000D02*
D03*
X508000Y690500D02*
D03*
X498976Y1009024D02*
D03*
X499000Y1014000D02*
D03*
X365500Y702500D02*
D03*
X257000Y1006000D02*
D03*
X462835Y691665D02*
D03*
X520000Y993000D02*
D03*
X499000Y973500D02*
D03*
Y978500D02*
D03*
Y983500D02*
D03*
Y940000D02*
D03*
Y950000D02*
D03*
Y945000D02*
D03*
X435000Y983500D02*
D03*
X450500D02*
D03*
X421500Y1036000D02*
D03*
X442000Y792500D02*
D03*
X279000Y925980D02*
D03*
X296012Y1029512D02*
D03*
X305000Y1029500D02*
D03*
X314000D02*
D03*
X322000Y1092000D02*
D03*
X415000Y687000D02*
D03*
X423000Y679500D02*
D03*
X426000Y701500D02*
D03*
X470346Y684346D02*
D03*
X468409Y659091D02*
D03*
X488000Y719000D02*
D03*
X498000Y718500D02*
D03*
X443500Y773000D02*
D03*
X331886Y1144516D02*
D03*
X237374Y985941D02*
D03*
X467728Y736004D02*
D03*
X426500Y911000D02*
D03*
X547248Y717209D02*
D03*
X363500Y1110000D02*
D03*
X270500Y1139000D02*
D03*
X239689Y870106D02*
D03*
X519882Y924575D02*
D03*
Y958138D02*
D03*
X313028Y679563D02*
D03*
X313122Y666157D02*
D03*
X313323Y672858D02*
D03*
X252378Y846846D02*
D03*
X354740Y867984D02*
D03*
X369661Y875346D02*
D03*
X359480Y878102D02*
D03*
X343783Y649827D02*
D03*
X329528Y728063D02*
D03*
X287409Y1068051D02*
D03*
X287760Y1054701D02*
D03*
X250492Y925484D02*
D03*
X274992Y987484D02*
D03*
X250492Y959984D02*
D03*
X346492Y930984D02*
D03*
X354992Y935484D02*
D03*
Y969484D02*
D03*
X433248Y790721D02*
D03*
X252378Y811173D02*
D03*
X433681Y683949D02*
D03*
X419874Y735256D02*
D03*
X442760Y719004D02*
D03*
X452760D02*
D03*
X442819Y704563D02*
D03*
X473831Y705965D02*
D03*
X495764Y792764D02*
D03*
X432874Y731256D02*
D03*
X490957Y763071D02*
D03*
X515177Y682677D02*
D03*
X513465Y658965D02*
D03*
X494965Y701965D02*
D03*
X402874Y694256D02*
D03*
X518465Y704465D02*
D03*
X561846Y740807D02*
D03*
X576346Y742807D02*
D03*
X557346Y696307D02*
D03*
X564846Y687807D02*
D03*
X562846Y663307D02*
D03*
X437943Y991045D02*
D03*
X416197Y1086772D02*
D03*
X463665Y967421D02*
D03*
X458665D02*
D03*
X453665D02*
D03*
X448665D02*
D03*
X443665D02*
D03*
X438665D02*
D03*
X433665D02*
D03*
X428665D02*
D03*
X423665D02*
D03*
X252126Y738685D02*
D03*
Y703118D02*
D03*
X242342Y812902D02*
D03*
X242843Y803402D02*
D03*
X253343Y803902D02*
D03*
X343342Y814902D02*
D03*
X241374Y926402D02*
D03*
X238374Y934902D02*
D03*
X344342Y824402D02*
D03*
X350374Y938402D02*
D03*
X346374Y944402D02*
D03*
X345874Y936902D02*
D03*
X292000Y630000D02*
D03*
X363776Y661815D02*
D03*
X269342Y1007402D02*
D03*
X447000Y787000D02*
D03*
X342043Y1086701D02*
D03*
X262343Y703402D02*
D03*
X261000Y713500D02*
D03*
X543346Y702307D02*
D03*
X537346D02*
D03*
X541346Y659807D02*
D03*
X428677Y931283D02*
D03*
X443677Y930783D02*
D03*
X448677Y930811D02*
D03*
X453677Y930783D02*
D03*
X458677D02*
D03*
X463677Y931283D02*
D03*
X433677Y931311D02*
D03*
X438677Y930783D02*
D03*
X280279Y810437D02*
D03*
X468500Y1125500D02*
D03*
X448000Y1152500D02*
D03*
X599500Y601000D02*
D03*
X437000Y611500D02*
D03*
X529000Y763394D02*
D03*
X250000Y607500D02*
D03*
X467866Y767736D02*
D03*
X438000Y1020500D02*
D03*
X442000Y1016500D02*
D03*
X611500Y617000D02*
D03*
X610500Y820500D02*
D03*
X578000Y782000D02*
D03*
X511957Y779571D02*
D03*
X539500Y793500D02*
D03*
X513035Y796492D02*
D03*
X358000Y1122500D02*
D03*
X396500Y1080000D02*
D03*
X421000Y1042500D02*
D03*
X400000Y690000D02*
D03*
X398000Y982000D02*
D03*
Y997500D02*
D03*
Y991000D02*
D03*
X359500Y748500D02*
D03*
X284000Y866500D02*
D03*
X265500Y681500D02*
D03*
X269500Y696000D02*
D03*
X396500Y661500D02*
D03*
X566539Y710000D02*
D03*
X292000Y1127000D02*
D03*
X329500Y1085000D02*
D03*
X353500Y661500D02*
D03*
X343000Y1050500D02*
D03*
X329043Y1078201D02*
D03*
X348043Y1079201D02*
D03*
X328543Y1069701D02*
D03*
Y1060201D02*
D03*
X348043Y1069701D02*
D03*
X348543Y1060701D02*
D03*
X354500Y697000D02*
D03*
X357500Y687500D02*
D03*
X375500Y696000D02*
D03*
X373500Y685000D02*
D03*
X355000Y677000D02*
D03*
X374500Y673000D02*
D03*
X366000Y693500D02*
D03*
X353500Y715000D02*
D03*
X377000Y713000D02*
D03*
X517000Y1027000D02*
D03*
X537000Y718500D02*
D03*
X427000Y1048500D02*
D03*
X549342Y768157D02*
D03*
X549469Y776031D02*
D03*
X535500Y772000D02*
D03*
X467531Y776031D02*
D03*
X476087Y791345D02*
D03*
X474000Y784500D02*
D03*
X511500Y785500D02*
D03*
X421500Y1046500D02*
D03*
X224342Y816402D02*
D03*
X226842Y804402D02*
D03*
X243342Y792402D02*
D03*
X233500Y663000D02*
D03*
X278000Y624500D02*
D03*
X265000Y774000D02*
D03*
X245500Y772500D02*
D03*
X251000Y663000D02*
D03*
X413000Y813500D02*
D03*
X578000Y762000D02*
D03*
X515000Y806500D02*
D03*
X527500D02*
D03*
X541000Y787500D02*
D03*
X397000Y721000D02*
D03*
X437000Y679000D02*
D03*
X531500Y682000D02*
D03*
X232000Y654500D02*
D03*
X221000Y592000D02*
D03*
X382000Y657000D02*
D03*
X337000Y624500D02*
D03*
X318000Y627000D02*
D03*
X320000Y635000D02*
D03*
X249000Y643500D02*
D03*
X318500Y599500D02*
D03*
X584000Y678500D02*
D03*
X348000Y818000D02*
D03*
X401500Y650500D02*
D03*
X343500Y613500D02*
D03*
X387500Y877500D02*
D03*
X397000Y882000D02*
D03*
X408500Y901500D02*
D03*
X395000Y862000D02*
D03*
X410000Y872500D02*
D03*
X397000Y845500D02*
D03*
X411971D02*
D03*
X408500Y833500D02*
D03*
X408000Y857000D02*
D03*
X386500Y854000D02*
D03*
X470500Y906500D02*
D03*
X480500Y885000D02*
D03*
X524000Y837500D02*
D03*
X528500Y819000D02*
D03*
X538500Y833500D02*
D03*
X554000Y813500D02*
D03*
X564000Y797000D02*
D03*
X523000Y881000D02*
D03*
X533500Y871500D02*
D03*
X541500Y865500D02*
D03*
X510500Y897000D02*
D03*
X483000Y919500D02*
D03*
X520500Y854000D02*
D03*
X459500Y806500D02*
D03*
X476000Y817500D02*
D03*
X470500Y806000D02*
D03*
X472500Y831000D02*
D03*
X477500Y871500D02*
D03*
X453000Y910000D02*
D03*
X577500Y817500D02*
D03*
X579000Y805000D02*
D03*
X483000Y613000D02*
D03*
X507500Y612500D02*
D03*
X223492Y913984D02*
D03*
X241992Y909984D02*
D03*
X223492Y900984D02*
D03*
X243492Y895484D02*
D03*
X222992Y883484D02*
D03*
X257992Y888984D02*
D03*
X215992Y865484D02*
D03*
X220492Y850984D02*
D03*
X264500Y902500D02*
D03*
X303492Y763984D02*
D03*
X319992Y760484D02*
D03*
X338492Y764984D02*
D03*
X365492Y760984D02*
D03*
X281492Y782484D02*
D03*
X287492Y769484D02*
D03*
X218992Y952984D02*
D03*
Y980484D02*
D03*
X217992Y1002984D02*
D03*
X230492Y997984D02*
D03*
X215492Y1031484D02*
D03*
X215992Y1052984D02*
D03*
X227492Y1048484D02*
D03*
X226992Y1030984D02*
D03*
X316000Y1007000D02*
D03*
X297500Y1006000D02*
D03*
X438000Y1072000D02*
D03*
X350992Y1142484D02*
D03*
X459000Y1057500D02*
D03*
X382000Y1065500D02*
D03*
X405000Y1070000D02*
D03*
X594992Y628484D02*
D03*
X595992Y611484D02*
D03*
X569992Y615984D02*
D03*
X559492Y606484D02*
D03*
X458492Y618984D02*
D03*
X507992Y623984D02*
D03*
X392500Y812500D02*
D03*
M02*
