G04 Layer_Color=16711935*
%FSLAX25Y25*%
%MOIN*%
G70*
G01*
G75*
%ADD114C,0.00394*%
D114*
X437463Y1024805D02*
G03*
X437463Y1024805I-1969J0D01*
G01*
X495996Y706870D02*
Y713760D01*
X499736Y706870D02*
Y713760D01*
X495996Y706870D02*
X499736D01*
X495996Y713760D02*
X499736D01*
X294142Y1033941D02*
Y1040831D01*
X297882Y1033941D02*
Y1040831D01*
X294142Y1033941D02*
X297882D01*
X294142Y1040831D02*
X297882D01*
X268803Y980134D02*
Y983874D01*
Y980134D02*
X275693D01*
Y983874D01*
X268803D02*
X275693D01*
X362898Y996276D02*
X366638D01*
Y1003165D01*
X362898D02*
X366638D01*
X362898Y996276D02*
Y1003165D01*
X403406Y698614D02*
Y705504D01*
X407146Y698614D02*
Y705504D01*
X403406Y698614D02*
X407146D01*
X403406Y705504D02*
X407146D01*
X450791Y708295D02*
Y715185D01*
X454531Y708295D02*
Y715185D01*
X450791Y708295D02*
X454531D01*
X450791Y715185D02*
X454531D01*
X545378Y706795D02*
Y713685D01*
X549118Y706795D02*
Y713685D01*
X545378Y706795D02*
X549118D01*
X545378Y713685D02*
X549118D01*
X397303Y698220D02*
Y705110D01*
X393563Y698220D02*
Y705110D01*
X397303D01*
X393563Y698220D02*
X397303D01*
X444689Y708295D02*
Y715185D01*
X440949Y708295D02*
Y715185D01*
X444689D01*
X440949Y708295D02*
X444689D01*
X489894Y706870D02*
Y713760D01*
X486154Y706870D02*
Y713760D01*
X489894D01*
X486154Y706870D02*
X489894D01*
X539276Y706795D02*
Y713685D01*
X535535Y706795D02*
Y713685D01*
X539276D01*
X535535Y706795D02*
X539276D01*
X461527Y732264D02*
X468417D01*
X461527Y728524D02*
X468417D01*
X461527D02*
Y732264D01*
X468417Y728524D02*
Y732264D01*
X506232Y730807D02*
X513122D01*
X506232Y727067D02*
X513122D01*
X506232D02*
Y730807D01*
X513122Y727067D02*
Y730807D01*
X555614Y737701D02*
X562504D01*
X555614Y733961D02*
X562504D01*
X555614D02*
Y737701D01*
X562504Y733961D02*
Y737701D01*
X427028Y677748D02*
Y684638D01*
X430768Y677748D02*
Y684638D01*
X427028Y677748D02*
X430768D01*
X427028Y684638D02*
X430768D01*
X474913Y683642D02*
Y690531D01*
X478653Y683642D02*
Y690531D01*
X474913Y683642D02*
X478653D01*
X474913Y690531D02*
X478653D01*
X519000Y682803D02*
Y689693D01*
X522740Y682803D02*
Y689693D01*
X519000Y682803D02*
X522740D01*
X519000Y689693D02*
X522740D01*
X569000Y689079D02*
Y695968D01*
X572740Y689079D02*
Y695968D01*
X569000Y689079D02*
X572740D01*
X569000Y695968D02*
X572740D01*
X315882Y1034039D02*
Y1040732D01*
X312142Y1034039D02*
Y1040732D01*
X315882D01*
X312142Y1034039D02*
X315882D01*
X303142Y1034039D02*
Y1040732D01*
X306882Y1034039D02*
Y1040732D01*
X303142Y1034039D02*
X306882D01*
X303142Y1040732D02*
X306882D01*
X335831Y928953D02*
Y932693D01*
Y928953D02*
X342524D01*
X335831Y932693D02*
X342524D01*
Y928953D02*
Y932693D01*
X342524Y921079D02*
Y924819D01*
X335831D02*
X342524D01*
X335831Y921079D02*
X342524D01*
X335831D02*
Y924819D01*
X342524Y913205D02*
Y916945D01*
X335831D02*
X342524D01*
X335831Y913205D02*
X342524D01*
X335831D02*
Y916945D01*
X342524Y905331D02*
Y909071D01*
X335831D02*
X342524D01*
X335831Y905331D02*
X342524D01*
X335831D02*
Y909071D01*
X408856Y1028695D02*
X412597D01*
Y1035388D01*
X408856Y1028695D02*
Y1035388D01*
X412597D01*
X402951Y1028695D02*
X406691D01*
Y1035388D01*
X402951Y1028695D02*
Y1035388D01*
X406691D01*
X397045Y1028695D02*
X400785D01*
Y1035388D01*
X397045Y1028695D02*
Y1035388D01*
X400785D01*
X412793Y1012947D02*
X416534D01*
Y1019640D01*
X412793Y1012947D02*
Y1019640D01*
X416534D01*
X406888Y1019640D02*
X410628D01*
X406888Y1012947D02*
Y1019640D01*
X410628Y1012947D02*
Y1019640D01*
X406888Y1012947D02*
X410628D01*
X412793Y999167D02*
X416534D01*
Y1005860D01*
X412793Y999167D02*
Y1005860D01*
X416534D01*
X406888Y1005860D02*
X410628D01*
X406888Y999167D02*
Y1005860D01*
X410628Y999167D02*
Y1005860D01*
X406888Y999167D02*
X410628D01*
X412888Y985278D02*
X416628D01*
Y991971D01*
X412888Y985278D02*
Y991971D01*
X416628D01*
X406888Y991971D02*
X410628D01*
X406888Y985278D02*
Y991971D01*
X410628Y985278D02*
Y991971D01*
X406888Y985278D02*
X410628D01*
X412793Y970624D02*
X416534D01*
Y977317D01*
X412793Y970624D02*
Y977317D01*
X416534D01*
X406888Y977317D02*
X410628D01*
X406888Y970624D02*
Y977317D01*
X410628Y970624D02*
Y977317D01*
X406888Y970624D02*
X410628D01*
X462006Y1028695D02*
X465746D01*
Y1035388D01*
X462006Y1028695D02*
Y1035388D01*
X465746D01*
X467911Y1028695D02*
X471652D01*
Y1035388D01*
X467911Y1028695D02*
Y1035388D01*
X471652D01*
X467911Y1019640D02*
X471652D01*
X467911Y1012947D02*
Y1019640D01*
X471652Y1012947D02*
Y1019640D01*
X467911Y1012947D02*
X471652D01*
X473817Y1012947D02*
X477557D01*
Y1019640D01*
X473817Y1012947D02*
Y1019640D01*
X477557D01*
X467911Y1005860D02*
X471652D01*
X467911Y999167D02*
Y1005860D01*
X471652Y999167D02*
Y1005860D01*
X467911Y999167D02*
X471652D01*
X473817Y999167D02*
X477557D01*
Y1005860D01*
X473817Y999167D02*
Y1005860D01*
X477557D01*
X467911Y992081D02*
X471652D01*
X467911Y985388D02*
Y992081D01*
X471652Y985388D02*
Y992081D01*
X467911Y985388D02*
X471652D01*
X473817Y985388D02*
X477557D01*
Y992081D01*
X473817Y985388D02*
Y992081D01*
X477557D01*
X467911Y978301D02*
X471652D01*
X467911Y971608D02*
Y978301D01*
X471652Y971608D02*
Y978301D01*
X467911Y971608D02*
X471652D01*
X473817Y971608D02*
X477557D01*
Y978301D01*
X473817Y971608D02*
Y978301D01*
X477557D01*
X473817Y1028695D02*
X477557D01*
Y1035388D01*
X473817Y1028695D02*
Y1035388D01*
X477557D01*
X479722Y1028695D02*
X483463D01*
Y1035388D01*
X479722Y1028695D02*
Y1035388D01*
X483463D01*
X426106Y666130D02*
X432799D01*
X426106Y669870D02*
X432799D01*
Y666130D02*
Y669870D01*
X426106Y666130D02*
Y669870D01*
X473437Y670968D02*
X480130D01*
X473437Y674709D02*
X480130D01*
Y670968D02*
Y674709D01*
X473437Y670968D02*
Y674709D01*
X518142Y668012D02*
X524835D01*
X518142Y671752D02*
X524835D01*
Y668012D02*
Y671752D01*
X518142Y668012D02*
Y671752D01*
X567524Y672937D02*
X574217D01*
X567524Y676677D02*
X574217D01*
Y672937D02*
Y676677D01*
X567524Y672937D02*
Y676677D01*
X399468Y654224D02*
Y660917D01*
X403209Y654224D02*
Y660917D01*
X399468Y654224D02*
X403209D01*
X399468Y660917D02*
X403209D01*
X447354Y660118D02*
Y666811D01*
X451094Y660118D02*
Y666811D01*
X447354Y660118D02*
X451094D01*
X447354Y666811D02*
X451094D01*
X492059Y658661D02*
Y665354D01*
X495799Y658661D02*
Y665354D01*
X492059Y658661D02*
X495799D01*
X492059Y665354D02*
X495799D01*
X539472Y663587D02*
Y670280D01*
X543213Y663587D02*
Y670280D01*
X539472Y663587D02*
X543213D01*
X539472Y670280D02*
X543213D01*
X417185Y713279D02*
Y719972D01*
X420925Y713279D02*
Y719972D01*
X417185Y713279D02*
X420925D01*
X417185Y719972D02*
X420925D01*
X465071Y717205D02*
Y723898D01*
X468811Y717205D02*
Y723898D01*
X465071Y717205D02*
X468811D01*
X465071Y723898D02*
X468811D01*
X509776Y715748D02*
Y722441D01*
X513516Y715748D02*
Y722441D01*
X509776Y715748D02*
X513516D01*
X509776Y722441D02*
X513516D01*
X559157Y722642D02*
Y729335D01*
X562898Y722642D02*
Y729335D01*
X559157Y722642D02*
X562898D01*
X559157Y729335D02*
X562898D01*
X419646Y704913D02*
X426339D01*
X419646Y708653D02*
X426339D01*
Y704913D02*
Y708653D01*
X419646Y704913D02*
Y708653D01*
X467531Y708839D02*
X474224D01*
X467531Y712579D02*
X474224D01*
Y708839D02*
Y712579D01*
X467531Y708839D02*
Y712579D01*
X512236Y707382D02*
X518929D01*
X512236Y711122D02*
X518929D01*
Y707382D02*
Y711122D01*
X512236Y707382D02*
Y711122D01*
X561618Y714276D02*
X568311D01*
X561618Y718016D02*
X568311D01*
Y714276D02*
Y718016D01*
X561618Y714276D02*
Y718016D01*
X403898Y671449D02*
X410591D01*
X403898Y675189D02*
X410591D01*
Y671449D02*
Y675189D01*
X403898Y671449D02*
Y675189D01*
X451783Y677343D02*
X458476D01*
X451783Y681083D02*
X458476D01*
Y677343D02*
Y681083D01*
X451783Y677343D02*
Y681083D01*
X496488Y675886D02*
X503181D01*
X496488Y679626D02*
X503181D01*
Y675886D02*
Y679626D01*
X496488Y675886D02*
Y679626D01*
X545870Y680811D02*
X552563D01*
X545870Y684551D02*
X552563D01*
Y680811D02*
Y684551D01*
X545870Y680811D02*
Y684551D01*
X403898Y669283D02*
X410591D01*
X403898Y665543D02*
X410591D01*
X403898D02*
Y669283D01*
X410591Y665543D02*
Y669283D01*
X451783Y675177D02*
X458476D01*
X451783Y671437D02*
X458476D01*
X451783D02*
Y675177D01*
X458476Y671437D02*
Y675177D01*
X496488Y673721D02*
X503181D01*
X496488Y669980D02*
X503181D01*
X496488D02*
Y673721D01*
X503181Y669980D02*
Y673721D01*
X545870Y678646D02*
X552563D01*
X545870Y674905D02*
X552563D01*
X545870D02*
Y678646D01*
X552563Y674905D02*
Y678646D01*
X411772Y702748D02*
X418465D01*
X411772Y699008D02*
X418465D01*
X411772D02*
Y702748D01*
X418465Y699008D02*
Y702748D01*
X459657Y706673D02*
X466350D01*
X459657Y702933D02*
X466350D01*
X459657D02*
Y706673D01*
X466350Y702933D02*
Y706673D01*
X504362Y705217D02*
X511055D01*
X504362Y701476D02*
X511055D01*
X504362D02*
Y705217D01*
X511055Y701476D02*
Y705217D01*
X553744Y712110D02*
X560437D01*
X553744Y708370D02*
X560437D01*
X553744D02*
Y712110D01*
X560437Y708370D02*
Y712110D01*
X392087Y665543D02*
X398780D01*
X392087Y669283D02*
X398780D01*
Y665543D02*
Y669283D01*
X392087Y665543D02*
Y669283D01*
X439972Y671437D02*
X446665D01*
X439972Y675177D02*
X446665D01*
Y671437D02*
Y675177D01*
X439972Y671437D02*
Y675177D01*
X484677Y669980D02*
X491370D01*
X484677Y673721D02*
X491370D01*
Y669980D02*
Y673721D01*
X484677Y669980D02*
Y673721D01*
X534059Y674905D02*
X540752D01*
X534059Y678646D02*
X540752D01*
Y674905D02*
Y678646D01*
X534059Y674905D02*
Y678646D01*
X421870Y659606D02*
Y666299D01*
X418130Y659606D02*
Y666299D01*
X421870D01*
X418130Y659606D02*
X421870D01*
X470280Y663555D02*
Y670248D01*
X466539Y663555D02*
Y670248D01*
X470280D01*
X466539Y663555D02*
X470280D01*
X515240Y662902D02*
Y669594D01*
X511500Y662902D02*
Y669594D01*
X515240D01*
X511500Y662902D02*
X515240D01*
X564866Y667524D02*
Y674217D01*
X561126Y667524D02*
Y674217D01*
X564866D01*
X561126Y667524D02*
X564866D01*
X498173Y786465D02*
Y793157D01*
X501913Y786465D02*
Y793157D01*
X498173Y786465D02*
X501913D01*
X498173Y793157D02*
X501913D01*
X504079Y786465D02*
Y793157D01*
X507819Y786465D02*
Y793157D01*
X504079Y786465D02*
X507819D01*
X504079Y793157D02*
X507819D01*
X413823Y732839D02*
X420713D01*
X413823Y729098D02*
X420713D01*
X413823D02*
Y732839D01*
X420713Y729098D02*
Y732839D01*
X409870Y806153D02*
Y812846D01*
X406130Y806153D02*
Y812846D01*
X409870D01*
X406130Y806153D02*
X409870D01*
X247370Y656653D02*
Y663346D01*
X243630Y656653D02*
Y663346D01*
X247370D01*
X243630Y656653D02*
X247370D01*
X260870Y766653D02*
Y773347D01*
X257130Y766653D02*
Y773347D01*
X260870D01*
X257130Y766653D02*
X260870D01*
X431951Y987010D02*
Y1028349D01*
Y987010D02*
X453998D01*
X431951Y1028349D02*
X453998D01*
Y987010D02*
Y1028349D01*
X335646Y783713D02*
X342339D01*
X335646D02*
Y787453D01*
X342339D01*
Y783713D02*
Y787453D01*
X335646Y791587D02*
X342339D01*
X335646D02*
Y795327D01*
X342339D01*
Y791587D02*
Y795327D01*
X335646Y799461D02*
X342339D01*
X335646D02*
Y803201D01*
X342339D01*
Y799461D02*
Y803201D01*
X335646Y811075D02*
X342338D01*
Y807335D02*
Y811075D01*
X335646Y807335D02*
X342338D01*
X335646D02*
Y811075D01*
X526224Y766287D02*
X532917D01*
X526224Y770028D02*
X532917D01*
Y766287D02*
Y770028D01*
X526224Y766287D02*
Y770028D01*
Y774161D02*
X532917D01*
X526224Y777902D02*
X532917D01*
Y774161D02*
Y777902D01*
X526224Y774161D02*
Y777902D01*
X486854Y765787D02*
X493547D01*
X486854Y769528D02*
X493547D01*
Y765787D02*
Y769528D01*
X486854Y765787D02*
Y769528D01*
Y774161D02*
X493547D01*
X486854Y777902D02*
X493547D01*
Y774161D02*
Y777902D01*
X486854Y774161D02*
Y777902D01*
X533409Y786996D02*
Y793689D01*
X529669Y786996D02*
Y793689D01*
X533409D01*
X529669Y786996D02*
X533409D01*
X527504D02*
Y793689D01*
X523764Y786996D02*
Y793689D01*
X527504D01*
X523764Y786996D02*
X527504D01*
X484957Y783952D02*
Y790644D01*
X481217Y783952D02*
Y790644D01*
X484957D01*
X481217Y783952D02*
X484957D01*
X422604Y1028951D02*
Y1032691D01*
X415911D02*
X422604D01*
X415911Y1028951D02*
X422604D01*
X415911D02*
Y1032691D01*
X452329Y1032888D02*
Y1036628D01*
Y1032888D02*
X459022D01*
X452329Y1036628D02*
X459022D01*
Y1032888D02*
Y1036628D01*
X435400Y1032888D02*
Y1036628D01*
X428707D02*
X435400D01*
X428707Y1032888D02*
X435400D01*
X428707D02*
Y1036628D01*
X514535Y1031362D02*
Y1035102D01*
Y1031362D02*
X521228D01*
X514535Y1035102D02*
X521228D01*
Y1031362D02*
Y1035102D01*
X513508Y996327D02*
Y1000067D01*
Y996327D02*
X520201D01*
X513508Y1000067D02*
X520201D01*
Y996327D02*
Y1000067D01*
X513508Y960894D02*
Y964634D01*
Y960894D02*
X520201D01*
X513508Y964634D02*
X520201D01*
Y960894D02*
Y964634D01*
X513508Y927429D02*
Y931169D01*
Y927429D02*
X520201D01*
X513508Y931169D02*
X520201D01*
Y927429D02*
Y931169D01*
X497457Y1037213D02*
Y1040953D01*
X490764D02*
X497457D01*
X490764Y1037213D02*
X497457D01*
X490764D02*
Y1040953D01*
X497457Y1001780D02*
Y1005520D01*
X490764D02*
X497457D01*
X490764Y1001780D02*
X497457D01*
X490764D02*
Y1005520D01*
X497457Y966346D02*
Y970087D01*
X490764D02*
X497457D01*
X490764Y966346D02*
X497457D01*
X490764D02*
Y970087D01*
X497457Y932882D02*
Y936622D01*
X490764D02*
X497457D01*
X490764Y932882D02*
X497457D01*
X490764D02*
Y936622D01*
X528102Y575531D02*
X534795D01*
X528102Y571791D02*
X534795D01*
X528102D02*
Y575531D01*
X534795Y571791D02*
Y575531D01*
X540055Y583272D02*
X546748D01*
X540055Y587012D02*
X546748D01*
Y583272D02*
Y587012D01*
X540055Y583272D02*
Y587012D01*
X389803Y574791D02*
X396496D01*
X389803Y571051D02*
X396496D01*
X389803D02*
Y574791D01*
X396496Y571051D02*
Y574791D01*
X401854Y583402D02*
X408547D01*
X401854Y587142D02*
X408547D01*
Y583402D02*
Y587142D01*
X401854Y583402D02*
Y587142D01*
X268618Y868161D02*
X275508D01*
X268618Y864421D02*
X275508D01*
X268618D02*
Y868161D01*
X275508Y864421D02*
Y868161D01*
X537937Y777902D02*
X544827D01*
X537937Y774161D02*
X544827D01*
X537937D02*
Y777902D01*
X544827Y774161D02*
Y777902D01*
X537937Y770027D02*
X544827D01*
X537937Y766287D02*
X544827D01*
X537937D02*
Y770027D01*
X544827Y766287D02*
Y770027D01*
X471811Y765630D02*
X478701D01*
X471811Y769370D02*
X478701D01*
Y765630D02*
Y769370D01*
X471811Y765630D02*
Y769370D01*
X471945Y774161D02*
X478835D01*
X471945Y777902D02*
X478835D01*
Y774161D02*
Y777902D01*
X471945Y774161D02*
Y777902D01*
X512346Y793650D02*
X519236D01*
X512346Y789909D02*
X519236D01*
X512346D02*
Y793650D01*
X519236Y789909D02*
Y793650D01*
X439435Y981707D02*
Y985447D01*
Y981707D02*
X446325D01*
Y985447D01*
X439435D02*
X446325D01*
X459055Y1087130D02*
Y1090870D01*
Y1087130D02*
X465945D01*
Y1090870D01*
X459055D02*
X465945D01*
X515555Y1086630D02*
Y1090370D01*
Y1086630D02*
X522445D01*
Y1090370D01*
X515555D02*
X522445D01*
X404055Y1085130D02*
Y1088870D01*
Y1085130D02*
X410945D01*
Y1088870D01*
X404055D02*
X410945D01*
X362713Y874658D02*
X366453D01*
X362713D02*
Y881547D01*
X366453Y874658D02*
Y881547D01*
X362713D02*
X366453D01*
X432559Y777772D02*
X439449D01*
X432559Y774031D02*
X439449D01*
X432559D02*
Y777772D01*
X439449Y774031D02*
Y777772D01*
X432559Y787614D02*
X439449D01*
X432559Y783874D02*
X439449D01*
Y787614D01*
X432559Y783874D02*
Y787614D01*
X311372Y625069D02*
Y631959D01*
X315112Y625069D02*
Y631959D01*
X311372Y625069D02*
X315112D01*
X311372Y631959D02*
X315112D01*
M02*
