G04 Layer_Physical_Order=3*
G04 Layer_Color=36540*
%FSLAX25Y25*%
%MOIN*%
G70*
G01*
G75*
%ADD41C,0.01000*%
%ADD47C,0.06000*%
%ADD49C,0.07087*%
%ADD51R,0.07087X0.07087*%
%ADD52R,0.07087X0.07087*%
%ADD53C,0.02000*%
G36*
X620802Y1111445D02*
X621400Y1111227D01*
X621936Y1110886D01*
X622386Y1110436D01*
X622727Y1109900D01*
X622945Y1109302D01*
X623028Y1108672D01*
X623000Y1108355D01*
X623000D01*
X623000Y1001500D01*
X623000Y990430D01*
X623034Y990037D01*
X622764Y989294D01*
X622206Y988736D01*
X621568Y988504D01*
X621070Y988500D01*
X621070Y988500D01*
X570000Y988500D01*
X569694Y988473D01*
X569117Y988683D01*
X568683Y989117D01*
X568538Y989516D01*
X568500Y990000D01*
X568500Y990000D01*
X568500Y990000D01*
X568500Y990500D01*
X568500Y1035000D01*
X568464Y1035408D01*
X568744Y1036177D01*
X569323Y1036756D01*
X570092Y1037036D01*
X570500Y1037000D01*
X602500Y1037000D01*
X602802Y1036990D01*
X603400Y1037069D01*
X603966Y1037275D01*
X604475Y1037599D01*
X604901Y1038025D01*
X605225Y1038534D01*
X605431Y1039100D01*
X605510Y1039698D01*
X605500Y1040000D01*
X605500Y1040000D01*
X605500Y1072000D01*
X605491Y1072402D01*
X605218Y1073153D01*
X604653Y1073718D01*
X603984Y1073961D01*
X603902Y1073991D01*
X603500Y1074000D01*
X603500Y1074000D01*
X603500Y1074000D01*
X502500Y1074000D01*
X502092Y1073964D01*
X501323Y1074244D01*
X500744Y1074823D01*
X500498Y1075501D01*
X500500Y1076000D01*
X500500Y1076000D01*
X500500Y1076000D01*
Y1076500D01*
X500500Y1110886D01*
X500489Y1111011D01*
X500575Y1111247D01*
X500753Y1111425D01*
X500989Y1111511D01*
X501114Y1111500D01*
X502000Y1111500D01*
X619000Y1111500D01*
X619855D01*
X620172Y1111528D01*
X620802Y1111445D01*
D02*
G37*
G36*
X426177Y1109756D02*
X426756Y1109177D01*
X427002Y1108499D01*
X427000Y1108000D01*
X427000Y1108000D01*
X427000Y1077500D01*
X427027Y1077194D01*
X426817Y1076617D01*
X426382Y1076183D01*
X425983Y1076037D01*
X425499Y1075999D01*
X425000D01*
X424999Y1075999D01*
X389000Y1076001D01*
X388592Y1075965D01*
X387823Y1076245D01*
X387244Y1076824D01*
X386964Y1077593D01*
X387000Y1078001D01*
X387000Y1108000D01*
X386964Y1108408D01*
X387244Y1109177D01*
X387823Y1109756D01*
X388592Y1110036D01*
X389000Y1110000D01*
X425000Y1110000D01*
X425408Y1110036D01*
X426177Y1109756D01*
D02*
G37*
G36*
X465883Y1112817D02*
X466317Y1112383D01*
X466462Y1111984D01*
X466500Y1111500D01*
X466500Y1111000D01*
X466500Y1067000D01*
X466527Y1066694D01*
X466317Y1066117D01*
X465883Y1065683D01*
X465306Y1065473D01*
X465000Y1065500D01*
X447000Y1065500D01*
X446621D01*
X446392Y1065480D01*
X445961Y1065637D01*
X445637Y1065961D01*
X445569Y1066149D01*
X445500Y1066621D01*
X445500Y1066621D01*
X445500Y1066621D01*
X445500Y1111500D01*
Y1112000D01*
X445482Y1112204D01*
X445622Y1112589D01*
X445912Y1112878D01*
X446296Y1113018D01*
X446500Y1113000D01*
X446500Y1113000D01*
X465000Y1113000D01*
X465306Y1113027D01*
X465883Y1112817D01*
D02*
G37*
G36*
X432927Y823468D02*
X433516Y823269D01*
X434047Y822948D01*
X434497Y822519D01*
X434843Y822003D01*
X435070Y821424D01*
X435165Y820810D01*
X435146Y820500D01*
X435146D01*
X435146Y792721D01*
X435146Y789000D01*
X435188Y788717D01*
X435149Y788147D01*
X434988Y787598D01*
X434711Y787098D01*
X434333Y786669D01*
X433871Y786332D01*
X433347Y786103D01*
X432987Y786032D01*
X432500Y786000D01*
X432500Y786000D01*
X420000D01*
X419592Y785964D01*
X418823Y786244D01*
X418244Y786823D01*
X417964Y787592D01*
X418000Y788000D01*
X418000Y820000D01*
X418000Y820500D01*
X417974Y820802D01*
X418053Y821404D01*
X418260Y821973D01*
X418586Y822485D01*
X419015Y822914D01*
X419526Y823240D01*
X420096Y823447D01*
X420698Y823526D01*
X421000Y823500D01*
X432000D01*
X432309Y823534D01*
X432927Y823468D01*
D02*
G37*
G36*
X620205Y823430D02*
X620965Y823153D01*
X621647Y822719D01*
X622219Y822147D01*
X622653Y821465D01*
X622930Y820705D01*
X623024Y819990D01*
X623000Y819500D01*
X623000Y819500D01*
X623000Y594681D01*
X623117Y593343D01*
X622965Y590660D01*
X622430Y588027D01*
X621522Y585498D01*
X620261Y583125D01*
X618672Y580958D01*
X616789Y579040D01*
X614651Y577413D01*
X612301Y576110D01*
X609789Y575157D01*
X607166Y574574D01*
X604486Y574374D01*
X603146Y574467D01*
X603146Y574467D01*
X603146Y574467D01*
X227000Y574467D01*
X226116Y574390D01*
X224343Y574493D01*
X222605Y574852D01*
X220937Y575459D01*
X219374Y576301D01*
X217950Y577362D01*
X216695Y578617D01*
X215634Y580041D01*
X214792Y581604D01*
X214185Y583272D01*
X213826Y585010D01*
X213723Y586783D01*
X213800Y587667D01*
X213800D01*
X213800Y660931D01*
X213797Y661423D01*
X213942Y662397D01*
X214232Y663338D01*
X214663Y664223D01*
X215223Y665032D01*
X215900Y665747D01*
X216678Y666351D01*
X217538Y666829D01*
X218000Y667000D01*
X270200D01*
X270532Y666989D01*
X271189Y667076D01*
X271813Y667303D01*
X272372Y667659D01*
X272841Y668128D01*
X273198Y668687D01*
X273424Y669311D01*
X273511Y669968D01*
X273500Y670300D01*
X273500Y670300D01*
X273500Y749500D01*
X273474Y749802D01*
X273553Y750403D01*
X273760Y750973D01*
X274086Y751485D01*
X274515Y751914D01*
X275026Y752240D01*
X275596Y752447D01*
X276198Y752526D01*
X276500Y752500D01*
X276500Y752500D01*
X277500Y752500D01*
X387000Y752500D01*
X387302Y752527D01*
X387903Y752447D01*
X388474Y752240D01*
X388985Y751914D01*
X389414Y751485D01*
X389740Y750974D01*
X389947Y750403D01*
X390026Y749802D01*
X390000Y749500D01*
X390000D01*
X390000Y629000D01*
X389992Y628749D01*
X390057Y628250D01*
X390229Y627778D01*
X390499Y627354D01*
X390854Y626999D01*
X391278Y626729D01*
X391750Y626557D01*
X392249Y626492D01*
X392500Y626500D01*
Y626500D01*
X555500Y626500D01*
X556606Y626444D01*
X558815Y626572D01*
X560983Y627020D01*
X563063Y627777D01*
X565011Y628827D01*
X566786Y630149D01*
X568351Y631714D01*
X569673Y633489D01*
X570723Y635437D01*
X571480Y637517D01*
X571928Y639685D01*
X572056Y641894D01*
X572000Y643000D01*
X572000Y643000D01*
X572000Y820500D01*
X571974Y820802D01*
X572053Y821403D01*
X572260Y821973D01*
X572586Y822485D01*
X573015Y822914D01*
X573527Y823240D01*
X574096Y823447D01*
X574698Y823526D01*
X575000Y823500D01*
X575000Y823500D01*
X619000D01*
X619403Y823535D01*
X620205Y823430D01*
D02*
G37*
G36*
X447000Y1137500D02*
X488000Y1137500D01*
X488000Y1137500D01*
X488467Y1137419D01*
X488571Y1137381D01*
X488851Y1137101D01*
X488889Y1136997D01*
X488970Y1136530D01*
D01*
X489000Y1136035D01*
X489000Y1054000D01*
X489000Y1054000D01*
X489018Y1053796D01*
X488878Y1053412D01*
X488588Y1053122D01*
X488204Y1052982D01*
X488000Y1053000D01*
X403500Y1053000D01*
X403500Y1053000D01*
X403299Y1052995D01*
X402923Y1052859D01*
X402641Y1052576D01*
X402504Y1052201D01*
X402500Y1052000D01*
X402500Y798315D01*
X402500Y798315D01*
X402625Y797117D01*
X402614Y794706D01*
X402340Y792312D01*
X401807Y789962D01*
X401022Y787683D01*
X399993Y785504D01*
X398733Y783450D01*
X397257Y781545D01*
X395582Y779812D01*
X393728Y778272D01*
X391718Y776942D01*
X389575Y775840D01*
X387325Y774977D01*
X384994Y774364D01*
X382610Y774009D01*
X380202Y773915D01*
X379000Y774000D01*
X295442D01*
X295442Y774000D01*
Y774000D01*
X294943Y774001D01*
X294556Y774052D01*
X293997Y774255D01*
X293495Y774575D01*
X293075Y774995D01*
X292755Y775497D01*
X292552Y776056D01*
X292474Y776646D01*
X292500Y776942D01*
X292500Y812500D01*
X292500Y812500D01*
X292578Y812968D01*
X292622Y813089D01*
X292911Y813378D01*
X293296Y813518D01*
X293500Y813500D01*
X325879Y813500D01*
X326379Y813500D01*
X326504Y813503D01*
X326737Y813587D01*
X326737Y813587D01*
X326812Y813662D01*
X326913Y813763D01*
X326997Y813996D01*
X327000Y814121D01*
Y886500D01*
X327000Y886500D01*
X327038Y886984D01*
X327183Y887383D01*
X327617Y887817D01*
X328194Y888027D01*
X328500Y888000D01*
X386500Y888000D01*
X386500Y888000D01*
X386801Y888006D01*
X386972Y888068D01*
X387365Y888211D01*
X387789Y888635D01*
X387994Y889198D01*
X388000Y889500D01*
X388000Y1054000D01*
X388000Y1062000D01*
X388000Y1062000D01*
X388038Y1062484D01*
X388183Y1062883D01*
X388617Y1063317D01*
X389194Y1063527D01*
X389500Y1063500D01*
X465500Y1063500D01*
X465801Y1063507D01*
X466365Y1063712D01*
X466788Y1064135D01*
X466993Y1064699D01*
X467000Y1065000D01*
Y1066412D01*
X467035Y1066509D01*
X467030Y1066628D01*
X467066Y1066741D01*
X467041Y1067024D01*
X467041Y1111000D01*
X467041Y1111500D01*
X467032Y1111521D01*
X467039Y1111543D01*
X467001Y1112027D01*
X467000Y1112029D01*
Y1113000D01*
X467000Y1113000D01*
X467000Y1113197D01*
X466874Y1113567D01*
X466603Y1113850D01*
X466238Y1113992D01*
X466041Y1114000D01*
X465500D01*
X447000Y1114000D01*
X446796Y1113982D01*
X446412Y1114122D01*
X446122Y1114412D01*
X445982Y1114796D01*
X446000Y1115000D01*
X446000Y1136530D01*
X446030D01*
X446013Y1136728D01*
X446149Y1137101D01*
X446429Y1137382D01*
X446802Y1137517D01*
X447000Y1137500D01*
D02*
G37*
G36*
X430000Y1137500D02*
X443704Y1137500D01*
X443704Y1137500D01*
X444165Y1137405D01*
X444172Y1137403D01*
X444403Y1137172D01*
X444514Y1136866D01*
X444500Y1136704D01*
X444500Y1067029D01*
X444500Y1067029D01*
X444527Y1066718D01*
X444313Y1066129D01*
X443871Y1065687D01*
X443282Y1065473D01*
X442971Y1065500D01*
X442500D01*
X393500Y1065500D01*
X393059D01*
X387000Y1065500D01*
X386799Y1065495D01*
X386423Y1065359D01*
X386141Y1065076D01*
X386004Y1064701D01*
X386000Y1064500D01*
X386000Y892500D01*
X386026Y892198D01*
X385947Y891596D01*
X385740Y891026D01*
X385414Y890515D01*
X384985Y890086D01*
X384473Y889760D01*
X383903Y889553D01*
X383302Y889474D01*
X383000Y889500D01*
X382000Y889500D01*
X298500Y889500D01*
X298047Y889460D01*
X297145Y889579D01*
X296290Y889890D01*
X295522Y890379D01*
X294879Y891022D01*
X294390Y891790D01*
X294079Y892645D01*
X293960Y893547D01*
X294000Y894000D01*
X294000Y960500D01*
X293993Y960801D01*
X293931Y960972D01*
X293788Y961364D01*
X293365Y961788D01*
X292801Y961993D01*
X292500Y962000D01*
X282500D01*
X282296Y961982D01*
X281911Y962122D01*
X281622Y962411D01*
X281482Y962796D01*
X281500Y963000D01*
Y1011000D01*
X281473Y1011306D01*
X281683Y1011883D01*
X282117Y1012317D01*
X282694Y1012527D01*
X283000Y1012500D01*
X294500Y1012500D01*
X377500Y1012500D01*
X377500Y1012500D01*
X377701Y1012504D01*
X378077Y1012641D01*
X378359Y1012923D01*
X378496Y1013299D01*
X378500Y1013500D01*
X378500Y1065500D01*
X378500Y1073000D01*
X378500Y1073000D01*
X378578Y1073468D01*
X378622Y1073589D01*
X378911Y1073878D01*
X379296Y1074018D01*
X379500Y1074000D01*
X427500Y1074000D01*
X427500Y1074000D01*
X427801Y1074006D01*
X427972Y1074069D01*
X428365Y1074212D01*
X428788Y1074635D01*
X428993Y1075199D01*
X429000Y1075500D01*
Y1136500D01*
X428982Y1136704D01*
X429122Y1137088D01*
X429412Y1137378D01*
X429796Y1137518D01*
X430000Y1137500D01*
D02*
G37*
G36*
X491747Y987000D02*
X620500Y987000D01*
X620752Y987022D01*
X621253Y986956D01*
X621728Y986783D01*
X622154Y986512D01*
X622512Y986154D01*
X622783Y985728D01*
X622956Y985253D01*
X622990Y984996D01*
X623000Y984500D01*
X623000Y984500D01*
X623000Y827368D01*
X622868Y827368D01*
X622889Y827130D01*
X622827Y826655D01*
X622663Y826205D01*
X622406Y825801D01*
X622067Y825463D01*
X621663Y825205D01*
X621213Y825041D01*
X620739Y824979D01*
X620500Y825000D01*
X425500Y825000D01*
X424795Y824938D01*
X423392Y825123D01*
X422062Y825607D01*
X420868Y826367D01*
X419868Y827368D01*
X419107Y828562D01*
X418623Y829892D01*
X418438Y831295D01*
X418500Y832000D01*
X418500Y957500D01*
X418473Y957806D01*
X418683Y958383D01*
X419117Y958817D01*
X419694Y959027D01*
X420000Y959000D01*
X420000Y959000D01*
X489333Y959000D01*
X489467Y959003D01*
X489717Y959094D01*
X489906Y959283D01*
X489997Y959533D01*
X490000Y959667D01*
X490000Y959667D01*
X490000Y985253D01*
X489969Y985609D01*
X490213Y986281D01*
X490719Y986787D01*
X491391Y987031D01*
X491747Y987000D01*
D02*
G37*
G36*
X503456Y1071500D02*
X505000Y1071500D01*
X600000Y1071500D01*
X601201D01*
X601483Y1071525D01*
X602044Y1071451D01*
X602576Y1071257D01*
X603053Y1070953D01*
X603453Y1070553D01*
X603757Y1070076D01*
X603951Y1069544D01*
X604025Y1068983D01*
X604000Y1068701D01*
X604000D01*
X604000Y1059500D01*
X604000Y1040500D01*
X604027Y1040194D01*
X603817Y1039617D01*
X603383Y1039183D01*
X602984Y1039038D01*
X602500Y1039000D01*
X602500Y1039000D01*
X503000Y1039000D01*
X502694Y1038973D01*
X502117Y1039183D01*
X501683Y1039617D01*
X501538Y1040016D01*
X501500Y1040500D01*
X501500Y1040500D01*
X501500Y1040500D01*
Y1069544D01*
X501465Y1069943D01*
X501739Y1070695D01*
X502305Y1071261D01*
X503057Y1071535D01*
X503456Y1071500D01*
D02*
G37*
G36*
X406000Y1051039D02*
X487738Y1051039D01*
X487738Y1051039D01*
X487738Y1051039D01*
X487738D01*
X488195Y1050957D01*
X488279Y1050927D01*
X488545Y1050661D01*
X488674Y1050307D01*
X488658Y1050120D01*
X489142Y962146D01*
X489142Y962146D01*
X489153Y962022D01*
X489069Y961790D01*
X488895Y961614D01*
X488662Y961529D01*
X488539Y961539D01*
X475500Y961539D01*
X416500Y961539D01*
X416500Y961539D01*
X416299Y961535D01*
X415924Y961398D01*
X415641Y961116D01*
X415504Y960740D01*
X415500Y960539D01*
Y784539D01*
X415504Y784338D01*
X415641Y783963D01*
X415924Y783680D01*
X416299Y783543D01*
X416500Y783539D01*
X437000Y783539D01*
X437500D01*
X437500Y783539D01*
X437500Y783539D01*
X437601Y783541D01*
X437788Y783610D01*
X437788Y783610D01*
X437929Y783751D01*
X437929Y783751D01*
X437931Y783756D01*
X437935Y783768D01*
X437998Y783939D01*
X438000Y784039D01*
X438000Y821845D01*
X438000Y821845D01*
X438062Y822319D01*
X438164Y822565D01*
X438474Y822875D01*
X438879Y823043D01*
X439098Y823043D01*
X439110Y823043D01*
X439134Y823043D01*
X439158Y823042D01*
X439182Y823040D01*
X439194Y823039D01*
X439500Y823039D01*
X567501Y823039D01*
X568000Y823039D01*
D01*
X568000D01*
X568487Y823007D01*
X568905Y822834D01*
X569295Y822444D01*
X569505Y821935D01*
X569505Y821660D01*
X569505Y821645D01*
X569505Y821614D01*
X569503Y821584D01*
X569501Y821554D01*
X569500Y821539D01*
X569500Y645039D01*
X569500Y645039D01*
X569515Y644874D01*
X569536Y644542D01*
X569551Y644210D01*
X569558Y643878D01*
X569558Y643712D01*
X569558Y642713D01*
X569297Y640734D01*
X568781Y638805D01*
X568017Y636961D01*
X567019Y635232D01*
X565803Y633648D01*
X564391Y632236D01*
X562807Y631021D01*
X561078Y630022D01*
X559234Y629258D01*
X557305Y628742D01*
X555326Y628481D01*
X554327Y628481D01*
X554161Y628481D01*
X553829Y628488D01*
X553497Y628503D01*
X553165Y628525D01*
X553000Y628539D01*
X395000Y628539D01*
X394500Y628539D01*
X394485Y628538D01*
X394455Y628536D01*
X394425Y628535D01*
X394394Y628534D01*
X394379Y628534D01*
X394104Y628534D01*
X393595Y628745D01*
X393205Y629134D01*
X392995Y629643D01*
X392995Y629934D01*
X392995Y629964D01*
X392997Y629994D01*
X392999Y630024D01*
X393000Y630039D01*
X393000Y751078D01*
X393000Y751078D01*
X393000Y751078D01*
X393003Y751108D01*
X393006Y751166D01*
X393006Y751168D01*
X393009Y751227D01*
X393009Y751227D01*
X393010Y751286D01*
X393010Y751287D01*
X393010Y751316D01*
X393010Y751317D01*
X392997Y751584D01*
X392893Y752110D01*
X392688Y752605D01*
X392390Y753050D01*
X392011Y753429D01*
X391566Y753727D01*
X391071Y753932D01*
X390545Y754036D01*
X390277Y754049D01*
X390248Y754049D01*
X390188Y754048D01*
X390128Y754046D01*
X390069Y754042D01*
X390039Y754039D01*
X276000Y754039D01*
X275985Y754038D01*
X275955Y754036D01*
X275925Y754035D01*
X275894Y754034D01*
X275879Y754034D01*
X275604Y754034D01*
X275095Y754245D01*
X274705Y754634D01*
X274495Y755143D01*
X274495Y755434D01*
X274495Y755464D01*
X274497Y755494D01*
X274499Y755524D01*
X274500Y755539D01*
X274500Y816539D01*
X274500Y957039D01*
X274500Y957039D01*
X274531Y957526D01*
X274706Y957947D01*
X275095Y958337D01*
X275605Y958548D01*
X275881Y958548D01*
X275896Y958548D01*
X275925Y958547D01*
X275955Y958546D01*
X275985Y958544D01*
X276000Y958543D01*
X291081Y958543D01*
X291081Y958543D01*
X291081Y958543D01*
X291081D01*
X291536Y958430D01*
X291603Y958402D01*
X291863Y958143D01*
X292003Y957804D01*
X292003Y957620D01*
X292003Y957610D01*
X292003Y957590D01*
X292002Y957569D01*
X292001Y957549D01*
X292000Y957539D01*
X292000Y888539D01*
X291999Y888524D01*
X291997Y888494D01*
X291995Y888464D01*
X291995Y888433D01*
X291995Y888418D01*
X292021Y888148D01*
X292228Y887649D01*
X292610Y887267D01*
X293109Y887061D01*
X293379Y887034D01*
X322666Y887034D01*
X322949Y887034D01*
X322949Y887034D01*
X322949Y887034D01*
X323444Y887046D01*
X323528Y887046D01*
X324207Y886765D01*
X324726Y886246D01*
X325007Y885567D01*
X325007Y885200D01*
X325007Y885180D01*
X325006Y885140D01*
X325005Y885099D01*
X325002Y885059D01*
X325000Y885039D01*
X325000Y816875D01*
X325000Y816539D01*
X325007Y816378D01*
X324964Y815906D01*
X324726Y815332D01*
X324207Y814813D01*
X323528Y814532D01*
X323161Y814532D01*
X323141Y814532D01*
X323100Y814533D01*
X323060Y814535D01*
X323020Y814537D01*
X323000Y814539D01*
X292500Y814539D01*
X292500Y814539D01*
X292207Y814511D01*
X291666Y814289D01*
X291250Y813877D01*
X291024Y813336D01*
X290995Y813044D01*
X290995Y813029D01*
X290995Y812998D01*
X290997Y812968D01*
X290999Y812938D01*
X291000Y812923D01*
X291000Y772539D01*
X290999Y772529D01*
X290998Y772509D01*
X290997Y772489D01*
X290997Y772469D01*
X290997Y772459D01*
X291014Y772279D01*
X291152Y771946D01*
X291407Y771691D01*
X291739Y771553D01*
X291919Y771536D01*
X291930Y771536D01*
X291950Y771536D01*
X291970Y771537D01*
X291990Y771538D01*
X292000Y771539D01*
X380000Y771539D01*
X380000Y771539D01*
X380000Y771539D01*
X381285Y771488D01*
X383854Y771597D01*
X386396Y771985D01*
X388880Y772648D01*
X391277Y773577D01*
X393559Y774763D01*
X395698Y776189D01*
X397669Y777841D01*
X399448Y779697D01*
X401014Y781736D01*
X402349Y783933D01*
X403437Y786263D01*
X404264Y788697D01*
X404821Y791207D01*
X405101Y793763D01*
X405101Y796334D01*
X404996Y797616D01*
Y1050120D01*
X404996Y1050314D01*
X405153Y1050669D01*
X405439Y1050931D01*
X405807Y1051056D01*
X406000Y1051039D01*
D02*
G37*
G36*
X604109Y1160799D02*
X606332Y1160506D01*
X608511Y1159973D01*
X610618Y1159206D01*
X612538Y1158260D01*
X612704Y1157875D01*
X612731Y1157707D01*
X612430Y1157339D01*
X611798Y1156158D01*
X611409Y1154876D01*
X611278Y1153543D01*
X611409Y1152210D01*
X611798Y1150929D01*
X612430Y1149748D01*
X613279Y1148712D01*
X614315Y1147863D01*
X615496Y1147231D01*
X616777Y1146842D01*
X618110Y1146711D01*
X619443Y1146842D01*
X620725Y1147231D01*
X621347Y1147564D01*
X621814Y1147385D01*
X622223Y1146261D01*
X622756Y1144083D01*
X623049Y1141859D01*
X623098Y1139617D01*
X623000Y1138500D01*
X623000Y1114000D01*
X623000Y1114000D01*
X623027Y1113694D01*
X622817Y1113117D01*
X622383Y1112683D01*
X621806Y1112473D01*
X621500Y1112500D01*
X509600Y1112500D01*
X501000D01*
Y1112500D01*
X501000Y1112500D01*
X500799Y1112496D01*
X500424Y1112359D01*
X500141Y1112076D01*
X500004Y1111701D01*
X500000Y1111500D01*
Y1111250D01*
X499980Y1111196D01*
X499986Y1111077D01*
X499950Y1110964D01*
X499959Y1110862D01*
X499959Y1076500D01*
Y1076000D01*
X499959Y1076000D01*
X499956Y1075504D01*
X499993Y1075413D01*
X499989Y1075316D01*
X500000Y1075286D01*
Y1039500D01*
X500006Y1039199D01*
X500211Y1038635D01*
X500635Y1038212D01*
X501199Y1038006D01*
X501500Y1038000D01*
X564500Y1038000D01*
X564500Y1038000D01*
X565000Y1038001D01*
X565404Y1037948D01*
X565974Y1037740D01*
X566485Y1037414D01*
X566914Y1036985D01*
X567240Y1036474D01*
X567448Y1035904D01*
X567527Y1035302D01*
X567500Y1035000D01*
X567500Y991558D01*
X567500Y991000D01*
X567522Y990748D01*
X567456Y990247D01*
X567284Y989772D01*
X567012Y989345D01*
X566654Y988988D01*
X566228Y988716D01*
X565753Y988544D01*
X565252Y988478D01*
X565000Y988500D01*
X491417Y988500D01*
X490930Y988500D01*
X490929D01*
X490453Y988556D01*
X490181Y988655D01*
X489813Y989023D01*
X489635Y989513D01*
X489658Y989772D01*
X489658Y1137500D01*
X489658Y1137500D01*
X489653Y1137701D01*
X489517Y1138077D01*
X489235Y1138360D01*
X488859Y1138498D01*
X488658Y1138502D01*
X429000Y1138502D01*
X428498Y1138500D01*
X428297Y1138496D01*
X427923Y1138359D01*
X427641Y1138077D01*
X427504Y1137703D01*
X427500Y1137502D01*
X427500Y1112500D01*
X427500Y1112500D01*
X427527Y1112194D01*
X427317Y1111617D01*
X426883Y1111183D01*
X426306Y1110973D01*
X426000Y1111000D01*
X411500Y1111000D01*
X411500Y1111000D01*
Y1111000D01*
X411016Y1111038D01*
X410617Y1111183D01*
X410183Y1111617D01*
X409973Y1112194D01*
X410000Y1112500D01*
X410000Y1136530D01*
Y1137502D01*
X409996Y1137703D01*
X409859Y1138079D01*
X409576Y1138361D01*
X409201Y1138498D01*
X409000Y1138502D01*
X389000Y1138502D01*
X389000Y1138502D01*
X388799Y1138498D01*
X388424Y1138361D01*
X388142Y1138078D01*
X388005Y1137702D01*
X388001Y1137501D01*
X388001Y1137030D01*
X387999Y1126760D01*
Y1126499D01*
X388026Y1126193D01*
X387816Y1125617D01*
X387382Y1125183D01*
X386806Y1124973D01*
X386500Y1125000D01*
X365710Y1125000D01*
X365710Y1125000D01*
Y1125000D01*
X365221Y1124975D01*
X364409Y1125270D01*
X363770Y1125910D01*
X363460Y1126760D01*
X363500Y1127210D01*
X363500Y1148750D01*
X363500Y1149000D01*
X363500Y1149250D01*
X363500Y1149250D01*
X363508Y1149502D01*
X363443Y1150000D01*
X363271Y1150472D01*
X363001Y1150896D01*
X362646Y1151251D01*
X362222Y1151521D01*
X361750Y1151693D01*
X361251Y1151758D01*
X361000Y1151750D01*
X282500Y1151750D01*
X282248Y1151758D01*
X281750Y1151693D01*
X281278Y1151521D01*
X280854Y1151251D01*
X280499Y1150896D01*
X280229Y1150472D01*
X280057Y1150000D01*
X279992Y1149502D01*
X280000Y1149250D01*
X280000Y964999D01*
X280000Y964999D01*
X280026Y964708D01*
X279949Y964129D01*
X279750Y963580D01*
X279436Y963088D01*
X279023Y962675D01*
X278530Y962362D01*
X277981Y962162D01*
X277402Y962087D01*
X277111Y962113D01*
X272500Y962000D01*
X272000D01*
X271903Y961998D01*
X271722Y961932D01*
X271585Y961796D01*
X271519Y961614D01*
X271517Y961517D01*
Y673606D01*
X271517Y673606D01*
X271517Y673135D01*
X271324Y672215D01*
X270945Y671353D01*
X270397Y670588D01*
X269703Y669953D01*
X268894Y669474D01*
X268003Y669171D01*
X267069Y669059D01*
X266600Y669100D01*
X217000D01*
X213500Y669100D01*
X212400Y669100D01*
X211856Y669052D01*
X210774Y669195D01*
X209748Y669568D01*
X208827Y670155D01*
X208055Y670927D01*
X207468Y671848D01*
X207095Y672874D01*
X206952Y673956D01*
X207000Y674500D01*
X207000Y978250D01*
Y1145500D01*
X207000Y1145500D01*
X207000Y1145500D01*
X206917Y1146445D01*
X207120Y1146700D01*
X207429Y1146832D01*
X208661Y1146711D01*
X209994Y1146842D01*
X211276Y1147231D01*
X212457Y1147863D01*
X213492Y1148712D01*
X214342Y1149748D01*
X214973Y1150929D01*
X215362Y1152210D01*
X215493Y1153543D01*
X215362Y1154876D01*
X214973Y1156158D01*
X214342Y1157339D01*
X213659Y1158171D01*
X213647Y1158197D01*
X213708Y1158722D01*
X213758Y1158803D01*
X215245Y1159604D01*
X217172Y1160306D01*
X219181Y1160720D01*
X221228Y1160839D01*
X222250Y1160750D01*
X424548Y1160750D01*
X600750Y1160750D01*
Y1160750D01*
X601867Y1160848D01*
X604109Y1160799D01*
D02*
G37*
G36*
X361599Y1148906D02*
X361888Y1148604D01*
X362023Y1148208D01*
X362000Y1148000D01*
X362000D01*
X362000Y1125000D01*
X362004Y1124799D01*
X362141Y1124424D01*
X362424Y1124141D01*
X362799Y1124004D01*
X363000Y1124000D01*
X388000Y1124000D01*
Y1124000D01*
X388201Y1124004D01*
X388576Y1124141D01*
X388859Y1124424D01*
X388996Y1124799D01*
X389000Y1125000D01*
X389000Y1136000D01*
X388973Y1136306D01*
X389183Y1136883D01*
X389617Y1137317D01*
X390016Y1137462D01*
X390500Y1137500D01*
X390500Y1137500D01*
X390500Y1137500D01*
X407028Y1137500D01*
X407500Y1137500D01*
D01*
X407978Y1137464D01*
X408383Y1137317D01*
X408817Y1136883D01*
X408962Y1136484D01*
X409000Y1136000D01*
X409000Y1112239D01*
X409018Y1111981D01*
X408833Y1111499D01*
X408461Y1111141D01*
X407973Y1110973D01*
X407716Y1111000D01*
X387500Y1111000D01*
X387500Y1110915D01*
X387199Y1110908D01*
X386635Y1110703D01*
X386211Y1110279D01*
X386007Y1109716D01*
X386000Y1109415D01*
X386000Y1077788D01*
X386032Y1077423D01*
X385782Y1076736D01*
X385264Y1076218D01*
X384577Y1075968D01*
X384212Y1076000D01*
X383000D01*
X379500Y1076000D01*
X379248Y1076008D01*
X378750Y1075943D01*
X378278Y1075771D01*
X377854Y1075501D01*
X377499Y1075146D01*
X377229Y1074722D01*
X377057Y1074250D01*
X376992Y1073752D01*
X377000Y1073500D01*
Y1018547D01*
X377036Y1018139D01*
X376929Y1017328D01*
X376649Y1016559D01*
X376209Y1015869D01*
X375631Y1015291D01*
X374941Y1014851D01*
X374172Y1014571D01*
X373443Y1014475D01*
X372953Y1014500D01*
X372953Y1014500D01*
X372000Y1014500D01*
X316075Y1014500D01*
X287500Y1014500D01*
X287000Y1014500D01*
X286547Y1014460D01*
X285645Y1014579D01*
X284790Y1014890D01*
X284022Y1015379D01*
X283379Y1016022D01*
X282890Y1016790D01*
X282579Y1017645D01*
X282460Y1018547D01*
X282500Y1019000D01*
X282500Y1148500D01*
X282490Y1148611D01*
X282566Y1148820D01*
X282723Y1148977D01*
X282932Y1149053D01*
X283043Y1149043D01*
X283043Y1149043D01*
X283500Y1149043D01*
X361000Y1149043D01*
X361209Y1149057D01*
X361599Y1148906D01*
D02*
G37*
%LPC*%
G36*
X610634Y1048084D02*
X609671Y1047892D01*
X608854Y1047347D01*
X608309Y1046530D01*
X608117Y1045567D01*
X608309Y1044604D01*
X608854Y1043787D01*
X609671Y1043242D01*
X610634Y1043050D01*
X611597Y1043242D01*
X612414Y1043787D01*
X612959Y1044604D01*
X613151Y1045567D01*
X612959Y1046530D01*
X612414Y1047347D01*
X611597Y1047892D01*
X610634Y1048084D01*
D02*
G37*
G36*
X599000Y1023499D02*
X598086Y1023378D01*
X597235Y1023026D01*
X596504Y1022465D01*
X595943Y1021734D01*
X595590Y1020882D01*
X595470Y1019969D01*
X595590Y1019055D01*
X595943Y1018203D01*
X596504Y1017472D01*
X597235Y1016911D01*
X598086Y1016559D01*
X599000Y1016438D01*
X599914Y1016559D01*
X600765Y1016911D01*
X601496Y1017472D01*
X602057Y1018203D01*
X602410Y1019055D01*
X602530Y1019969D01*
X602410Y1020882D01*
X602057Y1021734D01*
X601496Y1022465D01*
X600765Y1023026D01*
X599914Y1023378D01*
X599000Y1023499D01*
D02*
G37*
G36*
X548598Y1101503D02*
X547543Y1101364D01*
X546559Y1100957D01*
X545715Y1100309D01*
X545067Y1099464D01*
X544659Y1098481D01*
X544520Y1097425D01*
X544659Y1096370D01*
X545067Y1095386D01*
X545715Y1094541D01*
X546559Y1093893D01*
X547543Y1093486D01*
X548598Y1093347D01*
X549654Y1093486D01*
X550637Y1093893D01*
X551482Y1094541D01*
X552130Y1095386D01*
X552538Y1096370D01*
X552677Y1097425D01*
X552538Y1098481D01*
X552130Y1099464D01*
X551482Y1100309D01*
X550637Y1100957D01*
X549654Y1101364D01*
X548598Y1101503D01*
D02*
G37*
G36*
X507000Y1080529D02*
X506415Y1080413D01*
X505919Y1080081D01*
X505587Y1079585D01*
X505471Y1079000D01*
X505587Y1078415D01*
X505919Y1077919D01*
X506415Y1077587D01*
X507000Y1077471D01*
X507585Y1077587D01*
X508081Y1077919D01*
X508413Y1078415D01*
X508529Y1079000D01*
X508413Y1079585D01*
X508081Y1080081D01*
X507585Y1080413D01*
X507000Y1080529D01*
D02*
G37*
G36*
X547500Y1084529D02*
X546915Y1084413D01*
X546419Y1084081D01*
X546087Y1083585D01*
X545971Y1083000D01*
X546087Y1082415D01*
X546419Y1081919D01*
X546915Y1081587D01*
X547500Y1081471D01*
X548085Y1081587D01*
X548581Y1081919D01*
X548913Y1082415D01*
X549029Y1083000D01*
X548913Y1083585D01*
X548581Y1084081D01*
X548085Y1084413D01*
X547500Y1084529D01*
D02*
G37*
G36*
X588000Y1083029D02*
X587415Y1082913D01*
X586919Y1082581D01*
X586587Y1082085D01*
X586471Y1081500D01*
X586587Y1080915D01*
X586919Y1080419D01*
X587415Y1080087D01*
X588000Y1079971D01*
X588585Y1080087D01*
X589081Y1080419D01*
X589413Y1080915D01*
X589529Y1081500D01*
X589413Y1082085D01*
X589081Y1082581D01*
X588585Y1082913D01*
X588000Y1083029D01*
D02*
G37*
G36*
X527500Y1103578D02*
X526444Y1103439D01*
X525461Y1103032D01*
X524616Y1102384D01*
X523968Y1101539D01*
X523561Y1100556D01*
X523422Y1099500D01*
X523561Y1098444D01*
X523968Y1097461D01*
X524616Y1096616D01*
X525461Y1095968D01*
X526444Y1095561D01*
X527500Y1095422D01*
X528555Y1095561D01*
X529539Y1095968D01*
X530384Y1096616D01*
X531032Y1097461D01*
X531439Y1098444D01*
X531578Y1099500D01*
X531439Y1100556D01*
X531032Y1101539D01*
X530384Y1102384D01*
X529539Y1103032D01*
X528555Y1103439D01*
X527500Y1103578D01*
D02*
G37*
G36*
X600098Y1102003D02*
X599043Y1101864D01*
X598059Y1101457D01*
X597215Y1100809D01*
X596567Y1099964D01*
X596159Y1098981D01*
X596020Y1097925D01*
X596159Y1096870D01*
X596567Y1095886D01*
X597215Y1095041D01*
X598059Y1094393D01*
X599043Y1093986D01*
X600098Y1093847D01*
X601154Y1093986D01*
X602138Y1094393D01*
X602982Y1095041D01*
X603630Y1095886D01*
X604038Y1096870D01*
X604177Y1097925D01*
X604038Y1098981D01*
X603630Y1099964D01*
X602982Y1100809D01*
X602138Y1101457D01*
X601154Y1101864D01*
X600098Y1102003D01*
D02*
G37*
G36*
X590098D02*
X589043Y1101864D01*
X588059Y1101457D01*
X587215Y1100809D01*
X586567Y1099964D01*
X586159Y1098981D01*
X586020Y1097925D01*
X586159Y1096870D01*
X586567Y1095886D01*
X587215Y1095041D01*
X588059Y1094393D01*
X589043Y1093986D01*
X590098Y1093847D01*
X591154Y1093986D01*
X592137Y1094393D01*
X592982Y1095041D01*
X593630Y1095886D01*
X594038Y1096870D01*
X594177Y1097925D01*
X594038Y1098981D01*
X593630Y1099964D01*
X592982Y1100809D01*
X592137Y1101457D01*
X591154Y1101864D01*
X590098Y1102003D01*
D02*
G37*
G36*
X558598Y1101503D02*
X557543Y1101364D01*
X556559Y1100957D01*
X555715Y1100309D01*
X555067Y1099464D01*
X554659Y1098481D01*
X554520Y1097425D01*
X554659Y1096370D01*
X555067Y1095386D01*
X555715Y1094541D01*
X556559Y1093893D01*
X557543Y1093486D01*
X558598Y1093347D01*
X559654Y1093486D01*
X560638Y1093893D01*
X561482Y1094541D01*
X562130Y1095386D01*
X562538Y1096370D01*
X562677Y1097425D01*
X562538Y1098481D01*
X562130Y1099464D01*
X561482Y1100309D01*
X560638Y1100957D01*
X559654Y1101364D01*
X558598Y1101503D01*
D02*
G37*
G36*
X572311Y1006474D02*
X571348Y1006282D01*
X570531Y1005736D01*
X569986Y1004920D01*
X569794Y1003957D01*
X569986Y1002993D01*
X570531Y1002177D01*
X571348Y1001631D01*
X572311Y1001440D01*
X573274Y1001631D01*
X574091Y1002177D01*
X574636Y1002993D01*
X574828Y1003957D01*
X574636Y1004920D01*
X574091Y1005736D01*
X573274Y1006282D01*
X572311Y1006474D01*
D02*
G37*
G36*
X610811Y1006974D02*
X609848Y1006782D01*
X609031Y1006236D01*
X608486Y1005420D01*
X608294Y1004457D01*
X608486Y1003493D01*
X609031Y1002677D01*
X609848Y1002131D01*
X610811Y1001940D01*
X611774Y1002131D01*
X612591Y1002677D01*
X613136Y1003493D01*
X613328Y1004457D01*
X613136Y1005420D01*
X612591Y1006236D01*
X611774Y1006782D01*
X610811Y1006974D01*
D02*
G37*
G36*
X587189D02*
X586226Y1006782D01*
X585409Y1006236D01*
X584864Y1005420D01*
X584672Y1004457D01*
X584864Y1003493D01*
X585409Y1002677D01*
X586226Y1002131D01*
X587189Y1001940D01*
X588152Y1002131D01*
X588969Y1002677D01*
X589514Y1003493D01*
X589706Y1004457D01*
X589514Y1005420D01*
X588969Y1006236D01*
X588152Y1006782D01*
X587189Y1006974D01*
D02*
G37*
G36*
X413500Y1102078D02*
X412444Y1101939D01*
X411461Y1101532D01*
X410616Y1100884D01*
X409968Y1100039D01*
X409561Y1099055D01*
X409422Y1098000D01*
X409561Y1096945D01*
X409968Y1095961D01*
X410616Y1095116D01*
X411461Y1094468D01*
X412444Y1094061D01*
X413500Y1093922D01*
X414556Y1094061D01*
X415539Y1094468D01*
X416384Y1095116D01*
X417032Y1095961D01*
X417439Y1096945D01*
X417578Y1098000D01*
X417439Y1099055D01*
X417032Y1100039D01*
X416384Y1100884D01*
X415539Y1101532D01*
X414556Y1101939D01*
X413500Y1102078D01*
D02*
G37*
G36*
X450500Y1076029D02*
X449915Y1075913D01*
X449419Y1075581D01*
X449087Y1075085D01*
X448971Y1074500D01*
X449087Y1073915D01*
X449419Y1073419D01*
X449915Y1073087D01*
X450500Y1072971D01*
X451085Y1073087D01*
X451581Y1073419D01*
X451913Y1073915D01*
X452029Y1074500D01*
X451913Y1075085D01*
X451581Y1075581D01*
X451085Y1075913D01*
X450500Y1076029D01*
D02*
G37*
G36*
X426000Y799529D02*
X425415Y799413D01*
X424919Y799081D01*
X424587Y798585D01*
X424471Y798000D01*
X424587Y797415D01*
X424919Y796919D01*
X425415Y796587D01*
X426000Y796471D01*
X426585Y796587D01*
X427081Y796919D01*
X427413Y797415D01*
X427529Y798000D01*
X427413Y798585D01*
X427081Y799081D01*
X426585Y799413D01*
X426000Y799529D01*
D02*
G37*
G36*
X578000Y783529D02*
X577415Y783413D01*
X576919Y783081D01*
X576587Y782585D01*
X576471Y782000D01*
X576587Y781415D01*
X576919Y780919D01*
X577415Y780587D01*
X578000Y780471D01*
X578585Y780587D01*
X579081Y780919D01*
X579413Y781415D01*
X579529Y782000D01*
X579413Y782585D01*
X579081Y783081D01*
X578585Y783413D01*
X578000Y783529D01*
D02*
G37*
G36*
X597335Y750149D02*
X596279Y750010D01*
X595296Y749603D01*
X594451Y748955D01*
X593803Y748110D01*
X593395Y747126D01*
X593257Y746071D01*
X593395Y745015D01*
X593803Y744032D01*
X594451Y743187D01*
X595296Y742539D01*
X596279Y742132D01*
X597335Y741993D01*
X598390Y742132D01*
X599374Y742539D01*
X600218Y743187D01*
X600867Y744032D01*
X601274Y745015D01*
X601413Y746071D01*
X601274Y747126D01*
X600867Y748110D01*
X600218Y748955D01*
X599374Y749603D01*
X598390Y750010D01*
X597335Y750149D01*
D02*
G37*
G36*
X576346Y744337D02*
X575761Y744220D01*
X575265Y743889D01*
X574933Y743392D01*
X574817Y742807D01*
X574933Y742222D01*
X575265Y741726D01*
X575761Y741394D01*
X576346Y741278D01*
X576932Y741394D01*
X577428Y741726D01*
X577759Y742222D01*
X577876Y742807D01*
X577759Y743392D01*
X577428Y743889D01*
X576932Y744220D01*
X576346Y744337D01*
D02*
G37*
G36*
X597335Y760149D02*
X596279Y760010D01*
X595296Y759603D01*
X594451Y758955D01*
X593803Y758110D01*
X593395Y757126D01*
X593257Y756071D01*
X593395Y755015D01*
X593803Y754032D01*
X594451Y753187D01*
X595296Y752539D01*
X596279Y752132D01*
X597335Y751993D01*
X598390Y752132D01*
X599374Y752539D01*
X600218Y753187D01*
X600867Y754032D01*
X601274Y755015D01*
X601413Y756071D01*
X601274Y757126D01*
X600867Y758110D01*
X600218Y758955D01*
X599374Y759603D01*
X598390Y760010D01*
X597335Y760149D01*
D02*
G37*
G36*
X578000Y763529D02*
X577415Y763413D01*
X576919Y763081D01*
X576587Y762585D01*
X576471Y762000D01*
X576587Y761415D01*
X576919Y760919D01*
X577415Y760587D01*
X578000Y760471D01*
X578585Y760587D01*
X579081Y760919D01*
X579413Y761415D01*
X579529Y762000D01*
X579413Y762585D01*
X579081Y763081D01*
X578585Y763413D01*
X578000Y763529D01*
D02*
G37*
G36*
X577500Y819029D02*
X576915Y818913D01*
X576419Y818581D01*
X576087Y818085D01*
X575971Y817500D01*
X576087Y816915D01*
X576419Y816419D01*
X576915Y816087D01*
X577500Y815971D01*
X578085Y816087D01*
X578581Y816419D01*
X578913Y816915D01*
X579029Y817500D01*
X578913Y818085D01*
X578581Y818581D01*
X578085Y818913D01*
X577500Y819029D01*
D02*
G37*
G36*
X610500Y822029D02*
X609915Y821913D01*
X609419Y821581D01*
X609087Y821085D01*
X608971Y820500D01*
X609087Y819915D01*
X609419Y819419D01*
X609915Y819087D01*
X610500Y818971D01*
X611085Y819087D01*
X611581Y819419D01*
X611913Y819915D01*
X612029Y820500D01*
X611913Y821085D01*
X611581Y821581D01*
X611085Y821913D01*
X610500Y822029D01*
D02*
G37*
G36*
X597335Y809362D02*
X596279Y809223D01*
X595295Y808815D01*
X594451Y808167D01*
X593803Y807323D01*
X593395Y806339D01*
X593257Y805284D01*
X593395Y804228D01*
X593803Y803244D01*
X594451Y802400D01*
X595295Y801752D01*
X596279Y801344D01*
X597335Y801205D01*
X598390Y801344D01*
X599374Y801752D01*
X600218Y802400D01*
X600867Y803244D01*
X601274Y804228D01*
X601413Y805284D01*
X601274Y806339D01*
X600867Y807323D01*
X600218Y808167D01*
X599374Y808815D01*
X598390Y809223D01*
X597335Y809362D01*
D02*
G37*
G36*
Y799362D02*
X596279Y799223D01*
X595295Y798815D01*
X594451Y798167D01*
X593803Y797323D01*
X593395Y796339D01*
X593257Y795284D01*
X593395Y794228D01*
X593803Y793244D01*
X594451Y792400D01*
X595295Y791752D01*
X596279Y791344D01*
X597335Y791205D01*
X598390Y791344D01*
X599374Y791752D01*
X600218Y792400D01*
X600867Y793244D01*
X601274Y794228D01*
X601413Y795284D01*
X601274Y796339D01*
X600867Y797323D01*
X600218Y798167D01*
X599374Y798815D01*
X598390Y799223D01*
X597335Y799362D01*
D02*
G37*
G36*
X579000Y806529D02*
X578415Y806413D01*
X577919Y806081D01*
X577587Y805585D01*
X577471Y805000D01*
X577587Y804415D01*
X577919Y803919D01*
X578415Y803587D01*
X579000Y803471D01*
X579585Y803587D01*
X580081Y803919D01*
X580413Y804415D01*
X580529Y805000D01*
X580413Y805585D01*
X580081Y806081D01*
X579585Y806413D01*
X579000Y806529D01*
D02*
G37*
G36*
X353500Y716529D02*
X352915Y716413D01*
X352419Y716081D01*
X352087Y715585D01*
X351971Y715000D01*
X352087Y714415D01*
X352419Y713919D01*
X352915Y713587D01*
X353500Y713471D01*
X354085Y713587D01*
X354581Y713919D01*
X354913Y714415D01*
X355029Y715000D01*
X354913Y715585D01*
X354581Y716081D01*
X354085Y716413D01*
X353500Y716529D01*
D02*
G37*
G36*
X223031Y615681D02*
X220276D01*
X219580Y615589D01*
X218931Y615320D01*
X218375Y614893D01*
X217947Y614336D01*
X217679Y613688D01*
X217587Y612992D01*
X217679Y612296D01*
X217947Y611648D01*
X218375Y611091D01*
X218931Y610664D01*
X219580Y610395D01*
X220276Y610304D01*
X223031D01*
X223727Y610395D01*
X224376Y610664D01*
X224932Y611091D01*
X225360Y611648D01*
X225628Y612296D01*
X225720Y612992D01*
X225628Y613688D01*
X225360Y614336D01*
X224932Y614893D01*
X224376Y615320D01*
X223727Y615589D01*
X223031Y615681D01*
D02*
G37*
G36*
X437000Y613029D02*
X436415Y612913D01*
X435919Y612581D01*
X435587Y612085D01*
X435471Y611500D01*
X435587Y610915D01*
X435919Y610419D01*
X436415Y610087D01*
X437000Y609971D01*
X437585Y610087D01*
X438081Y610419D01*
X438413Y610915D01*
X438529Y611500D01*
X438413Y612085D01*
X438081Y612581D01*
X437585Y612913D01*
X437000Y613029D01*
D02*
G37*
G36*
X595992Y613014D02*
X595407Y612897D01*
X594911Y612566D01*
X594579Y612070D01*
X594463Y611484D01*
X594579Y610899D01*
X594911Y610403D01*
X595407Y610071D01*
X595992Y609955D01*
X596577Y610071D01*
X597074Y610403D01*
X597405Y610899D01*
X597521Y611484D01*
X597405Y612070D01*
X597074Y612566D01*
X596577Y612897D01*
X595992Y613014D01*
D02*
G37*
G36*
X343500Y615029D02*
X342915Y614913D01*
X342419Y614581D01*
X342087Y614085D01*
X341971Y613500D01*
X342087Y612915D01*
X342419Y612419D01*
X342915Y612087D01*
X343500Y611971D01*
X344085Y612087D01*
X344581Y612419D01*
X344913Y612915D01*
X345029Y613500D01*
X344913Y614085D01*
X344581Y614581D01*
X344085Y614913D01*
X343500Y615029D01*
D02*
G37*
G36*
X483000Y614529D02*
X482415Y614413D01*
X481919Y614081D01*
X481587Y613585D01*
X481471Y613000D01*
X481587Y612415D01*
X481919Y611919D01*
X482415Y611587D01*
X483000Y611471D01*
X483585Y611587D01*
X484081Y611919D01*
X484413Y612415D01*
X484529Y613000D01*
X484413Y613585D01*
X484081Y614081D01*
X483585Y614413D01*
X483000Y614529D01*
D02*
G37*
G36*
X507500Y614029D02*
X506915Y613913D01*
X506419Y613581D01*
X506087Y613085D01*
X505971Y612500D01*
X506087Y611915D01*
X506419Y611419D01*
X506915Y611087D01*
X507500Y610971D01*
X508085Y611087D01*
X508581Y611419D01*
X508913Y611915D01*
X509029Y612500D01*
X508913Y613085D01*
X508581Y613581D01*
X508085Y613913D01*
X507500Y614029D01*
D02*
G37*
G36*
X318500Y601029D02*
X317915Y600913D01*
X317419Y600581D01*
X317087Y600085D01*
X316971Y599500D01*
X317087Y598915D01*
X317419Y598419D01*
X317915Y598087D01*
X318500Y597971D01*
X319085Y598087D01*
X319581Y598419D01*
X319913Y598915D01*
X320029Y599500D01*
X319913Y600085D01*
X319581Y600581D01*
X319085Y600913D01*
X318500Y601029D01*
D02*
G37*
G36*
X411370Y603094D02*
X403284D01*
Y595008D01*
X411370D01*
Y603094D01*
D02*
G37*
G36*
X397327Y603129D02*
X396271Y602990D01*
X395288Y602583D01*
X394443Y601935D01*
X393795Y601090D01*
X393388Y600107D01*
X393249Y599051D01*
X393388Y597996D01*
X393795Y597012D01*
X394443Y596168D01*
X395288Y595519D01*
X396271Y595112D01*
X397327Y594973D01*
X398382Y595112D01*
X399366Y595519D01*
X400211Y596168D01*
X400859Y597012D01*
X401266Y597996D01*
X401405Y599051D01*
X401266Y600107D01*
X400859Y601090D01*
X400211Y601935D01*
X399366Y602583D01*
X398382Y602990D01*
X397327Y603129D01*
D02*
G37*
G36*
X250000Y609029D02*
X249415Y608913D01*
X248919Y608581D01*
X248587Y608085D01*
X248471Y607500D01*
X248587Y606915D01*
X248919Y606419D01*
X249415Y606087D01*
X250000Y605971D01*
X250585Y606087D01*
X251081Y606419D01*
X251413Y606915D01*
X251529Y607500D01*
X251413Y608085D01*
X251081Y608581D01*
X250585Y608913D01*
X250000Y609029D01*
D02*
G37*
G36*
X559492Y608014D02*
X558907Y607897D01*
X558411Y607566D01*
X558079Y607069D01*
X557963Y606484D01*
X558079Y605899D01*
X558411Y605403D01*
X558907Y605071D01*
X559492Y604955D01*
X560077Y605071D01*
X560574Y605403D01*
X560905Y605899D01*
X561022Y606484D01*
X560905Y607069D01*
X560574Y607566D01*
X560077Y607897D01*
X559492Y608014D01*
D02*
G37*
G36*
X599500Y602529D02*
X598915Y602413D01*
X598419Y602081D01*
X598087Y601585D01*
X597971Y601000D01*
X598087Y600415D01*
X598419Y599919D01*
X598915Y599587D01*
X599500Y599471D01*
X600085Y599587D01*
X600581Y599919D01*
X600913Y600415D01*
X601029Y601000D01*
X600913Y601585D01*
X600581Y602081D01*
X600085Y602413D01*
X599500Y602529D01*
D02*
G37*
G36*
X594992Y630014D02*
X594407Y629897D01*
X593911Y629566D01*
X593579Y629070D01*
X593463Y628484D01*
X593579Y627899D01*
X593911Y627403D01*
X594407Y627071D01*
X594992Y626955D01*
X595577Y627071D01*
X596074Y627403D01*
X596405Y627899D01*
X596522Y628484D01*
X596405Y629070D01*
X596074Y629566D01*
X595577Y629897D01*
X594992Y630014D01*
D02*
G37*
G36*
X318000Y628529D02*
X317415Y628413D01*
X316919Y628081D01*
X316587Y627585D01*
X316471Y627000D01*
X316587Y626415D01*
X316919Y625919D01*
X317415Y625587D01*
X318000Y625471D01*
X318585Y625587D01*
X319081Y625919D01*
X319413Y626415D01*
X319529Y627000D01*
X319413Y627585D01*
X319081Y628081D01*
X318585Y628413D01*
X318000Y628529D01*
D02*
G37*
G36*
X337000Y626029D02*
X336415Y625913D01*
X335919Y625581D01*
X335587Y625085D01*
X335471Y624500D01*
X335587Y623915D01*
X335919Y623419D01*
X336415Y623087D01*
X337000Y622971D01*
X337585Y623087D01*
X338081Y623419D01*
X338413Y623915D01*
X338529Y624500D01*
X338413Y625085D01*
X338081Y625581D01*
X337585Y625913D01*
X337000Y626029D01*
D02*
G37*
G36*
X320000Y636529D02*
X319415Y636413D01*
X318919Y636081D01*
X318587Y635585D01*
X318471Y635000D01*
X318587Y634415D01*
X318919Y633919D01*
X319415Y633587D01*
X320000Y633471D01*
X320585Y633587D01*
X321081Y633919D01*
X321413Y634415D01*
X321529Y635000D01*
X321413Y635585D01*
X321081Y636081D01*
X320585Y636413D01*
X320000Y636529D01*
D02*
G37*
G36*
X292000Y631529D02*
X291415Y631413D01*
X290919Y631081D01*
X290587Y630585D01*
X290471Y630000D01*
X290587Y629415D01*
X290919Y628919D01*
X291415Y628587D01*
X292000Y628471D01*
X292585Y628587D01*
X293081Y628919D01*
X293413Y629415D01*
X293529Y630000D01*
X293413Y630585D01*
X293081Y631081D01*
X292585Y631413D01*
X292000Y631529D01*
D02*
G37*
G36*
X458492Y620514D02*
X457907Y620397D01*
X457411Y620066D01*
X457079Y619569D01*
X456963Y618984D01*
X457079Y618399D01*
X457411Y617903D01*
X457907Y617571D01*
X458492Y617455D01*
X459077Y617571D01*
X459574Y617903D01*
X459905Y618399D01*
X460021Y618984D01*
X459905Y619569D01*
X459574Y620066D01*
X459077Y620397D01*
X458492Y620514D01*
D02*
G37*
G36*
X611500Y618529D02*
X610915Y618413D01*
X610419Y618081D01*
X610087Y617585D01*
X609971Y617000D01*
X610087Y616415D01*
X610419Y615919D01*
X610915Y615587D01*
X611500Y615471D01*
X612085Y615587D01*
X612581Y615919D01*
X612913Y616415D01*
X613029Y617000D01*
X612913Y617585D01*
X612581Y618081D01*
X612085Y618413D01*
X611500Y618529D01*
D02*
G37*
G36*
X569992Y617514D02*
X569407Y617397D01*
X568911Y617066D01*
X568579Y616570D01*
X568463Y615984D01*
X568579Y615399D01*
X568911Y614903D01*
X569407Y614571D01*
X569992Y614455D01*
X570577Y614571D01*
X571074Y614903D01*
X571405Y615399D01*
X571522Y615984D01*
X571405Y616570D01*
X571074Y617066D01*
X570577Y617397D01*
X569992Y617514D01*
D02*
G37*
G36*
X278000Y626029D02*
X277415Y625913D01*
X276919Y625581D01*
X276587Y625085D01*
X276471Y624500D01*
X276587Y623915D01*
X276919Y623419D01*
X277415Y623087D01*
X278000Y622971D01*
X278585Y623087D01*
X279081Y623419D01*
X279413Y623915D01*
X279529Y624500D01*
X279413Y625085D01*
X279081Y625581D01*
X278585Y625913D01*
X278000Y626029D01*
D02*
G37*
G36*
X507992Y625514D02*
X507407Y625397D01*
X506911Y625066D01*
X506579Y624570D01*
X506463Y623984D01*
X506579Y623399D01*
X506911Y622903D01*
X507407Y622571D01*
X507992Y622455D01*
X508577Y622571D01*
X509074Y622903D01*
X509405Y623399D01*
X509521Y623984D01*
X509405Y624570D01*
X509074Y625066D01*
X508577Y625397D01*
X507992Y625514D01*
D02*
G37*
G36*
X395500Y621529D02*
X394915Y621413D01*
X394419Y621081D01*
X394087Y620585D01*
X393971Y620000D01*
X394087Y619415D01*
X394419Y618919D01*
X394915Y618587D01*
X395500Y618471D01*
X396085Y618587D01*
X396581Y618919D01*
X396913Y619415D01*
X397029Y620000D01*
X396913Y620585D01*
X396581Y621081D01*
X396085Y621413D01*
X395500Y621529D01*
D02*
G37*
G36*
X549571Y602965D02*
X541484D01*
Y594878D01*
X549571D01*
Y602965D01*
D02*
G37*
G36*
X345988Y589350D02*
X344933Y589211D01*
X343949Y588803D01*
X343105Y588155D01*
X342456Y587311D01*
X342049Y586327D01*
X341910Y585272D01*
X342049Y584216D01*
X342456Y583233D01*
X343105Y582388D01*
X343949Y581740D01*
X344933Y581332D01*
X345988Y581193D01*
X347044Y581332D01*
X348027Y581740D01*
X348872Y582388D01*
X349520Y583233D01*
X349927Y584216D01*
X350066Y585272D01*
X349927Y586327D01*
X349520Y587311D01*
X348872Y588155D01*
X348027Y588803D01*
X347044Y589211D01*
X345988Y589350D01*
D02*
G37*
G36*
X592772Y589220D02*
X591716Y589081D01*
X590733Y588674D01*
X589888Y588026D01*
X589240Y587181D01*
X588832Y586197D01*
X588694Y585142D01*
X588832Y584086D01*
X589240Y583103D01*
X589888Y582258D01*
X590733Y581610D01*
X591716Y581203D01*
X592772Y581064D01*
X593827Y581203D01*
X594811Y581610D01*
X595655Y582258D01*
X596304Y583103D01*
X596711Y584086D01*
X596850Y585142D01*
X596711Y586197D01*
X596304Y587181D01*
X595655Y588026D01*
X594811Y588674D01*
X593827Y589081D01*
X592772Y589220D01*
D02*
G37*
G36*
X582772D02*
X581716Y589081D01*
X580733Y588674D01*
X579888Y588026D01*
X579240Y587181D01*
X578832Y586197D01*
X578693Y585142D01*
X578832Y584086D01*
X579240Y583103D01*
X579888Y582258D01*
X580733Y581610D01*
X581716Y581203D01*
X582772Y581064D01*
X583827Y581203D01*
X584811Y581610D01*
X585655Y582258D01*
X586304Y583103D01*
X586711Y584086D01*
X586850Y585142D01*
X586711Y586197D01*
X586304Y587181D01*
X585655Y588026D01*
X584811Y588674D01*
X583827Y589081D01*
X582772Y589220D01*
D02*
G37*
G36*
X430634Y589350D02*
X429578Y589211D01*
X428595Y588803D01*
X427750Y588155D01*
X427102Y587311D01*
X426695Y586327D01*
X426556Y585272D01*
X426695Y584216D01*
X427102Y583233D01*
X427750Y582388D01*
X428595Y581740D01*
X429578Y581332D01*
X430634Y581193D01*
X431689Y581332D01*
X432673Y581740D01*
X433518Y582388D01*
X434166Y583233D01*
X434573Y584216D01*
X434712Y585272D01*
X434573Y586327D01*
X434166Y587311D01*
X433518Y588155D01*
X432673Y588803D01*
X431689Y589211D01*
X430634Y589350D01*
D02*
G37*
G36*
X365988D02*
X364933Y589211D01*
X363949Y588803D01*
X363105Y588155D01*
X362456Y587311D01*
X362049Y586327D01*
X361910Y585272D01*
X362049Y584216D01*
X362456Y583233D01*
X363105Y582388D01*
X363949Y581740D01*
X364933Y581332D01*
X365988Y581193D01*
X367044Y581332D01*
X368027Y581740D01*
X368872Y582388D01*
X369520Y583233D01*
X369927Y584216D01*
X370066Y585272D01*
X369927Y586327D01*
X369520Y587311D01*
X368872Y588155D01*
X368027Y588803D01*
X367044Y589211D01*
X365988Y589350D01*
D02*
G37*
G36*
X355988D02*
X354933Y589211D01*
X353949Y588803D01*
X353104Y588155D01*
X352456Y587311D01*
X352049Y586327D01*
X351910Y585272D01*
X352049Y584216D01*
X352456Y583233D01*
X353104Y582388D01*
X353949Y581740D01*
X354933Y581332D01*
X355988Y581193D01*
X357044Y581332D01*
X358027Y581740D01*
X358872Y582388D01*
X359520Y583233D01*
X359927Y584216D01*
X360066Y585272D01*
X359927Y586327D01*
X359520Y587311D01*
X358872Y588155D01*
X358027Y588803D01*
X357044Y589211D01*
X355988Y589350D01*
D02*
G37*
G36*
X484189Y589220D02*
X483134Y589081D01*
X482150Y588674D01*
X481305Y588026D01*
X480657Y587181D01*
X480250Y586197D01*
X480111Y585142D01*
X480250Y584086D01*
X480657Y583103D01*
X481305Y582258D01*
X482150Y581610D01*
X483134Y581203D01*
X484189Y581064D01*
X485245Y581203D01*
X486228Y581610D01*
X487073Y582258D01*
X487721Y583103D01*
X488128Y584086D01*
X488267Y585142D01*
X488128Y586197D01*
X487721Y587181D01*
X487073Y588026D01*
X486228Y588674D01*
X485245Y589081D01*
X484189Y589220D01*
D02*
G37*
G36*
X304264Y590632D02*
X302900Y590452D01*
X301629Y589926D01*
X300538Y589088D01*
X299700Y587997D01*
X299174Y586726D01*
X298994Y585362D01*
X299174Y583998D01*
X299700Y582727D01*
X300538Y581636D01*
X301629Y580799D01*
X302900Y580272D01*
X304264Y580093D01*
X305628Y580272D01*
X306898Y580799D01*
X307990Y581636D01*
X308827Y582727D01*
X309354Y583998D01*
X309533Y585362D01*
X309354Y586726D01*
X308827Y587997D01*
X307990Y589088D01*
X306898Y589926D01*
X305628Y590452D01*
X304264Y590632D01*
D02*
G37*
G36*
X246232D02*
X244868Y590452D01*
X243598Y589926D01*
X242506Y589088D01*
X241669Y587997D01*
X241142Y586726D01*
X240963Y585362D01*
X241142Y583998D01*
X241669Y582727D01*
X242506Y581636D01*
X243598Y580799D01*
X244868Y580272D01*
X246232Y580093D01*
X247596Y580272D01*
X248867Y580799D01*
X249958Y581636D01*
X250796Y582727D01*
X251322Y583998D01*
X251502Y585362D01*
X251322Y586726D01*
X250796Y587997D01*
X249958Y589088D01*
X248867Y589926D01*
X247596Y590452D01*
X246232Y590632D01*
D02*
G37*
G36*
X572772Y589220D02*
X571716Y589081D01*
X570733Y588674D01*
X569888Y588026D01*
X569240Y587181D01*
X568832Y586197D01*
X568693Y585142D01*
X568832Y584086D01*
X569240Y583103D01*
X569888Y582258D01*
X570733Y581610D01*
X571716Y581203D01*
X572772Y581064D01*
X573827Y581203D01*
X574811Y581610D01*
X575655Y582258D01*
X576303Y583103D01*
X576711Y584086D01*
X576850Y585142D01*
X576711Y586197D01*
X576303Y587181D01*
X575655Y588026D01*
X574811Y588674D01*
X573827Y589081D01*
X572772Y589220D01*
D02*
G37*
G36*
X504189D02*
X503133Y589081D01*
X502150Y588674D01*
X501305Y588026D01*
X500657Y587181D01*
X500250Y586197D01*
X500111Y585142D01*
X500250Y584086D01*
X500657Y583103D01*
X501305Y582258D01*
X502150Y581610D01*
X503133Y581203D01*
X504189Y581064D01*
X505244Y581203D01*
X506228Y581610D01*
X507073Y582258D01*
X507721Y583103D01*
X508128Y584086D01*
X508267Y585142D01*
X508128Y586197D01*
X507721Y587181D01*
X507073Y588026D01*
X506228Y588674D01*
X505244Y589081D01*
X504189Y589220D01*
D02*
G37*
G36*
X494189D02*
X493133Y589081D01*
X492150Y588674D01*
X491305Y588026D01*
X490657Y587181D01*
X490250Y586197D01*
X490111Y585142D01*
X490250Y584086D01*
X490657Y583103D01*
X491305Y582258D01*
X492150Y581610D01*
X493133Y581203D01*
X494189Y581064D01*
X495245Y581203D01*
X496228Y581610D01*
X497073Y582258D01*
X497721Y583103D01*
X498128Y584086D01*
X498267Y585142D01*
X498128Y586197D01*
X497721Y587181D01*
X497073Y588026D01*
X496228Y588674D01*
X495245Y589081D01*
X494189Y589220D01*
D02*
G37*
G36*
X270248Y598892D02*
X269334Y598772D01*
X268483Y598419D01*
X267752Y597858D01*
X267191Y597127D01*
X266838Y596276D01*
X266718Y595362D01*
X266838Y594449D01*
X267191Y593597D01*
X267752Y592866D01*
X268483Y592305D01*
X269334Y591952D01*
X270248Y591832D01*
X271162Y591952D01*
X272013Y592305D01*
X272744Y592866D01*
X273305Y593597D01*
X273658Y594449D01*
X273778Y595362D01*
X273658Y596276D01*
X273305Y597127D01*
X272744Y597858D01*
X272013Y598419D01*
X271162Y598772D01*
X270248Y598892D01*
D02*
G37*
G36*
X260248D02*
X259334Y598772D01*
X258483Y598419D01*
X257752Y597858D01*
X257191Y597127D01*
X256838Y596276D01*
X256718Y595362D01*
X256838Y594449D01*
X257191Y593597D01*
X257752Y592866D01*
X258483Y592305D01*
X259334Y591952D01*
X260248Y591832D01*
X261162Y591952D01*
X262013Y592305D01*
X262744Y592866D01*
X263305Y593597D01*
X263658Y594449D01*
X263778Y595362D01*
X263658Y596276D01*
X263305Y597127D01*
X262744Y597858D01*
X262013Y598419D01*
X261162Y598772D01*
X260248Y598892D01*
D02*
G37*
G36*
X221000Y593529D02*
X220415Y593413D01*
X219919Y593081D01*
X219587Y592585D01*
X219471Y592000D01*
X219587Y591415D01*
X219919Y590919D01*
X220415Y590587D01*
X221000Y590471D01*
X221585Y590587D01*
X222081Y590919D01*
X222413Y591415D01*
X222529Y592000D01*
X222413Y592585D01*
X222081Y593081D01*
X221585Y593413D01*
X221000Y593529D01*
D02*
G37*
G36*
X535528Y602999D02*
X534472Y602860D01*
X533489Y602453D01*
X532644Y601805D01*
X531996Y600960D01*
X531588Y599977D01*
X531449Y598921D01*
X531588Y597866D01*
X531996Y596882D01*
X532644Y596038D01*
X533489Y595390D01*
X534472Y594982D01*
X535528Y594843D01*
X536583Y594982D01*
X537567Y595390D01*
X538411Y596038D01*
X539059Y596882D01*
X539467Y597866D01*
X539606Y598921D01*
X539467Y599977D01*
X539059Y600960D01*
X538411Y601805D01*
X537567Y602453D01*
X536583Y602860D01*
X535528Y602999D01*
D02*
G37*
G36*
X290248Y598892D02*
X289334Y598772D01*
X288483Y598419D01*
X287752Y597858D01*
X287191Y597127D01*
X286838Y596276D01*
X286718Y595362D01*
X286838Y594449D01*
X287191Y593597D01*
X287752Y592866D01*
X288483Y592305D01*
X289334Y591952D01*
X290248Y591832D01*
X291162Y591952D01*
X292013Y592305D01*
X292744Y592866D01*
X293305Y593597D01*
X293658Y594449D01*
X293778Y595362D01*
X293658Y596276D01*
X293305Y597127D01*
X292744Y597858D01*
X292013Y598419D01*
X291162Y598772D01*
X290248Y598892D01*
D02*
G37*
G36*
X279748D02*
X278834Y598772D01*
X277983Y598419D01*
X277252Y597858D01*
X276691Y597127D01*
X276338Y596276D01*
X276218Y595362D01*
X276338Y594449D01*
X276691Y593597D01*
X277252Y592866D01*
X277983Y592305D01*
X278834Y591952D01*
X279748Y591832D01*
X280662Y591952D01*
X281513Y592305D01*
X282244Y592866D01*
X282805Y593597D01*
X283158Y594449D01*
X283278Y595362D01*
X283158Y596276D01*
X282805Y597127D01*
X282244Y597858D01*
X281513Y598419D01*
X280662Y598772D01*
X279748Y598892D01*
D02*
G37*
G36*
X260248Y588892D02*
X259334Y588772D01*
X258483Y588419D01*
X257752Y587858D01*
X257191Y587127D01*
X256838Y586276D01*
X256718Y585362D01*
X256838Y584448D01*
X257191Y583597D01*
X257752Y582866D01*
X258483Y582305D01*
X259334Y581952D01*
X260248Y581832D01*
X261162Y581952D01*
X262013Y582305D01*
X262744Y582866D01*
X263305Y583597D01*
X263658Y584448D01*
X263778Y585362D01*
X263658Y586276D01*
X263305Y587127D01*
X262744Y587858D01*
X262013Y588419D01*
X261162Y588772D01*
X260248Y588892D01*
D02*
G37*
G36*
X450634Y589350D02*
X449578Y589211D01*
X448595Y588803D01*
X447750Y588155D01*
X447102Y587311D01*
X446695Y586327D01*
X446556Y585272D01*
X446695Y584216D01*
X447102Y583233D01*
X447750Y582388D01*
X448595Y581740D01*
X449578Y581332D01*
X450634Y581193D01*
X451689Y581332D01*
X452673Y581740D01*
X453518Y582388D01*
X454166Y583233D01*
X454573Y584216D01*
X454712Y585272D01*
X454573Y586327D01*
X454166Y587311D01*
X453518Y588155D01*
X452673Y588803D01*
X451689Y589211D01*
X450634Y589350D01*
D02*
G37*
G36*
X440634D02*
X439578Y589211D01*
X438595Y588803D01*
X437750Y588155D01*
X437102Y587311D01*
X436695Y586327D01*
X436556Y585272D01*
X436695Y584216D01*
X437102Y583233D01*
X437750Y582388D01*
X438595Y581740D01*
X439578Y581332D01*
X440634Y581193D01*
X441689Y581332D01*
X442673Y581740D01*
X443518Y582388D01*
X444166Y583233D01*
X444573Y584216D01*
X444712Y585272D01*
X444573Y586327D01*
X444166Y587311D01*
X443518Y588155D01*
X442673Y588803D01*
X441689Y589211D01*
X440634Y589350D01*
D02*
G37*
G36*
X289748Y588892D02*
X288834Y588772D01*
X287983Y588419D01*
X287252Y587858D01*
X286691Y587127D01*
X286338Y586276D01*
X286218Y585362D01*
X286338Y584448D01*
X286691Y583597D01*
X287252Y582866D01*
X287983Y582305D01*
X288834Y581952D01*
X289748Y581832D01*
X290662Y581952D01*
X291513Y582305D01*
X292244Y582866D01*
X292805Y583597D01*
X293158Y584448D01*
X293278Y585362D01*
X293158Y586276D01*
X292805Y587127D01*
X292244Y587858D01*
X291513Y588419D01*
X290662Y588772D01*
X289748Y588892D01*
D02*
G37*
G36*
X279748D02*
X278834Y588772D01*
X277983Y588419D01*
X277252Y587858D01*
X276691Y587127D01*
X276338Y586276D01*
X276218Y585362D01*
X276338Y584448D01*
X276691Y583597D01*
X277252Y582866D01*
X277983Y582305D01*
X278834Y581952D01*
X279748Y581832D01*
X280662Y581952D01*
X281513Y582305D01*
X282244Y582866D01*
X282805Y583597D01*
X283158Y584448D01*
X283278Y585362D01*
X283158Y586276D01*
X282805Y587127D01*
X282244Y587858D01*
X281513Y588419D01*
X280662Y588772D01*
X279748Y588892D01*
D02*
G37*
G36*
X270248D02*
X269334Y588772D01*
X268483Y588419D01*
X267752Y587858D01*
X267191Y587127D01*
X266838Y586276D01*
X266718Y585362D01*
X266838Y584448D01*
X267191Y583597D01*
X267752Y582866D01*
X268483Y582305D01*
X269334Y581952D01*
X270248Y581832D01*
X271162Y581952D01*
X272013Y582305D01*
X272744Y582866D01*
X273305Y583597D01*
X273658Y584448D01*
X273778Y585362D01*
X273658Y586276D01*
X273305Y587127D01*
X272744Y587858D01*
X272013Y588419D01*
X271162Y588772D01*
X270248Y588892D01*
D02*
G37*
G36*
X599228Y701377D02*
X598173Y701238D01*
X597189Y700831D01*
X596345Y700183D01*
X595696Y699338D01*
X595289Y698355D01*
X595150Y697299D01*
X595289Y696244D01*
X595696Y695260D01*
X596345Y694416D01*
X597189Y693767D01*
X598173Y693360D01*
X599228Y693221D01*
X600284Y693360D01*
X601267Y693767D01*
X602112Y694416D01*
X602760Y695260D01*
X603168Y696244D01*
X603306Y697299D01*
X603168Y698355D01*
X602760Y699338D01*
X602112Y700183D01*
X601267Y700831D01*
X600284Y701238D01*
X599228Y701377D01*
D02*
G37*
G36*
X366000Y695029D02*
X365415Y694913D01*
X364919Y694581D01*
X364587Y694085D01*
X364471Y693500D01*
X364587Y692915D01*
X364919Y692419D01*
X365415Y692087D01*
X366000Y691971D01*
X366585Y692087D01*
X367081Y692419D01*
X367413Y692915D01*
X367529Y693500D01*
X367413Y694085D01*
X367081Y694581D01*
X366585Y694913D01*
X366000Y695029D01*
D02*
G37*
G36*
X354500Y698529D02*
X353915Y698413D01*
X353419Y698081D01*
X353087Y697585D01*
X352971Y697000D01*
X353087Y696415D01*
X353419Y695919D01*
X353915Y695587D01*
X354500Y695471D01*
X355085Y695587D01*
X355581Y695919D01*
X355913Y696415D01*
X356029Y697000D01*
X355913Y697585D01*
X355581Y698081D01*
X355085Y698413D01*
X354500Y698529D01*
D02*
G37*
G36*
X375500Y697529D02*
X374915Y697413D01*
X374419Y697081D01*
X374087Y696585D01*
X373971Y696000D01*
X374087Y695415D01*
X374419Y694919D01*
X374915Y694587D01*
X375500Y694471D01*
X376085Y694587D01*
X376581Y694919D01*
X376913Y695415D01*
X377029Y696000D01*
X376913Y696585D01*
X376581Y697081D01*
X376085Y697413D01*
X375500Y697529D01*
D02*
G37*
G36*
X357500Y689029D02*
X356915Y688913D01*
X356419Y688581D01*
X356087Y688085D01*
X355971Y687500D01*
X356087Y686915D01*
X356419Y686419D01*
X356915Y686087D01*
X357500Y685971D01*
X358085Y686087D01*
X358581Y686419D01*
X358913Y686915D01*
X359029Y687500D01*
X358913Y688085D01*
X358581Y688581D01*
X358085Y688913D01*
X357500Y689029D01*
D02*
G37*
G36*
X373500Y686529D02*
X372915Y686413D01*
X372419Y686081D01*
X372087Y685585D01*
X371971Y685000D01*
X372087Y684415D01*
X372419Y683919D01*
X372915Y683587D01*
X373500Y683471D01*
X374085Y683587D01*
X374581Y683919D01*
X374913Y684415D01*
X375029Y685000D01*
X374913Y685585D01*
X374581Y686081D01*
X374085Y686413D01*
X373500Y686529D01*
D02*
G37*
G36*
X599228Y711377D02*
X598173Y711238D01*
X597189Y710831D01*
X596345Y710183D01*
X595696Y709338D01*
X595289Y708355D01*
X595150Y707299D01*
X595289Y706244D01*
X595696Y705260D01*
X596345Y704416D01*
X597189Y703767D01*
X598173Y703360D01*
X599228Y703221D01*
X600284Y703360D01*
X601267Y703767D01*
X602112Y704416D01*
X602760Y705260D01*
X603168Y706244D01*
X603306Y707299D01*
X603168Y708355D01*
X602760Y709338D01*
X602112Y710183D01*
X601267Y710831D01*
X600284Y711238D01*
X599228Y711377D01*
D02*
G37*
G36*
X377000Y714529D02*
X376415Y714413D01*
X375919Y714081D01*
X375587Y713585D01*
X375471Y713000D01*
X375587Y712415D01*
X375919Y711919D01*
X376415Y711587D01*
X377000Y711471D01*
X377585Y711587D01*
X378081Y711919D01*
X378413Y712415D01*
X378529Y713000D01*
X378413Y713585D01*
X378081Y714081D01*
X377585Y714413D01*
X377000Y714529D01*
D02*
G37*
G36*
X365500Y704029D02*
X364915Y703913D01*
X364419Y703581D01*
X364087Y703085D01*
X363971Y702500D01*
X364087Y701915D01*
X364419Y701419D01*
X364915Y701087D01*
X365500Y700971D01*
X366085Y701087D01*
X366581Y701419D01*
X366913Y701915D01*
X367029Y702500D01*
X366913Y703085D01*
X366581Y703581D01*
X366085Y703913D01*
X365500Y704029D01*
D02*
G37*
G36*
X382000Y658529D02*
X381415Y658413D01*
X380919Y658081D01*
X380587Y657585D01*
X380471Y657000D01*
X380587Y656415D01*
X380919Y655919D01*
X381415Y655587D01*
X382000Y655471D01*
X382585Y655587D01*
X383081Y655919D01*
X383413Y656415D01*
X383529Y657000D01*
X383413Y657585D01*
X383081Y658081D01*
X382585Y658413D01*
X382000Y658529D01*
D02*
G37*
G36*
X353500Y663029D02*
X352915Y662913D01*
X352419Y662581D01*
X352087Y662085D01*
X351971Y661500D01*
X352087Y660915D01*
X352419Y660419D01*
X352915Y660087D01*
X353500Y659971D01*
X354085Y660087D01*
X354581Y660419D01*
X354913Y660915D01*
X355029Y661500D01*
X354913Y662085D01*
X354581Y662581D01*
X354085Y662913D01*
X353500Y663029D01*
D02*
G37*
G36*
Y653905D02*
X352445Y653766D01*
X351461Y653359D01*
X350616Y652710D01*
X349968Y651866D01*
X349561Y650882D01*
X349422Y649827D01*
X349561Y648771D01*
X349968Y647788D01*
X350616Y646943D01*
X351461Y646295D01*
X352445Y645888D01*
X353500Y645749D01*
X354556Y645888D01*
X355539Y646295D01*
X356384Y646943D01*
X357032Y647788D01*
X357439Y648771D01*
X357578Y649827D01*
X357439Y650882D01*
X357032Y651866D01*
X356384Y652710D01*
X355539Y653359D01*
X354556Y653766D01*
X353500Y653905D01*
D02*
G37*
G36*
X223031Y649696D02*
X220276D01*
X219580Y649605D01*
X218931Y649336D01*
X218375Y648909D01*
X217947Y648352D01*
X217679Y647704D01*
X217587Y647008D01*
X217679Y646312D01*
X217947Y645664D01*
X218375Y645107D01*
X218931Y644680D01*
X219580Y644411D01*
X220276Y644319D01*
X223031D01*
X223727Y644411D01*
X224376Y644680D01*
X224932Y645107D01*
X225360Y645664D01*
X225628Y646312D01*
X225720Y647008D01*
X225628Y647704D01*
X225360Y648352D01*
X224932Y648909D01*
X224376Y649336D01*
X223727Y649605D01*
X223031Y649696D01*
D02*
G37*
G36*
X249000Y645029D02*
X248415Y644913D01*
X247919Y644581D01*
X247587Y644085D01*
X247471Y643500D01*
X247587Y642915D01*
X247919Y642419D01*
X248415Y642087D01*
X249000Y641971D01*
X249585Y642087D01*
X250081Y642419D01*
X250413Y642915D01*
X250529Y643500D01*
X250413Y644085D01*
X250081Y644581D01*
X249585Y644913D01*
X249000Y645029D01*
D02*
G37*
G36*
X599228Y662007D02*
X598173Y661868D01*
X597189Y661461D01*
X596345Y660813D01*
X595696Y659968D01*
X595289Y658985D01*
X595150Y657929D01*
X595289Y656874D01*
X595696Y655890D01*
X596345Y655045D01*
X597189Y654397D01*
X598173Y653990D01*
X599228Y653851D01*
X600284Y653990D01*
X601267Y654397D01*
X602112Y655045D01*
X602760Y655890D01*
X603168Y656874D01*
X603306Y657929D01*
X603168Y658985D01*
X602760Y659968D01*
X602112Y660813D01*
X601267Y661461D01*
X600284Y661868D01*
X599228Y662007D01*
D02*
G37*
G36*
X232000Y656029D02*
X231415Y655913D01*
X230919Y655581D01*
X230587Y655085D01*
X230471Y654500D01*
X230587Y653915D01*
X230919Y653419D01*
X231415Y653087D01*
X232000Y652971D01*
X232585Y653087D01*
X233081Y653419D01*
X233413Y653915D01*
X233529Y654500D01*
X233413Y655085D01*
X233081Y655581D01*
X232585Y655913D01*
X232000Y656029D01*
D02*
G37*
G36*
X343783Y651356D02*
X343198Y651240D01*
X342702Y650908D01*
X342371Y650412D01*
X342254Y649827D01*
X342371Y649241D01*
X342702Y648745D01*
X343198Y648414D01*
X343783Y648297D01*
X344369Y648414D01*
X344865Y648745D01*
X345196Y649241D01*
X345313Y649827D01*
X345196Y650412D01*
X344865Y650908D01*
X344369Y651240D01*
X343783Y651356D01*
D02*
G37*
G36*
X584000Y680029D02*
X583415Y679913D01*
X582919Y679581D01*
X582587Y679085D01*
X582471Y678500D01*
X582587Y677915D01*
X582919Y677419D01*
X583415Y677087D01*
X584000Y676971D01*
X584585Y677087D01*
X585081Y677419D01*
X585413Y677915D01*
X585529Y678500D01*
X585413Y679085D01*
X585081Y679581D01*
X584585Y679913D01*
X584000Y680029D01*
D02*
G37*
G36*
X355000Y678529D02*
X354415Y678413D01*
X353919Y678081D01*
X353587Y677585D01*
X353471Y677000D01*
X353587Y676415D01*
X353919Y675919D01*
X354415Y675587D01*
X355000Y675471D01*
X355585Y675587D01*
X356081Y675919D01*
X356413Y676415D01*
X356529Y677000D01*
X356413Y677585D01*
X356081Y678081D01*
X355585Y678413D01*
X355000Y678529D01*
D02*
G37*
G36*
X374500Y674529D02*
X373915Y674413D01*
X373419Y674081D01*
X373087Y673585D01*
X372971Y673000D01*
X373087Y672415D01*
X373419Y671919D01*
X373915Y671587D01*
X374500Y671471D01*
X375085Y671587D01*
X375581Y671919D01*
X375913Y672415D01*
X376029Y673000D01*
X375913Y673585D01*
X375581Y674081D01*
X375085Y674413D01*
X374500Y674529D01*
D02*
G37*
G36*
X313028Y681092D02*
X312442Y680976D01*
X311946Y680644D01*
X311615Y680148D01*
X311498Y679563D01*
X311615Y678978D01*
X311946Y678482D01*
X312442Y678150D01*
X313028Y678034D01*
X313613Y678150D01*
X314109Y678482D01*
X314440Y678978D01*
X314557Y679563D01*
X314440Y680148D01*
X314109Y680644D01*
X313613Y680976D01*
X313028Y681092D01*
D02*
G37*
G36*
X233500Y664529D02*
X232915Y664413D01*
X232419Y664081D01*
X232087Y663585D01*
X231971Y663000D01*
X232087Y662415D01*
X232419Y661919D01*
X232915Y661587D01*
X233500Y661471D01*
X234085Y661587D01*
X234581Y661919D01*
X234913Y662415D01*
X235029Y663000D01*
X234913Y663585D01*
X234581Y664081D01*
X234085Y664413D01*
X233500Y664529D01*
D02*
G37*
G36*
X363776Y663344D02*
X363190Y663228D01*
X362694Y662896D01*
X362363Y662400D01*
X362246Y661815D01*
X362363Y661230D01*
X362694Y660734D01*
X363190Y660402D01*
X363776Y660286D01*
X364361Y660402D01*
X364857Y660734D01*
X365189Y661230D01*
X365305Y661815D01*
X365189Y662400D01*
X364857Y662896D01*
X364361Y663228D01*
X363776Y663344D01*
D02*
G37*
G36*
X313122Y667687D02*
X312537Y667570D01*
X312041Y667239D01*
X311709Y666743D01*
X311593Y666157D01*
X311709Y665572D01*
X312041Y665076D01*
X312537Y664745D01*
X313122Y664628D01*
X313707Y664745D01*
X314204Y665076D01*
X314535Y665572D01*
X314651Y666157D01*
X314535Y666743D01*
X314204Y667239D01*
X313707Y667570D01*
X313122Y667687D01*
D02*
G37*
G36*
X599228Y672007D02*
X598173Y671868D01*
X597189Y671461D01*
X596345Y670813D01*
X595696Y669968D01*
X595289Y668985D01*
X595150Y667929D01*
X595289Y666874D01*
X595696Y665890D01*
X596345Y665045D01*
X597189Y664397D01*
X598173Y663990D01*
X599228Y663851D01*
X600284Y663990D01*
X601267Y664397D01*
X602112Y665045D01*
X602760Y665890D01*
X603168Y666874D01*
X603306Y667929D01*
X603168Y668985D01*
X602760Y669968D01*
X602112Y670813D01*
X601267Y671461D01*
X600284Y671868D01*
X599228Y672007D01*
D02*
G37*
G36*
X357614Y789503D02*
X356559Y789364D01*
X355575Y788957D01*
X354730Y788309D01*
X354082Y787464D01*
X353675Y786481D01*
X353536Y785425D01*
X353675Y784370D01*
X354082Y783386D01*
X354730Y782542D01*
X355575Y781893D01*
X356559Y781486D01*
X357614Y781347D01*
X358670Y781486D01*
X359653Y781893D01*
X360498Y782542D01*
X361146Y783386D01*
X361553Y784370D01*
X361692Y785425D01*
X361553Y786481D01*
X361146Y787464D01*
X360498Y788309D01*
X359653Y788957D01*
X358670Y789364D01*
X357614Y789503D01*
D02*
G37*
G36*
X298500Y788078D02*
X297445Y787939D01*
X296461Y787532D01*
X295616Y786884D01*
X294968Y786039D01*
X294561Y785055D01*
X294422Y784000D01*
X294561Y782944D01*
X294968Y781961D01*
X295616Y781116D01*
X296461Y780468D01*
X297445Y780061D01*
X298500Y779922D01*
X299555Y780061D01*
X300539Y780468D01*
X301384Y781116D01*
X302032Y781961D01*
X302439Y782944D01*
X302578Y784000D01*
X302439Y785055D01*
X302032Y786039D01*
X301384Y786884D01*
X300539Y787532D01*
X299555Y787939D01*
X298500Y788078D01*
D02*
G37*
G36*
X348000Y819529D02*
X347415Y819413D01*
X346919Y819081D01*
X346587Y818585D01*
X346471Y818000D01*
X346587Y817415D01*
X346919Y816919D01*
X347415Y816587D01*
X348000Y816471D01*
X348585Y816587D01*
X349081Y816919D01*
X349413Y817415D01*
X349529Y818000D01*
X349413Y818585D01*
X349081Y819081D01*
X348585Y819413D01*
X348000Y819529D01*
D02*
G37*
G36*
X344342Y825931D02*
X343757Y825815D01*
X343261Y825483D01*
X342930Y824987D01*
X342813Y824402D01*
X342930Y823816D01*
X343261Y823320D01*
X343757Y822989D01*
X344342Y822872D01*
X344928Y822989D01*
X345424Y823320D01*
X345756Y823816D01*
X345872Y824402D01*
X345756Y824987D01*
X345424Y825483D01*
X344928Y825815D01*
X344342Y825931D01*
D02*
G37*
G36*
X386500Y855529D02*
X385915Y855413D01*
X385419Y855081D01*
X385087Y854585D01*
X384971Y854000D01*
X385087Y853415D01*
X385419Y852919D01*
X385915Y852587D01*
X386500Y852471D01*
X387085Y852587D01*
X387581Y852919D01*
X387913Y853415D01*
X388029Y854000D01*
X387913Y854585D01*
X387581Y855081D01*
X387085Y855413D01*
X386500Y855529D01*
D02*
G37*
G36*
X395000Y863529D02*
X394415Y863413D01*
X393919Y863081D01*
X393587Y862585D01*
X393471Y862000D01*
X393587Y861415D01*
X393919Y860919D01*
X394415Y860587D01*
X395000Y860471D01*
X395585Y860587D01*
X396081Y860919D01*
X396413Y861415D01*
X396529Y862000D01*
X396413Y862585D01*
X396081Y863081D01*
X395585Y863413D01*
X395000Y863529D01*
D02*
G37*
G36*
X397000Y847029D02*
X396415Y846913D01*
X395919Y846581D01*
X395587Y846085D01*
X395471Y845500D01*
X395587Y844915D01*
X395919Y844419D01*
X396415Y844087D01*
X397000Y843971D01*
X397585Y844087D01*
X398081Y844419D01*
X398413Y844915D01*
X398529Y845500D01*
X398413Y846085D01*
X398081Y846581D01*
X397585Y846913D01*
X397000Y847029D01*
D02*
G37*
G36*
X361658Y809468D02*
X353571D01*
Y801382D01*
X361658D01*
Y809468D01*
D02*
G37*
G36*
X357614Y799503D02*
X356559Y799365D01*
X355575Y798957D01*
X354730Y798309D01*
X354082Y797464D01*
X353675Y796481D01*
X353536Y795425D01*
X353675Y794370D01*
X354082Y793386D01*
X354730Y792542D01*
X355575Y791893D01*
X356559Y791486D01*
X357614Y791347D01*
X358670Y791486D01*
X359653Y791893D01*
X360498Y792542D01*
X361146Y793386D01*
X361553Y794370D01*
X361692Y795425D01*
X361553Y796481D01*
X361146Y797464D01*
X360498Y798309D01*
X359653Y798957D01*
X358670Y799365D01*
X357614Y799503D01*
D02*
G37*
G36*
X392500Y814029D02*
X391915Y813913D01*
X391419Y813581D01*
X391087Y813085D01*
X390971Y812500D01*
X391087Y811915D01*
X391419Y811419D01*
X391915Y811087D01*
X392500Y810971D01*
X393085Y811087D01*
X393581Y811419D01*
X393913Y811915D01*
X394029Y812500D01*
X393913Y813085D01*
X393581Y813581D01*
X393085Y813913D01*
X392500Y814029D01*
D02*
G37*
G36*
X343342Y816431D02*
X342757Y816315D01*
X342261Y815983D01*
X341930Y815487D01*
X341813Y814902D01*
X341930Y814316D01*
X342261Y813820D01*
X342757Y813489D01*
X343342Y813372D01*
X343928Y813489D01*
X344424Y813820D01*
X344756Y814316D01*
X344872Y814902D01*
X344756Y815487D01*
X344424Y815983D01*
X343928Y816315D01*
X343342Y816431D01*
D02*
G37*
G36*
X354740Y815392D02*
X354155Y815275D01*
X353659Y814944D01*
X353327Y814447D01*
X353211Y813862D01*
X353327Y813277D01*
X353659Y812781D01*
X354155Y812449D01*
X354740Y812333D01*
X355325Y812449D01*
X355822Y812781D01*
X356153Y813277D01*
X356270Y813862D01*
X356153Y814447D01*
X355822Y814944D01*
X355325Y815275D01*
X354740Y815392D01*
D02*
G37*
G36*
X346646Y810734D02*
X346060Y810618D01*
X345564Y810286D01*
X345233Y809790D01*
X345116Y809205D01*
X345233Y808619D01*
X345564Y808123D01*
X346060Y807792D01*
X346646Y807675D01*
X347231Y807792D01*
X347727Y808123D01*
X348059Y808619D01*
X348175Y809205D01*
X348059Y809790D01*
X347727Y810286D01*
X347231Y810618D01*
X346646Y810734D01*
D02*
G37*
G36*
X459000Y1059029D02*
X458415Y1058913D01*
X457919Y1058581D01*
X457587Y1058085D01*
X457471Y1057500D01*
X457587Y1056915D01*
X457919Y1056419D01*
X458415Y1056087D01*
X459000Y1055971D01*
X459585Y1056087D01*
X460081Y1056419D01*
X460413Y1056915D01*
X460529Y1057500D01*
X460413Y1058085D01*
X460081Y1058581D01*
X459585Y1058913D01*
X459000Y1059029D01*
D02*
G37*
G36*
X481500Y1060029D02*
X480915Y1059913D01*
X480419Y1059581D01*
X480087Y1059085D01*
X479971Y1058500D01*
X480087Y1057915D01*
X480419Y1057419D01*
X480915Y1057087D01*
X481500Y1056971D01*
X482085Y1057087D01*
X482581Y1057419D01*
X482913Y1057915D01*
X483029Y1058500D01*
X482913Y1059085D01*
X482581Y1059581D01*
X482085Y1059913D01*
X481500Y1060029D01*
D02*
G37*
G36*
X475500D02*
X474915Y1059913D01*
X474419Y1059581D01*
X474087Y1059085D01*
X473971Y1058500D01*
X474087Y1057915D01*
X474419Y1057419D01*
X474915Y1057087D01*
X475500Y1056971D01*
X476085Y1057087D01*
X476581Y1057419D01*
X476913Y1057915D01*
X477029Y1058500D01*
X476913Y1059085D01*
X476581Y1059581D01*
X476085Y1059913D01*
X475500Y1060029D01*
D02*
G37*
G36*
X398000Y1015029D02*
X397415Y1014913D01*
X396919Y1014581D01*
X396587Y1014085D01*
X396471Y1013500D01*
X396587Y1012915D01*
X396919Y1012419D01*
X397415Y1012087D01*
X398000Y1011971D01*
X398585Y1012087D01*
X399081Y1012419D01*
X399413Y1012915D01*
X399529Y1013500D01*
X399413Y1014085D01*
X399081Y1014581D01*
X398585Y1014913D01*
X398000Y1015029D01*
D02*
G37*
G36*
Y1010029D02*
X397415Y1009913D01*
X396919Y1009581D01*
X396587Y1009085D01*
X396471Y1008500D01*
X396587Y1007915D01*
X396919Y1007419D01*
X397415Y1007087D01*
X398000Y1006971D01*
X398585Y1007087D01*
X399081Y1007419D01*
X399413Y1007915D01*
X399529Y1008500D01*
X399413Y1009085D01*
X399081Y1009581D01*
X398585Y1009913D01*
X398000Y1010029D01*
D02*
G37*
G36*
Y1023029D02*
X397415Y1022913D01*
X396919Y1022581D01*
X396587Y1022085D01*
X396471Y1021500D01*
X396587Y1020915D01*
X396919Y1020419D01*
X397415Y1020087D01*
X398000Y1019971D01*
X398585Y1020087D01*
X399081Y1020419D01*
X399413Y1020915D01*
X399529Y1021500D01*
X399413Y1022085D01*
X399081Y1022581D01*
X398585Y1022913D01*
X398000Y1023029D01*
D02*
G37*
G36*
X463594Y1136530D02*
X462681Y1136410D01*
X461829Y1136057D01*
X461098Y1135496D01*
X460537Y1134765D01*
X460185Y1133914D01*
X460064Y1133000D01*
X460185Y1132086D01*
X460537Y1131235D01*
X461098Y1130504D01*
X461829Y1129943D01*
X462681Y1129590D01*
X463594Y1129470D01*
X464508Y1129590D01*
X465360Y1129943D01*
X466091Y1130504D01*
X466652Y1131235D01*
X467004Y1132086D01*
X467125Y1133000D01*
X467004Y1133914D01*
X466652Y1134765D01*
X466091Y1135496D01*
X465360Y1136057D01*
X464508Y1136410D01*
X463594Y1136530D01*
D02*
G37*
G36*
X479106Y1123706D02*
X478143Y1123514D01*
X477327Y1122969D01*
X476781Y1122152D01*
X476589Y1121189D01*
X476781Y1120226D01*
X477327Y1119409D01*
X478143Y1118864D01*
X479106Y1118672D01*
X480069Y1118864D01*
X480886Y1119409D01*
X481432Y1120226D01*
X481623Y1121189D01*
X481432Y1122152D01*
X480886Y1122969D01*
X480069Y1123514D01*
X479106Y1123706D01*
D02*
G37*
G36*
X468500Y1127029D02*
X467915Y1126913D01*
X467419Y1126581D01*
X467087Y1126085D01*
X466971Y1125500D01*
X467087Y1124915D01*
X467419Y1124419D01*
X467915Y1124087D01*
X468500Y1123971D01*
X469085Y1124087D01*
X469581Y1124419D01*
X469913Y1124915D01*
X470029Y1125500D01*
X469913Y1126085D01*
X469581Y1126581D01*
X469085Y1126913D01*
X468500Y1127029D01*
D02*
G37*
G36*
X472000Y1103578D02*
X470944Y1103439D01*
X469961Y1103032D01*
X469116Y1102384D01*
X468468Y1101539D01*
X468061Y1100556D01*
X467922Y1099500D01*
X468061Y1098444D01*
X468468Y1097461D01*
X469116Y1096616D01*
X469961Y1095968D01*
X470944Y1095561D01*
X472000Y1095422D01*
X473056Y1095561D01*
X474039Y1095968D01*
X474884Y1096616D01*
X475532Y1097461D01*
X475939Y1098444D01*
X476078Y1099500D01*
X475939Y1100556D01*
X475532Y1101539D01*
X474884Y1102384D01*
X474039Y1103032D01*
X473056Y1103439D01*
X472000Y1103578D01*
D02*
G37*
G36*
X397000Y883529D02*
X396415Y883413D01*
X395919Y883081D01*
X395587Y882585D01*
X395471Y882000D01*
X395587Y881415D01*
X395919Y880919D01*
X396415Y880587D01*
X397000Y880471D01*
X397585Y880587D01*
X398081Y880919D01*
X398413Y881415D01*
X398529Y882000D01*
X398413Y882585D01*
X398081Y883081D01*
X397585Y883413D01*
X397000Y883529D01*
D02*
G37*
G36*
X387500Y879029D02*
X386915Y878913D01*
X386419Y878581D01*
X386087Y878085D01*
X385971Y877500D01*
X386087Y876915D01*
X386419Y876419D01*
X386915Y876087D01*
X387500Y875971D01*
X388085Y876087D01*
X388581Y876419D01*
X388913Y876915D01*
X389029Y877500D01*
X388913Y878085D01*
X388581Y878581D01*
X388085Y878913D01*
X387500Y879029D01*
D02*
G37*
G36*
X374500Y886529D02*
X373915Y886413D01*
X373419Y886081D01*
X373087Y885585D01*
X372971Y885000D01*
X373087Y884415D01*
X373419Y883919D01*
X373915Y883587D01*
X374500Y883471D01*
X375085Y883587D01*
X375581Y883919D01*
X375913Y884415D01*
X376029Y885000D01*
X375913Y885585D01*
X375581Y886081D01*
X375085Y886413D01*
X374500Y886529D01*
D02*
G37*
G36*
X398000Y983529D02*
X397415Y983413D01*
X396919Y983081D01*
X396587Y982585D01*
X396471Y982000D01*
X396587Y981415D01*
X396919Y980919D01*
X397415Y980587D01*
X398000Y980471D01*
X398585Y980587D01*
X399081Y980919D01*
X399413Y981415D01*
X399529Y982000D01*
X399413Y982585D01*
X399081Y983081D01*
X398585Y983413D01*
X398000Y983529D01*
D02*
G37*
G36*
Y970529D02*
X397415Y970413D01*
X396919Y970081D01*
X396587Y969585D01*
X396471Y969000D01*
X396587Y968415D01*
X396919Y967919D01*
X397415Y967587D01*
X398000Y967471D01*
X398585Y967587D01*
X399081Y967919D01*
X399413Y968415D01*
X399529Y969000D01*
X399413Y969585D01*
X399081Y970081D01*
X398585Y970413D01*
X398000Y970529D01*
D02*
G37*
G36*
Y977029D02*
X397415Y976913D01*
X396919Y976581D01*
X396587Y976085D01*
X396471Y975500D01*
X396587Y974915D01*
X396919Y974419D01*
X397415Y974087D01*
X398000Y973971D01*
X398585Y974087D01*
X399081Y974419D01*
X399413Y974915D01*
X399529Y975500D01*
X399413Y976085D01*
X399081Y976581D01*
X398585Y976913D01*
X398000Y977029D01*
D02*
G37*
G36*
Y992529D02*
X397415Y992413D01*
X396919Y992081D01*
X396587Y991585D01*
X396471Y991000D01*
X396587Y990415D01*
X396919Y989919D01*
X397415Y989587D01*
X398000Y989471D01*
X398585Y989587D01*
X399081Y989919D01*
X399413Y990415D01*
X399529Y991000D01*
X399413Y991585D01*
X399081Y992081D01*
X398585Y992413D01*
X398000Y992529D01*
D02*
G37*
G36*
Y999029D02*
X397415Y998913D01*
X396919Y998581D01*
X396587Y998085D01*
X396471Y997500D01*
X396587Y996915D01*
X396919Y996419D01*
X397415Y996087D01*
X398000Y995971D01*
X398585Y996087D01*
X399081Y996419D01*
X399413Y996915D01*
X399529Y997500D01*
X399413Y998085D01*
X399081Y998581D01*
X398585Y998913D01*
X398000Y999029D01*
D02*
G37*
G36*
X382000Y1067029D02*
X381415Y1066913D01*
X380919Y1066581D01*
X380587Y1066085D01*
X380471Y1065500D01*
X380587Y1064915D01*
X380919Y1064419D01*
X381415Y1064087D01*
X382000Y1063971D01*
X382585Y1064087D01*
X383081Y1064419D01*
X383413Y1064915D01*
X383529Y1065500D01*
X383413Y1066085D01*
X383081Y1066581D01*
X382585Y1066913D01*
X382000Y1067029D01*
D02*
G37*
G36*
X438000Y1073529D02*
X437415Y1073413D01*
X436919Y1073081D01*
X436587Y1072585D01*
X436471Y1072000D01*
X436587Y1071415D01*
X436919Y1070919D01*
X437415Y1070587D01*
X438000Y1070471D01*
X438585Y1070587D01*
X439081Y1070919D01*
X439413Y1071415D01*
X439529Y1072000D01*
X439413Y1072585D01*
X439081Y1073081D01*
X438585Y1073413D01*
X438000Y1073529D01*
D02*
G37*
G36*
X405000Y1071529D02*
X404415Y1071413D01*
X403919Y1071081D01*
X403587Y1070585D01*
X403471Y1070000D01*
X403587Y1069415D01*
X403919Y1068919D01*
X404415Y1068587D01*
X405000Y1068471D01*
X405585Y1068587D01*
X406081Y1068919D01*
X406413Y1069415D01*
X406529Y1070000D01*
X406413Y1070585D01*
X406081Y1071081D01*
X405585Y1071413D01*
X405000Y1071529D01*
D02*
G37*
G36*
X372000Y1008529D02*
X371415Y1008413D01*
X370919Y1008081D01*
X370587Y1007585D01*
X370471Y1007000D01*
X370587Y1006415D01*
X370919Y1005919D01*
X371415Y1005587D01*
X372000Y1005471D01*
X372585Y1005587D01*
X373081Y1005919D01*
X373413Y1006415D01*
X373529Y1007000D01*
X373413Y1007585D01*
X373081Y1008081D01*
X372585Y1008413D01*
X372000Y1008529D01*
D02*
G37*
G36*
X316000D02*
X315415Y1008413D01*
X314919Y1008081D01*
X314587Y1007585D01*
X314471Y1007000D01*
X314587Y1006415D01*
X314919Y1005919D01*
X315415Y1005587D01*
X316000Y1005471D01*
X316585Y1005587D01*
X317081Y1005919D01*
X317413Y1006415D01*
X317529Y1007000D01*
X317413Y1007585D01*
X317081Y1008081D01*
X316585Y1008413D01*
X316000Y1008529D01*
D02*
G37*
G36*
X443543Y1094043D02*
X435457D01*
Y1085957D01*
X443543D01*
Y1094043D01*
D02*
G37*
G36*
X437106Y1123706D02*
X436143Y1123514D01*
X435327Y1122969D01*
X434781Y1122152D01*
X434589Y1121189D01*
X434781Y1120226D01*
X435327Y1119409D01*
X436143Y1118864D01*
X437106Y1118672D01*
X438069Y1118864D01*
X438886Y1119409D01*
X439432Y1120226D01*
X439623Y1121189D01*
X439432Y1122152D01*
X438886Y1122969D01*
X438069Y1123514D01*
X437106Y1123706D01*
D02*
G37*
G36*
X297500Y1007529D02*
X296915Y1007413D01*
X296419Y1007081D01*
X296087Y1006585D01*
X295971Y1006000D01*
X296087Y1005415D01*
X296419Y1004919D01*
X296915Y1004587D01*
X297500Y1004471D01*
X298085Y1004587D01*
X298581Y1004919D01*
X298913Y1005415D01*
X299029Y1006000D01*
X298913Y1006585D01*
X298581Y1007081D01*
X298085Y1007413D01*
X297500Y1007529D01*
D02*
G37*
G36*
X363811Y931087D02*
X355724D01*
Y923000D01*
X363811D01*
Y931087D01*
D02*
G37*
G36*
X359768Y911121D02*
X358712Y910983D01*
X357729Y910575D01*
X356884Y909927D01*
X356236Y909082D01*
X355828Y908099D01*
X355690Y907043D01*
X355828Y905988D01*
X356236Y905004D01*
X356884Y904160D01*
X357729Y903512D01*
X358712Y903104D01*
X359768Y902965D01*
X360823Y903104D01*
X361807Y903512D01*
X362651Y904160D01*
X363299Y905004D01*
X363707Y905988D01*
X363846Y907043D01*
X363707Y908099D01*
X363299Y909082D01*
X362651Y909927D01*
X361807Y910575D01*
X360823Y910983D01*
X359768Y911121D01*
D02*
G37*
G36*
Y921122D02*
X358712Y920983D01*
X357729Y920575D01*
X356884Y919927D01*
X356236Y919082D01*
X355828Y918099D01*
X355690Y917043D01*
X355828Y915988D01*
X356236Y915004D01*
X356884Y914160D01*
X357729Y913511D01*
X358712Y913104D01*
X359768Y912965D01*
X360823Y913104D01*
X361807Y913511D01*
X362651Y914160D01*
X363299Y915004D01*
X363707Y915988D01*
X363846Y917043D01*
X363707Y918099D01*
X363299Y919082D01*
X362651Y919927D01*
X361807Y920575D01*
X360823Y920983D01*
X359768Y921122D01*
D02*
G37*
G36*
X346492Y932514D02*
X345907Y932397D01*
X345411Y932066D01*
X345079Y931569D01*
X344963Y930984D01*
X345079Y930399D01*
X345411Y929903D01*
X345907Y929571D01*
X346492Y929455D01*
X347077Y929571D01*
X347574Y929903D01*
X347905Y930399D01*
X348022Y930984D01*
X347905Y931569D01*
X347574Y932066D01*
X347077Y932397D01*
X346492Y932514D01*
D02*
G37*
G36*
X299492Y903063D02*
X298437Y902923D01*
X297453Y902516D01*
X296608Y901868D01*
X295960Y901023D01*
X295553Y900040D01*
X295414Y898984D01*
X295553Y897929D01*
X295960Y896945D01*
X296608Y896101D01*
X297453Y895452D01*
X298437Y895045D01*
X299492Y894906D01*
X300548Y895045D01*
X301531Y895452D01*
X302376Y896101D01*
X303024Y896945D01*
X303431Y897929D01*
X303570Y898984D01*
X303431Y900040D01*
X303024Y901023D01*
X302376Y901868D01*
X301531Y902516D01*
X300548Y902923D01*
X299492Y903063D01*
D02*
G37*
G36*
X346374Y945931D02*
X345789Y945815D01*
X345293Y945483D01*
X344961Y944987D01*
X344845Y944402D01*
X344961Y943816D01*
X345293Y943320D01*
X345789Y942989D01*
X346374Y942872D01*
X346959Y942989D01*
X347456Y943320D01*
X347787Y943816D01*
X347903Y944402D01*
X347787Y944987D01*
X347456Y945483D01*
X346959Y945815D01*
X346374Y945931D01*
D02*
G37*
G36*
X296500Y945529D02*
X295915Y945413D01*
X295419Y945081D01*
X295087Y944585D01*
X294971Y944000D01*
X295087Y943415D01*
X295419Y942919D01*
X295915Y942587D01*
X296500Y942471D01*
X297085Y942587D01*
X297581Y942919D01*
X297913Y943415D01*
X298029Y944000D01*
X297913Y944585D01*
X297581Y945081D01*
X297085Y945413D01*
X296500Y945529D01*
D02*
G37*
G36*
X354992Y937014D02*
X354407Y936897D01*
X353911Y936566D01*
X353579Y936069D01*
X353463Y935484D01*
X353579Y934899D01*
X353911Y934403D01*
X354407Y934071D01*
X354992Y933955D01*
X355577Y934071D01*
X356074Y934403D01*
X356405Y934899D01*
X356522Y935484D01*
X356405Y936069D01*
X356074Y936566D01*
X355577Y936897D01*
X354992Y937014D01*
D02*
G37*
G36*
X350374Y939931D02*
X349789Y939814D01*
X349293Y939483D01*
X348961Y938987D01*
X348845Y938402D01*
X348961Y937816D01*
X349293Y937320D01*
X349789Y936989D01*
X350374Y936872D01*
X350959Y936989D01*
X351455Y937320D01*
X351787Y937816D01*
X351903Y938402D01*
X351787Y938987D01*
X351455Y939483D01*
X350959Y939814D01*
X350374Y939931D01*
D02*
G37*
G36*
X345874Y938431D02*
X345289Y938315D01*
X344793Y937983D01*
X344461Y937487D01*
X344345Y936902D01*
X344461Y936316D01*
X344793Y935820D01*
X345289Y935489D01*
X345874Y935372D01*
X346459Y935489D01*
X346955Y935820D01*
X347287Y936316D01*
X347403Y936902D01*
X347287Y937487D01*
X346955Y937983D01*
X346459Y938315D01*
X345874Y938431D01*
D02*
G37*
G36*
X472500Y832529D02*
X471915Y832413D01*
X471419Y832081D01*
X471087Y831585D01*
X470971Y831000D01*
X471087Y830415D01*
X471419Y829919D01*
X471915Y829587D01*
X472500Y829471D01*
X473085Y829587D01*
X473581Y829919D01*
X473913Y830415D01*
X474029Y831000D01*
X473913Y831585D01*
X473581Y832081D01*
X473085Y832413D01*
X472500Y832529D01*
D02*
G37*
G36*
X612311Y838879D02*
X611348Y838688D01*
X610531Y838142D01*
X609986Y837325D01*
X609794Y836362D01*
X609986Y835399D01*
X610531Y834583D01*
X611348Y834037D01*
X612311Y833845D01*
X613274Y834037D01*
X614091Y834583D01*
X614636Y835399D01*
X614828Y836362D01*
X614636Y837325D01*
X614091Y838142D01*
X613274Y838688D01*
X612311Y838879D01*
D02*
G37*
G36*
X588689D02*
X587726Y838688D01*
X586909Y838142D01*
X586364Y837325D01*
X586172Y836362D01*
X586364Y835399D01*
X586909Y834583D01*
X587726Y834037D01*
X588689Y833845D01*
X589652Y834037D01*
X590469Y834583D01*
X591014Y835399D01*
X591206Y836362D01*
X591014Y837325D01*
X590469Y838142D01*
X589652Y838688D01*
X588689Y838879D01*
D02*
G37*
G36*
X538500Y835029D02*
X537915Y834913D01*
X537419Y834581D01*
X537087Y834085D01*
X536971Y833500D01*
X537087Y832915D01*
X537419Y832419D01*
X537915Y832087D01*
X538500Y831971D01*
X539085Y832087D01*
X539581Y832419D01*
X539913Y832915D01*
X540029Y833500D01*
X539913Y834085D01*
X539581Y834581D01*
X539085Y834913D01*
X538500Y835029D01*
D02*
G37*
G36*
X564000Y855499D02*
X563086Y855378D01*
X562235Y855026D01*
X561504Y854465D01*
X560943Y853734D01*
X560590Y852882D01*
X560470Y851968D01*
X560590Y851055D01*
X560943Y850203D01*
X561504Y849472D01*
X562235Y848911D01*
X563086Y848559D01*
X564000Y848438D01*
X564914Y848559D01*
X565765Y848911D01*
X566496Y849472D01*
X567057Y850203D01*
X567410Y851055D01*
X567530Y851968D01*
X567410Y852882D01*
X567057Y853734D01*
X566496Y854465D01*
X565765Y855026D01*
X564914Y855378D01*
X564000Y855499D01*
D02*
G37*
G36*
X520500Y855529D02*
X519915Y855413D01*
X519419Y855081D01*
X519087Y854585D01*
X518971Y854000D01*
X519087Y853415D01*
X519419Y852919D01*
X519915Y852587D01*
X520500Y852471D01*
X521085Y852587D01*
X521581Y852919D01*
X521913Y853415D01*
X522029Y854000D01*
X521913Y854585D01*
X521581Y855081D01*
X521085Y855413D01*
X520500Y855529D01*
D02*
G37*
G36*
X524000Y839029D02*
X523415Y838913D01*
X522919Y838581D01*
X522587Y838085D01*
X522471Y837500D01*
X522587Y836915D01*
X522919Y836419D01*
X523415Y836087D01*
X524000Y835971D01*
X524585Y836087D01*
X525081Y836419D01*
X525413Y836915D01*
X525529Y837500D01*
X525413Y838085D01*
X525081Y838581D01*
X524585Y838913D01*
X524000Y839029D01*
D02*
G37*
G36*
X575811Y838974D02*
X574848Y838782D01*
X574031Y838236D01*
X573486Y837420D01*
X573294Y836457D01*
X573486Y835493D01*
X574031Y834677D01*
X574848Y834131D01*
X575811Y833940D01*
X576774Y834131D01*
X577591Y834677D01*
X578136Y835493D01*
X578328Y836457D01*
X578136Y837420D01*
X577591Y838236D01*
X576774Y838782D01*
X575811Y838974D01*
D02*
G37*
G36*
X552189D02*
X551226Y838782D01*
X550409Y838236D01*
X549864Y837420D01*
X549672Y836457D01*
X549864Y835493D01*
X550409Y834677D01*
X551226Y834131D01*
X552189Y833940D01*
X553152Y834131D01*
X553969Y834677D01*
X554514Y835493D01*
X554706Y836457D01*
X554514Y837420D01*
X553969Y838236D01*
X553152Y838782D01*
X552189Y838974D01*
D02*
G37*
G36*
X600500Y855404D02*
X599586Y855284D01*
X598735Y854931D01*
X598004Y854370D01*
X597443Y853639D01*
X597090Y852788D01*
X596970Y851874D01*
X597090Y850960D01*
X597443Y850109D01*
X598004Y849378D01*
X598735Y848817D01*
X599586Y848464D01*
X600500Y848344D01*
X601414Y848464D01*
X602265Y848817D01*
X602996Y849378D01*
X603557Y850109D01*
X603910Y850960D01*
X604030Y851874D01*
X603910Y852788D01*
X603557Y853639D01*
X602996Y854370D01*
X602265Y854931D01*
X601414Y855284D01*
X600500Y855404D01*
D02*
G37*
G36*
X587512Y922907D02*
X586549Y922715D01*
X585732Y922169D01*
X585186Y921353D01*
X584995Y920390D01*
X585186Y919427D01*
X585732Y918610D01*
X586549Y918064D01*
X587512Y917873D01*
X588475Y918064D01*
X589291Y918610D01*
X589837Y919427D01*
X590029Y920390D01*
X589837Y921353D01*
X589291Y922169D01*
X588475Y922715D01*
X587512Y922907D01*
D02*
G37*
G36*
X573732Y922907D02*
X572769Y922715D01*
X571953Y922169D01*
X571407Y921353D01*
X571215Y920390D01*
X571407Y919427D01*
X571953Y918610D01*
X572769Y918064D01*
X573732Y917873D01*
X574695Y918064D01*
X575512Y918610D01*
X576057Y919427D01*
X576249Y920390D01*
X576057Y921353D01*
X575512Y922169D01*
X574695Y922715D01*
X573732Y922907D01*
D02*
G37*
G36*
X550110D02*
X549147Y922715D01*
X548330Y922169D01*
X547785Y921353D01*
X547593Y920390D01*
X547785Y919427D01*
X548330Y918610D01*
X549147Y918064D01*
X550110Y917873D01*
X551073Y918064D01*
X551890Y918610D01*
X552435Y919427D01*
X552627Y920390D01*
X552435Y921353D01*
X551890Y922169D01*
X551073Y922715D01*
X550110Y922907D01*
D02*
G37*
G36*
X483000Y921029D02*
X482415Y920913D01*
X481919Y920581D01*
X481587Y920085D01*
X481471Y919500D01*
X481587Y918915D01*
X481919Y918419D01*
X482415Y918087D01*
X483000Y917971D01*
X483585Y918087D01*
X484081Y918419D01*
X484413Y918915D01*
X484529Y919500D01*
X484413Y920085D01*
X484081Y920581D01*
X483585Y920913D01*
X483000Y921029D01*
D02*
G37*
G36*
X611134Y922907D02*
X610171Y922715D01*
X609354Y922169D01*
X608809Y921353D01*
X608617Y920390D01*
X608809Y919427D01*
X609354Y918610D01*
X610171Y918064D01*
X611134Y917873D01*
X612097Y918064D01*
X612914Y918610D01*
X613459Y919427D01*
X613651Y920390D01*
X613459Y921353D01*
X612914Y922169D01*
X612097Y922715D01*
X611134Y922907D01*
D02*
G37*
G36*
X470500Y908029D02*
X469915Y907913D01*
X469419Y907581D01*
X469087Y907085D01*
X468971Y906500D01*
X469087Y905915D01*
X469419Y905419D01*
X469915Y905087D01*
X470500Y904971D01*
X471085Y905087D01*
X471581Y905419D01*
X471913Y905915D01*
X472029Y906500D01*
X471913Y907085D01*
X471581Y907581D01*
X471085Y907913D01*
X470500Y908029D01*
D02*
G37*
G36*
X453000Y911529D02*
X452415Y911413D01*
X451919Y911081D01*
X451587Y910585D01*
X451471Y910000D01*
X451587Y909415D01*
X451919Y908919D01*
X452415Y908587D01*
X453000Y908471D01*
X453585Y908587D01*
X454081Y908919D01*
X454413Y909415D01*
X454529Y910000D01*
X454413Y910585D01*
X454081Y911081D01*
X453585Y911413D01*
X453000Y911529D01*
D02*
G37*
G36*
X448677Y932341D02*
X448092Y932224D01*
X447596Y931892D01*
X447264Y931396D01*
X447148Y930811D01*
X447264Y930226D01*
X447596Y929730D01*
X448092Y929398D01*
X448677Y929282D01*
X449262Y929398D01*
X449759Y929730D01*
X450090Y930226D01*
X450207Y930811D01*
X450090Y931396D01*
X449759Y931892D01*
X449262Y932224D01*
X448677Y932341D01*
D02*
G37*
G36*
X458677Y932313D02*
X458092Y932197D01*
X457596Y931865D01*
X457264Y931369D01*
X457148Y930783D01*
X457264Y930198D01*
X457596Y929702D01*
X458092Y929370D01*
X458677Y929254D01*
X459262Y929370D01*
X459759Y929702D01*
X460090Y930198D01*
X460207Y930783D01*
X460090Y931369D01*
X459759Y931865D01*
X459262Y932197D01*
X458677Y932313D01*
D02*
G37*
G36*
X433677Y932841D02*
X433092Y932724D01*
X432596Y932393D01*
X432264Y931896D01*
X432148Y931311D01*
X432264Y930726D01*
X432596Y930230D01*
X433092Y929898D01*
X433677Y929782D01*
X434262Y929898D01*
X434759Y930230D01*
X435090Y930726D01*
X435207Y931311D01*
X435090Y931896D01*
X434759Y932393D01*
X434262Y932724D01*
X433677Y932841D01*
D02*
G37*
G36*
X463677Y932813D02*
X463092Y932697D01*
X462596Y932365D01*
X462264Y931869D01*
X462148Y931283D01*
X462264Y930698D01*
X462596Y930202D01*
X463092Y929871D01*
X463677Y929754D01*
X464262Y929871D01*
X464759Y930202D01*
X465090Y930698D01*
X465206Y931283D01*
X465090Y931869D01*
X464759Y932365D01*
X464262Y932697D01*
X463677Y932813D01*
D02*
G37*
G36*
X428677D02*
X428092Y932697D01*
X427596Y932365D01*
X427264Y931869D01*
X427148Y931283D01*
X427264Y930698D01*
X427596Y930202D01*
X428092Y929871D01*
X428677Y929754D01*
X429262Y929871D01*
X429759Y930202D01*
X430090Y930698D01*
X430206Y931283D01*
X430090Y931869D01*
X429759Y932365D01*
X429262Y932697D01*
X428677Y932813D01*
D02*
G37*
G36*
X519882Y926104D02*
X519297Y925988D01*
X518800Y925656D01*
X518469Y925160D01*
X518353Y924575D01*
X518469Y923990D01*
X518800Y923493D01*
X519297Y923162D01*
X519882Y923045D01*
X520467Y923162D01*
X520963Y923493D01*
X521295Y923990D01*
X521411Y924575D01*
X521295Y925160D01*
X520963Y925656D01*
X520467Y925988D01*
X519882Y926104D01*
D02*
G37*
G36*
X453677Y932313D02*
X453092Y932197D01*
X452596Y931865D01*
X452264Y931369D01*
X452148Y930783D01*
X452264Y930198D01*
X452596Y929702D01*
X453092Y929370D01*
X453677Y929254D01*
X454262Y929370D01*
X454759Y929702D01*
X455090Y930198D01*
X455206Y930783D01*
X455090Y931369D01*
X454759Y931865D01*
X454262Y932197D01*
X453677Y932313D01*
D02*
G37*
G36*
X443677D02*
X443092Y932197D01*
X442596Y931865D01*
X442264Y931369D01*
X442148Y930783D01*
X442264Y930198D01*
X442596Y929702D01*
X443092Y929370D01*
X443677Y929254D01*
X444262Y929370D01*
X444759Y929702D01*
X445090Y930198D01*
X445206Y930783D01*
X445090Y931369D01*
X444759Y931865D01*
X444262Y932197D01*
X443677Y932313D01*
D02*
G37*
G36*
X438677D02*
X438092Y932197D01*
X437596Y931865D01*
X437264Y931369D01*
X437148Y930783D01*
X437264Y930198D01*
X437596Y929702D01*
X438092Y929370D01*
X438677Y929254D01*
X439262Y929370D01*
X439759Y929702D01*
X440090Y930198D01*
X440206Y930783D01*
X440090Y931369D01*
X439759Y931865D01*
X439262Y932197D01*
X438677Y932313D01*
D02*
G37*
G36*
X550689Y882474D02*
X549726Y882282D01*
X548909Y881736D01*
X548364Y880920D01*
X548172Y879957D01*
X548364Y878994D01*
X548909Y878177D01*
X549726Y877631D01*
X550689Y877440D01*
X551652Y877631D01*
X552469Y878177D01*
X553014Y878994D01*
X553206Y879957D01*
X553014Y880920D01*
X552469Y881736D01*
X551652Y882282D01*
X550689Y882474D01*
D02*
G37*
G36*
X611311Y881974D02*
X610348Y881782D01*
X609531Y881236D01*
X608986Y880420D01*
X608794Y879457D01*
X608986Y878493D01*
X609531Y877677D01*
X610348Y877131D01*
X611311Y876940D01*
X612274Y877131D01*
X613091Y877677D01*
X613636Y878493D01*
X613828Y879457D01*
X613636Y880420D01*
X613091Y881236D01*
X612274Y881782D01*
X611311Y881974D01*
D02*
G37*
G36*
X587689D02*
X586726Y881782D01*
X585909Y881236D01*
X585364Y880420D01*
X585172Y879457D01*
X585364Y878493D01*
X585909Y877677D01*
X586726Y877131D01*
X587689Y876940D01*
X588652Y877131D01*
X589469Y877677D01*
X590014Y878493D01*
X590206Y879457D01*
X590014Y880420D01*
X589469Y881236D01*
X588652Y881782D01*
X587689Y881974D01*
D02*
G37*
G36*
X523000Y882529D02*
X522415Y882413D01*
X521919Y882081D01*
X521587Y881585D01*
X521471Y881000D01*
X521587Y880415D01*
X521919Y879919D01*
X522415Y879587D01*
X523000Y879471D01*
X523585Y879587D01*
X524081Y879919D01*
X524413Y880415D01*
X524529Y881000D01*
X524413Y881585D01*
X524081Y882081D01*
X523585Y882413D01*
X523000Y882529D01*
D02*
G37*
G36*
X574311Y882474D02*
X573348Y882282D01*
X572531Y881736D01*
X571986Y880920D01*
X571794Y879957D01*
X571986Y878994D01*
X572531Y878177D01*
X573348Y877631D01*
X574311Y877440D01*
X575274Y877631D01*
X576091Y878177D01*
X576636Y878994D01*
X576828Y879957D01*
X576636Y880920D01*
X576091Y881736D01*
X575274Y882282D01*
X574311Y882474D01*
D02*
G37*
G36*
X477500Y873029D02*
X476915Y872913D01*
X476419Y872581D01*
X476087Y872085D01*
X475971Y871500D01*
X476087Y870915D01*
X476419Y870419D01*
X476915Y870087D01*
X477500Y869971D01*
X478085Y870087D01*
X478581Y870419D01*
X478913Y870915D01*
X479029Y871500D01*
X478913Y872085D01*
X478581Y872581D01*
X478085Y872913D01*
X477500Y873029D01*
D02*
G37*
G36*
X541500Y867029D02*
X540915Y866913D01*
X540419Y866581D01*
X540087Y866085D01*
X539971Y865500D01*
X540087Y864915D01*
X540419Y864419D01*
X540915Y864087D01*
X541500Y863971D01*
X542085Y864087D01*
X542581Y864419D01*
X542913Y864915D01*
X543029Y865500D01*
X542913Y866085D01*
X542581Y866581D01*
X542085Y866913D01*
X541500Y867029D01*
D02*
G37*
G36*
X533500Y873029D02*
X532915Y872913D01*
X532419Y872581D01*
X532087Y872085D01*
X531971Y871500D01*
X532087Y870915D01*
X532419Y870419D01*
X532915Y870087D01*
X533500Y869971D01*
X534085Y870087D01*
X534581Y870419D01*
X534913Y870915D01*
X535029Y871500D01*
X534913Y872085D01*
X534581Y872581D01*
X534085Y872913D01*
X533500Y873029D01*
D02*
G37*
G36*
X510500Y898529D02*
X509915Y898413D01*
X509419Y898081D01*
X509087Y897585D01*
X508971Y897000D01*
X509087Y896415D01*
X509419Y895919D01*
X509915Y895587D01*
X510500Y895471D01*
X511085Y895587D01*
X511581Y895919D01*
X511913Y896415D01*
X512029Y897000D01*
X511913Y897585D01*
X511581Y898081D01*
X511085Y898413D01*
X510500Y898529D01*
D02*
G37*
G36*
X480500Y886529D02*
X479915Y886413D01*
X479419Y886081D01*
X479087Y885585D01*
X478971Y885000D01*
X479087Y884415D01*
X479419Y883919D01*
X479915Y883587D01*
X480500Y883471D01*
X481085Y883587D01*
X481581Y883919D01*
X481913Y884415D01*
X482029Y885000D01*
X481913Y885585D01*
X481581Y886081D01*
X481085Y886413D01*
X480500Y886529D01*
D02*
G37*
G36*
X562500Y898999D02*
X561586Y898878D01*
X560735Y898526D01*
X560004Y897965D01*
X559443Y897234D01*
X559090Y896382D01*
X558970Y895469D01*
X559090Y894555D01*
X559443Y893703D01*
X560004Y892972D01*
X560735Y892411D01*
X561586Y892059D01*
X562500Y891938D01*
X563414Y892059D01*
X564265Y892411D01*
X564996Y892972D01*
X565557Y893703D01*
X565910Y894555D01*
X566030Y895469D01*
X565910Y896382D01*
X565557Y897234D01*
X564996Y897965D01*
X564265Y898526D01*
X563414Y898878D01*
X562500Y898999D01*
D02*
G37*
G36*
X599500Y898499D02*
X598586Y898378D01*
X597735Y898026D01*
X597004Y897465D01*
X596443Y896734D01*
X596090Y895882D01*
X595970Y894969D01*
X596090Y894055D01*
X596443Y893203D01*
X597004Y892472D01*
X597735Y891911D01*
X598586Y891559D01*
X599500Y891438D01*
X600414Y891559D01*
X601265Y891911D01*
X601996Y892472D01*
X602557Y893203D01*
X602910Y894055D01*
X603030Y894969D01*
X602910Y895882D01*
X602557Y896734D01*
X601996Y897465D01*
X601265Y898026D01*
X600414Y898378D01*
X599500Y898499D01*
D02*
G37*
G36*
X561921Y939432D02*
X561008Y939311D01*
X560156Y938959D01*
X559425Y938398D01*
X558864Y937667D01*
X558511Y936815D01*
X558391Y935902D01*
X558511Y934988D01*
X558864Y934136D01*
X559425Y933405D01*
X560156Y932844D01*
X561008Y932492D01*
X561921Y932371D01*
X562835Y932492D01*
X563686Y932844D01*
X564418Y933405D01*
X564979Y934136D01*
X565331Y934988D01*
X565451Y935902D01*
X565331Y936815D01*
X564979Y937667D01*
X564418Y938398D01*
X563686Y938959D01*
X562835Y939311D01*
X561921Y939432D01*
D02*
G37*
G36*
X499000Y980029D02*
X498415Y979913D01*
X497919Y979581D01*
X497587Y979085D01*
X497471Y978500D01*
X497587Y977915D01*
X497919Y977419D01*
X498415Y977087D01*
X499000Y976971D01*
X499585Y977087D01*
X500081Y977419D01*
X500413Y977915D01*
X500529Y978500D01*
X500413Y979085D01*
X500081Y979581D01*
X499585Y979913D01*
X499000Y980029D01*
D02*
G37*
G36*
Y985029D02*
X498415Y984913D01*
X497919Y984581D01*
X497587Y984085D01*
X497471Y983500D01*
X497587Y982915D01*
X497919Y982419D01*
X498415Y982087D01*
X499000Y981971D01*
X499585Y982087D01*
X500081Y982419D01*
X500413Y982915D01*
X500529Y983500D01*
X500413Y984085D01*
X500081Y984581D01*
X499585Y984913D01*
X499000Y985029D01*
D02*
G37*
G36*
Y975029D02*
X498415Y974913D01*
X497919Y974581D01*
X497587Y974085D01*
X497471Y973500D01*
X497587Y972915D01*
X497919Y972419D01*
X498415Y972087D01*
X499000Y971971D01*
X499585Y972087D01*
X500081Y972419D01*
X500413Y972915D01*
X500529Y973500D01*
X500413Y974085D01*
X500081Y974581D01*
X499585Y974913D01*
X499000Y975029D01*
D02*
G37*
G36*
X600500Y980999D02*
X599586Y980878D01*
X598735Y980526D01*
X598004Y979965D01*
X597443Y979234D01*
X597090Y978382D01*
X596970Y977468D01*
X597090Y976555D01*
X597443Y975703D01*
X598004Y974972D01*
X598735Y974411D01*
X599586Y974059D01*
X600500Y973938D01*
X601414Y974059D01*
X602265Y974411D01*
X602996Y974972D01*
X603557Y975703D01*
X603910Y976555D01*
X604030Y977468D01*
X603910Y978382D01*
X603557Y979234D01*
X602996Y979965D01*
X602265Y980526D01*
X601414Y980878D01*
X600500Y980999D01*
D02*
G37*
G36*
X561000D02*
X560086Y980878D01*
X559235Y980526D01*
X558504Y979965D01*
X557943Y979234D01*
X557590Y978382D01*
X557470Y977468D01*
X557590Y976555D01*
X557943Y975703D01*
X558504Y974972D01*
X559235Y974411D01*
X560086Y974059D01*
X561000Y973938D01*
X561914Y974059D01*
X562765Y974411D01*
X563496Y974972D01*
X564057Y975703D01*
X564410Y976555D01*
X564530Y977468D01*
X564410Y978382D01*
X564057Y979234D01*
X563496Y979965D01*
X562765Y980526D01*
X561914Y980878D01*
X561000Y980999D01*
D02*
G37*
G36*
X499000Y946529D02*
X498415Y946413D01*
X497919Y946081D01*
X497587Y945585D01*
X497471Y945000D01*
X497587Y944415D01*
X497919Y943919D01*
X498415Y943587D01*
X499000Y943471D01*
X499585Y943587D01*
X500081Y943919D01*
X500413Y944415D01*
X500529Y945000D01*
X500413Y945585D01*
X500081Y946081D01*
X499585Y946413D01*
X499000Y946529D01*
D02*
G37*
G36*
X519882Y959667D02*
X519297Y959551D01*
X518800Y959219D01*
X518469Y958723D01*
X518353Y958138D01*
X518469Y957553D01*
X518800Y957056D01*
X519297Y956725D01*
X519882Y956608D01*
X520467Y956725D01*
X520963Y957056D01*
X521295Y957553D01*
X521411Y958138D01*
X521295Y958723D01*
X520963Y959219D01*
X520467Y959551D01*
X519882Y959667D01*
D02*
G37*
G36*
X499000Y951529D02*
X498415Y951413D01*
X497919Y951081D01*
X497587Y950585D01*
X497471Y950000D01*
X497587Y949415D01*
X497919Y948919D01*
X498415Y948587D01*
X499000Y948471D01*
X499585Y948587D01*
X500081Y948919D01*
X500413Y949415D01*
X500529Y950000D01*
X500413Y950585D01*
X500081Y951081D01*
X499585Y951413D01*
X499000Y951529D01*
D02*
G37*
G36*
X599323Y939432D02*
X598409Y939311D01*
X597558Y938959D01*
X596827Y938398D01*
X596266Y937667D01*
X595913Y936815D01*
X595793Y935902D01*
X595913Y934988D01*
X596266Y934136D01*
X596827Y933405D01*
X597558Y932844D01*
X598409Y932492D01*
X599323Y932371D01*
X600237Y932492D01*
X601088Y932844D01*
X601819Y933405D01*
X602380Y934136D01*
X602733Y934988D01*
X602853Y935902D01*
X602733Y936815D01*
X602380Y937667D01*
X601819Y938398D01*
X601088Y938959D01*
X600237Y939311D01*
X599323Y939432D01*
D02*
G37*
G36*
X499000Y941529D02*
X498415Y941413D01*
X497919Y941081D01*
X497587Y940585D01*
X497471Y940000D01*
X497587Y939415D01*
X497919Y938919D01*
X498415Y938587D01*
X499000Y938471D01*
X499585Y938587D01*
X500081Y938919D01*
X500413Y939415D01*
X500529Y940000D01*
X500413Y940585D01*
X500081Y941081D01*
X499585Y941413D01*
X499000Y941529D01*
D02*
G37*
G36*
X588689Y964474D02*
X587726Y964282D01*
X586909Y963736D01*
X586364Y962920D01*
X586172Y961957D01*
X586364Y960993D01*
X586909Y960177D01*
X587726Y959631D01*
X588689Y959440D01*
X589652Y959631D01*
X590469Y960177D01*
X591014Y960993D01*
X591206Y961957D01*
X591014Y962920D01*
X590469Y963736D01*
X589652Y964282D01*
X588689Y964474D01*
D02*
G37*
G36*
X572811D02*
X571848Y964282D01*
X571031Y963736D01*
X570486Y962920D01*
X570294Y961957D01*
X570486Y960993D01*
X571031Y960177D01*
X571848Y959631D01*
X572811Y959440D01*
X573774Y959631D01*
X574591Y960177D01*
X575136Y960993D01*
X575328Y961957D01*
X575136Y962920D01*
X574591Y963736D01*
X573774Y964282D01*
X572811Y964474D01*
D02*
G37*
G36*
X549189D02*
X548226Y964282D01*
X547409Y963736D01*
X546864Y962920D01*
X546672Y961957D01*
X546864Y960993D01*
X547409Y960177D01*
X548226Y959631D01*
X549189Y959440D01*
X550152Y959631D01*
X550969Y960177D01*
X551514Y960993D01*
X551706Y961957D01*
X551514Y962920D01*
X550969Y963736D01*
X550152Y964282D01*
X549189Y964474D01*
D02*
G37*
G36*
X612311D02*
X611348Y964282D01*
X610531Y963736D01*
X609986Y962920D01*
X609794Y961957D01*
X609986Y960993D01*
X610531Y960177D01*
X611348Y959631D01*
X612311Y959440D01*
X613274Y959631D01*
X614091Y960177D01*
X614636Y960993D01*
X614828Y961957D01*
X614636Y962920D01*
X614091Y963736D01*
X613274Y964282D01*
X612311Y964474D01*
D02*
G37*
G36*
X515000Y1048529D02*
X514415Y1048413D01*
X513919Y1048081D01*
X513587Y1047585D01*
X513471Y1047000D01*
X513587Y1046415D01*
X513919Y1045919D01*
X514415Y1045587D01*
X515000Y1045471D01*
X515585Y1045587D01*
X516081Y1045919D01*
X516413Y1046415D01*
X516529Y1047000D01*
X516413Y1047585D01*
X516081Y1048081D01*
X515585Y1048413D01*
X515000Y1048529D01*
D02*
G37*
G36*
X587012Y1048084D02*
X586049Y1047892D01*
X585232Y1047347D01*
X584687Y1046530D01*
X584495Y1045567D01*
X584687Y1044604D01*
X585232Y1043787D01*
X586049Y1043242D01*
X587012Y1043050D01*
X587975Y1043242D01*
X588792Y1043787D01*
X589337Y1044604D01*
X589529Y1045567D01*
X589337Y1046530D01*
X588792Y1047347D01*
X587975Y1047892D01*
X587012Y1048084D01*
D02*
G37*
G36*
X573232Y1048084D02*
X572269Y1047892D01*
X571453Y1047347D01*
X570907Y1046530D01*
X570715Y1045567D01*
X570907Y1044604D01*
X571453Y1043787D01*
X572269Y1043242D01*
X573232Y1043050D01*
X574195Y1043242D01*
X575012Y1043787D01*
X575558Y1044604D01*
X575749Y1045567D01*
X575558Y1046530D01*
X575012Y1047347D01*
X574195Y1047892D01*
X573232Y1048084D01*
D02*
G37*
G36*
X549610D02*
X548647Y1047892D01*
X547831Y1047347D01*
X547285Y1046530D01*
X547093Y1045567D01*
X547285Y1044604D01*
X547831Y1043787D01*
X548647Y1043242D01*
X549610Y1043050D01*
X550573Y1043242D01*
X551390Y1043787D01*
X551935Y1044604D01*
X552127Y1045567D01*
X551935Y1046530D01*
X551390Y1047347D01*
X550573Y1047892D01*
X549610Y1048084D01*
D02*
G37*
G36*
X561421Y1064609D02*
X560508Y1064489D01*
X559656Y1064136D01*
X558925Y1063575D01*
X558364Y1062844D01*
X558011Y1061992D01*
X557891Y1061079D01*
X558011Y1060165D01*
X558364Y1059314D01*
X558925Y1058582D01*
X559656Y1058022D01*
X560508Y1057669D01*
X561421Y1057549D01*
X562335Y1057669D01*
X563186Y1058022D01*
X563917Y1058582D01*
X564478Y1059314D01*
X564831Y1060165D01*
X564952Y1061079D01*
X564831Y1061992D01*
X564478Y1062844D01*
X563917Y1063575D01*
X563186Y1064136D01*
X562335Y1064489D01*
X561421Y1064609D01*
D02*
G37*
G36*
X598823Y1064609D02*
X597909Y1064489D01*
X597058Y1064136D01*
X596327Y1063575D01*
X595766Y1062844D01*
X595413Y1061992D01*
X595293Y1061079D01*
X595413Y1060165D01*
X595766Y1059314D01*
X596327Y1058582D01*
X597058Y1058022D01*
X597909Y1057669D01*
X598823Y1057549D01*
X599736Y1057669D01*
X600588Y1058022D01*
X601319Y1058582D01*
X601880Y1059314D01*
X602233Y1060165D01*
X602353Y1061079D01*
X602233Y1061992D01*
X601880Y1062844D01*
X601319Y1063575D01*
X600588Y1064136D01*
X599736Y1064489D01*
X598823Y1064609D01*
D02*
G37*
G36*
X443500Y774529D02*
X442915Y774413D01*
X442419Y774081D01*
X442087Y773585D01*
X441971Y773000D01*
X442087Y772415D01*
X442419Y771919D01*
X442915Y771587D01*
X443500Y771471D01*
X444085Y771587D01*
X444581Y771919D01*
X444913Y772415D01*
X445029Y773000D01*
X444913Y773585D01*
X444581Y774081D01*
X444085Y774413D01*
X443500Y774529D01*
D02*
G37*
G36*
X510000Y777029D02*
X509415Y776913D01*
X508919Y776581D01*
X508587Y776085D01*
X508471Y775500D01*
X508587Y774915D01*
X508919Y774419D01*
X509415Y774087D01*
X510000Y773971D01*
X510585Y774087D01*
X511081Y774419D01*
X511413Y774915D01*
X511529Y775500D01*
X511413Y776085D01*
X511081Y776581D01*
X510585Y776913D01*
X510000Y777029D01*
D02*
G37*
G36*
X498000Y720029D02*
X497415Y719913D01*
X496919Y719581D01*
X496587Y719085D01*
X496471Y718500D01*
X496587Y717915D01*
X496919Y717419D01*
X497415Y717087D01*
X498000Y716971D01*
X498585Y717087D01*
X499081Y717419D01*
X499413Y717915D01*
X499529Y718500D01*
X499413Y719085D01*
X499081Y719581D01*
X498585Y719913D01*
X498000Y720029D01*
D02*
G37*
G36*
X549342Y769687D02*
X548757Y769570D01*
X548261Y769239D01*
X547930Y768743D01*
X547813Y768157D01*
X547930Y767572D01*
X548261Y767076D01*
X548757Y766745D01*
X549342Y766628D01*
X549928Y766745D01*
X550424Y767076D01*
X550756Y767572D01*
X550872Y768157D01*
X550756Y768743D01*
X550424Y769239D01*
X549928Y769570D01*
X549342Y769687D01*
D02*
G37*
G36*
X467866Y769266D02*
X467281Y769149D01*
X466785Y768818D01*
X466453Y768322D01*
X466337Y767736D01*
X466453Y767151D01*
X466785Y766655D01*
X467281Y766323D01*
X467866Y766207D01*
X468451Y766323D01*
X468948Y766655D01*
X469279Y767151D01*
X469395Y767736D01*
X469279Y768322D01*
X468948Y768818D01*
X468451Y769149D01*
X467866Y769266D01*
D02*
G37*
G36*
X287492Y771014D02*
X286907Y770897D01*
X286411Y770566D01*
X286079Y770070D01*
X285963Y769484D01*
X286079Y768899D01*
X286411Y768403D01*
X286907Y768071D01*
X287492Y767955D01*
X288077Y768071D01*
X288574Y768403D01*
X288905Y768899D01*
X289021Y769484D01*
X288905Y770070D01*
X288574Y770566D01*
X288077Y770897D01*
X287492Y771014D01*
D02*
G37*
G36*
X535500Y773529D02*
X534915Y773413D01*
X534419Y773081D01*
X534087Y772585D01*
X533971Y772000D01*
X534087Y771415D01*
X534419Y770919D01*
X534915Y770587D01*
X535500Y770471D01*
X536085Y770587D01*
X536581Y770919D01*
X536913Y771415D01*
X537029Y772000D01*
X536913Y772585D01*
X536581Y773081D01*
X536085Y773413D01*
X535500Y773529D01*
D02*
G37*
G36*
X474000Y786029D02*
X473415Y785913D01*
X472919Y785581D01*
X472587Y785085D01*
X472471Y784500D01*
X472587Y783915D01*
X472919Y783419D01*
X473415Y783087D01*
X474000Y782971D01*
X474585Y783087D01*
X475081Y783419D01*
X475413Y783915D01*
X475529Y784500D01*
X475413Y785085D01*
X475081Y785581D01*
X474585Y785913D01*
X474000Y786029D01*
D02*
G37*
G36*
X547248Y718738D02*
X546663Y718622D01*
X546167Y718290D01*
X545835Y717794D01*
X545719Y717209D01*
X545835Y716623D01*
X546167Y716127D01*
X546663Y715796D01*
X547248Y715679D01*
X547833Y715796D01*
X548329Y716127D01*
X548661Y716623D01*
X548777Y717209D01*
X548661Y717794D01*
X548329Y718290D01*
X547833Y718622D01*
X547248Y718738D01*
D02*
G37*
G36*
X447000Y788529D02*
X446415Y788413D01*
X445919Y788081D01*
X445587Y787585D01*
X445471Y787000D01*
X445587Y786415D01*
X445919Y785919D01*
X446415Y785587D01*
X447000Y785471D01*
X447585Y785587D01*
X448081Y785919D01*
X448413Y786415D01*
X448529Y787000D01*
X448413Y787585D01*
X448081Y788081D01*
X447585Y788413D01*
X447000Y788529D01*
D02*
G37*
G36*
X541000Y789029D02*
X540415Y788913D01*
X539919Y788581D01*
X539587Y788085D01*
X539471Y787500D01*
X539587Y786915D01*
X539919Y786419D01*
X540415Y786087D01*
X541000Y785971D01*
X541585Y786087D01*
X542081Y786419D01*
X542413Y786915D01*
X542529Y787500D01*
X542413Y788085D01*
X542081Y788581D01*
X541585Y788913D01*
X541000Y789029D01*
D02*
G37*
G36*
X467531Y777561D02*
X466946Y777445D01*
X466450Y777113D01*
X466118Y776617D01*
X466002Y776031D01*
X466118Y775446D01*
X466450Y774950D01*
X466946Y774618D01*
X467531Y774502D01*
X468117Y774618D01*
X468613Y774950D01*
X468945Y775446D01*
X469061Y776031D01*
X468945Y776617D01*
X468613Y777113D01*
X468117Y777445D01*
X467531Y777561D01*
D02*
G37*
G36*
X549469Y777561D02*
X548883Y777444D01*
X548387Y777113D01*
X548056Y776617D01*
X547939Y776031D01*
X548056Y775446D01*
X548387Y774950D01*
X548883Y774618D01*
X549469Y774502D01*
X550054Y774618D01*
X550550Y774950D01*
X550881Y775446D01*
X550998Y776031D01*
X550881Y776617D01*
X550550Y777113D01*
X550054Y777444D01*
X549469Y777561D01*
D02*
G37*
G36*
X281492Y784014D02*
X280907Y783897D01*
X280411Y783566D01*
X280079Y783070D01*
X279963Y782484D01*
X280079Y781899D01*
X280411Y781403D01*
X280907Y781071D01*
X281492Y780955D01*
X282077Y781071D01*
X282574Y781403D01*
X282905Y781899D01*
X283021Y782484D01*
X282905Y783070D01*
X282574Y783566D01*
X282077Y783897D01*
X281492Y784014D01*
D02*
G37*
G36*
X338492Y766514D02*
X337907Y766397D01*
X337411Y766066D01*
X337079Y765569D01*
X336963Y764984D01*
X337079Y764399D01*
X337411Y763903D01*
X337907Y763571D01*
X338492Y763455D01*
X339077Y763571D01*
X339574Y763903D01*
X339905Y764399D01*
X340021Y764984D01*
X339905Y765569D01*
X339574Y766066D01*
X339077Y766397D01*
X338492Y766514D01*
D02*
G37*
G36*
X516500Y753029D02*
X515915Y752913D01*
X515419Y752581D01*
X515087Y752085D01*
X514971Y751500D01*
X515087Y750915D01*
X515419Y750419D01*
X515915Y750087D01*
X516500Y749971D01*
X517085Y750087D01*
X517581Y750419D01*
X517913Y750915D01*
X518029Y751500D01*
X517913Y752085D01*
X517581Y752581D01*
X517085Y752913D01*
X516500Y753029D01*
D02*
G37*
G36*
X432874Y732785D02*
X432289Y732669D01*
X431793Y732337D01*
X431461Y731841D01*
X431345Y731256D01*
X431461Y730671D01*
X431793Y730174D01*
X432289Y729843D01*
X432874Y729727D01*
X433459Y729843D01*
X433955Y730174D01*
X434287Y730671D01*
X434403Y731256D01*
X434287Y731841D01*
X433955Y732337D01*
X433459Y732669D01*
X432874Y732785D01*
D02*
G37*
G36*
X526500Y743529D02*
X525915Y743413D01*
X525419Y743081D01*
X525087Y742585D01*
X524971Y742000D01*
X525087Y741415D01*
X525419Y740919D01*
X525915Y740587D01*
X526500Y740471D01*
X527085Y740587D01*
X527581Y740919D01*
X527913Y741415D01*
X528029Y742000D01*
X527913Y742585D01*
X527581Y743081D01*
X527085Y743413D01*
X526500Y743529D01*
D02*
G37*
G36*
X419874Y736785D02*
X419289Y736669D01*
X418793Y736337D01*
X418461Y735841D01*
X418345Y735256D01*
X418461Y734671D01*
X418793Y734174D01*
X419289Y733843D01*
X419874Y733727D01*
X420459Y733843D01*
X420955Y734174D01*
X421287Y734671D01*
X421403Y735256D01*
X421287Y735841D01*
X420955Y736337D01*
X420459Y736669D01*
X419874Y736785D01*
D02*
G37*
G36*
X512500Y736029D02*
X511915Y735913D01*
X511419Y735581D01*
X511087Y735085D01*
X510971Y734500D01*
X511087Y733915D01*
X511419Y733419D01*
X511915Y733087D01*
X512500Y732971D01*
X513085Y733087D01*
X513581Y733419D01*
X513913Y733915D01*
X514029Y734500D01*
X513913Y735085D01*
X513581Y735581D01*
X513085Y735913D01*
X512500Y736029D01*
D02*
G37*
G36*
X467728Y737533D02*
X467143Y737417D01*
X466647Y737085D01*
X466315Y736589D01*
X466199Y736004D01*
X466315Y735419D01*
X466647Y734923D01*
X467143Y734591D01*
X467728Y734475D01*
X468314Y734591D01*
X468810Y734923D01*
X469141Y735419D01*
X469258Y736004D01*
X469141Y736589D01*
X468810Y737085D01*
X468314Y737417D01*
X467728Y737533D01*
D02*
G37*
G36*
X561846Y742337D02*
X561261Y742220D01*
X560765Y741889D01*
X560433Y741392D01*
X560317Y740807D01*
X560433Y740222D01*
X560765Y739726D01*
X561261Y739394D01*
X561846Y739278D01*
X562432Y739394D01*
X562928Y739726D01*
X563259Y740222D01*
X563376Y740807D01*
X563259Y741392D01*
X562928Y741889D01*
X562432Y742220D01*
X561846Y742337D01*
D02*
G37*
G36*
X483000Y741529D02*
X482415Y741413D01*
X481919Y741081D01*
X481587Y740585D01*
X481471Y740000D01*
X481587Y739415D01*
X481919Y738919D01*
X482415Y738587D01*
X483000Y738471D01*
X483585Y738587D01*
X484081Y738919D01*
X484413Y739415D01*
X484529Y740000D01*
X484413Y740585D01*
X484081Y741081D01*
X483585Y741413D01*
X483000Y741529D01*
D02*
G37*
G36*
X397000Y722529D02*
X396415Y722413D01*
X395919Y722081D01*
X395587Y721585D01*
X395471Y721000D01*
X395587Y720415D01*
X395919Y719919D01*
X396415Y719587D01*
X397000Y719471D01*
X397585Y719587D01*
X398081Y719919D01*
X398413Y720415D01*
X398529Y721000D01*
X398413Y721585D01*
X398081Y722081D01*
X397585Y722413D01*
X397000Y722529D01*
D02*
G37*
G36*
X442760Y720533D02*
X442174Y720417D01*
X441678Y720085D01*
X441347Y719589D01*
X441230Y719004D01*
X441347Y718419D01*
X441678Y717922D01*
X442174Y717591D01*
X442760Y717475D01*
X443345Y717591D01*
X443841Y717922D01*
X444173Y718419D01*
X444289Y719004D01*
X444173Y719589D01*
X443841Y720085D01*
X443345Y720417D01*
X442760Y720533D01*
D02*
G37*
G36*
X452760D02*
X452175Y720417D01*
X451678Y720085D01*
X451347Y719589D01*
X451230Y719004D01*
X451347Y718419D01*
X451678Y717922D01*
X452175Y717591D01*
X452760Y717475D01*
X453345Y717591D01*
X453841Y717922D01*
X454173Y718419D01*
X454289Y719004D01*
X454173Y719589D01*
X453841Y720085D01*
X453345Y720417D01*
X452760Y720533D01*
D02*
G37*
G36*
X488000Y720529D02*
X487415Y720413D01*
X486919Y720081D01*
X486587Y719585D01*
X486471Y719000D01*
X486587Y718415D01*
X486919Y717919D01*
X487415Y717587D01*
X488000Y717471D01*
X488585Y717587D01*
X489081Y717919D01*
X489413Y718415D01*
X489529Y719000D01*
X489413Y719585D01*
X489081Y720081D01*
X488585Y720413D01*
X488000Y720529D01*
D02*
G37*
G36*
X537000Y720029D02*
X536415Y719913D01*
X535919Y719581D01*
X535587Y719085D01*
X535471Y718500D01*
X535587Y717915D01*
X535919Y717419D01*
X536415Y717087D01*
X537000Y716971D01*
X537585Y717087D01*
X538081Y717419D01*
X538413Y717915D01*
X538529Y718500D01*
X538413Y719085D01*
X538081Y719581D01*
X537585Y719913D01*
X537000Y720029D01*
D02*
G37*
G36*
X303492Y765514D02*
X302907Y765397D01*
X302411Y765066D01*
X302079Y764570D01*
X301963Y763984D01*
X302079Y763399D01*
X302411Y762903D01*
X302907Y762571D01*
X303492Y762455D01*
X304077Y762571D01*
X304574Y762903D01*
X304905Y763399D01*
X305022Y763984D01*
X304905Y764570D01*
X304574Y765066D01*
X304077Y765397D01*
X303492Y765514D01*
D02*
G37*
G36*
X417224Y770137D02*
X416169Y769998D01*
X415185Y769591D01*
X414341Y768943D01*
X413693Y768098D01*
X413285Y767115D01*
X413146Y766059D01*
X413285Y765003D01*
X413693Y764020D01*
X414341Y763175D01*
X415185Y762527D01*
X416169Y762120D01*
X417224Y761981D01*
X418280Y762120D01*
X419264Y762527D01*
X420108Y763175D01*
X420756Y764020D01*
X421164Y765003D01*
X421303Y766059D01*
X421164Y767115D01*
X420756Y768098D01*
X420108Y768943D01*
X419264Y769591D01*
X418280Y769998D01*
X417224Y770137D01*
D02*
G37*
G36*
X365492Y762514D02*
X364907Y762397D01*
X364411Y762066D01*
X364079Y761569D01*
X363963Y760984D01*
X364079Y760399D01*
X364411Y759903D01*
X364907Y759571D01*
X365492Y759455D01*
X366077Y759571D01*
X366574Y759903D01*
X366905Y760399D01*
X367021Y760984D01*
X366905Y761569D01*
X366574Y762066D01*
X366077Y762397D01*
X365492Y762514D01*
D02*
G37*
G36*
X319992Y762014D02*
X319407Y761897D01*
X318911Y761566D01*
X318579Y761069D01*
X318463Y760484D01*
X318579Y759899D01*
X318911Y759403D01*
X319407Y759071D01*
X319992Y758955D01*
X320577Y759071D01*
X321074Y759403D01*
X321405Y759899D01*
X321521Y760484D01*
X321405Y761069D01*
X321074Y761566D01*
X320577Y761897D01*
X319992Y762014D01*
D02*
G37*
G36*
X529000Y764923D02*
X528415Y764807D01*
X527919Y764475D01*
X527587Y763979D01*
X527471Y763394D01*
X527587Y762808D01*
X527919Y762312D01*
X528415Y761981D01*
X529000Y761864D01*
X529585Y761981D01*
X530081Y762312D01*
X530413Y762808D01*
X530529Y763394D01*
X530413Y763979D01*
X530081Y764475D01*
X529585Y764807D01*
X529000Y764923D01*
D02*
G37*
G36*
X490957Y764600D02*
X490371Y764484D01*
X489875Y764152D01*
X489544Y763656D01*
X489427Y763071D01*
X489544Y762486D01*
X489875Y761989D01*
X490371Y761658D01*
X490957Y761542D01*
X491542Y761658D01*
X492038Y761989D01*
X492370Y762486D01*
X492486Y763071D01*
X492370Y763656D01*
X492038Y764152D01*
X491542Y764484D01*
X490957Y764600D01*
D02*
G37*
G36*
X408500Y835029D02*
X407915Y834913D01*
X407419Y834581D01*
X407087Y834085D01*
X406971Y833500D01*
X407087Y832915D01*
X407419Y832419D01*
X407915Y832087D01*
X408500Y831971D01*
X409085Y832087D01*
X409581Y832419D01*
X409913Y832915D01*
X410029Y833500D01*
X409913Y834085D01*
X409581Y834581D01*
X409085Y834913D01*
X408500Y835029D01*
D02*
G37*
G36*
X294000Y829029D02*
X293415Y828913D01*
X292919Y828581D01*
X292587Y828085D01*
X292471Y827500D01*
X292587Y826915D01*
X292919Y826419D01*
X293415Y826087D01*
X294000Y825971D01*
X294585Y826087D01*
X295081Y826419D01*
X295413Y826915D01*
X295529Y827500D01*
X295413Y828085D01*
X295081Y828581D01*
X294585Y828913D01*
X294000Y829029D01*
D02*
G37*
G36*
X476000Y819029D02*
X475415Y818913D01*
X474919Y818581D01*
X474587Y818085D01*
X474471Y817500D01*
X474587Y816915D01*
X474919Y816419D01*
X475415Y816087D01*
X476000Y815971D01*
X476585Y816087D01*
X477081Y816419D01*
X477413Y816915D01*
X477529Y817500D01*
X477413Y818085D01*
X477081Y818581D01*
X476585Y818913D01*
X476000Y819029D01*
D02*
G37*
G36*
X528500Y820529D02*
X527915Y820413D01*
X527419Y820081D01*
X527087Y819585D01*
X526971Y819000D01*
X527087Y818415D01*
X527419Y817919D01*
X527915Y817587D01*
X528500Y817471D01*
X529085Y817587D01*
X529581Y817919D01*
X529913Y818415D01*
X530029Y819000D01*
X529913Y819585D01*
X529581Y820081D01*
X529085Y820413D01*
X528500Y820529D01*
D02*
G37*
G36*
X408000Y858529D02*
X407415Y858413D01*
X406919Y858081D01*
X406587Y857585D01*
X406471Y857000D01*
X406587Y856415D01*
X406919Y855919D01*
X407415Y855587D01*
X408000Y855471D01*
X408585Y855587D01*
X409081Y855919D01*
X409413Y856415D01*
X409529Y857000D01*
X409413Y857585D01*
X409081Y858081D01*
X408585Y858413D01*
X408000Y858529D01*
D02*
G37*
G36*
X411971Y847029D02*
X411385Y846913D01*
X410889Y846581D01*
X410558Y846085D01*
X410441Y845500D01*
X410558Y844915D01*
X410889Y844419D01*
X411385Y844087D01*
X411971Y843971D01*
X412556Y844087D01*
X413052Y844419D01*
X413384Y844915D01*
X413500Y845500D01*
X413384Y846085D01*
X413052Y846581D01*
X412556Y846913D01*
X411971Y847029D01*
D02*
G37*
G36*
X442000Y794029D02*
X441415Y793913D01*
X440919Y793581D01*
X440587Y793085D01*
X440471Y792500D01*
X440587Y791915D01*
X440919Y791419D01*
X441415Y791087D01*
X442000Y790971D01*
X442585Y791087D01*
X443081Y791419D01*
X443413Y791915D01*
X443529Y792500D01*
X443413Y793085D01*
X443081Y793581D01*
X442585Y793913D01*
X442000Y794029D01*
D02*
G37*
G36*
X476087Y792875D02*
X475501Y792758D01*
X475005Y792427D01*
X474674Y791930D01*
X474557Y791345D01*
X474674Y790760D01*
X475005Y790264D01*
X475501Y789932D01*
X476087Y789816D01*
X476672Y789932D01*
X477168Y790264D01*
X477500Y790760D01*
X477616Y791345D01*
X477500Y791930D01*
X477168Y792427D01*
X476672Y792758D01*
X476087Y792875D01*
D02*
G37*
G36*
X564000Y798529D02*
X563415Y798413D01*
X562919Y798081D01*
X562587Y797585D01*
X562471Y797000D01*
X562587Y796415D01*
X562919Y795919D01*
X563415Y795587D01*
X564000Y795471D01*
X564585Y795587D01*
X565081Y795919D01*
X565413Y796415D01*
X565529Y797000D01*
X565413Y797585D01*
X565081Y798081D01*
X564585Y798413D01*
X564000Y798529D01*
D02*
G37*
G36*
X554000Y815029D02*
X553415Y814913D01*
X552919Y814581D01*
X552587Y814085D01*
X552471Y813500D01*
X552587Y812915D01*
X552919Y812419D01*
X553415Y812087D01*
X554000Y811971D01*
X554585Y812087D01*
X555081Y812419D01*
X555413Y812915D01*
X555529Y813500D01*
X555413Y814085D01*
X555081Y814581D01*
X554585Y814913D01*
X554000Y815029D01*
D02*
G37*
G36*
X459500Y808029D02*
X458915Y807913D01*
X458419Y807581D01*
X458087Y807085D01*
X457971Y806500D01*
X458087Y805915D01*
X458419Y805419D01*
X458915Y805087D01*
X459500Y804971D01*
X460085Y805087D01*
X460581Y805419D01*
X460913Y805915D01*
X461029Y806500D01*
X460913Y807085D01*
X460581Y807581D01*
X460085Y807913D01*
X459500Y808029D01*
D02*
G37*
G36*
X470500Y807529D02*
X469915Y807413D01*
X469419Y807081D01*
X469087Y806585D01*
X468971Y806000D01*
X469087Y805415D01*
X469419Y804919D01*
X469915Y804587D01*
X470500Y804471D01*
X471085Y804587D01*
X471581Y804919D01*
X471913Y805415D01*
X472029Y806000D01*
X471913Y806585D01*
X471581Y807081D01*
X471085Y807413D01*
X470500Y807529D01*
D02*
G37*
G36*
X527500Y808029D02*
X526915Y807913D01*
X526419Y807581D01*
X526087Y807085D01*
X525971Y806500D01*
X526087Y805915D01*
X526419Y805419D01*
X526915Y805087D01*
X527500Y804971D01*
X528085Y805087D01*
X528581Y805419D01*
X528913Y805915D01*
X529029Y806500D01*
X528913Y807085D01*
X528581Y807581D01*
X528085Y807913D01*
X527500Y808029D01*
D02*
G37*
G36*
X515000D02*
X514415Y807913D01*
X513919Y807581D01*
X513587Y807085D01*
X513471Y806500D01*
X513587Y805915D01*
X513919Y805419D01*
X514415Y805087D01*
X515000Y804971D01*
X515585Y805087D01*
X516081Y805419D01*
X516413Y805915D01*
X516529Y806500D01*
X516413Y807085D01*
X516081Y807581D01*
X515585Y807913D01*
X515000Y808029D01*
D02*
G37*
G36*
X461000Y638029D02*
X460415Y637913D01*
X459919Y637581D01*
X459587Y637085D01*
X459471Y636500D01*
X459587Y635915D01*
X459919Y635419D01*
X460415Y635087D01*
X461000Y634971D01*
X461585Y635087D01*
X462081Y635419D01*
X462413Y635915D01*
X462529Y636500D01*
X462413Y637085D01*
X462081Y637581D01*
X461585Y637913D01*
X461000Y638029D01*
D02*
G37*
G36*
X489500Y698029D02*
X488915Y697913D01*
X488419Y697581D01*
X488087Y697085D01*
X487971Y696500D01*
X488087Y695915D01*
X488419Y695419D01*
X488915Y695087D01*
X489500Y694971D01*
X490085Y695087D01*
X490581Y695419D01*
X490913Y695915D01*
X491029Y696500D01*
X490913Y697085D01*
X490581Y697581D01*
X490085Y697913D01*
X489500Y698029D01*
D02*
G37*
G36*
X470346Y685876D02*
X469761Y685759D01*
X469265Y685428D01*
X468933Y684932D01*
X468817Y684346D01*
X468933Y683761D01*
X469265Y683265D01*
X469761Y682933D01*
X470346Y682817D01*
X470932Y682933D01*
X471428Y683265D01*
X471759Y683761D01*
X471876Y684346D01*
X471759Y684932D01*
X471428Y685428D01*
X470932Y685759D01*
X470346Y685876D01*
D02*
G37*
G36*
X433681Y685478D02*
X433096Y685362D01*
X432600Y685030D01*
X432268Y684534D01*
X432152Y683949D01*
X432268Y683363D01*
X432600Y682867D01*
X433096Y682536D01*
X433681Y682419D01*
X434266Y682536D01*
X434762Y682867D01*
X435094Y683363D01*
X435211Y683949D01*
X435094Y684534D01*
X434762Y685030D01*
X434266Y685362D01*
X433681Y685478D01*
D02*
G37*
G36*
X515177Y684207D02*
X514592Y684090D01*
X514096Y683759D01*
X513764Y683262D01*
X513648Y682677D01*
X513764Y682092D01*
X514096Y681596D01*
X514592Y681264D01*
X515177Y681148D01*
X515762Y681264D01*
X516259Y681596D01*
X516590Y682092D01*
X516707Y682677D01*
X516590Y683262D01*
X516259Y683759D01*
X515762Y684090D01*
X515177Y684207D01*
D02*
G37*
G36*
X564846Y689336D02*
X564261Y689220D01*
X563765Y688889D01*
X563433Y688392D01*
X563317Y687807D01*
X563433Y687222D01*
X563765Y686726D01*
X564261Y686394D01*
X564846Y686278D01*
X565432Y686394D01*
X565928Y686726D01*
X566259Y687222D01*
X566376Y687807D01*
X566259Y688392D01*
X565928Y688889D01*
X565432Y689220D01*
X564846Y689336D01*
D02*
G37*
G36*
X566539Y711529D02*
X565954Y711413D01*
X565458Y711081D01*
X565126Y710585D01*
X565010Y710000D01*
X565126Y709415D01*
X565458Y708919D01*
X565954Y708587D01*
X566539Y708471D01*
X567125Y708587D01*
X567621Y708919D01*
X567952Y709415D01*
X568069Y710000D01*
X567952Y710585D01*
X567621Y711081D01*
X567125Y711413D01*
X566539Y711529D01*
D02*
G37*
G36*
X473831Y707494D02*
X473245Y707377D01*
X472749Y707046D01*
X472418Y706550D01*
X472301Y705965D01*
X472418Y705379D01*
X472749Y704883D01*
X473245Y704552D01*
X473831Y704435D01*
X474416Y704552D01*
X474912Y704883D01*
X475244Y705379D01*
X475360Y705965D01*
X475244Y706550D01*
X474912Y707046D01*
X474416Y707377D01*
X473831Y707494D01*
D02*
G37*
G36*
X405500Y712529D02*
X404915Y712413D01*
X404419Y712081D01*
X404087Y711585D01*
X403971Y711000D01*
X404087Y710415D01*
X404419Y709919D01*
X404915Y709587D01*
X405500Y709471D01*
X406085Y709587D01*
X406581Y709919D01*
X406913Y710415D01*
X407029Y711000D01*
X406913Y711585D01*
X406581Y712081D01*
X406085Y712413D01*
X405500Y712529D01*
D02*
G37*
G36*
X426000Y703029D02*
X425415Y702913D01*
X424919Y702581D01*
X424587Y702085D01*
X424471Y701500D01*
X424587Y700915D01*
X424919Y700419D01*
X425415Y700087D01*
X426000Y699971D01*
X426585Y700087D01*
X427081Y700419D01*
X427413Y700915D01*
X427529Y701500D01*
X427413Y702085D01*
X427081Y702581D01*
X426585Y702913D01*
X426000Y703029D01*
D02*
G37*
G36*
X529500Y699029D02*
X528915Y698913D01*
X528419Y698581D01*
X528087Y698085D01*
X527971Y697500D01*
X528087Y696915D01*
X528419Y696419D01*
X528915Y696087D01*
X529500Y695971D01*
X530085Y696087D01*
X530581Y696419D01*
X530913Y696915D01*
X531029Y697500D01*
X530913Y698085D01*
X530581Y698581D01*
X530085Y698913D01*
X529500Y699029D01*
D02*
G37*
G36*
X518465Y705994D02*
X517879Y705877D01*
X517383Y705546D01*
X517052Y705050D01*
X516935Y704465D01*
X517052Y703879D01*
X517383Y703383D01*
X517879Y703052D01*
X518465Y702935D01*
X519050Y703052D01*
X519546Y703383D01*
X519877Y703879D01*
X519994Y704465D01*
X519877Y705050D01*
X519546Y705546D01*
X519050Y705877D01*
X518465Y705994D01*
D02*
G37*
G36*
X531500Y683529D02*
X530915Y683413D01*
X530419Y683081D01*
X530087Y682585D01*
X529971Y682000D01*
X530087Y681415D01*
X530419Y680919D01*
X530915Y680587D01*
X531500Y680471D01*
X532085Y680587D01*
X532581Y680919D01*
X532913Y681415D01*
X533029Y682000D01*
X532913Y682585D01*
X532581Y683081D01*
X532085Y683413D01*
X531500Y683529D01*
D02*
G37*
G36*
X513465Y660494D02*
X512879Y660378D01*
X512383Y660046D01*
X512052Y659550D01*
X511935Y658965D01*
X512052Y658379D01*
X512383Y657883D01*
X512879Y657552D01*
X513465Y657435D01*
X514050Y657552D01*
X514546Y657883D01*
X514878Y658379D01*
X514994Y658965D01*
X514878Y659550D01*
X514546Y660046D01*
X514050Y660378D01*
X513465Y660494D01*
D02*
G37*
G36*
X419976Y657006D02*
X419391Y656889D01*
X418895Y656558D01*
X418563Y656062D01*
X418447Y655476D01*
X418563Y654891D01*
X418895Y654395D01*
X419391Y654063D01*
X419976Y653947D01*
X420562Y654063D01*
X421058Y654395D01*
X421389Y654891D01*
X421506Y655476D01*
X421389Y656062D01*
X421058Y656558D01*
X420562Y656889D01*
X419976Y657006D01*
D02*
G37*
G36*
X396500Y663029D02*
X395915Y662913D01*
X395419Y662581D01*
X395087Y662085D01*
X394971Y661500D01*
X395087Y660915D01*
X395419Y660419D01*
X395915Y660087D01*
X396500Y659971D01*
X397085Y660087D01*
X397581Y660419D01*
X397913Y660915D01*
X398029Y661500D01*
X397913Y662085D01*
X397581Y662581D01*
X397085Y662913D01*
X396500Y663029D01*
D02*
G37*
G36*
X468409Y660620D02*
X467824Y660504D01*
X467328Y660172D01*
X466996Y659676D01*
X466880Y659091D01*
X466996Y658505D01*
X467328Y658009D01*
X467824Y657678D01*
X468409Y657561D01*
X468995Y657678D01*
X469491Y658009D01*
X469822Y658505D01*
X469939Y659091D01*
X469822Y659676D01*
X469491Y660172D01*
X468995Y660504D01*
X468409Y660620D01*
D02*
G37*
G36*
X423000Y681029D02*
X422415Y680913D01*
X421919Y680581D01*
X421587Y680085D01*
X421471Y679500D01*
X421587Y678915D01*
X421919Y678419D01*
X422415Y678087D01*
X423000Y677971D01*
X423585Y678087D01*
X424081Y678419D01*
X424413Y678915D01*
X424529Y679500D01*
X424413Y680085D01*
X424081Y680581D01*
X423585Y680913D01*
X423000Y681029D01*
D02*
G37*
G36*
X437000Y680529D02*
X436415Y680413D01*
X435919Y680081D01*
X435587Y679585D01*
X435471Y679000D01*
X435587Y678415D01*
X435919Y677919D01*
X436415Y677587D01*
X437000Y677471D01*
X437585Y677587D01*
X438081Y677919D01*
X438413Y678415D01*
X438529Y679000D01*
X438413Y679585D01*
X438081Y680081D01*
X437585Y680413D01*
X437000Y680529D01*
D02*
G37*
G36*
X562846Y664837D02*
X562261Y664720D01*
X561765Y664389D01*
X561433Y663892D01*
X561317Y663307D01*
X561433Y662722D01*
X561765Y662226D01*
X562261Y661894D01*
X562846Y661778D01*
X563432Y661894D01*
X563928Y662226D01*
X564259Y662722D01*
X564376Y663307D01*
X564259Y663892D01*
X563928Y664389D01*
X563432Y664720D01*
X562846Y664837D01*
D02*
G37*
G36*
X484000Y665029D02*
X483415Y664913D01*
X482919Y664581D01*
X482587Y664085D01*
X482471Y663500D01*
X482587Y662915D01*
X482919Y662419D01*
X483415Y662087D01*
X484000Y661971D01*
X484585Y662087D01*
X485081Y662419D01*
X485413Y662915D01*
X485529Y663500D01*
X485413Y664085D01*
X485081Y664581D01*
X484585Y664913D01*
X484000Y665029D01*
D02*
G37*
G36*
X458500Y1047029D02*
X457915Y1046913D01*
X457419Y1046581D01*
X457087Y1046085D01*
X456971Y1045500D01*
X457087Y1044915D01*
X457419Y1044419D01*
X457915Y1044087D01*
X458500Y1043971D01*
X459085Y1044087D01*
X459581Y1044419D01*
X459913Y1044915D01*
X460029Y1045500D01*
X459913Y1046085D01*
X459581Y1046581D01*
X459085Y1046913D01*
X458500Y1047029D01*
D02*
G37*
G36*
X486000Y1014529D02*
X485415Y1014413D01*
X484919Y1014081D01*
X484587Y1013585D01*
X484471Y1013000D01*
X484587Y1012415D01*
X484919Y1011919D01*
X485415Y1011587D01*
X486000Y1011471D01*
X486585Y1011587D01*
X487081Y1011919D01*
X487413Y1012415D01*
X487529Y1013000D01*
X487413Y1013585D01*
X487081Y1014081D01*
X486585Y1014413D01*
X486000Y1014529D01*
D02*
G37*
G36*
X442000Y1018029D02*
X441415Y1017913D01*
X440919Y1017581D01*
X440587Y1017085D01*
X440471Y1016500D01*
X440587Y1015915D01*
X440919Y1015419D01*
X441415Y1015087D01*
X442000Y1014971D01*
X442585Y1015087D01*
X443081Y1015419D01*
X443413Y1015915D01*
X443529Y1016500D01*
X443413Y1017085D01*
X443081Y1017581D01*
X442585Y1017913D01*
X442000Y1018029D01*
D02*
G37*
G36*
X486000Y1010529D02*
X485415Y1010413D01*
X484919Y1010081D01*
X484587Y1009585D01*
X484471Y1009000D01*
X484587Y1008415D01*
X484919Y1007919D01*
X485415Y1007587D01*
X486000Y1007471D01*
X486585Y1007587D01*
X487081Y1007919D01*
X487413Y1008415D01*
X487529Y1009000D01*
X487413Y1009585D01*
X487081Y1010081D01*
X486585Y1010413D01*
X486000Y1010529D01*
D02*
G37*
G36*
X457000Y1031029D02*
X456415Y1030913D01*
X455919Y1030581D01*
X455587Y1030085D01*
X455471Y1029500D01*
X455587Y1028915D01*
X455919Y1028419D01*
X456415Y1028087D01*
X457000Y1027971D01*
X457585Y1028087D01*
X458081Y1028419D01*
X458413Y1028915D01*
X458529Y1029500D01*
X458413Y1030085D01*
X458081Y1030581D01*
X457585Y1030913D01*
X457000Y1031029D01*
D02*
G37*
G36*
X416305Y1037335D02*
X415720Y1037218D01*
X415224Y1036887D01*
X414892Y1036390D01*
X414776Y1035805D01*
X414892Y1035220D01*
X415224Y1034724D01*
X415720Y1034392D01*
X416305Y1034276D01*
X416890Y1034392D01*
X417386Y1034724D01*
X417718Y1035220D01*
X417835Y1035805D01*
X417718Y1036390D01*
X417386Y1036887D01*
X416890Y1037218D01*
X416305Y1037335D01*
D02*
G37*
G36*
X438000Y1022029D02*
X437415Y1021913D01*
X436919Y1021581D01*
X436587Y1021085D01*
X436471Y1020500D01*
X436587Y1019915D01*
X436919Y1019419D01*
X437415Y1019087D01*
X438000Y1018971D01*
X438585Y1019087D01*
X439081Y1019419D01*
X439413Y1019915D01*
X439529Y1020500D01*
X439413Y1021085D01*
X439081Y1021581D01*
X438585Y1021913D01*
X438000Y1022029D01*
D02*
G37*
G36*
X486000Y1024529D02*
X485415Y1024413D01*
X484919Y1024081D01*
X484587Y1023585D01*
X484471Y1023000D01*
X484587Y1022415D01*
X484919Y1021919D01*
X485415Y1021587D01*
X486000Y1021471D01*
X486585Y1021587D01*
X487081Y1021919D01*
X487413Y1022415D01*
X487529Y1023000D01*
X487413Y1023585D01*
X487081Y1024081D01*
X486585Y1024413D01*
X486000Y1024529D01*
D02*
G37*
G36*
X284000Y868029D02*
X283415Y867913D01*
X282919Y867581D01*
X282587Y867085D01*
X282471Y866500D01*
X282587Y865915D01*
X282919Y865419D01*
X283415Y865087D01*
X284000Y864971D01*
X284585Y865087D01*
X285081Y865419D01*
X285413Y865915D01*
X285529Y866500D01*
X285413Y867085D01*
X285081Y867581D01*
X284585Y867913D01*
X284000Y868029D01*
D02*
G37*
G36*
X410000Y874029D02*
X409415Y873913D01*
X408919Y873581D01*
X408587Y873085D01*
X408471Y872500D01*
X408587Y871915D01*
X408919Y871419D01*
X409415Y871087D01*
X410000Y870971D01*
X410585Y871087D01*
X411081Y871419D01*
X411413Y871915D01*
X411529Y872500D01*
X411413Y873085D01*
X411081Y873581D01*
X410585Y873913D01*
X410000Y874029D01*
D02*
G37*
G36*
X408500Y903029D02*
X407915Y902913D01*
X407419Y902581D01*
X407087Y902085D01*
X406971Y901500D01*
X407087Y900915D01*
X407419Y900419D01*
X407915Y900087D01*
X408500Y899971D01*
X409085Y900087D01*
X409581Y900419D01*
X409913Y900915D01*
X410029Y901500D01*
X409913Y902085D01*
X409581Y902581D01*
X409085Y902913D01*
X408500Y903029D01*
D02*
G37*
G36*
X450500Y985029D02*
X449915Y984913D01*
X449419Y984581D01*
X449087Y984085D01*
X448971Y983500D01*
X449087Y982915D01*
X449419Y982419D01*
X449915Y982087D01*
X450500Y981971D01*
X451085Y982087D01*
X451581Y982419D01*
X451913Y982915D01*
X452029Y983500D01*
X451913Y984085D01*
X451581Y984581D01*
X451085Y984913D01*
X450500Y985029D01*
D02*
G37*
G36*
X463665Y968951D02*
X463080Y968834D01*
X462584Y968503D01*
X462252Y968007D01*
X462136Y967421D01*
X462252Y966836D01*
X462584Y966340D01*
X463080Y966008D01*
X463665Y965892D01*
X464251Y966008D01*
X464747Y966340D01*
X465078Y966836D01*
X465195Y967421D01*
X465078Y968007D01*
X464747Y968503D01*
X464251Y968834D01*
X463665Y968951D01*
D02*
G37*
G36*
X437943Y992575D02*
X437358Y992458D01*
X436861Y992127D01*
X436530Y991631D01*
X436413Y991045D01*
X436530Y990460D01*
X436861Y989964D01*
X437358Y989632D01*
X437943Y989516D01*
X438528Y989632D01*
X439024Y989964D01*
X439356Y990460D01*
X439472Y991045D01*
X439356Y991631D01*
X439024Y992127D01*
X438528Y992458D01*
X437943Y992575D01*
D02*
G37*
G36*
X486000Y1004029D02*
X485415Y1003913D01*
X484919Y1003581D01*
X484587Y1003085D01*
X484471Y1002500D01*
X484587Y1001915D01*
X484919Y1001419D01*
X485415Y1001087D01*
X486000Y1000971D01*
X486585Y1001087D01*
X487081Y1001419D01*
X487413Y1001915D01*
X487529Y1002500D01*
X487413Y1003085D01*
X487081Y1003581D01*
X486585Y1003913D01*
X486000Y1004029D01*
D02*
G37*
G36*
X443665Y968951D02*
X443080Y968834D01*
X442584Y968503D01*
X442252Y968007D01*
X442136Y967421D01*
X442252Y966836D01*
X442584Y966340D01*
X443080Y966008D01*
X443665Y965892D01*
X444251Y966008D01*
X444747Y966340D01*
X445078Y966836D01*
X445195Y967421D01*
X445078Y968007D01*
X444747Y968503D01*
X444251Y968834D01*
X443665Y968951D01*
D02*
G37*
G36*
X438665D02*
X438080Y968834D01*
X437584Y968503D01*
X437252Y968007D01*
X437136Y967421D01*
X437252Y966836D01*
X437584Y966340D01*
X438080Y966008D01*
X438665Y965892D01*
X439251Y966008D01*
X439747Y966340D01*
X440078Y966836D01*
X440195Y967421D01*
X440078Y968007D01*
X439747Y968503D01*
X439251Y968834D01*
X438665Y968951D01*
D02*
G37*
G36*
X433665D02*
X433080Y968834D01*
X432584Y968503D01*
X432252Y968007D01*
X432136Y967421D01*
X432252Y966836D01*
X432584Y966340D01*
X433080Y966008D01*
X433665Y965892D01*
X434251Y966008D01*
X434747Y966340D01*
X435078Y966836D01*
X435195Y967421D01*
X435078Y968007D01*
X434747Y968503D01*
X434251Y968834D01*
X433665Y968951D01*
D02*
G37*
G36*
X458665D02*
X458080Y968834D01*
X457584Y968503D01*
X457252Y968007D01*
X457136Y967421D01*
X457252Y966836D01*
X457584Y966340D01*
X458080Y966008D01*
X458665Y965892D01*
X459251Y966008D01*
X459747Y966340D01*
X460078Y966836D01*
X460195Y967421D01*
X460078Y968007D01*
X459747Y968503D01*
X459251Y968834D01*
X458665Y968951D01*
D02*
G37*
G36*
X453665D02*
X453080Y968834D01*
X452584Y968503D01*
X452252Y968007D01*
X452136Y967421D01*
X452252Y966836D01*
X452584Y966340D01*
X453080Y966008D01*
X453665Y965892D01*
X454251Y966008D01*
X454747Y966340D01*
X455078Y966836D01*
X455195Y967421D01*
X455078Y968007D01*
X454747Y968503D01*
X454251Y968834D01*
X453665Y968951D01*
D02*
G37*
G36*
X448665D02*
X448080Y968834D01*
X447584Y968503D01*
X447252Y968007D01*
X447136Y967421D01*
X447252Y966836D01*
X447584Y966340D01*
X448080Y966008D01*
X448665Y965892D01*
X449251Y966008D01*
X449747Y966340D01*
X450078Y966836D01*
X450195Y967421D01*
X450078Y968007D01*
X449747Y968503D01*
X449251Y968834D01*
X448665Y968951D01*
D02*
G37*
G36*
X428665D02*
X428080Y968834D01*
X427584Y968503D01*
X427252Y968007D01*
X427136Y967421D01*
X427252Y966836D01*
X427584Y966340D01*
X428080Y966008D01*
X428665Y965892D01*
X429251Y966008D01*
X429747Y966340D01*
X430078Y966836D01*
X430195Y967421D01*
X430078Y968007D01*
X429747Y968503D01*
X429251Y968834D01*
X428665Y968951D01*
D02*
G37*
G36*
X423665D02*
X423080Y968834D01*
X422584Y968503D01*
X422252Y968007D01*
X422136Y967421D01*
X422252Y966836D01*
X422584Y966340D01*
X423080Y966008D01*
X423665Y965892D01*
X424251Y966008D01*
X424747Y966340D01*
X425078Y966836D01*
X425195Y967421D01*
X425078Y968007D01*
X424747Y968503D01*
X424251Y968834D01*
X423665Y968951D01*
D02*
G37*
G36*
X211378Y777017D02*
X210415Y776825D01*
X209598Y776280D01*
X209053Y775463D01*
X208861Y774500D01*
X209053Y773537D01*
X209598Y772720D01*
X210415Y772175D01*
X211378Y771983D01*
X212341Y772175D01*
X213158Y772720D01*
X213703Y773537D01*
X213895Y774500D01*
X213703Y775463D01*
X213158Y776280D01*
X212341Y776825D01*
X211378Y777017D01*
D02*
G37*
G36*
X235000D02*
X234037Y776825D01*
X233220Y776280D01*
X232675Y775463D01*
X232483Y774500D01*
X232675Y773537D01*
X233220Y772720D01*
X234037Y772175D01*
X235000Y771983D01*
X235963Y772175D01*
X236780Y772720D01*
X237325Y773537D01*
X237517Y774500D01*
X237325Y775463D01*
X236780Y776280D01*
X235963Y776825D01*
X235000Y777017D01*
D02*
G37*
G36*
X245500Y774029D02*
X244915Y773913D01*
X244419Y773581D01*
X244087Y773085D01*
X243971Y772500D01*
X244087Y771915D01*
X244419Y771419D01*
X244915Y771087D01*
X245500Y770971D01*
X246085Y771087D01*
X246581Y771419D01*
X246913Y771915D01*
X247029Y772500D01*
X246913Y773085D01*
X246581Y773581D01*
X246085Y773913D01*
X245500Y774029D01*
D02*
G37*
G36*
X223189Y793542D02*
X222275Y793422D01*
X221424Y793069D01*
X220693Y792508D01*
X220132Y791777D01*
X219779Y790926D01*
X219659Y790012D01*
X219779Y789098D01*
X220132Y788247D01*
X220693Y787516D01*
X221424Y786955D01*
X222275Y786602D01*
X223189Y786482D01*
X224103Y786602D01*
X224954Y786955D01*
X225685Y787516D01*
X226246Y788247D01*
X226599Y789098D01*
X226719Y790012D01*
X226599Y790926D01*
X226246Y791777D01*
X225685Y792508D01*
X224954Y793069D01*
X224103Y793422D01*
X223189Y793542D01*
D02*
G37*
G36*
X220492Y852514D02*
X219907Y852397D01*
X219411Y852066D01*
X219079Y851569D01*
X218963Y850984D01*
X219079Y850399D01*
X219411Y849903D01*
X219907Y849571D01*
X220492Y849455D01*
X221077Y849571D01*
X221574Y849903D01*
X221905Y850399D01*
X222022Y850984D01*
X221905Y851569D01*
X221574Y852066D01*
X221077Y852397D01*
X220492Y852514D01*
D02*
G37*
G36*
X224342Y817931D02*
X223757Y817815D01*
X223261Y817483D01*
X222930Y816987D01*
X222813Y816402D01*
X222930Y815816D01*
X223261Y815320D01*
X223757Y814989D01*
X224342Y814872D01*
X224928Y814989D01*
X225424Y815320D01*
X225756Y815816D01*
X225872Y816402D01*
X225756Y816987D01*
X225424Y817483D01*
X224928Y817815D01*
X224342Y817931D01*
D02*
G37*
G36*
X226842Y805931D02*
X226257Y805814D01*
X225761Y805483D01*
X225430Y804987D01*
X225313Y804402D01*
X225430Y803816D01*
X225761Y803320D01*
X226257Y802989D01*
X226842Y802872D01*
X227428Y802989D01*
X227924Y803320D01*
X228256Y803816D01*
X228372Y804402D01*
X228256Y804987D01*
X227924Y805483D01*
X227428Y805814D01*
X226842Y805931D01*
D02*
G37*
G36*
X253343Y805431D02*
X252757Y805315D01*
X252261Y804983D01*
X251930Y804487D01*
X251813Y803902D01*
X251930Y803316D01*
X252261Y802820D01*
X252757Y802489D01*
X253343Y802372D01*
X253928Y802489D01*
X254424Y802820D01*
X254755Y803316D01*
X254872Y803902D01*
X254755Y804487D01*
X254424Y804983D01*
X253928Y805315D01*
X253343Y805431D01*
D02*
G37*
G36*
X242843Y804931D02*
X242257Y804815D01*
X241761Y804483D01*
X241430Y803987D01*
X241313Y803402D01*
X241430Y802816D01*
X241761Y802320D01*
X242257Y801989D01*
X242843Y801872D01*
X243428Y801989D01*
X243924Y802320D01*
X244255Y802816D01*
X244372Y803402D01*
X244255Y803987D01*
X243924Y804483D01*
X243428Y804815D01*
X242843Y804931D01*
D02*
G37*
G36*
X243342Y793931D02*
X242757Y793815D01*
X242261Y793483D01*
X241930Y792987D01*
X241813Y792402D01*
X241930Y791816D01*
X242261Y791320D01*
X242757Y790989D01*
X243342Y790872D01*
X243928Y790989D01*
X244424Y791320D01*
X244756Y791816D01*
X244872Y792402D01*
X244756Y792987D01*
X244424Y793483D01*
X243928Y793815D01*
X243342Y793931D01*
D02*
G37*
G36*
X242342Y814431D02*
X241757Y814314D01*
X241261Y813983D01*
X240930Y813487D01*
X240813Y812902D01*
X240930Y812316D01*
X241261Y811820D01*
X241757Y811489D01*
X242342Y811372D01*
X242928Y811489D01*
X243424Y811820D01*
X243756Y812316D01*
X243872Y812902D01*
X243756Y813487D01*
X243424Y813983D01*
X242928Y814314D01*
X242342Y814431D01*
D02*
G37*
G36*
X252378Y812703D02*
X251793Y812586D01*
X251296Y812255D01*
X250965Y811759D01*
X250849Y811173D01*
X250965Y810588D01*
X251296Y810092D01*
X251793Y809760D01*
X252378Y809644D01*
X252963Y809760D01*
X253459Y810092D01*
X253791Y810588D01*
X253907Y811173D01*
X253791Y811759D01*
X253459Y812255D01*
X252963Y812586D01*
X252378Y812703D01*
D02*
G37*
G36*
X240315Y700318D02*
X239260Y700179D01*
X238276Y699772D01*
X237431Y699124D01*
X236783Y698279D01*
X236376Y697296D01*
X236237Y696240D01*
X236376Y695185D01*
X236783Y694201D01*
X237431Y693356D01*
X238276Y692708D01*
X239260Y692301D01*
X240315Y692162D01*
X241371Y692301D01*
X242354Y692708D01*
X243199Y693356D01*
X243847Y694201D01*
X244254Y695185D01*
X244393Y696240D01*
X244254Y697296D01*
X243847Y698279D01*
X243199Y699124D01*
X242354Y699772D01*
X241371Y700179D01*
X240315Y700318D01*
D02*
G37*
G36*
X261000Y715029D02*
X260415Y714913D01*
X259919Y714581D01*
X259587Y714085D01*
X259471Y713500D01*
X259587Y712915D01*
X259919Y712419D01*
X260415Y712087D01*
X261000Y711971D01*
X261585Y712087D01*
X262081Y712419D01*
X262413Y712915D01*
X262529Y713500D01*
X262413Y714085D01*
X262081Y714581D01*
X261585Y714913D01*
X261000Y715029D01*
D02*
G37*
G36*
X262343Y704931D02*
X261757Y704814D01*
X261261Y704483D01*
X260930Y703987D01*
X260813Y703402D01*
X260930Y702816D01*
X261261Y702320D01*
X261757Y701989D01*
X262343Y701872D01*
X262928Y701989D01*
X263424Y702320D01*
X263755Y702816D01*
X263872Y703402D01*
X263755Y703987D01*
X263424Y704483D01*
X262928Y704814D01*
X262343Y704931D01*
D02*
G37*
G36*
X252126Y704647D02*
X251541Y704531D01*
X251045Y704200D01*
X250713Y703703D01*
X250597Y703118D01*
X250713Y702533D01*
X251045Y702037D01*
X251541Y701705D01*
X252126Y701589D01*
X252711Y701705D01*
X253207Y702037D01*
X253539Y702533D01*
X253655Y703118D01*
X253539Y703703D01*
X253207Y704200D01*
X252711Y704531D01*
X252126Y704647D01*
D02*
G37*
G36*
X215992Y867014D02*
X215407Y866897D01*
X214911Y866566D01*
X214579Y866070D01*
X214463Y865484D01*
X214579Y864899D01*
X214911Y864403D01*
X215407Y864071D01*
X215992Y863955D01*
X216577Y864071D01*
X217074Y864403D01*
X217405Y864899D01*
X217522Y865484D01*
X217405Y866070D01*
X217074Y866566D01*
X216577Y866897D01*
X215992Y867014D01*
D02*
G37*
G36*
X227492Y1050014D02*
X226907Y1049897D01*
X226411Y1049566D01*
X226079Y1049069D01*
X225963Y1048484D01*
X226079Y1047899D01*
X226411Y1047403D01*
X226907Y1047071D01*
X227492Y1046955D01*
X228077Y1047071D01*
X228574Y1047403D01*
X228905Y1047899D01*
X229022Y1048484D01*
X228905Y1049069D01*
X228574Y1049566D01*
X228077Y1049897D01*
X227492Y1050014D01*
D02*
G37*
G36*
X215992Y1054514D02*
X215407Y1054397D01*
X214911Y1054066D01*
X214579Y1053570D01*
X214463Y1052984D01*
X214579Y1052399D01*
X214911Y1051903D01*
X215407Y1051571D01*
X215992Y1051455D01*
X216577Y1051571D01*
X217074Y1051903D01*
X217405Y1052399D01*
X217522Y1052984D01*
X217405Y1053570D01*
X217074Y1054066D01*
X216577Y1054397D01*
X215992Y1054514D01*
D02*
G37*
G36*
X495500Y1047029D02*
X494915Y1046913D01*
X494419Y1046581D01*
X494087Y1046085D01*
X493971Y1045500D01*
X494087Y1044915D01*
X494419Y1044419D01*
X494915Y1044087D01*
X495500Y1043971D01*
X496085Y1044087D01*
X496581Y1044419D01*
X496913Y1044915D01*
X497029Y1045500D01*
X496913Y1046085D01*
X496581Y1046581D01*
X496085Y1046913D01*
X495500Y1047029D01*
D02*
G37*
G36*
X498976Y1010553D02*
X498391Y1010437D01*
X497895Y1010105D01*
X497563Y1009609D01*
X497447Y1009024D01*
X497563Y1008438D01*
X497895Y1007942D01*
X498391Y1007611D01*
X498976Y1007494D01*
X499562Y1007611D01*
X500058Y1007942D01*
X500389Y1008438D01*
X500506Y1009024D01*
X500389Y1009609D01*
X500058Y1010105D01*
X499562Y1010437D01*
X498976Y1010553D01*
D02*
G37*
G36*
X560500Y1022999D02*
X559586Y1022878D01*
X558735Y1022526D01*
X558004Y1021965D01*
X557443Y1021234D01*
X557090Y1020382D01*
X556970Y1019468D01*
X557090Y1018555D01*
X557443Y1017703D01*
X558004Y1016972D01*
X558735Y1016411D01*
X559586Y1016059D01*
X560500Y1015938D01*
X561414Y1016059D01*
X562265Y1016411D01*
X562996Y1016972D01*
X563557Y1017703D01*
X563910Y1018555D01*
X564030Y1019468D01*
X563910Y1020382D01*
X563557Y1021234D01*
X562996Y1021965D01*
X562265Y1022526D01*
X561414Y1022878D01*
X560500Y1022999D01*
D02*
G37*
G36*
X499000Y1015529D02*
X498415Y1015413D01*
X497919Y1015081D01*
X497587Y1014585D01*
X497471Y1014000D01*
X497587Y1013415D01*
X497919Y1012919D01*
X498415Y1012587D01*
X499000Y1012471D01*
X499585Y1012587D01*
X500081Y1012919D01*
X500413Y1013415D01*
X500529Y1014000D01*
X500413Y1014585D01*
X500081Y1015081D01*
X499585Y1015413D01*
X499000Y1015529D01*
D02*
G37*
G36*
X269342Y1008931D02*
X268757Y1008815D01*
X268261Y1008483D01*
X267930Y1007987D01*
X267813Y1007402D01*
X267930Y1006816D01*
X268261Y1006320D01*
X268757Y1005989D01*
X269342Y1005872D01*
X269928Y1005989D01*
X270424Y1006320D01*
X270756Y1006816D01*
X270872Y1007402D01*
X270756Y1007987D01*
X270424Y1008483D01*
X269928Y1008815D01*
X269342Y1008931D01*
D02*
G37*
G36*
X516000Y1010029D02*
X515415Y1009913D01*
X514919Y1009581D01*
X514587Y1009085D01*
X514471Y1008500D01*
X514587Y1007915D01*
X514919Y1007419D01*
X515415Y1007087D01*
X516000Y1006971D01*
X516585Y1007087D01*
X517081Y1007419D01*
X517413Y1007915D01*
X517529Y1008500D01*
X517413Y1009085D01*
X517081Y1009581D01*
X516585Y1009913D01*
X516000Y1010029D01*
D02*
G37*
G36*
X215492Y1033014D02*
X214907Y1032897D01*
X214411Y1032566D01*
X214079Y1032069D01*
X213963Y1031484D01*
X214079Y1030899D01*
X214411Y1030403D01*
X214907Y1030071D01*
X215492Y1029955D01*
X216077Y1030071D01*
X216574Y1030403D01*
X216905Y1030899D01*
X217021Y1031484D01*
X216905Y1032069D01*
X216574Y1032566D01*
X216077Y1032897D01*
X215492Y1033014D01*
D02*
G37*
G36*
X226992Y1032514D02*
X226407Y1032397D01*
X225911Y1032066D01*
X225579Y1031569D01*
X225463Y1030984D01*
X225579Y1030399D01*
X225911Y1029903D01*
X226407Y1029571D01*
X226992Y1029455D01*
X227577Y1029571D01*
X228074Y1029903D01*
X228405Y1030399D01*
X228521Y1030984D01*
X228405Y1031569D01*
X228074Y1032066D01*
X227577Y1032397D01*
X226992Y1032514D01*
D02*
G37*
G36*
X517000Y1028529D02*
X516415Y1028413D01*
X515919Y1028081D01*
X515587Y1027585D01*
X515471Y1027000D01*
X515587Y1026415D01*
X515919Y1025919D01*
X516415Y1025587D01*
X517000Y1025471D01*
X517585Y1025587D01*
X518081Y1025919D01*
X518413Y1026415D01*
X518529Y1027000D01*
X518413Y1027585D01*
X518081Y1028081D01*
X517585Y1028413D01*
X517000Y1028529D01*
D02*
G37*
G36*
X600098Y1135003D02*
X599043Y1134864D01*
X598059Y1134457D01*
X597215Y1133809D01*
X596567Y1132964D01*
X596159Y1131981D01*
X596020Y1130925D01*
X596159Y1129870D01*
X596567Y1128886D01*
X597215Y1128041D01*
X598059Y1127393D01*
X599043Y1126986D01*
X600098Y1126847D01*
X601154Y1126986D01*
X602138Y1127393D01*
X602982Y1128041D01*
X603630Y1128886D01*
X604038Y1129870D01*
X604177Y1130925D01*
X604038Y1131981D01*
X603630Y1132964D01*
X602982Y1133809D01*
X602138Y1134457D01*
X601154Y1134864D01*
X600098Y1135003D01*
D02*
G37*
G36*
X590098D02*
X589043Y1134864D01*
X588059Y1134457D01*
X587215Y1133809D01*
X586567Y1132964D01*
X586159Y1131981D01*
X586020Y1130925D01*
X586159Y1129870D01*
X586567Y1128886D01*
X587215Y1128041D01*
X588059Y1127393D01*
X589043Y1126986D01*
X590098Y1126847D01*
X591154Y1126986D01*
X592137Y1127393D01*
X592982Y1128041D01*
X593630Y1128886D01*
X594038Y1129870D01*
X594177Y1130925D01*
X594038Y1131981D01*
X593630Y1132964D01*
X592982Y1133809D01*
X592137Y1134457D01*
X591154Y1134864D01*
X590098Y1135003D01*
D02*
G37*
G36*
X558598Y1134503D02*
X557543Y1134364D01*
X556559Y1133957D01*
X555715Y1133309D01*
X555067Y1132464D01*
X554659Y1131481D01*
X554520Y1130425D01*
X554659Y1129370D01*
X555067Y1128386D01*
X555715Y1127542D01*
X556559Y1126893D01*
X557543Y1126486D01*
X558598Y1126347D01*
X559654Y1126486D01*
X560638Y1126893D01*
X561482Y1127542D01*
X562130Y1128386D01*
X562538Y1129370D01*
X562677Y1130425D01*
X562538Y1131481D01*
X562130Y1132464D01*
X561482Y1133309D01*
X560638Y1133957D01*
X559654Y1134364D01*
X558598Y1134503D01*
D02*
G37*
G36*
X503594Y1136530D02*
X502681Y1136410D01*
X501829Y1136057D01*
X501098Y1135496D01*
X500537Y1134765D01*
X500185Y1133914D01*
X500064Y1133000D01*
X500185Y1132086D01*
X500537Y1131235D01*
X501098Y1130504D01*
X501829Y1129943D01*
X502681Y1129590D01*
X503594Y1129470D01*
X504508Y1129590D01*
X505360Y1129943D01*
X506091Y1130504D01*
X506652Y1131235D01*
X507004Y1132086D01*
X507125Y1133000D01*
X507004Y1133914D01*
X506652Y1134765D01*
X506091Y1135496D01*
X505360Y1136057D01*
X504508Y1136410D01*
X503594Y1136530D01*
D02*
G37*
G36*
X421594D02*
X420681Y1136410D01*
X419829Y1136057D01*
X419098Y1135496D01*
X418537Y1134765D01*
X418185Y1133914D01*
X418064Y1133000D01*
X418185Y1132086D01*
X418537Y1131235D01*
X419098Y1130504D01*
X419829Y1129943D01*
X420681Y1129590D01*
X421594Y1129470D01*
X422508Y1129590D01*
X423360Y1129943D01*
X424091Y1130504D01*
X424652Y1131235D01*
X425004Y1132086D01*
X425125Y1133000D01*
X425004Y1133914D01*
X424652Y1134765D01*
X424091Y1135496D01*
X423360Y1136057D01*
X422508Y1136410D01*
X421594Y1136530D01*
D02*
G37*
G36*
X519106Y1123706D02*
X518143Y1123514D01*
X517327Y1122969D01*
X516781Y1122152D01*
X516589Y1121189D01*
X516781Y1120226D01*
X517327Y1119409D01*
X518143Y1118864D01*
X519106Y1118672D01*
X520070Y1118864D01*
X520886Y1119409D01*
X521432Y1120226D01*
X521623Y1121189D01*
X521432Y1122152D01*
X520886Y1122969D01*
X520070Y1123514D01*
X519106Y1123706D01*
D02*
G37*
G36*
X548598Y1134503D02*
X547543Y1134364D01*
X546559Y1133957D01*
X545715Y1133309D01*
X545067Y1132464D01*
X544659Y1131481D01*
X544520Y1130425D01*
X544659Y1129370D01*
X545067Y1128386D01*
X545715Y1127542D01*
X546559Y1126893D01*
X547543Y1126486D01*
X548598Y1126347D01*
X549654Y1126486D01*
X550637Y1126893D01*
X551482Y1127542D01*
X552130Y1128386D01*
X552538Y1129370D01*
X552677Y1130425D01*
X552538Y1131481D01*
X552130Y1132464D01*
X551482Y1133309D01*
X550637Y1133957D01*
X549654Y1134364D01*
X548598Y1134503D01*
D02*
G37*
G36*
X519106Y1147328D02*
X518143Y1147136D01*
X517327Y1146591D01*
X516781Y1145774D01*
X516589Y1144811D01*
X516781Y1143848D01*
X517327Y1143031D01*
X518143Y1142486D01*
X519106Y1142294D01*
X520070Y1142486D01*
X520886Y1143031D01*
X521432Y1143848D01*
X521623Y1144811D01*
X521432Y1145774D01*
X520886Y1146591D01*
X520070Y1147136D01*
X519106Y1147328D01*
D02*
G37*
G36*
X479106D02*
X478143Y1147136D01*
X477327Y1146591D01*
X476781Y1145774D01*
X476589Y1144811D01*
X476781Y1143848D01*
X477327Y1143031D01*
X478143Y1142486D01*
X479106Y1142294D01*
X480069Y1142486D01*
X480886Y1143031D01*
X481432Y1143848D01*
X481623Y1144811D01*
X481432Y1145774D01*
X480886Y1146591D01*
X480069Y1147136D01*
X479106Y1147328D01*
D02*
G37*
G36*
X437106D02*
X436143Y1147136D01*
X435327Y1146591D01*
X434781Y1145774D01*
X434589Y1144811D01*
X434781Y1143848D01*
X435327Y1143031D01*
X436143Y1142486D01*
X437106Y1142294D01*
X438069Y1142486D01*
X438886Y1143031D01*
X439432Y1143848D01*
X439623Y1144811D01*
X439432Y1145774D01*
X438886Y1146591D01*
X438069Y1147136D01*
X437106Y1147328D01*
D02*
G37*
G36*
X448000Y1154029D02*
X447415Y1153913D01*
X446919Y1153581D01*
X446587Y1153085D01*
X446471Y1152500D01*
X446587Y1151915D01*
X446919Y1151419D01*
X447415Y1151087D01*
X448000Y1150971D01*
X448585Y1151087D01*
X449081Y1151419D01*
X449413Y1151915D01*
X449529Y1152500D01*
X449413Y1153085D01*
X449081Y1153581D01*
X448585Y1153913D01*
X448000Y1154029D01*
D02*
G37*
G36*
X529000Y1150529D02*
X528415Y1150413D01*
X527919Y1150081D01*
X527587Y1149585D01*
X527471Y1149000D01*
X527587Y1148415D01*
X527919Y1147919D01*
X528415Y1147587D01*
X529000Y1147471D01*
X529585Y1147587D01*
X530081Y1147919D01*
X530413Y1148415D01*
X530529Y1149000D01*
X530413Y1149585D01*
X530081Y1150081D01*
X529585Y1150413D01*
X529000Y1150529D01*
D02*
G37*
G36*
X397106Y1147828D02*
X396143Y1147636D01*
X395327Y1147091D01*
X394781Y1146274D01*
X394589Y1145311D01*
X394781Y1144348D01*
X395327Y1143531D01*
X396143Y1142986D01*
X397106Y1142794D01*
X398070Y1142986D01*
X398886Y1143531D01*
X399432Y1144348D01*
X399623Y1145311D01*
X399432Y1146274D01*
X398886Y1147091D01*
X398070Y1147636D01*
X397106Y1147828D01*
D02*
G37*
G36*
X270500Y1140529D02*
X269915Y1140413D01*
X269419Y1140081D01*
X269087Y1139585D01*
X268971Y1139000D01*
X269087Y1138415D01*
X269419Y1137919D01*
X269915Y1137587D01*
X270500Y1137471D01*
X271085Y1137587D01*
X271581Y1137919D01*
X271913Y1138415D01*
X272029Y1139000D01*
X271913Y1139585D01*
X271581Y1140081D01*
X271085Y1140413D01*
X270500Y1140529D01*
D02*
G37*
G36*
X381594Y1137030D02*
X380681Y1136910D01*
X379829Y1136557D01*
X379098Y1135996D01*
X378537Y1135265D01*
X378185Y1134414D01*
X378064Y1133500D01*
X378185Y1132586D01*
X378537Y1131735D01*
X379098Y1131004D01*
X379829Y1130443D01*
X380681Y1130090D01*
X381594Y1129970D01*
X382508Y1130090D01*
X383360Y1130443D01*
X384091Y1131004D01*
X384652Y1131735D01*
X385004Y1132586D01*
X385125Y1133500D01*
X385004Y1134414D01*
X384652Y1135265D01*
X384091Y1135996D01*
X383360Y1136557D01*
X382508Y1136910D01*
X381594Y1137030D01*
D02*
G37*
G36*
X255500Y1149578D02*
X254445Y1149439D01*
X253461Y1149032D01*
X252616Y1148384D01*
X251968Y1147539D01*
X251561Y1146556D01*
X251422Y1145500D01*
X251561Y1144444D01*
X251968Y1143461D01*
X252616Y1142616D01*
X253461Y1141968D01*
X254445Y1141561D01*
X255500Y1141422D01*
X256556Y1141561D01*
X257539Y1141968D01*
X258384Y1142616D01*
X259032Y1143461D01*
X259439Y1144444D01*
X259578Y1145500D01*
X259439Y1146556D01*
X259032Y1147539D01*
X258384Y1148384D01*
X257539Y1149032D01*
X256556Y1149439D01*
X255500Y1149578D01*
D02*
G37*
G36*
X245500D02*
X244444Y1149439D01*
X243461Y1149032D01*
X242616Y1148384D01*
X241968Y1147539D01*
X241561Y1146556D01*
X241422Y1145500D01*
X241561Y1144444D01*
X241968Y1143461D01*
X242616Y1142616D01*
X243461Y1141968D01*
X244444Y1141561D01*
X245500Y1141422D01*
X246555Y1141561D01*
X247539Y1141968D01*
X248384Y1142616D01*
X249032Y1143461D01*
X249439Y1144444D01*
X249578Y1145500D01*
X249439Y1146556D01*
X249032Y1147539D01*
X248384Y1148384D01*
X247539Y1149032D01*
X246555Y1149439D01*
X245500Y1149578D01*
D02*
G37*
G36*
X235500D02*
X234444Y1149439D01*
X233461Y1149032D01*
X232616Y1148384D01*
X231968Y1147539D01*
X231561Y1146556D01*
X231422Y1145500D01*
X231561Y1144444D01*
X231968Y1143461D01*
X232616Y1142616D01*
X233461Y1141968D01*
X234444Y1141561D01*
X235500Y1141422D01*
X236556Y1141561D01*
X237539Y1141968D01*
X238384Y1142616D01*
X239032Y1143461D01*
X239439Y1144444D01*
X239578Y1145500D01*
X239439Y1146556D01*
X239032Y1147539D01*
X238384Y1148384D01*
X237539Y1149032D01*
X236556Y1149439D01*
X235500Y1149578D01*
D02*
G37*
G36*
X234811Y1089911D02*
X233848Y1089719D01*
X233031Y1089173D01*
X232486Y1088357D01*
X232294Y1087394D01*
X232486Y1086430D01*
X233031Y1085614D01*
X233848Y1085068D01*
X234811Y1084877D01*
X235774Y1085068D01*
X236591Y1085614D01*
X237136Y1086430D01*
X237328Y1087394D01*
X237136Y1088357D01*
X236591Y1089173D01*
X235774Y1089719D01*
X234811Y1089911D01*
D02*
G37*
G36*
X211189D02*
X210226Y1089719D01*
X209409Y1089173D01*
X208864Y1088357D01*
X208672Y1087394D01*
X208864Y1086430D01*
X209409Y1085614D01*
X210226Y1085068D01*
X211189Y1084877D01*
X212152Y1085068D01*
X212969Y1085614D01*
X213514Y1086430D01*
X213706Y1087394D01*
X213514Y1088357D01*
X212969Y1089173D01*
X212152Y1089719D01*
X211189Y1089911D01*
D02*
G37*
G36*
X223000Y1106436D02*
X222086Y1106315D01*
X221235Y1105963D01*
X220504Y1105402D01*
X219943Y1104671D01*
X219590Y1103819D01*
X219470Y1102905D01*
X219590Y1101992D01*
X219943Y1101140D01*
X220504Y1100409D01*
X221235Y1099848D01*
X222086Y1099496D01*
X223000Y1099375D01*
X223914Y1099496D01*
X224765Y1099848D01*
X225496Y1100409D01*
X226057Y1101140D01*
X226410Y1101992D01*
X226530Y1102905D01*
X226410Y1103819D01*
X226057Y1104671D01*
X225496Y1105402D01*
X224765Y1105963D01*
X223914Y1106315D01*
X223000Y1106436D01*
D02*
G37*
G36*
X496500Y1117029D02*
X495915Y1116913D01*
X495419Y1116581D01*
X495087Y1116085D01*
X494971Y1115500D01*
X495087Y1114915D01*
X495419Y1114419D01*
X495915Y1114087D01*
X496500Y1113971D01*
X497085Y1114087D01*
X497581Y1114419D01*
X497913Y1114915D01*
X498029Y1115500D01*
X497913Y1116085D01*
X497581Y1116581D01*
X497085Y1116913D01*
X496500Y1117029D01*
D02*
G37*
G36*
X495000Y1103578D02*
X493945Y1103439D01*
X492961Y1103032D01*
X492116Y1102384D01*
X491468Y1101539D01*
X491061Y1100556D01*
X490922Y1099500D01*
X491061Y1098444D01*
X491468Y1097461D01*
X492116Y1096616D01*
X492961Y1095968D01*
X493945Y1095561D01*
X495000Y1095422D01*
X496056Y1095561D01*
X497039Y1095968D01*
X497884Y1096616D01*
X498532Y1097461D01*
X498939Y1098444D01*
X499078Y1099500D01*
X498939Y1100556D01*
X498532Y1101539D01*
X497884Y1102384D01*
X497039Y1103032D01*
X496056Y1103439D01*
X495000Y1103578D01*
D02*
G37*
G36*
X241992Y911514D02*
X241407Y911397D01*
X240911Y911066D01*
X240579Y910569D01*
X240463Y909984D01*
X240579Y909399D01*
X240911Y908903D01*
X241407Y908571D01*
X241992Y908455D01*
X242577Y908571D01*
X243074Y908903D01*
X243405Y909399D01*
X243521Y909984D01*
X243405Y910569D01*
X243074Y911066D01*
X242577Y911397D01*
X241992Y911514D01*
D02*
G37*
G36*
X223492Y915514D02*
X222907Y915397D01*
X222411Y915066D01*
X222079Y914569D01*
X221963Y913984D01*
X222079Y913399D01*
X222411Y912903D01*
X222907Y912571D01*
X223492Y912455D01*
X224077Y912571D01*
X224574Y912903D01*
X224905Y913399D01*
X225022Y913984D01*
X224905Y914569D01*
X224574Y915066D01*
X224077Y915397D01*
X223492Y915514D01*
D02*
G37*
G36*
X241374Y927931D02*
X240789Y927814D01*
X240293Y927483D01*
X239961Y926987D01*
X239845Y926402D01*
X239961Y925816D01*
X240293Y925320D01*
X240789Y924989D01*
X241374Y924872D01*
X241959Y924989D01*
X242456Y925320D01*
X242787Y925816D01*
X242903Y926402D01*
X242787Y926987D01*
X242456Y927483D01*
X241959Y927814D01*
X241374Y927931D01*
D02*
G37*
G36*
X250492Y927014D02*
X249907Y926897D01*
X249411Y926566D01*
X249079Y926070D01*
X248963Y925484D01*
X249079Y924899D01*
X249411Y924403D01*
X249907Y924071D01*
X250492Y923955D01*
X251077Y924071D01*
X251574Y924403D01*
X251905Y924899D01*
X252022Y925484D01*
X251905Y926070D01*
X251574Y926566D01*
X251077Y926897D01*
X250492Y927014D01*
D02*
G37*
G36*
X243492Y897014D02*
X242907Y896897D01*
X242411Y896566D01*
X242079Y896070D01*
X241963Y895484D01*
X242079Y894899D01*
X242411Y894403D01*
X242907Y894071D01*
X243492Y893955D01*
X244077Y894071D01*
X244574Y894403D01*
X244905Y894899D01*
X245022Y895484D01*
X244905Y896070D01*
X244574Y896566D01*
X244077Y896897D01*
X243492Y897014D01*
D02*
G37*
G36*
X264500Y904029D02*
X263915Y903913D01*
X263419Y903581D01*
X263087Y903085D01*
X262971Y902500D01*
X263087Y901915D01*
X263419Y901419D01*
X263915Y901087D01*
X264500Y900971D01*
X265085Y901087D01*
X265581Y901419D01*
X265913Y901915D01*
X266029Y902500D01*
X265913Y903085D01*
X265581Y903581D01*
X265085Y903913D01*
X264500Y904029D01*
D02*
G37*
G36*
X223492Y902514D02*
X222907Y902397D01*
X222411Y902066D01*
X222079Y901569D01*
X221963Y900984D01*
X222079Y900399D01*
X222411Y899903D01*
X222907Y899571D01*
X223492Y899455D01*
X224077Y899571D01*
X224574Y899903D01*
X224905Y900399D01*
X225022Y900984D01*
X224905Y901569D01*
X224574Y902066D01*
X224077Y902397D01*
X223492Y902514D01*
D02*
G37*
G36*
X222992Y885014D02*
X222407Y884897D01*
X221911Y884566D01*
X221579Y884070D01*
X221463Y883484D01*
X221579Y882899D01*
X221911Y882403D01*
X222407Y882071D01*
X222992Y881955D01*
X223577Y882071D01*
X224074Y882403D01*
X224405Y882899D01*
X224521Y883484D01*
X224405Y884070D01*
X224074Y884566D01*
X223577Y884897D01*
X222992Y885014D01*
D02*
G37*
G36*
X257992Y890514D02*
X257407Y890397D01*
X256911Y890066D01*
X256579Y889569D01*
X256463Y888984D01*
X256579Y888399D01*
X256911Y887903D01*
X257407Y887571D01*
X257992Y887455D01*
X258577Y887571D01*
X259074Y887903D01*
X259405Y888399D01*
X259522Y888984D01*
X259405Y889569D01*
X259074Y890066D01*
X258577Y890397D01*
X257992Y890514D01*
D02*
G37*
G36*
X218992Y982014D02*
X218407Y981897D01*
X217911Y981566D01*
X217579Y981069D01*
X217463Y980484D01*
X217579Y979899D01*
X217911Y979403D01*
X218407Y979071D01*
X218992Y978955D01*
X219577Y979071D01*
X220074Y979403D01*
X220405Y979899D01*
X220521Y980484D01*
X220405Y981069D01*
X220074Y981566D01*
X219577Y981897D01*
X218992Y982014D01*
D02*
G37*
G36*
X274992Y989014D02*
X274407Y988897D01*
X273911Y988566D01*
X273579Y988070D01*
X273463Y987484D01*
X273579Y986899D01*
X273911Y986403D01*
X274407Y986071D01*
X274992Y985955D01*
X275577Y986071D01*
X276074Y986403D01*
X276405Y986899D01*
X276521Y987484D01*
X276405Y988070D01*
X276074Y988566D01*
X275577Y988897D01*
X274992Y989014D01*
D02*
G37*
G36*
X217992Y1004514D02*
X217407Y1004397D01*
X216911Y1004066D01*
X216579Y1003570D01*
X216463Y1002984D01*
X216579Y1002399D01*
X216911Y1001903D01*
X217407Y1001571D01*
X217992Y1001455D01*
X218577Y1001571D01*
X219074Y1001903D01*
X219405Y1002399D01*
X219521Y1002984D01*
X219405Y1003570D01*
X219074Y1004066D01*
X218577Y1004397D01*
X217992Y1004514D01*
D02*
G37*
G36*
X548689Y1006474D02*
X547726Y1006282D01*
X546909Y1005736D01*
X546364Y1004920D01*
X546172Y1003957D01*
X546364Y1002993D01*
X546909Y1002177D01*
X547726Y1001631D01*
X548689Y1001440D01*
X549652Y1001631D01*
X550469Y1002177D01*
X551014Y1002993D01*
X551206Y1003957D01*
X551014Y1004920D01*
X550469Y1005736D01*
X549652Y1006282D01*
X548689Y1006474D01*
D02*
G37*
G36*
X257000Y1007529D02*
X256415Y1007413D01*
X255919Y1007081D01*
X255587Y1006585D01*
X255471Y1006000D01*
X255587Y1005415D01*
X255919Y1004919D01*
X256415Y1004587D01*
X257000Y1004471D01*
X257585Y1004587D01*
X258081Y1004919D01*
X258413Y1005415D01*
X258529Y1006000D01*
X258413Y1006585D01*
X258081Y1007081D01*
X257585Y1007413D01*
X257000Y1007529D01*
D02*
G37*
G36*
X520000Y994529D02*
X519415Y994413D01*
X518919Y994081D01*
X518587Y993585D01*
X518471Y993000D01*
X518587Y992415D01*
X518919Y991919D01*
X519415Y991587D01*
X520000Y991471D01*
X520585Y991587D01*
X521081Y991919D01*
X521413Y992415D01*
X521529Y993000D01*
X521413Y993585D01*
X521081Y994081D01*
X520585Y994413D01*
X520000Y994529D01*
D02*
G37*
G36*
X230492Y999514D02*
X229907Y999397D01*
X229411Y999066D01*
X229079Y998569D01*
X228963Y997984D01*
X229079Y997399D01*
X229411Y996903D01*
X229907Y996571D01*
X230492Y996455D01*
X231077Y996571D01*
X231574Y996903D01*
X231905Y997399D01*
X232021Y997984D01*
X231905Y998569D01*
X231574Y999066D01*
X231077Y999397D01*
X230492Y999514D01*
D02*
G37*
G36*
X218992Y954514D02*
X218407Y954397D01*
X217911Y954066D01*
X217579Y953570D01*
X217463Y952984D01*
X217579Y952399D01*
X217911Y951903D01*
X218407Y951571D01*
X218992Y951455D01*
X219577Y951571D01*
X220074Y951903D01*
X220405Y952399D01*
X220521Y952984D01*
X220405Y953570D01*
X220074Y954066D01*
X219577Y954397D01*
X218992Y954514D01*
D02*
G37*
G36*
X238374Y936431D02*
X237789Y936314D01*
X237293Y935983D01*
X236961Y935487D01*
X236845Y934902D01*
X236961Y934316D01*
X237293Y933820D01*
X237789Y933489D01*
X238374Y933372D01*
X238959Y933489D01*
X239456Y933820D01*
X239787Y934316D01*
X239903Y934902D01*
X239787Y935487D01*
X239456Y935983D01*
X238959Y936314D01*
X238374Y936431D01*
D02*
G37*
G36*
X343000Y1052029D02*
X342415Y1051913D01*
X341919Y1051581D01*
X341587Y1051085D01*
X341471Y1050500D01*
X341587Y1049915D01*
X341919Y1049419D01*
X342415Y1049087D01*
X343000Y1048971D01*
X343585Y1049087D01*
X344081Y1049419D01*
X344413Y1049915D01*
X344529Y1050500D01*
X344413Y1051085D01*
X344081Y1051581D01*
X343585Y1051913D01*
X343000Y1052029D01*
D02*
G37*
G36*
X287760Y1056230D02*
X287175Y1056114D01*
X286678Y1055782D01*
X286347Y1055286D01*
X286230Y1054701D01*
X286347Y1054115D01*
X286678Y1053619D01*
X287175Y1053288D01*
X287760Y1053171D01*
X288345Y1053288D01*
X288841Y1053619D01*
X289173Y1054115D01*
X289289Y1054701D01*
X289173Y1055286D01*
X288841Y1055782D01*
X288345Y1056114D01*
X287760Y1056230D01*
D02*
G37*
G36*
X328543Y1071230D02*
X327958Y1071114D01*
X327462Y1070782D01*
X327130Y1070286D01*
X327014Y1069701D01*
X327130Y1069116D01*
X327462Y1068619D01*
X327958Y1068288D01*
X328543Y1068171D01*
X329129Y1068288D01*
X329625Y1068619D01*
X329956Y1069116D01*
X330073Y1069701D01*
X329956Y1070286D01*
X329625Y1070782D01*
X329129Y1071114D01*
X328543Y1071230D01*
D02*
G37*
G36*
X287409Y1069581D02*
X286824Y1069464D01*
X286328Y1069133D01*
X285997Y1068637D01*
X285880Y1068051D01*
X285997Y1067466D01*
X286328Y1066970D01*
X286824Y1066638D01*
X287409Y1066522D01*
X287995Y1066638D01*
X288491Y1066970D01*
X288822Y1067466D01*
X288939Y1068051D01*
X288822Y1068637D01*
X288491Y1069133D01*
X287995Y1069464D01*
X287409Y1069581D01*
D02*
G37*
G36*
X348043Y1071230D02*
X347458Y1071114D01*
X346962Y1070782D01*
X346630Y1070286D01*
X346514Y1069701D01*
X346630Y1069116D01*
X346962Y1068619D01*
X347458Y1068288D01*
X348043Y1068171D01*
X348629Y1068288D01*
X349125Y1068619D01*
X349456Y1069116D01*
X349573Y1069701D01*
X349456Y1070286D01*
X349125Y1070782D01*
X348629Y1071114D01*
X348043Y1071230D01*
D02*
G37*
G36*
X348543Y1062230D02*
X347958Y1062114D01*
X347462Y1061782D01*
X347130Y1061286D01*
X347014Y1060701D01*
X347130Y1060116D01*
X347462Y1059619D01*
X347958Y1059288D01*
X348543Y1059171D01*
X349129Y1059288D01*
X349625Y1059619D01*
X349956Y1060116D01*
X350073Y1060701D01*
X349956Y1061286D01*
X349625Y1061782D01*
X349129Y1062114D01*
X348543Y1062230D01*
D02*
G37*
G36*
X328543Y1061730D02*
X327958Y1061614D01*
X327462Y1061282D01*
X327130Y1060786D01*
X327014Y1060201D01*
X327130Y1059616D01*
X327462Y1059119D01*
X327958Y1058788D01*
X328543Y1058671D01*
X329129Y1058788D01*
X329625Y1059119D01*
X329956Y1059616D01*
X330073Y1060201D01*
X329956Y1060786D01*
X329625Y1061282D01*
X329129Y1061614D01*
X328543Y1061730D01*
D02*
G37*
G36*
X350638Y1036773D02*
X350053Y1036657D01*
X349556Y1036325D01*
X349225Y1035829D01*
X349108Y1035244D01*
X349225Y1034659D01*
X349556Y1034163D01*
X350053Y1033831D01*
X350638Y1033715D01*
X351223Y1033831D01*
X351719Y1034163D01*
X352051Y1034659D01*
X352167Y1035244D01*
X352051Y1035829D01*
X351719Y1036325D01*
X351223Y1036657D01*
X350638Y1036773D01*
D02*
G37*
G36*
X359417Y1039322D02*
X358362Y1039183D01*
X357378Y1038776D01*
X356534Y1038128D01*
X355886Y1037283D01*
X355478Y1036300D01*
X355339Y1035244D01*
X355478Y1034189D01*
X355886Y1033205D01*
X356534Y1032360D01*
X357378Y1031712D01*
X358362Y1031305D01*
X359417Y1031166D01*
X360473Y1031305D01*
X361456Y1031712D01*
X362301Y1032360D01*
X362949Y1033205D01*
X363357Y1034189D01*
X363495Y1035244D01*
X363357Y1036300D01*
X362949Y1037283D01*
X362301Y1038128D01*
X361456Y1038776D01*
X360473Y1039183D01*
X359417Y1039322D01*
D02*
G37*
G36*
X314000Y1031029D02*
X313415Y1030913D01*
X312919Y1030581D01*
X312587Y1030085D01*
X312471Y1029500D01*
X312587Y1028915D01*
X312919Y1028419D01*
X313415Y1028087D01*
X314000Y1027971D01*
X314585Y1028087D01*
X315081Y1028419D01*
X315413Y1028915D01*
X315529Y1029500D01*
X315413Y1030085D01*
X315081Y1030581D01*
X314585Y1030913D01*
X314000Y1031029D01*
D02*
G37*
G36*
X397106Y1124206D02*
X396143Y1124014D01*
X395327Y1123469D01*
X394781Y1122652D01*
X394589Y1121689D01*
X394781Y1120726D01*
X395327Y1119909D01*
X396143Y1119364D01*
X397106Y1119172D01*
X398070Y1119364D01*
X398886Y1119909D01*
X399432Y1120726D01*
X399623Y1121689D01*
X399432Y1122652D01*
X398886Y1123469D01*
X398070Y1124014D01*
X397106Y1124206D01*
D02*
G37*
G36*
X358000Y1124029D02*
X357415Y1123913D01*
X356919Y1123581D01*
X356587Y1123085D01*
X356471Y1122500D01*
X356587Y1121915D01*
X356919Y1121419D01*
X357415Y1121087D01*
X358000Y1120971D01*
X358585Y1121087D01*
X359081Y1121419D01*
X359413Y1121915D01*
X359529Y1122500D01*
X359413Y1123085D01*
X359081Y1123581D01*
X358585Y1123913D01*
X358000Y1124029D01*
D02*
G37*
G36*
X350992Y1144014D02*
X350407Y1143897D01*
X349911Y1143566D01*
X349579Y1143069D01*
X349463Y1142484D01*
X349579Y1141899D01*
X349911Y1141403D01*
X350407Y1141071D01*
X350992Y1140955D01*
X351577Y1141071D01*
X352074Y1141403D01*
X352405Y1141899D01*
X352521Y1142484D01*
X352405Y1143069D01*
X352074Y1143566D01*
X351577Y1143897D01*
X350992Y1144014D01*
D02*
G37*
G36*
X342043Y1088230D02*
X341458Y1088114D01*
X340962Y1087782D01*
X340630Y1087286D01*
X340514Y1086701D01*
X340630Y1086115D01*
X340962Y1085619D01*
X341458Y1085288D01*
X342043Y1085171D01*
X342629Y1085288D01*
X343125Y1085619D01*
X343456Y1086115D01*
X343573Y1086701D01*
X343456Y1087286D01*
X343125Y1087782D01*
X342629Y1088114D01*
X342043Y1088230D01*
D02*
G37*
G36*
X322000Y1093529D02*
X321415Y1093413D01*
X320919Y1093081D01*
X320587Y1092585D01*
X320471Y1092000D01*
X320587Y1091415D01*
X320919Y1090919D01*
X321415Y1090587D01*
X322000Y1090471D01*
X322585Y1090587D01*
X323081Y1090919D01*
X323413Y1091415D01*
X323529Y1092000D01*
X323413Y1092585D01*
X323081Y1093081D01*
X322585Y1093413D01*
X322000Y1093529D01*
D02*
G37*
G36*
X348043Y1080730D02*
X347458Y1080614D01*
X346962Y1080282D01*
X346630Y1079786D01*
X346514Y1079201D01*
X346630Y1078615D01*
X346962Y1078119D01*
X347458Y1077788D01*
X348043Y1077671D01*
X348629Y1077788D01*
X349125Y1078119D01*
X349456Y1078615D01*
X349573Y1079201D01*
X349456Y1079786D01*
X349125Y1080282D01*
X348629Y1080614D01*
X348043Y1080730D01*
D02*
G37*
G36*
X329043Y1079730D02*
X328458Y1079614D01*
X327962Y1079282D01*
X327630Y1078786D01*
X327514Y1078201D01*
X327630Y1077616D01*
X327962Y1077119D01*
X328458Y1076788D01*
X329043Y1076671D01*
X329629Y1076788D01*
X330125Y1077119D01*
X330456Y1077616D01*
X330573Y1078201D01*
X330456Y1078786D01*
X330125Y1079282D01*
X329629Y1079614D01*
X329043Y1079730D01*
D02*
G37*
G36*
X329500Y1086529D02*
X328915Y1086413D01*
X328419Y1086081D01*
X328087Y1085585D01*
X327971Y1085000D01*
X328087Y1084415D01*
X328419Y1083919D01*
X328915Y1083587D01*
X329500Y1083471D01*
X330085Y1083587D01*
X330581Y1083919D01*
X330913Y1084415D01*
X331029Y1085000D01*
X330913Y1085585D01*
X330581Y1086081D01*
X330085Y1086413D01*
X329500Y1086529D01*
D02*
G37*
G36*
X381000Y1104078D02*
X379944Y1103939D01*
X378961Y1103532D01*
X378116Y1102884D01*
X377468Y1102039D01*
X377061Y1101056D01*
X376922Y1100000D01*
X377061Y1098944D01*
X377468Y1097961D01*
X378116Y1097116D01*
X378961Y1096468D01*
X379944Y1096061D01*
X381000Y1095922D01*
X382055Y1096061D01*
X383039Y1096468D01*
X383884Y1097116D01*
X384532Y1097961D01*
X384939Y1098944D01*
X385078Y1100000D01*
X384939Y1101056D01*
X384532Y1102039D01*
X383884Y1102884D01*
X383039Y1103532D01*
X382055Y1103939D01*
X381000Y1104078D01*
D02*
G37*
G36*
X363500Y1111529D02*
X362915Y1111413D01*
X362419Y1111081D01*
X362087Y1110585D01*
X361971Y1110000D01*
X362087Y1109415D01*
X362419Y1108919D01*
X362915Y1108587D01*
X363500Y1108471D01*
X364085Y1108587D01*
X364581Y1108919D01*
X364913Y1109415D01*
X365029Y1110000D01*
X364913Y1110585D01*
X364581Y1111081D01*
X364085Y1111413D01*
X363500Y1111529D01*
D02*
G37*
%LPD*%
D41*
X470000Y1042417D02*
Y1049000D01*
X469500Y1041917D02*
X470000Y1042417D01*
X469500Y1041917D02*
X469714Y1041703D01*
D47*
X393406Y1133500D02*
D03*
X515406Y1133000D02*
D03*
X475406D02*
D03*
X433405D02*
D03*
X223000Y1091094D02*
D03*
X562500Y883657D02*
D03*
X599000Y1008158D02*
D03*
X561000Y965658D02*
D03*
X600500D02*
D03*
X599500Y883158D02*
D03*
X561921Y924090D02*
D03*
X564000Y840158D02*
D03*
X223189Y778201D02*
D03*
X598823Y1049268D02*
D03*
X599323Y924090D02*
D03*
X560500Y1007658D02*
D03*
X600500Y840063D02*
D03*
X561421Y1049268D02*
D03*
D49*
X369768Y907043D02*
D03*
Y917043D02*
D03*
Y927043D02*
D03*
X439500Y1100000D02*
D03*
X449500Y1090000D02*
D03*
Y1100000D02*
D03*
X505000Y1089500D02*
D03*
Y1099500D02*
D03*
X391000Y1090000D02*
D03*
Y1100000D02*
D03*
X367614Y785425D02*
D03*
Y795425D02*
D03*
Y805425D02*
D03*
X387327Y599051D02*
D03*
X525528Y598921D02*
D03*
X597335Y736071D02*
D03*
X597335Y785284D02*
D03*
D51*
X240315Y686240D02*
D03*
D52*
X369417Y1035244D02*
D03*
X309492Y898984D02*
D03*
X462000Y1099500D02*
D03*
X517500D02*
D03*
X403500Y1098000D02*
D03*
X308500Y784000D02*
D03*
X427224Y766059D02*
D03*
X363500Y649827D02*
D03*
X495000Y1089500D02*
D03*
X381000Y1090000D02*
D03*
D53*
X466500Y1049500D02*
D03*
X516000Y1063500D02*
D03*
X532000Y1083000D02*
D03*
X464000Y1075000D02*
D03*
X487000Y1123000D02*
D03*
X412191Y1113980D02*
D03*
X367500Y1136000D02*
D03*
X425000Y636500D02*
D03*
X236405Y628500D02*
D03*
X237000Y639500D02*
D03*
X449045Y1024372D02*
D03*
X267000Y1076114D02*
D03*
X258500Y1075500D02*
D03*
X371000Y996000D02*
D03*
X359500D02*
D03*
X422500Y801500D02*
D03*
X427000Y790575D02*
D03*
X434085Y758915D02*
D03*
X448000Y704500D02*
D03*
X521500Y788000D02*
D03*
X452500Y1049000D02*
D03*
X382500Y746500D02*
D03*
X449000Y655500D02*
D03*
X538500Y635500D02*
D03*
X488024Y702024D02*
D03*
X494500Y654000D02*
D03*
X508000Y690500D02*
D03*
X462835Y691665D02*
D03*
X435000Y983500D02*
D03*
X421500Y1036000D02*
D03*
X279000Y925980D02*
D03*
X296012Y1029512D02*
D03*
X305000Y1029500D02*
D03*
X415000Y687000D02*
D03*
X331886Y1144516D02*
D03*
X237374Y985941D02*
D03*
X426500Y911000D02*
D03*
X239689Y870106D02*
D03*
X313323Y672858D02*
D03*
X252378Y846846D02*
D03*
X354740Y867984D02*
D03*
X369661Y875346D02*
D03*
X359480Y878102D02*
D03*
X329528Y728063D02*
D03*
X250492Y959984D02*
D03*
X354992Y969484D02*
D03*
X433248Y790721D02*
D03*
X442819Y704563D02*
D03*
X495764Y792764D02*
D03*
X494965Y701965D02*
D03*
X402874Y694256D02*
D03*
X557346Y696307D02*
D03*
X416197Y1086772D02*
D03*
X252126Y738685D02*
D03*
X543346Y702307D02*
D03*
X537346D02*
D03*
X541346Y659807D02*
D03*
X280279Y810437D02*
D03*
X511957Y779571D02*
D03*
X539500Y793500D02*
D03*
X513035Y796492D02*
D03*
X396500Y1080000D02*
D03*
X421000Y1042500D02*
D03*
X400000Y690000D02*
D03*
X359500Y748500D02*
D03*
X265500Y681500D02*
D03*
X269500Y696000D02*
D03*
X292000Y1127000D02*
D03*
X427000Y1048500D02*
D03*
X511500Y785500D02*
D03*
X421500Y1046500D02*
D03*
X265000Y774000D02*
D03*
X251000Y663000D02*
D03*
X413000Y813500D02*
D03*
X401500Y650500D02*
D03*
M02*
