G04 Layer_Color=32896*
%FSLAX25Y25*%
%MOIN*%
G70*
G01*
G75*
%ADD41C,0.01000*%
%ADD71C,0.00600*%
D41*
X388059Y997500D02*
G03*
X388059Y997500I-2559J0D01*
G01*
Y1028500D02*
G03*
X388059Y1028500I-2559J0D01*
G01*
Y989000D02*
G03*
X388059Y989000I-2559J0D01*
G01*
Y979000D02*
G03*
X388059Y979000I-2559J0D01*
G01*
Y968000D02*
G03*
X388059Y968000I-2559J0D01*
G01*
Y958000D02*
G03*
X388059Y958000I-2559J0D01*
G01*
X469059Y1008000D02*
G03*
X469059Y1008000I-2559J0D01*
G01*
Y1018000D02*
G03*
X469059Y1018000I-2559J0D01*
G01*
Y1029500D02*
G03*
X469059Y1029500I-2559J0D01*
G01*
Y1040500D02*
G03*
X469059Y1040500I-2559J0D01*
G01*
X388059Y1019000D02*
G03*
X388059Y1019000I-2559J0D01*
G01*
Y1007500D02*
G03*
X388059Y1007500I-2559J0D01*
G01*
D71*
X378899Y1009000D02*
X376500D01*
X378899Y1006601D01*
Y1006001D01*
X378299Y1005401D01*
X377100D01*
X376500Y1006001D01*
X377000Y1021000D02*
X378200D01*
X377600D01*
Y1017401D01*
X377000Y1018001D01*
X471500Y1042000D02*
X472700D01*
X472100D01*
Y1038401D01*
X471500Y1039001D01*
X476898Y1038401D02*
X474499D01*
Y1040201D01*
X475699Y1039601D01*
X476298D01*
X476898Y1040201D01*
Y1041400D01*
X476298Y1042000D01*
X475099D01*
X474499Y1041400D01*
X471500Y1031000D02*
X472700D01*
X472100D01*
Y1027401D01*
X471500Y1028001D01*
X476298Y1031000D02*
Y1027401D01*
X474499Y1029201D01*
X476898D01*
X471500Y1020000D02*
X472700D01*
X472100D01*
Y1016401D01*
X471500Y1017001D01*
X474499D02*
X475099Y1016401D01*
X476298D01*
X476898Y1017001D01*
Y1017601D01*
X476298Y1018201D01*
X475699D01*
X476298D01*
X476898Y1018800D01*
Y1019400D01*
X476298Y1020000D01*
X475099D01*
X474499Y1019400D01*
X472000Y1009500D02*
X473200D01*
X472600D01*
Y1005901D01*
X472000Y1006501D01*
X477398Y1009500D02*
X474999D01*
X477398Y1007101D01*
Y1006501D01*
X476798Y1005901D01*
X475599D01*
X474999Y1006501D01*
X377500Y956401D02*
X379899D01*
Y957001D01*
X377500Y959400D01*
Y960000D01*
X379899Y965901D02*
X378700Y966501D01*
X377500Y967701D01*
Y968900D01*
X378100Y969500D01*
X379299D01*
X379899Y968900D01*
Y968300D01*
X379299Y967701D01*
X377500D01*
X379399Y976901D02*
X377000D01*
Y978701D01*
X378200Y978101D01*
X378799D01*
X379399Y978701D01*
Y979900D01*
X378799Y980500D01*
X377600D01*
X377000Y979900D01*
X378299Y990500D02*
Y986901D01*
X376500Y988701D01*
X378899D01*
X376500Y1027001D02*
X377100Y1026401D01*
X378299D01*
X378899Y1027001D01*
Y1029400D01*
X378299Y1030000D01*
X377100D01*
X376500Y1029400D01*
Y1027001D01*
Y996501D02*
X377100Y995901D01*
X378299D01*
X378899Y996501D01*
Y997101D01*
X378299Y997701D01*
X377700D01*
X378299D01*
X378899Y998300D01*
Y998900D01*
X378299Y999500D01*
X377100D01*
X376500Y998900D01*
M02*
