G04 Layer_Physical_Order=4*
G04 Layer_Color=16711680*
%FSLAX25Y25*%
%MOIN*%
G70*
G01*
G75*
%ADD39C,0.03000*%
%ADD41C,0.01000*%
%ADD43C,0.03200*%
%ADD46O,0.07087X0.04331*%
%ADD47C,0.06000*%
%ADD48C,0.05905*%
%ADD49C,0.07087*%
%ADD50C,0.01968*%
%ADD51R,0.07087X0.07087*%
%ADD52R,0.07087X0.07087*%
%ADD53C,0.02000*%
G36*
X628500Y556500D02*
X198500D01*
Y1164000D01*
X628500D01*
Y556500D01*
D02*
G37*
%LPC*%
G36*
X511500Y787029D02*
X510915Y786913D01*
X510419Y786581D01*
X510087Y786085D01*
X509971Y785500D01*
X510087Y784915D01*
X510419Y784419D01*
X510915Y784087D01*
X511500Y783971D01*
X512085Y784087D01*
X512581Y784419D01*
X512913Y784915D01*
X513029Y785500D01*
X512913Y786085D01*
X512581Y786581D01*
X512085Y786913D01*
X511500Y787029D01*
D02*
G37*
G36*
X245500Y1149578D02*
X244444Y1149439D01*
X243461Y1149032D01*
X242616Y1148384D01*
X241968Y1147539D01*
X241561Y1146556D01*
X241422Y1145500D01*
X241561Y1144444D01*
X241968Y1143461D01*
X242616Y1142616D01*
X243461Y1141968D01*
X244444Y1141561D01*
X244480Y1141556D01*
Y1121500D01*
X244558Y1121110D01*
X244779Y1120779D01*
X254779Y1110779D01*
X255110Y1110558D01*
X255500Y1110480D01*
X324578D01*
X404279Y1030779D01*
X404610Y1030558D01*
X405000Y1030480D01*
X426578D01*
X436485Y1020573D01*
X436471Y1020500D01*
X436587Y1019915D01*
X436919Y1019419D01*
X436980Y1019377D01*
Y1016000D01*
X437058Y1015610D01*
X437279Y1015279D01*
X467980Y984578D01*
Y967922D01*
X462578Y962520D01*
X429500D01*
X429110Y962442D01*
X428779Y962221D01*
X415779Y949221D01*
X415558Y948890D01*
X415480Y948500D01*
Y899500D01*
X415558Y899110D01*
X415779Y898779D01*
X527779Y786779D01*
X528110Y786558D01*
X528500Y786480D01*
X537885D01*
X538077Y786019D01*
X410578Y658520D01*
X383000D01*
X382610Y658442D01*
X382571Y658416D01*
X382000Y658529D01*
X381415Y658413D01*
X380919Y658081D01*
X380587Y657585D01*
X380471Y657000D01*
X380587Y656415D01*
X380919Y655919D01*
X381415Y655587D01*
X382000Y655471D01*
X382585Y655587D01*
X383081Y655919D01*
X383413Y656415D01*
X383426Y656480D01*
X411000D01*
X411390Y656558D01*
X411721Y656779D01*
X540927Y785985D01*
X541000Y785971D01*
X541585Y786087D01*
X542081Y786419D01*
X542413Y786915D01*
X542529Y787500D01*
X542413Y788085D01*
X542081Y788581D01*
X541585Y788913D01*
X541000Y789029D01*
X540415Y788913D01*
X539919Y788581D01*
X539877Y788520D01*
X528922D01*
X417520Y899922D01*
Y948078D01*
X429922Y960480D01*
X463000D01*
X463390Y960558D01*
X463721Y960779D01*
X469721Y966779D01*
X469942Y967110D01*
X470020Y967500D01*
Y985000D01*
X469942Y985390D01*
X469721Y985721D01*
X439020Y1016422D01*
Y1019377D01*
X439081Y1019419D01*
X439413Y1019915D01*
X439529Y1020500D01*
X439413Y1021085D01*
X439081Y1021581D01*
X438585Y1021913D01*
X438000Y1022029D01*
X437927Y1022015D01*
X427721Y1032221D01*
X427390Y1032442D01*
X427000Y1032520D01*
X405422D01*
X325721Y1112221D01*
X325390Y1112442D01*
X325000Y1112520D01*
X255922D01*
X246520Y1121922D01*
Y1141556D01*
X246555Y1141561D01*
X247539Y1141968D01*
X248384Y1142616D01*
X249032Y1143461D01*
X249439Y1144444D01*
X249578Y1145500D01*
X249439Y1146556D01*
X249032Y1147539D01*
X248384Y1148384D01*
X247539Y1149032D01*
X246555Y1149439D01*
X245500Y1149578D01*
D02*
G37*
G36*
X521500Y789529D02*
X520915Y789413D01*
X520419Y789081D01*
X520087Y788585D01*
X519971Y788000D01*
X520087Y787415D01*
X520419Y786919D01*
X520915Y786587D01*
X521500Y786471D01*
X522085Y786587D01*
X522581Y786919D01*
X522913Y787415D01*
X523029Y788000D01*
X522913Y788585D01*
X522581Y789081D01*
X522085Y789413D01*
X521500Y789529D01*
D02*
G37*
G36*
X597335Y789362D02*
X596279Y789223D01*
X595295Y788815D01*
X594451Y788167D01*
X593803Y787323D01*
X593395Y786339D01*
X593257Y785284D01*
X593395Y784228D01*
X593803Y783244D01*
X594451Y782400D01*
X595295Y781752D01*
X596279Y781344D01*
X597335Y781205D01*
X598390Y781344D01*
X599374Y781752D01*
X600218Y782400D01*
X600867Y783244D01*
X601274Y784228D01*
X601413Y785284D01*
X601274Y786339D01*
X600867Y787323D01*
X600218Y788167D01*
X599374Y788815D01*
X598390Y789223D01*
X597335Y789362D01*
D02*
G37*
G36*
X357614Y789503D02*
X356559Y789364D01*
X355575Y788957D01*
X354730Y788309D01*
X354082Y787464D01*
X353675Y786481D01*
X353536Y785425D01*
X353675Y784370D01*
X354082Y783386D01*
X354730Y782542D01*
X355575Y781893D01*
X356559Y781486D01*
X357614Y781347D01*
X358670Y781486D01*
X359653Y781893D01*
X360498Y782542D01*
X361146Y783386D01*
X361553Y784370D01*
X361692Y785425D01*
X361553Y786481D01*
X361146Y787464D01*
X360498Y788309D01*
X359653Y788957D01*
X358670Y789364D01*
X357614Y789503D01*
D02*
G37*
G36*
X367614D02*
X366559Y789364D01*
X365575Y788957D01*
X364730Y788309D01*
X364082Y787464D01*
X363675Y786481D01*
X363536Y785425D01*
X363675Y784370D01*
X364082Y783386D01*
X364730Y782542D01*
X365575Y781893D01*
X366559Y781486D01*
X367614Y781347D01*
X368670Y781486D01*
X369653Y781893D01*
X370498Y782542D01*
X371146Y783386D01*
X371553Y784370D01*
X371692Y785425D01*
X371553Y786481D01*
X371146Y787464D01*
X370498Y788309D01*
X369653Y788957D01*
X368670Y789364D01*
X367614Y789503D01*
D02*
G37*
G36*
X427000Y792104D02*
X426415Y791988D01*
X425919Y791656D01*
X425587Y791160D01*
X425471Y790575D01*
X425587Y789990D01*
X425919Y789493D01*
X426415Y789162D01*
X427000Y789045D01*
X427585Y789162D01*
X428081Y789493D01*
X428413Y789990D01*
X428529Y790575D01*
X428413Y791160D01*
X428081Y791656D01*
X427585Y791988D01*
X427000Y792104D01*
D02*
G37*
G36*
X357614Y799503D02*
X356559Y799365D01*
X355575Y798957D01*
X354730Y798309D01*
X354082Y797464D01*
X353675Y796481D01*
X353536Y795425D01*
X353675Y794370D01*
X354082Y793386D01*
X354730Y792542D01*
X355575Y791893D01*
X356559Y791486D01*
X357614Y791347D01*
X358670Y791486D01*
X359653Y791893D01*
X360498Y792542D01*
X361146Y793386D01*
X361553Y794370D01*
X361692Y795425D01*
X361553Y796481D01*
X361146Y797464D01*
X360498Y798309D01*
X359653Y798957D01*
X358670Y799365D01*
X357614Y799503D01*
D02*
G37*
G36*
X367614D02*
X366559Y799365D01*
X365575Y798957D01*
X364730Y798309D01*
X364082Y797464D01*
X363675Y796481D01*
X363536Y795425D01*
X363675Y794370D01*
X364082Y793386D01*
X364730Y792542D01*
X365575Y791893D01*
X366559Y791486D01*
X367614Y791347D01*
X368670Y791486D01*
X369653Y791893D01*
X370498Y792542D01*
X371146Y793386D01*
X371553Y794370D01*
X371692Y795425D01*
X371553Y796481D01*
X371146Y797464D01*
X370498Y798309D01*
X369653Y798957D01*
X368670Y799365D01*
X367614Y799503D01*
D02*
G37*
G36*
X539500Y795029D02*
X538915Y794913D01*
X538419Y794581D01*
X538087Y794085D01*
X537971Y793500D01*
X538087Y792915D01*
X538419Y792419D01*
X538915Y792087D01*
X539500Y791971D01*
X540085Y792087D01*
X540581Y792419D01*
X540913Y792915D01*
X541029Y793500D01*
X540913Y794085D01*
X540581Y794581D01*
X540085Y794913D01*
X539500Y795029D01*
D02*
G37*
G36*
X433248Y792250D02*
X432663Y792133D01*
X432167Y791802D01*
X431835Y791306D01*
X431719Y790721D01*
X431835Y790135D01*
X432167Y789639D01*
X432663Y789307D01*
X433248Y789191D01*
X433833Y789307D01*
X434330Y789639D01*
X434661Y790135D01*
X434777Y790721D01*
X434661Y791306D01*
X434330Y791802D01*
X433833Y792133D01*
X433248Y792250D01*
D02*
G37*
G36*
X597335Y799362D02*
X596279Y799223D01*
X595295Y798815D01*
X594451Y798167D01*
X593803Y797323D01*
X593395Y796339D01*
X593257Y795284D01*
X593395Y794228D01*
X593510Y793952D01*
X579779Y780221D01*
X579558Y779890D01*
X579480Y779500D01*
Y710422D01*
X513578Y644520D01*
X308500D01*
X308110Y644442D01*
X307779Y644221D01*
X261988Y598430D01*
X261162Y598772D01*
X260248Y598892D01*
X259334Y598772D01*
X258483Y598419D01*
X257752Y597858D01*
X257191Y597127D01*
X256838Y596276D01*
X256718Y595362D01*
X256838Y594449D01*
X257191Y593597D01*
X257752Y592866D01*
X258483Y592305D01*
X259334Y591952D01*
X260248Y591832D01*
X261162Y591952D01*
X262013Y592305D01*
X262744Y592866D01*
X263305Y593597D01*
X263658Y594449D01*
X263778Y595362D01*
X263658Y596276D01*
X263383Y596941D01*
X308922Y642480D01*
X514000D01*
X514390Y642558D01*
X514721Y642779D01*
X581221Y709279D01*
X581442Y709610D01*
X581520Y710000D01*
Y779078D01*
X594672Y792230D01*
X595295Y791752D01*
X596279Y791344D01*
X597335Y791205D01*
X598390Y791344D01*
X599374Y791752D01*
X600218Y792400D01*
X600867Y793244D01*
X601274Y794228D01*
X601413Y795284D01*
X601274Y796339D01*
X600867Y797323D01*
X600218Y798167D01*
X599374Y798815D01*
X598390Y799223D01*
X597335Y799362D01*
D02*
G37*
G36*
X495764Y794293D02*
X495179Y794177D01*
X494682Y793845D01*
X494351Y793349D01*
X494234Y792764D01*
X494351Y792178D01*
X494682Y791682D01*
X495179Y791351D01*
X495764Y791234D01*
X496349Y791351D01*
X496845Y791682D01*
X497177Y792178D01*
X497293Y792764D01*
X497177Y793349D01*
X496845Y793845D01*
X496349Y794177D01*
X495764Y794293D01*
D02*
G37*
G36*
X359500Y750029D02*
X358915Y749913D01*
X358419Y749581D01*
X358087Y749085D01*
X357971Y748500D01*
X358087Y747915D01*
X358419Y747419D01*
X358915Y747087D01*
X359500Y746971D01*
X360085Y747087D01*
X360581Y747419D01*
X360913Y747915D01*
X361029Y748500D01*
X360913Y749085D01*
X360581Y749581D01*
X360085Y749913D01*
X359500Y750029D01*
D02*
G37*
G36*
X434085Y760444D02*
X433500Y760328D01*
X433004Y759996D01*
X432672Y759500D01*
X432556Y758915D01*
X432672Y758330D01*
X433004Y757833D01*
X433500Y757502D01*
X434085Y757386D01*
X434670Y757502D01*
X435167Y757833D01*
X435498Y758330D01*
X435614Y758915D01*
X435498Y759500D01*
X435167Y759996D01*
X434670Y760328D01*
X434085Y760444D01*
D02*
G37*
G36*
X490957Y764600D02*
X490371Y764484D01*
X489875Y764152D01*
X489544Y763656D01*
X489530Y763586D01*
X482039Y756095D01*
X481818Y755764D01*
X481740Y755374D01*
X481818Y754984D01*
X481980Y754740D01*
Y741123D01*
X481919Y741081D01*
X481587Y740585D01*
X481471Y740000D01*
X481587Y739415D01*
X481919Y738919D01*
X482415Y738587D01*
X483000Y738471D01*
X483585Y738587D01*
X484081Y738919D01*
X484413Y739415D01*
X484529Y740000D01*
X484413Y740585D01*
X484081Y741081D01*
X484020Y741123D01*
Y755134D01*
X484010Y755182D01*
X490467Y761639D01*
X490957Y761542D01*
X491542Y761658D01*
X492038Y761989D01*
X492370Y762486D01*
X492486Y763071D01*
X492370Y763656D01*
X492038Y764152D01*
X491542Y764484D01*
X490957Y764600D01*
D02*
G37*
G36*
X535500Y773529D02*
X534915Y773413D01*
X534419Y773081D01*
X534087Y772585D01*
X533971Y772000D01*
X534087Y771415D01*
X534419Y770919D01*
X534915Y770587D01*
X535500Y770471D01*
X536085Y770587D01*
X536581Y770919D01*
X536623Y770980D01*
X538578D01*
X567472Y742086D01*
X567803Y741865D01*
X568193Y741787D01*
X575224D01*
X575265Y741726D01*
X575761Y741394D01*
X576346Y741278D01*
X576932Y741394D01*
X577428Y741726D01*
X577759Y742222D01*
X577876Y742807D01*
X577759Y743392D01*
X577428Y743889D01*
X576932Y744220D01*
X576346Y744337D01*
X575761Y744220D01*
X575265Y743889D01*
X575224Y743827D01*
X568615D01*
X539721Y772721D01*
X539390Y772942D01*
X539000Y773020D01*
X536623D01*
X536581Y773081D01*
X536085Y773413D01*
X535500Y773529D01*
D02*
G37*
G36*
X597335Y750149D02*
X596279Y750010D01*
X595296Y749603D01*
X594451Y748955D01*
X593803Y748110D01*
X593395Y747126D01*
X593391Y747090D01*
X593071D01*
X592681Y747013D01*
X592350Y746792D01*
X585279Y739721D01*
X585058Y739390D01*
X584980Y739000D01*
Y694422D01*
X531578Y641020D01*
X314500D01*
X314110Y640942D01*
X313779Y640721D01*
X271634Y598576D01*
X271162Y598772D01*
X270248Y598892D01*
X269334Y598772D01*
X268483Y598419D01*
X267752Y597858D01*
X267191Y597127D01*
X266838Y596276D01*
X266718Y595362D01*
X266838Y594449D01*
X267191Y593597D01*
X267752Y592866D01*
X268483Y592305D01*
X269334Y591952D01*
X270248Y591832D01*
X271162Y591952D01*
X272013Y592305D01*
X272744Y592866D01*
X273305Y593597D01*
X273658Y594449D01*
X273778Y595362D01*
X273658Y596276D01*
X273305Y597127D01*
X273203Y597261D01*
X314922Y638980D01*
X532000D01*
X532390Y639058D01*
X532721Y639279D01*
X586721Y693279D01*
X586942Y693610D01*
X587020Y694000D01*
Y738578D01*
X593095Y744653D01*
X593586Y744556D01*
X593803Y744032D01*
X594451Y743187D01*
X595296Y742539D01*
X596279Y742132D01*
X597335Y741993D01*
X598390Y742132D01*
X599374Y742539D01*
X600218Y743187D01*
X600867Y744032D01*
X601274Y745015D01*
X601413Y746071D01*
X601274Y747126D01*
X600867Y748110D01*
X600218Y748955D01*
X599374Y749603D01*
X598390Y750010D01*
X597335Y750149D01*
D02*
G37*
G36*
X382500Y748029D02*
X381915Y747913D01*
X381419Y747581D01*
X381087Y747085D01*
X380971Y746500D01*
X381087Y745915D01*
X381419Y745419D01*
X381915Y745087D01*
X382500Y744971D01*
X383085Y745087D01*
X383581Y745419D01*
X383913Y745915D01*
X384029Y746500D01*
X383913Y747085D01*
X383581Y747581D01*
X383085Y747913D01*
X382500Y748029D01*
D02*
G37*
G36*
X431268Y770102D02*
X423181D01*
Y762016D01*
X431268D01*
Y770102D01*
D02*
G37*
G36*
X223189Y781731D02*
X222275Y781611D01*
X221424Y781258D01*
X220693Y780697D01*
X220132Y779966D01*
X219779Y779114D01*
X219659Y778201D01*
X219779Y777287D01*
X220132Y776436D01*
X220693Y775705D01*
X221424Y775143D01*
X222275Y774791D01*
X223189Y774671D01*
X224103Y774791D01*
X224954Y775143D01*
X225685Y775705D01*
X226246Y776436D01*
X226599Y777287D01*
X226719Y778201D01*
X226599Y779114D01*
X226246Y779966D01*
X225685Y780697D01*
X224954Y781258D01*
X224103Y781611D01*
X223189Y781731D01*
D02*
G37*
G36*
X511957Y781100D02*
X511371Y780984D01*
X510875Y780652D01*
X510544Y780156D01*
X510427Y779571D01*
X510544Y778986D01*
X510875Y778489D01*
X511371Y778158D01*
X511957Y778042D01*
X512542Y778158D01*
X513038Y778489D01*
X513370Y778986D01*
X513486Y779571D01*
X513370Y780156D01*
X513038Y780652D01*
X512542Y780984D01*
X511957Y781100D01*
D02*
G37*
G36*
X312543Y788043D02*
X304457D01*
Y779957D01*
X312543D01*
Y788043D01*
D02*
G37*
G36*
X211378Y777017D02*
X210415Y776825D01*
X209598Y776280D01*
X209053Y775463D01*
X208861Y774500D01*
X209053Y773537D01*
X209598Y772720D01*
X210415Y772175D01*
X211378Y771983D01*
X212341Y772175D01*
X213158Y772720D01*
X213703Y773537D01*
X213895Y774500D01*
X213703Y775463D01*
X213158Y776280D01*
X212341Y776825D01*
X211378Y777017D01*
D02*
G37*
G36*
X235000D02*
X234037Y776825D01*
X233220Y776280D01*
X232675Y775463D01*
X232483Y774500D01*
X232675Y773537D01*
X233220Y772720D01*
X234037Y772175D01*
X235000Y771983D01*
X235963Y772175D01*
X236780Y772720D01*
X237325Y773537D01*
X237517Y774500D01*
X237325Y775463D01*
X236780Y776280D01*
X235963Y776825D01*
X235000Y777017D01*
D02*
G37*
G36*
X265000Y775529D02*
X264415Y775413D01*
X263919Y775081D01*
X263587Y774585D01*
X263471Y774000D01*
X263587Y773415D01*
X263919Y772919D01*
X264415Y772587D01*
X265000Y772471D01*
X265585Y772587D01*
X266081Y772919D01*
X266413Y773415D01*
X266529Y774000D01*
X266413Y774585D01*
X266081Y775081D01*
X265585Y775413D01*
X265000Y775529D01*
D02*
G37*
G36*
X513035Y798022D02*
X512450Y797905D01*
X511954Y797574D01*
X511622Y797077D01*
X511506Y796492D01*
X511622Y795907D01*
X511954Y795411D01*
X512450Y795079D01*
X513035Y794963D01*
X513621Y795079D01*
X514117Y795411D01*
X514448Y795907D01*
X514565Y796492D01*
X514448Y797077D01*
X514117Y797574D01*
X513621Y797905D01*
X513035Y798022D01*
D02*
G37*
G36*
X369661Y876876D02*
X369076Y876760D01*
X368580Y876428D01*
X368248Y875932D01*
X368132Y875346D01*
X368248Y874761D01*
X368580Y874265D01*
X369076Y873934D01*
X369661Y873817D01*
X370247Y873934D01*
X370743Y874265D01*
X371074Y874761D01*
X371191Y875346D01*
X371074Y875932D01*
X370743Y876428D01*
X370247Y876760D01*
X369661Y876876D01*
D02*
G37*
G36*
X359480Y879632D02*
X358895Y879515D01*
X358399Y879184D01*
X358067Y878688D01*
X357951Y878102D01*
X358067Y877517D01*
X358399Y877021D01*
X358895Y876689D01*
X359480Y876573D01*
X360066Y876689D01*
X360562Y877021D01*
X360893Y877517D01*
X361010Y878102D01*
X360893Y878688D01*
X360562Y879184D01*
X360066Y879515D01*
X359480Y879632D01*
D02*
G37*
G36*
X587689Y881974D02*
X586726Y881782D01*
X585909Y881236D01*
X585364Y880420D01*
X585172Y879457D01*
X585364Y878493D01*
X585909Y877677D01*
X586726Y877131D01*
X587689Y876940D01*
X588652Y877131D01*
X589469Y877677D01*
X590014Y878493D01*
X590206Y879457D01*
X590014Y880420D01*
X589469Y881236D01*
X588652Y881782D01*
X587689Y881974D01*
D02*
G37*
G36*
X458677Y932313D02*
X458092Y932197D01*
X457596Y931865D01*
X457264Y931369D01*
X457148Y930783D01*
X457264Y930198D01*
X457596Y929702D01*
X457658Y929661D01*
Y928429D01*
X457735Y928039D01*
X457956Y927708D01*
X533885Y851779D01*
X534216Y851558D01*
X534606Y851480D01*
X560534D01*
X560590Y851055D01*
X560943Y850203D01*
X561504Y849472D01*
X562235Y848911D01*
X563086Y848559D01*
X564000Y848438D01*
X564914Y848559D01*
X565765Y848911D01*
X566496Y849472D01*
X567057Y850203D01*
X567410Y851055D01*
X567530Y851968D01*
X567410Y852882D01*
X567057Y853734D01*
X566496Y854465D01*
X565765Y855026D01*
X564914Y855378D01*
X564000Y855499D01*
X563086Y855378D01*
X562235Y855026D01*
X561504Y854465D01*
X560943Y853734D01*
X560854Y853520D01*
X535029D01*
X459697Y928852D01*
Y929661D01*
X459759Y929702D01*
X460090Y930198D01*
X460207Y930783D01*
X460090Y931369D01*
X459759Y931865D01*
X459262Y932197D01*
X458677Y932313D01*
D02*
G37*
G36*
X354740Y869514D02*
X354155Y869397D01*
X353659Y869066D01*
X353327Y868570D01*
X353211Y867984D01*
X353327Y867399D01*
X353659Y866903D01*
X354155Y866571D01*
X354740Y866455D01*
X355325Y866571D01*
X355822Y866903D01*
X356153Y867399D01*
X356270Y867984D01*
X356153Y868570D01*
X355822Y869066D01*
X355325Y869397D01*
X354740Y869514D01*
D02*
G37*
G36*
X239689Y871636D02*
X239104Y871519D01*
X238608Y871188D01*
X238276Y870692D01*
X238160Y870106D01*
X238276Y869521D01*
X238608Y869025D01*
X239104Y868693D01*
X239689Y868577D01*
X240274Y868693D01*
X240770Y869025D01*
X241102Y869521D01*
X241218Y870106D01*
X241102Y870692D01*
X240770Y871188D01*
X240274Y871519D01*
X239689Y871636D01*
D02*
G37*
G36*
X611311Y881974D02*
X610348Y881782D01*
X609531Y881236D01*
X608986Y880420D01*
X608794Y879457D01*
X608986Y878493D01*
X609531Y877677D01*
X610348Y877131D01*
X611311Y876940D01*
X612274Y877131D01*
X613091Y877677D01*
X613636Y878493D01*
X613828Y879457D01*
X613636Y880420D01*
X613091Y881236D01*
X612274Y881782D01*
X611311Y881974D01*
D02*
G37*
G36*
X562500Y887188D02*
X561586Y887067D01*
X560735Y886715D01*
X560004Y886154D01*
X559443Y885423D01*
X559090Y884571D01*
X558970Y883657D01*
X559090Y882744D01*
X559443Y881892D01*
X560004Y881161D01*
X560735Y880600D01*
X561586Y880248D01*
X562500Y880127D01*
X563414Y880248D01*
X564265Y880600D01*
X564996Y881161D01*
X565557Y881892D01*
X565910Y882744D01*
X566030Y883657D01*
X565910Y884571D01*
X565557Y885423D01*
X564996Y886154D01*
X564265Y886715D01*
X563414Y887067D01*
X562500Y887188D01*
D02*
G37*
G36*
X498547Y938520D02*
X451500D01*
X451110Y938442D01*
X450779Y938221D01*
X447956Y935398D01*
X447735Y935067D01*
X447658Y934677D01*
Y931934D01*
X447596Y931892D01*
X447264Y931396D01*
X447148Y930811D01*
X447264Y930226D01*
X447596Y929730D01*
X448092Y929398D01*
X448677Y929282D01*
X449262Y929398D01*
X449759Y929730D01*
X450090Y930226D01*
X450207Y930811D01*
X450090Y931396D01*
X449759Y931892D01*
X449697Y931934D01*
Y934255D01*
X451922Y936480D01*
X455254D01*
X455303Y935980D01*
X455110Y935942D01*
X454779Y935721D01*
X452956Y933898D01*
X452735Y933567D01*
X452658Y933177D01*
Y931906D01*
X452596Y931865D01*
X452264Y931369D01*
X452148Y930783D01*
X452264Y930198D01*
X452596Y929702D01*
X453092Y929370D01*
X453677Y929254D01*
X454262Y929370D01*
X454759Y929702D01*
X455090Y930198D01*
X455206Y930783D01*
X455090Y931369D01*
X454759Y931865D01*
X454697Y931906D01*
Y932755D01*
X455922Y933980D01*
X496078D01*
X541279Y888779D01*
X541610Y888558D01*
X542000Y888480D01*
X594031D01*
X594422Y888558D01*
X594753Y888779D01*
X597841Y891867D01*
X598586Y891559D01*
X599500Y891438D01*
X600414Y891559D01*
X601265Y891911D01*
X601996Y892472D01*
X602557Y893203D01*
X602910Y894055D01*
X603030Y894969D01*
X602910Y895882D01*
X602557Y896734D01*
X601996Y897465D01*
X601265Y898026D01*
X600414Y898378D01*
X599500Y898499D01*
X598586Y898378D01*
X597735Y898026D01*
X597004Y897465D01*
X596443Y896734D01*
X596090Y895882D01*
X595970Y894969D01*
X596090Y894055D01*
X596399Y893309D01*
X593609Y890520D01*
X542422D01*
X497221Y935721D01*
X496890Y935942D01*
X496697Y935980D01*
X496746Y936480D01*
X498341D01*
X498598Y936429D01*
X500129D01*
X542279Y894279D01*
X542610Y894058D01*
X543000Y893980D01*
X559328D01*
X559443Y893703D01*
X560004Y892972D01*
X560735Y892411D01*
X561586Y892059D01*
X562500Y891938D01*
X563414Y892059D01*
X564265Y892411D01*
X564996Y892972D01*
X565557Y893703D01*
X565910Y894555D01*
X566030Y895469D01*
X565910Y896382D01*
X565557Y897234D01*
X564996Y897965D01*
X564265Y898526D01*
X563414Y898878D01*
X562500Y898999D01*
X561586Y898878D01*
X560735Y898526D01*
X560004Y897965D01*
X559443Y897234D01*
X559090Y896382D01*
X559042Y896020D01*
X543422D01*
X501272Y938170D01*
X500941Y938391D01*
X500551Y938468D01*
X498804D01*
X498547Y938520D01*
D02*
G37*
G36*
X313535Y903028D02*
X305449D01*
Y894941D01*
X313535D01*
Y903028D01*
D02*
G37*
G36*
X550689Y882474D02*
X549726Y882282D01*
X548909Y881736D01*
X548364Y880920D01*
X548172Y879957D01*
X548364Y878994D01*
X548909Y878177D01*
X549726Y877631D01*
X550689Y877440D01*
X551652Y877631D01*
X552469Y878177D01*
X553014Y878994D01*
X553206Y879957D01*
X553014Y880920D01*
X552469Y881736D01*
X551652Y882282D01*
X550689Y882474D01*
D02*
G37*
G36*
X574311D02*
X573348Y882282D01*
X572531Y881736D01*
X571986Y880920D01*
X571794Y879957D01*
X571986Y878994D01*
X572531Y878177D01*
X573348Y877631D01*
X574311Y877440D01*
X575274Y877631D01*
X576091Y878177D01*
X576636Y878994D01*
X576828Y879957D01*
X576636Y880920D01*
X576091Y881736D01*
X575274Y882282D01*
X574311Y882474D01*
D02*
G37*
G36*
X599500Y886688D02*
X598586Y886567D01*
X597735Y886215D01*
X597004Y885654D01*
X596443Y884923D01*
X596090Y884071D01*
X595970Y883158D01*
X596090Y882244D01*
X596443Y881392D01*
X597004Y880661D01*
X597735Y880100D01*
X598586Y879748D01*
X599500Y879627D01*
X600414Y879748D01*
X601265Y880100D01*
X601996Y880661D01*
X602557Y881392D01*
X602910Y882244D01*
X603030Y883158D01*
X602910Y884071D01*
X602557Y884923D01*
X601996Y885654D01*
X601265Y886215D01*
X600414Y886567D01*
X599500Y886688D01*
D02*
G37*
G36*
X280279Y811966D02*
X279694Y811850D01*
X279198Y811518D01*
X278867Y811022D01*
X278750Y810437D01*
X278867Y809852D01*
X279198Y809356D01*
X279694Y809024D01*
X280279Y808908D01*
X280865Y809024D01*
X281361Y809356D01*
X281693Y809852D01*
X281809Y810437D01*
X281693Y811022D01*
X281361Y811518D01*
X280865Y811850D01*
X280279Y811966D01*
D02*
G37*
G36*
X413000Y815029D02*
X412415Y814913D01*
X411919Y814581D01*
X411587Y814085D01*
X411471Y813500D01*
X411587Y812915D01*
X411919Y812419D01*
X412415Y812087D01*
X413000Y811971D01*
X413585Y812087D01*
X414081Y812419D01*
X414413Y812915D01*
X414529Y813500D01*
X414413Y814085D01*
X414081Y814581D01*
X413585Y814913D01*
X413000Y815029D01*
D02*
G37*
G36*
X588689Y838879D02*
X587726Y838688D01*
X586909Y838142D01*
X586364Y837325D01*
X586172Y836362D01*
X586364Y835399D01*
X586909Y834583D01*
X587726Y834037D01*
X588689Y833845D01*
X589652Y834037D01*
X590469Y834583D01*
X591014Y835399D01*
X591206Y836362D01*
X591014Y837325D01*
X590469Y838142D01*
X589652Y838688D01*
X588689Y838879D01*
D02*
G37*
G36*
X422500Y803029D02*
X421915Y802913D01*
X421419Y802581D01*
X421087Y802085D01*
X420971Y801500D01*
X421087Y800915D01*
X421419Y800419D01*
X421915Y800087D01*
X422500Y799971D01*
X423085Y800087D01*
X423581Y800419D01*
X423913Y800915D01*
X424029Y801500D01*
X423913Y802085D01*
X423581Y802581D01*
X423085Y802913D01*
X422500Y803029D01*
D02*
G37*
G36*
X367614Y809503D02*
X366559Y809365D01*
X365575Y808957D01*
X364730Y808309D01*
X364082Y807464D01*
X363675Y806481D01*
X363536Y805425D01*
X363675Y804370D01*
X364082Y803386D01*
X364730Y802542D01*
X365575Y801893D01*
X366559Y801486D01*
X367614Y801347D01*
X368670Y801486D01*
X369653Y801893D01*
X370498Y802542D01*
X371146Y803386D01*
X371553Y804370D01*
X371692Y805425D01*
X371553Y806481D01*
X371146Y807464D01*
X370498Y808309D01*
X369653Y808957D01*
X368670Y809365D01*
X367614Y809503D01*
D02*
G37*
G36*
X361658Y809468D02*
X353571D01*
Y801382D01*
X361658D01*
Y809468D01*
D02*
G37*
G36*
X612311Y838879D02*
X611348Y838688D01*
X610531Y838142D01*
X609986Y837325D01*
X609794Y836362D01*
X609986Y835399D01*
X610531Y834583D01*
X611348Y834037D01*
X612311Y833845D01*
X613274Y834037D01*
X614091Y834583D01*
X614636Y835399D01*
X614828Y836362D01*
X614636Y837325D01*
X614091Y838142D01*
X613274Y838688D01*
X612311Y838879D01*
D02*
G37*
G36*
X564000Y843688D02*
X563086Y843567D01*
X562235Y843215D01*
X561504Y842654D01*
X560943Y841923D01*
X560590Y841071D01*
X560470Y840158D01*
X560590Y839244D01*
X560943Y838392D01*
X561504Y837661D01*
X562235Y837100D01*
X563086Y836748D01*
X564000Y836627D01*
X564914Y836748D01*
X565765Y837100D01*
X566496Y837661D01*
X567057Y838392D01*
X567410Y839244D01*
X567530Y840158D01*
X567410Y841071D01*
X567057Y841923D01*
X566496Y842654D01*
X565765Y843215D01*
X564914Y843567D01*
X564000Y843688D01*
D02*
G37*
G36*
X252378Y848376D02*
X251793Y848260D01*
X251296Y847928D01*
X250965Y847432D01*
X250849Y846846D01*
X250965Y846261D01*
X251296Y845765D01*
X251793Y845434D01*
X252378Y845317D01*
X252963Y845434D01*
X253459Y845765D01*
X253791Y846261D01*
X253907Y846846D01*
X253791Y847432D01*
X253459Y847928D01*
X252963Y848260D01*
X252378Y848376D01*
D02*
G37*
G36*
X463677Y932813D02*
X463092Y932697D01*
X462596Y932365D01*
X462264Y931869D01*
X462148Y931283D01*
X462264Y930698D01*
X462596Y930202D01*
X463092Y929871D01*
X463677Y929754D01*
X464262Y929871D01*
X464759Y930202D01*
X464800Y930264D01*
X488865D01*
X551023Y868106D01*
X551354Y867885D01*
X551744Y867807D01*
X575751D01*
X592405Y851153D01*
X592736Y850932D01*
X593126Y850854D01*
X597134D01*
X597443Y850109D01*
X598004Y849378D01*
X598735Y848817D01*
X599586Y848464D01*
X600500Y848344D01*
X601414Y848464D01*
X602265Y848817D01*
X602996Y849378D01*
X603557Y850109D01*
X603910Y850960D01*
X604030Y851874D01*
X603910Y852788D01*
X603557Y853639D01*
X602996Y854370D01*
X602265Y854931D01*
X601414Y855284D01*
X600500Y855404D01*
X599586Y855284D01*
X598735Y854931D01*
X598004Y854370D01*
X597443Y853639D01*
X597134Y852894D01*
X593548D01*
X576894Y869548D01*
X576563Y869769D01*
X576173Y869846D01*
X552166D01*
X490008Y932004D01*
X489678Y932226D01*
X489287Y932303D01*
X464800D01*
X464759Y932365D01*
X464262Y932697D01*
X463677Y932813D01*
D02*
G37*
G36*
X552189Y838974D02*
X551226Y838782D01*
X550409Y838236D01*
X549864Y837420D01*
X549672Y836457D01*
X549864Y835493D01*
X550409Y834677D01*
X551226Y834131D01*
X552189Y833940D01*
X553152Y834131D01*
X553969Y834677D01*
X554514Y835493D01*
X554706Y836457D01*
X554514Y837420D01*
X553969Y838236D01*
X553152Y838782D01*
X552189Y838974D01*
D02*
G37*
G36*
X575811D02*
X574848Y838782D01*
X574031Y838236D01*
X573486Y837420D01*
X573294Y836457D01*
X573486Y835493D01*
X574031Y834677D01*
X574848Y834131D01*
X575811Y833940D01*
X576774Y834131D01*
X577591Y834677D01*
X578136Y835493D01*
X578328Y836457D01*
X578136Y837420D01*
X577591Y838236D01*
X576774Y838782D01*
X575811Y838974D01*
D02*
G37*
G36*
X600500Y843593D02*
X599586Y843473D01*
X598735Y843120D01*
X598004Y842559D01*
X597443Y841828D01*
X597090Y840977D01*
X596970Y840063D01*
X597090Y839149D01*
X597443Y838298D01*
X598004Y837567D01*
X598735Y837006D01*
X599586Y836653D01*
X600500Y836533D01*
X601414Y836653D01*
X602265Y837006D01*
X602996Y837567D01*
X603557Y838298D01*
X603910Y839149D01*
X604030Y840063D01*
X603910Y840977D01*
X603557Y841828D01*
X602996Y842559D01*
X602265Y843120D01*
X601414Y843473D01*
X600500Y843593D01*
D02*
G37*
G36*
X529000Y764923D02*
X528415Y764807D01*
X527919Y764475D01*
X527587Y763979D01*
X527471Y763394D01*
X527587Y762808D01*
X527919Y762312D01*
X527980Y762271D01*
Y758816D01*
X525779Y756615D01*
X525558Y756284D01*
X525480Y755894D01*
Y743123D01*
X525419Y743081D01*
X525087Y742585D01*
X524971Y742000D01*
X525087Y741415D01*
X525419Y740919D01*
X525915Y740587D01*
X526500Y740471D01*
X527085Y740587D01*
X527581Y740919D01*
X527913Y741415D01*
X528029Y742000D01*
X527913Y742585D01*
X527581Y743081D01*
X527520Y743123D01*
Y755471D01*
X529721Y757673D01*
X529942Y758004D01*
X530020Y758394D01*
Y762271D01*
X530081Y762312D01*
X530413Y762808D01*
X530529Y763394D01*
X530413Y763979D01*
X530081Y764475D01*
X529585Y764807D01*
X529000Y764923D01*
D02*
G37*
G36*
X535528Y602999D02*
X534472Y602860D01*
X533489Y602453D01*
X532644Y601805D01*
X531996Y600960D01*
X531588Y599977D01*
X531449Y598921D01*
X531588Y597866D01*
X531996Y596882D01*
X532644Y596038D01*
X533489Y595390D01*
X534472Y594982D01*
X535528Y594843D01*
X536583Y594982D01*
X537567Y595390D01*
X538411Y596038D01*
X539059Y596882D01*
X539467Y597866D01*
X539606Y598921D01*
X539467Y599977D01*
X539059Y600960D01*
X538411Y601805D01*
X537567Y602453D01*
X536583Y602860D01*
X535528Y602999D01*
D02*
G37*
G36*
X549571Y602965D02*
X541484D01*
Y594878D01*
X549571D01*
Y602965D01*
D02*
G37*
G36*
X387327Y603129D02*
X386271Y602990D01*
X385288Y602583D01*
X384443Y601935D01*
X383795Y601090D01*
X383388Y600107D01*
X383249Y599051D01*
X383388Y597996D01*
X383795Y597012D01*
X384443Y596168D01*
X385288Y595519D01*
X386271Y595112D01*
X387327Y594973D01*
X388382Y595112D01*
X389366Y595519D01*
X390211Y596168D01*
X390859Y597012D01*
X391266Y597996D01*
X391405Y599051D01*
X391266Y600107D01*
X390859Y601090D01*
X390211Y601935D01*
X389366Y602583D01*
X388382Y602990D01*
X387327Y603129D01*
D02*
G37*
G36*
X279748Y588892D02*
X278834Y588772D01*
X277983Y588419D01*
X277252Y587858D01*
X276691Y587127D01*
X276338Y586276D01*
X276218Y585362D01*
X276338Y584448D01*
X276691Y583597D01*
X277252Y582866D01*
X277983Y582305D01*
X278834Y581952D01*
X279748Y581832D01*
X280662Y581952D01*
X281513Y582305D01*
X282244Y582866D01*
X282805Y583597D01*
X283158Y584448D01*
X283278Y585362D01*
X283158Y586276D01*
X282805Y587127D01*
X282244Y587858D01*
X281513Y588419D01*
X280662Y588772D01*
X279748Y588892D01*
D02*
G37*
G36*
X289748D02*
X288834Y588772D01*
X287983Y588419D01*
X287252Y587858D01*
X286691Y587127D01*
X286338Y586276D01*
X286218Y585362D01*
X286338Y584448D01*
X286691Y583597D01*
X287252Y582866D01*
X287983Y582305D01*
X288834Y581952D01*
X289748Y581832D01*
X290662Y581952D01*
X291513Y582305D01*
X292244Y582866D01*
X292805Y583597D01*
X293158Y584448D01*
X293278Y585362D01*
X293158Y586276D01*
X292805Y587127D01*
X292244Y587858D01*
X291513Y588419D01*
X290662Y588772D01*
X289748Y588892D01*
D02*
G37*
G36*
X525528Y602999D02*
X524472Y602860D01*
X523489Y602453D01*
X522644Y601805D01*
X521996Y600960D01*
X521588Y599977D01*
X521449Y598921D01*
X521588Y597866D01*
X521996Y596882D01*
X522644Y596038D01*
X523489Y595390D01*
X524472Y594982D01*
X525528Y594843D01*
X526583Y594982D01*
X527567Y595390D01*
X528411Y596038D01*
X529059Y596882D01*
X529467Y597866D01*
X529606Y598921D01*
X529467Y599977D01*
X529059Y600960D01*
X528411Y601805D01*
X527567Y602453D01*
X526583Y602860D01*
X525528Y602999D01*
D02*
G37*
G36*
X397327Y603129D02*
X396271Y602990D01*
X395288Y602583D01*
X394443Y601935D01*
X393795Y601090D01*
X393388Y600107D01*
X393249Y599051D01*
X393388Y597996D01*
X393795Y597012D01*
X394443Y596168D01*
X395288Y595519D01*
X396271Y595112D01*
X397327Y594973D01*
X398382Y595112D01*
X399366Y595519D01*
X400211Y596168D01*
X400859Y597012D01*
X401266Y597996D01*
X401405Y599051D01*
X401266Y600107D01*
X400859Y601090D01*
X400211Y601935D01*
X399366Y602583D01*
X398382Y602990D01*
X397327Y603129D01*
D02*
G37*
G36*
X425000Y638029D02*
X424415Y637913D01*
X423919Y637581D01*
X423587Y637085D01*
X423471Y636500D01*
X423587Y635915D01*
X423919Y635419D01*
X424415Y635087D01*
X425000Y634971D01*
X425585Y635087D01*
X426081Y635419D01*
X426413Y635915D01*
X426529Y636500D01*
X426413Y637085D01*
X426081Y637581D01*
X425585Y637913D01*
X425000Y638029D01*
D02*
G37*
G36*
X237000Y641029D02*
X236415Y640913D01*
X235919Y640581D01*
X235587Y640085D01*
X235471Y639500D01*
X235587Y638915D01*
X235919Y638419D01*
X236415Y638087D01*
X237000Y637971D01*
X237585Y638087D01*
X238081Y638419D01*
X238413Y638915D01*
X238529Y639500D01*
X238413Y640085D01*
X238081Y640581D01*
X237585Y640913D01*
X237000Y641029D01*
D02*
G37*
G36*
X367543Y653870D02*
X359457D01*
Y645784D01*
X367543D01*
Y653870D01*
D02*
G37*
G36*
X411370Y603094D02*
X403284D01*
Y595008D01*
X411370D01*
Y603094D01*
D02*
G37*
G36*
X236405Y630029D02*
X235820Y629913D01*
X235324Y629581D01*
X234993Y629085D01*
X234876Y628500D01*
X234993Y627915D01*
X235324Y627419D01*
X235820Y627087D01*
X236405Y626971D01*
X236991Y627087D01*
X237487Y627419D01*
X237819Y627915D01*
X237935Y628500D01*
X237819Y629085D01*
X237487Y629581D01*
X236991Y629913D01*
X236405Y630029D01*
D02*
G37*
G36*
X538500Y637029D02*
X537915Y636913D01*
X537419Y636581D01*
X537087Y636085D01*
X536971Y635500D01*
X537087Y634915D01*
X537419Y634419D01*
X537915Y634087D01*
X538500Y633971D01*
X539085Y634087D01*
X539581Y634419D01*
X539913Y634915D01*
X540029Y635500D01*
X539913Y636085D01*
X539581Y636581D01*
X539085Y636913D01*
X538500Y637029D01*
D02*
G37*
G36*
X304264Y590632D02*
X302900Y590452D01*
X301629Y589926D01*
X300538Y589088D01*
X299700Y587997D01*
X299174Y586726D01*
X298994Y585362D01*
X299174Y583998D01*
X299700Y582727D01*
X300538Y581636D01*
X301629Y580799D01*
X302900Y580272D01*
X304264Y580093D01*
X305628Y580272D01*
X306898Y580799D01*
X307990Y581636D01*
X308827Y582727D01*
X309354Y583998D01*
X309533Y585362D01*
X309354Y586726D01*
X308827Y587997D01*
X307990Y589088D01*
X306898Y589926D01*
X305628Y590452D01*
X304264Y590632D01*
D02*
G37*
G36*
X484189Y589220D02*
X483134Y589081D01*
X482150Y588674D01*
X481305Y588026D01*
X480657Y587181D01*
X480250Y586197D01*
X480111Y585142D01*
X480250Y584086D01*
X480657Y583103D01*
X481305Y582258D01*
X482150Y581610D01*
X483134Y581203D01*
X484189Y581064D01*
X485245Y581203D01*
X486228Y581610D01*
X487073Y582258D01*
X487721Y583103D01*
X488128Y584086D01*
X488267Y585142D01*
X488128Y586197D01*
X487721Y587181D01*
X487073Y588026D01*
X486228Y588674D01*
X485245Y589081D01*
X484189Y589220D01*
D02*
G37*
G36*
X494189D02*
X493133Y589081D01*
X492150Y588674D01*
X491305Y588026D01*
X490657Y587181D01*
X490250Y586197D01*
X490111Y585142D01*
X490250Y584086D01*
X490657Y583103D01*
X491305Y582258D01*
X492150Y581610D01*
X493133Y581203D01*
X494189Y581064D01*
X495245Y581203D01*
X496228Y581610D01*
X497073Y582258D01*
X497721Y583103D01*
X498128Y584086D01*
X498267Y585142D01*
X498128Y586197D01*
X497721Y587181D01*
X497073Y588026D01*
X496228Y588674D01*
X495245Y589081D01*
X494189Y589220D01*
D02*
G37*
G36*
X208661Y573761D02*
X207329Y573630D01*
X206047Y573241D01*
X204866Y572610D01*
X203830Y571760D01*
X202981Y570725D01*
X202349Y569544D01*
X201961Y568262D01*
X201829Y566929D01*
X201961Y565596D01*
X202349Y564315D01*
X202981Y563133D01*
X203830Y562098D01*
X204866Y561248D01*
X206047Y560617D01*
X207329Y560228D01*
X208661Y560097D01*
X209994Y560228D01*
X211276Y560617D01*
X212457Y561248D01*
X213492Y562098D01*
X214342Y563133D01*
X214973Y564315D01*
X215362Y565596D01*
X215493Y566929D01*
X215362Y568262D01*
X214973Y569544D01*
X214342Y570725D01*
X213492Y571760D01*
X212457Y572610D01*
X211276Y573241D01*
X209994Y573630D01*
X208661Y573761D01*
D02*
G37*
G36*
X618110D02*
X616777Y573630D01*
X615496Y573241D01*
X614315Y572610D01*
X613279Y571760D01*
X612430Y570725D01*
X611798Y569544D01*
X611409Y568262D01*
X611278Y566929D01*
X611409Y565596D01*
X611798Y564315D01*
X612430Y563133D01*
X613279Y562098D01*
X614315Y561248D01*
X615496Y560617D01*
X616777Y560228D01*
X618110Y560097D01*
X619443Y560228D01*
X620725Y560617D01*
X621906Y561248D01*
X622941Y562098D01*
X623791Y563133D01*
X624422Y564315D01*
X624811Y565596D01*
X624942Y566929D01*
X624811Y568262D01*
X624422Y569544D01*
X623791Y570725D01*
X622941Y571760D01*
X621906Y572610D01*
X620725Y573241D01*
X619443Y573630D01*
X618110Y573761D01*
D02*
G37*
G36*
X246232Y590632D02*
X244868Y590452D01*
X243598Y589926D01*
X242506Y589088D01*
X241669Y587997D01*
X241142Y586726D01*
X240963Y585362D01*
X241142Y583998D01*
X241669Y582727D01*
X242506Y581636D01*
X243598Y580799D01*
X244868Y580272D01*
X246232Y580093D01*
X247596Y580272D01*
X248867Y580799D01*
X249958Y581636D01*
X250796Y582727D01*
X251322Y583998D01*
X251502Y585362D01*
X251322Y586726D01*
X250796Y587997D01*
X249958Y589088D01*
X248867Y589926D01*
X247596Y590452D01*
X246232Y590632D01*
D02*
G37*
G36*
X572772Y589220D02*
X571716Y589081D01*
X570733Y588674D01*
X569888Y588026D01*
X569240Y587181D01*
X568832Y586197D01*
X568693Y585142D01*
X568832Y584086D01*
X569240Y583103D01*
X569888Y582258D01*
X570733Y581610D01*
X571716Y581203D01*
X572772Y581064D01*
X573827Y581203D01*
X574811Y581610D01*
X575655Y582258D01*
X576303Y583103D01*
X576711Y584086D01*
X576850Y585142D01*
X576711Y586197D01*
X576303Y587181D01*
X575655Y588026D01*
X574811Y588674D01*
X573827Y589081D01*
X572772Y589220D01*
D02*
G37*
G36*
X430634Y589350D02*
X429578Y589211D01*
X428595Y588803D01*
X427750Y588155D01*
X427102Y587311D01*
X426695Y586327D01*
X426556Y585272D01*
X426695Y584216D01*
X427102Y583233D01*
X427750Y582388D01*
X428595Y581740D01*
X429578Y581332D01*
X430634Y581193D01*
X431689Y581332D01*
X432673Y581740D01*
X433518Y582388D01*
X434166Y583233D01*
X434573Y584216D01*
X434712Y585272D01*
X434573Y586327D01*
X434166Y587311D01*
X433518Y588155D01*
X432673Y588803D01*
X431689Y589211D01*
X430634Y589350D01*
D02*
G37*
G36*
X440634D02*
X439578Y589211D01*
X438595Y588803D01*
X437750Y588155D01*
X437102Y587311D01*
X436695Y586327D01*
X436556Y585272D01*
X436695Y584216D01*
X437102Y583233D01*
X437750Y582388D01*
X438595Y581740D01*
X439578Y581332D01*
X440634Y581193D01*
X441689Y581332D01*
X442673Y581740D01*
X443518Y582388D01*
X444166Y583233D01*
X444573Y584216D01*
X444712Y585272D01*
X444573Y586327D01*
X444166Y587311D01*
X443518Y588155D01*
X442673Y588803D01*
X441689Y589211D01*
X440634Y589350D01*
D02*
G37*
G36*
X270248Y588892D02*
X269334Y588772D01*
X268483Y588419D01*
X267752Y587858D01*
X267191Y587127D01*
X266838Y586276D01*
X266718Y585362D01*
X266838Y584448D01*
X267191Y583597D01*
X267752Y582866D01*
X268483Y582305D01*
X269334Y581952D01*
X270248Y581832D01*
X271162Y581952D01*
X272013Y582305D01*
X272744Y582866D01*
X273305Y583597D01*
X273658Y584448D01*
X273778Y585362D01*
X273658Y586276D01*
X273305Y587127D01*
X272744Y587858D01*
X272013Y588419D01*
X271162Y588772D01*
X270248Y588892D01*
D02*
G37*
G36*
X582772Y589220D02*
X581716Y589081D01*
X580733Y588674D01*
X579888Y588026D01*
X579240Y587181D01*
X578832Y586197D01*
X578693Y585142D01*
X578832Y584086D01*
X579240Y583103D01*
X579888Y582258D01*
X580733Y581610D01*
X581716Y581203D01*
X582772Y581064D01*
X583827Y581203D01*
X584811Y581610D01*
X585655Y582258D01*
X586304Y583103D01*
X586711Y584086D01*
X586850Y585142D01*
X586711Y586197D01*
X586304Y587181D01*
X585655Y588026D01*
X584811Y588674D01*
X583827Y589081D01*
X582772Y589220D01*
D02*
G37*
G36*
X345988Y589350D02*
X344933Y589211D01*
X343949Y588803D01*
X343105Y588155D01*
X342456Y587311D01*
X342049Y586327D01*
X341910Y585272D01*
X342049Y584216D01*
X342456Y583233D01*
X343105Y582388D01*
X343949Y581740D01*
X344933Y581332D01*
X345988Y581193D01*
X347044Y581332D01*
X348027Y581740D01*
X348872Y582388D01*
X349520Y583233D01*
X349927Y584216D01*
X350066Y585272D01*
X349927Y586327D01*
X349520Y587311D01*
X348872Y588155D01*
X348027Y588803D01*
X347044Y589211D01*
X345988Y589350D01*
D02*
G37*
G36*
X355988D02*
X354933Y589211D01*
X353949Y588803D01*
X353104Y588155D01*
X352456Y587311D01*
X352049Y586327D01*
X351910Y585272D01*
X352049Y584216D01*
X352456Y583233D01*
X353104Y582388D01*
X353949Y581740D01*
X354933Y581332D01*
X355988Y581193D01*
X357044Y581332D01*
X358027Y581740D01*
X358872Y582388D01*
X359520Y583233D01*
X359927Y584216D01*
X360066Y585272D01*
X359927Y586327D01*
X359520Y587311D01*
X358872Y588155D01*
X358027Y588803D01*
X357044Y589211D01*
X355988Y589350D01*
D02*
G37*
G36*
X401500Y652029D02*
X400915Y651913D01*
X400419Y651581D01*
X400087Y651085D01*
X399971Y650500D01*
X400087Y649915D01*
X400419Y649419D01*
X400915Y649087D01*
X401500Y648971D01*
X402085Y649087D01*
X402581Y649419D01*
X402913Y649915D01*
X403029Y650500D01*
X402913Y651085D01*
X402581Y651581D01*
X402085Y651913D01*
X401500Y652029D01*
D02*
G37*
G36*
X494965Y703494D02*
X494379Y703377D01*
X493883Y703046D01*
X493552Y702550D01*
X493435Y701965D01*
X493552Y701379D01*
X493883Y700883D01*
X494379Y700552D01*
X494965Y700435D01*
X495550Y700552D01*
X496046Y700883D01*
X496378Y701379D01*
X496494Y701965D01*
X496378Y702550D01*
X496046Y703046D01*
X495550Y703377D01*
X494965Y703494D01*
D02*
G37*
G36*
X488024Y703553D02*
X487438Y703437D01*
X486942Y703105D01*
X486611Y702609D01*
X486494Y702024D01*
X486611Y701438D01*
X486942Y700942D01*
X487438Y700611D01*
X488024Y700494D01*
X488609Y700611D01*
X489105Y700942D01*
X489437Y701438D01*
X489553Y702024D01*
X489437Y702609D01*
X489105Y703105D01*
X488609Y703437D01*
X488024Y703553D01*
D02*
G37*
G36*
X537346Y703836D02*
X536761Y703720D01*
X536265Y703389D01*
X535933Y702892D01*
X535817Y702307D01*
X535933Y701722D01*
X536265Y701226D01*
X536761Y700894D01*
X537346Y700778D01*
X537932Y700894D01*
X538428Y701226D01*
X538759Y701722D01*
X538876Y702307D01*
X538759Y702892D01*
X538428Y703389D01*
X537932Y703720D01*
X537346Y703836D01*
D02*
G37*
G36*
X599228Y701377D02*
X598173Y701238D01*
X597189Y700831D01*
X596345Y700183D01*
X595696Y699338D01*
X595289Y698355D01*
X595150Y697299D01*
X595289Y696244D01*
X595696Y695260D01*
X595719Y695231D01*
X594779Y694292D01*
X594558Y693961D01*
X594480Y693571D01*
Y684887D01*
X541098Y631505D01*
X315485D01*
X315095Y631427D01*
X314764Y631206D01*
X281776Y598218D01*
X281513Y598419D01*
X280662Y598772D01*
X279748Y598892D01*
X278834Y598772D01*
X277983Y598419D01*
X277252Y597858D01*
X276691Y597127D01*
X276338Y596276D01*
X276218Y595362D01*
X276338Y594449D01*
X276691Y593597D01*
X277252Y592866D01*
X277983Y592305D01*
X278834Y591952D01*
X279748Y591832D01*
X280662Y591952D01*
X281513Y592305D01*
X282244Y592866D01*
X282805Y593597D01*
X283158Y594449D01*
X283278Y595362D01*
X283158Y596276D01*
X283029Y596587D01*
X315908Y629466D01*
X317057D01*
X317169Y629003D01*
X317162Y628966D01*
X316486Y628514D01*
X316022Y627819D01*
X315859Y627000D01*
X316022Y626181D01*
X316486Y625486D01*
X317181Y625022D01*
X318000Y624859D01*
X333613D01*
X335486Y622986D01*
X335486Y622986D01*
X341359Y617113D01*
Y613500D01*
X341522Y612681D01*
X341986Y611986D01*
X342681Y611522D01*
X343500Y611359D01*
X344319Y611522D01*
X345014Y611986D01*
X345478Y612681D01*
X345641Y613500D01*
Y618000D01*
X345478Y618819D01*
X345014Y619514D01*
X338514Y626014D01*
X338514Y626014D01*
X336014Y628514D01*
X335338Y628966D01*
X335331Y629003D01*
X335443Y629466D01*
X541521D01*
X541911Y629543D01*
X542242Y629764D01*
X596221Y683743D01*
X596442Y684074D01*
X596520Y684465D01*
Y693149D01*
X597160Y693789D01*
X597189Y693767D01*
X598173Y693360D01*
X599228Y693221D01*
X600284Y693360D01*
X601267Y693767D01*
X602112Y694416D01*
X602760Y695260D01*
X603168Y696244D01*
X603306Y697299D01*
X603168Y698355D01*
X602760Y699338D01*
X602112Y700183D01*
X601267Y700831D01*
X600284Y701238D01*
X599228Y701377D01*
D02*
G37*
G36*
X269500Y697529D02*
X268915Y697413D01*
X268419Y697081D01*
X268087Y696585D01*
X267971Y696000D01*
X268087Y695415D01*
X268419Y694919D01*
X268915Y694587D01*
X269500Y694471D01*
X270085Y694587D01*
X270581Y694919D01*
X270913Y695415D01*
X271029Y696000D01*
X270913Y696585D01*
X270581Y697081D01*
X270085Y697413D01*
X269500Y697529D01*
D02*
G37*
G36*
X557346Y697836D02*
X556761Y697720D01*
X556265Y697389D01*
X555933Y696892D01*
X555817Y696307D01*
X555933Y695722D01*
X556265Y695226D01*
X556761Y694894D01*
X557346Y694778D01*
X557932Y694894D01*
X558428Y695226D01*
X558759Y695722D01*
X558876Y696307D01*
X558759Y696892D01*
X558428Y697389D01*
X557932Y697720D01*
X557346Y697836D01*
D02*
G37*
G36*
X543346Y703836D02*
X542761Y703720D01*
X542265Y703389D01*
X541933Y702892D01*
X541817Y702307D01*
X541933Y701722D01*
X542265Y701226D01*
X542761Y700894D01*
X543346Y700778D01*
X543932Y700894D01*
X544428Y701226D01*
X544759Y701722D01*
X544876Y702307D01*
X544759Y702892D01*
X544428Y703389D01*
X543932Y703720D01*
X543346Y703836D01*
D02*
G37*
G36*
X597335Y740149D02*
X596279Y740010D01*
X595296Y739603D01*
X594451Y738955D01*
X593803Y738110D01*
X593395Y737126D01*
X593257Y736071D01*
X593395Y735015D01*
X593803Y734032D01*
X594451Y733187D01*
X595296Y732539D01*
X596279Y732132D01*
X597335Y731993D01*
X598390Y732132D01*
X599374Y732539D01*
X600218Y733187D01*
X600867Y734032D01*
X601274Y735015D01*
X601413Y736071D01*
X601274Y737126D01*
X600867Y738110D01*
X600218Y738955D01*
X599374Y739603D01*
X598390Y740010D01*
X597335Y740149D01*
D02*
G37*
G36*
X474000Y786029D02*
X473415Y785913D01*
X472919Y785581D01*
X472587Y785085D01*
X472471Y784500D01*
X472587Y783915D01*
X472919Y783419D01*
X473415Y783087D01*
X474000Y782971D01*
X474073Y782985D01*
X474480Y782578D01*
Y756922D01*
X449834Y732275D01*
X433997D01*
X433955Y732337D01*
X433459Y732669D01*
X432874Y732785D01*
X432289Y732669D01*
X431793Y732337D01*
X431461Y731841D01*
X431345Y731256D01*
X431461Y730671D01*
X431793Y730174D01*
X432289Y729843D01*
X432874Y729727D01*
X433459Y729843D01*
X433955Y730174D01*
X433997Y730236D01*
X450256D01*
X450646Y730314D01*
X450977Y730535D01*
X476221Y755779D01*
X476442Y756110D01*
X476520Y756500D01*
Y783000D01*
X476442Y783390D01*
X476221Y783721D01*
X475515Y784427D01*
X475529Y784500D01*
X475413Y785085D01*
X475081Y785581D01*
X474585Y785913D01*
X474000Y786029D01*
D02*
G37*
G36*
X252126Y740214D02*
X251541Y740098D01*
X251045Y739767D01*
X250713Y739270D01*
X250597Y738685D01*
X250713Y738100D01*
X251045Y737604D01*
X251541Y737272D01*
X252126Y737156D01*
X252711Y737272D01*
X253207Y737604D01*
X253539Y738100D01*
X253655Y738685D01*
X253539Y739270D01*
X253207Y739767D01*
X252711Y740098D01*
X252126Y740214D01*
D02*
G37*
G36*
X448000Y706029D02*
X447415Y705913D01*
X446919Y705581D01*
X446587Y705085D01*
X446471Y704500D01*
X446587Y703915D01*
X446919Y703419D01*
X447415Y703087D01*
X448000Y702971D01*
X448585Y703087D01*
X449081Y703419D01*
X449413Y703915D01*
X449529Y704500D01*
X449413Y705085D01*
X449081Y705581D01*
X448585Y705913D01*
X448000Y706029D01*
D02*
G37*
G36*
X442819Y706092D02*
X442234Y705976D01*
X441737Y705644D01*
X441406Y705148D01*
X441289Y704563D01*
X441406Y703978D01*
X441737Y703481D01*
X442234Y703150D01*
X442819Y703034D01*
X443404Y703150D01*
X443900Y703481D01*
X444232Y703978D01*
X444348Y704563D01*
X444232Y705148D01*
X443900Y705644D01*
X443404Y705976D01*
X442819Y706092D01*
D02*
G37*
G36*
X329528Y729592D02*
X328942Y729476D01*
X328446Y729144D01*
X328115Y728648D01*
X327998Y728063D01*
X328115Y727478D01*
X328446Y726982D01*
X328942Y726650D01*
X329528Y726534D01*
X330113Y726650D01*
X330609Y726982D01*
X330941Y727478D01*
X331057Y728063D01*
X330941Y728648D01*
X330609Y729144D01*
X330113Y729476D01*
X329528Y729592D01*
D02*
G37*
G36*
X541346Y661337D02*
X540761Y661220D01*
X540265Y660888D01*
X539933Y660392D01*
X539817Y659807D01*
X539933Y659222D01*
X540265Y658726D01*
X540761Y658394D01*
X541346Y658278D01*
X541932Y658394D01*
X542428Y658726D01*
X542759Y659222D01*
X542876Y659807D01*
X542759Y660392D01*
X542428Y660888D01*
X541932Y661220D01*
X541346Y661337D01*
D02*
G37*
G36*
X251000Y664529D02*
X250415Y664413D01*
X249919Y664081D01*
X249587Y663585D01*
X249471Y663000D01*
X249587Y662415D01*
X249919Y661919D01*
X250415Y661587D01*
X251000Y661471D01*
X251585Y661587D01*
X252081Y661919D01*
X252413Y662415D01*
X252529Y663000D01*
X252413Y663585D01*
X252081Y664081D01*
X251585Y664413D01*
X251000Y664529D01*
D02*
G37*
G36*
X313323Y674388D02*
X312738Y674271D01*
X312241Y673940D01*
X311910Y673444D01*
X311793Y672858D01*
X311910Y672273D01*
X312241Y671777D01*
X312738Y671445D01*
X313323Y671329D01*
X313908Y671445D01*
X314404Y671777D01*
X314736Y672273D01*
X314852Y672858D01*
X314736Y673444D01*
X314404Y673940D01*
X313908Y674271D01*
X313323Y674388D01*
D02*
G37*
G36*
X494500Y655529D02*
X493915Y655413D01*
X493419Y655081D01*
X493087Y654585D01*
X492971Y654000D01*
X493087Y653415D01*
X493419Y652919D01*
X493915Y652587D01*
X494500Y652471D01*
X495085Y652587D01*
X495581Y652919D01*
X495913Y653415D01*
X496029Y654000D01*
X495913Y654585D01*
X495581Y655081D01*
X495085Y655413D01*
X494500Y655529D01*
D02*
G37*
G36*
X599228Y662007D02*
X598173Y661868D01*
X597189Y661461D01*
X596345Y660813D01*
X595696Y659968D01*
X595289Y658985D01*
X595281Y658919D01*
X595039Y658871D01*
X594708Y658650D01*
X544078Y608020D01*
X301886D01*
X301496Y607942D01*
X301165Y607721D01*
X291907Y598463D01*
X291162Y598772D01*
X290248Y598892D01*
X289334Y598772D01*
X288483Y598419D01*
X287752Y597858D01*
X287191Y597127D01*
X286838Y596276D01*
X286718Y595362D01*
X286838Y594449D01*
X287191Y593597D01*
X287752Y592866D01*
X288483Y592305D01*
X289334Y591952D01*
X290248Y591832D01*
X291162Y591952D01*
X292013Y592305D01*
X292744Y592866D01*
X293305Y593597D01*
X293658Y594449D01*
X293778Y595362D01*
X293658Y596276D01*
X293349Y597021D01*
X302308Y605980D01*
X544500D01*
X544890Y606058D01*
X545221Y606279D01*
X595125Y656183D01*
X595615Y656086D01*
X595696Y655890D01*
X596345Y655045D01*
X597189Y654397D01*
X598173Y653990D01*
X599228Y653851D01*
X600284Y653990D01*
X601267Y654397D01*
X602112Y655045D01*
X602760Y655890D01*
X603168Y656874D01*
X603306Y657929D01*
X603168Y658985D01*
X602760Y659968D01*
X602112Y660813D01*
X601267Y661461D01*
X600284Y661868D01*
X599228Y662007D01*
D02*
G37*
G36*
X449000Y657029D02*
X448415Y656913D01*
X447919Y656581D01*
X447587Y656085D01*
X447471Y655500D01*
X447587Y654915D01*
X447919Y654419D01*
X448415Y654087D01*
X449000Y653971D01*
X449585Y654087D01*
X450081Y654419D01*
X450413Y654915D01*
X450529Y655500D01*
X450413Y656085D01*
X450081Y656581D01*
X449585Y656913D01*
X449000Y657029D01*
D02*
G37*
G36*
X265500Y683029D02*
X264915Y682913D01*
X264419Y682581D01*
X264087Y682085D01*
X263971Y681500D01*
X264087Y680915D01*
X264419Y680419D01*
X264915Y680087D01*
X265500Y679971D01*
X266085Y680087D01*
X266581Y680419D01*
X266913Y680915D01*
X267029Y681500D01*
X266913Y682085D01*
X266581Y682581D01*
X266085Y682913D01*
X265500Y683029D01*
D02*
G37*
G36*
X508000Y692029D02*
X507415Y691913D01*
X506919Y691581D01*
X506587Y691085D01*
X506471Y690500D01*
X506587Y689915D01*
X506919Y689419D01*
X507415Y689087D01*
X508000Y688971D01*
X508585Y689087D01*
X509081Y689419D01*
X509413Y689915D01*
X509529Y690500D01*
X509413Y691085D01*
X509081Y691581D01*
X508585Y691913D01*
X508000Y692029D01*
D02*
G37*
G36*
X462835Y693195D02*
X462249Y693078D01*
X461753Y692747D01*
X461422Y692251D01*
X461305Y691665D01*
X461422Y691080D01*
X461753Y690584D01*
X462249Y690252D01*
X462835Y690136D01*
X463420Y690252D01*
X463916Y690584D01*
X464248Y691080D01*
X464364Y691665D01*
X464248Y692251D01*
X463916Y692747D01*
X463420Y693078D01*
X462835Y693195D01*
D02*
G37*
G36*
X402874Y695785D02*
X402289Y695669D01*
X401792Y695337D01*
X401461Y694841D01*
X401345Y694256D01*
X401461Y693671D01*
X401792Y693175D01*
X402289Y692843D01*
X402874Y692727D01*
X403459Y692843D01*
X403955Y693175D01*
X404287Y693671D01*
X404403Y694256D01*
X404287Y694841D01*
X403955Y695337D01*
X403459Y695669D01*
X402874Y695785D01*
D02*
G37*
G36*
X244358Y690283D02*
X236272D01*
Y682197D01*
X244358D01*
Y690283D01*
D02*
G37*
G36*
X415000Y688529D02*
X414415Y688413D01*
X413919Y688081D01*
X413587Y687585D01*
X413471Y687000D01*
X413587Y686415D01*
X413919Y685919D01*
X414415Y685587D01*
X415000Y685471D01*
X415585Y685587D01*
X416081Y685919D01*
X416413Y686415D01*
X416529Y687000D01*
X416413Y687585D01*
X416081Y688081D01*
X415585Y688413D01*
X415000Y688529D01*
D02*
G37*
G36*
X400000Y691529D02*
X399415Y691413D01*
X398919Y691081D01*
X398587Y690585D01*
X398471Y690000D01*
X398587Y689415D01*
X398919Y688919D01*
X399415Y688587D01*
X400000Y688471D01*
X400585Y688587D01*
X401081Y688919D01*
X401413Y689415D01*
X401529Y690000D01*
X401413Y690585D01*
X401081Y691081D01*
X400585Y691413D01*
X400000Y691529D01*
D02*
G37*
G36*
X359768Y911121D02*
X358712Y910983D01*
X357729Y910575D01*
X356884Y909927D01*
X356236Y909082D01*
X355828Y908099D01*
X355690Y907043D01*
X355828Y905988D01*
X356236Y905004D01*
X356884Y904160D01*
X357729Y903512D01*
X358712Y903104D01*
X359768Y902965D01*
X360823Y903104D01*
X361807Y903512D01*
X362651Y904160D01*
X363299Y905004D01*
X363707Y905988D01*
X363846Y907043D01*
X363707Y908099D01*
X363299Y909082D01*
X362651Y909927D01*
X361807Y910575D01*
X360823Y910983D01*
X359768Y911121D01*
D02*
G37*
G36*
X416197Y1088301D02*
X415612Y1088185D01*
X415115Y1087853D01*
X414784Y1087357D01*
X414668Y1086772D01*
X414784Y1086186D01*
X415115Y1085690D01*
X415612Y1085359D01*
X416197Y1085242D01*
X416782Y1085359D01*
X417278Y1085690D01*
X417610Y1086186D01*
X417726Y1086772D01*
X417610Y1087357D01*
X417278Y1087853D01*
X416782Y1088185D01*
X416197Y1088301D01*
D02*
G37*
G36*
X505000Y1093578D02*
X503944Y1093439D01*
X502961Y1093032D01*
X502116Y1092384D01*
X501468Y1091539D01*
X501061Y1090555D01*
X500922Y1089500D01*
X501061Y1088445D01*
X501468Y1087461D01*
X502116Y1086616D01*
X502961Y1085968D01*
X503944Y1085561D01*
X505000Y1085422D01*
X506055Y1085561D01*
X507039Y1085968D01*
X507884Y1086616D01*
X508532Y1087461D01*
X508939Y1088445D01*
X509078Y1089500D01*
X508939Y1090555D01*
X508532Y1091539D01*
X507884Y1092384D01*
X507039Y1093032D01*
X506055Y1093439D01*
X505000Y1093578D01*
D02*
G37*
G36*
X499043Y1093543D02*
X490957D01*
Y1085457D01*
X499043D01*
Y1093543D01*
D02*
G37*
G36*
X532000Y1084529D02*
X531415Y1084413D01*
X530919Y1084081D01*
X530587Y1083585D01*
X530471Y1083000D01*
X530587Y1082415D01*
X530919Y1081919D01*
X531415Y1081587D01*
X532000Y1081471D01*
X532585Y1081587D01*
X533081Y1081919D01*
X533413Y1082415D01*
X533529Y1083000D01*
X533413Y1083585D01*
X533081Y1084081D01*
X532585Y1084413D01*
X532000Y1084529D01*
D02*
G37*
G36*
X211189Y1089911D02*
X210226Y1089719D01*
X209409Y1089173D01*
X208864Y1088357D01*
X208672Y1087394D01*
X208864Y1086430D01*
X209409Y1085614D01*
X210226Y1085068D01*
X211189Y1084877D01*
X212152Y1085068D01*
X212969Y1085614D01*
X213514Y1086430D01*
X213706Y1087394D01*
X213514Y1088357D01*
X212969Y1089173D01*
X212152Y1089719D01*
X211189Y1089911D01*
D02*
G37*
G36*
X234811D02*
X233848Y1089719D01*
X233031Y1089173D01*
X232486Y1088357D01*
X232294Y1087394D01*
X232486Y1086430D01*
X233031Y1085614D01*
X233848Y1085068D01*
X234811Y1084877D01*
X235774Y1085068D01*
X236591Y1085614D01*
X237136Y1086430D01*
X237328Y1087394D01*
X237136Y1088357D01*
X236591Y1089173D01*
X235774Y1089719D01*
X234811Y1089911D01*
D02*
G37*
G36*
X391000Y1094078D02*
X389945Y1093939D01*
X388961Y1093532D01*
X388116Y1092884D01*
X387468Y1092039D01*
X387061Y1091055D01*
X386922Y1090000D01*
X387061Y1088945D01*
X387468Y1087961D01*
X388116Y1087116D01*
X388961Y1086468D01*
X389945Y1086061D01*
X391000Y1085922D01*
X392056Y1086061D01*
X393039Y1086468D01*
X393884Y1087116D01*
X394532Y1087961D01*
X394939Y1088945D01*
X395078Y1090000D01*
X394939Y1091055D01*
X394532Y1092039D01*
X393884Y1092884D01*
X393039Y1093532D01*
X392056Y1093939D01*
X391000Y1094078D01*
D02*
G37*
G36*
X223000Y1094625D02*
X222086Y1094504D01*
X221235Y1094152D01*
X220504Y1093591D01*
X219943Y1092860D01*
X219590Y1092008D01*
X219470Y1091094D01*
X219590Y1090181D01*
X219943Y1089329D01*
X220504Y1088598D01*
X221235Y1088037D01*
X222086Y1087685D01*
X223000Y1087564D01*
X223914Y1087685D01*
X224765Y1088037D01*
X225496Y1088598D01*
X226057Y1089329D01*
X226410Y1090181D01*
X226530Y1091094D01*
X226410Y1092008D01*
X226057Y1092860D01*
X225496Y1093591D01*
X224765Y1094152D01*
X223914Y1094504D01*
X223000Y1094625D01*
D02*
G37*
G36*
X407543Y1102043D02*
X399457D01*
Y1093957D01*
X407543D01*
Y1102043D01*
D02*
G37*
G36*
X495000Y1103578D02*
X493945Y1103439D01*
X492961Y1103032D01*
X492116Y1102384D01*
X491468Y1101539D01*
X491061Y1100556D01*
X490922Y1099500D01*
X491061Y1098444D01*
X491468Y1097461D01*
X492116Y1096616D01*
X492961Y1095968D01*
X493945Y1095561D01*
X495000Y1095422D01*
X496056Y1095561D01*
X497039Y1095968D01*
X497884Y1096616D01*
X498532Y1097461D01*
X498939Y1098444D01*
X499078Y1099500D01*
X498939Y1100556D01*
X498532Y1101539D01*
X497884Y1102384D01*
X497039Y1103032D01*
X496056Y1103439D01*
X495000Y1103578D01*
D02*
G37*
G36*
X449500Y1094078D02*
X448445Y1093939D01*
X447461Y1093532D01*
X446616Y1092884D01*
X445968Y1092039D01*
X445561Y1091055D01*
X445422Y1090000D01*
X445561Y1088945D01*
X445968Y1087961D01*
X446616Y1087116D01*
X447461Y1086468D01*
X448445Y1086061D01*
X449500Y1085922D01*
X450556Y1086061D01*
X451539Y1086468D01*
X452384Y1087116D01*
X453032Y1087961D01*
X453439Y1088945D01*
X453578Y1090000D01*
X453439Y1091055D01*
X453032Y1092039D01*
X452384Y1092884D01*
X451539Y1093532D01*
X450556Y1093939D01*
X449500Y1094078D01*
D02*
G37*
G36*
X385043Y1094043D02*
X376957D01*
Y1085957D01*
X385043D01*
Y1094043D01*
D02*
G37*
G36*
X443543D02*
X435457D01*
Y1085957D01*
X443543D01*
Y1094043D01*
D02*
G37*
G36*
X396500Y1081529D02*
X395915Y1081413D01*
X395419Y1081081D01*
X395087Y1080585D01*
X394971Y1080000D01*
X395087Y1079415D01*
X395419Y1078919D01*
X395915Y1078587D01*
X396500Y1078471D01*
X397085Y1078587D01*
X397581Y1078919D01*
X397913Y1079415D01*
X398029Y1080000D01*
X397913Y1080585D01*
X397581Y1081081D01*
X397085Y1081413D01*
X396500Y1081529D01*
D02*
G37*
G36*
X598823Y1052798D02*
X597909Y1052678D01*
X597058Y1052325D01*
X596327Y1051764D01*
X595766Y1051033D01*
X595413Y1050181D01*
X595293Y1049268D01*
X595413Y1048354D01*
X595766Y1047503D01*
X596327Y1046772D01*
X597058Y1046210D01*
X597909Y1045858D01*
X598823Y1045737D01*
X599736Y1045858D01*
X600588Y1046210D01*
X601319Y1046772D01*
X601880Y1047503D01*
X602233Y1048354D01*
X602353Y1049268D01*
X602233Y1050181D01*
X601880Y1051033D01*
X601319Y1051764D01*
X600588Y1052325D01*
X599736Y1052678D01*
X598823Y1052798D01*
D02*
G37*
G36*
X427000Y1050029D02*
X426415Y1049913D01*
X425919Y1049581D01*
X425587Y1049085D01*
X425471Y1048500D01*
X425587Y1047915D01*
X425919Y1047419D01*
X426415Y1047087D01*
X427000Y1046971D01*
X427585Y1047087D01*
X428081Y1047419D01*
X428413Y1047915D01*
X428529Y1048500D01*
X428413Y1049085D01*
X428081Y1049581D01*
X427585Y1049913D01*
X427000Y1050029D01*
D02*
G37*
G36*
X452500Y1050529D02*
X451915Y1050413D01*
X451419Y1050081D01*
X451087Y1049585D01*
X450971Y1049000D01*
X451087Y1048415D01*
X451419Y1047919D01*
X451915Y1047587D01*
X452500Y1047471D01*
X453085Y1047587D01*
X453581Y1047919D01*
X453913Y1048415D01*
X454029Y1049000D01*
X453913Y1049585D01*
X453581Y1050081D01*
X453085Y1050413D01*
X452500Y1050529D01*
D02*
G37*
G36*
X610634Y1048084D02*
X609671Y1047892D01*
X608854Y1047347D01*
X608309Y1046530D01*
X608117Y1045567D01*
X608309Y1044604D01*
X608854Y1043787D01*
X609671Y1043242D01*
X610634Y1043050D01*
X611597Y1043242D01*
X612414Y1043787D01*
X612959Y1044604D01*
X613151Y1045567D01*
X612959Y1046530D01*
X612414Y1047347D01*
X611597Y1047892D01*
X610634Y1048084D01*
D02*
G37*
G36*
X421500Y1048029D02*
X420915Y1047913D01*
X420419Y1047581D01*
X420087Y1047085D01*
X419971Y1046500D01*
X420087Y1045915D01*
X420419Y1045419D01*
X420915Y1045087D01*
X421500Y1044971D01*
X422085Y1045087D01*
X422581Y1045419D01*
X422913Y1045915D01*
X423029Y1046500D01*
X422913Y1047085D01*
X422581Y1047581D01*
X422085Y1047913D01*
X421500Y1048029D01*
D02*
G37*
G36*
X561421Y1052798D02*
X560508Y1052678D01*
X559656Y1052325D01*
X558925Y1051764D01*
X558364Y1051033D01*
X558011Y1050181D01*
X557891Y1049268D01*
X558011Y1048354D01*
X558364Y1047503D01*
X558925Y1046772D01*
X559656Y1046210D01*
X560508Y1045858D01*
X561421Y1045737D01*
X562335Y1045858D01*
X563186Y1046210D01*
X563917Y1046772D01*
X564478Y1047503D01*
X564831Y1048354D01*
X564952Y1049268D01*
X564831Y1050181D01*
X564478Y1051033D01*
X563917Y1051764D01*
X563186Y1052325D01*
X562335Y1052678D01*
X561421Y1052798D01*
D02*
G37*
G36*
X466500Y1051029D02*
X465915Y1050913D01*
X465419Y1050581D01*
X465087Y1050085D01*
X464971Y1049500D01*
X465087Y1048915D01*
X465419Y1048419D01*
X465915Y1048087D01*
X466500Y1047971D01*
X467085Y1048087D01*
X467581Y1048419D01*
X467913Y1048915D01*
X468029Y1049500D01*
X467913Y1050085D01*
X467581Y1050581D01*
X467085Y1050913D01*
X466500Y1051029D01*
D02*
G37*
G36*
X464000Y1076529D02*
X463415Y1076413D01*
X462919Y1076081D01*
X462587Y1075585D01*
X462471Y1075000D01*
X462587Y1074415D01*
X462919Y1073919D01*
X463415Y1073587D01*
X464000Y1073471D01*
X464585Y1073587D01*
X465081Y1073919D01*
X465413Y1074415D01*
X465529Y1075000D01*
X465413Y1075585D01*
X465081Y1076081D01*
X464585Y1076413D01*
X464000Y1076529D01*
D02*
G37*
G36*
X258500Y1077029D02*
X257915Y1076913D01*
X257419Y1076581D01*
X257087Y1076085D01*
X256971Y1075500D01*
X257087Y1074915D01*
X257419Y1074419D01*
X257915Y1074087D01*
X258500Y1073971D01*
X259085Y1074087D01*
X259581Y1074419D01*
X259913Y1074915D01*
X260029Y1075500D01*
X259913Y1076085D01*
X259581Y1076581D01*
X259085Y1076913D01*
X258500Y1077029D01*
D02*
G37*
G36*
X267000Y1077644D02*
X266415Y1077527D01*
X265919Y1077196D01*
X265587Y1076700D01*
X265471Y1076114D01*
X265587Y1075529D01*
X265919Y1075033D01*
X266415Y1074701D01*
X267000Y1074585D01*
X267585Y1074701D01*
X268081Y1075033D01*
X268413Y1075529D01*
X268529Y1076114D01*
X268413Y1076700D01*
X268081Y1077196D01*
X267585Y1077527D01*
X267000Y1077644D01*
D02*
G37*
G36*
X561421Y1064609D02*
X560508Y1064489D01*
X559656Y1064136D01*
X558925Y1063575D01*
X558364Y1062844D01*
X558011Y1061992D01*
X557891Y1061079D01*
X558011Y1060165D01*
X558364Y1059314D01*
X558925Y1058582D01*
X559656Y1058022D01*
X560508Y1057669D01*
X561421Y1057549D01*
X562335Y1057669D01*
X563186Y1058022D01*
X563917Y1058582D01*
X564478Y1059314D01*
X564831Y1060165D01*
X564952Y1061079D01*
X564831Y1061992D01*
X564478Y1062844D01*
X563917Y1063575D01*
X563186Y1064136D01*
X562335Y1064489D01*
X561421Y1064609D01*
D02*
G37*
G36*
X598823Y1064609D02*
X597909Y1064489D01*
X597058Y1064136D01*
X596327Y1063575D01*
X595766Y1062844D01*
X595413Y1061992D01*
X595293Y1061079D01*
X595413Y1060165D01*
X595766Y1059314D01*
X596327Y1058582D01*
X597058Y1058022D01*
X597909Y1057669D01*
X598823Y1057549D01*
X599736Y1057669D01*
X600588Y1058022D01*
X601319Y1058582D01*
X601880Y1059314D01*
X602233Y1060165D01*
X602353Y1061079D01*
X602233Y1061992D01*
X601880Y1062844D01*
X601319Y1063575D01*
X600588Y1064136D01*
X599736Y1064489D01*
X598823Y1064609D01*
D02*
G37*
G36*
X516000Y1065029D02*
X515415Y1064913D01*
X514919Y1064581D01*
X514587Y1064085D01*
X514471Y1063500D01*
X514587Y1062915D01*
X514919Y1062419D01*
X515415Y1062087D01*
X516000Y1061971D01*
X516585Y1062087D01*
X517081Y1062419D01*
X517413Y1062915D01*
X517529Y1063500D01*
X517413Y1064085D01*
X517081Y1064581D01*
X516585Y1064913D01*
X516000Y1065029D01*
D02*
G37*
G36*
X515406Y1136530D02*
X514492Y1136410D01*
X513640Y1136057D01*
X512909Y1135496D01*
X512348Y1134765D01*
X511996Y1133914D01*
X511875Y1133000D01*
X511996Y1132086D01*
X512348Y1131235D01*
X512909Y1130504D01*
X513640Y1129943D01*
X514492Y1129590D01*
X515406Y1129470D01*
X516319Y1129590D01*
X517171Y1129943D01*
X517902Y1130504D01*
X518463Y1131235D01*
X518815Y1132086D01*
X518936Y1133000D01*
X518815Y1133914D01*
X518463Y1134765D01*
X517902Y1135496D01*
X517171Y1136057D01*
X516319Y1136410D01*
X515406Y1136530D01*
D02*
G37*
G36*
X393406Y1137030D02*
X392492Y1136910D01*
X391640Y1136557D01*
X390909Y1135996D01*
X390348Y1135265D01*
X389996Y1134414D01*
X389875Y1133500D01*
X389996Y1132586D01*
X390348Y1131735D01*
X390909Y1131004D01*
X391640Y1130443D01*
X392492Y1130090D01*
X393406Y1129970D01*
X394319Y1130090D01*
X395171Y1130443D01*
X395902Y1131004D01*
X396463Y1131735D01*
X396815Y1132586D01*
X396936Y1133500D01*
X396815Y1134414D01*
X396463Y1135265D01*
X395902Y1135996D01*
X395171Y1136557D01*
X394319Y1136910D01*
X393406Y1137030D01*
D02*
G37*
G36*
X367500Y1137529D02*
X366915Y1137413D01*
X366419Y1137081D01*
X366087Y1136585D01*
X365971Y1136000D01*
X366087Y1135415D01*
X366419Y1134919D01*
X366915Y1134587D01*
X367500Y1134471D01*
X368085Y1134587D01*
X368581Y1134919D01*
X368913Y1135415D01*
X369029Y1136000D01*
X368913Y1136585D01*
X368581Y1137081D01*
X368085Y1137413D01*
X367500Y1137529D01*
D02*
G37*
G36*
X558598Y1134503D02*
X557543Y1134364D01*
X556559Y1133957D01*
X555715Y1133309D01*
X555067Y1132464D01*
X554659Y1131481D01*
X554520Y1130425D01*
X554659Y1129370D01*
X555067Y1128386D01*
X555715Y1127542D01*
X555738Y1127180D01*
X540279Y1111721D01*
X540058Y1111390D01*
X539980Y1111000D01*
Y1078422D01*
X486073Y1024515D01*
X486000Y1024529D01*
X485415Y1024413D01*
X484919Y1024081D01*
X484877Y1024020D01*
X480922D01*
X467520Y1037422D01*
Y1038776D01*
X467942Y1039058D01*
X468384Y1039720D01*
X468539Y1040500D01*
X468384Y1041280D01*
X467942Y1041942D01*
X467280Y1042384D01*
X466500Y1042539D01*
X465720Y1042384D01*
X465058Y1041942D01*
X464616Y1041280D01*
X464461Y1040500D01*
X464616Y1039720D01*
X465058Y1039058D01*
X465480Y1038776D01*
Y1037000D01*
X465558Y1036610D01*
X465779Y1036279D01*
X479779Y1022279D01*
X480110Y1022058D01*
X480500Y1021980D01*
X484877D01*
X484919Y1021919D01*
X485415Y1021587D01*
X486000Y1021471D01*
X486585Y1021587D01*
X487081Y1021919D01*
X487413Y1022415D01*
X487529Y1023000D01*
X487515Y1023073D01*
X541721Y1077279D01*
X541942Y1077610D01*
X542020Y1078000D01*
Y1110578D01*
X557883Y1126441D01*
X558598Y1126347D01*
X559654Y1126486D01*
X560638Y1126893D01*
X561482Y1127542D01*
X562130Y1128386D01*
X562538Y1129370D01*
X562677Y1130425D01*
X562538Y1131481D01*
X562130Y1132464D01*
X561482Y1133309D01*
X560638Y1133957D01*
X559654Y1134364D01*
X558598Y1134503D01*
D02*
G37*
G36*
X433405Y1136530D02*
X432492Y1136410D01*
X431640Y1136057D01*
X430909Y1135496D01*
X430348Y1134765D01*
X429996Y1133914D01*
X429875Y1133000D01*
X429996Y1132086D01*
X430348Y1131235D01*
X430909Y1130504D01*
X431640Y1129943D01*
X432492Y1129590D01*
X433405Y1129470D01*
X434319Y1129590D01*
X435171Y1129943D01*
X435902Y1130504D01*
X436463Y1131235D01*
X436815Y1132086D01*
X436936Y1133000D01*
X436815Y1133914D01*
X436463Y1134765D01*
X435902Y1135496D01*
X435171Y1136057D01*
X434319Y1136410D01*
X433405Y1136530D01*
D02*
G37*
G36*
X475406D02*
X474492Y1136410D01*
X473640Y1136057D01*
X472909Y1135496D01*
X472348Y1134765D01*
X471996Y1133914D01*
X471875Y1133000D01*
X471996Y1132086D01*
X472348Y1131235D01*
X472909Y1130504D01*
X473640Y1129943D01*
X474492Y1129590D01*
X475406Y1129470D01*
X476319Y1129590D01*
X477171Y1129943D01*
X477902Y1130504D01*
X478463Y1131235D01*
X478815Y1132086D01*
X478936Y1133000D01*
X478815Y1133914D01*
X478463Y1134765D01*
X477902Y1135496D01*
X477171Y1136057D01*
X476319Y1136410D01*
X475406Y1136530D01*
D02*
G37*
G36*
X437106Y1147328D02*
X436143Y1147136D01*
X435327Y1146591D01*
X434781Y1145774D01*
X434589Y1144811D01*
X434781Y1143848D01*
X435327Y1143031D01*
X436143Y1142486D01*
X437106Y1142294D01*
X438069Y1142486D01*
X438886Y1143031D01*
X439432Y1143848D01*
X439623Y1144811D01*
X439432Y1145774D01*
X438886Y1146591D01*
X438069Y1147136D01*
X437106Y1147328D01*
D02*
G37*
G36*
X331886Y1146045D02*
X331301Y1145929D01*
X330804Y1145597D01*
X330473Y1145101D01*
X330356Y1144516D01*
X330473Y1143931D01*
X330804Y1143434D01*
X331301Y1143103D01*
X331886Y1142986D01*
X332471Y1143103D01*
X332967Y1143434D01*
X333299Y1143931D01*
X333415Y1144516D01*
X333299Y1145101D01*
X332967Y1145597D01*
X332471Y1145929D01*
X331886Y1146045D01*
D02*
G37*
G36*
X208661Y1160375D02*
X207329Y1160244D01*
X206047Y1159855D01*
X204866Y1159224D01*
X203830Y1158374D01*
X202981Y1157339D01*
X202349Y1156158D01*
X201961Y1154876D01*
X201829Y1153543D01*
X201961Y1152210D01*
X202349Y1150929D01*
X202981Y1149748D01*
X203830Y1148712D01*
X204866Y1147863D01*
X206047Y1147231D01*
X207329Y1146842D01*
X208661Y1146711D01*
X209994Y1146842D01*
X211276Y1147231D01*
X212457Y1147863D01*
X213492Y1148712D01*
X214342Y1149748D01*
X214973Y1150929D01*
X215362Y1152210D01*
X215493Y1153543D01*
X215362Y1154876D01*
X214973Y1156158D01*
X214342Y1157339D01*
X213492Y1158374D01*
X212457Y1159224D01*
X211276Y1159855D01*
X209994Y1160244D01*
X208661Y1160375D01*
D02*
G37*
G36*
X618110D02*
X616777Y1160244D01*
X615496Y1159855D01*
X614315Y1159224D01*
X613279Y1158374D01*
X612430Y1157339D01*
X611798Y1156158D01*
X611409Y1154876D01*
X611278Y1153543D01*
X611409Y1152210D01*
X611798Y1150929D01*
X612430Y1149748D01*
X613279Y1148712D01*
X614315Y1147863D01*
X615496Y1147231D01*
X616777Y1146842D01*
X618110Y1146711D01*
X619443Y1146842D01*
X620725Y1147231D01*
X621906Y1147863D01*
X622941Y1148712D01*
X623791Y1149748D01*
X624422Y1150929D01*
X624811Y1152210D01*
X624942Y1153543D01*
X624811Y1154876D01*
X624422Y1156158D01*
X623791Y1157339D01*
X622941Y1158374D01*
X621906Y1159224D01*
X620725Y1159855D01*
X619443Y1160244D01*
X618110Y1160375D01*
D02*
G37*
G36*
X479106Y1147328D02*
X478143Y1147136D01*
X477327Y1146591D01*
X476781Y1145774D01*
X476589Y1144811D01*
X476781Y1143848D01*
X477327Y1143031D01*
X478143Y1142486D01*
X479106Y1142294D01*
X480069Y1142486D01*
X480886Y1143031D01*
X481432Y1143848D01*
X481623Y1144811D01*
X481432Y1145774D01*
X480886Y1146591D01*
X480069Y1147136D01*
X479106Y1147328D01*
D02*
G37*
G36*
X519106D02*
X518143Y1147136D01*
X517327Y1146591D01*
X516781Y1145774D01*
X516589Y1144811D01*
X516781Y1143848D01*
X517327Y1143031D01*
X518143Y1142486D01*
X519106Y1142294D01*
X520070Y1142486D01*
X520886Y1143031D01*
X521432Y1143848D01*
X521623Y1144811D01*
X521432Y1145774D01*
X520886Y1146591D01*
X520070Y1147136D01*
X519106Y1147328D01*
D02*
G37*
G36*
X397106Y1147828D02*
X396143Y1147636D01*
X395327Y1147091D01*
X394781Y1146274D01*
X394589Y1145311D01*
X394781Y1144348D01*
X395327Y1143531D01*
X396143Y1142986D01*
X397106Y1142794D01*
X398070Y1142986D01*
X398886Y1143531D01*
X399432Y1144348D01*
X399623Y1145311D01*
X399432Y1146274D01*
X398886Y1147091D01*
X398070Y1147636D01*
X397106Y1147828D01*
D02*
G37*
G36*
X292000Y1128529D02*
X291415Y1128413D01*
X290919Y1128081D01*
X290587Y1127585D01*
X290471Y1127000D01*
X290587Y1126415D01*
X290919Y1125919D01*
X291415Y1125587D01*
X292000Y1125471D01*
X292585Y1125587D01*
X293081Y1125919D01*
X293413Y1126415D01*
X293529Y1127000D01*
X293413Y1127585D01*
X293081Y1128081D01*
X292585Y1128413D01*
X292000Y1128529D01*
D02*
G37*
G36*
X381000Y1104078D02*
X379944Y1103939D01*
X378961Y1103532D01*
X378116Y1102884D01*
X377468Y1102039D01*
X377061Y1101056D01*
X376922Y1100000D01*
X377061Y1098944D01*
X377468Y1097961D01*
X378116Y1097116D01*
X378961Y1096468D01*
X379944Y1096061D01*
X381000Y1095922D01*
X382055Y1096061D01*
X383039Y1096468D01*
X383884Y1097116D01*
X384532Y1097961D01*
X384939Y1098944D01*
X385078Y1100000D01*
X384939Y1101056D01*
X384532Y1102039D01*
X383884Y1102884D01*
X383039Y1103532D01*
X382055Y1103939D01*
X381000Y1104078D01*
D02*
G37*
G36*
X391000D02*
X389945Y1103939D01*
X388961Y1103532D01*
X388116Y1102884D01*
X387468Y1102039D01*
X387061Y1101056D01*
X386922Y1100000D01*
X387061Y1098944D01*
X387468Y1097961D01*
X388116Y1097116D01*
X388961Y1096468D01*
X389945Y1096061D01*
X391000Y1095922D01*
X392056Y1096061D01*
X393039Y1096468D01*
X393884Y1097116D01*
X394532Y1097961D01*
X394939Y1098944D01*
X395078Y1100000D01*
X394939Y1101056D01*
X394532Y1102039D01*
X393884Y1102884D01*
X393039Y1103532D01*
X392056Y1103939D01*
X391000Y1104078D01*
D02*
G37*
G36*
X439500D02*
X438445Y1103939D01*
X437461Y1103532D01*
X436616Y1102884D01*
X435968Y1102039D01*
X435561Y1101056D01*
X435422Y1100000D01*
X435561Y1098944D01*
X435968Y1097961D01*
X436616Y1097116D01*
X437461Y1096468D01*
X438445Y1096061D01*
X439500Y1095922D01*
X440555Y1096061D01*
X441539Y1096468D01*
X442384Y1097116D01*
X443032Y1097961D01*
X443439Y1098944D01*
X443578Y1100000D01*
X443439Y1101056D01*
X443032Y1102039D01*
X442384Y1102884D01*
X441539Y1103532D01*
X440555Y1103939D01*
X439500Y1104078D01*
D02*
G37*
G36*
X505000Y1103578D02*
X503944Y1103439D01*
X502961Y1103032D01*
X502116Y1102384D01*
X501468Y1101539D01*
X501061Y1100556D01*
X500922Y1099500D01*
X501061Y1098444D01*
X501468Y1097461D01*
X502116Y1096616D01*
X502961Y1095968D01*
X503944Y1095561D01*
X505000Y1095422D01*
X506055Y1095561D01*
X507039Y1095968D01*
X507884Y1096616D01*
X508532Y1097461D01*
X508939Y1098444D01*
X509078Y1099500D01*
X508939Y1100556D01*
X508532Y1101539D01*
X507884Y1102384D01*
X507039Y1103032D01*
X506055Y1103439D01*
X505000Y1103578D01*
D02*
G37*
G36*
X466043Y1103543D02*
X457957D01*
Y1095457D01*
X466043D01*
Y1103543D01*
D02*
G37*
G36*
X521543D02*
X513457D01*
Y1095457D01*
X521543D01*
Y1103543D01*
D02*
G37*
G36*
X449500Y1104078D02*
X448445Y1103939D01*
X447461Y1103532D01*
X446616Y1102884D01*
X445968Y1102039D01*
X445561Y1101056D01*
X445422Y1100000D01*
X445561Y1098944D01*
X445968Y1097961D01*
X446616Y1097116D01*
X447461Y1096468D01*
X448445Y1096061D01*
X449500Y1095922D01*
X450556Y1096061D01*
X451539Y1096468D01*
X452384Y1097116D01*
X453032Y1097961D01*
X453439Y1098944D01*
X453578Y1100000D01*
X453439Y1101056D01*
X453032Y1102039D01*
X452384Y1102884D01*
X451539Y1103532D01*
X450556Y1103939D01*
X449500Y1104078D01*
D02*
G37*
G36*
X519106Y1123706D02*
X518143Y1123514D01*
X517327Y1122969D01*
X516781Y1122152D01*
X516589Y1121189D01*
X516781Y1120226D01*
X517327Y1119409D01*
X518143Y1118864D01*
X519106Y1118672D01*
X520070Y1118864D01*
X520886Y1119409D01*
X521432Y1120226D01*
X521623Y1121189D01*
X521432Y1122152D01*
X520886Y1122969D01*
X520070Y1123514D01*
X519106Y1123706D01*
D02*
G37*
G36*
X397106Y1124206D02*
X396143Y1124014D01*
X395327Y1123469D01*
X394781Y1122652D01*
X394589Y1121689D01*
X394781Y1120726D01*
X395327Y1119909D01*
X396143Y1119364D01*
X397106Y1119172D01*
X398070Y1119364D01*
X398886Y1119909D01*
X399432Y1120726D01*
X399623Y1121689D01*
X399432Y1122652D01*
X398886Y1123469D01*
X398070Y1124014D01*
X397106Y1124206D01*
D02*
G37*
G36*
X487000Y1124529D02*
X486415Y1124413D01*
X485919Y1124081D01*
X485587Y1123585D01*
X485471Y1123000D01*
X485587Y1122415D01*
X485919Y1121919D01*
X486415Y1121587D01*
X487000Y1121471D01*
X487585Y1121587D01*
X488081Y1121919D01*
X488413Y1122415D01*
X488529Y1123000D01*
X488413Y1123585D01*
X488081Y1124081D01*
X487585Y1124413D01*
X487000Y1124529D01*
D02*
G37*
G36*
X412191Y1115509D02*
X411606Y1115393D01*
X411109Y1115061D01*
X410778Y1114565D01*
X410661Y1113980D01*
X410778Y1113395D01*
X411109Y1112898D01*
X411606Y1112567D01*
X412191Y1112450D01*
X412776Y1112567D01*
X413272Y1112898D01*
X413604Y1113395D01*
X413720Y1113980D01*
X413604Y1114565D01*
X413272Y1115061D01*
X412776Y1115393D01*
X412191Y1115509D01*
D02*
G37*
G36*
X437106Y1123706D02*
X436143Y1123514D01*
X435327Y1122969D01*
X434781Y1122152D01*
X434589Y1121189D01*
X434781Y1120226D01*
X435327Y1119409D01*
X436143Y1118864D01*
X437106Y1118672D01*
X438069Y1118864D01*
X438886Y1119409D01*
X439432Y1120226D01*
X439623Y1121189D01*
X439432Y1122152D01*
X438886Y1122969D01*
X438069Y1123514D01*
X437106Y1123706D01*
D02*
G37*
G36*
X479106D02*
X478143Y1123514D01*
X477327Y1122969D01*
X476781Y1122152D01*
X476589Y1121189D01*
X476781Y1120226D01*
X477327Y1119409D01*
X478143Y1118864D01*
X479106Y1118672D01*
X480069Y1118864D01*
X480886Y1119409D01*
X481432Y1120226D01*
X481623Y1121189D01*
X481432Y1122152D01*
X480886Y1122969D01*
X480069Y1123514D01*
X479106Y1123706D01*
D02*
G37*
G36*
X588689Y964474D02*
X587726Y964282D01*
X586909Y963736D01*
X586364Y962920D01*
X586172Y961957D01*
X586364Y960993D01*
X586909Y960177D01*
X587726Y959631D01*
X588689Y959440D01*
X589652Y959631D01*
X590469Y960177D01*
X591014Y960993D01*
X591206Y961957D01*
X591014Y962920D01*
X590469Y963736D01*
X589652Y964282D01*
X588689Y964474D01*
D02*
G37*
G36*
X612311D02*
X611348Y964282D01*
X610531Y963736D01*
X609986Y962920D01*
X609794Y961957D01*
X609986Y960993D01*
X610531Y960177D01*
X611348Y959631D01*
X612311Y959440D01*
X613274Y959631D01*
X614091Y960177D01*
X614636Y960993D01*
X614828Y961957D01*
X614636Y962920D01*
X614091Y963736D01*
X613274Y964282D01*
X612311Y964474D01*
D02*
G37*
G36*
X561000Y969188D02*
X560086Y969067D01*
X559235Y968715D01*
X558504Y968154D01*
X557943Y967423D01*
X557590Y966571D01*
X557470Y965658D01*
X557590Y964744D01*
X557943Y963892D01*
X558504Y963161D01*
X559235Y962600D01*
X560086Y962248D01*
X561000Y962127D01*
X561914Y962248D01*
X562765Y962600D01*
X563496Y963161D01*
X564057Y963892D01*
X564410Y964744D01*
X564530Y965658D01*
X564410Y966571D01*
X564057Y967423D01*
X563496Y968154D01*
X562765Y968715D01*
X561914Y969067D01*
X561000Y969188D01*
D02*
G37*
G36*
X250492Y961514D02*
X249907Y961397D01*
X249411Y961066D01*
X249079Y960569D01*
X248963Y959984D01*
X249079Y959399D01*
X249411Y958903D01*
X249907Y958571D01*
X250492Y958455D01*
X251077Y958571D01*
X251574Y958903D01*
X251905Y959399D01*
X252022Y959984D01*
X251905Y960569D01*
X251574Y961066D01*
X251077Y961397D01*
X250492Y961514D01*
D02*
G37*
G36*
X549189Y964474D02*
X548226Y964282D01*
X547409Y963736D01*
X546864Y962920D01*
X546672Y961957D01*
X546864Y960993D01*
X547409Y960177D01*
X548226Y959631D01*
X549189Y959440D01*
X550152Y959631D01*
X550969Y960177D01*
X551514Y960993D01*
X551706Y961957D01*
X551514Y962920D01*
X550969Y963736D01*
X550152Y964282D01*
X549189Y964474D01*
D02*
G37*
G36*
X572811D02*
X571848Y964282D01*
X571031Y963736D01*
X570486Y962920D01*
X570294Y961957D01*
X570486Y960993D01*
X571031Y960177D01*
X571848Y959631D01*
X572811Y959440D01*
X573774Y959631D01*
X574591Y960177D01*
X575136Y960993D01*
X575328Y961957D01*
X575136Y962920D01*
X574591Y963736D01*
X573774Y964282D01*
X572811Y964474D01*
D02*
G37*
G36*
X600500Y969188D02*
X599586Y969067D01*
X598735Y968715D01*
X598004Y968154D01*
X597443Y967423D01*
X597090Y966571D01*
X596970Y965658D01*
X597090Y964744D01*
X597443Y963892D01*
X598004Y963161D01*
X598735Y962600D01*
X599586Y962248D01*
X600500Y962127D01*
X601414Y962248D01*
X602265Y962600D01*
X602996Y963161D01*
X603557Y963892D01*
X603910Y964744D01*
X604030Y965658D01*
X603910Y966571D01*
X603557Y967423D01*
X602996Y968154D01*
X602265Y968715D01*
X601414Y969067D01*
X600500Y969188D01*
D02*
G37*
G36*
X385500Y1021039D02*
X384720Y1020884D01*
X384058Y1020442D01*
X383616Y1019780D01*
X383461Y1019000D01*
X383616Y1018220D01*
X384058Y1017558D01*
X384480Y1017276D01*
Y1016500D01*
X384558Y1016110D01*
X384779Y1015779D01*
X387779Y1012779D01*
X388110Y1012558D01*
X388500Y1012480D01*
X396877D01*
X396919Y1012419D01*
X397415Y1012087D01*
X398000Y1011971D01*
X398585Y1012087D01*
X399081Y1012419D01*
X399123Y1012480D01*
X428664D01*
X457646Y983499D01*
Y968544D01*
X457584Y968503D01*
X457252Y968007D01*
X457136Y967421D01*
X457252Y966836D01*
X457584Y966340D01*
X458080Y966008D01*
X458665Y965892D01*
X459251Y966008D01*
X459747Y966340D01*
X460078Y966836D01*
X460195Y967421D01*
X460078Y968007D01*
X459747Y968503D01*
X459685Y968544D01*
Y983921D01*
X459607Y984311D01*
X459386Y984642D01*
X429808Y1014221D01*
X429477Y1014442D01*
X429087Y1014520D01*
X399123D01*
X399081Y1014581D01*
X398585Y1014913D01*
X398000Y1015029D01*
X397415Y1014913D01*
X396919Y1014581D01*
X396877Y1014520D01*
X388922D01*
X386617Y1016824D01*
X386655Y1017366D01*
X386942Y1017558D01*
X387384Y1018220D01*
X387539Y1019000D01*
X387384Y1019780D01*
X386942Y1020442D01*
X386280Y1020884D01*
X385500Y1021039D01*
D02*
G37*
G36*
Y1030539D02*
X384720Y1030384D01*
X384058Y1029942D01*
X383616Y1029280D01*
X383461Y1028500D01*
X383616Y1027720D01*
X384058Y1027058D01*
X384720Y1026616D01*
X385500Y1026461D01*
X386280Y1026616D01*
X386942Y1027058D01*
X387224Y1027480D01*
X390578D01*
X396485Y1021573D01*
X396471Y1021500D01*
X396587Y1020915D01*
X396919Y1020419D01*
X397415Y1020087D01*
X398000Y1019971D01*
X398585Y1020087D01*
X399081Y1020419D01*
X399123Y1020480D01*
X426664D01*
X462646Y984499D01*
Y968544D01*
X462584Y968503D01*
X462252Y968007D01*
X462136Y967421D01*
X462252Y966836D01*
X462584Y966340D01*
X463080Y966008D01*
X463665Y965892D01*
X464251Y966008D01*
X464747Y966340D01*
X465078Y966836D01*
X465195Y967421D01*
X465078Y968007D01*
X464747Y968503D01*
X464685Y968544D01*
Y984921D01*
X464607Y985312D01*
X464386Y985642D01*
X427808Y1022221D01*
X427477Y1022442D01*
X427087Y1022520D01*
X399123D01*
X399081Y1022581D01*
X398585Y1022913D01*
X398000Y1023029D01*
X397927Y1023015D01*
X391721Y1029221D01*
X391390Y1029442D01*
X391000Y1029520D01*
X387224D01*
X386942Y1029942D01*
X386280Y1030384D01*
X385500Y1030539D01*
D02*
G37*
G36*
X354992Y971014D02*
X354407Y970897D01*
X353911Y970566D01*
X353579Y970070D01*
X353463Y969484D01*
X353579Y968899D01*
X353911Y968403D01*
X354407Y968071D01*
X354992Y967955D01*
X355577Y968071D01*
X356074Y968403D01*
X356405Y968899D01*
X356522Y969484D01*
X356405Y970070D01*
X356074Y970566D01*
X355577Y970897D01*
X354992Y971014D01*
D02*
G37*
G36*
X426087Y973020D02*
X401000D01*
X400610Y972942D01*
X400279Y972721D01*
X398073Y970515D01*
X398000Y970529D01*
X397415Y970413D01*
X396919Y970081D01*
X396587Y969585D01*
X396471Y969000D01*
X396485Y968927D01*
X386995Y959437D01*
X386942Y959442D01*
X386280Y959884D01*
X385500Y960039D01*
X384720Y959884D01*
X384058Y959442D01*
X383616Y958780D01*
X383461Y958000D01*
X383616Y957220D01*
X384058Y956558D01*
X384720Y956116D01*
X385500Y955961D01*
X386280Y956116D01*
X386942Y956558D01*
X387259Y957032D01*
X387390Y957058D01*
X387721Y957279D01*
X397927Y967485D01*
X398000Y967471D01*
X398585Y967587D01*
X399081Y967919D01*
X399413Y968415D01*
X399529Y969000D01*
X399515Y969073D01*
X401422Y970980D01*
X425664D01*
X427632Y969012D01*
X427604Y968516D01*
X427584Y968503D01*
X427252Y968007D01*
X427136Y967421D01*
X427252Y966836D01*
X427584Y966340D01*
X428080Y966008D01*
X428665Y965892D01*
X429251Y966008D01*
X429747Y966340D01*
X430078Y966836D01*
X430195Y967421D01*
X430078Y968007D01*
X429747Y968503D01*
X429685Y968544D01*
Y969421D01*
X429607Y969812D01*
X429386Y970142D01*
X426808Y972721D01*
X426477Y972942D01*
X426087Y973020D01*
D02*
G37*
G36*
X398000Y977029D02*
X397415Y976913D01*
X396919Y976581D01*
X396877Y976520D01*
X393000D01*
X392610Y976442D01*
X392279Y976221D01*
X385998Y969940D01*
X385500Y970039D01*
X384720Y969884D01*
X384058Y969442D01*
X383616Y968780D01*
X383461Y968000D01*
X383616Y967220D01*
X384058Y966558D01*
X384720Y966116D01*
X385500Y965961D01*
X386280Y966116D01*
X386942Y966558D01*
X387384Y967220D01*
X387539Y968000D01*
X387440Y968498D01*
X393422Y974480D01*
X396877D01*
X396919Y974419D01*
X397415Y974087D01*
X398000Y973971D01*
X398585Y974087D01*
X399081Y974419D01*
X399123Y974480D01*
X427164D01*
X432632Y969012D01*
X432604Y968516D01*
X432584Y968503D01*
X432252Y968007D01*
X432136Y967421D01*
X432252Y966836D01*
X432584Y966340D01*
X433080Y966008D01*
X433665Y965892D01*
X434251Y966008D01*
X434747Y966340D01*
X435078Y966836D01*
X435195Y967421D01*
X435078Y968007D01*
X434747Y968503D01*
X434685Y968544D01*
Y969421D01*
X434607Y969812D01*
X434386Y970142D01*
X428308Y976221D01*
X427977Y976442D01*
X427587Y976520D01*
X399123D01*
X399081Y976581D01*
X398585Y976913D01*
X398000Y977029D01*
D02*
G37*
G36*
X385500Y999539D02*
X384720Y999384D01*
X384058Y998942D01*
X383616Y998280D01*
X383461Y997500D01*
X383616Y996720D01*
X384058Y996058D01*
X384720Y995616D01*
X385500Y995461D01*
X386280Y995616D01*
X386942Y996058D01*
X387224Y996480D01*
X396877D01*
X396919Y996419D01*
X397415Y996087D01*
X398000Y995971D01*
X398585Y996087D01*
X399081Y996419D01*
X399123Y996480D01*
X426664D01*
X447646Y975499D01*
Y968544D01*
X447584Y968503D01*
X447252Y968007D01*
X447136Y967421D01*
X447252Y966836D01*
X447584Y966340D01*
X448080Y966008D01*
X448665Y965892D01*
X449251Y966008D01*
X449747Y966340D01*
X450078Y966836D01*
X450195Y967421D01*
X450078Y968007D01*
X449747Y968503D01*
X449685Y968544D01*
Y975921D01*
X449607Y976311D01*
X449386Y976642D01*
X427808Y998221D01*
X427477Y998442D01*
X427087Y998520D01*
X399123D01*
X399081Y998581D01*
X398585Y998913D01*
X398000Y999029D01*
X397415Y998913D01*
X396919Y998581D01*
X396877Y998520D01*
X387224D01*
X386942Y998942D01*
X386280Y999384D01*
X385500Y999539D01*
D02*
G37*
G36*
X541374Y948646D02*
X500162D01*
X499771Y948568D01*
X499699Y948520D01*
X498301D01*
X498229Y948568D01*
X497838Y948646D01*
X442626D01*
X442236Y948568D01*
X441905Y948347D01*
X437956Y944398D01*
X437735Y944067D01*
X437658Y943677D01*
Y931906D01*
X437596Y931865D01*
X437264Y931369D01*
X437148Y930783D01*
X437264Y930198D01*
X437596Y929702D01*
X438092Y929370D01*
X438677Y929254D01*
X439262Y929370D01*
X439759Y929702D01*
X440090Y930198D01*
X440206Y930783D01*
X440090Y931369D01*
X439759Y931865D01*
X439697Y931906D01*
Y943255D01*
X443048Y946607D01*
X497502D01*
X497574Y946558D01*
X497964Y946480D01*
X500035D01*
X500426Y946558D01*
X500498Y946607D01*
X540952D01*
X552378Y935181D01*
X552708Y934960D01*
X553098Y934882D01*
X558555D01*
X558864Y934136D01*
X559425Y933405D01*
X560156Y932844D01*
X561008Y932492D01*
X561921Y932371D01*
X562835Y932492D01*
X563686Y932844D01*
X564418Y933405D01*
X564979Y934136D01*
X565331Y934988D01*
X565451Y935902D01*
X565331Y936815D01*
X564979Y937667D01*
X564418Y938398D01*
X563686Y938959D01*
X562835Y939311D01*
X561921Y939432D01*
X561008Y939311D01*
X560156Y938959D01*
X559425Y938398D01*
X558864Y937667D01*
X558555Y936921D01*
X553521D01*
X542095Y948347D01*
X541764Y948568D01*
X541374Y948646D01*
D02*
G37*
G36*
X550110Y922907D02*
X549147Y922715D01*
X548330Y922169D01*
X547785Y921353D01*
X547593Y920390D01*
X547785Y919427D01*
X548330Y918610D01*
X549147Y918064D01*
X550110Y917873D01*
X551073Y918064D01*
X551890Y918610D01*
X552435Y919427D01*
X552627Y920390D01*
X552435Y921353D01*
X551890Y922169D01*
X551073Y922715D01*
X550110Y922907D01*
D02*
G37*
G36*
X573732D02*
X572769Y922715D01*
X571953Y922169D01*
X571407Y921353D01*
X571215Y920390D01*
X571407Y919427D01*
X571953Y918610D01*
X572769Y918064D01*
X573732Y917873D01*
X574695Y918064D01*
X575512Y918610D01*
X576057Y919427D01*
X576249Y920390D01*
X576057Y921353D01*
X575512Y922169D01*
X574695Y922715D01*
X573732Y922907D01*
D02*
G37*
G36*
X587512Y922907D02*
X586549Y922715D01*
X585732Y922169D01*
X585186Y921353D01*
X584995Y920390D01*
X585186Y919427D01*
X585732Y918610D01*
X586549Y918064D01*
X587512Y917873D01*
X588475Y918064D01*
X589291Y918610D01*
X589837Y919427D01*
X590029Y920390D01*
X589837Y921353D01*
X589291Y922169D01*
X588475Y922715D01*
X587512Y922907D01*
D02*
G37*
G36*
X369768Y911121D02*
X368712Y910983D01*
X367729Y910575D01*
X366884Y909927D01*
X366236Y909082D01*
X365828Y908099D01*
X365689Y907043D01*
X365828Y905988D01*
X366236Y905004D01*
X366884Y904160D01*
X367729Y903512D01*
X368712Y903104D01*
X369768Y902965D01*
X370823Y903104D01*
X371807Y903512D01*
X372651Y904160D01*
X373300Y905004D01*
X373707Y905988D01*
X373846Y907043D01*
X373707Y908099D01*
X373300Y909082D01*
X372651Y909927D01*
X371807Y910575D01*
X370823Y910983D01*
X369768Y911121D01*
D02*
G37*
G36*
X359768Y921122D02*
X358712Y920983D01*
X357729Y920575D01*
X356884Y919927D01*
X356236Y919082D01*
X355828Y918099D01*
X355690Y917043D01*
X355828Y915988D01*
X356236Y915004D01*
X356884Y914160D01*
X357729Y913511D01*
X358712Y913104D01*
X359768Y912965D01*
X360823Y913104D01*
X361807Y913511D01*
X362651Y914160D01*
X363299Y915004D01*
X363707Y915988D01*
X363846Y917043D01*
X363707Y918099D01*
X363299Y919082D01*
X362651Y919927D01*
X361807Y920575D01*
X360823Y920983D01*
X359768Y921122D01*
D02*
G37*
G36*
X369768D02*
X368712Y920983D01*
X367729Y920575D01*
X366884Y919927D01*
X366236Y919082D01*
X365828Y918099D01*
X365689Y917043D01*
X365828Y915988D01*
X366236Y915004D01*
X366884Y914160D01*
X367729Y913511D01*
X368712Y913104D01*
X369768Y912965D01*
X370823Y913104D01*
X371807Y913511D01*
X372651Y914160D01*
X373300Y915004D01*
X373707Y915988D01*
X373846Y917043D01*
X373707Y918099D01*
X373300Y919082D01*
X372651Y919927D01*
X371807Y920575D01*
X370823Y920983D01*
X369768Y921122D01*
D02*
G37*
G36*
X611134Y922907D02*
X610171Y922715D01*
X609354Y922169D01*
X608809Y921353D01*
X608617Y920390D01*
X608809Y919427D01*
X609354Y918610D01*
X610171Y918064D01*
X611134Y917873D01*
X612097Y918064D01*
X612914Y918610D01*
X613459Y919427D01*
X613651Y920390D01*
X613459Y921353D01*
X612914Y922169D01*
X612097Y922715D01*
X611134Y922907D01*
D02*
G37*
G36*
X363811Y931087D02*
X355724D01*
Y923000D01*
X363811D01*
Y931087D01*
D02*
G37*
G36*
X279000Y927510D02*
X278415Y927393D01*
X277919Y927062D01*
X277587Y926566D01*
X277471Y925980D01*
X277587Y925395D01*
X277919Y924899D01*
X278415Y924567D01*
X279000Y924451D01*
X279585Y924567D01*
X280081Y924899D01*
X280413Y925395D01*
X280529Y925980D01*
X280413Y926566D01*
X280081Y927062D01*
X279585Y927393D01*
X279000Y927510D01*
D02*
G37*
G36*
X537000Y943520D02*
X451000D01*
X450610Y943442D01*
X450279Y943221D01*
X442956Y935898D01*
X442735Y935567D01*
X442658Y935177D01*
Y931906D01*
X442596Y931865D01*
X442264Y931369D01*
X442148Y930783D01*
X442264Y930198D01*
X442596Y929702D01*
X443092Y929370D01*
X443677Y929254D01*
X444262Y929370D01*
X444759Y929702D01*
X445090Y930198D01*
X445206Y930783D01*
X445090Y931369D01*
X444759Y931865D01*
X444697Y931906D01*
Y934755D01*
X451422Y941480D01*
X536578D01*
X548779Y929279D01*
X549110Y929058D01*
X549500Y928980D01*
X586000D01*
X586390Y929058D01*
X586721Y929279D01*
X592324Y934882D01*
X595957D01*
X596266Y934136D01*
X596827Y933405D01*
X597558Y932844D01*
X598409Y932492D01*
X599323Y932371D01*
X600237Y932492D01*
X601088Y932844D01*
X601819Y933405D01*
X602380Y934136D01*
X602733Y934988D01*
X602853Y935902D01*
X602733Y936815D01*
X602380Y937667D01*
X601819Y938398D01*
X601088Y938959D01*
X600237Y939311D01*
X599323Y939432D01*
X598409Y939311D01*
X597558Y938959D01*
X596827Y938398D01*
X596266Y937667D01*
X595957Y936921D01*
X591901D01*
X591511Y936843D01*
X591181Y936623D01*
X585578Y931020D01*
X549922D01*
X537721Y943221D01*
X537390Y943442D01*
X537000Y943520D01*
D02*
G37*
G36*
X561921Y927621D02*
X561008Y927500D01*
X560156Y927148D01*
X559425Y926587D01*
X558864Y925856D01*
X558511Y925004D01*
X558391Y924090D01*
X558511Y923177D01*
X558864Y922325D01*
X559425Y921594D01*
X560156Y921033D01*
X561008Y920681D01*
X561921Y920560D01*
X562835Y920681D01*
X563686Y921033D01*
X564418Y921594D01*
X564979Y922325D01*
X565331Y923177D01*
X565451Y924090D01*
X565331Y925004D01*
X564979Y925856D01*
X564418Y926587D01*
X563686Y927148D01*
X562835Y927500D01*
X561921Y927621D01*
D02*
G37*
G36*
X599323Y927621D02*
X598409Y927500D01*
X597558Y927148D01*
X596827Y926587D01*
X596266Y925856D01*
X595913Y925004D01*
X595793Y924090D01*
X595913Y923177D01*
X596266Y922325D01*
X596827Y921594D01*
X597558Y921033D01*
X598409Y920681D01*
X599323Y920560D01*
X600237Y920681D01*
X601088Y921033D01*
X601819Y921594D01*
X602380Y922325D01*
X602733Y923177D01*
X602853Y924090D01*
X602733Y925004D01*
X602380Y925856D01*
X601819Y926587D01*
X601088Y927148D01*
X600237Y927500D01*
X599323Y927621D01*
D02*
G37*
G36*
X369768Y931122D02*
X368712Y930983D01*
X367729Y930575D01*
X366884Y929927D01*
X366236Y929082D01*
X365828Y928099D01*
X365689Y927043D01*
X365828Y925988D01*
X366236Y925004D01*
X366884Y924160D01*
X367729Y923512D01*
X368712Y923104D01*
X369768Y922965D01*
X370823Y923104D01*
X371807Y923512D01*
X372651Y924160D01*
X373300Y925004D01*
X373707Y925988D01*
X373846Y927043D01*
X373707Y928099D01*
X373300Y929082D01*
X372651Y929927D01*
X371807Y930575D01*
X370823Y930983D01*
X369768Y931122D01*
D02*
G37*
G36*
X560500Y1022999D02*
X559586Y1022878D01*
X558735Y1022526D01*
X558004Y1021965D01*
X557443Y1021234D01*
X557090Y1020382D01*
X556970Y1019468D01*
X557090Y1018555D01*
X557443Y1017703D01*
X558004Y1016972D01*
X558735Y1016411D01*
X559586Y1016059D01*
X560500Y1015938D01*
X561414Y1016059D01*
X562265Y1016411D01*
X562996Y1016972D01*
X563557Y1017703D01*
X563910Y1018555D01*
X564030Y1019468D01*
X563910Y1020382D01*
X563557Y1021234D01*
X562996Y1021965D01*
X562265Y1022526D01*
X561414Y1022878D01*
X560500Y1022999D01*
D02*
G37*
G36*
X599000Y1023499D02*
X598086Y1023378D01*
X597235Y1023026D01*
X596504Y1022465D01*
X595943Y1021734D01*
X595590Y1020882D01*
X595470Y1019969D01*
X595590Y1019055D01*
X595943Y1018203D01*
X596504Y1017472D01*
X597235Y1016911D01*
X598086Y1016559D01*
X599000Y1016438D01*
X599914Y1016559D01*
X600765Y1016911D01*
X601496Y1017472D01*
X602057Y1018203D01*
X602410Y1019055D01*
X602530Y1019969D01*
X602410Y1020882D01*
X602057Y1021734D01*
X601496Y1022465D01*
X600765Y1023026D01*
X599914Y1023378D01*
X599000Y1023499D01*
D02*
G37*
G36*
X449045Y1025902D02*
X448460Y1025785D01*
X447964Y1025453D01*
X447632Y1024957D01*
X447516Y1024372D01*
X447632Y1023787D01*
X447964Y1023291D01*
X448460Y1022959D01*
X449045Y1022843D01*
X449630Y1022959D01*
X450127Y1023291D01*
X450458Y1023787D01*
X450575Y1024372D01*
X450458Y1024957D01*
X450127Y1025453D01*
X449630Y1025785D01*
X449045Y1025902D01*
D02*
G37*
G36*
X398000Y1010029D02*
X397415Y1009913D01*
X396919Y1009581D01*
X396877Y1009520D01*
X386500D01*
X386110Y1009442D01*
X386082Y1009423D01*
X385500Y1009539D01*
X384720Y1009384D01*
X384058Y1008942D01*
X383616Y1008280D01*
X383461Y1007500D01*
X383616Y1006720D01*
X384058Y1006058D01*
X384720Y1005616D01*
X385500Y1005461D01*
X386280Y1005616D01*
X386942Y1006058D01*
X387384Y1006720D01*
X387535Y1007480D01*
X396877D01*
X396919Y1007419D01*
X397415Y1007087D01*
X398000Y1006971D01*
X398585Y1007087D01*
X399081Y1007419D01*
X399123Y1007480D01*
X429164D01*
X452646Y983999D01*
Y968544D01*
X452584Y968503D01*
X452252Y968007D01*
X452136Y967421D01*
X452252Y966836D01*
X452584Y966340D01*
X453080Y966008D01*
X453665Y965892D01*
X454251Y966008D01*
X454747Y966340D01*
X455078Y966836D01*
X455195Y967421D01*
X455078Y968007D01*
X454747Y968503D01*
X454685Y968544D01*
Y984421D01*
X454607Y984811D01*
X454386Y985142D01*
X430308Y1009221D01*
X429977Y1009442D01*
X429587Y1009520D01*
X399123D01*
X399081Y1009581D01*
X398585Y1009913D01*
X398000Y1010029D01*
D02*
G37*
G36*
X600098Y1135003D02*
X599043Y1134864D01*
X598059Y1134457D01*
X597215Y1133809D01*
X596567Y1132964D01*
X596159Y1131981D01*
X596020Y1130925D01*
X596159Y1129870D01*
X596567Y1128886D01*
X597215Y1128041D01*
X598059Y1127393D01*
X598980Y1127012D01*
Y1122363D01*
X583779Y1107162D01*
X583558Y1106831D01*
X583480Y1106441D01*
Y1090422D01*
X572578Y1079520D01*
X558000D01*
X557610Y1079442D01*
X557279Y1079221D01*
X488078Y1010020D01*
X487123D01*
X487081Y1010081D01*
X486585Y1010413D01*
X486000Y1010529D01*
X485415Y1010413D01*
X484919Y1010081D01*
X484877Y1010020D01*
X475922D01*
X468440Y1017502D01*
X468539Y1018000D01*
X468384Y1018780D01*
X467942Y1019442D01*
X467280Y1019884D01*
X466500Y1020039D01*
X465720Y1019884D01*
X465058Y1019442D01*
X464616Y1018780D01*
X464461Y1018000D01*
X464616Y1017220D01*
X465058Y1016558D01*
X465720Y1016116D01*
X466500Y1015961D01*
X466998Y1016060D01*
X474779Y1008279D01*
X475110Y1008058D01*
X475500Y1007980D01*
X484877D01*
X484919Y1007919D01*
X485415Y1007587D01*
X486000Y1007471D01*
X486585Y1007587D01*
X487081Y1007919D01*
X487123Y1007980D01*
X488500D01*
X488890Y1008058D01*
X489221Y1008279D01*
X558422Y1077480D01*
X573000D01*
X573390Y1077558D01*
X573721Y1077779D01*
X585221Y1089279D01*
X585442Y1089610D01*
X585520Y1090000D01*
Y1106019D01*
X600721Y1121220D01*
X600942Y1121551D01*
X601020Y1121941D01*
Y1126968D01*
X601154Y1126986D01*
X602138Y1127393D01*
X602982Y1128041D01*
X603630Y1128886D01*
X604038Y1129870D01*
X604177Y1130925D01*
X604038Y1131981D01*
X603630Y1132964D01*
X602982Y1133809D01*
X602138Y1134457D01*
X601154Y1134864D01*
X600098Y1135003D01*
D02*
G37*
G36*
X558598Y1101503D02*
X557543Y1101364D01*
X556559Y1100957D01*
X555715Y1100309D01*
X555067Y1099464D01*
X554659Y1098481D01*
X554520Y1097425D01*
X554659Y1096370D01*
X555067Y1095386D01*
X555715Y1094541D01*
X556559Y1093893D01*
X557543Y1093486D01*
X557579Y1093481D01*
Y1086021D01*
X500279Y1028721D01*
X500249Y1028677D01*
X486085Y1014512D01*
X486000Y1014529D01*
X485415Y1014413D01*
X484919Y1014081D01*
X484877Y1014020D01*
X482422D01*
X468119Y1028323D01*
X468384Y1028720D01*
X468539Y1029500D01*
X468384Y1030280D01*
X467942Y1030942D01*
X467280Y1031384D01*
X466500Y1031539D01*
X465720Y1031384D01*
X465058Y1030942D01*
X464616Y1030280D01*
X464461Y1029500D01*
X464616Y1028720D01*
X465058Y1028058D01*
X465720Y1027616D01*
X465997Y1027561D01*
X481279Y1012279D01*
X481610Y1012058D01*
X482000Y1011980D01*
X484877D01*
X484919Y1011919D01*
X485415Y1011587D01*
X486000Y1011471D01*
X486585Y1011587D01*
X487081Y1011919D01*
X487413Y1012415D01*
X487529Y1013000D01*
X487517Y1013061D01*
X501721Y1027264D01*
X501751Y1027309D01*
X559319Y1084877D01*
X559540Y1085208D01*
X559618Y1085598D01*
Y1093481D01*
X559654Y1093486D01*
X560638Y1093893D01*
X561482Y1094541D01*
X562130Y1095386D01*
X562538Y1096370D01*
X562677Y1097425D01*
X562538Y1098481D01*
X562130Y1099464D01*
X561482Y1100309D01*
X560638Y1100957D01*
X559654Y1101364D01*
X558598Y1101503D01*
D02*
G37*
G36*
X305000Y1031029D02*
X304415Y1030913D01*
X303919Y1030581D01*
X303587Y1030085D01*
X303471Y1029500D01*
X303587Y1028915D01*
X303919Y1028419D01*
X304415Y1028087D01*
X305000Y1027971D01*
X305585Y1028087D01*
X306081Y1028419D01*
X306413Y1028915D01*
X306529Y1029500D01*
X306413Y1030085D01*
X306081Y1030581D01*
X305585Y1030913D01*
X305000Y1031029D01*
D02*
G37*
G36*
X549610Y1048084D02*
X548647Y1047892D01*
X547831Y1047347D01*
X547285Y1046530D01*
X547093Y1045567D01*
X547285Y1044604D01*
X547831Y1043787D01*
X548647Y1043242D01*
X549610Y1043050D01*
X550573Y1043242D01*
X551390Y1043787D01*
X551935Y1044604D01*
X552127Y1045567D01*
X551935Y1046530D01*
X551390Y1047347D01*
X550573Y1047892D01*
X549610Y1048084D01*
D02*
G37*
G36*
X573232D02*
X572269Y1047892D01*
X571453Y1047347D01*
X570907Y1046530D01*
X570715Y1045567D01*
X570907Y1044604D01*
X571453Y1043787D01*
X572269Y1043242D01*
X573232Y1043050D01*
X574195Y1043242D01*
X575012Y1043787D01*
X575558Y1044604D01*
X575749Y1045567D01*
X575558Y1046530D01*
X575012Y1047347D01*
X574195Y1047892D01*
X573232Y1048084D01*
D02*
G37*
G36*
X587012Y1048084D02*
X586049Y1047892D01*
X585232Y1047347D01*
X584687Y1046530D01*
X584495Y1045567D01*
X584687Y1044604D01*
X585232Y1043787D01*
X586049Y1043242D01*
X587012Y1043050D01*
X587975Y1043242D01*
X588792Y1043787D01*
X589337Y1044604D01*
X589529Y1045567D01*
X589337Y1046530D01*
X588792Y1047347D01*
X587975Y1047892D01*
X587012Y1048084D01*
D02*
G37*
G36*
X296012Y1031041D02*
X295427Y1030925D01*
X294930Y1030593D01*
X294599Y1030097D01*
X294482Y1029512D01*
X294599Y1028927D01*
X294930Y1028430D01*
X295427Y1028099D01*
X296012Y1027983D01*
X296597Y1028099D01*
X297093Y1028430D01*
X297425Y1028927D01*
X297541Y1029512D01*
X297425Y1030097D01*
X297093Y1030593D01*
X296597Y1030925D01*
X296012Y1031041D01*
D02*
G37*
G36*
X373461Y1039287D02*
X365374D01*
Y1031201D01*
X373461D01*
Y1039287D01*
D02*
G37*
G36*
X421000Y1044029D02*
X420415Y1043913D01*
X419919Y1043581D01*
X419587Y1043085D01*
X419471Y1042500D01*
X419587Y1041915D01*
X419919Y1041419D01*
X420415Y1041087D01*
X421000Y1040971D01*
X421585Y1041087D01*
X422081Y1041419D01*
X422413Y1041915D01*
X422529Y1042500D01*
X422413Y1043085D01*
X422081Y1043581D01*
X421585Y1043913D01*
X421000Y1044029D01*
D02*
G37*
G36*
X599000Y1011688D02*
X598086Y1011567D01*
X597235Y1011215D01*
X596504Y1010654D01*
X595943Y1009923D01*
X595590Y1009071D01*
X595470Y1008158D01*
X595590Y1007244D01*
X595943Y1006392D01*
X596504Y1005661D01*
X597235Y1005100D01*
X598086Y1004748D01*
X599000Y1004627D01*
X599914Y1004748D01*
X600765Y1005100D01*
X601496Y1005661D01*
X602057Y1006392D01*
X602410Y1007244D01*
X602530Y1008158D01*
X602410Y1009071D01*
X602057Y1009923D01*
X601496Y1010654D01*
X600765Y1011215D01*
X599914Y1011567D01*
X599000Y1011688D01*
D02*
G37*
G36*
X237374Y987470D02*
X236789Y987354D01*
X236293Y987022D01*
X235961Y986526D01*
X235845Y985941D01*
X235961Y985356D01*
X236293Y984859D01*
X236789Y984528D01*
X237374Y984412D01*
X237959Y984528D01*
X238456Y984859D01*
X238787Y985356D01*
X238903Y985941D01*
X238787Y986526D01*
X238456Y987022D01*
X237959Y987354D01*
X237374Y987470D01*
D02*
G37*
G36*
X398000Y992529D02*
X397415Y992413D01*
X396919Y992081D01*
X396877Y992020D01*
X387500D01*
X387110Y991942D01*
X386779Y991721D01*
X385998Y990940D01*
X385500Y991039D01*
X384720Y990884D01*
X384058Y990442D01*
X383616Y989780D01*
X383461Y989000D01*
X383616Y988220D01*
X384058Y987558D01*
X384720Y987116D01*
X385500Y986961D01*
X386280Y987116D01*
X386942Y987558D01*
X387384Y988220D01*
X387539Y989000D01*
X387440Y989498D01*
X387922Y989980D01*
X396877D01*
X396919Y989919D01*
X397415Y989587D01*
X398000Y989471D01*
X398585Y989587D01*
X399081Y989919D01*
X399123Y989980D01*
X423164D01*
X442646Y970499D01*
Y968544D01*
X442584Y968503D01*
X442252Y968007D01*
X442136Y967421D01*
X442252Y966836D01*
X442584Y966340D01*
X443080Y966008D01*
X443665Y965892D01*
X444251Y966008D01*
X444747Y966340D01*
X445078Y966836D01*
X445195Y967421D01*
X445078Y968007D01*
X444747Y968503D01*
X444685Y968544D01*
Y970921D01*
X444607Y971311D01*
X444386Y971642D01*
X434460Y981568D01*
X434707Y982029D01*
X435000Y981971D01*
X435585Y982087D01*
X436081Y982419D01*
X436413Y982915D01*
X436529Y983500D01*
X436413Y984085D01*
X436081Y984581D01*
X435585Y984913D01*
X435000Y985029D01*
X434415Y984913D01*
X433919Y984581D01*
X433587Y984085D01*
X433471Y983500D01*
X433529Y983207D01*
X433068Y982960D01*
X424308Y991721D01*
X423977Y991942D01*
X423587Y992020D01*
X399123D01*
X399081Y992081D01*
X398585Y992413D01*
X398000Y992529D01*
D02*
G37*
G36*
X359500Y997529D02*
X358915Y997413D01*
X358419Y997081D01*
X358087Y996585D01*
X357971Y996000D01*
X358087Y995415D01*
X358419Y994919D01*
X358915Y994587D01*
X359500Y994471D01*
X360085Y994587D01*
X360581Y994919D01*
X360913Y995415D01*
X361029Y996000D01*
X360913Y996585D01*
X360581Y997081D01*
X360085Y997413D01*
X359500Y997529D01*
D02*
G37*
G36*
X255500Y1149578D02*
X254445Y1149439D01*
X253461Y1149032D01*
X252616Y1148384D01*
X251968Y1147539D01*
X251561Y1146556D01*
X251422Y1145500D01*
X251561Y1144444D01*
X251968Y1143461D01*
X252616Y1142616D01*
X253461Y1141968D01*
X254445Y1141561D01*
X254480Y1141556D01*
Y1126000D01*
X254558Y1125610D01*
X254779Y1125279D01*
X262779Y1117279D01*
X263110Y1117058D01*
X263500Y1116980D01*
X337078D01*
X415779Y1038279D01*
X416110Y1038058D01*
X416500Y1037980D01*
X421127D01*
X421249Y1037531D01*
X421249Y1037528D01*
X420915Y1037413D01*
X420822Y1037351D01*
X420419Y1037081D01*
X420087Y1036585D01*
X419971Y1036000D01*
X420087Y1035415D01*
X420419Y1034919D01*
X420915Y1034587D01*
X421500Y1034471D01*
X422085Y1034587D01*
X422581Y1034919D01*
X422913Y1035415D01*
X423029Y1036000D01*
X422913Y1036585D01*
X422581Y1037081D01*
X422178Y1037351D01*
X422085Y1037413D01*
X421751Y1037528D01*
X421751Y1037531D01*
X421873Y1037980D01*
X425113D01*
X440980Y1022113D01*
Y1017623D01*
X440919Y1017581D01*
X440587Y1017085D01*
X440471Y1016500D01*
X440587Y1015915D01*
X440919Y1015419D01*
X441415Y1015087D01*
X442000Y1014971D01*
X442073Y1014985D01*
X470980Y986078D01*
Y965422D01*
X464578Y959020D01*
X437000D01*
X436610Y958942D01*
X436279Y958721D01*
X423279Y945721D01*
X423058Y945390D01*
X422980Y945000D01*
Y907500D01*
X423058Y907110D01*
X423279Y906779D01*
X524279Y805779D01*
X524610Y805558D01*
X525000Y805480D01*
X526377D01*
X526419Y805419D01*
X526915Y805087D01*
X527500Y804971D01*
X528085Y805087D01*
X528581Y805419D01*
X528623Y805480D01*
X537078D01*
X543980Y798578D01*
Y787094D01*
X515779Y758892D01*
X515558Y758562D01*
X515480Y758172D01*
Y752623D01*
X515419Y752581D01*
X515087Y752085D01*
X514971Y751500D01*
X515087Y750915D01*
X515419Y750419D01*
X515915Y750087D01*
X516500Y749971D01*
X517085Y750087D01*
X517581Y750419D01*
X517913Y750915D01*
X518029Y751500D01*
X517913Y752085D01*
X517581Y752581D01*
X517520Y752623D01*
Y757749D01*
X545721Y785951D01*
X545942Y786281D01*
X546020Y786672D01*
Y799000D01*
X545942Y799390D01*
X545721Y799721D01*
X538221Y807221D01*
X537890Y807442D01*
X537500Y807520D01*
X528623D01*
X528581Y807581D01*
X528085Y807913D01*
X527500Y808029D01*
X526915Y807913D01*
X526419Y807581D01*
X526377Y807520D01*
X525422D01*
X425020Y907922D01*
Y909630D01*
X425159Y909731D01*
X425520Y909851D01*
X425915Y909587D01*
X426500Y909471D01*
X427085Y909587D01*
X427581Y909919D01*
X427913Y910415D01*
X428029Y911000D01*
X427913Y911585D01*
X427581Y912081D01*
X427085Y912413D01*
X426500Y912529D01*
X425915Y912413D01*
X425520Y912149D01*
X425159Y912269D01*
X425020Y912370D01*
Y944578D01*
X437422Y956980D01*
X439947D01*
X440099Y956480D01*
X439917Y956359D01*
X427956Y944398D01*
X427735Y944067D01*
X427658Y943677D01*
Y932406D01*
X427596Y932365D01*
X427264Y931869D01*
X427148Y931283D01*
X427264Y930698D01*
X427596Y930202D01*
X428092Y929871D01*
X428677Y929754D01*
X429262Y929871D01*
X429759Y930202D01*
X430090Y930698D01*
X430206Y931283D01*
X430090Y931869D01*
X429759Y932365D01*
X429697Y932406D01*
Y943255D01*
X441060Y954618D01*
X524138D01*
X524528Y954696D01*
X524859Y954917D01*
X546391Y976449D01*
X557634D01*
X557943Y975703D01*
X558504Y974972D01*
X559235Y974411D01*
X560086Y974059D01*
X561000Y973938D01*
X561914Y974059D01*
X562765Y974411D01*
X563496Y974972D01*
X564057Y975703D01*
X564410Y976555D01*
X564530Y977468D01*
X564410Y978382D01*
X564057Y979234D01*
X563496Y979965D01*
X562765Y980526D01*
X561914Y980878D01*
X561000Y980999D01*
X560086Y980878D01*
X559235Y980526D01*
X558504Y979965D01*
X557943Y979234D01*
X557634Y978488D01*
X545968D01*
X545578Y978411D01*
X545248Y978189D01*
X523715Y956657D01*
X465691D01*
X465539Y957157D01*
X465721Y957279D01*
X472721Y964279D01*
X472942Y964610D01*
X473020Y965000D01*
Y986500D01*
X472942Y986890D01*
X472721Y987221D01*
X443515Y1016427D01*
X443529Y1016500D01*
X443413Y1017085D01*
X443081Y1017581D01*
X443020Y1017623D01*
Y1022536D01*
X442942Y1022926D01*
X442721Y1023256D01*
X426257Y1039721D01*
X425926Y1039942D01*
X425535Y1040020D01*
X416922D01*
X338221Y1118721D01*
X337890Y1118942D01*
X337500Y1119020D01*
X263922D01*
X256520Y1126422D01*
Y1141556D01*
X256556Y1141561D01*
X257539Y1141968D01*
X258384Y1142616D01*
X259032Y1143461D01*
X259439Y1144444D01*
X259578Y1145500D01*
X259439Y1146556D01*
X259032Y1147539D01*
X258384Y1148384D01*
X257539Y1149032D01*
X256556Y1149439D01*
X255500Y1149578D01*
D02*
G37*
G36*
X600500Y980999D02*
X599586Y980878D01*
X598735Y980526D01*
X598004Y979965D01*
X597443Y979234D01*
X597104Y978416D01*
X597078Y978411D01*
X596747Y978189D01*
X572578Y954020D01*
X442500D01*
X442110Y953942D01*
X441779Y953721D01*
X432956Y944898D01*
X432735Y944567D01*
X432658Y944177D01*
Y932434D01*
X432596Y932393D01*
X432264Y931896D01*
X432148Y931311D01*
X432264Y930726D01*
X432596Y930230D01*
X433092Y929898D01*
X433677Y929782D01*
X434262Y929898D01*
X434759Y930230D01*
X435090Y930726D01*
X435207Y931311D01*
X435090Y931896D01*
X434759Y932393D01*
X434697Y932434D01*
Y943755D01*
X442922Y951980D01*
X573000D01*
X573390Y952058D01*
X573721Y952279D01*
X597003Y975561D01*
X597621Y975472D01*
X598004Y974972D01*
X598735Y974411D01*
X599586Y974059D01*
X600500Y973938D01*
X601414Y974059D01*
X602265Y974411D01*
X602996Y974972D01*
X603557Y975703D01*
X603910Y976555D01*
X604030Y977468D01*
X603910Y978382D01*
X603557Y979234D01*
X602996Y979965D01*
X602265Y980526D01*
X601414Y980878D01*
X600500Y980999D01*
D02*
G37*
G36*
X398000Y983529D02*
X397415Y983413D01*
X396919Y983081D01*
X396877Y983020D01*
X388500D01*
X388110Y982942D01*
X387779Y982721D01*
X385998Y980940D01*
X385500Y981039D01*
X384720Y980884D01*
X384058Y980442D01*
X383616Y979780D01*
X383461Y979000D01*
X383616Y978220D01*
X384058Y977558D01*
X384720Y977116D01*
X385500Y976961D01*
X386280Y977116D01*
X386942Y977558D01*
X387384Y978220D01*
X387539Y979000D01*
X387440Y979498D01*
X388922Y980980D01*
X396877D01*
X396919Y980919D01*
X397415Y980587D01*
X398000Y980471D01*
X398585Y980587D01*
X399081Y980919D01*
X399123Y980980D01*
X427164D01*
X437646Y970499D01*
Y968544D01*
X437584Y968503D01*
X437252Y968007D01*
X437136Y967421D01*
X437252Y966836D01*
X437584Y966340D01*
X438080Y966008D01*
X438665Y965892D01*
X439251Y966008D01*
X439747Y966340D01*
X440078Y966836D01*
X440195Y967421D01*
X440078Y968007D01*
X439747Y968503D01*
X439685Y968544D01*
Y970921D01*
X439607Y971311D01*
X439386Y971642D01*
X428308Y982721D01*
X427977Y982942D01*
X427587Y983020D01*
X399123D01*
X399081Y983081D01*
X398585Y983413D01*
X398000Y983529D01*
D02*
G37*
G36*
X371000Y997529D02*
X370415Y997413D01*
X369919Y997081D01*
X369587Y996585D01*
X369471Y996000D01*
X369587Y995415D01*
X369919Y994919D01*
X370415Y994587D01*
X371000Y994471D01*
X371585Y994587D01*
X372081Y994919D01*
X372413Y995415D01*
X372529Y996000D01*
X372413Y996585D01*
X372081Y997081D01*
X371585Y997413D01*
X371000Y997529D01*
D02*
G37*
G36*
X610811Y1006974D02*
X609848Y1006782D01*
X609031Y1006236D01*
X608486Y1005420D01*
X608294Y1004457D01*
X608486Y1003493D01*
X609031Y1002677D01*
X609848Y1002131D01*
X610811Y1001940D01*
X611774Y1002131D01*
X612591Y1002677D01*
X613136Y1003493D01*
X613328Y1004457D01*
X613136Y1005420D01*
X612591Y1006236D01*
X611774Y1006782D01*
X610811Y1006974D01*
D02*
G37*
G36*
X600098Y1102003D02*
X599043Y1101864D01*
X598059Y1101457D01*
X597215Y1100809D01*
X596567Y1099964D01*
X596159Y1098981D01*
X596020Y1097925D01*
X596159Y1096870D01*
X596567Y1095886D01*
X597215Y1095041D01*
X598059Y1094393D01*
X599043Y1093986D01*
X599079Y1093981D01*
Y1081600D01*
X590499Y1073020D01*
X559500D01*
X559110Y1072942D01*
X558779Y1072721D01*
X534779Y1048721D01*
X534558Y1048390D01*
X534480Y1048000D01*
Y1038922D01*
X499078Y1003520D01*
X487123D01*
X487081Y1003581D01*
X486585Y1003913D01*
X486000Y1004029D01*
X485415Y1003913D01*
X484919Y1003581D01*
X484877Y1003520D01*
X472422D01*
X468440Y1007502D01*
X468539Y1008000D01*
X468384Y1008780D01*
X467942Y1009442D01*
X467280Y1009884D01*
X466500Y1010039D01*
X465720Y1009884D01*
X465058Y1009442D01*
X464616Y1008780D01*
X464461Y1008000D01*
X464616Y1007220D01*
X465058Y1006558D01*
X465720Y1006116D01*
X466500Y1005961D01*
X466998Y1006060D01*
X471279Y1001779D01*
X471610Y1001558D01*
X472000Y1001480D01*
X484877D01*
X484919Y1001419D01*
X485415Y1001087D01*
X486000Y1000971D01*
X486585Y1001087D01*
X487081Y1001419D01*
X487123Y1001480D01*
X499500D01*
X499890Y1001558D01*
X500221Y1001779D01*
X536221Y1037779D01*
X536442Y1038110D01*
X536520Y1038500D01*
Y1047578D01*
X559922Y1070980D01*
X590921D01*
X591312Y1071058D01*
X591642Y1071279D01*
X600819Y1080456D01*
X601040Y1080787D01*
X601118Y1081177D01*
Y1093981D01*
X601154Y1093986D01*
X602138Y1094393D01*
X602982Y1095041D01*
X603630Y1095886D01*
X604038Y1096870D01*
X604177Y1097925D01*
X604038Y1098981D01*
X603630Y1099964D01*
X602982Y1100809D01*
X602138Y1101457D01*
X601154Y1101864D01*
X600098Y1102003D01*
D02*
G37*
G36*
X560500Y1011188D02*
X559586Y1011067D01*
X558735Y1010715D01*
X558004Y1010154D01*
X557443Y1009423D01*
X557090Y1008571D01*
X556970Y1007658D01*
X557090Y1006744D01*
X557443Y1005892D01*
X558004Y1005161D01*
X558735Y1004600D01*
X559586Y1004248D01*
X560500Y1004127D01*
X561414Y1004248D01*
X562265Y1004600D01*
X562996Y1005161D01*
X563557Y1005892D01*
X563910Y1006744D01*
X564030Y1007658D01*
X563910Y1008571D01*
X563557Y1009423D01*
X562996Y1010154D01*
X562265Y1010715D01*
X561414Y1011067D01*
X560500Y1011188D01*
D02*
G37*
G36*
X548689Y1006474D02*
X547726Y1006282D01*
X546909Y1005736D01*
X546364Y1004920D01*
X546172Y1003957D01*
X546364Y1002993D01*
X546909Y1002177D01*
X547726Y1001631D01*
X548689Y1001440D01*
X549652Y1001631D01*
X550469Y1002177D01*
X551014Y1002993D01*
X551206Y1003957D01*
X551014Y1004920D01*
X550469Y1005736D01*
X549652Y1006282D01*
X548689Y1006474D01*
D02*
G37*
G36*
X572311D02*
X571348Y1006282D01*
X570531Y1005736D01*
X569986Y1004920D01*
X569794Y1003957D01*
X569986Y1002993D01*
X570531Y1002177D01*
X571348Y1001631D01*
X572311Y1001440D01*
X573274Y1001631D01*
X574091Y1002177D01*
X574636Y1002993D01*
X574828Y1003957D01*
X574636Y1004920D01*
X574091Y1005736D01*
X573274Y1006282D01*
X572311Y1006474D01*
D02*
G37*
G36*
X587189Y1006974D02*
X586226Y1006782D01*
X585409Y1006236D01*
X584864Y1005420D01*
X584672Y1004457D01*
X584864Y1003493D01*
X585409Y1002677D01*
X586226Y1002131D01*
X587189Y1001940D01*
X588152Y1002131D01*
X588969Y1002677D01*
X589514Y1003493D01*
X589706Y1004457D01*
X589514Y1005420D01*
X588969Y1006236D01*
X588152Y1006782D01*
X587189Y1006974D01*
D02*
G37*
%LPD*%
D39*
X385500Y997500D02*
D03*
Y1028500D02*
D03*
Y989000D02*
D03*
Y979000D02*
D03*
Y968000D02*
D03*
Y958000D02*
D03*
X466500Y1008000D02*
D03*
Y1018000D02*
D03*
Y1029500D02*
D03*
Y1040500D02*
D03*
X385500Y1019000D02*
D03*
Y1007500D02*
D03*
D41*
X543000Y895000D02*
X562500D01*
X534606Y852500D02*
X564000D01*
X382000Y656500D02*
X383000Y657500D01*
X600000Y1121941D02*
Y1130925D01*
X580500Y779500D02*
X596809Y795809D01*
X260305Y595305D02*
X308500Y643500D01*
X482760Y755374D02*
X490957Y763571D01*
X586000Y930000D02*
X591901Y935902D01*
X255500Y1126000D02*
Y1145500D01*
Y1126000D02*
X263500Y1118000D01*
X535500Y1048000D02*
X559500Y1072000D01*
X535500Y1038500D02*
Y1048000D01*
X499500Y1002500D02*
X535500Y1038500D01*
X545968Y977468D02*
X561000D01*
X524138Y955638D02*
X545968Y977468D01*
X597469D02*
X600500D01*
X573000Y953000D02*
X597469Y977468D01*
X442500Y953000D02*
X573000D01*
X591901Y935902D02*
X599323D01*
X549500Y930000D02*
X586000D01*
X537000Y942500D02*
X549500Y930000D01*
X593126Y851874D02*
X600500D01*
X576173Y868827D02*
X593126Y851874D01*
X501000Y1027985D02*
Y1028000D01*
X486015Y1013000D02*
X501000Y1027985D01*
X486000Y1013000D02*
X486015D01*
X486000Y1023000D02*
X541000Y1078000D01*
Y1111000D01*
X501000Y1028000D02*
X558598Y1085598D01*
Y1097425D01*
X600098Y1081177D02*
Y1097173D01*
X590921Y1072000D02*
X600098Y1081177D01*
X541000Y1111000D02*
X558598Y1128598D01*
Y1130331D01*
X584500Y1106441D02*
X600000Y1121941D01*
X584500Y1090000D02*
Y1106441D01*
X529000Y758394D02*
Y763394D01*
X553098Y935902D02*
X561921D01*
X594031Y889500D02*
X599500Y894969D01*
X542000Y889500D02*
X594031D01*
X496500Y935000D02*
X542000Y889500D01*
X593071Y746071D02*
X597335D01*
X586000Y739000D02*
X593071Y746071D01*
X586000Y694000D02*
Y739000D01*
X532000Y640000D02*
X586000Y694000D01*
X595500Y693571D02*
X599228Y697299D01*
X595429Y657929D02*
X599228D01*
X544500Y607000D02*
X595429Y657929D01*
X301886Y607000D02*
X544500D01*
X290248Y595362D02*
X301886Y607000D01*
X279748Y595362D02*
X280362D01*
X270248D02*
Y595748D01*
X245500Y1121500D02*
Y1145500D01*
Y1121500D02*
X255500Y1111500D01*
X559500Y1072000D02*
X590921D01*
X558000Y1078500D02*
X573000D01*
X488500Y1009000D02*
X558000Y1078500D01*
X486000Y1009000D02*
X488500D01*
X486000Y1002500D02*
X499500D01*
X442000Y1016500D02*
X472000Y986500D01*
X526500Y755894D02*
X529000Y758394D01*
X545000Y786672D02*
Y799000D01*
X537500Y806500D02*
X545000Y799000D01*
X527500Y806500D02*
X537500D01*
X580500Y710000D02*
Y779500D01*
X514000Y643500D02*
X580500Y710000D01*
X516500Y758172D02*
X545000Y786672D01*
X516500Y751500D02*
Y758172D01*
X526500Y742000D02*
Y755894D01*
X483000Y740000D02*
Y755134D01*
X482760Y755374D02*
X483000Y755134D01*
X528500Y787500D02*
X541000D01*
X416500Y899500D02*
X528500Y787500D01*
X416500Y899500D02*
Y948500D01*
X525000Y806500D02*
X527500D01*
X480500Y1023000D02*
X486000D01*
X475500Y1009000D02*
X486000D01*
X466500Y1008000D02*
X472000Y1002500D01*
X486000D01*
X466500Y1028500D02*
X482000Y1013000D01*
X486000D01*
X466500Y1037000D02*
X480500Y1023000D01*
X466500Y1037000D02*
Y1040500D01*
Y1028500D02*
Y1029500D01*
Y1018000D02*
X475500Y1009000D01*
X401000Y972000D02*
X426087D01*
X398000Y969000D02*
X401000Y972000D01*
X385500Y958000D02*
X387000D01*
X398000Y969000D01*
X385500Y968000D02*
X393000Y975500D01*
X398000D01*
X385500Y979000D02*
X388500Y982000D01*
X398000D01*
X385500Y989000D02*
X387500Y991000D01*
X398000D01*
X385500Y997500D02*
X398000D01*
X385500Y1007500D02*
X386500Y1008500D01*
X398000D01*
X385500Y1016500D02*
Y1019000D01*
Y1016500D02*
X388500Y1013500D01*
X398000D01*
X385500Y1028500D02*
X391000D01*
X398000Y975500D02*
X427587D01*
X391000Y1028500D02*
X398000Y1021500D01*
X429087Y1013500D02*
X458665Y983921D01*
X398000Y1013500D02*
X429087D01*
X427087Y1021500D02*
X463665Y984921D01*
X398000Y1021500D02*
X427087D01*
X427587Y982000D02*
X438665Y970921D01*
X398000Y982000D02*
X427587D01*
X429587Y1008500D02*
X453665Y984421D01*
X398000Y1008500D02*
X429587D01*
X426087Y972000D02*
X428665Y969421D01*
X427587Y975500D02*
X433665Y969421D01*
X398000Y997500D02*
X427087D01*
X448665Y975921D01*
X398000Y991000D02*
X423587D01*
X443665Y970921D01*
X416500Y1039000D02*
X425535D01*
X337500Y1118000D02*
X416500Y1039000D01*
X270248Y595748D02*
X314500Y640000D01*
X541374Y947626D02*
X553098Y935902D01*
X500162Y947626D02*
X541374D01*
X500551Y937449D02*
X543000Y895000D01*
X458677Y928429D02*
X534606Y852500D01*
X443677Y935177D02*
X451000Y942500D01*
X537000D01*
X500035Y947500D02*
X500162Y947626D01*
X497964Y947500D02*
X500035D01*
X497838Y947626D02*
X497964Y947500D01*
X442626Y947626D02*
X497838D01*
X433677Y944177D02*
X442500Y953000D01*
X568193Y742807D02*
X576346D01*
X432874Y731256D02*
X450256D01*
X463665Y967421D02*
Y984921D01*
X458665Y967421D02*
Y983921D01*
X453665Y967421D02*
Y984421D01*
X448665Y967421D02*
Y975921D01*
X443665Y967421D02*
Y970921D01*
X438665Y967421D02*
Y970921D01*
X433665Y967421D02*
Y969421D01*
X428665Y967421D02*
Y969421D01*
X573000Y1078500D02*
X584500Y1090000D01*
X428677Y931283D02*
Y943677D01*
X433677Y931311D02*
Y944177D01*
X438677Y930783D02*
Y943677D01*
X442626Y947626D01*
X443677Y930783D02*
Y935177D01*
X428677Y943677D02*
X440638Y955638D01*
X524138D01*
X448677Y930811D02*
Y934677D01*
X451500Y937500D01*
X498547D01*
X498598Y937449D01*
X500551D01*
X453677Y930783D02*
Y933177D01*
X455500Y935000D01*
X496500D01*
X463677Y931283D02*
X489287D01*
X551744Y868827D01*
X576173D01*
X458677Y928429D02*
Y930783D01*
X308500Y643500D02*
X514000D01*
X437000Y958000D02*
X465000D01*
X429500Y961500D02*
X463000D01*
X465000Y958000D02*
X472000Y965000D01*
Y986500D01*
X463000Y961500D02*
X469000Y967500D01*
X438000Y1016000D02*
Y1020500D01*
Y1016000D02*
X469000Y985000D01*
Y967500D02*
Y985000D01*
X427000Y1031500D02*
X438000Y1020500D01*
X405000Y1031500D02*
X427000D01*
X416500Y948500D02*
X429500Y961500D01*
X424000Y945000D02*
X437000Y958000D01*
X442000Y1016500D02*
Y1022536D01*
X325000Y1111500D02*
X405000Y1031500D01*
X255500Y1111500D02*
X325000D01*
X425535Y1039000D02*
X442000Y1022536D01*
X539000Y772000D02*
X568193Y742807D01*
X535500Y772000D02*
X539000D01*
X450256Y731256D02*
X475500Y756500D01*
X474000Y784500D02*
X475500Y783000D01*
Y756500D02*
Y783000D01*
X595500Y684465D02*
Y693571D01*
X424000Y907500D02*
X525000Y806500D01*
X424000Y907500D02*
Y945000D01*
X383000Y657500D02*
X411000D01*
X541000Y787500D01*
X280362Y595362D02*
X315485Y630485D01*
X541521D02*
X595500Y684465D01*
X315485Y630485D02*
X541521D01*
X314500Y640000D02*
X532000D01*
X263500Y1118000D02*
X337500D01*
D43*
X318000Y627000D02*
X334500D01*
X337000Y624500D01*
X343500Y618000D01*
Y613500D02*
Y618000D01*
D46*
X206693Y647008D02*
D03*
X221654D02*
D03*
X206693Y612992D02*
D03*
X221654D02*
D03*
D47*
X208661Y1153543D02*
D03*
X618110D02*
D03*
Y566929D02*
D03*
X246232Y585362D02*
D03*
X304264D02*
D03*
X289748D02*
D03*
X279748D02*
D03*
X270248D02*
D03*
X260248D02*
D03*
Y595362D02*
D03*
X270248D02*
D03*
X279748D02*
D03*
X290248D02*
D03*
X381594Y1133500D02*
D03*
X393406D02*
D03*
X503594Y1133000D02*
D03*
X515406D02*
D03*
X463594D02*
D03*
X475406D02*
D03*
X421594D02*
D03*
X433405D02*
D03*
X223000Y1102905D02*
D03*
Y1091094D02*
D03*
X562500Y895469D02*
D03*
Y883657D02*
D03*
X599000Y1019969D02*
D03*
Y1008158D02*
D03*
X561000Y977468D02*
D03*
Y965658D02*
D03*
X600500Y977468D02*
D03*
Y965658D02*
D03*
X599500Y894969D02*
D03*
Y883158D02*
D03*
X561921Y935902D02*
D03*
Y924090D02*
D03*
X564000Y851968D02*
D03*
Y840158D02*
D03*
X223189Y790012D02*
D03*
Y778201D02*
D03*
X598823Y1061079D02*
D03*
Y1049268D02*
D03*
X599323Y935902D02*
D03*
Y924090D02*
D03*
X560500Y1019468D02*
D03*
Y1007658D02*
D03*
X600500Y851874D02*
D03*
Y840063D02*
D03*
X561421Y1061079D02*
D03*
Y1049268D02*
D03*
D48*
X208661Y566929D02*
D03*
D49*
X590098Y1097925D02*
D03*
X600098D02*
D03*
X590098Y1130925D02*
D03*
X600098D02*
D03*
X548598Y1097425D02*
D03*
X558598D02*
D03*
X548598Y1130425D02*
D03*
X558598D02*
D03*
X245500Y1145500D02*
D03*
X235500D02*
D03*
X255500D02*
D03*
X369768Y907043D02*
D03*
Y917043D02*
D03*
Y927043D02*
D03*
X359768Y907043D02*
D03*
Y917043D02*
D03*
X359417Y1035244D02*
D03*
X299492Y898984D02*
D03*
X494189Y585142D02*
D03*
X504189D02*
D03*
X484189D02*
D03*
X472000Y1099500D02*
D03*
X527500D02*
D03*
X413500Y1098000D02*
D03*
X298500Y784000D02*
D03*
X417224Y766059D02*
D03*
X353500Y649827D02*
D03*
X240315Y696240D02*
D03*
X439500Y1100000D02*
D03*
X449500Y1090000D02*
D03*
Y1100000D02*
D03*
X495000Y1099500D02*
D03*
X505000Y1089500D02*
D03*
Y1099500D02*
D03*
X381000Y1100000D02*
D03*
X391000Y1090000D02*
D03*
Y1100000D02*
D03*
X367614Y785425D02*
D03*
Y795425D02*
D03*
Y805425D02*
D03*
X357614Y785425D02*
D03*
Y795425D02*
D03*
X397327Y599051D02*
D03*
X387327D02*
D03*
X535528Y598921D02*
D03*
X525528D02*
D03*
X582772Y585142D02*
D03*
X592772D02*
D03*
X572772D02*
D03*
X440634Y585272D02*
D03*
X450634D02*
D03*
X430634D02*
D03*
X355988D02*
D03*
X365988D02*
D03*
X345988D02*
D03*
X599228Y667929D02*
D03*
Y657929D02*
D03*
X599228Y707299D02*
D03*
Y697299D02*
D03*
X597335Y746071D02*
D03*
Y756071D02*
D03*
Y736071D02*
D03*
X597335Y795284D02*
D03*
Y805284D02*
D03*
Y785284D02*
D03*
D50*
X397106Y1145311D02*
D03*
Y1121689D02*
D03*
X519106Y1144811D02*
D03*
Y1121189D02*
D03*
X479106Y1144811D02*
D03*
Y1121189D02*
D03*
X437106Y1144811D02*
D03*
Y1121189D02*
D03*
X234811Y1087394D02*
D03*
X211189D02*
D03*
X574311Y879957D02*
D03*
X550689D02*
D03*
X610811Y1004457D02*
D03*
X587189D02*
D03*
X572811Y961957D02*
D03*
X549189D02*
D03*
X612311D02*
D03*
X588689D02*
D03*
X611311Y879457D02*
D03*
X587689D02*
D03*
X573732Y920390D02*
D03*
X550110D02*
D03*
X575811Y836457D02*
D03*
X552189D02*
D03*
X235000Y774500D02*
D03*
X211378D02*
D03*
X610634Y1045567D02*
D03*
X587012D02*
D03*
X611134Y920390D02*
D03*
X587512D02*
D03*
X572311Y1003957D02*
D03*
X548689D02*
D03*
X612311Y836362D02*
D03*
X588689D02*
D03*
X573232Y1045567D02*
D03*
X549610D02*
D03*
D51*
X359768Y927043D02*
D03*
X240315Y686240D02*
D03*
X357614Y805425D02*
D03*
D52*
X369417Y1035244D02*
D03*
X309492Y898984D02*
D03*
X462000Y1099500D02*
D03*
X517500D02*
D03*
X403500Y1098000D02*
D03*
X308500Y784000D02*
D03*
X427224Y766059D02*
D03*
X363500Y649827D02*
D03*
X439500Y1090000D02*
D03*
X495000Y1089500D02*
D03*
X381000Y1090000D02*
D03*
X407327Y599051D02*
D03*
X545528Y598921D02*
D03*
D53*
X466500Y1049500D02*
D03*
X547500Y1083000D02*
D03*
X516000Y1063500D02*
D03*
X495500Y1045500D02*
D03*
X515000Y1047000D02*
D03*
X532000Y1083000D02*
D03*
X464000Y1075000D02*
D03*
X487000Y1123000D02*
D03*
X412191Y1113980D02*
D03*
X367500Y1136000D02*
D03*
X425000Y636500D02*
D03*
X236405Y628500D02*
D03*
X237000Y639500D02*
D03*
X516000Y1008500D02*
D03*
X457000Y1029500D02*
D03*
X449045Y1024372D02*
D03*
X267000Y1076114D02*
D03*
X258500Y1075500D02*
D03*
X507000Y1079000D02*
D03*
X374500Y885000D02*
D03*
X371000Y996000D02*
D03*
X359500D02*
D03*
X372000Y1007000D02*
D03*
X405500Y711000D02*
D03*
X450500Y1074500D02*
D03*
X296500Y944000D02*
D03*
X422500Y801500D02*
D03*
X426000Y798000D02*
D03*
X427000Y790575D02*
D03*
X434085Y758915D02*
D03*
X294000Y827500D02*
D03*
X416305Y1035805D02*
D03*
X448000Y704500D02*
D03*
X489500Y696500D02*
D03*
X516500Y751500D02*
D03*
X526500Y742000D02*
D03*
X483000Y740000D02*
D03*
X529500Y697500D02*
D03*
X484000Y663500D02*
D03*
X521500Y788000D02*
D03*
X481500Y1058500D02*
D03*
X475500D02*
D03*
X452500Y1049000D02*
D03*
X486000Y1023000D02*
D03*
Y1009000D02*
D03*
Y1002500D02*
D03*
Y1013000D02*
D03*
X510000Y775500D02*
D03*
X382500Y746500D02*
D03*
X458500Y1045500D02*
D03*
X398000Y969000D02*
D03*
Y975500D02*
D03*
Y1021500D02*
D03*
Y1008500D02*
D03*
Y1013500D02*
D03*
X419976Y655476D02*
D03*
X449000Y655500D02*
D03*
X350638Y1035244D02*
D03*
X354740Y813862D02*
D03*
X346646Y809205D02*
D03*
X538500Y635500D02*
D03*
X588000Y1081500D02*
D03*
X496500Y1115500D02*
D03*
X529000Y1149000D02*
D03*
X461000Y636500D02*
D03*
X395500Y620000D02*
D03*
X488024Y702024D02*
D03*
X512500Y734500D02*
D03*
X494500Y654000D02*
D03*
X508000Y690500D02*
D03*
X498976Y1009024D02*
D03*
X499000Y1014000D02*
D03*
X365500Y702500D02*
D03*
X257000Y1006000D02*
D03*
X462835Y691665D02*
D03*
X520000Y993000D02*
D03*
X499000Y973500D02*
D03*
Y978500D02*
D03*
Y983500D02*
D03*
Y940000D02*
D03*
Y950000D02*
D03*
Y945000D02*
D03*
X435000Y983500D02*
D03*
X450500D02*
D03*
X421500Y1036000D02*
D03*
X442000Y792500D02*
D03*
X279000Y925980D02*
D03*
X296012Y1029512D02*
D03*
X305000Y1029500D02*
D03*
X314000D02*
D03*
X322000Y1092000D02*
D03*
X415000Y687000D02*
D03*
X423000Y679500D02*
D03*
X426000Y701500D02*
D03*
X470346Y684346D02*
D03*
X468409Y659091D02*
D03*
X488000Y719000D02*
D03*
X498000Y718500D02*
D03*
X443500Y773000D02*
D03*
X331886Y1144516D02*
D03*
X237374Y985941D02*
D03*
X467728Y736004D02*
D03*
X426500Y911000D02*
D03*
X547248Y717209D02*
D03*
X363500Y1110000D02*
D03*
X270500Y1139000D02*
D03*
X239689Y870106D02*
D03*
X519882Y924575D02*
D03*
Y958138D02*
D03*
X313028Y679563D02*
D03*
X313122Y666157D02*
D03*
X313323Y672858D02*
D03*
X252378Y846846D02*
D03*
X354740Y867984D02*
D03*
X369661Y875346D02*
D03*
X359480Y878102D02*
D03*
X343783Y649827D02*
D03*
X329528Y728063D02*
D03*
X287409Y1068051D02*
D03*
X287760Y1054701D02*
D03*
X250492Y925484D02*
D03*
X274992Y987484D02*
D03*
X250492Y959984D02*
D03*
X346492Y930984D02*
D03*
X354992Y935484D02*
D03*
Y969484D02*
D03*
X433248Y790721D02*
D03*
X252378Y811173D02*
D03*
X433681Y683949D02*
D03*
X419874Y735256D02*
D03*
X442760Y719004D02*
D03*
X452760D02*
D03*
X442819Y704563D02*
D03*
X473831Y705965D02*
D03*
X495764Y792764D02*
D03*
X432874Y731256D02*
D03*
X490957Y763071D02*
D03*
X515177Y682677D02*
D03*
X513465Y658965D02*
D03*
X494965Y701965D02*
D03*
X402874Y694256D02*
D03*
X518465Y704465D02*
D03*
X561846Y740807D02*
D03*
X576346Y742807D02*
D03*
X557346Y696307D02*
D03*
X564846Y687807D02*
D03*
X562846Y663307D02*
D03*
X437943Y991045D02*
D03*
X416197Y1086772D02*
D03*
X463665Y967421D02*
D03*
X458665D02*
D03*
X453665D02*
D03*
X448665D02*
D03*
X443665D02*
D03*
X438665D02*
D03*
X433665D02*
D03*
X428665D02*
D03*
X423665D02*
D03*
X252126Y738685D02*
D03*
Y703118D02*
D03*
X242342Y812902D02*
D03*
X242843Y803402D02*
D03*
X253343Y803902D02*
D03*
X343342Y814902D02*
D03*
X241374Y926402D02*
D03*
X238374Y934902D02*
D03*
X344342Y824402D02*
D03*
X350374Y938402D02*
D03*
X346374Y944402D02*
D03*
X345874Y936902D02*
D03*
X292000Y630000D02*
D03*
X363776Y661815D02*
D03*
X269342Y1007402D02*
D03*
X447000Y787000D02*
D03*
X342043Y1086701D02*
D03*
X262343Y703402D02*
D03*
X261000Y713500D02*
D03*
X543346Y702307D02*
D03*
X537346D02*
D03*
X541346Y659807D02*
D03*
X428677Y931283D02*
D03*
X443677Y930783D02*
D03*
X448677Y930811D02*
D03*
X453677Y930783D02*
D03*
X458677D02*
D03*
X463677Y931283D02*
D03*
X433677Y931311D02*
D03*
X438677Y930783D02*
D03*
X280279Y810437D02*
D03*
X468500Y1125500D02*
D03*
X448000Y1152500D02*
D03*
X599500Y601000D02*
D03*
X437000Y611500D02*
D03*
X529000Y763394D02*
D03*
X250000Y607500D02*
D03*
X467866Y767736D02*
D03*
X438000Y1020500D02*
D03*
X442000Y1016500D02*
D03*
X611500Y617000D02*
D03*
X610500Y820500D02*
D03*
X578000Y782000D02*
D03*
X511957Y779571D02*
D03*
X539500Y793500D02*
D03*
X513035Y796492D02*
D03*
X358000Y1122500D02*
D03*
X396500Y1080000D02*
D03*
X421000Y1042500D02*
D03*
X400000Y690000D02*
D03*
X398000Y982000D02*
D03*
Y997500D02*
D03*
Y991000D02*
D03*
X359500Y748500D02*
D03*
X284000Y866500D02*
D03*
X265500Y681500D02*
D03*
X269500Y696000D02*
D03*
X396500Y661500D02*
D03*
X566539Y710000D02*
D03*
X292000Y1127000D02*
D03*
X329500Y1085000D02*
D03*
X353500Y661500D02*
D03*
X343000Y1050500D02*
D03*
X329043Y1078201D02*
D03*
X348043Y1079201D02*
D03*
X328543Y1069701D02*
D03*
Y1060201D02*
D03*
X348043Y1069701D02*
D03*
X348543Y1060701D02*
D03*
X354500Y697000D02*
D03*
X357500Y687500D02*
D03*
X375500Y696000D02*
D03*
X373500Y685000D02*
D03*
X355000Y677000D02*
D03*
X374500Y673000D02*
D03*
X366000Y693500D02*
D03*
X353500Y715000D02*
D03*
X377000Y713000D02*
D03*
X517000Y1027000D02*
D03*
X537000Y718500D02*
D03*
X427000Y1048500D02*
D03*
X549342Y768157D02*
D03*
X549469Y776031D02*
D03*
X535500Y772000D02*
D03*
X467531Y776031D02*
D03*
X476087Y791345D02*
D03*
X474000Y784500D02*
D03*
X511500Y785500D02*
D03*
X421500Y1046500D02*
D03*
X224342Y816402D02*
D03*
X226842Y804402D02*
D03*
X243342Y792402D02*
D03*
X233500Y663000D02*
D03*
X278000Y624500D02*
D03*
X265000Y774000D02*
D03*
X245500Y772500D02*
D03*
X251000Y663000D02*
D03*
X413000Y813500D02*
D03*
X578000Y762000D02*
D03*
X515000Y806500D02*
D03*
X527500D02*
D03*
X541000Y787500D02*
D03*
X397000Y721000D02*
D03*
X437000Y679000D02*
D03*
X531500Y682000D02*
D03*
X232000Y654500D02*
D03*
X221000Y592000D02*
D03*
X382000Y657000D02*
D03*
X337000Y624500D02*
D03*
X318000Y627000D02*
D03*
X320000Y635000D02*
D03*
X249000Y643500D02*
D03*
X318500Y599500D02*
D03*
X584000Y678500D02*
D03*
X348000Y818000D02*
D03*
X401500Y650500D02*
D03*
X343500Y613500D02*
D03*
X387500Y877500D02*
D03*
X397000Y882000D02*
D03*
X408500Y901500D02*
D03*
X395000Y862000D02*
D03*
X410000Y872500D02*
D03*
X397000Y845500D02*
D03*
X411971D02*
D03*
X408500Y833500D02*
D03*
X408000Y857000D02*
D03*
X386500Y854000D02*
D03*
X470500Y906500D02*
D03*
X480500Y885000D02*
D03*
X524000Y837500D02*
D03*
X528500Y819000D02*
D03*
X538500Y833500D02*
D03*
X554000Y813500D02*
D03*
X564000Y797000D02*
D03*
X523000Y881000D02*
D03*
X533500Y871500D02*
D03*
X541500Y865500D02*
D03*
X510500Y897000D02*
D03*
X483000Y919500D02*
D03*
X520500Y854000D02*
D03*
X459500Y806500D02*
D03*
X476000Y817500D02*
D03*
X470500Y806000D02*
D03*
X472500Y831000D02*
D03*
X477500Y871500D02*
D03*
X453000Y910000D02*
D03*
X577500Y817500D02*
D03*
X579000Y805000D02*
D03*
X483000Y613000D02*
D03*
X507500Y612500D02*
D03*
X223492Y913984D02*
D03*
X241992Y909984D02*
D03*
X223492Y900984D02*
D03*
X243492Y895484D02*
D03*
X222992Y883484D02*
D03*
X257992Y888984D02*
D03*
X215992Y865484D02*
D03*
X220492Y850984D02*
D03*
X264500Y902500D02*
D03*
X303492Y763984D02*
D03*
X319992Y760484D02*
D03*
X338492Y764984D02*
D03*
X365492Y760984D02*
D03*
X281492Y782484D02*
D03*
X287492Y769484D02*
D03*
X218992Y952984D02*
D03*
Y980484D02*
D03*
X217992Y1002984D02*
D03*
X230492Y997984D02*
D03*
X215492Y1031484D02*
D03*
X215992Y1052984D02*
D03*
X227492Y1048484D02*
D03*
X226992Y1030984D02*
D03*
X316000Y1007000D02*
D03*
X297500Y1006000D02*
D03*
X438000Y1072000D02*
D03*
X350992Y1142484D02*
D03*
X459000Y1057500D02*
D03*
X382000Y1065500D02*
D03*
X405000Y1070000D02*
D03*
X594992Y628484D02*
D03*
X595992Y611484D02*
D03*
X569992Y615984D02*
D03*
X559492Y606484D02*
D03*
X458492Y618984D02*
D03*
X507992Y623984D02*
D03*
X392500Y812500D02*
D03*
M02*
