G04 #@! TF.GenerationSoftware,KiCad,Pcbnew,7.0.10-7.0.10~ubuntu20.04.1*
G04 #@! TF.CreationDate,2024-02-22T17:14:00-03:00*
G04 #@! TF.ProjectId,FluOpti_V3.0,466c754f-7074-4695-9f56-332e302e6b69,rev?*
G04 #@! TF.SameCoordinates,Original*
G04 #@! TF.FileFunction,Soldermask,Top*
G04 #@! TF.FilePolarity,Negative*
%FSLAX46Y46*%
G04 Gerber Fmt 4.6, Leading zero omitted, Abs format (unit mm)*
G04 Created by KiCad (PCBNEW 7.0.10-7.0.10~ubuntu20.04.1) date 2024-02-22 17:14:00*
%MOMM*%
%LPD*%
G01*
G04 APERTURE LIST*
G04 Aperture macros list*
%AMRoundRect*
0 Rectangle with rounded corners*
0 $1 Rounding radius*
0 $2 $3 $4 $5 $6 $7 $8 $9 X,Y pos of 4 corners*
0 Add a 4 corners polygon primitive as box body*
4,1,4,$2,$3,$4,$5,$6,$7,$8,$9,$2,$3,0*
0 Add four circle primitives for the rounded corners*
1,1,$1+$1,$2,$3*
1,1,$1+$1,$4,$5*
1,1,$1+$1,$6,$7*
1,1,$1+$1,$8,$9*
0 Add four rect primitives between the rounded corners*
20,1,$1+$1,$2,$3,$4,$5,0*
20,1,$1+$1,$4,$5,$6,$7,0*
20,1,$1+$1,$6,$7,$8,$9,0*
20,1,$1+$1,$8,$9,$2,$3,0*%
%AMFreePoly0*
4,1,19,0.550000,-0.750000,0.000000,-0.750000,0.000000,-0.744911,-0.071157,-0.744911,-0.207708,-0.704816,-0.327430,-0.627875,-0.420627,-0.520320,-0.479746,-0.390866,-0.500000,-0.250000,-0.500000,0.250000,-0.479746,0.390866,-0.420627,0.520320,-0.327430,0.627875,-0.207708,0.704816,-0.071157,0.744911,0.000000,0.744911,0.000000,0.750000,0.550000,0.750000,0.550000,-0.750000,0.550000,-0.750000,
$1*%
%AMFreePoly1*
4,1,19,0.000000,0.744911,0.071157,0.744911,0.207708,0.704816,0.327430,0.627875,0.420627,0.520320,0.479746,0.390866,0.500000,0.250000,0.500000,-0.250000,0.479746,-0.390866,0.420627,-0.520320,0.327430,-0.627875,0.207708,-0.704816,0.071157,-0.744911,0.000000,-0.744911,0.000000,-0.750000,-0.550000,-0.750000,-0.550000,0.750000,0.000000,0.750000,0.000000,0.744911,0.000000,0.744911,
$1*%
%AMFreePoly2*
4,1,19,0.500000,-0.750000,0.000000,-0.750000,0.000000,-0.744911,-0.071157,-0.744911,-0.207708,-0.704816,-0.327430,-0.627875,-0.420627,-0.520320,-0.479746,-0.390866,-0.500000,-0.250000,-0.500000,0.250000,-0.479746,0.390866,-0.420627,0.520320,-0.327430,0.627875,-0.207708,0.704816,-0.071157,0.744911,0.000000,0.744911,0.000000,0.750000,0.500000,0.750000,0.500000,-0.750000,0.500000,-0.750000,
$1*%
%AMFreePoly3*
4,1,19,0.000000,0.744911,0.071157,0.744911,0.207708,0.704816,0.327430,0.627875,0.420627,0.520320,0.479746,0.390866,0.500000,0.250000,0.500000,-0.250000,0.479746,-0.390866,0.420627,-0.520320,0.327430,-0.627875,0.207708,-0.704816,0.071157,-0.744911,0.000000,-0.744911,0.000000,-0.750000,-0.500000,-0.750000,-0.500000,0.750000,0.000000,0.750000,0.000000,0.744911,0.000000,0.744911,
$1*%
G04 Aperture macros list end*
%ADD10C,0.100000*%
%ADD11RoundRect,0.150000X-0.587500X-0.150000X0.587500X-0.150000X0.587500X0.150000X-0.587500X0.150000X0*%
%ADD12C,1.800000*%
%ADD13R,1.700000X1.700000*%
%ADD14O,1.700000X1.700000*%
%ADD15C,3.200000*%
%ADD16O,2.000000X4.000000*%
%ADD17RoundRect,0.250000X1.000000X-1.950000X1.000000X1.950000X-1.000000X1.950000X-1.000000X-1.950000X0*%
%ADD18RoundRect,0.250000X-0.250000X-0.475000X0.250000X-0.475000X0.250000X0.475000X-0.250000X0.475000X0*%
%ADD19RoundRect,0.225000X-0.250000X0.225000X-0.250000X-0.225000X0.250000X-0.225000X0.250000X0.225000X0*%
%ADD20RoundRect,0.218750X0.256250X-0.218750X0.256250X0.218750X-0.256250X0.218750X-0.256250X-0.218750X0*%
%ADD21RoundRect,0.250000X0.300000X-2.050000X0.300000X2.050000X-0.300000X2.050000X-0.300000X-2.050000X0*%
%ADD22R,5.400000X2.900000*%
%ADD23RoundRect,0.250000X0.750000X-0.600000X0.750000X0.600000X-0.750000X0.600000X-0.750000X-0.600000X0*%
%ADD24O,2.000000X1.700000*%
%ADD25R,2.000000X1.500000*%
%ADD26R,2.000000X3.800000*%
%ADD27RoundRect,0.200000X0.275000X-0.200000X0.275000X0.200000X-0.275000X0.200000X-0.275000X-0.200000X0*%
%ADD28FreePoly0,90.000000*%
%ADD29R,1.500000X1.000000*%
%ADD30FreePoly1,90.000000*%
%ADD31RoundRect,0.250000X0.250000X0.475000X-0.250000X0.475000X-0.250000X-0.475000X0.250000X-0.475000X0*%
%ADD32RoundRect,0.218750X-0.256250X0.218750X-0.256250X-0.218750X0.256250X-0.218750X0.256250X0.218750X0*%
%ADD33RoundRect,0.200000X-0.275000X0.200000X-0.275000X-0.200000X0.275000X-0.200000X0.275000X0.200000X0*%
%ADD34RoundRect,0.200000X-0.200000X-0.275000X0.200000X-0.275000X0.200000X0.275000X-0.200000X0.275000X0*%
%ADD35RoundRect,0.225000X0.225000X0.250000X-0.225000X0.250000X-0.225000X-0.250000X0.225000X-0.250000X0*%
%ADD36RoundRect,0.250000X0.475000X-0.250000X0.475000X0.250000X-0.475000X0.250000X-0.475000X-0.250000X0*%
%ADD37RoundRect,0.225000X-0.225000X-0.250000X0.225000X-0.250000X0.225000X0.250000X-0.225000X0.250000X0*%
%ADD38RoundRect,0.250000X0.650000X-1.000000X0.650000X1.000000X-0.650000X1.000000X-0.650000X-1.000000X0*%
%ADD39RoundRect,0.250000X-0.625000X0.375000X-0.625000X-0.375000X0.625000X-0.375000X0.625000X0.375000X0*%
%ADD40RoundRect,0.150000X0.150000X-0.825000X0.150000X0.825000X-0.150000X0.825000X-0.150000X-0.825000X0*%
%ADD41RoundRect,0.150000X0.150000X-0.512500X0.150000X0.512500X-0.150000X0.512500X-0.150000X-0.512500X0*%
%ADD42RoundRect,0.200000X0.900000X0.200000X-0.900000X0.200000X-0.900000X-0.200000X0.900000X-0.200000X0*%
%ADD43RoundRect,0.249997X2.950003X2.650003X-2.950003X2.650003X-2.950003X-2.650003X2.950003X-2.650003X0*%
%ADD44R,0.250000X1.100000*%
%ADD45C,1.000000*%
%ADD46O,1.800000X1.000000*%
%ADD47RoundRect,0.250000X-0.475000X0.250000X-0.475000X-0.250000X0.475000X-0.250000X0.475000X0.250000X0*%
%ADD48RoundRect,0.200000X0.200000X0.275000X-0.200000X0.275000X-0.200000X-0.275000X0.200000X-0.275000X0*%
%ADD49R,1.500000X0.400000*%
%ADD50R,0.900000X1.250000*%
%ADD51R,3.500000X2.950000*%
%ADD52RoundRect,0.100000X-0.637500X-0.100000X0.637500X-0.100000X0.637500X0.100000X-0.637500X0.100000X0*%
%ADD53RoundRect,0.250000X-1.500000X-0.550000X1.500000X-0.550000X1.500000X0.550000X-1.500000X0.550000X0*%
%ADD54FreePoly2,180.000000*%
%ADD55FreePoly3,180.000000*%
%ADD56RoundRect,0.150000X-0.825000X-0.150000X0.825000X-0.150000X0.825000X0.150000X-0.825000X0.150000X0*%
%ADD57RoundRect,0.105000X0.105000X0.205000X-0.105000X0.205000X-0.105000X-0.205000X0.105000X-0.205000X0*%
%ADD58RoundRect,0.105000X0.105000X0.220000X-0.105000X0.220000X-0.105000X-0.220000X0.105000X-0.220000X0*%
%ADD59O,2.200000X1.500000*%
%ADD60O,2.400000X1.500000*%
%ADD61R,0.400000X1.350000*%
%ADD62O,0.890000X1.550000*%
%ADD63R,1.200000X1.550000*%
%ADD64O,1.250000X0.950000*%
%ADD65R,1.500000X1.550000*%
%ADD66FreePoly2,270.000000*%
%ADD67FreePoly3,270.000000*%
%ADD68R,1.500000X0.900000*%
%ADD69R,0.900000X1.500000*%
%ADD70R,4.200000X4.200000*%
G04 APERTURE END LIST*
D10*
X96086000Y-119048000D02*
X106939000Y-119048000D01*
X106939000Y-119048000D02*
X106939000Y-109667000D01*
X106939000Y-109667000D02*
X96086000Y-109667000D01*
X96086000Y-109667000D02*
X96086000Y-119048000D01*
G36*
X96086000Y-119048000D02*
G01*
X106939000Y-119048000D01*
X106939000Y-109667000D01*
X96086000Y-109667000D01*
X96086000Y-119048000D01*
G37*
X82586000Y-119048000D02*
X93439000Y-119048000D01*
X93439000Y-119048000D02*
X93439000Y-109667000D01*
X93439000Y-109667000D02*
X82586000Y-109667000D01*
X82586000Y-109667000D02*
X82586000Y-119048000D01*
G36*
X82586000Y-119048000D02*
G01*
X93439000Y-119048000D01*
X93439000Y-109667000D01*
X82586000Y-109667000D01*
X82586000Y-119048000D01*
G37*
X109586000Y-119048000D02*
X120439000Y-119048000D01*
X120439000Y-119048000D02*
X120439000Y-109667000D01*
X120439000Y-109667000D02*
X109586000Y-109667000D01*
X109586000Y-109667000D02*
X109586000Y-119048000D01*
G36*
X109586000Y-119048000D02*
G01*
X120439000Y-119048000D01*
X120439000Y-109667000D01*
X109586000Y-109667000D01*
X109586000Y-119048000D01*
G37*
X148586000Y-119048000D02*
X159439000Y-119048000D01*
X159439000Y-119048000D02*
X159439000Y-109667000D01*
X159439000Y-109667000D02*
X148586000Y-109667000D01*
X148586000Y-109667000D02*
X148586000Y-119048000D01*
G36*
X148586000Y-119048000D02*
G01*
X159439000Y-119048000D01*
X159439000Y-109667000D01*
X148586000Y-109667000D01*
X148586000Y-119048000D01*
G37*
X135616000Y-119048000D02*
X146469000Y-119048000D01*
X146469000Y-119048000D02*
X146469000Y-109667000D01*
X146469000Y-109667000D02*
X135616000Y-109667000D01*
X135616000Y-109667000D02*
X135616000Y-119048000D01*
G36*
X135616000Y-119048000D02*
G01*
X146469000Y-119048000D01*
X146469000Y-109667000D01*
X135616000Y-109667000D01*
X135616000Y-119048000D01*
G37*
X122586000Y-119048000D02*
X133439000Y-119048000D01*
X133439000Y-119048000D02*
X133439000Y-109667000D01*
X133439000Y-109667000D02*
X122586000Y-109667000D01*
X122586000Y-109667000D02*
X122586000Y-119048000D01*
G36*
X122586000Y-119048000D02*
G01*
X133439000Y-119048000D01*
X133439000Y-109667000D01*
X122586000Y-109667000D01*
X122586000Y-119048000D01*
G37*
D11*
X146000000Y-70050000D03*
X146000000Y-71950000D03*
X147875000Y-71000000D03*
D12*
X82850000Y-84750000D03*
X82850000Y-87250000D03*
X82850000Y-89750000D03*
X82850000Y-92250000D03*
D13*
X123175000Y-129975000D03*
D14*
X123175000Y-132515000D03*
X123175000Y-135055000D03*
D15*
X177000000Y-53000000D03*
D16*
X95500000Y-146000000D03*
X90500000Y-146000000D03*
D17*
X173460000Y-117182500D03*
X173460000Y-108782500D03*
D18*
X172310000Y-95720000D03*
X174210000Y-95720000D03*
D19*
X130530000Y-96935000D03*
X130530000Y-98485000D03*
D20*
X113270000Y-82057500D03*
X113270000Y-80482500D03*
D21*
X99000000Y-123500000D03*
X104080000Y-123500000D03*
D22*
X154320000Y-84400000D03*
X154320000Y-94300000D03*
D23*
X82960000Y-68170000D03*
D24*
X82960000Y-65670000D03*
D25*
X118800000Y-134800000D03*
X118800000Y-132500000D03*
D26*
X112500000Y-132500000D03*
D25*
X118800000Y-130200000D03*
D27*
X120610000Y-89665000D03*
X120610000Y-88015000D03*
D21*
X85500000Y-123500000D03*
X90580000Y-123500000D03*
D13*
X138175000Y-129975000D03*
D14*
X138175000Y-132515000D03*
X138175000Y-135055000D03*
D27*
X101680000Y-66840000D03*
X101680000Y-65190000D03*
D28*
X149500000Y-102000000D03*
D29*
X149500000Y-100700000D03*
D30*
X149500000Y-99400000D03*
D31*
X114450000Y-100830000D03*
X112550000Y-100830000D03*
D32*
X161990000Y-67312500D03*
X161990000Y-68887500D03*
D33*
X90460000Y-76110000D03*
X90460000Y-77760000D03*
D34*
X167695000Y-129573332D03*
X169345000Y-129573332D03*
D35*
X103825000Y-59980000D03*
X102275000Y-59980000D03*
D36*
X177940000Y-89550000D03*
X177940000Y-87650000D03*
D37*
X93185000Y-70920000D03*
X94735000Y-70920000D03*
D16*
X159450000Y-53800000D03*
X164450000Y-53800000D03*
D33*
X103330000Y-79030000D03*
X103330000Y-80680000D03*
D16*
X139500000Y-146000000D03*
X134500000Y-146000000D03*
D34*
X167695000Y-131330000D03*
X169345000Y-131330000D03*
D38*
X163480000Y-87700000D03*
X163480000Y-83700000D03*
D39*
X154890000Y-58980000D03*
X154890000Y-61780000D03*
D19*
X100280000Y-79070000D03*
X100280000Y-80620000D03*
D16*
X164870000Y-146220000D03*
X159870000Y-146220000D03*
D40*
X132595000Y-102475000D03*
X133865000Y-102475000D03*
X135135000Y-102475000D03*
X136405000Y-102475000D03*
X136405000Y-97525000D03*
X135135000Y-97525000D03*
X133865000Y-97525000D03*
X132595000Y-97525000D03*
D37*
X94825000Y-100800000D03*
X96375000Y-100800000D03*
D13*
X155850000Y-66295000D03*
D14*
X153310000Y-66295000D03*
D41*
X173900000Y-85057500D03*
X174850000Y-85057500D03*
X175800000Y-85057500D03*
X175800000Y-82782500D03*
X174850000Y-82782500D03*
X173900000Y-82782500D03*
D42*
X164220000Y-103630000D03*
X164220000Y-102490000D03*
X164220000Y-101350000D03*
X164220000Y-100210000D03*
X164220000Y-99070000D03*
D43*
X157920000Y-101350000D03*
D25*
X103800000Y-134800000D03*
X103800000Y-132500000D03*
D26*
X97500000Y-132500000D03*
D25*
X103800000Y-130200000D03*
D38*
X165090000Y-114517500D03*
X165090000Y-110517500D03*
D44*
X102460000Y-70770000D03*
X101960000Y-70770000D03*
X101460000Y-70770000D03*
X100960000Y-70770000D03*
X100460000Y-70770000D03*
X100460000Y-75070000D03*
X100960000Y-75070000D03*
X101460000Y-75070000D03*
X101960000Y-75070000D03*
X102460000Y-75070000D03*
D34*
X167695000Y-127816666D03*
X169345000Y-127816666D03*
D25*
X148800000Y-134800000D03*
X148800000Y-132500000D03*
D26*
X142500000Y-132500000D03*
D25*
X148800000Y-130200000D03*
D45*
X174930000Y-135858000D03*
X174930000Y-131858000D03*
X174930000Y-129858000D03*
X174930000Y-127858000D03*
D46*
X174803000Y-137858000D03*
X174930000Y-123858000D03*
D25*
X133800000Y-134800000D03*
X133800000Y-132500000D03*
D26*
X127500000Y-132500000D03*
D25*
X133800000Y-130200000D03*
D15*
X83000000Y-147000000D03*
D47*
X152510000Y-70120000D03*
X152510000Y-72020000D03*
D32*
X164060000Y-67375000D03*
X164060000Y-68950000D03*
D19*
X137510000Y-70025000D03*
X137510000Y-71575000D03*
D48*
X128225000Y-81405000D03*
X126575000Y-81405000D03*
D33*
X101840000Y-79040000D03*
X101840000Y-80690000D03*
X174200000Y-87785000D03*
X174200000Y-89435000D03*
D48*
X128225000Y-86300000D03*
X126575000Y-86300000D03*
D27*
X103260000Y-66840000D03*
X103260000Y-65190000D03*
D49*
X126050000Y-83260000D03*
X126050000Y-83910000D03*
X126050000Y-84560000D03*
X128710000Y-84560000D03*
X128710000Y-83910000D03*
X128710000Y-83260000D03*
D21*
X112500000Y-123500000D03*
X117580000Y-123500000D03*
D13*
X149010000Y-76980000D03*
D14*
X146470000Y-76980000D03*
D47*
X178000000Y-82910000D03*
X178000000Y-84810000D03*
D37*
X93185000Y-73920000D03*
X94735000Y-73920000D03*
D48*
X110335000Y-95150000D03*
X108685000Y-95150000D03*
D50*
X133370000Y-62475000D03*
X133370000Y-58625000D03*
X131870000Y-62475000D03*
X131870000Y-58625000D03*
D16*
X127640000Y-145980000D03*
X122640000Y-145980000D03*
D39*
X152390000Y-58930000D03*
X152390000Y-61730000D03*
D51*
X168980000Y-82975000D03*
X168980000Y-88425000D03*
D48*
X169345000Y-126060000D03*
X167695000Y-126060000D03*
D36*
X158340000Y-72180000D03*
X158340000Y-70280000D03*
D50*
X138800000Y-62650000D03*
X138800000Y-58800000D03*
X137300000Y-62650000D03*
X137300000Y-58800000D03*
D21*
X151500000Y-123500000D03*
X156580000Y-123500000D03*
D34*
X93135000Y-66420000D03*
X94785000Y-66420000D03*
X93135000Y-69420000D03*
X94785000Y-69420000D03*
D52*
X115357500Y-92315000D03*
X115357500Y-92965000D03*
X115357500Y-93615000D03*
X115357500Y-94265000D03*
X115357500Y-94915000D03*
X115357500Y-95565000D03*
X115357500Y-96215000D03*
X115357500Y-96865000D03*
X121082500Y-96865000D03*
X121082500Y-96215000D03*
X121082500Y-95565000D03*
X121082500Y-94915000D03*
X121082500Y-94265000D03*
X121082500Y-93615000D03*
X121082500Y-92965000D03*
X121082500Y-92315000D03*
D35*
X123395000Y-101640000D03*
X121845000Y-101640000D03*
D27*
X100100000Y-66840000D03*
X100100000Y-65190000D03*
D53*
X170920000Y-100820000D03*
X176320000Y-100820000D03*
D27*
X175970000Y-89435000D03*
X175970000Y-87785000D03*
D25*
X88800000Y-134800000D03*
X88800000Y-132500000D03*
D26*
X82500000Y-132500000D03*
D25*
X88800000Y-130200000D03*
D54*
X110330000Y-92965000D03*
D55*
X109030000Y-92965000D03*
D25*
X158950000Y-134800000D03*
X158950000Y-132500000D03*
D26*
X152650000Y-132500000D03*
D25*
X158950000Y-130200000D03*
D34*
X108685000Y-90780000D03*
X110335000Y-90780000D03*
D35*
X114415000Y-98830000D03*
X112865000Y-98830000D03*
D13*
X93150000Y-130000000D03*
D14*
X93150000Y-132540000D03*
X93150000Y-135080000D03*
D56*
X90025000Y-103095000D03*
X90025000Y-104365000D03*
X90025000Y-105635000D03*
X90025000Y-106905000D03*
X94975000Y-106905000D03*
X94975000Y-105635000D03*
X94975000Y-104365000D03*
X94975000Y-103095000D03*
D37*
X93185000Y-76920000D03*
X94735000Y-76920000D03*
D16*
X105630000Y-145990000D03*
X100630000Y-145990000D03*
X117500000Y-146000000D03*
X112500000Y-146000000D03*
D27*
X115270000Y-82095000D03*
X115270000Y-80445000D03*
D34*
X93135000Y-72420000D03*
X94785000Y-72420000D03*
D57*
X154430000Y-72320000D03*
X155380000Y-72320000D03*
X156330000Y-72320000D03*
D58*
X156330000Y-70120000D03*
D57*
X154430000Y-70120000D03*
D27*
X164060000Y-72525000D03*
X164060000Y-70875000D03*
X135940000Y-71625000D03*
X135940000Y-69975000D03*
D33*
X90460000Y-68920000D03*
X90460000Y-70570000D03*
D59*
X173540000Y-65420000D03*
X173540000Y-68420000D03*
X173540000Y-71420000D03*
D60*
X173340000Y-62020000D03*
X173340000Y-74820000D03*
D31*
X166120000Y-118207500D03*
X164220000Y-118207500D03*
D21*
X138530000Y-123500000D03*
X143610000Y-123500000D03*
D33*
X161990000Y-70775000D03*
X161990000Y-72425000D03*
D56*
X118525000Y-103595000D03*
X118525000Y-104865000D03*
X118525000Y-106135000D03*
X118525000Y-107405000D03*
X123475000Y-107405000D03*
X123475000Y-106135000D03*
X123475000Y-104865000D03*
X123475000Y-103595000D03*
D21*
X125500000Y-123500000D03*
X130580000Y-123500000D03*
D27*
X133430000Y-71655000D03*
X133430000Y-70005000D03*
D38*
X142500000Y-71500000D03*
X142500000Y-67500000D03*
D34*
X93135000Y-75420000D03*
X94785000Y-75420000D03*
D31*
X104050000Y-57980000D03*
X102150000Y-57980000D03*
D19*
X131860000Y-70055000D03*
X131860000Y-71605000D03*
D27*
X122340000Y-89645000D03*
X122340000Y-87995000D03*
D56*
X134575000Y-78465000D03*
X134575000Y-79735000D03*
X134575000Y-81005000D03*
X134575000Y-82275000D03*
X134575000Y-83545000D03*
X134575000Y-84815000D03*
X134575000Y-86085000D03*
X134575000Y-87355000D03*
X139525000Y-87355000D03*
X139525000Y-86085000D03*
X139525000Y-84815000D03*
X139525000Y-83545000D03*
X139525000Y-82275000D03*
X139525000Y-81005000D03*
X139525000Y-79735000D03*
X139525000Y-78465000D03*
D13*
X108000000Y-130000000D03*
D14*
X108000000Y-132540000D03*
X108000000Y-135080000D03*
D34*
X145850000Y-67500000D03*
X147500000Y-67500000D03*
D61*
X149230000Y-55380000D03*
X148580000Y-55380000D03*
X147930000Y-55380000D03*
X147280000Y-55380000D03*
X146630000Y-55380000D03*
D62*
X151430000Y-52680000D03*
D63*
X150830000Y-52680000D03*
D64*
X150430000Y-55380000D03*
D65*
X148930000Y-52680000D03*
X146930000Y-52680000D03*
D64*
X145430000Y-55380000D03*
D63*
X145030000Y-52680000D03*
D62*
X144430000Y-52680000D03*
D37*
X93185000Y-67920000D03*
X94735000Y-67920000D03*
D66*
X105360000Y-65195000D03*
D67*
X105360000Y-66495000D03*
D15*
X83000000Y-53000000D03*
X177000000Y-147000000D03*
D16*
X149640000Y-145980000D03*
X144640000Y-145980000D03*
D68*
X108820000Y-57690000D03*
X108820000Y-58960000D03*
X108820000Y-60230000D03*
X108820000Y-61500000D03*
X108820000Y-62770000D03*
X108820000Y-64040000D03*
X108820000Y-65310000D03*
X108820000Y-66580000D03*
X108820000Y-67850000D03*
X108820000Y-69120000D03*
X108820000Y-70390000D03*
X108820000Y-71660000D03*
X108820000Y-72930000D03*
X108820000Y-74200000D03*
D69*
X111860000Y-75450000D03*
X113130000Y-75450000D03*
X114400000Y-75450000D03*
X115670000Y-75450000D03*
X116940000Y-75450000D03*
X118210000Y-75450000D03*
X119480000Y-75450000D03*
X120750000Y-75450000D03*
X122020000Y-75450000D03*
X123290000Y-75450000D03*
D68*
X126320000Y-74200000D03*
X126320000Y-72930000D03*
X126320000Y-71660000D03*
X126320000Y-70390000D03*
X126320000Y-69120000D03*
X126320000Y-67850000D03*
X126320000Y-66580000D03*
X126320000Y-65310000D03*
X126320000Y-64040000D03*
X126320000Y-62770000D03*
X126320000Y-61500000D03*
X126320000Y-60230000D03*
X126320000Y-58960000D03*
X126320000Y-57690000D03*
D70*
X116890000Y-65030000D03*
D33*
X166110000Y-70775000D03*
X166110000Y-72425000D03*
D23*
X82960000Y-76920000D03*
D24*
X82960000Y-74420000D03*
D32*
X166110000Y-67375000D03*
X166110000Y-68950000D03*
D37*
X139220000Y-76420000D03*
X140770000Y-76420000D03*
M02*
