M48
; DRILL file {KiCad 7.0.10-7.0.10~ubuntu20.04.1} date jue 22 feb 2024 17:14:07
; FORMAT={-:-/ absolute / metric / decimal}
; #@! TF.CreationDate,2024-02-22T17:14:07-03:00
; #@! TF.GenerationSoftware,Kicad,Pcbnew,7.0.10-7.0.10~ubuntu20.04.1
; #@! TF.FileFunction,Plated,1,2,PTH
FMAT,2
METRIC
; #@! TA.AperFunction,Plated,PTH,ViaDrill
T1C0.300
; #@! TA.AperFunction,Plated,PTH,ComponentDrill
T2C0.500
; #@! TA.AperFunction,Plated,PTH,ComponentDrill
T3C0.550
; #@! TA.AperFunction,Plated,PTH,ComponentDrill
T4C1.000
; #@! TA.AperFunction,Plated,PTH,ComponentDrill
T5C1.200
%
G90
G05
T1
X83.32Y-60.29
X86.13Y-120.7
X87.86Y-83.36
X88.44Y-107.13
X89.26Y-71.07
X89.62Y-52.79
X90.06Y-127.335
X90.49Y-78.81
X94.18Y-101.95
X95.66Y-70.9
X95.71Y-76.85
X95.73Y-73.96
X95.91Y-68.68
X96.7Y-101.9
X98.87Y-64.68
X98.99Y-79.37
X99.4Y-120.59
X101.28Y-77.68
X101.56Y-72.03
X102.69Y-73.24
X103.22Y-64.26
X105.05Y-59.96
X105.23Y-82.83
X107.9Y-90.17
X107.92Y-95.73
X108.7Y-104.0
X112.11Y-82.72
X113.84Y-124.0
X113.87Y-97.48
X114.3Y-139.2
X116.38Y-101.22
X116.47Y-107.43
X116.81Y-93.48
X118.22Y-94.59
X118.6Y-89.84
X119.62Y-93.73
X120.78Y-101.33
X120.97Y-91.08
X121.38Y-65.08
X122.5Y-72.96
X123.87Y-88.23
X124.43Y-102.62
X124.45Y-61.97
X125.18Y-82.52
X126.78Y-122.95
X127.38Y-95.85
X128.13Y-92.43
X128.16Y-63.11
X129.01Y-64.93
X129.625Y-138.825
X129.64Y-99.0
X129.72Y-85.87
X130.23Y-81.48
X130.9Y-79.17
X131.52Y-72.63
X131.63Y-78.39
X132.6Y-98.91
X132.74Y-82.2
X132.9Y-78.47
X133.36Y-72.83
X135.5Y-89.5
X135.9Y-72.83
X136.63Y-103.89
X137.74Y-72.59
X139.36Y-106.21
X139.92Y-122.82
X141.2Y-81.06
X141.21Y-78.31
X141.46Y-82.27
X142.38Y-76.72
X145.8Y-139.325
X146.23Y-56.81
X147.29Y-104.36
X148.44Y-67.49
X148.7Y-72.87
X151.5Y-101.0
X152.1Y-73.24
X152.56Y-123.87
X153.85Y-128.25
X155.56Y-73.13
X157.36Y-61.82
X161.0Y-94.1
X161.01Y-72.17
X161.61Y-66.49
X162.5Y-102.5
X162.5Y-109.5
X163.79Y-66.53
X164.96Y-73.76
X165.5Y-88.5
X165.72Y-98.58
X165.75Y-66.56
X168.29Y-96.21
X170.59Y-125.97
X172.82Y-89.76
X174.66Y-86.45
X177.33Y-86.32
T2
X174.93Y-127.858
X174.93Y-129.858
X174.93Y-131.858
X174.93Y-135.858
T4
X82.85Y-84.75
X82.85Y-87.25
X82.85Y-89.75
X82.85Y-92.25
X82.96Y-65.67
X82.96Y-68.17
X82.96Y-74.42
X82.96Y-76.92
X93.15Y-130.0
X93.15Y-132.54
X93.15Y-135.08
X108.0Y-130.0
X108.0Y-132.54
X108.0Y-135.08
X123.175Y-129.975
X123.175Y-132.515
X123.175Y-135.055
X138.175Y-129.975
X138.175Y-132.515
X138.175Y-135.055
X146.47Y-76.98
X149.01Y-76.98
X153.31Y-66.295
X155.85Y-66.295
X173.34Y-74.82
X173.54Y-65.42
X173.54Y-68.42
X173.54Y-71.42
T5
X90.5Y-146.0
X95.5Y-146.0
X100.63Y-145.99
X105.63Y-145.99
X112.5Y-146.0
X117.5Y-146.0
X122.64Y-145.98
X127.64Y-145.98
X134.5Y-146.0
X139.5Y-146.0
X144.64Y-145.98
X149.64Y-145.98
X159.45Y-53.8
X159.87Y-146.22
X164.45Y-53.8
X164.87Y-146.22
X173.34Y-62.02
T2
X144.43Y-53.005G85X144.43Y-52.355
G05
X151.43Y-53.005G85X151.43Y-52.355
G05
X174.403Y-137.858G85X175.203Y-137.858
G05
X174.53Y-123.858G85X175.33Y-123.858
G05
T3
X145.58Y-55.38G85X145.28Y-55.38
G05
X150.58Y-55.38G85X150.28Y-55.38
G05
M30
