G04 #@! TF.GenerationSoftware,KiCad,Pcbnew,7.0.10-7.0.10~ubuntu20.04.1*
G04 #@! TF.CreationDate,2024-02-22T17:13:58-03:00*
G04 #@! TF.ProjectId,FluOpti_V3.0,466c754f-7074-4695-9f56-332e302e6b69,rev?*
G04 #@! TF.SameCoordinates,Original*
G04 #@! TF.FileFunction,Paste,Top*
G04 #@! TF.FilePolarity,Positive*
%FSLAX46Y46*%
G04 Gerber Fmt 4.6, Leading zero omitted, Abs format (unit mm)*
G04 Created by KiCad (PCBNEW 7.0.10-7.0.10~ubuntu20.04.1) date 2024-02-22 17:13:58*
%MOMM*%
%LPD*%
G01*
G04 APERTURE LIST*
G04 Aperture macros list*
%AMRoundRect*
0 Rectangle with rounded corners*
0 $1 Rounding radius*
0 $2 $3 $4 $5 $6 $7 $8 $9 X,Y pos of 4 corners*
0 Add a 4 corners polygon primitive as box body*
4,1,4,$2,$3,$4,$5,$6,$7,$8,$9,$2,$3,0*
0 Add four circle primitives for the rounded corners*
1,1,$1+$1,$2,$3*
1,1,$1+$1,$4,$5*
1,1,$1+$1,$6,$7*
1,1,$1+$1,$8,$9*
0 Add four rect primitives between the rounded corners*
20,1,$1+$1,$2,$3,$4,$5,0*
20,1,$1+$1,$4,$5,$6,$7,0*
20,1,$1+$1,$6,$7,$8,$9,0*
20,1,$1+$1,$8,$9,$2,$3,0*%
G04 Aperture macros list end*
%ADD10C,0.100000*%
%ADD11RoundRect,0.150000X-0.587500X-0.150000X0.587500X-0.150000X0.587500X0.150000X-0.587500X0.150000X0*%
%ADD12RoundRect,0.250000X1.000000X-1.950000X1.000000X1.950000X-1.000000X1.950000X-1.000000X-1.950000X0*%
%ADD13RoundRect,0.250000X-0.250000X-0.475000X0.250000X-0.475000X0.250000X0.475000X-0.250000X0.475000X0*%
%ADD14RoundRect,0.225000X-0.250000X0.225000X-0.250000X-0.225000X0.250000X-0.225000X0.250000X0.225000X0*%
%ADD15RoundRect,0.218750X0.256250X-0.218750X0.256250X0.218750X-0.256250X0.218750X-0.256250X-0.218750X0*%
%ADD16RoundRect,0.250000X0.300000X-2.050000X0.300000X2.050000X-0.300000X2.050000X-0.300000X-2.050000X0*%
%ADD17R,5.400000X2.900000*%
%ADD18R,2.000000X1.500000*%
%ADD19R,2.000000X3.800000*%
%ADD20RoundRect,0.200000X0.275000X-0.200000X0.275000X0.200000X-0.275000X0.200000X-0.275000X-0.200000X0*%
%ADD21RoundRect,0.250000X0.250000X0.475000X-0.250000X0.475000X-0.250000X-0.475000X0.250000X-0.475000X0*%
%ADD22RoundRect,0.218750X-0.256250X0.218750X-0.256250X-0.218750X0.256250X-0.218750X0.256250X0.218750X0*%
%ADD23RoundRect,0.200000X-0.275000X0.200000X-0.275000X-0.200000X0.275000X-0.200000X0.275000X0.200000X0*%
%ADD24RoundRect,0.200000X-0.200000X-0.275000X0.200000X-0.275000X0.200000X0.275000X-0.200000X0.275000X0*%
%ADD25RoundRect,0.225000X0.225000X0.250000X-0.225000X0.250000X-0.225000X-0.250000X0.225000X-0.250000X0*%
%ADD26RoundRect,0.250000X0.475000X-0.250000X0.475000X0.250000X-0.475000X0.250000X-0.475000X-0.250000X0*%
%ADD27RoundRect,0.225000X-0.225000X-0.250000X0.225000X-0.250000X0.225000X0.250000X-0.225000X0.250000X0*%
%ADD28RoundRect,0.250000X0.650000X-1.000000X0.650000X1.000000X-0.650000X1.000000X-0.650000X-1.000000X0*%
%ADD29RoundRect,0.250000X-0.625000X0.375000X-0.625000X-0.375000X0.625000X-0.375000X0.625000X0.375000X0*%
%ADD30RoundRect,0.150000X0.150000X-0.825000X0.150000X0.825000X-0.150000X0.825000X-0.150000X-0.825000X0*%
%ADD31RoundRect,0.150000X0.150000X-0.512500X0.150000X0.512500X-0.150000X0.512500X-0.150000X-0.512500X0*%
%ADD32RoundRect,0.200000X0.900000X0.200000X-0.900000X0.200000X-0.900000X-0.200000X0.900000X-0.200000X0*%
%ADD33RoundRect,0.250000X1.275000X1.125000X-1.275000X1.125000X-1.275000X-1.125000X1.275000X-1.125000X0*%
%ADD34R,0.250000X1.100000*%
%ADD35RoundRect,0.250000X-0.475000X0.250000X-0.475000X-0.250000X0.475000X-0.250000X0.475000X0.250000X0*%
%ADD36RoundRect,0.200000X0.200000X0.275000X-0.200000X0.275000X-0.200000X-0.275000X0.200000X-0.275000X0*%
%ADD37R,1.500000X0.400000*%
%ADD38R,0.900000X1.250000*%
%ADD39R,3.500000X2.950000*%
%ADD40RoundRect,0.100000X-0.637500X-0.100000X0.637500X-0.100000X0.637500X0.100000X-0.637500X0.100000X0*%
%ADD41RoundRect,0.250000X-1.500000X-0.550000X1.500000X-0.550000X1.500000X0.550000X-1.500000X0.550000X0*%
%ADD42RoundRect,0.150000X-0.825000X-0.150000X0.825000X-0.150000X0.825000X0.150000X-0.825000X0.150000X0*%
%ADD43RoundRect,0.105000X0.105000X0.205000X-0.105000X0.205000X-0.105000X-0.205000X0.105000X-0.205000X0*%
%ADD44RoundRect,0.105000X0.105000X0.220000X-0.105000X0.220000X-0.105000X-0.220000X0.105000X-0.220000X0*%
%ADD45O,0.890000X1.550000*%
%ADD46O,1.250000X0.950000*%
%ADD47R,0.400000X1.350000*%
%ADD48R,1.200000X1.550000*%
%ADD49R,1.500000X1.550000*%
%ADD50R,1.500000X0.900000*%
%ADD51R,0.900000X1.500000*%
%ADD52R,1.050000X1.050000*%
G04 APERTURE END LIST*
D10*
X96086000Y-119048000D02*
X106939000Y-119048000D01*
X106939000Y-119048000D02*
X106939000Y-109667000D01*
X106939000Y-109667000D02*
X96086000Y-109667000D01*
X96086000Y-109667000D02*
X96086000Y-119048000D01*
G36*
X96086000Y-119048000D02*
G01*
X106939000Y-119048000D01*
X106939000Y-109667000D01*
X96086000Y-109667000D01*
X96086000Y-119048000D01*
G37*
X82586000Y-119048000D02*
X93439000Y-119048000D01*
X93439000Y-119048000D02*
X93439000Y-109667000D01*
X93439000Y-109667000D02*
X82586000Y-109667000D01*
X82586000Y-109667000D02*
X82586000Y-119048000D01*
G36*
X82586000Y-119048000D02*
G01*
X93439000Y-119048000D01*
X93439000Y-109667000D01*
X82586000Y-109667000D01*
X82586000Y-119048000D01*
G37*
X109586000Y-119048000D02*
X120439000Y-119048000D01*
X120439000Y-119048000D02*
X120439000Y-109667000D01*
X120439000Y-109667000D02*
X109586000Y-109667000D01*
X109586000Y-109667000D02*
X109586000Y-119048000D01*
G36*
X109586000Y-119048000D02*
G01*
X120439000Y-119048000D01*
X120439000Y-109667000D01*
X109586000Y-109667000D01*
X109586000Y-119048000D01*
G37*
X148586000Y-119048000D02*
X159439000Y-119048000D01*
X159439000Y-119048000D02*
X159439000Y-109667000D01*
X159439000Y-109667000D02*
X148586000Y-109667000D01*
X148586000Y-109667000D02*
X148586000Y-119048000D01*
G36*
X148586000Y-119048000D02*
G01*
X159439000Y-119048000D01*
X159439000Y-109667000D01*
X148586000Y-109667000D01*
X148586000Y-119048000D01*
G37*
X135616000Y-119048000D02*
X146469000Y-119048000D01*
X146469000Y-119048000D02*
X146469000Y-109667000D01*
X146469000Y-109667000D02*
X135616000Y-109667000D01*
X135616000Y-109667000D02*
X135616000Y-119048000D01*
G36*
X135616000Y-119048000D02*
G01*
X146469000Y-119048000D01*
X146469000Y-109667000D01*
X135616000Y-109667000D01*
X135616000Y-119048000D01*
G37*
X122586000Y-119048000D02*
X133439000Y-119048000D01*
X133439000Y-119048000D02*
X133439000Y-109667000D01*
X133439000Y-109667000D02*
X122586000Y-109667000D01*
X122586000Y-109667000D02*
X122586000Y-119048000D01*
G36*
X122586000Y-119048000D02*
G01*
X133439000Y-119048000D01*
X133439000Y-109667000D01*
X122586000Y-109667000D01*
X122586000Y-119048000D01*
G37*
D11*
X146000000Y-70050000D03*
X146000000Y-71950000D03*
X147875000Y-71000000D03*
D12*
X173460000Y-117182500D03*
X173460000Y-108782500D03*
D13*
X172310000Y-95720000D03*
X174210000Y-95720000D03*
D14*
X130530000Y-96935000D03*
X130530000Y-98485000D03*
D15*
X113270000Y-82057500D03*
X113270000Y-80482500D03*
D16*
X99000000Y-123500000D03*
X104080000Y-123500000D03*
D17*
X154320000Y-84400000D03*
X154320000Y-94300000D03*
D18*
X118800000Y-134800000D03*
X118800000Y-132500000D03*
D19*
X112500000Y-132500000D03*
D18*
X118800000Y-130200000D03*
D20*
X120610000Y-89665000D03*
X120610000Y-88015000D03*
D16*
X85500000Y-123500000D03*
X90580000Y-123500000D03*
D20*
X101680000Y-66840000D03*
X101680000Y-65190000D03*
D21*
X114450000Y-100830000D03*
X112550000Y-100830000D03*
D22*
X161990000Y-67312500D03*
X161990000Y-68887500D03*
D23*
X90460000Y-76110000D03*
X90460000Y-77760000D03*
D24*
X167695000Y-129573332D03*
X169345000Y-129573332D03*
D25*
X103825000Y-59980000D03*
X102275000Y-59980000D03*
D26*
X177940000Y-89550000D03*
X177940000Y-87650000D03*
D27*
X93185000Y-70920000D03*
X94735000Y-70920000D03*
D23*
X103330000Y-79030000D03*
X103330000Y-80680000D03*
D24*
X167695000Y-131330000D03*
X169345000Y-131330000D03*
D28*
X163480000Y-87700000D03*
X163480000Y-83700000D03*
D29*
X154890000Y-58980000D03*
X154890000Y-61780000D03*
D14*
X100280000Y-79070000D03*
X100280000Y-80620000D03*
D30*
X132595000Y-102475000D03*
X133865000Y-102475000D03*
X135135000Y-102475000D03*
X136405000Y-102475000D03*
X136405000Y-97525000D03*
X135135000Y-97525000D03*
X133865000Y-97525000D03*
X132595000Y-97525000D03*
D27*
X94825000Y-100800000D03*
X96375000Y-100800000D03*
D31*
X173900000Y-85057500D03*
X174850000Y-85057500D03*
X175800000Y-85057500D03*
X175800000Y-82782500D03*
X174850000Y-82782500D03*
X173900000Y-82782500D03*
D32*
X164220000Y-103630000D03*
X164220000Y-102490000D03*
X164220000Y-101350000D03*
X164220000Y-100210000D03*
X164220000Y-99070000D03*
D33*
X159595000Y-102875000D03*
X159595000Y-99825000D03*
X156245000Y-102875000D03*
X156245000Y-99825000D03*
D18*
X103800000Y-134800000D03*
X103800000Y-132500000D03*
D19*
X97500000Y-132500000D03*
D18*
X103800000Y-130200000D03*
D28*
X165090000Y-114517500D03*
X165090000Y-110517500D03*
D34*
X102460000Y-70770000D03*
X101960000Y-70770000D03*
X101460000Y-70770000D03*
X100960000Y-70770000D03*
X100460000Y-70770000D03*
X100460000Y-75070000D03*
X100960000Y-75070000D03*
X101460000Y-75070000D03*
X101960000Y-75070000D03*
X102460000Y-75070000D03*
D24*
X167695000Y-127816666D03*
X169345000Y-127816666D03*
D18*
X148800000Y-134800000D03*
X148800000Y-132500000D03*
D19*
X142500000Y-132500000D03*
D18*
X148800000Y-130200000D03*
X133800000Y-134800000D03*
X133800000Y-132500000D03*
D19*
X127500000Y-132500000D03*
D18*
X133800000Y-130200000D03*
D35*
X152510000Y-70120000D03*
X152510000Y-72020000D03*
D22*
X164060000Y-67375000D03*
X164060000Y-68950000D03*
D14*
X137510000Y-70025000D03*
X137510000Y-71575000D03*
D36*
X128225000Y-81405000D03*
X126575000Y-81405000D03*
D23*
X101840000Y-79040000D03*
X101840000Y-80690000D03*
X174200000Y-87785000D03*
X174200000Y-89435000D03*
D36*
X128225000Y-86300000D03*
X126575000Y-86300000D03*
D20*
X103260000Y-66840000D03*
X103260000Y-65190000D03*
D37*
X126050000Y-83260000D03*
X126050000Y-83910000D03*
X126050000Y-84560000D03*
X128710000Y-84560000D03*
X128710000Y-83910000D03*
X128710000Y-83260000D03*
D16*
X112500000Y-123500000D03*
X117580000Y-123500000D03*
D35*
X178000000Y-82910000D03*
X178000000Y-84810000D03*
D27*
X93185000Y-73920000D03*
X94735000Y-73920000D03*
D36*
X110335000Y-95150000D03*
X108685000Y-95150000D03*
D38*
X133370000Y-62475000D03*
X133370000Y-58625000D03*
X131870000Y-62475000D03*
X131870000Y-58625000D03*
D29*
X152390000Y-58930000D03*
X152390000Y-61730000D03*
D39*
X168980000Y-82975000D03*
X168980000Y-88425000D03*
D36*
X169345000Y-126060000D03*
X167695000Y-126060000D03*
D26*
X158340000Y-72180000D03*
X158340000Y-70280000D03*
D38*
X138800000Y-62650000D03*
X138800000Y-58800000D03*
X137300000Y-62650000D03*
X137300000Y-58800000D03*
D16*
X151500000Y-123500000D03*
X156580000Y-123500000D03*
D24*
X93135000Y-66420000D03*
X94785000Y-66420000D03*
X93135000Y-69420000D03*
X94785000Y-69420000D03*
D40*
X115357500Y-92315000D03*
X115357500Y-92965000D03*
X115357500Y-93615000D03*
X115357500Y-94265000D03*
X115357500Y-94915000D03*
X115357500Y-95565000D03*
X115357500Y-96215000D03*
X115357500Y-96865000D03*
X121082500Y-96865000D03*
X121082500Y-96215000D03*
X121082500Y-95565000D03*
X121082500Y-94915000D03*
X121082500Y-94265000D03*
X121082500Y-93615000D03*
X121082500Y-92965000D03*
X121082500Y-92315000D03*
D25*
X123395000Y-101640000D03*
X121845000Y-101640000D03*
D20*
X100100000Y-66840000D03*
X100100000Y-65190000D03*
D41*
X170920000Y-100820000D03*
X176320000Y-100820000D03*
D20*
X175970000Y-89435000D03*
X175970000Y-87785000D03*
D18*
X88800000Y-134800000D03*
X88800000Y-132500000D03*
D19*
X82500000Y-132500000D03*
D18*
X88800000Y-130200000D03*
X158950000Y-134800000D03*
X158950000Y-132500000D03*
D19*
X152650000Y-132500000D03*
D18*
X158950000Y-130200000D03*
D24*
X108685000Y-90780000D03*
X110335000Y-90780000D03*
D25*
X114415000Y-98830000D03*
X112865000Y-98830000D03*
D42*
X90025000Y-103095000D03*
X90025000Y-104365000D03*
X90025000Y-105635000D03*
X90025000Y-106905000D03*
X94975000Y-106905000D03*
X94975000Y-105635000D03*
X94975000Y-104365000D03*
X94975000Y-103095000D03*
D27*
X93185000Y-76920000D03*
X94735000Y-76920000D03*
D20*
X115270000Y-82095000D03*
X115270000Y-80445000D03*
D24*
X93135000Y-72420000D03*
X94785000Y-72420000D03*
D43*
X154430000Y-72320000D03*
X155380000Y-72320000D03*
X156330000Y-72320000D03*
D44*
X156330000Y-70120000D03*
D43*
X154430000Y-70120000D03*
D20*
X164060000Y-72525000D03*
X164060000Y-70875000D03*
X135940000Y-71625000D03*
X135940000Y-69975000D03*
D23*
X90460000Y-68920000D03*
X90460000Y-70570000D03*
D21*
X166120000Y-118207500D03*
X164220000Y-118207500D03*
D16*
X138530000Y-123500000D03*
X143610000Y-123500000D03*
D23*
X161990000Y-70775000D03*
X161990000Y-72425000D03*
D42*
X118525000Y-103595000D03*
X118525000Y-104865000D03*
X118525000Y-106135000D03*
X118525000Y-107405000D03*
X123475000Y-107405000D03*
X123475000Y-106135000D03*
X123475000Y-104865000D03*
X123475000Y-103595000D03*
D16*
X125500000Y-123500000D03*
X130580000Y-123500000D03*
D20*
X133430000Y-71655000D03*
X133430000Y-70005000D03*
D28*
X142500000Y-71500000D03*
X142500000Y-67500000D03*
D24*
X93135000Y-75420000D03*
X94785000Y-75420000D03*
D21*
X104050000Y-57980000D03*
X102150000Y-57980000D03*
D14*
X131860000Y-70055000D03*
X131860000Y-71605000D03*
D20*
X122340000Y-89645000D03*
X122340000Y-87995000D03*
D42*
X134575000Y-78465000D03*
X134575000Y-79735000D03*
X134575000Y-81005000D03*
X134575000Y-82275000D03*
X134575000Y-83545000D03*
X134575000Y-84815000D03*
X134575000Y-86085000D03*
X134575000Y-87355000D03*
X139525000Y-87355000D03*
X139525000Y-86085000D03*
X139525000Y-84815000D03*
X139525000Y-83545000D03*
X139525000Y-82275000D03*
X139525000Y-81005000D03*
X139525000Y-79735000D03*
X139525000Y-78465000D03*
D24*
X145850000Y-67500000D03*
X147500000Y-67500000D03*
D45*
X151430000Y-52680000D03*
D46*
X150430000Y-55380000D03*
X145430000Y-55380000D03*
D45*
X144430000Y-52680000D03*
D47*
X149230000Y-55380000D03*
X148580000Y-55380000D03*
X147930000Y-55380000D03*
X147280000Y-55380000D03*
X146630000Y-55380000D03*
D48*
X150830000Y-52680000D03*
D49*
X148930000Y-52680000D03*
X146930000Y-52680000D03*
D48*
X145030000Y-52680000D03*
D27*
X93185000Y-67920000D03*
X94735000Y-67920000D03*
D50*
X108820000Y-57690000D03*
X108820000Y-58960000D03*
X108820000Y-60230000D03*
X108820000Y-61500000D03*
X108820000Y-62770000D03*
X108820000Y-64040000D03*
X108820000Y-65310000D03*
X108820000Y-66580000D03*
X108820000Y-67850000D03*
X108820000Y-69120000D03*
X108820000Y-70390000D03*
X108820000Y-71660000D03*
X108820000Y-72930000D03*
X108820000Y-74200000D03*
D51*
X111860000Y-75450000D03*
X113130000Y-75450000D03*
X114400000Y-75450000D03*
X115670000Y-75450000D03*
X116940000Y-75450000D03*
X118210000Y-75450000D03*
X119480000Y-75450000D03*
X120750000Y-75450000D03*
X122020000Y-75450000D03*
X123290000Y-75450000D03*
D50*
X126320000Y-74200000D03*
X126320000Y-72930000D03*
X126320000Y-71660000D03*
X126320000Y-70390000D03*
X126320000Y-69120000D03*
X126320000Y-67850000D03*
X126320000Y-66580000D03*
X126320000Y-65310000D03*
X126320000Y-64040000D03*
X126320000Y-62770000D03*
X126320000Y-61500000D03*
X126320000Y-60230000D03*
X126320000Y-58960000D03*
X126320000Y-57690000D03*
D52*
X115365000Y-63505000D03*
X115365000Y-65030000D03*
X115365000Y-66555000D03*
X116890000Y-63505000D03*
X116890000Y-65030000D03*
X116890000Y-66555000D03*
X118415000Y-63505000D03*
X118415000Y-65030000D03*
X118415000Y-66555000D03*
D23*
X166110000Y-70775000D03*
X166110000Y-72425000D03*
D22*
X166110000Y-67375000D03*
X166110000Y-68950000D03*
D27*
X139220000Y-76420000D03*
X140770000Y-76420000D03*
M02*
