G04 Layer_Color=65535*
%FSLAX25Y25*%
%MOIN*%
G70*
G01*
G75*
%ADD10C,0.00500*%
%ADD41C,0.01000*%
%ADD68C,0.00984*%
%ADD69C,0.02362*%
%ADD70C,0.00591*%
%ADD71C,0.00600*%
%ADD72C,0.00787*%
%ADD73C,0.02500*%
%ADD74C,0.03500*%
G36*
X269843Y725492D02*
X268661Y723917D01*
X267284Y721555D01*
X265709Y719193D01*
X263543Y717028D01*
X261772Y716043D01*
X259213Y714862D01*
X257047Y714272D01*
Y722342D01*
X247992D01*
Y713878D01*
X245827Y714468D01*
X244449Y715059D01*
X242874Y716043D01*
X240512Y717421D01*
X238937Y718602D01*
X238150Y719783D01*
X236772Y721161D01*
X235591Y723130D01*
X234606Y725492D01*
X233819Y727264D01*
X270433D01*
X269843Y725492D01*
D02*
G37*
G36*
X270094Y831646D02*
X268913Y830071D01*
X267535Y827709D01*
X265961Y825346D01*
X263795Y823181D01*
X262024Y822197D01*
X259465Y821016D01*
X257299Y820425D01*
Y828496D01*
X248244D01*
Y820032D01*
X246079Y820622D01*
X244701Y821213D01*
X243126Y822197D01*
X240764Y823575D01*
X239189Y824756D01*
X238402Y825937D01*
X237024Y827315D01*
X235842Y829284D01*
X234858Y831646D01*
X234071Y833417D01*
X270685D01*
X270094Y831646D01*
D02*
G37*
G36*
X306925Y654114D02*
X306138Y651870D01*
X304169Y647894D01*
X302476Y645217D01*
X301020Y643524D01*
X299721Y642343D01*
X298067Y640846D01*
X295823Y639508D01*
X293146Y638130D01*
X290705Y637303D01*
X288421Y636713D01*
X288342Y648721D01*
X279090D01*
X279130Y636555D01*
X278933D01*
X277909Y636713D01*
X276650Y637146D01*
X274996Y637854D01*
X273185Y638366D01*
X271610Y639468D01*
X269484Y640374D01*
X267201Y642146D01*
X265587Y643642D01*
X264287Y645571D01*
X263185Y646870D01*
X261886Y648878D01*
X260980Y651476D01*
X259996Y654075D01*
X306807Y654153D01*
X306925Y654114D01*
D02*
G37*
G36*
X383992Y723417D02*
X382811Y721842D01*
X381433Y719480D01*
X379858Y717118D01*
X377693Y714953D01*
X375921Y713969D01*
X373362Y712787D01*
X371197Y712197D01*
Y720268D01*
X362142D01*
Y711803D01*
X359976Y712394D01*
X358598Y712984D01*
X357024Y713969D01*
X354661Y715346D01*
X353087Y716528D01*
X352299Y717709D01*
X350921Y719087D01*
X349740Y721055D01*
X348756Y723417D01*
X347969Y725189D01*
X384583D01*
X383992Y723417D01*
D02*
G37*
G36*
X372457Y833614D02*
X371276Y832039D01*
X369898Y829677D01*
X368323Y827315D01*
X366158Y825150D01*
X364386Y824165D01*
X361827Y822984D01*
X359661Y822394D01*
Y830465D01*
X350606D01*
Y822000D01*
X348441Y822591D01*
X347063Y823181D01*
X345488Y824165D01*
X343126Y825543D01*
X341551Y826725D01*
X340764Y827906D01*
X339386Y829284D01*
X338205Y831252D01*
X337220Y833614D01*
X336433Y835386D01*
X373047D01*
X372457Y833614D01*
D02*
G37*
G36*
X285165Y1032492D02*
X284378Y1030248D01*
X282410Y1026272D01*
X280717Y1023594D01*
X279260Y1021902D01*
X277961Y1020720D01*
X276307Y1019224D01*
X274063Y1017886D01*
X271386Y1016508D01*
X268945Y1015681D01*
X266661Y1015091D01*
X266583Y1027098D01*
X257331D01*
X257370Y1014933D01*
X257173D01*
X256150Y1015091D01*
X254890Y1015524D01*
X253236Y1016232D01*
X251425Y1016744D01*
X249850Y1017846D01*
X247724Y1018752D01*
X245441Y1020524D01*
X243827Y1022020D01*
X242528Y1023949D01*
X241425Y1025248D01*
X240126Y1027256D01*
X239220Y1029854D01*
X238236Y1032453D01*
X285047Y1032532D01*
X285165Y1032492D01*
D02*
G37*
G36*
X339760Y1112335D02*
X338579Y1110760D01*
X337201Y1108398D01*
X335626Y1106035D01*
X333461Y1103870D01*
X331689Y1102886D01*
X329130Y1101705D01*
X326965Y1101114D01*
Y1109185D01*
X317910D01*
Y1100721D01*
X315744Y1101311D01*
X314366Y1101902D01*
X312791Y1102886D01*
X310429Y1104264D01*
X308854Y1105445D01*
X308067Y1106626D01*
X306689Y1108004D01*
X305508Y1109972D01*
X304524Y1112335D01*
X303736Y1114106D01*
X340350D01*
X339760Y1112335D01*
D02*
G37*
G36*
X268311Y945390D02*
X267130Y943815D01*
X265752Y941453D01*
X264177Y939091D01*
X262012Y936925D01*
X260240Y935941D01*
X257681Y934760D01*
X255516Y934169D01*
Y942240D01*
X246461D01*
Y933776D01*
X244295Y934366D01*
X242917Y934957D01*
X241342Y935941D01*
X238980Y937319D01*
X237405Y938500D01*
X236618Y939681D01*
X235240Y941059D01*
X234059Y943028D01*
X233075Y945390D01*
X232287Y947161D01*
X268902D01*
X268311Y945390D01*
D02*
G37*
G36*
X372642Y955232D02*
X371461Y953658D01*
X370083Y951295D01*
X368508Y948933D01*
X366342Y946768D01*
X364571Y945784D01*
X362012Y944602D01*
X359846Y944012D01*
Y952083D01*
X350791D01*
Y943618D01*
X348626Y944209D01*
X347248Y944799D01*
X345673Y945784D01*
X343311Y947161D01*
X341736Y948343D01*
X340949Y949524D01*
X339571Y950902D01*
X338390Y952870D01*
X337405Y955232D01*
X336618Y957004D01*
X373232D01*
X372642Y955232D01*
D02*
G37*
D10*
X290521Y930823D02*
G03*
X290521Y930823I-557J0D01*
G01*
X463677Y950284D02*
G03*
X463677Y950284I-1969J0D01*
G01*
X292305Y815110D02*
G03*
X292305Y815110I-557J0D01*
G01*
X513012Y1054339D02*
G03*
X513012Y1054339I-1087J0D01*
G01*
Y1018906D02*
G03*
X513012Y1018906I-1087J0D01*
G01*
Y983473D02*
G03*
X513012Y983473I-1087J0D01*
G01*
X513012Y950008D02*
G03*
X513012Y950008I-1087J0D01*
G01*
X286028Y932791D02*
X315555D01*
X286028Y909169D02*
X315555D01*
X422339Y928630D02*
Y954220D01*
X465646D01*
X422339Y928630D02*
X465646D01*
Y954220D01*
X398000Y810000D02*
X400000D01*
X399000Y809000D02*
Y810000D01*
X237500Y660500D02*
X239500D01*
X238500Y659500D02*
Y660500D01*
X250000Y771000D02*
X252000D01*
X251000Y770000D02*
Y771000D01*
X287811Y817079D02*
X317339D01*
X287811Y793457D02*
X317339D01*
X417748Y778756D02*
Y782693D01*
Y778756D02*
X428772D01*
X417748Y782693D02*
X428772D01*
Y778756D02*
Y782693D01*
X507398Y1057291D02*
X524130D01*
X507398Y1036622D02*
X523638D01*
X507398Y1021858D02*
X524130D01*
X507398Y1001189D02*
X523638D01*
X507398Y986425D02*
X524130D01*
X507398Y965756D02*
X523638D01*
X507398Y952961D02*
X524130D01*
X507398Y932291D02*
X523638D01*
X514386Y773000D02*
Y783000D01*
X505386Y773000D02*
X514386D01*
X505386D02*
Y783000D01*
X514386D01*
D41*
X304650Y1086551D02*
G03*
X304650Y1086551I-650J0D01*
G01*
X257497Y1062574D02*
G03*
X257040Y1014919I4511J-23873D01*
G01*
X266794Y1015091D02*
G03*
X266009Y1062451I-5577J23594D01*
G01*
X318115Y1137730D02*
G03*
X317760Y1100794I3731J-18506D01*
G01*
X326753Y1100914D02*
G03*
X326561Y1137586I-4906J18311D01*
G01*
X350997Y980628D02*
G03*
X350642Y943692I3731J-18506D01*
G01*
X359635Y943811D02*
G03*
X359443Y980483I-4906J18311D01*
G01*
X246666Y970785D02*
G03*
X246312Y933849I3731J-18506D01*
G01*
X255304Y933969D02*
G03*
X255112Y970641I-4906J18311D01*
G01*
X279645Y1076138D02*
G03*
X280079Y1072475I122J-1842D01*
G01*
X278803Y1075926D02*
G03*
X278595Y1079532I-47J1806D01*
G01*
X251909Y985753D02*
G03*
X251702Y989359I-47J1806D01*
G01*
X252752Y985964D02*
G03*
X253185Y982302I122J-1842D01*
G01*
X330193Y698059D02*
G03*
X330193Y698059I-650J0D01*
G01*
X429860Y783824D02*
G03*
X429860Y783824I-100J0D01*
G01*
X304716Y696087D02*
G03*
X305150Y692424I122J-1842D01*
G01*
X303874Y695875D02*
G03*
X303666Y699481I-47J1806D01*
G01*
X248450Y857041D02*
G03*
X248095Y820105I3731J-18506D01*
G01*
X257087Y820225D02*
G03*
X256895Y856897I-4906J18311D01*
G01*
X350812Y859009D02*
G03*
X350457Y822073I3731J-18506D01*
G01*
X359450Y822193D02*
G03*
X359258Y858865I-4906J18311D01*
G01*
X362347Y748813D02*
G03*
X361993Y711877I3731J-18506D01*
G01*
X370985Y711996D02*
G03*
X370793Y748668I-4906J18311D01*
G01*
X279257Y684196D02*
G03*
X278799Y636541I4511J-23873D01*
G01*
X288554Y636713D02*
G03*
X287768Y684073I-5577J23594D01*
G01*
X248198Y750887D02*
G03*
X247843Y713951I3731J-18506D01*
G01*
X256836Y714071D02*
G03*
X256644Y750743I-4906J18311D01*
G01*
X507122Y781500D02*
G03*
X507122Y781500I-236J0D01*
G01*
X254535Y870252D02*
G03*
X254969Y866589I122J-1842D01*
G01*
X253693Y870040D02*
G03*
X253485Y873646I-47J1806D01*
G01*
X441059Y648500D02*
G03*
X441059Y648500I-2559J0D01*
G01*
X491059D02*
G03*
X491059Y648500I-2559J0D01*
G01*
X535059Y650000D02*
G03*
X535059Y650000I-2559J0D01*
G01*
X564559D02*
G03*
X564559Y650000I-2559J0D01*
G01*
X445559Y725500D02*
G03*
X445559Y725500I-2559J0D01*
G01*
X496059Y727000D02*
G03*
X496059Y727000I-2559J0D01*
G01*
X540059Y728500D02*
G03*
X540059Y728500I-2559J0D01*
G01*
X582059Y706000D02*
G03*
X582059Y706000I-2559J0D01*
G01*
X409059Y738500D02*
G03*
X409059Y738500I-2559J0D01*
G01*
X451559Y738000D02*
G03*
X451559Y738000I-2559J0D01*
G01*
X499559Y739000D02*
G03*
X499559Y739000I-2559J0D01*
G01*
X548059D02*
G03*
X548059Y739000I-2559J0D01*
G01*
X494059Y954500D02*
G03*
X494059Y954500I-2559J0D01*
G01*
X495059Y983000D02*
G03*
X495059Y983000I-2559J0D01*
G01*
Y993000D02*
G03*
X495059Y993000I-2559J0D01*
G01*
Y1051500D02*
G03*
X495059Y1051500I-2559J0D01*
G01*
X314949Y1048051D02*
X321000D01*
X314949D02*
Y1088051D01*
X321000D01*
X235165Y1012138D02*
Y1056429D01*
Y1012138D02*
X257681D01*
X265799D02*
X288315D01*
Y1056429D01*
X235165D02*
X244024Y1065287D01*
X257681D01*
X265799D02*
X279457D01*
X288315Y1056429D01*
X301768Y1099146D02*
Y1135169D01*
Y1099146D02*
X318181D01*
X325905D02*
X342319D01*
Y1135169D01*
X301768D02*
X306295Y1139697D01*
X318181D01*
X325905D02*
X337791D01*
X342319Y1135169D01*
X334650Y978067D02*
X339177Y982594D01*
X351063D01*
X358787D02*
X370673D01*
X375201Y978067D01*
X334650Y942043D02*
Y978067D01*
Y942043D02*
X351063D01*
X358787D02*
X375201D01*
Y978067D01*
X230319Y968224D02*
X234846Y972752D01*
X246732D01*
X254457D02*
X266342D01*
X270870Y968224D01*
X230319Y932201D02*
Y968224D01*
Y932201D02*
X246732D01*
X254457D02*
X270870D01*
Y968224D01*
X344142Y1027370D02*
Y1028980D01*
X325638Y1027370D02*
Y1028980D01*
Y1027370D02*
X344142D01*
X325638Y1041508D02*
Y1043118D01*
X344142Y1041508D02*
Y1043118D01*
X325638D02*
X344142D01*
X270795Y1080839D02*
X275520D01*
X270795Y1071390D02*
X275520D01*
X289299Y1072177D02*
Y1080051D01*
X269614Y1072177D02*
Y1080051D01*
X283394Y1080839D02*
X288118D01*
X283394Y1071390D02*
X288118D01*
X243902Y990665D02*
X248626D01*
X242721Y982004D02*
Y989878D01*
X256500Y990665D02*
X261224D01*
X262405Y982004D02*
Y989878D01*
X243902Y981217D02*
X248626D01*
X256500D02*
X261224D01*
X240602Y568709D02*
Y612016D01*
X309894Y568709D02*
Y612016D01*
X240602Y568709D02*
X309894D01*
X240602Y612016D02*
X309894D01*
X591598Y1105929D02*
Y1111925D01*
X582098Y1105929D02*
X591598D01*
X589598Y1107925D02*
Y1111925D01*
X597598Y1087925D02*
Y1089929D01*
X592598Y1087925D02*
Y1089929D01*
X580098Y1087925D02*
X610098D01*
X580098Y1113925D02*
X610098D01*
X580098Y1087925D02*
Y1113925D01*
X610098Y1087925D02*
Y1113925D01*
X582098Y1111925D02*
X608098D01*
X582098Y1089929D02*
X608098D01*
X582098D02*
Y1111925D01*
X608098Y1089929D02*
Y1111925D01*
X600598Y1107925D02*
X608098D01*
X600598D02*
Y1111917D01*
X582098Y1107925D02*
X589598D01*
X598598Y1105929D02*
X608098D01*
X598598D02*
Y1111925D01*
X591598Y1138929D02*
Y1144925D01*
X582098Y1138929D02*
X591598D01*
X589598Y1140925D02*
Y1144925D01*
X597598Y1120925D02*
Y1122929D01*
X592598Y1120925D02*
Y1122929D01*
X580098Y1120925D02*
X610098D01*
X580098Y1146925D02*
X610098D01*
X580098Y1120925D02*
Y1146925D01*
X610098Y1120925D02*
Y1146925D01*
X582098Y1144925D02*
X608098D01*
X582098Y1122929D02*
X608098D01*
X582098D02*
Y1144925D01*
X608098Y1122929D02*
Y1144925D01*
X600598Y1140925D02*
X608098D01*
X600598D02*
Y1144917D01*
X582098Y1140925D02*
X589598D01*
X598598Y1138929D02*
X608098D01*
X598598D02*
Y1144925D01*
X550098Y1105429D02*
Y1111425D01*
X540598Y1105429D02*
X550098D01*
X548098Y1107425D02*
Y1111425D01*
X556098Y1087425D02*
Y1089429D01*
X551098Y1087425D02*
Y1089429D01*
X538598Y1087425D02*
X568598D01*
X538598Y1113425D02*
X568598D01*
X538598Y1087425D02*
Y1113425D01*
X568598Y1087425D02*
Y1113425D01*
X540598Y1111425D02*
X566598D01*
X540598Y1089429D02*
X566598D01*
X540598D02*
Y1111425D01*
X566598Y1089429D02*
Y1111425D01*
X559098Y1107425D02*
X566598D01*
X559098D02*
Y1111417D01*
X540598Y1107425D02*
X548098D01*
X557098Y1105429D02*
X566598D01*
X557098D02*
Y1111425D01*
X550098Y1138429D02*
Y1144425D01*
X540598Y1138429D02*
X550098D01*
X548098Y1140425D02*
Y1144425D01*
X556098Y1120425D02*
Y1122429D01*
X551098Y1120425D02*
Y1122429D01*
X538598Y1120425D02*
X568598D01*
X538598Y1146425D02*
X568598D01*
X538598Y1120425D02*
Y1146425D01*
X568598Y1120425D02*
Y1146425D01*
X540598Y1144425D02*
X566598D01*
X540598Y1122429D02*
X566598D01*
X540598D02*
Y1144425D01*
X566598Y1122429D02*
Y1144425D01*
X559098Y1140425D02*
X566598D01*
X559098D02*
Y1144417D01*
X540598Y1140425D02*
X548098D01*
X557098Y1138429D02*
X566598D01*
X557098D02*
Y1144425D01*
X404000Y1131532D02*
Y1135468D01*
X400886D02*
X404000D01*
X400886Y1131532D02*
X404000D01*
X371870Y1120409D02*
X400886D01*
X371870Y1146591D02*
X400886D01*
Y1120409D02*
Y1146591D01*
X371870Y1120409D02*
Y1146591D01*
X526000Y1131032D02*
Y1134968D01*
X522886D02*
X526000D01*
X522886Y1131032D02*
X526000D01*
X493870Y1119909D02*
X522886D01*
X493870Y1146091D02*
X522886D01*
Y1119909D02*
Y1146091D01*
X493870Y1119909D02*
Y1146091D01*
X486000Y1131032D02*
Y1134968D01*
X482886D02*
X486000D01*
X482886Y1131032D02*
X486000D01*
X453870Y1119909D02*
X482886D01*
X453870Y1146091D02*
X482886D01*
Y1119909D02*
Y1146091D01*
X453870Y1119909D02*
Y1146091D01*
X444000Y1131032D02*
Y1134968D01*
X440886D02*
X444000D01*
X440886Y1131032D02*
X444000D01*
X411870Y1119909D02*
X440886D01*
X411870Y1146091D02*
X440886D01*
Y1119909D02*
Y1146091D01*
X411870Y1119909D02*
Y1146091D01*
X237000Y1153504D02*
Y1159500D01*
X227500Y1153504D02*
X237000D01*
X235000Y1155500D02*
Y1159492D01*
X248000Y1135500D02*
Y1137500D01*
X243000Y1135500D02*
Y1137500D01*
X225500Y1135500D02*
X265500D01*
X225500Y1161524D02*
X265500D01*
X225500Y1135500D02*
Y1161524D01*
X265500Y1135500D02*
Y1161524D01*
X227500Y1159500D02*
X263500D01*
X227500Y1137504D02*
X263500D01*
X227500D02*
Y1159500D01*
X263500Y1137504D02*
Y1159500D01*
X256000Y1155500D02*
X263500D01*
X256000D02*
Y1159492D01*
X227500Y1155500D02*
X235000D01*
X254000Y1153504D02*
X263500D01*
X254000D02*
Y1159492D01*
X354768Y932043D02*
X374768D01*
X354768Y902043D02*
Y932043D01*
Y902043D02*
X374768D01*
Y932043D01*
X354417Y1030244D02*
X374417D01*
X354417D02*
Y1040244D01*
X374417D01*
Y1030244D02*
Y1040244D01*
X364421Y1030244D02*
Y1040244D01*
X294492Y893984D02*
X314492D01*
Y903984D01*
X294492Y893984D02*
Y903984D01*
X304496Y893984D02*
Y903984D01*
X294492D02*
X314492D01*
X279335Y939878D02*
Y951567D01*
Y977008D02*
Y988697D01*
X328153D01*
Y940665D02*
Y951567D01*
X279335Y939878D02*
X328153D01*
Y977008D02*
Y988697D01*
X262488Y1122232D02*
X293984D01*
X262488Y1090736D02*
X293984D01*
X221031Y1080500D02*
X224969D01*
Y1083614D01*
X221031Y1080500D02*
Y1083614D01*
X209910D02*
Y1112630D01*
X236090Y1083614D02*
Y1112630D01*
X209910Y1083614D02*
X236090D01*
X209910Y1112630D02*
X236090D01*
X502689Y571142D02*
Y577138D01*
X512189D01*
X504689Y571150D02*
Y575142D01*
X491689Y593142D02*
Y595142D01*
X496689Y593142D02*
Y595142D01*
X474189D02*
X514189D01*
X474189Y569118D02*
X514189D01*
Y595142D01*
X474189Y569118D02*
Y595142D01*
X476189Y571142D02*
X512189D01*
X476189Y593138D02*
X512189D01*
Y571142D02*
Y593138D01*
X476189Y571142D02*
Y593138D01*
Y575142D02*
X483689D01*
Y571150D02*
Y575142D01*
X504689D02*
X512189D01*
X476189Y577138D02*
X485689D01*
Y571150D02*
Y577138D01*
X291421Y703457D02*
X340634D01*
Y720854D01*
X291421Y703457D02*
Y720854D01*
Y752669D02*
X340634D01*
Y735272D02*
Y752669D01*
X291421Y735272D02*
Y752669D01*
X560532Y873063D02*
X564468D01*
Y876177D01*
X560532Y873063D02*
Y876177D01*
X549409D02*
Y905193D01*
X575591Y876177D02*
Y905193D01*
X549409Y876177D02*
X575591D01*
X549409Y905193D02*
X575591D01*
X340492Y659559D02*
X346543D01*
X340492D02*
Y699559D01*
X346543D01*
X457000Y1104500D02*
X477000D01*
X457000Y1094500D02*
Y1104500D01*
X477000Y1094500D02*
Y1104500D01*
X466996Y1094500D02*
Y1104500D01*
X457000Y1094500D02*
X477000D01*
X512500Y1104500D02*
X532500D01*
X512500Y1094500D02*
Y1104500D01*
X532500Y1094500D02*
Y1104500D01*
X522496Y1094500D02*
Y1104500D01*
X512500Y1094500D02*
X532500D01*
X398500Y1103000D02*
X418500D01*
X398500Y1093000D02*
Y1103000D01*
X418500Y1093000D02*
Y1103000D01*
X408496Y1093000D02*
Y1103000D01*
X398500Y1093000D02*
X418500D01*
X293500Y779000D02*
X313500D01*
Y789000D01*
X293500Y779000D02*
Y789000D01*
X303504Y779000D02*
Y789000D01*
X293500D02*
X313500D01*
X412224Y771059D02*
X432224D01*
X412224Y761059D02*
Y771059D01*
X432224Y761059D02*
Y771059D01*
X422228Y761059D02*
Y771059D01*
X412224Y761059D02*
X432224D01*
X348500Y644827D02*
X368500D01*
X348500D02*
Y654827D01*
X368500D01*
Y644827D02*
Y654827D01*
X358504Y644827D02*
Y654827D01*
X235315Y681240D02*
Y701240D01*
X245315D01*
Y681240D02*
Y701240D01*
X235315Y681240D02*
X245315D01*
X235315Y691236D02*
X245315D01*
X434500Y1085000D02*
Y1105000D01*
Y1085000D02*
X454500D01*
X434500Y1105000D02*
X454500D01*
X454500Y1085000D02*
Y1105000D01*
X490000Y1084500D02*
Y1104500D01*
Y1084500D02*
X510000D01*
X490000Y1104500D02*
X510000D01*
X510000Y1084500D02*
Y1104500D01*
X376000Y1085000D02*
Y1105000D01*
Y1085000D02*
X396000D01*
X376000Y1105000D02*
X396000D01*
X396000Y1085000D02*
Y1105000D01*
X352614Y810425D02*
X372614D01*
X352614Y780425D02*
Y810425D01*
Y780425D02*
X372614D01*
Y810425D01*
X597031Y997563D02*
X600969D01*
Y1000677D01*
X597031Y997563D02*
Y1000677D01*
X585910D02*
Y1029693D01*
X612090Y1000677D02*
Y1029693D01*
X585910Y1000677D02*
X612090D01*
X585910Y1029693D02*
X612090D01*
X559031Y955063D02*
X562968D01*
Y958177D01*
X559031Y955063D02*
Y958177D01*
X547909D02*
Y987193D01*
X574090Y958177D02*
Y987193D01*
X547909Y958177D02*
X574090D01*
X547909Y987193D02*
X574090D01*
X598531Y955063D02*
X602468D01*
Y958177D01*
X598531Y955063D02*
Y958177D01*
X587409D02*
Y987193D01*
X613590Y958177D02*
Y987193D01*
X587409Y958177D02*
X613590D01*
X587409Y987193D02*
X613590D01*
X597532Y872563D02*
X601469D01*
Y875677D01*
X597532Y872563D02*
Y875677D01*
X586410D02*
Y904693D01*
X612591Y875677D02*
Y904693D01*
X586410Y875677D02*
X612591D01*
X586410Y904693D02*
X612591D01*
X559953Y913496D02*
X563890D01*
Y916610D01*
X559953Y913496D02*
Y916610D01*
X548831D02*
Y945626D01*
X575012Y916610D02*
Y945626D01*
X548831Y916610D02*
X575012D01*
X548831Y945626D02*
X575012D01*
X562032Y829563D02*
X565969D01*
Y832677D01*
X562032Y829563D02*
Y832677D01*
X550910D02*
Y861693D01*
X577091Y832677D02*
Y861693D01*
X550910Y832677D02*
X577091D01*
X550910Y861693D02*
X577091D01*
X381343Y594248D02*
X413311D01*
Y603854D01*
X381343Y594248D02*
Y603854D01*
X413311D01*
X519543Y594118D02*
X551512D01*
Y603724D01*
X519543Y594118D02*
Y603724D01*
X551512D01*
X591272Y571142D02*
Y577138D01*
X600772D01*
X593272Y571150D02*
Y575142D01*
X580272Y593142D02*
Y595142D01*
X585272Y593142D02*
Y595142D01*
X562772D02*
X602772D01*
X562772Y569118D02*
X602772D01*
Y595142D01*
X562772Y569118D02*
Y595142D01*
X564772Y571142D02*
X600772D01*
X564772Y593138D02*
X600772D01*
Y571142D02*
Y593138D01*
X564772Y571142D02*
Y593138D01*
Y575142D02*
X572272D01*
Y571150D02*
Y575142D01*
X593272D02*
X600772D01*
X564772Y577138D02*
X574272D01*
Y571150D02*
Y577138D01*
X449134Y571272D02*
Y577268D01*
X458634D01*
X451134Y571280D02*
Y575272D01*
X438134Y593272D02*
Y595272D01*
X443134Y593272D02*
Y595272D01*
X420634D02*
X460634D01*
X420634Y569248D02*
X460634D01*
Y595272D01*
X420634Y569248D02*
Y595272D01*
X422634Y571272D02*
X458634D01*
X422634Y593268D02*
X458634D01*
Y571272D02*
Y593268D01*
X422634Y571272D02*
Y593268D01*
Y575272D02*
X430134D01*
Y571280D02*
Y575272D01*
X451134D02*
X458634D01*
X422634Y577268D02*
X432134D01*
Y571280D02*
Y577268D01*
X364488Y571272D02*
Y577268D01*
X373988D01*
X366488Y571280D02*
Y575272D01*
X353488Y593272D02*
Y595272D01*
X358488Y593272D02*
Y595272D01*
X335988D02*
X375988D01*
X335988Y569248D02*
X375988D01*
Y595272D01*
X335988Y569248D02*
Y595272D01*
X337988Y571272D02*
X373988D01*
X337988Y593268D02*
X373988D01*
Y571272D02*
Y593268D01*
X337988Y571272D02*
Y593268D01*
Y575272D02*
X345488D01*
Y571280D02*
Y575272D01*
X366488D02*
X373988D01*
X337988Y577268D02*
X347488D01*
Y571280D02*
Y577268D01*
X221220Y767606D02*
X225157D01*
Y770720D01*
X221220Y767606D02*
Y770720D01*
X210098D02*
Y799736D01*
X236280Y770720D02*
Y799736D01*
X210098Y770720D02*
X236280D01*
X210098Y799736D02*
X236280D01*
X295866Y700787D02*
X300590D01*
X295866Y691339D02*
X300590D01*
X314370Y692126D02*
Y700000D01*
X294685Y692126D02*
Y700000D01*
X308465Y700787D02*
X313189D01*
X308465Y691339D02*
X313189D01*
X335240Y1002248D02*
Y1003858D01*
X353744D01*
Y988110D02*
Y989721D01*
X335240Y988110D02*
X353744D01*
X335240D02*
Y989721D01*
X353744Y1002248D02*
Y1003858D01*
X333677Y884366D02*
Y885976D01*
X352181D01*
Y870228D02*
Y871839D01*
X333677Y870228D02*
X352181D01*
X333677D02*
Y871839D01*
X352181Y884366D02*
Y885976D01*
X337287Y641953D02*
Y643563D01*
X318783Y641953D02*
Y643563D01*
Y641953D02*
X337287D01*
X318783Y656091D02*
Y657701D01*
X337287Y656091D02*
Y657701D01*
X318783D02*
X337287D01*
X232102Y818457D02*
Y854480D01*
Y818457D02*
X248516D01*
X256240D02*
X272654D01*
Y854480D01*
X232102D02*
X236630Y859008D01*
X248516D01*
X256240D02*
X268126D01*
X272654Y854480D01*
X334465Y820425D02*
Y856449D01*
Y820425D02*
X350878D01*
X358602D02*
X375016D01*
Y856449D01*
X334465D02*
X338992Y860976D01*
X350878D01*
X358602D02*
X370488D01*
X375016Y856449D01*
X346000Y710228D02*
Y746252D01*
Y710228D02*
X362413D01*
X370138D02*
X386551D01*
Y746252D01*
X346000D02*
X350528Y750779D01*
X362413D01*
X370138D02*
X382024D01*
X386551Y746252D01*
X256925Y633760D02*
Y678051D01*
Y633760D02*
X279441D01*
X287559D02*
X310075D01*
Y678051D01*
X256925D02*
X265784Y686909D01*
X279441D01*
X287559D02*
X301217D01*
X310075Y678051D01*
X231850Y712303D02*
Y748327D01*
Y712303D02*
X248264D01*
X255988D02*
X272402D01*
Y748327D01*
X231850D02*
X236378Y752854D01*
X248264D01*
X255988D02*
X267874D01*
X272402Y748327D01*
X596854Y1038673D02*
X600791D01*
Y1041787D01*
X596854Y1038673D02*
Y1041787D01*
X585732D02*
Y1070803D01*
X611913Y1041787D02*
Y1070803D01*
X585732Y1041787D02*
X611913D01*
X585732Y1070803D02*
X611913D01*
X245685Y874953D02*
X250409D01*
X245685Y865504D02*
X250409D01*
X264189Y866291D02*
Y874165D01*
X244504Y866291D02*
Y874165D01*
X258283Y874953D02*
X263008D01*
X258283Y865504D02*
X263008D01*
X597354Y913496D02*
X601291D01*
Y916610D01*
X597354Y913496D02*
Y916610D01*
X586232D02*
Y945626D01*
X612413Y916610D02*
Y945626D01*
X586232Y916610D02*
X612413D01*
X586232Y945626D02*
X612413D01*
X558532Y997063D02*
X562468D01*
Y1000177D01*
X558532Y997063D02*
Y1000177D01*
X547409D02*
Y1029193D01*
X573591Y1000177D02*
Y1029193D01*
X547409Y1000177D02*
X573591D01*
X547409Y1029193D02*
X573591D01*
X598531Y829469D02*
X602468D01*
Y832583D01*
X598531Y829469D02*
Y832583D01*
X587409D02*
Y861598D01*
X613590Y832583D02*
Y861598D01*
X587409Y832583D02*
X613590D01*
X587409Y861598D02*
X613590D01*
X559453Y1038673D02*
X563390D01*
Y1041787D01*
X559453Y1038673D02*
Y1041787D01*
X548331D02*
Y1070803D01*
X574512Y1041787D02*
Y1070803D01*
X548331Y1041787D02*
X574512D01*
X548331Y1070803D02*
X574512D01*
X607232Y666429D02*
X613228D01*
X607232D02*
Y675929D01*
X609228Y668429D02*
X613228D01*
X589228Y660429D02*
X591232D01*
X589228Y665429D02*
X591232D01*
X589228Y647929D02*
Y677929D01*
X615228Y647929D02*
Y677929D01*
X589228D02*
X615228D01*
X589228Y647929D02*
X615228D01*
X613228Y649929D02*
Y675929D01*
X591232Y649929D02*
Y675929D01*
X613228D01*
X591232Y649929D02*
X613228D01*
X609228D02*
Y657429D01*
X613221D01*
X609228Y668429D02*
Y675929D01*
X607232Y649929D02*
Y659429D01*
X613228D01*
X607232Y705799D02*
X613228D01*
X607232D02*
Y715299D01*
X609228Y707799D02*
X613228D01*
X589228Y699799D02*
X591232D01*
X589228Y704799D02*
X591232D01*
X589228Y687299D02*
Y717299D01*
X615228Y687299D02*
Y717299D01*
X589228D02*
X615228D01*
X589228Y687299D02*
X615228D01*
X613228Y689299D02*
Y715299D01*
X591232Y689299D02*
Y715299D01*
X613228D01*
X591232Y689299D02*
X613228D01*
X609228D02*
Y696799D01*
X613221D01*
X609228Y707799D02*
Y715299D01*
X607232Y689299D02*
Y698799D01*
X613228D01*
X605339Y754571D02*
X611335D01*
X605339D02*
Y764071D01*
X607335Y756571D02*
X611327D01*
X587335Y743571D02*
X589335D01*
X587335Y748571D02*
X589335D01*
X587335Y726071D02*
Y766071D01*
X613358Y726071D02*
Y766071D01*
X587335D02*
X613358D01*
X587335Y726071D02*
X613358D01*
X611335Y728071D02*
Y764071D01*
X589339Y728071D02*
Y764071D01*
X611335D01*
X589339Y728071D02*
X611335D01*
X607335D02*
Y735571D01*
X611327D01*
X607335Y756571D02*
Y764071D01*
X605339Y728071D02*
Y737571D01*
X611327D01*
X605339Y803784D02*
X611335D01*
X605339D02*
Y813284D01*
X607335Y805783D02*
X611327D01*
X587335Y792783D02*
X589335D01*
X587335Y797784D02*
X589335D01*
X587335Y775283D02*
Y815283D01*
X613358Y775283D02*
Y815283D01*
X587335D02*
X613358D01*
X587335Y775283D02*
X613358D01*
X611335Y777283D02*
Y813284D01*
X589339Y777283D02*
Y813284D01*
X611335D01*
X589339Y777283D02*
X611335D01*
X607335D02*
Y784784D01*
X611327D01*
X607335Y805783D02*
Y813284D01*
X605339Y777283D02*
Y786784D01*
X611327D01*
X278642Y822264D02*
Y833953D01*
Y859394D02*
Y871083D01*
X327461D01*
Y823051D02*
Y833953D01*
X278642Y822264D02*
X327461D01*
Y859394D02*
Y871083D01*
X508593Y831219D02*
X511926Y832171D01*
X508593Y833123D02*
X511926Y832171D01*
X508593Y833123D02*
X511926Y834075D01*
X508593Y835027D02*
X511926Y834075D01*
X508593Y836194D02*
X511926Y837146D01*
X508593Y838098D02*
X511926Y837146D01*
X508593Y838098D02*
X511926Y839050D01*
X508593Y840002D02*
X511926Y839050D01*
X508593Y841169D02*
X511926Y842121D01*
X508593Y843073D02*
X511926Y842121D01*
X508593Y843073D02*
X511926Y844025D01*
X508593Y844977D02*
X511926Y844025D01*
X511449Y846382D02*
X511688Y846144D01*
X511926Y846382D01*
X511688Y846620D01*
X511449Y846382D01*
X506927Y848191D02*
X507165Y848429D01*
X506927Y848667D01*
X506689Y848429D01*
X506927Y848191D01*
X508593Y848429D02*
X511926D01*
X508593Y850738D02*
X508831Y850262D01*
X509307Y849786D01*
X510021Y849548D01*
X510497D01*
X511211Y849786D01*
X511688Y850262D01*
X511926Y850738D01*
Y851452D01*
X511688Y851928D01*
X511211Y852404D01*
X510497Y852643D01*
X510021D01*
X509307Y852404D01*
X508831Y851928D01*
X508593Y851452D01*
Y850738D01*
Y853738D02*
X511926Y854690D01*
X508593Y855642D02*
X511926Y854690D01*
X508593Y855642D02*
X511926Y856594D01*
X508593Y857546D02*
X511926Y856594D01*
X506927Y858713D02*
X511926D01*
X508593Y862617D02*
X511926D01*
X509307D02*
X508831Y862140D01*
X508593Y861664D01*
Y860950D01*
X508831Y860474D01*
X509307Y859998D01*
X510021Y859760D01*
X510497D01*
X511211Y859998D01*
X511688Y860474D01*
X511926Y860950D01*
Y861664D01*
X511688Y862140D01*
X511211Y862617D01*
X506927Y863950D02*
X511926D01*
X509307D02*
X508831Y864426D01*
X508593Y864902D01*
Y865616D01*
X508831Y866092D01*
X509307Y866568D01*
X510021Y866806D01*
X510497D01*
X511211Y866568D01*
X511688Y866092D01*
X511926Y865616D01*
Y864902D01*
X511688Y864426D01*
X511211Y863950D01*
X509307Y870496D02*
X508831Y870258D01*
X508593Y869544D01*
Y868830D01*
X508831Y868115D01*
X509307Y867877D01*
X509783Y868115D01*
X510021Y868591D01*
X510259Y869782D01*
X510497Y870258D01*
X510973Y870496D01*
X511211D01*
X511688Y870258D01*
X511926Y869544D01*
Y868830D01*
X511688Y868115D01*
X511211Y867877D01*
X511449Y871781D02*
X511688Y871543D01*
X511926Y871781D01*
X511688Y872019D01*
X511449Y871781D01*
X509307Y875971D02*
X508831Y875495D01*
X508593Y875019D01*
Y874304D01*
X508831Y873828D01*
X509307Y873352D01*
X510021Y873114D01*
X510497D01*
X511211Y873352D01*
X511688Y873828D01*
X511926Y874304D01*
Y875019D01*
X511688Y875495D01*
X511211Y875971D01*
X508593Y878232D02*
X508831Y877756D01*
X509307Y877280D01*
X510021Y877042D01*
X510497D01*
X511211Y877280D01*
X511688Y877756D01*
X511926Y878232D01*
Y878946D01*
X511688Y879422D01*
X511211Y879899D01*
X510497Y880137D01*
X510021D01*
X509307Y879899D01*
X508831Y879422D01*
X508593Y878946D01*
Y878232D01*
Y881232D02*
X511926D01*
X509545D02*
X508831Y881946D01*
X508593Y882422D01*
Y883136D01*
X508831Y883612D01*
X509545Y883850D01*
X511926D01*
X509545D02*
X508831Y884564D01*
X508593Y885040D01*
Y885754D01*
X508831Y886231D01*
X509545Y886469D01*
X511926D01*
X460001Y817828D02*
X465000D01*
Y820684D01*
X461905Y825517D02*
X462144Y825278D01*
X462382Y825517D01*
X462144Y825755D01*
X461905D01*
X461667Y825517D01*
Y825278D01*
X461905Y825041D01*
X462382Y824802D01*
X463572Y824326D01*
X464286Y823850D01*
X464762Y823374D01*
X465000Y822898D01*
Y822184D01*
X464762Y821470D01*
X464286Y821232D01*
X463572D01*
X463096Y821470D01*
X462144Y822898D01*
X461667Y823374D01*
X461191Y823612D01*
X460715D01*
X460239Y823374D01*
X460001Y822898D01*
X460239Y822422D01*
X460715Y822184D01*
X461191D01*
X461905Y822422D01*
X462620Y822898D01*
X464286Y824088D01*
X464762Y824564D01*
X465000Y825278D01*
Y825517D01*
X464762Y825755D01*
X464524D01*
X465000Y822184D02*
X464762Y821708D01*
X464286Y821470D01*
X463572D01*
X463096Y821708D01*
X462620Y822184D01*
X461191D02*
X461667Y822422D01*
X464286Y824326D01*
X464762Y824802D01*
X465000Y825278D01*
X460001Y826993D02*
X465000D01*
X460001Y830325D02*
X465000D01*
X462382Y826993D02*
Y830325D01*
X460001Y835633D02*
X465000D01*
X460001D02*
Y837300D01*
X460239Y838014D01*
X460715Y838490D01*
X461191Y838728D01*
X461905Y838966D01*
X463096D01*
X463810Y838728D01*
X464286Y838490D01*
X464762Y838014D01*
X465000Y837300D01*
Y835633D01*
X461667Y840085D02*
X465000D01*
X463096D02*
X462382Y840323D01*
X461905Y840799D01*
X461667Y841275D01*
Y841989D01*
X460001Y842918D02*
X460239Y843156D01*
X460001Y843394D01*
X459763Y843156D01*
X460001Y842918D01*
X461667Y843156D02*
X465000D01*
X461667Y844275D02*
X465000Y845703D01*
X461667Y847131D02*
X465000Y845703D01*
X463096Y847940D02*
Y850797D01*
X462620D01*
X462144Y850559D01*
X461905Y850321D01*
X461667Y849845D01*
Y849131D01*
X461905Y848654D01*
X462382Y848178D01*
X463096Y847940D01*
X463572D01*
X464286Y848178D01*
X464762Y848654D01*
X465000Y849131D01*
Y849845D01*
X464762Y850321D01*
X464286Y850797D01*
X461667Y851868D02*
X465000D01*
X463096D02*
X462382Y852106D01*
X461905Y852582D01*
X461667Y853058D01*
Y853773D01*
X462858Y854225D02*
Y858510D01*
X460715Y863318D02*
X460239Y862842D01*
X460001Y862128D01*
Y861176D01*
X460239Y860462D01*
X460715Y859985D01*
X461191D01*
X461667Y860223D01*
X461905Y860462D01*
X462144Y860938D01*
X462620Y862366D01*
X462858Y862842D01*
X463096Y863080D01*
X463572Y863318D01*
X464286D01*
X464762Y862842D01*
X465000Y862128D01*
Y861176D01*
X464762Y860462D01*
X464286Y859985D01*
X460001Y864437D02*
X465000D01*
X460001D02*
Y866103D01*
X460239Y866817D01*
X460715Y867293D01*
X461191Y867531D01*
X461905Y867770D01*
X463096D01*
X463810Y867531D01*
X464286Y867293D01*
X464762Y866817D01*
X465000Y866103D01*
Y864437D01*
X460001Y870317D02*
X460239Y869602D01*
X460953Y869126D01*
X462144Y868888D01*
X462858D01*
X464048Y869126D01*
X464762Y869602D01*
X465000Y870317D01*
Y870793D01*
X464762Y871507D01*
X464048Y871983D01*
X462858Y872221D01*
X462144D01*
X460953Y871983D01*
X460239Y871507D01*
X460001Y870793D01*
Y870317D01*
X460953Y873340D02*
X460715Y873816D01*
X460001Y874530D01*
X465000D01*
X462858Y877006D02*
Y881290D01*
X460001Y882766D02*
X465000D01*
X460001D02*
Y884909D01*
X460239Y885623D01*
X460477Y885861D01*
X460953Y886099D01*
X461429D01*
X461905Y885861D01*
X462144Y885623D01*
X462382Y884909D01*
Y882766D01*
Y884433D02*
X465000Y886099D01*
X460001Y888646D02*
X460239Y887932D01*
X460953Y887456D01*
X462144Y887218D01*
X462858D01*
X464048Y887456D01*
X464762Y887932D01*
X465000Y888646D01*
Y889122D01*
X464762Y889836D01*
X464048Y890312D01*
X462858Y890550D01*
X462144D01*
X460953Y890312D01*
X460239Y889836D01*
X460001Y889122D01*
Y888646D01*
X460953Y891669D02*
X460715Y892145D01*
X460001Y892859D01*
X465000D01*
D68*
X430081Y1027167D02*
G03*
X430081Y1027167I-492J0D01*
G01*
D69*
X439825Y1024411D02*
G03*
X439825Y1024411I-1181J0D01*
G01*
D70*
X320331Y623804D02*
G03*
X320331Y623794I-492J-5D01*
G01*
X322594Y611594D02*
X334405D01*
X322594Y623406D02*
X334405D01*
D71*
X211614Y647323D02*
X216496D01*
X211803Y612677D02*
X216685D01*
X214370Y586079D02*
X210771D01*
Y587878D01*
X211371Y588478D01*
X212571D01*
X213171Y587878D01*
Y586079D01*
X210771Y589678D02*
X214370D01*
X213171Y590877D01*
X214370Y592077D01*
X210771D01*
X214370Y593276D02*
X210771D01*
Y595076D01*
X211371Y595676D01*
X212571D01*
X213171Y595076D01*
Y593276D01*
Y594476D02*
X214370Y595676D01*
X214970Y596875D02*
Y599274D01*
X214370Y600474D02*
X210771D01*
Y602274D01*
X211371Y602873D01*
X212571D01*
X213171Y602274D01*
Y600474D01*
Y601674D02*
X214370Y602873D01*
Y604073D02*
X210771D01*
Y605872D01*
X211371Y606472D01*
X212571D01*
X213171Y605872D01*
Y604073D01*
X210771Y607672D02*
Y608871D01*
Y608272D01*
X214370D01*
Y607672D01*
Y608871D01*
X487500Y1053500D02*
X486300D01*
X486900D01*
Y1049901D01*
X487500Y1050501D01*
X484501Y1053500D02*
X483301D01*
X483901D01*
Y1049901D01*
X484501Y1050501D01*
X502500Y994500D02*
X501300D01*
X501900D01*
Y990901D01*
X502500Y991501D01*
X499501D02*
X498901Y990901D01*
X497702D01*
X497102Y991501D01*
Y993900D01*
X497702Y994500D01*
X498901D01*
X499501Y993900D01*
Y991501D01*
X493500Y977400D02*
X492900Y978000D01*
X491701D01*
X491101Y977400D01*
Y975001D01*
X491701Y974401D01*
X492900D01*
X493500Y975001D01*
Y975601D01*
X492900Y976201D01*
X491101D01*
X486500Y953001D02*
X485900Y952401D01*
X484701D01*
X484101Y953001D01*
Y953601D01*
X484701Y954201D01*
X484101Y954800D01*
Y955400D01*
X484701Y956000D01*
X485900D01*
X486500Y955400D01*
Y954800D01*
X485900Y954201D01*
X486500Y953601D01*
Y953001D01*
X485900Y954201D02*
X484701D01*
X546500Y743500D02*
Y745299D01*
X545900Y745899D01*
X545300Y745299D01*
Y744100D01*
X544701Y743500D01*
X544101Y744100D01*
Y745899D01*
X546500Y747099D02*
Y748298D01*
Y747699D01*
X544101D01*
Y747099D01*
X547700Y751298D02*
Y751897D01*
X547100Y752497D01*
X544101D01*
Y750698D01*
X544701Y750098D01*
X545900D01*
X546500Y750698D01*
Y752497D01*
X547100Y753697D02*
Y756096D01*
X546500Y759095D02*
X542901D01*
X544701Y757296D01*
Y759695D01*
X498000Y743000D02*
Y744799D01*
X497400Y745399D01*
X496800Y744799D01*
Y743600D01*
X496201Y743000D01*
X495601Y743600D01*
Y745399D01*
X498000Y746599D02*
Y747798D01*
Y747199D01*
X495601D01*
Y746599D01*
X499200Y750798D02*
Y751397D01*
X498600Y751997D01*
X495601D01*
Y750198D01*
X496201Y749598D01*
X497400D01*
X498000Y750198D01*
Y751997D01*
X498600Y753197D02*
Y755596D01*
X495001Y756796D02*
X494401Y757395D01*
Y758595D01*
X495001Y759195D01*
X495601D01*
X496201Y758595D01*
Y757995D01*
Y758595D01*
X496800Y759195D01*
X497400D01*
X498000Y758595D01*
Y757395D01*
X497400Y756796D01*
X450000Y742500D02*
Y744299D01*
X449400Y744899D01*
X448800Y744299D01*
Y743100D01*
X448201Y742500D01*
X447601Y743100D01*
Y744899D01*
X450000Y746099D02*
Y747298D01*
Y746699D01*
X447601D01*
Y746099D01*
X451200Y750297D02*
Y750897D01*
X450600Y751497D01*
X447601D01*
Y749698D01*
X448201Y749098D01*
X449400D01*
X450000Y749698D01*
Y751497D01*
X450600Y752697D02*
Y755096D01*
X450000Y758695D02*
Y756296D01*
X447601Y758695D01*
X447001D01*
X446401Y758095D01*
Y756895D01*
X447001Y756296D01*
X407000Y743000D02*
Y744799D01*
X406400Y745399D01*
X405800Y744799D01*
Y743600D01*
X405201Y743000D01*
X404601Y743600D01*
Y745399D01*
X407000Y746599D02*
Y747798D01*
Y747199D01*
X404601D01*
Y746599D01*
X408200Y750798D02*
Y751397D01*
X407600Y751997D01*
X404601D01*
Y750198D01*
X405201Y749598D01*
X406400D01*
X407000Y750198D01*
Y751997D01*
X407600Y753197D02*
Y755596D01*
X407000Y756796D02*
Y757995D01*
Y757395D01*
X403401D01*
X404001Y756796D01*
X582101Y686100D02*
Y687299D01*
X582701Y687899D01*
X584500D01*
Y686100D01*
X583900Y685500D01*
X583300Y686100D01*
Y687899D01*
X580901Y691498D02*
X584500D01*
Y689699D01*
X583900Y689099D01*
X582701D01*
X582101Y689699D01*
Y691498D01*
Y695097D02*
Y693297D01*
X582701Y692698D01*
X583900D01*
X584500Y693297D01*
Y695097D01*
X585100Y696297D02*
Y698696D01*
X584500Y701695D02*
X580901D01*
X582701Y699895D01*
Y702295D01*
X536101Y733600D02*
Y734799D01*
X536701Y735399D01*
X538500D01*
Y733600D01*
X537900Y733000D01*
X537300Y733600D01*
Y735399D01*
X534901Y738998D02*
X538500D01*
Y737199D01*
X537900Y736599D01*
X536701D01*
X536101Y737199D01*
Y738998D01*
Y742597D02*
Y740798D01*
X536701Y740198D01*
X537900D01*
X538500Y740798D01*
Y742597D01*
X539100Y743796D02*
Y746196D01*
X535501Y747395D02*
X534901Y747995D01*
Y749195D01*
X535501Y749795D01*
X536101D01*
X536701Y749195D01*
Y748595D01*
Y749195D01*
X537300Y749795D01*
X537900D01*
X538500Y749195D01*
Y747995D01*
X537900Y747395D01*
X488601Y731600D02*
Y732799D01*
X489201Y733399D01*
X491000D01*
Y731600D01*
X490400Y731000D01*
X489800Y731600D01*
Y733399D01*
X487401Y736998D02*
X491000D01*
Y735199D01*
X490400Y734599D01*
X489201D01*
X488601Y735199D01*
Y736998D01*
Y740597D02*
Y738798D01*
X489201Y738198D01*
X490400D01*
X491000Y738798D01*
Y740597D01*
X491600Y741796D02*
Y744196D01*
X491000Y747795D02*
Y745395D01*
X488601Y747795D01*
X488001D01*
X487401Y747195D01*
Y745995D01*
X488001Y745395D01*
X441101Y730600D02*
Y731799D01*
X441701Y732399D01*
X443500D01*
Y730600D01*
X442900Y730000D01*
X442300Y730600D01*
Y732399D01*
X439901Y735998D02*
X443500D01*
Y734199D01*
X442900Y733599D01*
X441701D01*
X441101Y734199D01*
Y735998D01*
Y739597D02*
Y737797D01*
X441701Y737198D01*
X442900D01*
X443500Y737797D01*
Y739597D01*
X444100Y740797D02*
Y743196D01*
X443500Y744395D02*
Y745595D01*
Y744995D01*
X439901D01*
X440501Y744395D01*
X563500Y627000D02*
Y628600D01*
X562967Y629133D01*
X562434Y628600D01*
Y627533D01*
X561901Y627000D01*
X561367Y627533D01*
Y629133D01*
X563500Y631798D02*
Y630732D01*
X562967Y630199D01*
X561901D01*
X561367Y630732D01*
Y631798D01*
X561901Y632332D01*
X562434D01*
Y630199D01*
X563500Y633398D02*
X561367D01*
Y634997D01*
X561901Y635531D01*
X563500D01*
Y636597D02*
Y638196D01*
X562967Y638730D01*
X562434Y638196D01*
Y637130D01*
X561901Y636597D01*
X561367Y637130D01*
Y638730D01*
X564033Y639796D02*
Y641928D01*
X563500Y644594D02*
X560301D01*
X561901Y642995D01*
Y645127D01*
X531500Y627000D02*
Y628600D01*
X530967Y629133D01*
X530434Y628600D01*
Y627533D01*
X529901Y627000D01*
X529367Y627533D01*
Y629133D01*
X531500Y631798D02*
Y630732D01*
X530967Y630199D01*
X529901D01*
X529367Y630732D01*
Y631798D01*
X529901Y632332D01*
X530434D01*
Y630199D01*
X531500Y633398D02*
X529367D01*
Y634997D01*
X529901Y635531D01*
X531500D01*
Y636597D02*
Y638196D01*
X530967Y638730D01*
X530434Y638196D01*
Y637130D01*
X529901Y636597D01*
X529367Y637130D01*
Y638730D01*
X532033Y639796D02*
Y641928D01*
X528834Y642995D02*
X528301Y643528D01*
Y644594D01*
X528834Y645127D01*
X529367D01*
X529901Y644594D01*
Y644061D01*
Y644594D01*
X530434Y645127D01*
X530967D01*
X531500Y644594D01*
Y643528D01*
X530967Y642995D01*
X489500Y625000D02*
Y626600D01*
X488967Y627133D01*
X488434Y626600D01*
Y625533D01*
X487900Y625000D01*
X487367Y625533D01*
Y627133D01*
X489500Y629798D02*
Y628732D01*
X488967Y628199D01*
X487900D01*
X487367Y628732D01*
Y629798D01*
X487900Y630332D01*
X488434D01*
Y628199D01*
X489500Y631398D02*
X487367D01*
Y632997D01*
X487900Y633531D01*
X489500D01*
Y634597D02*
Y636196D01*
X488967Y636730D01*
X488434Y636196D01*
Y635130D01*
X487900Y634597D01*
X487367Y635130D01*
Y636730D01*
X490033Y637796D02*
Y639928D01*
X489500Y643127D02*
Y640995D01*
X487367Y643127D01*
X486834D01*
X486301Y642594D01*
Y641528D01*
X486834Y640995D01*
X439500Y625000D02*
Y626600D01*
X438967Y627133D01*
X438434Y626600D01*
Y625533D01*
X437900Y625000D01*
X437367Y625533D01*
Y627133D01*
X439500Y629798D02*
Y628732D01*
X438967Y628199D01*
X437900D01*
X437367Y628732D01*
Y629798D01*
X437900Y630332D01*
X438434D01*
Y628199D01*
X439500Y631398D02*
X437367D01*
Y632997D01*
X437900Y633531D01*
X439500D01*
Y634597D02*
Y636196D01*
X438967Y636730D01*
X438434Y636196D01*
Y635130D01*
X437900Y634597D01*
X437367Y635130D01*
Y636730D01*
X440033Y637796D02*
Y639928D01*
X439500Y640995D02*
Y642061D01*
Y641528D01*
X436301D01*
X436834Y640995D01*
X491834Y709133D02*
X491301Y708600D01*
Y707533D01*
X491834Y707000D01*
X493967D01*
X494500Y707533D01*
Y708600D01*
X493967Y709133D01*
X494500Y712332D02*
Y710199D01*
X492367Y712332D01*
X491834D01*
X491301Y711798D01*
Y710732D01*
X491834Y710199D01*
Y713398D02*
X491301Y713931D01*
Y714997D01*
X491834Y715531D01*
X493967D01*
X494500Y714997D01*
Y713931D01*
X493967Y713398D01*
X491834D01*
X495033Y716597D02*
Y718730D01*
X491834Y719796D02*
X491301Y720329D01*
Y721395D01*
X491834Y721929D01*
X492367D01*
X492901Y721395D01*
Y720862D01*
Y721395D01*
X493434Y721929D01*
X493967D01*
X494500Y721395D01*
Y720329D01*
X493967Y719796D01*
X564500Y1073401D02*
Y1077000D01*
Y1075201D01*
X562101D01*
Y1073401D01*
Y1077000D01*
X558502D02*
X560901D01*
X558502Y1074601D01*
Y1074001D01*
X559102Y1073401D01*
X560301D01*
X560901Y1074001D01*
X603500Y867500D02*
Y863901D01*
X601701D01*
X601101Y864501D01*
Y865701D01*
X601701Y866300D01*
X603500D01*
X602300D02*
X601101Y867500D01*
X597502Y864501D02*
X598102Y863901D01*
X599301D01*
X599901Y864501D01*
Y866900D01*
X599301Y867500D01*
X598102D01*
X597502Y866900D01*
Y865701D01*
X598702D01*
X596302Y867500D02*
X595103D01*
X595703D01*
Y863901D01*
X596302Y864501D01*
X561500Y1031401D02*
Y1035000D01*
X560300Y1033800D01*
X559101Y1035000D01*
Y1031401D01*
X604000Y951500D02*
Y947901D01*
X602201D01*
X601601Y948501D01*
Y949701D01*
X602201Y950300D01*
X604000D01*
X602800D02*
X601601Y951500D01*
X598002Y948501D02*
X598602Y947901D01*
X599801D01*
X600401Y948501D01*
Y950900D01*
X599801Y951500D01*
X598602D01*
X598002Y950900D01*
Y949701D01*
X599202D01*
X594403Y947901D02*
X596802D01*
Y949701D01*
X595603Y949101D01*
X595003D01*
X594403Y949701D01*
Y950900D01*
X595003Y951500D01*
X596203D01*
X596802Y950900D01*
X248867Y877801D02*
X251000D01*
Y879401D01*
X249934D01*
X251000D01*
Y881000D01*
X247801Y878334D02*
X247268Y877801D01*
X246201D01*
X245668Y878334D01*
Y878867D01*
X246201Y879401D01*
X246735D01*
X246201D01*
X245668Y879934D01*
Y880467D01*
X246201Y881000D01*
X247268D01*
X247801Y880467D01*
X515000Y767801D02*
Y770467D01*
X514467Y771000D01*
X513401D01*
X512867Y770467D01*
Y767801D01*
X511801D02*
X509668D01*
Y768334D01*
X511801Y770467D01*
Y771000D01*
X600000Y1073401D02*
Y1077000D01*
Y1075201D01*
X597601D01*
Y1073401D01*
Y1077000D01*
X596401D02*
X595202D01*
X595801D01*
Y1073401D01*
X596401Y1074001D01*
X353301Y1092000D02*
X355967D01*
X356500Y1092533D01*
Y1093600D01*
X355967Y1094133D01*
X353301D01*
X353834Y1095199D02*
X353301Y1095732D01*
Y1096799D01*
X353834Y1097332D01*
X354367D01*
X354901Y1096799D01*
Y1096265D01*
Y1096799D01*
X355434Y1097332D01*
X355967D01*
X356500Y1096799D01*
Y1095732D01*
X355967Y1095199D01*
X226367Y714334D02*
X226901Y713801D01*
X227967D01*
X228500Y714334D01*
Y716467D01*
X227967Y717000D01*
X226901D01*
X226367Y716467D01*
X225301Y717000D02*
X224235D01*
X224768D01*
Y713801D01*
X225301Y714334D01*
X251867Y635334D02*
X252400Y634801D01*
X253467D01*
X254000Y635334D01*
Y637467D01*
X253467Y638000D01*
X252400D01*
X251867Y637467D01*
X248668Y638000D02*
X250801D01*
X248668Y635867D01*
Y635334D01*
X249201Y634801D01*
X250268D01*
X250801Y635334D01*
X348867Y754834D02*
X349400Y754301D01*
X350467D01*
X351000Y754834D01*
Y756967D01*
X350467Y757500D01*
X349400D01*
X348867Y756967D01*
X347801Y754834D02*
X347268Y754301D01*
X346201D01*
X345668Y754834D01*
Y755367D01*
X346201Y755900D01*
X346735D01*
X346201D01*
X345668Y756434D01*
Y756967D01*
X346201Y757500D01*
X347268D01*
X347801Y756967D01*
X436367Y796334D02*
X436901Y795801D01*
X437967D01*
X438500Y796334D01*
Y798467D01*
X437967Y799000D01*
X436901D01*
X436367Y798467D01*
X433702Y799000D02*
Y795801D01*
X435301Y797401D01*
X433168D01*
X440867Y780334D02*
X441400Y779801D01*
X442467D01*
X443000Y780334D01*
Y782467D01*
X442467Y783000D01*
X441400D01*
X440867Y782467D01*
X437668Y779801D02*
X439801D01*
Y781400D01*
X438735Y780867D01*
X438202D01*
X437668Y781400D01*
Y782467D01*
X438202Y783000D01*
X439268D01*
X439801Y782467D01*
X229834Y1015133D02*
X229301Y1014600D01*
Y1013533D01*
X229834Y1013000D01*
X231967D01*
X232500Y1013533D01*
Y1014600D01*
X231967Y1015133D01*
X229301Y1018332D02*
X229834Y1017265D01*
X230901Y1016199D01*
X231967D01*
X232500Y1016732D01*
Y1017799D01*
X231967Y1018332D01*
X231434D01*
X230901Y1017799D01*
Y1016199D01*
X295334Y1021633D02*
X294801Y1021099D01*
Y1020033D01*
X295334Y1019500D01*
X297467D01*
X298000Y1020033D01*
Y1021099D01*
X297467Y1021633D01*
X294801Y1022699D02*
Y1024832D01*
X295334D01*
X297467Y1022699D01*
X298000D01*
X345334Y1101633D02*
X344801Y1101099D01*
Y1100033D01*
X345334Y1099500D01*
X347467D01*
X348000Y1100033D01*
Y1101099D01*
X347467Y1101633D01*
X345334Y1102699D02*
X344801Y1103232D01*
Y1104298D01*
X345334Y1104832D01*
X345867D01*
X346400Y1104298D01*
X346934Y1104832D01*
X347467D01*
X348000Y1104298D01*
Y1103232D01*
X347467Y1102699D01*
X346934D01*
X346400Y1103232D01*
X345867Y1102699D01*
X345334D01*
X346400Y1103232D02*
Y1104298D01*
X378334Y944633D02*
X377801Y944100D01*
Y943033D01*
X378334Y942500D01*
X380467D01*
X381000Y943033D01*
Y944100D01*
X380467Y944633D01*
Y945699D02*
X381000Y946232D01*
Y947299D01*
X380467Y947832D01*
X378334D01*
X377801Y947299D01*
Y946232D01*
X378334Y945699D01*
X378867D01*
X379400Y946232D01*
Y947832D01*
X369367Y868334D02*
X369900Y867801D01*
X370967D01*
X371500Y868334D01*
Y870467D01*
X370967Y871000D01*
X369900D01*
X369367Y870467D01*
X368301Y871000D02*
X367235D01*
X367768D01*
Y867801D01*
X368301Y868334D01*
X365635D02*
X365102Y867801D01*
X364036D01*
X363503Y868334D01*
Y870467D01*
X364036Y871000D01*
X365102D01*
X365635Y870467D01*
Y868334D01*
X372367Y815334D02*
X372901Y814801D01*
X373967D01*
X374500Y815334D01*
Y817467D01*
X373967Y818000D01*
X372901D01*
X372367Y817467D01*
X371301Y818000D02*
X370235D01*
X370768D01*
Y814801D01*
X371301Y815334D01*
X368635Y818000D02*
X367569D01*
X368102D01*
Y814801D01*
X368635Y815334D01*
X224334Y935133D02*
X223801Y934599D01*
Y933533D01*
X224334Y933000D01*
X226467D01*
X227000Y933533D01*
Y934599D01*
X226467Y935133D01*
X227000Y936199D02*
Y937265D01*
Y936732D01*
X223801D01*
X224334Y936199D01*
X227000Y940997D02*
Y938865D01*
X224867Y940997D01*
X224334D01*
X223801Y940464D01*
Y939398D01*
X224334Y938865D01*
X273834Y994633D02*
X273301Y994100D01*
Y993033D01*
X273834Y992500D01*
X275967D01*
X276500Y993033D01*
Y994100D01*
X275967Y994633D01*
X276500Y995699D02*
Y996765D01*
Y996232D01*
X273301D01*
X273834Y995699D01*
Y998365D02*
X273301Y998898D01*
Y999964D01*
X273834Y1000497D01*
X274367D01*
X274901Y999964D01*
Y999431D01*
Y999964D01*
X275434Y1000497D01*
X275967D01*
X276500Y999964D01*
Y998898D01*
X275967Y998365D01*
X363867Y1006834D02*
X364401Y1006301D01*
X365467D01*
X366000Y1006834D01*
Y1008967D01*
X365467Y1009500D01*
X364401D01*
X363867Y1008967D01*
X362801Y1009500D02*
X361735D01*
X362268D01*
Y1006301D01*
X362801Y1006834D01*
X358536Y1009500D02*
Y1006301D01*
X360135Y1007901D01*
X358003D01*
X226867Y833334D02*
X227400Y832801D01*
X228467D01*
X229000Y833334D01*
Y835467D01*
X228467Y836000D01*
X227400D01*
X226867Y835467D01*
X225801Y836000D02*
X224735D01*
X225268D01*
Y832801D01*
X225801Y833334D01*
X221003Y832801D02*
X223135D01*
Y834400D01*
X222069Y833867D01*
X221536D01*
X221003Y834400D01*
Y835467D01*
X221536Y836000D01*
X222602D01*
X223135Y835467D01*
X409596Y1079562D02*
X410129Y1079029D01*
X411195D01*
X411728Y1079562D01*
Y1081695D01*
X411195Y1082228D01*
X410129D01*
X409596Y1081695D01*
X408529Y1082228D02*
X407463D01*
X407996D01*
Y1079029D01*
X408529Y1079562D01*
X403731Y1079029D02*
X404797Y1079562D01*
X405864Y1080629D01*
Y1081695D01*
X405330Y1082228D01*
X404264D01*
X403731Y1081695D01*
Y1081162D01*
X404264Y1080629D01*
X405864D01*
X520493Y1081031D02*
X521027Y1080498D01*
X522093D01*
X522626Y1081031D01*
Y1083164D01*
X522093Y1083697D01*
X521027D01*
X520493Y1083164D01*
X519427Y1083697D02*
X518361D01*
X518894D01*
Y1080498D01*
X519427Y1081031D01*
X516761Y1080498D02*
X514629D01*
Y1081031D01*
X516761Y1083164D01*
Y1083697D01*
X461387Y1081311D02*
X461920Y1080777D01*
X462987D01*
X463520Y1081311D01*
Y1083443D01*
X462987Y1083976D01*
X461920D01*
X461387Y1083443D01*
X460321Y1083976D02*
X459254D01*
X459788D01*
Y1080777D01*
X460321Y1081311D01*
X457655D02*
X457122Y1080777D01*
X456055D01*
X455522Y1081311D01*
Y1081844D01*
X456055Y1082377D01*
X455522Y1082910D01*
Y1083443D01*
X456055Y1083976D01*
X457122D01*
X457655Y1083443D01*
Y1082910D01*
X457122Y1082377D01*
X457655Y1081844D01*
Y1081311D01*
X457122Y1082377D02*
X456055D01*
X444867Y976834D02*
X445400Y976301D01*
X446467D01*
X447000Y976834D01*
Y978967D01*
X446467Y979500D01*
X445400D01*
X444867Y978967D01*
X443801Y979500D02*
X442735D01*
X443268D01*
Y976301D01*
X443801Y976834D01*
X441135Y978967D02*
X440602Y979500D01*
X439536D01*
X439003Y978967D01*
Y976834D01*
X439536Y976301D01*
X440602D01*
X441135Y976834D01*
Y977367D01*
X440602Y977901D01*
X439003D01*
X398834Y699633D02*
X398301Y699099D01*
Y698033D01*
X398834Y697500D01*
X400967D01*
X401500Y698033D01*
Y699099D01*
X400967Y699633D01*
X401500Y702832D02*
Y700699D01*
X399367Y702832D01*
X398834D01*
X398301Y702298D01*
Y701232D01*
X398834Y700699D01*
Y703898D02*
X398301Y704431D01*
Y705497D01*
X398834Y706031D01*
X400967D01*
X401500Y705497D01*
Y704431D01*
X400967Y703898D01*
X398834D01*
X402033Y707097D02*
Y709230D01*
X401500Y710296D02*
Y711362D01*
Y710829D01*
X398301D01*
X398834Y710296D01*
X446334Y709133D02*
X445801Y708600D01*
Y707533D01*
X446334Y707000D01*
X448467D01*
X449000Y707533D01*
Y708600D01*
X448467Y709133D01*
X449000Y712332D02*
Y710199D01*
X446867Y712332D01*
X446334D01*
X445801Y711798D01*
Y710732D01*
X446334Y710199D01*
Y713398D02*
X445801Y713931D01*
Y714997D01*
X446334Y715531D01*
X448467D01*
X449000Y714997D01*
Y713931D01*
X448467Y713398D01*
X446334D01*
X449533Y716597D02*
Y718730D01*
X449000Y721929D02*
Y719796D01*
X446867Y721929D01*
X446334D01*
X445801Y721395D01*
Y720329D01*
X446334Y719796D01*
X541334Y707912D02*
X540801Y707379D01*
Y706313D01*
X541334Y705780D01*
X543467D01*
X544000Y706313D01*
Y707379D01*
X543467Y707912D01*
X544000Y711111D02*
Y708979D01*
X541867Y711111D01*
X541334D01*
X540801Y710578D01*
Y709512D01*
X541334Y708979D01*
Y712178D02*
X540801Y712711D01*
Y713777D01*
X541334Y714310D01*
X543467D01*
X544000Y713777D01*
Y712711D01*
X543467Y712178D01*
X541334D01*
X544533Y715377D02*
Y717509D01*
X544000Y720175D02*
X540801D01*
X542401Y718575D01*
Y720708D01*
X389334Y696633D02*
X388801Y696100D01*
Y695033D01*
X389334Y694500D01*
X391467D01*
X392000Y695033D01*
Y696100D01*
X391467Y696633D01*
X392000Y699832D02*
Y697699D01*
X389867Y699832D01*
X389334D01*
X388801Y699298D01*
Y698232D01*
X389334Y697699D01*
X392000Y700898D02*
Y701964D01*
Y701431D01*
X388801D01*
X389334Y700898D01*
X392533Y703564D02*
Y705696D01*
X392000Y706763D02*
Y707829D01*
Y707296D01*
X388801D01*
X389334Y706763D01*
X436334Y707133D02*
X435801Y706600D01*
Y705533D01*
X436334Y705000D01*
X438467D01*
X439000Y705533D01*
Y706600D01*
X438467Y707133D01*
X439000Y710332D02*
Y708199D01*
X436867Y710332D01*
X436334D01*
X435801Y709798D01*
Y708732D01*
X436334Y708199D01*
X439000Y711398D02*
Y712464D01*
Y711931D01*
X435801D01*
X436334Y711398D01*
X439533Y714064D02*
Y716196D01*
X439000Y719395D02*
Y717263D01*
X436867Y719395D01*
X436334D01*
X435801Y718862D01*
Y717796D01*
X436334Y717263D01*
X481834Y716133D02*
X481301Y715599D01*
Y714533D01*
X481834Y714000D01*
X483967D01*
X484500Y714533D01*
Y715599D01*
X483967Y716133D01*
X484500Y719332D02*
Y717199D01*
X482367Y719332D01*
X481834D01*
X481301Y718798D01*
Y717732D01*
X481834Y717199D01*
X484500Y720398D02*
Y721464D01*
Y720931D01*
X481301D01*
X481834Y720398D01*
X485033Y723064D02*
Y725196D01*
X481834Y726263D02*
X481301Y726796D01*
Y727862D01*
X481834Y728395D01*
X482367D01*
X482900Y727862D01*
Y727329D01*
Y727862D01*
X483434Y728395D01*
X483967D01*
X484500Y727862D01*
Y726796D01*
X483967Y726263D01*
X530834Y707633D02*
X530301Y707099D01*
Y706033D01*
X530834Y705500D01*
X532967D01*
X533500Y706033D01*
Y707099D01*
X532967Y707633D01*
X533500Y710832D02*
Y708699D01*
X531367Y710832D01*
X530834D01*
X530301Y710298D01*
Y709232D01*
X530834Y708699D01*
X533500Y711898D02*
Y712964D01*
Y712431D01*
X530301D01*
X530834Y711898D01*
X534033Y714564D02*
Y716696D01*
X533500Y719362D02*
X530301D01*
X531901Y717763D01*
Y719895D01*
X461334Y736133D02*
X460801Y735600D01*
Y734533D01*
X461334Y734000D01*
X463467D01*
X464000Y734533D01*
Y735600D01*
X463467Y736133D01*
X464000Y739332D02*
Y737199D01*
X461867Y739332D01*
X461334D01*
X460801Y738798D01*
Y737732D01*
X461334Y737199D01*
X464000Y742531D02*
Y740398D01*
X461867Y742531D01*
X461334D01*
X460801Y741997D01*
Y740931D01*
X461334Y740398D01*
X464533Y743597D02*
Y745730D01*
X464000Y748928D02*
Y746796D01*
X461867Y748928D01*
X461334D01*
X460801Y748395D01*
Y747329D01*
X461334Y746796D01*
X506334Y735133D02*
X505801Y734599D01*
Y733533D01*
X506334Y733000D01*
X508467D01*
X509000Y733533D01*
Y734599D01*
X508467Y735133D01*
X509000Y738332D02*
Y736199D01*
X506867Y738332D01*
X506334D01*
X505801Y737798D01*
Y736732D01*
X506334Y736199D01*
X509000Y741531D02*
Y739398D01*
X506867Y741531D01*
X506334D01*
X505801Y740997D01*
Y739931D01*
X506334Y739398D01*
X509533Y742597D02*
Y744730D01*
X506334Y745796D02*
X505801Y746329D01*
Y747395D01*
X506334Y747928D01*
X506867D01*
X507401Y747395D01*
Y746862D01*
Y747395D01*
X507934Y747928D01*
X508467D01*
X509000Y747395D01*
Y746329D01*
X508467Y745796D01*
X553834Y741633D02*
X553301Y741100D01*
Y740033D01*
X553834Y739500D01*
X555967D01*
X556500Y740033D01*
Y741100D01*
X555967Y741633D01*
X556500Y744832D02*
Y742699D01*
X554367Y744832D01*
X553834D01*
X553301Y744298D01*
Y743232D01*
X553834Y742699D01*
X556500Y748031D02*
Y745898D01*
X554367Y748031D01*
X553834D01*
X553301Y747497D01*
Y746431D01*
X553834Y745898D01*
X557033Y749097D02*
Y751230D01*
X556500Y753895D02*
X553301D01*
X554901Y752296D01*
Y754428D01*
X432334Y689633D02*
X431801Y689100D01*
Y688033D01*
X432334Y687500D01*
X434467D01*
X435000Y688033D01*
Y689100D01*
X434467Y689633D01*
X435000Y692832D02*
Y690699D01*
X432867Y692832D01*
X432334D01*
X431801Y692298D01*
Y691232D01*
X432334Y690699D01*
Y693898D02*
X431801Y694431D01*
Y695497D01*
X432334Y696031D01*
X432867D01*
X433400Y695497D01*
Y694964D01*
Y695497D01*
X433934Y696031D01*
X434467D01*
X435000Y695497D01*
Y694431D01*
X434467Y693898D01*
X435533Y697097D02*
Y699230D01*
X435000Y700296D02*
Y701362D01*
Y700829D01*
X431801D01*
X432334Y700296D01*
X478334Y695633D02*
X477801Y695099D01*
Y694033D01*
X478334Y693500D01*
X480467D01*
X481000Y694033D01*
Y695099D01*
X480467Y695633D01*
X481000Y698832D02*
Y696699D01*
X478867Y698832D01*
X478334D01*
X477801Y698298D01*
Y697232D01*
X478334Y696699D01*
Y699898D02*
X477801Y700431D01*
Y701497D01*
X478334Y702031D01*
X478867D01*
X479400Y701497D01*
Y700964D01*
Y701497D01*
X479934Y702031D01*
X480467D01*
X481000Y701497D01*
Y700431D01*
X480467Y699898D01*
X481533Y703097D02*
Y705230D01*
X481000Y708428D02*
Y706296D01*
X478867Y708428D01*
X478334D01*
X477801Y707895D01*
Y706829D01*
X478334Y706296D01*
X524834Y678133D02*
X524301Y677599D01*
Y676533D01*
X524834Y676000D01*
X526967D01*
X527500Y676533D01*
Y677599D01*
X526967Y678133D01*
X527500Y681332D02*
Y679199D01*
X525367Y681332D01*
X524834D01*
X524301Y680798D01*
Y679732D01*
X524834Y679199D01*
Y682398D02*
X524301Y682931D01*
Y683997D01*
X524834Y684531D01*
X525367D01*
X525901Y683997D01*
Y683464D01*
Y683997D01*
X526434Y684531D01*
X526967D01*
X527500Y683997D01*
Y682931D01*
X526967Y682398D01*
X528033Y685597D02*
Y687730D01*
X524834Y688796D02*
X524301Y689329D01*
Y690395D01*
X524834Y690929D01*
X525367D01*
X525901Y690395D01*
Y689862D01*
Y690395D01*
X526434Y690929D01*
X526967D01*
X527500Y690395D01*
Y689329D01*
X526967Y688796D01*
X575334Y685133D02*
X574801Y684599D01*
Y683533D01*
X575334Y683000D01*
X577467D01*
X578000Y683533D01*
Y684599D01*
X577467Y685133D01*
X578000Y688332D02*
Y686199D01*
X575867Y688332D01*
X575334D01*
X574801Y687798D01*
Y686732D01*
X575334Y686199D01*
Y689398D02*
X574801Y689931D01*
Y690997D01*
X575334Y691531D01*
X575867D01*
X576401Y690997D01*
Y690464D01*
Y690997D01*
X576934Y691531D01*
X577467D01*
X578000Y690997D01*
Y689931D01*
X577467Y689398D01*
X578533Y692597D02*
Y694730D01*
X578000Y697395D02*
X574801D01*
X576401Y695796D01*
Y697928D01*
X516367Y799834D02*
X516900Y799301D01*
X517967D01*
X518500Y799834D01*
Y801967D01*
X517967Y802500D01*
X516900D01*
X516367Y801967D01*
X513168Y802500D02*
X515301D01*
X513168Y800367D01*
Y799834D01*
X513702Y799301D01*
X514768D01*
X515301Y799834D01*
X510503Y802500D02*
Y799301D01*
X512102Y800900D01*
X509969D01*
X461367Y774834D02*
X461901Y774301D01*
X462967D01*
X463500Y774834D01*
Y776967D01*
X462967Y777500D01*
X461901D01*
X461367Y776967D01*
X458168Y777500D02*
X460301D01*
X458168Y775367D01*
Y774834D01*
X458702Y774301D01*
X459768D01*
X460301Y774834D01*
X454969Y774301D02*
X457102D01*
Y775901D01*
X456036Y775367D01*
X455503D01*
X454969Y775901D01*
Y776967D01*
X455503Y777500D01*
X456569D01*
X457102Y776967D01*
X476867Y760334D02*
X477400Y759801D01*
X478467D01*
X479000Y760334D01*
Y762467D01*
X478467Y763000D01*
X477400D01*
X476867Y762467D01*
X473668Y763000D02*
X475801D01*
X473668Y760867D01*
Y760334D01*
X474202Y759801D01*
X475268D01*
X475801Y760334D01*
X470469Y759801D02*
X471536Y760334D01*
X472602Y761401D01*
Y762467D01*
X472069Y763000D01*
X471003D01*
X470469Y762467D01*
Y761934D01*
X471003Y761401D01*
X472602D01*
X543367Y761834D02*
X543900Y761301D01*
X544967D01*
X545500Y761834D01*
Y763967D01*
X544967Y764500D01*
X543900D01*
X543367Y763967D01*
X540168Y764500D02*
X542301D01*
X540168Y762367D01*
Y761834D01*
X540702Y761301D01*
X541768D01*
X542301Y761834D01*
X539102Y761301D02*
X536969D01*
Y761834D01*
X539102Y763967D01*
Y764500D01*
X559867Y775334D02*
X560400Y774801D01*
X561467D01*
X562000Y775334D01*
Y777467D01*
X561467Y778000D01*
X560400D01*
X559867Y777467D01*
X556668Y778000D02*
X558801D01*
X556668Y775867D01*
Y775334D01*
X557202Y774801D01*
X558268D01*
X558801Y775334D01*
X555602D02*
X555069Y774801D01*
X554003D01*
X553469Y775334D01*
Y775867D01*
X554003Y776401D01*
X553469Y776934D01*
Y777467D01*
X554003Y778000D01*
X555069D01*
X555602Y777467D01*
Y776934D01*
X555069Y776401D01*
X555602Y775867D01*
Y775334D01*
X555069Y776401D02*
X554003D01*
X274867Y875334D02*
X275400Y874801D01*
X276467D01*
X277000Y875334D01*
Y877467D01*
X276467Y878000D01*
X275400D01*
X274867Y877467D01*
X271668Y878000D02*
X273801D01*
X271668Y875867D01*
Y875334D01*
X272201Y874801D01*
X273268D01*
X273801Y875334D01*
X270602Y877467D02*
X270069Y878000D01*
X269003D01*
X268469Y877467D01*
Y875334D01*
X269003Y874801D01*
X270069D01*
X270602Y875334D01*
Y875867D01*
X270069Y876400D01*
X268469D01*
X329500Y635801D02*
Y639000D01*
X327901D01*
X327367Y638467D01*
Y636334D01*
X327901Y635801D01*
X329500D01*
X326301Y639000D02*
X325235D01*
X325768D01*
Y635801D01*
X326301Y636334D01*
X338000Y1021301D02*
Y1024500D01*
X336401D01*
X335867Y1023967D01*
Y1021834D01*
X336401Y1021301D01*
X338000D01*
X332668Y1024500D02*
X334801D01*
X332668Y1022367D01*
Y1021834D01*
X333202Y1021301D01*
X334268D01*
X334801Y1021834D01*
X346000Y888301D02*
Y891500D01*
X344401D01*
X343867Y890967D01*
Y888834D01*
X344401Y888301D01*
X346000D01*
X342801Y888834D02*
X342268Y888301D01*
X341201D01*
X340668Y888834D01*
Y889367D01*
X341201Y889900D01*
X341735D01*
X341201D01*
X340668Y890434D01*
Y890967D01*
X341201Y891500D01*
X342268D01*
X342801Y890967D01*
X347500Y1006301D02*
Y1009500D01*
X345901D01*
X345367Y1008967D01*
Y1006834D01*
X345901Y1006301D01*
X347500D01*
X342702Y1009500D02*
Y1006301D01*
X344301Y1007901D01*
X342168D01*
X286867Y699301D02*
X289000D01*
Y700901D01*
X287934D01*
X289000D01*
Y702500D01*
X285801D02*
X284735D01*
X285268D01*
Y699301D01*
X285801Y699834D01*
X264367Y1082301D02*
X266500D01*
Y1083901D01*
X265434D01*
X266500D01*
Y1085500D01*
X261168D02*
X263301D01*
X261168Y1083367D01*
Y1082834D01*
X261701Y1082301D01*
X262768D01*
X263301Y1082834D01*
X244301Y996633D02*
Y994500D01*
X245901D01*
Y995566D01*
Y994500D01*
X247500D01*
Y999298D02*
X244301D01*
X245901Y997699D01*
Y999832D01*
X225000Y743500D02*
X221401D01*
Y745299D01*
X222001Y745899D01*
X223201D01*
X223800Y745299D01*
Y743500D01*
X221401Y747099D02*
X225000D01*
X223800Y748298D01*
X225000Y749498D01*
X221401D01*
X225000Y750698D02*
X221401D01*
Y752497D01*
X222001Y753097D01*
X223201D01*
X223800Y752497D01*
Y750698D01*
Y751897D02*
X225000Y753097D01*
X225600Y754296D02*
Y756696D01*
X221401Y757895D02*
Y759095D01*
Y758495D01*
X225000D01*
Y757895D01*
Y759095D01*
Y760894D02*
X221401D01*
X225000Y763294D01*
X221401D01*
X237500Y583500D02*
X233901D01*
Y585299D01*
X234501Y585899D01*
X235701D01*
X236300Y585299D01*
Y583500D01*
Y584700D02*
X237500Y585899D01*
Y587099D02*
X233901D01*
Y588898D01*
X234501Y589498D01*
X235701D01*
X236300Y588898D01*
Y587099D01*
X233901Y590698D02*
Y591897D01*
Y591297D01*
X237500D01*
Y590698D01*
Y591897D01*
X238100Y593697D02*
Y596096D01*
X233901Y597296D02*
Y598495D01*
Y597895D01*
X237500D01*
Y597296D01*
Y598495D01*
Y600295D02*
X233901D01*
X237500Y602694D01*
X233901D01*
X355001Y600399D02*
X354401Y599799D01*
Y598600D01*
X355001Y598000D01*
X355601D01*
X356201Y598600D01*
Y599799D01*
X356800Y600399D01*
X357400D01*
X358000Y599799D01*
Y598600D01*
X357400Y598000D01*
X358000Y601599D02*
Y602798D01*
Y602199D01*
X354401D01*
X355001Y601599D01*
X439501Y600399D02*
X438901Y599799D01*
Y598600D01*
X439501Y598000D01*
X440101D01*
X440701Y598600D01*
Y599799D01*
X441300Y600399D01*
X441900D01*
X442500Y599799D01*
Y598600D01*
X441900Y598000D01*
X442500Y603998D02*
Y601599D01*
X440101Y603998D01*
X439501D01*
X438901Y603398D01*
Y602199D01*
X439501Y601599D01*
X581501Y599899D02*
X580901Y599299D01*
Y598100D01*
X581501Y597500D01*
X582101D01*
X582701Y598100D01*
Y599299D01*
X583300Y599899D01*
X583900D01*
X584500Y599299D01*
Y598100D01*
X583900Y597500D01*
X584500Y602898D02*
X580901D01*
X582701Y601099D01*
Y603498D01*
X513401Y599500D02*
X517000D01*
Y601899D01*
X375401Y598500D02*
Y600899D01*
Y599700D01*
X379000D01*
X567500Y868000D02*
Y864401D01*
X565701D01*
X565101Y865001D01*
Y866201D01*
X565701Y866800D01*
X567500D01*
X566300D02*
X565101Y868000D01*
X561502Y865001D02*
X562102Y864401D01*
X563301D01*
X563901Y865001D01*
Y867400D01*
X563301Y868000D01*
X562102D01*
X561502Y867400D01*
Y866201D01*
X562702D01*
X557903Y868000D02*
X560302D01*
X557903Y865601D01*
Y865001D01*
X558503Y864401D01*
X559702D01*
X560302Y865001D01*
X565000Y952000D02*
Y948401D01*
X563201D01*
X562601Y949001D01*
Y950201D01*
X563201Y950800D01*
X565000D01*
X563800D02*
X562601Y952000D01*
X559002Y949001D02*
X559602Y948401D01*
X560801D01*
X561401Y949001D01*
Y951400D01*
X560801Y952000D01*
X559602D01*
X559002Y951400D01*
Y950201D01*
X560202D01*
X555403Y948401D02*
X556603Y949001D01*
X557802Y950201D01*
Y951400D01*
X557202Y952000D01*
X556003D01*
X555403Y951400D01*
Y950800D01*
X556003Y950201D01*
X557802D01*
X603500Y910500D02*
Y906901D01*
X601701D01*
X601101Y907501D01*
Y908701D01*
X601701Y909300D01*
X603500D01*
X602300D02*
X601101Y910500D01*
X597502Y907501D02*
X598102Y906901D01*
X599301D01*
X599901Y907501D01*
Y909900D01*
X599301Y910500D01*
X598102D01*
X597502Y909900D01*
Y908701D01*
X598702D01*
X596302Y907501D02*
X595703Y906901D01*
X594503D01*
X593903Y907501D01*
Y908101D01*
X594503Y908701D01*
X595103D01*
X594503D01*
X593903Y909300D01*
Y909900D01*
X594503Y910500D01*
X595703D01*
X596302Y909900D01*
X604500Y994000D02*
Y990401D01*
X602701D01*
X602101Y991001D01*
Y992201D01*
X602701Y992800D01*
X604500D01*
X603300D02*
X602101Y994000D01*
X598502Y991001D02*
X599102Y990401D01*
X600301D01*
X600901Y991001D01*
Y993400D01*
X600301Y994000D01*
X599102D01*
X598502Y993400D01*
Y992201D01*
X599702D01*
X597302Y990401D02*
X594903D01*
Y991001D01*
X597302Y993400D01*
Y994000D01*
X565000Y992500D02*
Y988901D01*
X563201D01*
X562601Y989501D01*
Y990701D01*
X563201Y991300D01*
X565000D01*
X563800D02*
X562601Y992500D01*
X559002Y989501D02*
X559602Y988901D01*
X560801D01*
X561401Y989501D01*
Y991900D01*
X560801Y992500D01*
X559602D01*
X559002Y991900D01*
Y990701D01*
X560202D01*
X557802Y989501D02*
X557202Y988901D01*
X556003D01*
X555403Y989501D01*
Y990101D01*
X556003Y990701D01*
X555403Y991300D01*
Y991900D01*
X556003Y992500D01*
X557202D01*
X557802Y991900D01*
Y991300D01*
X557202Y990701D01*
X557802Y990101D01*
Y989501D01*
X557202Y990701D02*
X556003D01*
X600500Y1031901D02*
Y1035500D01*
X598701D01*
X598101Y1034900D01*
Y1034300D01*
X598701Y1033701D01*
X600500D01*
X598701D01*
X598101Y1033101D01*
Y1032501D01*
X598701Y1031901D01*
X600500D01*
X616079Y1093252D02*
X612480D01*
Y1095051D01*
X613080Y1095651D01*
X614279D01*
X614879Y1095051D01*
Y1093252D01*
X612480Y1096851D02*
X616079D01*
X614879Y1098050D01*
X616079Y1099250D01*
X612480D01*
X616079Y1100450D02*
X612480D01*
X613680Y1101649D01*
X612480Y1102849D01*
X616079D01*
Y1104049D02*
Y1105248D01*
Y1104648D01*
X612480D01*
X613080Y1104049D01*
X616079Y1126287D02*
X612480D01*
Y1128087D01*
X613080Y1128687D01*
X614279D01*
X614879Y1128087D01*
Y1126287D01*
X612480Y1129886D02*
X616079D01*
X614879Y1131086D01*
X616079Y1132285D01*
X612480D01*
X616079Y1133485D02*
X612480D01*
X613680Y1134685D01*
X612480Y1135884D01*
X616079D01*
X613080Y1137084D02*
X612480Y1137684D01*
Y1138883D01*
X613080Y1139483D01*
X613680D01*
X614279Y1138883D01*
Y1138284D01*
Y1138883D01*
X614879Y1139483D01*
X615479D01*
X616079Y1138883D01*
Y1137684D01*
X615479Y1137084D01*
X574437Y1092697D02*
X570838D01*
Y1094496D01*
X571438Y1095096D01*
X572638D01*
X573237Y1094496D01*
Y1092697D01*
X570838Y1096296D02*
X574437D01*
X573237Y1097495D01*
X574437Y1098695D01*
X570838D01*
X574437Y1099895D02*
X570838D01*
X572038Y1101094D01*
X570838Y1102294D01*
X574437D01*
Y1105893D02*
Y1103493D01*
X572038Y1105893D01*
X571438D01*
X570838Y1105293D01*
Y1104093D01*
X571438Y1103493D01*
X574780Y1126095D02*
X571181D01*
Y1127894D01*
X571780Y1128494D01*
X572980D01*
X573580Y1127894D01*
Y1126095D01*
X571181Y1129693D02*
X574780D01*
X573580Y1130893D01*
X574780Y1132093D01*
X571181D01*
X574780Y1133292D02*
X571181D01*
X572380Y1134492D01*
X571181Y1135691D01*
X574780D01*
Y1138690D02*
X571181D01*
X572980Y1136891D01*
Y1139290D01*
X615000Y645000D02*
Y641401D01*
X613201D01*
X612601Y642001D01*
Y643201D01*
X613201Y643800D01*
X615000D01*
X611401Y641401D02*
Y645000D01*
X610202Y643800D01*
X609002Y645000D01*
Y641401D01*
X607802Y645000D02*
Y641401D01*
X606603Y642601D01*
X605403Y641401D01*
Y645000D01*
X604204D02*
X603004D01*
X603604D01*
Y641401D01*
X604204Y642001D01*
X600005Y645000D02*
X601204Y643800D01*
Y642601D01*
X600005Y641401D01*
X598205Y645000D02*
Y641401D01*
X596406D01*
X595806Y642001D01*
Y643201D01*
X596406Y643800D01*
X598205D01*
X597006D02*
X595806Y645000D01*
X594607D02*
Y641401D01*
X592807D01*
X592207Y642001D01*
Y643201D01*
X592807Y643800D01*
X594607D01*
X591008Y641401D02*
X589808D01*
X590408D01*
Y645000D01*
X591008D01*
X589808D01*
X588009D02*
X586809Y643800D01*
Y642601D01*
X588009Y641401D01*
X615000Y684500D02*
Y680901D01*
X613201D01*
X612601Y681501D01*
Y682701D01*
X613201Y683300D01*
X615000D01*
X611401Y680901D02*
Y684500D01*
X610202Y683300D01*
X609002Y684500D01*
Y680901D01*
X607802Y684500D02*
Y680901D01*
X606603Y682101D01*
X605403Y680901D01*
Y684500D01*
X601804D02*
X604204D01*
X601804Y682101D01*
Y681501D01*
X602404Y680901D01*
X603604D01*
X604204Y681501D01*
X599405Y684500D02*
X600605Y683300D01*
Y682101D01*
X599405Y680901D01*
X597606Y684500D02*
Y680901D01*
X595806D01*
X595206Y681501D01*
Y682701D01*
X595806Y683300D01*
X597606D01*
X596406D02*
X595206Y684500D01*
X594007D02*
Y680901D01*
X592207D01*
X591608Y681501D01*
Y682701D01*
X592207Y683300D01*
X594007D01*
X590408Y680901D02*
X589208D01*
X589808D01*
Y684500D01*
X590408D01*
X589208D01*
X587409D02*
X586209Y683300D01*
Y682101D01*
X587409Y680901D01*
X619001Y739899D02*
X618401Y739299D01*
Y738100D01*
X619001Y737500D01*
X621400D01*
X622000Y738100D01*
Y739299D01*
X621400Y739899D01*
X620201D01*
Y738700D01*
X622000Y741099D02*
X618401D01*
Y742898D01*
X619001Y743498D01*
X620201D01*
X620800Y742898D01*
Y741099D01*
X618401Y744698D02*
Y745897D01*
Y745297D01*
X622000D01*
Y744698D01*
Y745897D01*
X618401Y749496D02*
Y748296D01*
X619001Y747697D01*
X621400D01*
X622000Y748296D01*
Y749496D01*
X621400Y750096D01*
X619001D01*
X618401Y749496D01*
X622000Y751296D02*
Y752495D01*
Y751895D01*
X618401D01*
X619001Y751296D01*
X618834Y789633D02*
X618301Y789100D01*
Y788033D01*
X618834Y787500D01*
X620967D01*
X621500Y788033D01*
Y789100D01*
X620967Y789633D01*
X619901D01*
Y788566D01*
X621500Y790699D02*
X618301D01*
Y792298D01*
X618834Y792832D01*
X619901D01*
X620434Y792298D01*
Y790699D01*
X618301Y793898D02*
Y794964D01*
Y794431D01*
X621500D01*
Y793898D01*
Y794964D01*
X618301Y798163D02*
Y797097D01*
X618834Y796564D01*
X620967D01*
X621500Y797097D01*
Y798163D01*
X620967Y798696D01*
X618834D01*
X618301Y798163D01*
X621500Y801895D02*
Y799763D01*
X619367Y801895D01*
X618834D01*
X618301Y801362D01*
Y800296D01*
X618834Y799763D01*
X393900Y1151500D02*
X394500Y1152100D01*
Y1153299D01*
X393900Y1153899D01*
X391501D01*
X390901Y1153299D01*
Y1152100D01*
X391501Y1151500D01*
X392101D01*
X392701Y1152100D01*
Y1153899D01*
X390901Y1155099D02*
X393300D01*
X394500Y1156299D01*
X393300Y1157498D01*
X390901D01*
X516000Y1150500D02*
Y1151700D01*
Y1151100D01*
X512401D01*
X513001Y1150500D01*
X516000Y1155898D02*
Y1153499D01*
X513601Y1155898D01*
X513001D01*
X512401Y1155299D01*
Y1154099D01*
X513001Y1153499D01*
X512401Y1157098D02*
X514800D01*
X516000Y1158298D01*
X514800Y1159497D01*
X512401D01*
X472401Y1152500D02*
X474800D01*
X476000Y1153700D01*
X474800Y1154899D01*
X472401D01*
X476000Y1156099D02*
Y1157298D01*
Y1156699D01*
X472401D01*
X473001Y1156099D01*
X430401Y1152000D02*
X432800D01*
X434000Y1153200D01*
X432800Y1154399D01*
X430401D01*
X434000Y1157998D02*
Y1155599D01*
X431601Y1157998D01*
X431001D01*
X430401Y1157398D01*
Y1156199D01*
X431001Y1155599D01*
X276716Y1157421D02*
X275517D01*
X276117D01*
Y1161020D01*
X276716D01*
X275517D01*
X271318D02*
X273717D01*
X271318Y1158620D01*
Y1158021D01*
X271918Y1157421D01*
X273118D01*
X273717Y1158021D01*
X267720D02*
X268319Y1157421D01*
X269519D01*
X270119Y1158021D01*
Y1160420D01*
X269519Y1161020D01*
X268319D01*
X267720Y1160420D01*
X234496Y1075984D02*
Y1072385D01*
X232697D01*
X232097Y1072985D01*
Y1074185D01*
X232697Y1074785D01*
X234496D01*
X230897Y1072385D02*
Y1075984D01*
X229698Y1074785D01*
X228498Y1075984D01*
Y1072385D01*
X227298Y1075984D02*
Y1072385D01*
X225499D01*
X224899Y1072985D01*
Y1074185D01*
X225499Y1074785D01*
X227298D01*
X226099D02*
X224899Y1075984D01*
X223699Y1076584D02*
X221300D01*
X218301Y1072385D02*
X219501D01*
X220101Y1072985D01*
Y1075384D01*
X219501Y1075984D01*
X218301D01*
X217702Y1075384D01*
Y1072985D01*
X218301Y1072385D01*
X216502D02*
Y1075384D01*
X215902Y1075984D01*
X214702D01*
X214103Y1075384D01*
Y1072385D01*
X212903D02*
X210504D01*
X211703D01*
Y1075984D01*
X361301Y775633D02*
Y774566D01*
Y775100D01*
X363967D01*
X364500Y774566D01*
Y774033D01*
X363967Y773500D01*
X364500Y776699D02*
Y777765D01*
Y777232D01*
X361301D01*
X361834Y776699D01*
X362801Y896133D02*
Y895066D01*
Y895599D01*
X365467D01*
X366000Y895066D01*
Y894533D01*
X365467Y894000D01*
X366000Y899332D02*
Y897199D01*
X363867Y899332D01*
X363334D01*
X362801Y898798D01*
Y897732D01*
X363334Y897199D01*
X367000Y1067500D02*
X363401D01*
Y1069299D01*
X364001Y1069899D01*
X365201D01*
X365800Y1069299D01*
Y1067500D01*
Y1068700D02*
X367000Y1069899D01*
X364001Y1073498D02*
X363401Y1072898D01*
Y1071699D01*
X364001Y1071099D01*
X366400D01*
X367000Y1071699D01*
Y1072898D01*
X366400Y1073498D01*
X365201D01*
Y1072299D01*
X367000Y1078296D02*
Y1080096D01*
X366400Y1080696D01*
X365800Y1080096D01*
Y1078896D01*
X365201Y1078296D01*
X364601Y1078896D01*
Y1080696D01*
X367000Y1083695D02*
Y1082495D01*
X366400Y1081895D01*
X365201D01*
X364601Y1082495D01*
Y1083695D01*
X365201Y1084295D01*
X365800D01*
Y1081895D01*
X367000Y1085494D02*
Y1086694D01*
Y1086094D01*
X363401D01*
Y1085494D01*
X367000Y1090293D02*
Y1089093D01*
X366400Y1088493D01*
X365201D01*
X364601Y1089093D01*
Y1090293D01*
X365201Y1090892D01*
X365800D01*
Y1088493D01*
X364601Y1094491D02*
Y1092692D01*
X365201Y1092092D01*
X366400D01*
X367000Y1092692D01*
Y1094491D01*
X364001Y1096291D02*
X364601D01*
Y1095691D01*
Y1096891D01*
Y1096291D01*
X366400D01*
X367000Y1096891D01*
Y1099290D02*
Y1100489D01*
X366400Y1101089D01*
X365201D01*
X364601Y1100489D01*
Y1099290D01*
X365201Y1098690D01*
X366400D01*
X367000Y1099290D01*
X364601Y1102289D02*
X367000D01*
X365800D01*
X365201Y1102889D01*
X364601Y1103488D01*
Y1104088D01*
X478401Y1062500D02*
X482000D01*
Y1064299D01*
X481400Y1064899D01*
X480800D01*
X480201Y1064299D01*
Y1062500D01*
Y1064299D01*
X479601Y1064899D01*
X479001D01*
X478401Y1064299D01*
Y1062500D01*
X482000Y1066099D02*
Y1067299D01*
Y1066699D01*
X478401D01*
Y1066099D01*
X479601Y1069098D02*
X481400D01*
X482000Y1069698D01*
Y1071497D01*
X479601D01*
X482000Y1074496D02*
Y1073297D01*
X481400Y1072697D01*
X480201D01*
X479601Y1073297D01*
Y1074496D01*
X480201Y1075096D01*
X480800D01*
Y1072697D01*
X482000Y1079894D02*
Y1081694D01*
X481400Y1082294D01*
X480800Y1081694D01*
Y1080494D01*
X480201Y1079894D01*
X479601Y1080494D01*
Y1082294D01*
X482000Y1085293D02*
Y1084093D01*
X481400Y1083493D01*
X480201D01*
X479601Y1084093D01*
Y1085293D01*
X480201Y1085892D01*
X480800D01*
Y1083493D01*
X482000Y1087092D02*
Y1088292D01*
Y1087692D01*
X478401D01*
Y1087092D01*
X482000Y1091891D02*
Y1090691D01*
X481400Y1090091D01*
X480201D01*
X479601Y1090691D01*
Y1091891D01*
X480201Y1092490D01*
X480800D01*
Y1090091D01*
X479601Y1096089D02*
Y1094290D01*
X480201Y1093690D01*
X481400D01*
X482000Y1094290D01*
Y1096089D01*
X479001Y1097889D02*
X479601D01*
Y1097289D01*
Y1098488D01*
Y1097889D01*
X481400D01*
X482000Y1098488D01*
Y1100888D02*
Y1102087D01*
X481400Y1102687D01*
X480201D01*
X479601Y1102087D01*
Y1100888D01*
X480201Y1100288D01*
X481400D01*
X482000Y1100888D01*
X479601Y1103887D02*
X482000D01*
X480800D01*
X480201Y1104486D01*
X479601Y1105086D01*
Y1105686D01*
X422401Y1054000D02*
X426000D01*
X424201D01*
Y1056399D01*
X422401D01*
X426000D01*
Y1059398D02*
Y1058199D01*
X425400Y1057599D01*
X424201D01*
X423601Y1058199D01*
Y1059398D01*
X424201Y1059998D01*
X424800D01*
Y1057599D01*
X423601Y1061798D02*
Y1062997D01*
X424201Y1063597D01*
X426000D01*
Y1061798D01*
X425400Y1061198D01*
X424800Y1061798D01*
Y1063597D01*
X423001Y1065396D02*
X423601D01*
Y1064797D01*
Y1065996D01*
Y1065396D01*
X425400D01*
X426000Y1065996D01*
Y1069595D02*
Y1068395D01*
X425400Y1067796D01*
X424201D01*
X423601Y1068395D01*
Y1069595D01*
X424201Y1070195D01*
X424800D01*
Y1067796D01*
X423601Y1071394D02*
X426000D01*
X424800D01*
X424201Y1071994D01*
X423601Y1072594D01*
Y1073194D01*
X426000Y1078592D02*
Y1080392D01*
X425400Y1080991D01*
X424800Y1080392D01*
Y1079192D01*
X424201Y1078592D01*
X423601Y1079192D01*
Y1080991D01*
X426000Y1083990D02*
Y1082791D01*
X425400Y1082191D01*
X424201D01*
X423601Y1082791D01*
Y1083990D01*
X424201Y1084590D01*
X424800D01*
Y1082191D01*
X426000Y1085790D02*
Y1086989D01*
Y1086390D01*
X422401D01*
Y1085790D01*
X426000Y1090588D02*
Y1089389D01*
X425400Y1088789D01*
X424201D01*
X423601Y1089389D01*
Y1090588D01*
X424201Y1091188D01*
X424800D01*
Y1088789D01*
X423601Y1094787D02*
Y1092987D01*
X424201Y1092388D01*
X425400D01*
X426000Y1092987D01*
Y1094787D01*
X423001Y1096586D02*
X423601D01*
Y1095986D01*
Y1097186D01*
Y1096586D01*
X425400D01*
X426000Y1097186D01*
Y1099585D02*
Y1100785D01*
X425400Y1101385D01*
X424201D01*
X423601Y1100785D01*
Y1099585D01*
X424201Y1098985D01*
X425400D01*
X426000Y1099585D01*
X423601Y1102584D02*
X426000D01*
X424800D01*
X424201Y1103184D01*
X423601Y1103784D01*
Y1104384D01*
X231900Y684001D02*
Y684601D01*
X232500D01*
X231300D01*
X231900D01*
Y686400D01*
X231300Y687000D01*
X229501Y688200D02*
Y684601D01*
X227701D01*
X227102Y685201D01*
Y686400D01*
X227701Y687000D01*
X229501D01*
X225902Y685201D02*
X223503D01*
X222303Y687000D02*
Y683401D01*
X220504D01*
X219904Y684001D01*
Y685201D01*
X220504Y685800D01*
X222303D01*
X218704Y683401D02*
Y687000D01*
X217505Y685800D01*
X216305Y687000D01*
Y683401D01*
X215106Y687000D02*
Y683401D01*
X213306D01*
X212706Y684001D01*
Y685201D01*
X213306Y685800D01*
X215106D01*
X213906D02*
X212706Y687000D01*
X211507Y687600D02*
X209107D01*
X207908Y683401D02*
X206708D01*
X207308D01*
Y687000D01*
X207908D01*
X206708D01*
X204909D02*
Y683401D01*
X202510Y687000D01*
Y683401D01*
X362501Y627100D02*
X363101D01*
Y626500D01*
Y627700D01*
Y627100D01*
X364900D01*
X365500Y627700D01*
X366700Y629499D02*
X363101D01*
Y631298D01*
X363701Y631898D01*
X364900D01*
X365500Y631298D01*
Y629499D01*
X363701Y633098D02*
Y635497D01*
X361901Y639096D02*
Y636697D01*
X363701D01*
X363101Y637896D01*
Y638496D01*
X363701Y639096D01*
X364900D01*
X365500Y638496D01*
Y637296D01*
X364900Y636697D01*
X361901Y640296D02*
X364300D01*
X365500Y641495D01*
X364300Y642695D01*
X361901D01*
X453400Y764501D02*
Y765101D01*
X454000D01*
X452800D01*
X453400D01*
Y766900D01*
X452800Y767500D01*
X451001Y768700D02*
Y765101D01*
X449202D01*
X448602Y765701D01*
Y766900D01*
X449202Y767500D01*
X451001D01*
X447402Y765701D02*
X445003D01*
X443803Y764501D02*
X443203Y763901D01*
X442004D01*
X441404Y764501D01*
Y765101D01*
X442004Y765701D01*
X442604D01*
X442004D01*
X441404Y766300D01*
Y766900D01*
X442004Y767500D01*
X443203D01*
X443803Y766900D01*
X440204Y763901D02*
Y766300D01*
X439005Y767500D01*
X437805Y766300D01*
Y763901D01*
X436606Y764501D02*
X436006Y763901D01*
X434806D01*
X434206Y764501D01*
Y765101D01*
X434806Y765701D01*
X435406D01*
X434806D01*
X434206Y766300D01*
Y766900D01*
X434806Y767500D01*
X436006D01*
X436606Y766900D01*
X368501Y1043600D02*
X369101D01*
Y1043000D01*
Y1044200D01*
Y1043600D01*
X370900D01*
X371500Y1044200D01*
X372700Y1045999D02*
X369101D01*
Y1047799D01*
X369701Y1048398D01*
X370900D01*
X371500Y1047799D01*
Y1045999D01*
X369701Y1049598D02*
Y1051997D01*
X370900Y1053197D02*
X371500Y1053796D01*
Y1054996D01*
X370900Y1055596D01*
X368501D01*
X367901Y1054996D01*
Y1053796D01*
X368501Y1053197D01*
X369101D01*
X369701Y1053796D01*
Y1055596D01*
X367901Y1056796D02*
X370300D01*
X371500Y1057995D01*
X370300Y1059195D01*
X367901D01*
X318900Y772001D02*
Y772601D01*
X319500D01*
X318300D01*
X318900D01*
Y774400D01*
X318300Y775000D01*
X316501Y776200D02*
Y772601D01*
X314702D01*
X314102Y773201D01*
Y774400D01*
X314702Y775000D01*
X316501D01*
X312902Y773201D02*
X310503D01*
X309303Y771401D02*
Y773800D01*
X308104Y775000D01*
X306904Y773800D01*
Y771401D01*
X305704Y775000D02*
X304505D01*
X305105D01*
Y771401D01*
X305704Y772001D01*
X320900Y887501D02*
Y888101D01*
X321500D01*
X320300D01*
X320900D01*
Y889900D01*
X320300Y890500D01*
X318501Y891700D02*
Y888101D01*
X316702D01*
X316102Y888701D01*
Y889900D01*
X316702Y890500D01*
X318501D01*
X314902Y888701D02*
X312503D01*
X311303Y886901D02*
Y889300D01*
X310104Y890500D01*
X308904Y889300D01*
Y886901D01*
X305305Y890500D02*
X307704D01*
X305305Y888101D01*
Y887501D01*
X305905Y886901D01*
X307105D01*
X307704Y887501D01*
X417400Y1105501D02*
Y1106101D01*
X418000D01*
X416800D01*
X417400D01*
Y1107900D01*
X416800Y1108500D01*
X415001Y1109700D02*
Y1106101D01*
X413202D01*
X412602Y1106701D01*
Y1107900D01*
X413202Y1108500D01*
X415001D01*
X411402Y1106701D02*
X409003D01*
X407803Y1108500D02*
Y1104901D01*
X406004D01*
X405404Y1105501D01*
Y1106701D01*
X406004Y1107300D01*
X407803D01*
X406604D02*
X405404Y1108500D01*
X401805Y1105501D02*
X402405Y1104901D01*
X403605D01*
X404204Y1105501D01*
Y1107900D01*
X403605Y1108500D01*
X402405D01*
X401805Y1107900D01*
Y1106701D01*
X403005D01*
X400606Y1108500D02*
X398806Y1106701D01*
X400606Y1104901D01*
X532400Y1108501D02*
Y1109101D01*
X533000D01*
X531800D01*
X532400D01*
Y1110900D01*
X531800Y1111500D01*
X530001Y1112700D02*
Y1109101D01*
X528202D01*
X527602Y1109701D01*
Y1110900D01*
X528202Y1111500D01*
X530001D01*
X526402Y1109701D02*
X524003D01*
X522803Y1107901D02*
Y1111500D01*
X521004D01*
X520404Y1110900D01*
Y1110300D01*
X521004Y1109701D01*
X522803D01*
X521004D01*
X520404Y1109101D01*
Y1108501D01*
X521004Y1107901D01*
X522803D01*
X519204D02*
Y1111500D01*
X516805D01*
X515606Y1107901D02*
Y1110900D01*
X515006Y1111500D01*
X513806D01*
X513206Y1110900D01*
Y1107901D01*
X509608D02*
X512007D01*
Y1111500D01*
X509608D01*
X512007Y1109701D02*
X510807D01*
X508408Y1111500D02*
X506608Y1109701D01*
X508408Y1107901D01*
X478900Y1109501D02*
Y1110101D01*
X479500D01*
X478300D01*
X478900D01*
Y1111900D01*
X478300Y1112500D01*
X476501Y1113700D02*
Y1110101D01*
X474702D01*
X474102Y1110701D01*
Y1111900D01*
X474702Y1112500D01*
X476501D01*
X472902Y1110701D02*
X470503D01*
X469303Y1108901D02*
Y1112500D01*
Y1110701D01*
X466904D01*
Y1108901D01*
Y1112500D01*
X463305Y1108901D02*
X465704D01*
Y1112500D01*
X463305D01*
X465704Y1110701D02*
X464505D01*
X462106Y1112500D02*
Y1110101D01*
X460906Y1108901D01*
X459706Y1110101D01*
Y1112500D01*
Y1110701D01*
X462106D01*
X458507Y1108901D02*
X456108D01*
X457307D01*
Y1112500D01*
X452509Y1108901D02*
X454908D01*
Y1112500D01*
X452509D01*
X454908Y1110701D02*
X453708D01*
X451309Y1112500D02*
Y1108901D01*
X449510D01*
X448910Y1109501D01*
Y1110701D01*
X449510Y1111300D01*
X451309D01*
X450109D02*
X448910Y1112500D01*
X447710D02*
X445911Y1110701D01*
X447710Y1108901D01*
X285801Y991500D02*
X289000D01*
Y993633D01*
Y996299D02*
X285801D01*
X287401Y994699D01*
Y996832D01*
X540367Y951967D02*
Y949834D01*
X540901Y949301D01*
X541967D01*
X542500Y949834D01*
Y951967D01*
X541967Y952500D01*
X540901D01*
X541434Y951434D02*
X540367Y952500D01*
X540901D02*
X540367Y951967D01*
X539301Y952500D02*
X538235D01*
X538768D01*
Y949301D01*
X539301Y949834D01*
X536635Y953033D02*
X534503D01*
X533436Y952500D02*
X532370D01*
X532903D01*
Y949301D01*
X533436Y949834D01*
X540867Y985967D02*
Y983834D01*
X541400Y983301D01*
X542467D01*
X543000Y983834D01*
Y985967D01*
X542467Y986500D01*
X541400D01*
X541934Y985434D02*
X540867Y986500D01*
X541400D02*
X540867Y985967D01*
X539801Y986500D02*
X538735D01*
X539268D01*
Y983301D01*
X539801Y983834D01*
X537135Y987033D02*
X535003D01*
X531804Y986500D02*
X533936D01*
X531804Y984367D01*
Y983834D01*
X532337Y983301D01*
X533403D01*
X533936Y983834D01*
X540867Y1020467D02*
Y1018334D01*
X541400Y1017801D01*
X542467D01*
X543000Y1018334D01*
Y1020467D01*
X542467Y1021000D01*
X541400D01*
X541934Y1019934D02*
X540867Y1021000D01*
X541400D02*
X540867Y1020467D01*
X539801Y1021000D02*
X538735D01*
X539268D01*
Y1017801D01*
X539801Y1018334D01*
X537135Y1021533D02*
X535003D01*
X533936Y1018334D02*
X533403Y1017801D01*
X532337D01*
X531804Y1018334D01*
Y1018867D01*
X532337Y1019401D01*
X532870D01*
X532337D01*
X531804Y1019934D01*
Y1020467D01*
X532337Y1021000D01*
X533403D01*
X533936Y1020467D01*
X540867Y1056467D02*
Y1054334D01*
X541400Y1053801D01*
X542467D01*
X543000Y1054334D01*
Y1056467D01*
X542467Y1057000D01*
X541400D01*
X541934Y1055934D02*
X540867Y1057000D01*
X541400D02*
X540867Y1056467D01*
X539801Y1057000D02*
X538735D01*
X539268D01*
Y1053801D01*
X539801Y1054334D01*
X537135Y1057533D02*
X535003D01*
X532337Y1057000D02*
Y1053801D01*
X533936Y1055400D01*
X531804D01*
X407000Y581000D02*
Y577801D01*
X405401D01*
X404867Y578334D01*
Y579400D01*
X405401Y579934D01*
X407000D01*
X405934D02*
X404867Y581000D01*
X403801D02*
X402735D01*
X403268D01*
Y577801D01*
X403801Y578334D01*
X395500Y568500D02*
Y565301D01*
X393900D01*
X393367Y565834D01*
Y566900D01*
X393900Y567434D01*
X395500D01*
X394434D02*
X393367Y568500D01*
X390168D02*
X392301D01*
X390168Y566367D01*
Y565834D01*
X390702Y565301D01*
X391768D01*
X392301Y565834D01*
X546000Y581000D02*
Y577801D01*
X544401D01*
X543867Y578334D01*
Y579400D01*
X544401Y579934D01*
X546000D01*
X544934D02*
X543867Y581000D01*
X542801Y578334D02*
X542268Y577801D01*
X541202D01*
X540668Y578334D01*
Y578867D01*
X541202Y579400D01*
X541735D01*
X541202D01*
X540668Y579934D01*
Y580467D01*
X541202Y581000D01*
X542268D01*
X542801Y580467D01*
X533500Y569500D02*
Y566301D01*
X531901D01*
X531367Y566834D01*
Y567901D01*
X531901Y568434D01*
X533500D01*
X532434D02*
X531367Y569500D01*
X528702D02*
Y566301D01*
X530301Y567901D01*
X528168D01*
X315500Y1019500D02*
X312301D01*
Y1021099D01*
X312834Y1021633D01*
X313900D01*
X314434Y1021099D01*
Y1019500D01*
Y1020566D02*
X315500Y1021633D01*
X312301Y1024832D02*
Y1022699D01*
X313900D01*
X313367Y1023765D01*
Y1024298D01*
X313900Y1024832D01*
X314967D01*
X315500Y1024298D01*
Y1023232D01*
X314967Y1022699D01*
X306500Y1019500D02*
X303301D01*
Y1021099D01*
X303834Y1021633D01*
X304901D01*
X305434Y1021099D01*
Y1019500D01*
Y1020566D02*
X306500Y1021633D01*
X303301Y1024832D02*
X303834Y1023765D01*
X304901Y1022699D01*
X305967D01*
X306500Y1023232D01*
Y1024298D01*
X305967Y1024832D01*
X305434D01*
X304901Y1024298D01*
Y1022699D01*
X338500Y938000D02*
Y934801D01*
X336900D01*
X336367Y935334D01*
Y936401D01*
X336900Y936934D01*
X338500D01*
X337434D02*
X336367Y938000D01*
X335301D02*
X334235D01*
X334768D01*
Y934801D01*
X335301Y935334D01*
X332635Y938000D02*
X331569D01*
X332102D01*
Y934801D01*
X332635Y935334D01*
X353000Y920000D02*
Y916801D01*
X351400D01*
X350867Y917334D01*
Y918400D01*
X351400Y918934D01*
X353000D01*
X351934D02*
X350867Y920000D01*
X349801D02*
X348735D01*
X349268D01*
Y916801D01*
X349801Y917334D01*
X345003Y920000D02*
X347135D01*
X345003Y917867D01*
Y917334D01*
X345536Y916801D01*
X346602D01*
X347135Y917334D01*
X353000Y912500D02*
Y909301D01*
X351400D01*
X350867Y909834D01*
Y910900D01*
X351400Y911434D01*
X353000D01*
X351934D02*
X350867Y912500D01*
X349801D02*
X348735D01*
X349268D01*
Y909301D01*
X349801Y909834D01*
X347135D02*
X346602Y909301D01*
X345536D01*
X345003Y909834D01*
Y910367D01*
X345536Y910900D01*
X346069D01*
X345536D01*
X345003Y911434D01*
Y911967D01*
X345536Y912500D01*
X346602D01*
X347135Y911967D01*
X351500Y903500D02*
Y900301D01*
X349901D01*
X349367Y900834D01*
Y901900D01*
X349901Y902434D01*
X351500D01*
X350434D02*
X349367Y903500D01*
X348301D02*
X347235D01*
X347768D01*
Y900301D01*
X348301Y900834D01*
X344036Y903500D02*
Y900301D01*
X345635Y901900D01*
X343503D01*
X504000Y930000D02*
Y926801D01*
X502400D01*
X501867Y927334D01*
Y928401D01*
X502400Y928934D01*
X504000D01*
X502934D02*
X501867Y930000D01*
X500801D02*
X499735D01*
X500268D01*
Y926801D01*
X500801Y927334D01*
X496003Y926801D02*
X498135D01*
Y928401D01*
X497069Y927867D01*
X496536D01*
X496003Y928401D01*
Y929467D01*
X496536Y930000D01*
X497602D01*
X498135Y929467D01*
X494936Y930533D02*
X492804D01*
X491737Y930000D02*
X490671D01*
X491204D01*
Y926801D01*
X491737Y927334D01*
X508500Y963000D02*
Y959801D01*
X506901D01*
X506367Y960334D01*
Y961401D01*
X506901Y961934D01*
X508500D01*
X507434D02*
X506367Y963000D01*
X505301D02*
X504235D01*
X504768D01*
Y959801D01*
X505301Y960334D01*
X500503Y959801D02*
X502635D01*
Y961401D01*
X501569Y960867D01*
X501036D01*
X500503Y961401D01*
Y962467D01*
X501036Y963000D01*
X502102D01*
X502635Y962467D01*
X499436Y963533D02*
X497304D01*
X494105Y963000D02*
X496237D01*
X494105Y960867D01*
Y960334D01*
X494638Y959801D01*
X495704D01*
X496237Y960334D01*
X495000Y1008000D02*
X491801D01*
Y1009599D01*
X492334Y1010133D01*
X493400D01*
X493934Y1009599D01*
Y1008000D01*
Y1009066D02*
X495000Y1010133D01*
Y1011199D02*
Y1012265D01*
Y1011732D01*
X491801D01*
X492334Y1011199D01*
X491801Y1015997D02*
Y1013865D01*
X493400D01*
X492867Y1014931D01*
Y1015464D01*
X493400Y1015997D01*
X494467D01*
X495000Y1015464D01*
Y1014398D01*
X494467Y1013865D01*
X495533Y1017064D02*
Y1019196D01*
X492334Y1020263D02*
X491801Y1020796D01*
Y1021862D01*
X492334Y1022395D01*
X492867D01*
X493400Y1021862D01*
Y1021329D01*
Y1021862D01*
X493934Y1022395D01*
X494467D01*
X495000Y1021862D01*
Y1020796D01*
X494467Y1020263D01*
X506000Y1034500D02*
Y1031301D01*
X504400D01*
X503867Y1031834D01*
Y1032901D01*
X504400Y1033434D01*
X506000D01*
X504934D02*
X503867Y1034500D01*
X502801D02*
X501735D01*
X502268D01*
Y1031301D01*
X502801Y1031834D01*
X498003Y1031301D02*
X500135D01*
Y1032901D01*
X499069Y1032367D01*
X498536D01*
X498003Y1032901D01*
Y1033967D01*
X498536Y1034500D01*
X499602D01*
X500135Y1033967D01*
X496936Y1035033D02*
X494804D01*
X492138Y1034500D02*
Y1031301D01*
X493737Y1032901D01*
X491605D01*
X537500Y929000D02*
Y925801D01*
X535900D01*
X535367Y926334D01*
Y927400D01*
X535900Y927934D01*
X537500D01*
X536434D02*
X535367Y929000D01*
X534301D02*
X533235D01*
X533768D01*
Y925801D01*
X534301Y926334D01*
X529503Y925801D02*
X530569Y926334D01*
X531635Y927400D01*
Y928467D01*
X531102Y929000D01*
X530036D01*
X529503Y928467D01*
Y927934D01*
X530036Y927400D01*
X531635D01*
X528436Y929533D02*
X526304D01*
X525237Y929000D02*
X524171D01*
X524704D01*
Y925801D01*
X525237Y926334D01*
X538000Y963000D02*
Y959801D01*
X536401D01*
X535867Y960334D01*
Y961401D01*
X536401Y961934D01*
X538000D01*
X536934D02*
X535867Y963000D01*
X534801D02*
X533735D01*
X534268D01*
Y959801D01*
X534801Y960334D01*
X530003Y959801D02*
X531069Y960334D01*
X532135Y961401D01*
Y962467D01*
X531602Y963000D01*
X530536D01*
X530003Y962467D01*
Y961934D01*
X530536Y961401D01*
X532135D01*
X528936Y963533D02*
X526804D01*
X523605Y963000D02*
X525737D01*
X523605Y960867D01*
Y960334D01*
X524138Y959801D01*
X525204D01*
X525737Y960334D01*
X538000Y998500D02*
Y995301D01*
X536401D01*
X535867Y995834D01*
Y996900D01*
X536401Y997434D01*
X538000D01*
X536934D02*
X535867Y998500D01*
X534801D02*
X533735D01*
X534268D01*
Y995301D01*
X534801Y995834D01*
X530003Y995301D02*
X531069Y995834D01*
X532135Y996900D01*
Y997967D01*
X531602Y998500D01*
X530536D01*
X530003Y997967D01*
Y997434D01*
X530536Y996900D01*
X532135D01*
X528936Y999033D02*
X526804D01*
X525737Y995834D02*
X525204Y995301D01*
X524138D01*
X523605Y995834D01*
Y996367D01*
X524138Y996900D01*
X524671D01*
X524138D01*
X523605Y997434D01*
Y997967D01*
X524138Y998500D01*
X525204D01*
X525737Y997967D01*
X538500Y1034000D02*
Y1030801D01*
X536901D01*
X536367Y1031334D01*
Y1032401D01*
X536901Y1032934D01*
X538500D01*
X537434D02*
X536367Y1034000D01*
X535301D02*
X534235D01*
X534768D01*
Y1030801D01*
X535301Y1031334D01*
X530503Y1030801D02*
X531569Y1031334D01*
X532635Y1032401D01*
Y1033467D01*
X532102Y1034000D01*
X531036D01*
X530503Y1033467D01*
Y1032934D01*
X531036Y1032401D01*
X532635D01*
X529436Y1034533D02*
X527304D01*
X524638Y1034000D02*
Y1030801D01*
X526237Y1032401D01*
X524105D01*
X435500Y1041500D02*
Y1038301D01*
X433900D01*
X433367Y1038834D01*
Y1039900D01*
X433900Y1040434D01*
X435500D01*
X434434D02*
X433367Y1041500D01*
X432301D02*
X431235D01*
X431768D01*
Y1038301D01*
X432301Y1038834D01*
X429635Y1038301D02*
X427503D01*
Y1038834D01*
X429635Y1040967D01*
Y1041500D01*
X458500D02*
Y1038301D01*
X456901D01*
X456367Y1038834D01*
Y1039900D01*
X456901Y1040434D01*
X458500D01*
X457434D02*
X456367Y1041500D01*
X455301D02*
X454235D01*
X454768D01*
Y1038301D01*
X455301Y1038834D01*
X452635D02*
X452102Y1038301D01*
X451036D01*
X450503Y1038834D01*
Y1039367D01*
X451036Y1039900D01*
X450503Y1040434D01*
Y1040967D01*
X451036Y1041500D01*
X452102D01*
X452635Y1040967D01*
Y1040434D01*
X452102Y1039900D01*
X452635Y1039367D01*
Y1038834D01*
X452102Y1039900D02*
X451036D01*
X423500Y1026500D02*
Y1023301D01*
X421901D01*
X421367Y1023834D01*
Y1024901D01*
X421901Y1025434D01*
X423500D01*
X422434D02*
X421367Y1026500D01*
X420301D02*
X419235D01*
X419768D01*
Y1023301D01*
X420301Y1023834D01*
X417635Y1025967D02*
X417102Y1026500D01*
X416036D01*
X415503Y1025967D01*
Y1023834D01*
X416036Y1023301D01*
X417102D01*
X417635Y1023834D01*
Y1024367D01*
X417102Y1024901D01*
X415503D01*
X415500Y1039000D02*
X412301D01*
Y1040600D01*
X412834Y1041133D01*
X413901D01*
X414434Y1040600D01*
Y1039000D01*
Y1040066D02*
X415500Y1041133D01*
Y1044332D02*
Y1042199D01*
X413367Y1044332D01*
X412834D01*
X412301Y1043799D01*
Y1042732D01*
X412834Y1042199D01*
Y1045398D02*
X412301Y1045931D01*
Y1046997D01*
X412834Y1047531D01*
X414967D01*
X415500Y1046997D01*
Y1045931D01*
X414967Y1045398D01*
X412834D01*
X404500Y1039000D02*
X401301D01*
Y1040600D01*
X401834Y1041133D01*
X402901D01*
X403434Y1040600D01*
Y1039000D01*
Y1040066D02*
X404500Y1041133D01*
Y1044332D02*
Y1042199D01*
X402367Y1044332D01*
X401834D01*
X401301Y1043799D01*
Y1042732D01*
X401834Y1042199D01*
X404500Y1045398D02*
Y1046464D01*
Y1045931D01*
X401301D01*
X401834Y1045398D01*
X395000Y1028000D02*
X391801D01*
Y1029599D01*
X392334Y1030133D01*
X393401D01*
X393934Y1029599D01*
Y1028000D01*
Y1029066D02*
X395000Y1030133D01*
Y1033332D02*
Y1031199D01*
X392867Y1033332D01*
X392334D01*
X391801Y1032798D01*
Y1031732D01*
X392334Y1031199D01*
X395000Y1036531D02*
Y1034398D01*
X392867Y1036531D01*
X392334D01*
X391801Y1035997D01*
Y1034931D01*
X392334Y1034398D01*
X422000Y1012000D02*
X418801D01*
Y1013599D01*
X419334Y1014133D01*
X420400D01*
X420934Y1013599D01*
Y1012000D01*
Y1013066D02*
X422000Y1014133D01*
Y1017332D02*
Y1015199D01*
X419867Y1017332D01*
X419334D01*
X418801Y1016798D01*
Y1015732D01*
X419334Y1015199D01*
Y1018398D02*
X418801Y1018931D01*
Y1019997D01*
X419334Y1020531D01*
X419867D01*
X420400Y1019997D01*
Y1019464D01*
Y1019997D01*
X420934Y1020531D01*
X421467D01*
X422000Y1019997D01*
Y1018931D01*
X421467Y1018398D01*
X404500Y1012000D02*
X401301D01*
Y1013599D01*
X401834Y1014133D01*
X402901D01*
X403434Y1013599D01*
Y1012000D01*
Y1013066D02*
X404500Y1014133D01*
Y1017332D02*
Y1015199D01*
X402367Y1017332D01*
X401834D01*
X401301Y1016798D01*
Y1015732D01*
X401834Y1015199D01*
X404500Y1019997D02*
X401301D01*
X402901Y1018398D01*
Y1020531D01*
X422000Y998500D02*
X418801D01*
Y1000099D01*
X419334Y1000633D01*
X420400D01*
X420934Y1000099D01*
Y998500D01*
Y999566D02*
X422000Y1000633D01*
Y1003832D02*
Y1001699D01*
X419867Y1003832D01*
X419334D01*
X418801Y1003298D01*
Y1002232D01*
X419334Y1001699D01*
X418801Y1007031D02*
Y1004898D01*
X420400D01*
X419867Y1005964D01*
Y1006497D01*
X420400Y1007031D01*
X421467D01*
X422000Y1006497D01*
Y1005431D01*
X421467Y1004898D01*
X404500Y998000D02*
X401301D01*
Y999599D01*
X401834Y1000133D01*
X402901D01*
X403434Y999599D01*
Y998000D01*
Y999066D02*
X404500Y1000133D01*
Y1003332D02*
Y1001199D01*
X402367Y1003332D01*
X401834D01*
X401301Y1002798D01*
Y1001732D01*
X401834Y1001199D01*
X401301Y1006531D02*
X401834Y1005464D01*
X402901Y1004398D01*
X403967D01*
X404500Y1004931D01*
Y1005997D01*
X403967Y1006531D01*
X403434D01*
X402901Y1005997D01*
Y1004398D01*
X422537Y984797D02*
X419338D01*
Y986397D01*
X419872Y986930D01*
X420938D01*
X421471Y986397D01*
Y984797D01*
Y985864D02*
X422537Y986930D01*
Y990129D02*
Y987996D01*
X420405Y990129D01*
X419872D01*
X419338Y989596D01*
Y988529D01*
X419872Y987996D01*
X419338Y991195D02*
Y993328D01*
X419872D01*
X422004Y991195D01*
X422537D01*
X405000Y984500D02*
X401801D01*
Y986100D01*
X402334Y986633D01*
X403401D01*
X403934Y986100D01*
Y984500D01*
Y985566D02*
X405000Y986633D01*
Y989832D02*
Y987699D01*
X402867Y989832D01*
X402334D01*
X401801Y989299D01*
Y988232D01*
X402334Y987699D01*
Y990898D02*
X401801Y991431D01*
Y992497D01*
X402334Y993031D01*
X402867D01*
X403401Y992497D01*
X403934Y993031D01*
X404467D01*
X405000Y992497D01*
Y991431D01*
X404467Y990898D01*
X403934D01*
X403401Y991431D01*
X402867Y990898D01*
X402334D01*
X403401Y991431D02*
Y992497D01*
X422500Y970500D02*
X419301D01*
Y972099D01*
X419834Y972633D01*
X420900D01*
X421434Y972099D01*
Y970500D01*
Y971566D02*
X422500Y972633D01*
Y975832D02*
Y973699D01*
X420367Y975832D01*
X419834D01*
X419301Y975299D01*
Y974232D01*
X419834Y973699D01*
X421967Y976898D02*
X422500Y977431D01*
Y978497D01*
X421967Y979031D01*
X419834D01*
X419301Y978497D01*
Y977431D01*
X419834Y976898D01*
X420367D01*
X420900Y977431D01*
Y979031D01*
X405000Y969500D02*
X401801D01*
Y971099D01*
X402334Y971633D01*
X403401D01*
X403934Y971099D01*
Y969500D01*
Y970566D02*
X405000Y971633D01*
X402334Y972699D02*
X401801Y973232D01*
Y974298D01*
X402334Y974832D01*
X402867D01*
X403401Y974298D01*
Y973765D01*
Y974298D01*
X403934Y974832D01*
X404467D01*
X405000Y974298D01*
Y973232D01*
X404467Y972699D01*
X402334Y975898D02*
X401801Y976431D01*
Y977497D01*
X402334Y978031D01*
X404467D01*
X405000Y977497D01*
Y976431D01*
X404467Y975898D01*
X402334D01*
X465000Y1038500D02*
X461801D01*
Y1040100D01*
X462334Y1040633D01*
X463401D01*
X463934Y1040100D01*
Y1038500D01*
Y1039566D02*
X465000Y1040633D01*
X462334Y1041699D02*
X461801Y1042232D01*
Y1043299D01*
X462334Y1043832D01*
X462867D01*
X463401Y1043299D01*
Y1042765D01*
Y1043299D01*
X463934Y1043832D01*
X464467D01*
X465000Y1043299D01*
Y1042232D01*
X464467Y1041699D01*
X465000Y1044898D02*
Y1045964D01*
Y1045431D01*
X461801D01*
X462334Y1044898D01*
X471000Y1038500D02*
X467801D01*
Y1040100D01*
X468334Y1040633D01*
X469401D01*
X469934Y1040100D01*
Y1038500D01*
Y1039566D02*
X471000Y1040633D01*
X468334Y1041699D02*
X467801Y1042232D01*
Y1043299D01*
X468334Y1043832D01*
X468867D01*
X469401Y1043299D01*
Y1042765D01*
Y1043299D01*
X469934Y1043832D01*
X470467D01*
X471000Y1043299D01*
Y1042232D01*
X470467Y1041699D01*
X471000Y1047031D02*
Y1044898D01*
X468867Y1047031D01*
X468334D01*
X467801Y1046497D01*
Y1045431D01*
X468334Y1044898D01*
X465000Y1012500D02*
X461801D01*
Y1014100D01*
X462334Y1014633D01*
X463401D01*
X463934Y1014100D01*
Y1012500D01*
Y1013566D02*
X465000Y1014633D01*
X462334Y1015699D02*
X461801Y1016232D01*
Y1017299D01*
X462334Y1017832D01*
X462867D01*
X463401Y1017299D01*
Y1016765D01*
Y1017299D01*
X463934Y1017832D01*
X464467D01*
X465000Y1017299D01*
Y1016232D01*
X464467Y1015699D01*
X462334Y1018898D02*
X461801Y1019431D01*
Y1020497D01*
X462334Y1021031D01*
X462867D01*
X463401Y1020497D01*
Y1019964D01*
Y1020497D01*
X463934Y1021031D01*
X464467D01*
X465000Y1020497D01*
Y1019431D01*
X464467Y1018898D01*
X482500Y1012500D02*
X479301D01*
Y1014100D01*
X479834Y1014633D01*
X480900D01*
X481434Y1014100D01*
Y1012500D01*
Y1013566D02*
X482500Y1014633D01*
X479834Y1015699D02*
X479301Y1016232D01*
Y1017299D01*
X479834Y1017832D01*
X480367D01*
X480900Y1017299D01*
Y1016765D01*
Y1017299D01*
X481434Y1017832D01*
X481967D01*
X482500Y1017299D01*
Y1016232D01*
X481967Y1015699D01*
X482500Y1020497D02*
X479301D01*
X480900Y1018898D01*
Y1021031D01*
X465500Y998500D02*
X462301D01*
Y1000099D01*
X462834Y1000633D01*
X463901D01*
X464434Y1000099D01*
Y998500D01*
Y999566D02*
X465500Y1000633D01*
X462834Y1001699D02*
X462301Y1002232D01*
Y1003298D01*
X462834Y1003832D01*
X463367D01*
X463901Y1003298D01*
Y1002765D01*
Y1003298D01*
X464434Y1003832D01*
X464967D01*
X465500Y1003298D01*
Y1002232D01*
X464967Y1001699D01*
X462301Y1007031D02*
Y1004898D01*
X463901D01*
X463367Y1005964D01*
Y1006497D01*
X463901Y1007031D01*
X464967D01*
X465500Y1006497D01*
Y1005431D01*
X464967Y1004898D01*
X482500Y998500D02*
X479301D01*
Y1000099D01*
X479834Y1000633D01*
X480900D01*
X481434Y1000099D01*
Y998500D01*
Y999566D02*
X482500Y1000633D01*
X479834Y1001699D02*
X479301Y1002232D01*
Y1003298D01*
X479834Y1003832D01*
X480367D01*
X480900Y1003298D01*
Y1002765D01*
Y1003298D01*
X481434Y1003832D01*
X481967D01*
X482500Y1003298D01*
Y1002232D01*
X481967Y1001699D01*
X479301Y1007031D02*
X479834Y1005964D01*
X480900Y1004898D01*
X481967D01*
X482500Y1005431D01*
Y1006497D01*
X481967Y1007031D01*
X481434D01*
X480900Y1006497D01*
Y1004898D01*
X465500Y985500D02*
X462301D01*
Y987099D01*
X462834Y987633D01*
X463901D01*
X464434Y987099D01*
Y985500D01*
Y986566D02*
X465500Y987633D01*
X462834Y988699D02*
X462301Y989232D01*
Y990298D01*
X462834Y990832D01*
X463367D01*
X463901Y990298D01*
Y989765D01*
Y990298D01*
X464434Y990832D01*
X464967D01*
X465500Y990298D01*
Y989232D01*
X464967Y988699D01*
X462301Y991898D02*
Y994031D01*
X462834D01*
X464967Y991898D01*
X465500D01*
X482500Y985500D02*
X479301D01*
Y987099D01*
X479834Y987633D01*
X480900D01*
X481434Y987099D01*
Y985500D01*
Y986566D02*
X482500Y987633D01*
X479834Y988699D02*
X479301Y989232D01*
Y990298D01*
X479834Y990832D01*
X480367D01*
X480900Y990298D01*
Y989765D01*
Y990298D01*
X481434Y990832D01*
X481967D01*
X482500Y990298D01*
Y989232D01*
X481967Y988699D01*
X479834Y991898D02*
X479301Y992431D01*
Y993497D01*
X479834Y994031D01*
X480367D01*
X480900Y993497D01*
X481434Y994031D01*
X481967D01*
X482500Y993497D01*
Y992431D01*
X481967Y991898D01*
X481434D01*
X480900Y992431D01*
X480367Y991898D01*
X479834D01*
X480900Y992431D02*
Y993497D01*
X465500Y971000D02*
X462301D01*
Y972600D01*
X462834Y973133D01*
X463901D01*
X464434Y972600D01*
Y971000D01*
Y972066D02*
X465500Y973133D01*
X462834Y974199D02*
X462301Y974732D01*
Y975799D01*
X462834Y976332D01*
X463367D01*
X463901Y975799D01*
Y975265D01*
Y975799D01*
X464434Y976332D01*
X464967D01*
X465500Y975799D01*
Y974732D01*
X464967Y974199D01*
Y977398D02*
X465500Y977931D01*
Y978997D01*
X464967Y979531D01*
X462834D01*
X462301Y978997D01*
Y977931D01*
X462834Y977398D01*
X463367D01*
X463901Y977931D01*
Y979531D01*
X482500Y970500D02*
X479301D01*
Y972099D01*
X479834Y972633D01*
X480900D01*
X481434Y972099D01*
Y970500D01*
Y971566D02*
X482500Y972633D01*
Y975299D02*
X479301D01*
X480900Y973699D01*
Y975832D01*
X479834Y976898D02*
X479301Y977431D01*
Y978497D01*
X479834Y979031D01*
X481967D01*
X482500Y978497D01*
Y977431D01*
X481967Y976898D01*
X479834D01*
X477000Y1038500D02*
X473801D01*
Y1040100D01*
X474334Y1040633D01*
X475400D01*
X475934Y1040100D01*
Y1038500D01*
Y1039566D02*
X477000Y1040633D01*
Y1043299D02*
X473801D01*
X475400Y1041699D01*
Y1043832D01*
X477000Y1044898D02*
Y1045964D01*
Y1045431D01*
X473801D01*
X474334Y1044898D01*
X483000Y1038500D02*
X479801D01*
Y1040100D01*
X480334Y1040633D01*
X481400D01*
X481934Y1040100D01*
Y1038500D01*
Y1039566D02*
X483000Y1040633D01*
Y1043299D02*
X479801D01*
X481400Y1041699D01*
Y1043832D01*
X483000Y1047031D02*
Y1044898D01*
X480867Y1047031D01*
X480334D01*
X479801Y1046497D01*
Y1045431D01*
X480334Y1044898D01*
X438500Y655500D02*
X435301D01*
Y657099D01*
X435834Y657633D01*
X436901D01*
X437434Y657099D01*
Y655500D01*
Y656566D02*
X438500Y657633D01*
Y660298D02*
X435301D01*
X436901Y658699D01*
Y660832D01*
X435834Y661898D02*
X435301Y662431D01*
Y663497D01*
X435834Y664031D01*
X436367D01*
X436901Y663497D01*
Y662964D01*
Y663497D01*
X437434Y664031D01*
X437967D01*
X438500Y663497D01*
Y662431D01*
X437967Y661898D01*
X439033Y665097D02*
Y667230D01*
X438500Y668296D02*
Y669362D01*
Y668829D01*
X435301D01*
X435834Y668296D01*
X483000Y676500D02*
X479801D01*
Y678099D01*
X480334Y678633D01*
X481400D01*
X481934Y678099D01*
Y676500D01*
Y677566D02*
X483000Y678633D01*
Y681298D02*
X479801D01*
X481400Y679699D01*
Y681832D01*
X480334Y682898D02*
X479801Y683431D01*
Y684497D01*
X480334Y685031D01*
X480867D01*
X481400Y684497D01*
Y683964D01*
Y684497D01*
X481934Y685031D01*
X482467D01*
X483000Y684497D01*
Y683431D01*
X482467Y682898D01*
X483533Y686097D02*
Y688230D01*
X483000Y691429D02*
Y689296D01*
X480867Y691429D01*
X480334D01*
X479801Y690895D01*
Y689829D01*
X480334Y689296D01*
X530500Y657500D02*
X527301D01*
Y659099D01*
X527834Y659633D01*
X528900D01*
X529434Y659099D01*
Y657500D01*
Y658566D02*
X530500Y659633D01*
Y662298D02*
X527301D01*
X528900Y660699D01*
Y662832D01*
X527834Y663898D02*
X527301Y664431D01*
Y665497D01*
X527834Y666031D01*
X528367D01*
X528900Y665497D01*
Y664964D01*
Y665497D01*
X529434Y666031D01*
X529967D01*
X530500Y665497D01*
Y664431D01*
X529967Y663898D01*
X531033Y667097D02*
Y669230D01*
X527834Y670296D02*
X527301Y670829D01*
Y671895D01*
X527834Y672429D01*
X528367D01*
X528900Y671895D01*
Y671362D01*
Y671895D01*
X529434Y672429D01*
X529967D01*
X530500Y671895D01*
Y670829D01*
X529967Y670296D01*
X579500Y663815D02*
X576301D01*
Y665414D01*
X576834Y665948D01*
X577901D01*
X578434Y665414D01*
Y663815D01*
Y664881D02*
X579500Y665948D01*
Y668613D02*
X576301D01*
X577901Y667014D01*
Y669146D01*
X576834Y670213D02*
X576301Y670746D01*
Y671812D01*
X576834Y672345D01*
X577367D01*
X577901Y671812D01*
Y671279D01*
Y671812D01*
X578434Y672345D01*
X578967D01*
X579500Y671812D01*
Y670746D01*
X578967Y670213D01*
X580033Y673412D02*
Y675545D01*
X579500Y678210D02*
X576301D01*
X577901Y676611D01*
Y678744D01*
X397500Y642000D02*
X394301D01*
Y643600D01*
X394834Y644133D01*
X395901D01*
X396434Y643600D01*
Y642000D01*
Y643066D02*
X397500Y644133D01*
Y646798D02*
X394301D01*
X395901Y645199D01*
Y647332D01*
X397500Y649997D02*
X394301D01*
X395901Y648398D01*
Y650531D01*
X398033Y651597D02*
Y653730D01*
X397500Y654796D02*
Y655862D01*
Y655329D01*
X394301D01*
X394834Y654796D01*
X445500Y653000D02*
X442301D01*
Y654600D01*
X442834Y655133D01*
X443900D01*
X444434Y654600D01*
Y653000D01*
Y654066D02*
X445500Y655133D01*
Y657798D02*
X442301D01*
X443900Y656199D01*
Y658332D01*
X445500Y660997D02*
X442301D01*
X443900Y659398D01*
Y661531D01*
X446033Y662597D02*
Y664730D01*
X445500Y667929D02*
Y665796D01*
X443367Y667929D01*
X442834D01*
X442301Y667395D01*
Y666329D01*
X442834Y665796D01*
X490000Y653000D02*
X486801D01*
Y654600D01*
X487334Y655133D01*
X488401D01*
X488934Y654600D01*
Y653000D01*
Y654066D02*
X490000Y655133D01*
Y657798D02*
X486801D01*
X488401Y656199D01*
Y658332D01*
X490000Y660997D02*
X486801D01*
X488401Y659398D01*
Y661531D01*
X490533Y662597D02*
Y664730D01*
X487334Y665796D02*
X486801Y666329D01*
Y667395D01*
X487334Y667929D01*
X487867D01*
X488401Y667395D01*
Y666862D01*
Y667395D01*
X488934Y667929D01*
X489467D01*
X490000Y667395D01*
Y666329D01*
X489467Y665796D01*
X537500Y658000D02*
X534301D01*
Y659599D01*
X534834Y660133D01*
X535900D01*
X536434Y659599D01*
Y658000D01*
Y659066D02*
X537500Y660133D01*
Y662798D02*
X534301D01*
X535900Y661199D01*
Y663332D01*
X537500Y665997D02*
X534301D01*
X535900Y664398D01*
Y666531D01*
X538033Y667597D02*
Y669730D01*
X537500Y672395D02*
X534301D01*
X535900Y670796D01*
Y672928D01*
X425500Y710000D02*
X422301D01*
Y711599D01*
X422834Y712133D01*
X423901D01*
X424434Y711599D01*
Y710000D01*
Y711066D02*
X425500Y712133D01*
Y714798D02*
X422301D01*
X423901Y713199D01*
Y715332D01*
X422301Y718531D02*
Y716398D01*
X423901D01*
X423367Y717464D01*
Y717997D01*
X423901Y718531D01*
X424967D01*
X425500Y717997D01*
Y716931D01*
X424967Y716398D01*
X426033Y719597D02*
Y721730D01*
X425500Y722796D02*
Y723862D01*
Y723329D01*
X422301D01*
X422834Y722796D01*
X474000Y714500D02*
X470801D01*
Y716100D01*
X471334Y716633D01*
X472401D01*
X472934Y716100D01*
Y714500D01*
Y715566D02*
X474000Y716633D01*
Y719298D02*
X470801D01*
X472401Y717699D01*
Y719832D01*
X470801Y723031D02*
Y720898D01*
X472401D01*
X471867Y721964D01*
Y722497D01*
X472401Y723031D01*
X473467D01*
X474000Y722497D01*
Y721431D01*
X473467Y720898D01*
X474533Y724097D02*
Y726230D01*
X474000Y729428D02*
Y727296D01*
X471867Y729428D01*
X471334D01*
X470801Y728895D01*
Y727829D01*
X471334Y727296D01*
X518500Y713500D02*
X515301D01*
Y715099D01*
X515834Y715633D01*
X516900D01*
X517434Y715099D01*
Y713500D01*
Y714566D02*
X518500Y715633D01*
Y718298D02*
X515301D01*
X516900Y716699D01*
Y718832D01*
X515301Y722031D02*
Y719898D01*
X516900D01*
X516367Y720964D01*
Y721497D01*
X516900Y722031D01*
X517967D01*
X518500Y721497D01*
Y720431D01*
X517967Y719898D01*
X519033Y723097D02*
Y725230D01*
X515834Y726296D02*
X515301Y726829D01*
Y727895D01*
X515834Y728429D01*
X516367D01*
X516900Y727895D01*
Y727362D01*
Y727895D01*
X517434Y728429D01*
X517967D01*
X518500Y727895D01*
Y726829D01*
X517967Y726296D01*
X567500Y720000D02*
X564301D01*
Y721599D01*
X564834Y722133D01*
X565901D01*
X566434Y721599D01*
Y720000D01*
Y721066D02*
X567500Y722133D01*
Y724798D02*
X564301D01*
X565901Y723199D01*
Y725332D01*
X564301Y728531D02*
Y726398D01*
X565901D01*
X565367Y727464D01*
Y727997D01*
X565901Y728531D01*
X566967D01*
X567500Y727997D01*
Y726931D01*
X566967Y726398D01*
X568033Y729597D02*
Y731730D01*
X567500Y734395D02*
X564301D01*
X565901Y732796D01*
Y734929D01*
X433500Y704000D02*
X430301D01*
Y705599D01*
X430834Y706133D01*
X431901D01*
X432434Y705599D01*
Y704000D01*
Y705066D02*
X433500Y706133D01*
Y708798D02*
X430301D01*
X431901Y707199D01*
Y709332D01*
X430301Y712531D02*
X430834Y711464D01*
X431901Y710398D01*
X432967D01*
X433500Y710931D01*
Y711997D01*
X432967Y712531D01*
X432434D01*
X431901Y711997D01*
Y710398D01*
X434033Y713597D02*
Y715730D01*
X433500Y716796D02*
Y717862D01*
Y717329D01*
X430301D01*
X430834Y716796D01*
X479500Y711000D02*
X476301D01*
Y712600D01*
X476834Y713133D01*
X477901D01*
X478434Y712600D01*
Y711000D01*
Y712066D02*
X479500Y713133D01*
Y715798D02*
X476301D01*
X477901Y714199D01*
Y716332D01*
X476301Y719531D02*
X476834Y718464D01*
X477901Y717398D01*
X478967D01*
X479500Y717931D01*
Y718997D01*
X478967Y719531D01*
X478434D01*
X477901Y718997D01*
Y717398D01*
X480033Y720597D02*
Y722730D01*
X479500Y725928D02*
Y723796D01*
X477367Y725928D01*
X476834D01*
X476301Y725395D01*
Y724329D01*
X476834Y723796D01*
X524500Y707000D02*
X521301D01*
Y708600D01*
X521834Y709133D01*
X522900D01*
X523434Y708600D01*
Y707000D01*
Y708066D02*
X524500Y709133D01*
Y711798D02*
X521301D01*
X522900Y710199D01*
Y712332D01*
X521301Y715531D02*
X521834Y714464D01*
X522900Y713398D01*
X523967D01*
X524500Y713931D01*
Y714997D01*
X523967Y715531D01*
X523434D01*
X522900Y714997D01*
Y713398D01*
X525033Y716597D02*
Y718730D01*
X521834Y719796D02*
X521301Y720329D01*
Y721395D01*
X521834Y721929D01*
X522367D01*
X522900Y721395D01*
Y720862D01*
Y721395D01*
X523434Y721929D01*
X523967D01*
X524500Y721395D01*
Y720329D01*
X523967Y719796D01*
X584500Y723000D02*
Y719801D01*
X582900D01*
X582367Y720334D01*
Y721400D01*
X582900Y721934D01*
X584500D01*
X583434D02*
X582367Y723000D01*
X579702D02*
Y719801D01*
X581301Y721400D01*
X579168D01*
X575969Y719801D02*
X577036Y720334D01*
X578102Y721400D01*
Y722467D01*
X577569Y723000D01*
X576503D01*
X575969Y722467D01*
Y721934D01*
X576503Y721400D01*
X578102D01*
X574903Y723533D02*
X572770D01*
X570105Y723000D02*
Y719801D01*
X571704Y721400D01*
X569571D01*
X401000Y671000D02*
X397801D01*
Y672600D01*
X398334Y673133D01*
X399400D01*
X399934Y672600D01*
Y671000D01*
Y672066D02*
X401000Y673133D01*
Y675798D02*
X397801D01*
X399400Y674199D01*
Y676332D01*
X397801Y677398D02*
Y679531D01*
X398334D01*
X400467Y677398D01*
X401000D01*
X401533Y680597D02*
Y682730D01*
X401000Y683796D02*
Y684862D01*
Y684329D01*
X397801D01*
X398334Y683796D01*
X449000Y677000D02*
X445801D01*
Y678600D01*
X446334Y679133D01*
X447401D01*
X447934Y678600D01*
Y677000D01*
Y678066D02*
X449000Y679133D01*
Y681798D02*
X445801D01*
X447401Y680199D01*
Y682332D01*
X445801Y683398D02*
Y685531D01*
X446334D01*
X448467Y683398D01*
X449000D01*
X449533Y686597D02*
Y688730D01*
X449000Y691928D02*
Y689796D01*
X446867Y691928D01*
X446334D01*
X445801Y691395D01*
Y690329D01*
X446334Y689796D01*
X494000Y679000D02*
X490801D01*
Y680599D01*
X491334Y681133D01*
X492401D01*
X492934Y680599D01*
Y679000D01*
Y680066D02*
X494000Y681133D01*
Y683798D02*
X490801D01*
X492401Y682199D01*
Y684332D01*
X490801Y685398D02*
Y687531D01*
X491334D01*
X493467Y685398D01*
X494000D01*
X494533Y688597D02*
Y690730D01*
X491334Y691796D02*
X490801Y692329D01*
Y693395D01*
X491334Y693928D01*
X491867D01*
X492401Y693395D01*
Y692862D01*
Y693395D01*
X492934Y693928D01*
X493467D01*
X494000Y693395D01*
Y692329D01*
X493467Y691796D01*
X543000Y680500D02*
X539801D01*
Y682099D01*
X540334Y682633D01*
X541400D01*
X541934Y682099D01*
Y680500D01*
Y681566D02*
X543000Y682633D01*
Y685298D02*
X539801D01*
X541400Y683699D01*
Y685832D01*
X539801Y686898D02*
Y689031D01*
X540334D01*
X542467Y686898D01*
X543000D01*
X543533Y690097D02*
Y692230D01*
X543000Y694895D02*
X539801D01*
X541400Y693296D01*
Y695429D01*
X408500Y649500D02*
X405301D01*
Y651099D01*
X405834Y651633D01*
X406901D01*
X407434Y651099D01*
Y649500D01*
Y650566D02*
X408500Y651633D01*
Y654298D02*
X405301D01*
X406901Y652699D01*
Y654832D01*
X405834Y655898D02*
X405301Y656431D01*
Y657497D01*
X405834Y658031D01*
X406367D01*
X406901Y657497D01*
X407434Y658031D01*
X407967D01*
X408500Y657497D01*
Y656431D01*
X407967Y655898D01*
X407434D01*
X406901Y656431D01*
X406367Y655898D01*
X405834D01*
X406901Y656431D02*
Y657497D01*
X409033Y659097D02*
Y661230D01*
X408500Y662296D02*
Y663362D01*
Y662829D01*
X405301D01*
X405834Y662296D01*
X457000Y654500D02*
X453801D01*
Y656100D01*
X454334Y656633D01*
X455401D01*
X455934Y656100D01*
Y654500D01*
Y655566D02*
X457000Y656633D01*
Y659298D02*
X453801D01*
X455401Y657699D01*
Y659832D01*
X454334Y660898D02*
X453801Y661431D01*
Y662497D01*
X454334Y663031D01*
X454867D01*
X455401Y662497D01*
X455934Y663031D01*
X456467D01*
X457000Y662497D01*
Y661431D01*
X456467Y660898D01*
X455934D01*
X455401Y661431D01*
X454867Y660898D01*
X454334D01*
X455401Y661431D02*
Y662497D01*
X457533Y664097D02*
Y666230D01*
X457000Y669428D02*
Y667296D01*
X454867Y669428D01*
X454334D01*
X453801Y668895D01*
Y667829D01*
X454334Y667296D01*
X501500Y653500D02*
X498301D01*
Y655099D01*
X498834Y655633D01*
X499900D01*
X500434Y655099D01*
Y653500D01*
Y654566D02*
X501500Y655633D01*
Y658298D02*
X498301D01*
X499900Y656699D01*
Y658832D01*
X498834Y659898D02*
X498301Y660431D01*
Y661497D01*
X498834Y662031D01*
X499367D01*
X499900Y661497D01*
X500434Y662031D01*
X500967D01*
X501500Y661497D01*
Y660431D01*
X500967Y659898D01*
X500434D01*
X499900Y660431D01*
X499367Y659898D01*
X498834D01*
X499900Y660431D02*
Y661497D01*
X502033Y663097D02*
Y665230D01*
X498834Y666296D02*
X498301Y666829D01*
Y667895D01*
X498834Y668429D01*
X499367D01*
X499900Y667895D01*
Y667362D01*
Y667895D01*
X500434Y668429D01*
X500967D01*
X501500Y667895D01*
Y666829D01*
X500967Y666296D01*
X550000Y658000D02*
X546801D01*
Y659599D01*
X547334Y660133D01*
X548400D01*
X548934Y659599D01*
Y658000D01*
Y659066D02*
X550000Y660133D01*
Y662798D02*
X546801D01*
X548400Y661199D01*
Y663332D01*
X547334Y664398D02*
X546801Y664931D01*
Y665997D01*
X547334Y666531D01*
X547867D01*
X548400Y665997D01*
X548934Y666531D01*
X549467D01*
X550000Y665997D01*
Y664931D01*
X549467Y664398D01*
X548934D01*
X548400Y664931D01*
X547867Y664398D01*
X547334D01*
X548400Y664931D02*
Y665997D01*
X550533Y667597D02*
Y669730D01*
X550000Y672395D02*
X546801D01*
X548400Y670796D01*
Y672928D01*
X413500Y704500D02*
X410301D01*
Y706100D01*
X410834Y706633D01*
X411901D01*
X412434Y706100D01*
Y704500D01*
Y705566D02*
X413500Y706633D01*
Y709298D02*
X410301D01*
X411901Y707699D01*
Y709832D01*
X412967Y710898D02*
X413500Y711431D01*
Y712497D01*
X412967Y713031D01*
X410834D01*
X410301Y712497D01*
Y711431D01*
X410834Y710898D01*
X411367D01*
X411901Y711431D01*
Y713031D01*
X414033Y714097D02*
Y716230D01*
X413500Y717296D02*
Y718362D01*
Y717829D01*
X410301D01*
X410834Y717296D01*
X462000Y709000D02*
X458801D01*
Y710600D01*
X459334Y711133D01*
X460400D01*
X460934Y710600D01*
Y709000D01*
Y710066D02*
X462000Y711133D01*
Y713798D02*
X458801D01*
X460400Y712199D01*
Y714332D01*
X461467Y715398D02*
X462000Y715931D01*
Y716997D01*
X461467Y717531D01*
X459334D01*
X458801Y716997D01*
Y715931D01*
X459334Y715398D01*
X459867D01*
X460400Y715931D01*
Y717531D01*
X462533Y718597D02*
Y720730D01*
X462000Y723928D02*
Y721796D01*
X459867Y723928D01*
X459334D01*
X458801Y723395D01*
Y722329D01*
X459334Y721796D01*
X506500Y707500D02*
X503301D01*
Y709099D01*
X503834Y709633D01*
X504901D01*
X505434Y709099D01*
Y707500D01*
Y708566D02*
X506500Y709633D01*
Y712298D02*
X503301D01*
X504901Y710699D01*
Y712832D01*
X505967Y713898D02*
X506500Y714431D01*
Y715497D01*
X505967Y716031D01*
X503834D01*
X503301Y715497D01*
Y714431D01*
X503834Y713898D01*
X504367D01*
X504901Y714431D01*
Y716031D01*
X507033Y717097D02*
Y719230D01*
X503834Y720296D02*
X503301Y720829D01*
Y721895D01*
X503834Y722429D01*
X504367D01*
X504901Y721895D01*
Y721362D01*
Y721895D01*
X505434Y722429D01*
X505967D01*
X506500Y721895D01*
Y720829D01*
X505967Y720296D01*
X557000Y714000D02*
X553801D01*
Y715599D01*
X554334Y716133D01*
X555401D01*
X555934Y715599D01*
Y714000D01*
Y715066D02*
X557000Y716133D01*
Y718798D02*
X553801D01*
X555401Y717199D01*
Y719332D01*
X556467Y720398D02*
X557000Y720931D01*
Y721997D01*
X556467Y722531D01*
X554334D01*
X553801Y721997D01*
Y720931D01*
X554334Y720398D01*
X554867D01*
X555401Y720931D01*
Y722531D01*
X557533Y723597D02*
Y725730D01*
X557000Y728395D02*
X553801D01*
X555401Y726796D01*
Y728929D01*
X395000Y671000D02*
X391801D01*
Y672600D01*
X392334Y673133D01*
X393401D01*
X393934Y672600D01*
Y671000D01*
Y672066D02*
X395000Y673133D01*
X391801Y676332D02*
Y674199D01*
X393401D01*
X392867Y675265D01*
Y675798D01*
X393401Y676332D01*
X394467D01*
X395000Y675798D01*
Y674732D01*
X394467Y674199D01*
X392334Y677398D02*
X391801Y677931D01*
Y678997D01*
X392334Y679531D01*
X394467D01*
X395000Y678997D01*
Y677931D01*
X394467Y677398D01*
X392334D01*
X395533Y680597D02*
Y682730D01*
X395000Y683796D02*
Y684862D01*
Y684329D01*
X391801D01*
X392334Y683796D01*
X443500Y677000D02*
X440301D01*
Y678600D01*
X440834Y679133D01*
X441900D01*
X442434Y678600D01*
Y677000D01*
Y678066D02*
X443500Y679133D01*
X440301Y682332D02*
Y680199D01*
X441900D01*
X441367Y681265D01*
Y681798D01*
X441900Y682332D01*
X442967D01*
X443500Y681798D01*
Y680732D01*
X442967Y680199D01*
X440834Y683398D02*
X440301Y683931D01*
Y684997D01*
X440834Y685531D01*
X442967D01*
X443500Y684997D01*
Y683931D01*
X442967Y683398D01*
X440834D01*
X444033Y686597D02*
Y688730D01*
X443500Y691928D02*
Y689796D01*
X441367Y691928D01*
X440834D01*
X440301Y691395D01*
Y690329D01*
X440834Y689796D01*
X488500Y675000D02*
X485301D01*
Y676600D01*
X485834Y677133D01*
X486901D01*
X487434Y676600D01*
Y675000D01*
Y676066D02*
X488500Y677133D01*
X485301Y680332D02*
Y678199D01*
X486901D01*
X486367Y679265D01*
Y679798D01*
X486901Y680332D01*
X487967D01*
X488500Y679798D01*
Y678732D01*
X487967Y678199D01*
X485834Y681398D02*
X485301Y681931D01*
Y682997D01*
X485834Y683531D01*
X487967D01*
X488500Y682997D01*
Y681931D01*
X487967Y681398D01*
X485834D01*
X489033Y684597D02*
Y686730D01*
X485834Y687796D02*
X485301Y688329D01*
Y689395D01*
X485834Y689928D01*
X486367D01*
X486901Y689395D01*
Y688862D01*
Y689395D01*
X487434Y689928D01*
X487967D01*
X488500Y689395D01*
Y688329D01*
X487967Y687796D01*
X537500Y681000D02*
X534301D01*
Y682599D01*
X534834Y683133D01*
X535900D01*
X536434Y682599D01*
Y681000D01*
Y682066D02*
X537500Y683133D01*
X534301Y686332D02*
Y684199D01*
X535900D01*
X535367Y685265D01*
Y685798D01*
X535900Y686332D01*
X536967D01*
X537500Y685798D01*
Y684732D01*
X536967Y684199D01*
X534834Y687398D02*
X534301Y687931D01*
Y688997D01*
X534834Y689531D01*
X536967D01*
X537500Y688997D01*
Y687931D01*
X536967Y687398D01*
X534834D01*
X538033Y690597D02*
Y692730D01*
X537500Y695395D02*
X534301D01*
X535900Y693796D01*
Y695928D01*
X415500Y651000D02*
X412301D01*
Y652599D01*
X412834Y653133D01*
X413901D01*
X414434Y652599D01*
Y651000D01*
Y652066D02*
X415500Y653133D01*
X412301Y656332D02*
Y654199D01*
X413901D01*
X413367Y655265D01*
Y655798D01*
X413901Y656332D01*
X414967D01*
X415500Y655798D01*
Y654732D01*
X414967Y654199D01*
X415500Y657398D02*
Y658464D01*
Y657931D01*
X412301D01*
X412834Y657398D01*
X416033Y660064D02*
Y662196D01*
X415500Y663263D02*
Y664329D01*
Y663796D01*
X412301D01*
X412834Y663263D01*
X464500Y655500D02*
X461301D01*
Y657099D01*
X461834Y657633D01*
X462900D01*
X463434Y657099D01*
Y655500D01*
Y656566D02*
X464500Y657633D01*
X461301Y660832D02*
Y658699D01*
X462900D01*
X462367Y659765D01*
Y660298D01*
X462900Y660832D01*
X463967D01*
X464500Y660298D01*
Y659232D01*
X463967Y658699D01*
X464500Y661898D02*
Y662964D01*
Y662431D01*
X461301D01*
X461834Y661898D01*
X465033Y664564D02*
Y666696D01*
X464500Y669895D02*
Y667763D01*
X462367Y669895D01*
X461834D01*
X461301Y669362D01*
Y668296D01*
X461834Y667763D01*
X509500Y653500D02*
X506301D01*
Y655099D01*
X506834Y655633D01*
X507900D01*
X508434Y655099D01*
Y653500D01*
Y654566D02*
X509500Y655633D01*
X506301Y658832D02*
Y656699D01*
X507900D01*
X507367Y657765D01*
Y658298D01*
X507900Y658832D01*
X508967D01*
X509500Y658298D01*
Y657232D01*
X508967Y656699D01*
X509500Y659898D02*
Y660964D01*
Y660431D01*
X506301D01*
X506834Y659898D01*
X510033Y662564D02*
Y664696D01*
X506834Y665763D02*
X506301Y666296D01*
Y667362D01*
X506834Y667895D01*
X507367D01*
X507900Y667362D01*
Y666829D01*
Y667362D01*
X508434Y667895D01*
X508967D01*
X509500Y667362D01*
Y666296D01*
X508967Y665763D01*
X559000Y662500D02*
X555801D01*
Y664100D01*
X556334Y664633D01*
X557401D01*
X557934Y664100D01*
Y662500D01*
Y663566D02*
X559000Y664633D01*
X555801Y667832D02*
Y665699D01*
X557401D01*
X556867Y666765D01*
Y667298D01*
X557401Y667832D01*
X558467D01*
X559000Y667298D01*
Y666232D01*
X558467Y665699D01*
X559000Y668898D02*
Y669964D01*
Y669431D01*
X555801D01*
X556334Y668898D01*
X559533Y671564D02*
Y673696D01*
X559000Y676362D02*
X555801D01*
X557401Y674763D01*
Y676895D01*
X501500Y796000D02*
X498301D01*
Y797600D01*
X498834Y798133D01*
X499900D01*
X500434Y797600D01*
Y796000D01*
Y797066D02*
X501500Y798133D01*
X498301Y801332D02*
Y799199D01*
X499900D01*
X499367Y800265D01*
Y800798D01*
X499900Y801332D01*
X500967D01*
X501500Y800798D01*
Y799732D01*
X500967Y799199D01*
X501500Y804531D02*
Y802398D01*
X499367Y804531D01*
X498834D01*
X498301Y803997D01*
Y802931D01*
X498834Y802398D01*
X484587Y793345D02*
X481388D01*
Y794945D01*
X481921Y795478D01*
X482987D01*
X483520Y794945D01*
Y793345D01*
Y794412D02*
X484587Y795478D01*
X481388Y798677D02*
Y796544D01*
X482987D01*
X482454Y797611D01*
Y798144D01*
X482987Y798677D01*
X484054D01*
X484587Y798144D01*
Y797077D01*
X484054Y796544D01*
X481921Y799743D02*
X481388Y800276D01*
Y801343D01*
X481921Y801876D01*
X482454D01*
X482987Y801343D01*
Y800809D01*
Y801343D01*
X483520Y801876D01*
X484054D01*
X484587Y801343D01*
Y800276D01*
X484054Y799743D01*
X507500Y796000D02*
X504301D01*
Y797600D01*
X504834Y798133D01*
X505900D01*
X506434Y797600D01*
Y796000D01*
Y797066D02*
X507500Y798133D01*
X504301Y801332D02*
Y799199D01*
X505900D01*
X505367Y800265D01*
Y800798D01*
X505900Y801332D01*
X506967D01*
X507500Y800798D01*
Y799732D01*
X506967Y799199D01*
X507500Y803997D02*
X504301D01*
X505900Y802398D01*
Y804531D01*
X524500Y796500D02*
X521301D01*
Y798100D01*
X521834Y798633D01*
X522900D01*
X523434Y798100D01*
Y796500D01*
Y797566D02*
X524500Y798633D01*
X521301Y801832D02*
Y799699D01*
X522900D01*
X522367Y800765D01*
Y801298D01*
X522900Y801832D01*
X523967D01*
X524500Y801298D01*
Y800232D01*
X523967Y799699D01*
X521301Y805031D02*
Y802898D01*
X522900D01*
X522367Y803964D01*
Y804497D01*
X522900Y805031D01*
X523967D01*
X524500Y804497D01*
Y803431D01*
X523967Y802898D01*
X535000Y797000D02*
X531801D01*
Y798599D01*
X532334Y799133D01*
X533400D01*
X533934Y798599D01*
Y797000D01*
Y798066D02*
X535000Y799133D01*
X531801Y802332D02*
Y800199D01*
X533400D01*
X532867Y801265D01*
Y801798D01*
X533400Y802332D01*
X534467D01*
X535000Y801798D01*
Y800732D01*
X534467Y800199D01*
X531801Y805531D02*
X532334Y804464D01*
X533400Y803398D01*
X534467D01*
X535000Y803931D01*
Y804997D01*
X534467Y805531D01*
X533934D01*
X533400Y804997D01*
Y803398D01*
X495500Y783000D02*
Y779801D01*
X493900D01*
X493367Y780334D01*
Y781400D01*
X493900Y781934D01*
X495500D01*
X494434D02*
X493367Y783000D01*
X490168Y779801D02*
X492301D01*
Y781400D01*
X491235Y780867D01*
X490702D01*
X490168Y781400D01*
Y782467D01*
X490702Y783000D01*
X491768D01*
X492301Y782467D01*
X489102Y779801D02*
X486969D01*
Y780334D01*
X489102Y782467D01*
Y783000D01*
X505000Y768000D02*
Y764801D01*
X503401D01*
X502867Y765334D01*
Y766400D01*
X503401Y766934D01*
X505000D01*
X503934D02*
X502867Y768000D01*
X499668Y764801D02*
X501801D01*
Y766400D01*
X500735Y765867D01*
X500202D01*
X499668Y766400D01*
Y767467D01*
X500202Y768000D01*
X501268D01*
X501801Y767467D01*
X498602Y765334D02*
X498069Y764801D01*
X497003D01*
X496469Y765334D01*
Y765867D01*
X497003Y766400D01*
X496469Y766934D01*
Y767467D01*
X497003Y768000D01*
X498069D01*
X498602Y767467D01*
Y766934D01*
X498069Y766400D01*
X498602Y765867D01*
Y765334D01*
X498069Y766400D02*
X497003D01*
X534000Y783500D02*
Y780301D01*
X532401D01*
X531867Y780834D01*
Y781901D01*
X532401Y782434D01*
X534000D01*
X532934D02*
X531867Y783500D01*
X528668Y780301D02*
X530801D01*
Y781901D01*
X529735Y781367D01*
X529202D01*
X528668Y781901D01*
Y782967D01*
X529202Y783500D01*
X530268D01*
X530801Y782967D01*
X527602D02*
X527069Y783500D01*
X526003D01*
X525469Y782967D01*
Y780834D01*
X526003Y780301D01*
X527069D01*
X527602Y780834D01*
Y781367D01*
X527069Y781901D01*
X525469D01*
X532500Y760000D02*
Y756801D01*
X530900D01*
X530367Y757334D01*
Y758400D01*
X530900Y758934D01*
X532500D01*
X531434D02*
X530367Y760000D01*
X527168Y756801D02*
X528235Y757334D01*
X529301Y758400D01*
Y759467D01*
X528768Y760000D01*
X527702D01*
X527168Y759467D01*
Y758934D01*
X527702Y758400D01*
X529301D01*
X526102Y757334D02*
X525569Y756801D01*
X524503D01*
X523969Y757334D01*
Y759467D01*
X524503Y760000D01*
X525569D01*
X526102Y759467D01*
Y757334D01*
X408367Y565834D02*
X408900Y565301D01*
X409967D01*
X410500Y565834D01*
Y566367D01*
X409967Y566900D01*
X408900D01*
X408367Y567434D01*
Y567967D01*
X408900Y568500D01*
X409967D01*
X410500Y567967D01*
X405168Y565301D02*
X406235D01*
X405701D01*
Y567967D01*
X406235Y568500D01*
X406768D01*
X407301Y567967D01*
X401969Y568500D02*
X404102D01*
X401969Y566367D01*
Y565834D01*
X402503Y565301D01*
X403569D01*
X404102Y565834D01*
X524867Y587834D02*
X525400Y587301D01*
X526467D01*
X527000Y587834D01*
Y588367D01*
X526467Y588901D01*
X525400D01*
X524867Y589434D01*
Y589967D01*
X525400Y590500D01*
X526467D01*
X527000Y589967D01*
X521668Y587301D02*
X522735D01*
X522202D01*
Y589967D01*
X522735Y590500D01*
X523268D01*
X523801Y589967D01*
X520602Y587834D02*
X520069Y587301D01*
X519003D01*
X518469Y587834D01*
Y588367D01*
X519003Y588901D01*
X519536D01*
X519003D01*
X518469Y589434D01*
Y589967D01*
X519003Y590500D01*
X520069D01*
X520602Y589967D01*
X545867Y566834D02*
X546400Y566301D01*
X547467D01*
X548000Y566834D01*
Y567367D01*
X547467Y567901D01*
X546400D01*
X545867Y568434D01*
Y568967D01*
X546400Y569500D01*
X547467D01*
X548000Y568967D01*
X542668Y566301D02*
X543735D01*
X543202D01*
Y568967D01*
X543735Y569500D01*
X544268D01*
X544801Y568967D01*
X540003Y569500D02*
Y566301D01*
X541602Y567901D01*
X539469D01*
X441801Y1039500D02*
Y1040566D01*
Y1040033D01*
X445000D01*
Y1039500D01*
Y1040566D01*
X441801Y1042166D02*
X445000D01*
Y1043765D01*
X444467Y1044298D01*
X442334D01*
X441801Y1043765D01*
Y1042166D01*
X443400Y1045365D02*
Y1047497D01*
X445000Y1048564D02*
X441801D01*
Y1050163D01*
X442334Y1050696D01*
X443400D01*
X443934Y1050163D01*
Y1048564D01*
X441801Y1051763D02*
X445000D01*
X443934Y1052829D01*
X445000Y1053895D01*
X441801D01*
X445000Y1054962D02*
X441801D01*
X442867Y1056028D01*
X441801Y1057094D01*
X445000D01*
X425334Y645633D02*
X424801Y645099D01*
Y644033D01*
X425334Y643500D01*
X425867D01*
X426401Y644033D01*
Y645099D01*
X426934Y645633D01*
X427467D01*
X428000Y645099D01*
Y644033D01*
X427467Y643500D01*
X424801Y648832D02*
Y647765D01*
Y648298D01*
X427467D01*
X428000Y647765D01*
Y647232D01*
X427467Y646699D01*
X424801Y652031D02*
X425334Y650964D01*
X426401Y649898D01*
X427467D01*
X428000Y650431D01*
Y651497D01*
X427467Y652031D01*
X426934D01*
X426401Y651497D01*
Y649898D01*
X428533Y653097D02*
Y655230D01*
X428000Y656296D02*
Y657362D01*
Y656829D01*
X424801D01*
X425334Y656296D01*
X475334Y648633D02*
X474801Y648100D01*
Y647033D01*
X475334Y646500D01*
X475867D01*
X476401Y647033D01*
Y648100D01*
X476934Y648633D01*
X477467D01*
X478000Y648100D01*
Y647033D01*
X477467Y646500D01*
X474801Y651832D02*
Y650765D01*
Y651298D01*
X477467D01*
X478000Y650765D01*
Y650232D01*
X477467Y649699D01*
X474801Y655031D02*
X475334Y653964D01*
X476401Y652898D01*
X477467D01*
X478000Y653431D01*
Y654497D01*
X477467Y655031D01*
X476934D01*
X476401Y654497D01*
Y652898D01*
X478533Y656097D02*
Y658230D01*
X478000Y661428D02*
Y659296D01*
X475867Y661428D01*
X475334D01*
X474801Y660895D01*
Y659829D01*
X475334Y659296D01*
X519834Y647133D02*
X519301Y646599D01*
Y645533D01*
X519834Y645000D01*
X520367D01*
X520900Y645533D01*
Y646599D01*
X521434Y647133D01*
X521967D01*
X522500Y646599D01*
Y645533D01*
X521967Y645000D01*
X519301Y650332D02*
Y649265D01*
Y649798D01*
X521967D01*
X522500Y649265D01*
Y648732D01*
X521967Y648199D01*
X519301Y653531D02*
X519834Y652464D01*
X520900Y651398D01*
X521967D01*
X522500Y651931D01*
Y652997D01*
X521967Y653531D01*
X521434D01*
X520900Y652997D01*
Y651398D01*
X523033Y654597D02*
Y656730D01*
X519834Y657796D02*
X519301Y658329D01*
Y659395D01*
X519834Y659929D01*
X520367D01*
X520900Y659395D01*
Y658862D01*
Y659395D01*
X521434Y659929D01*
X521967D01*
X522500Y659395D01*
Y658329D01*
X521967Y657796D01*
X569334Y652133D02*
X568801Y651600D01*
Y650533D01*
X569334Y650000D01*
X569867D01*
X570400Y650533D01*
Y651600D01*
X570934Y652133D01*
X571467D01*
X572000Y651600D01*
Y650533D01*
X571467Y650000D01*
X568801Y655332D02*
Y654265D01*
Y654798D01*
X571467D01*
X572000Y654265D01*
Y653732D01*
X571467Y653199D01*
X568801Y658531D02*
X569334Y657464D01*
X570400Y656398D01*
X571467D01*
X572000Y656931D01*
Y657997D01*
X571467Y658531D01*
X570934D01*
X570400Y657997D01*
Y656398D01*
X572533Y659597D02*
Y661730D01*
X572000Y664395D02*
X568801D01*
X570400Y662796D01*
Y664928D01*
X408834Y685133D02*
X408301Y684599D01*
Y683533D01*
X408834Y683000D01*
X409367D01*
X409901Y683533D01*
Y684599D01*
X410434Y685133D01*
X410967D01*
X411500Y684599D01*
Y683533D01*
X410967Y683000D01*
X408301Y688332D02*
Y687265D01*
Y687798D01*
X410967D01*
X411500Y687265D01*
Y686732D01*
X410967Y686199D01*
X408301Y689398D02*
Y691531D01*
X408834D01*
X410967Y689398D01*
X411500D01*
X412033Y692597D02*
Y694730D01*
X411500Y695796D02*
Y696862D01*
Y696329D01*
X408301D01*
X408834Y695796D01*
X451834Y691133D02*
X451301Y690599D01*
Y689533D01*
X451834Y689000D01*
X452367D01*
X452901Y689533D01*
Y690599D01*
X453434Y691133D01*
X453967D01*
X454500Y690599D01*
Y689533D01*
X453967Y689000D01*
X451301Y694332D02*
Y693265D01*
Y693798D01*
X453967D01*
X454500Y693265D01*
Y692732D01*
X453967Y692199D01*
X451301Y695398D02*
Y697531D01*
X451834D01*
X453967Y695398D01*
X454500D01*
X455033Y698597D02*
Y700730D01*
X454500Y703929D02*
Y701796D01*
X452367Y703929D01*
X451834D01*
X451301Y703395D01*
Y702329D01*
X451834Y701796D01*
X498334Y689633D02*
X497801Y689100D01*
Y688033D01*
X498334Y687500D01*
X498867D01*
X499401Y688033D01*
Y689100D01*
X499934Y689633D01*
X500467D01*
X501000Y689100D01*
Y688033D01*
X500467Y687500D01*
X497801Y692832D02*
Y691765D01*
Y692298D01*
X500467D01*
X501000Y691765D01*
Y691232D01*
X500467Y690699D01*
X497801Y693898D02*
Y696031D01*
X498334D01*
X500467Y693898D01*
X501000D01*
X501533Y697097D02*
Y699230D01*
X498334Y700296D02*
X497801Y700829D01*
Y701895D01*
X498334Y702428D01*
X498867D01*
X499401Y701895D01*
Y701362D01*
Y701895D01*
X499934Y702428D01*
X500467D01*
X501000Y701895D01*
Y700829D01*
X500467Y700296D01*
X551334Y694133D02*
X550801Y693600D01*
Y692533D01*
X551334Y692000D01*
X551867D01*
X552400Y692533D01*
Y693600D01*
X552934Y694133D01*
X553467D01*
X554000Y693600D01*
Y692533D01*
X553467Y692000D01*
X550801Y697332D02*
Y696265D01*
Y696798D01*
X553467D01*
X554000Y696265D01*
Y695732D01*
X553467Y695199D01*
X550801Y698398D02*
Y700531D01*
X551334D01*
X553467Y698398D01*
X554000D01*
X554533Y701597D02*
Y703730D01*
X554000Y706395D02*
X550801D01*
X552400Y704796D01*
Y706928D01*
X425834Y736133D02*
X425301Y735600D01*
Y734533D01*
X425834Y734000D01*
X426367D01*
X426900Y734533D01*
Y735600D01*
X427434Y736133D01*
X427967D01*
X428500Y735600D01*
Y734533D01*
X427967Y734000D01*
X425301Y739332D02*
Y738265D01*
Y738798D01*
X427967D01*
X428500Y738265D01*
Y737732D01*
X427967Y737199D01*
X425834Y740398D02*
X425301Y740931D01*
Y741997D01*
X425834Y742531D01*
X426367D01*
X426900Y741997D01*
X427434Y742531D01*
X427967D01*
X428500Y741997D01*
Y740931D01*
X427967Y740398D01*
X427434D01*
X426900Y740931D01*
X426367Y740398D01*
X425834D01*
X426900Y740931D02*
Y741997D01*
X429033Y743597D02*
Y745730D01*
X428500Y746796D02*
Y747862D01*
Y747329D01*
X425301D01*
X425834Y746796D01*
X475551Y740176D02*
X475018Y739643D01*
Y738577D01*
X475551Y738043D01*
X476084D01*
X476617Y738577D01*
Y739643D01*
X477150Y740176D01*
X477683D01*
X478217Y739643D01*
Y738577D01*
X477683Y738043D01*
X475018Y743375D02*
Y742309D01*
Y742842D01*
X477683D01*
X478217Y742309D01*
Y741775D01*
X477683Y741242D01*
X475551Y744441D02*
X475018Y744974D01*
Y746041D01*
X475551Y746574D01*
X476084D01*
X476617Y746041D01*
X477150Y746574D01*
X477683D01*
X478217Y746041D01*
Y744974D01*
X477683Y744441D01*
X477150D01*
X476617Y744974D01*
X476084Y744441D01*
X475551D01*
X476617Y744974D02*
Y746041D01*
X478750Y747640D02*
Y749773D01*
X478217Y752972D02*
Y750839D01*
X476084Y752972D01*
X475551D01*
X475018Y752439D01*
Y751372D01*
X475551Y750839D01*
X519834Y735633D02*
X519301Y735100D01*
Y734033D01*
X519834Y733500D01*
X520367D01*
X520900Y734033D01*
Y735100D01*
X521434Y735633D01*
X521967D01*
X522500Y735100D01*
Y734033D01*
X521967Y733500D01*
X519301Y738832D02*
Y737765D01*
Y738298D01*
X521967D01*
X522500Y737765D01*
Y737232D01*
X521967Y736699D01*
X519834Y739898D02*
X519301Y740431D01*
Y741497D01*
X519834Y742031D01*
X520367D01*
X520900Y741497D01*
X521434Y742031D01*
X521967D01*
X522500Y741497D01*
Y740431D01*
X521967Y739898D01*
X521434D01*
X520900Y740431D01*
X520367Y739898D01*
X519834D01*
X520900Y740431D02*
Y741497D01*
X523033Y743097D02*
Y745230D01*
X519834Y746296D02*
X519301Y746829D01*
Y747895D01*
X519834Y748428D01*
X520367D01*
X520900Y747895D01*
Y747362D01*
Y747895D01*
X521434Y748428D01*
X521967D01*
X522500Y747895D01*
Y746829D01*
X521967Y746296D01*
X570964Y740739D02*
X570431Y740206D01*
Y739139D01*
X570964Y738606D01*
X571497D01*
X572030Y739139D01*
Y740206D01*
X572564Y740739D01*
X573097D01*
X573630Y740206D01*
Y739139D01*
X573097Y738606D01*
X570431Y743938D02*
Y742872D01*
Y743405D01*
X573097D01*
X573630Y742872D01*
Y742338D01*
X573097Y741805D01*
X570964Y745004D02*
X570431Y745537D01*
Y746604D01*
X570964Y747137D01*
X571497D01*
X572030Y746604D01*
X572564Y747137D01*
X573097D01*
X573630Y746604D01*
Y745537D01*
X573097Y745004D01*
X572564D01*
X572030Y745537D01*
X571497Y745004D01*
X570964D01*
X572030Y745537D02*
Y746604D01*
X574163Y748203D02*
Y750336D01*
X573630Y753002D02*
X570431D01*
X572030Y751402D01*
Y753535D01*
X489801Y791000D02*
Y792066D01*
Y791533D01*
X493000D01*
Y791000D01*
Y792066D01*
X489801Y793666D02*
X493000D01*
Y795265D01*
X492467Y795798D01*
X490334D01*
X489801Y795265D01*
Y793666D01*
X491400Y796865D02*
Y798997D01*
X493000Y800064D02*
X490867D01*
X489801Y801130D01*
X490867Y802196D01*
X493000D01*
X491400D01*
Y800064D01*
X489801Y803263D02*
X493000D01*
Y804862D01*
X492467Y805395D01*
X490334D01*
X489801Y804862D01*
Y803263D01*
X490334Y808594D02*
X489801Y808061D01*
Y806995D01*
X490334Y806462D01*
X492467D01*
X493000Y806995D01*
Y808061D01*
X492467Y808594D01*
X426301Y688000D02*
X428967D01*
X429500Y688533D01*
Y689600D01*
X428967Y690133D01*
X426301D01*
X429500Y691199D02*
Y692265D01*
Y691732D01*
X426301D01*
X426834Y691199D01*
X430033Y693865D02*
Y695997D01*
X429500Y697064D02*
Y698130D01*
Y697597D01*
X426301D01*
X426834Y697064D01*
X456852Y689500D02*
X459518D01*
X460051Y690033D01*
Y691100D01*
X459518Y691633D01*
X456852D01*
X460051Y692699D02*
Y693765D01*
Y693232D01*
X456852D01*
X457385Y692699D01*
X460584Y695365D02*
Y697497D01*
X460051Y700696D02*
Y698564D01*
X457919Y700696D01*
X457385D01*
X456852Y700163D01*
Y699097D01*
X457385Y698564D01*
X521801Y693500D02*
X524467D01*
X525000Y694033D01*
Y695099D01*
X524467Y695633D01*
X521801D01*
X525000Y696699D02*
Y697765D01*
Y697232D01*
X521801D01*
X522334Y696699D01*
X525533Y699365D02*
Y701497D01*
X522334Y702564D02*
X521801Y703097D01*
Y704163D01*
X522334Y704696D01*
X522867D01*
X523400Y704163D01*
Y703630D01*
Y704163D01*
X523934Y704696D01*
X524467D01*
X525000Y704163D01*
Y703097D01*
X524467Y702564D01*
X570301Y698500D02*
X572967D01*
X573500Y699033D01*
Y700100D01*
X572967Y700633D01*
X570301D01*
X573500Y701699D02*
Y702765D01*
Y702232D01*
X570301D01*
X570834Y701699D01*
X574033Y704365D02*
Y706497D01*
X573500Y709163D02*
X570301D01*
X571901Y707564D01*
Y709696D01*
X414500Y779301D02*
Y781967D01*
X413967Y782500D01*
X412900D01*
X412367Y781967D01*
Y779301D01*
X409168Y782500D02*
X411301D01*
X409168Y780367D01*
Y779834D01*
X409702Y779301D01*
X410768D01*
X411301Y779834D01*
X333500Y792301D02*
Y794967D01*
X332967Y795500D01*
X331901D01*
X331367Y794967D01*
Y792301D01*
X328701Y795500D02*
Y792301D01*
X330301Y793900D01*
X328168D01*
X326801Y917500D02*
X329467D01*
X330000Y918033D01*
Y919100D01*
X329467Y919633D01*
X326801D01*
Y922832D02*
Y920699D01*
X328400D01*
X327867Y921765D01*
Y922299D01*
X328400Y922832D01*
X329467D01*
X330000Y922299D01*
Y921232D01*
X329467Y920699D01*
X379000Y702301D02*
Y704967D01*
X378467Y705500D01*
X377400D01*
X376867Y704967D01*
Y702301D01*
X375801Y704967D02*
X375268Y705500D01*
X374201D01*
X373668Y704967D01*
Y702834D01*
X374201Y702301D01*
X375268D01*
X375801Y702834D01*
Y703367D01*
X375268Y703900D01*
X373668D01*
X338000Y816500D02*
Y813301D01*
X336401D01*
X335867Y813834D01*
Y814900D01*
X336401Y815434D01*
X338000D01*
X336934D02*
X335867Y816500D01*
X334801Y813301D02*
X332668D01*
Y813834D01*
X334801Y815967D01*
Y816500D01*
X350000Y799000D02*
Y795801D01*
X348400D01*
X347867Y796334D01*
Y797401D01*
X348400Y797934D01*
X350000D01*
X348934D02*
X347867Y799000D01*
X346801Y796334D02*
X346268Y795801D01*
X345201D01*
X344668Y796334D01*
Y796867D01*
X345201Y797401D01*
X344668Y797934D01*
Y798467D01*
X345201Y799000D01*
X346268D01*
X346801Y798467D01*
Y797934D01*
X346268Y797401D01*
X346801Y796867D01*
Y796334D01*
X346268Y797401D02*
X345201D01*
X350000Y791000D02*
Y787801D01*
X348400D01*
X347867Y788334D01*
Y789400D01*
X348400Y789934D01*
X350000D01*
X348934D02*
X347867Y791000D01*
X346801Y790467D02*
X346268Y791000D01*
X345201D01*
X344668Y790467D01*
Y788334D01*
X345201Y787801D01*
X346268D01*
X346801Y788334D01*
Y788867D01*
X346268Y789400D01*
X344668D01*
X350500Y781500D02*
Y778301D01*
X348901D01*
X348367Y778834D01*
Y779901D01*
X348901Y780434D01*
X350500D01*
X349434D02*
X348367Y781500D01*
X347301D02*
X346235D01*
X346768D01*
Y778301D01*
X347301Y778834D01*
X344635D02*
X344102Y778301D01*
X343036D01*
X342503Y778834D01*
Y780967D01*
X343036Y781500D01*
X344102D01*
X344635Y780967D01*
Y778834D01*
X252301Y1107500D02*
X255500D01*
Y1109633D01*
Y1112832D02*
Y1110699D01*
X253367Y1112832D01*
X252834D01*
X252301Y1112298D01*
Y1111232D01*
X252834Y1110699D01*
X413834Y736633D02*
X413301Y736099D01*
Y735033D01*
X413834Y734500D01*
X415967D01*
X416500Y735033D01*
Y736099D01*
X415967Y736633D01*
X416500Y739832D02*
Y737699D01*
X414367Y739832D01*
X413834D01*
X413301Y739298D01*
Y738232D01*
X413834Y737699D01*
X416500Y743031D02*
Y740898D01*
X414367Y743031D01*
X413834D01*
X413301Y742497D01*
Y741431D01*
X413834Y740898D01*
X417033Y744097D02*
Y746230D01*
X416500Y747296D02*
Y748362D01*
Y747829D01*
X413301D01*
X413834Y747296D01*
X386867Y588834D02*
X387401Y588301D01*
X388467D01*
X389000Y588834D01*
Y589367D01*
X388467Y589900D01*
X387401D01*
X386867Y590434D01*
Y590967D01*
X387401Y591500D01*
X388467D01*
X389000Y590967D01*
X383668Y588301D02*
X384735D01*
X384202D01*
Y590967D01*
X384735Y591500D01*
X385268D01*
X385801Y590967D01*
X382602Y591500D02*
X381536D01*
X382069D01*
Y588301D01*
X382602Y588834D01*
X467801Y930000D02*
X470467D01*
X471000Y930533D01*
Y931600D01*
X470467Y932133D01*
X467801D01*
Y935332D02*
X468334Y934265D01*
X469401Y933199D01*
X470467D01*
X471000Y933732D01*
Y934799D01*
X470467Y935332D01*
X469934D01*
X469401Y934799D01*
Y933199D01*
X426801Y982000D02*
X429467D01*
X430000Y982533D01*
Y983599D01*
X429467Y984133D01*
X426801D01*
X427334Y985199D02*
X426801Y985732D01*
Y986798D01*
X427334Y987332D01*
X427867D01*
X428401Y986798D01*
X428934Y987332D01*
X429467D01*
X430000Y986798D01*
Y985732D01*
X429467Y985199D01*
X428934D01*
X428401Y985732D01*
X427867Y985199D01*
X427334D01*
X428401Y985732D02*
Y986798D01*
X566500Y911500D02*
Y907901D01*
X564701D01*
X564101Y908501D01*
Y909701D01*
X564701Y910300D01*
X566500D01*
X565300D02*
X564101Y911500D01*
X560502Y908501D02*
X561102Y907901D01*
X562301D01*
X562901Y908501D01*
Y910900D01*
X562301Y911500D01*
X561102D01*
X560502Y910900D01*
Y909701D01*
X561702D01*
X557503Y911500D02*
Y907901D01*
X559302Y909701D01*
X556903D01*
X296000Y755301D02*
Y758500D01*
X293867D01*
X292801D02*
X291735D01*
X292268D01*
Y755301D01*
X292801Y755834D01*
X493001Y600399D02*
X492401Y599799D01*
Y598600D01*
X493001Y598000D01*
X493601D01*
X494201Y598600D01*
Y599799D01*
X494800Y600399D01*
X495400D01*
X496000Y599799D01*
Y598600D01*
X495400Y598000D01*
X493001Y601599D02*
X492401Y602199D01*
Y603398D01*
X493001Y603998D01*
X493601D01*
X494201Y603398D01*
Y602798D01*
Y603398D01*
X494800Y603998D01*
X495400D01*
X496000Y603398D01*
Y602199D01*
X495400Y601599D01*
X397501Y817000D02*
X396901Y817600D01*
Y818799D01*
X397501Y819399D01*
X398101D01*
X398701Y818799D01*
Y818200D01*
Y818799D01*
X399300Y819399D01*
X399900D01*
X400500Y818799D01*
Y817600D01*
X399900Y817000D01*
X396901Y820599D02*
X399300D01*
X400500Y821799D01*
X399300Y822998D01*
X396901D01*
X397501Y824198D02*
X396901Y824798D01*
Y825997D01*
X397501Y826597D01*
X398101D01*
X398701Y825997D01*
Y825397D01*
Y825997D01*
X399300Y826597D01*
X399900D01*
X400500Y825997D01*
Y824798D01*
X399900Y824198D01*
X235401Y669899D02*
Y667500D01*
X237201D01*
X236601Y668700D01*
Y669299D01*
X237201Y669899D01*
X238400D01*
X239000Y669299D01*
Y668100D01*
X238400Y667500D01*
X235401Y671099D02*
X237800D01*
X239000Y672298D01*
X237800Y673498D01*
X235401D01*
X410000Y816500D02*
X406801D01*
Y818099D01*
X407334Y818633D01*
X408400D01*
X408934Y818099D01*
Y816500D01*
Y817566D02*
X410000Y818633D01*
X406801Y821832D02*
X407334Y820765D01*
X408400Y819699D01*
X409467D01*
X410000Y820232D01*
Y821299D01*
X409467Y821832D01*
X408934D01*
X408400Y821299D01*
Y819699D01*
X410000Y822898D02*
Y823964D01*
Y823431D01*
X406801D01*
X407334Y822898D01*
X247000Y667000D02*
X243801D01*
Y668600D01*
X244334Y669133D01*
X245401D01*
X245934Y668600D01*
Y667000D01*
Y668066D02*
X247000Y669133D01*
X243801Y672332D02*
X244334Y671265D01*
X245401Y670199D01*
X246467D01*
X247000Y670732D01*
Y671798D01*
X246467Y672332D01*
X245934D01*
X245401Y671798D01*
Y670199D01*
X247000Y675531D02*
Y673398D01*
X244867Y675531D01*
X244334D01*
X243801Y674997D01*
Y673931D01*
X244334Y673398D01*
X242901Y763799D02*
Y762600D01*
X243501Y762000D01*
X245900D01*
X246500Y762600D01*
Y763799D01*
X245900Y764399D01*
X243501D01*
X242901Y763799D01*
X246500Y765599D02*
X242901D01*
X246500Y767998D01*
X242901D01*
X267000Y759500D02*
X263801D01*
Y761099D01*
X264334Y761633D01*
X265401D01*
X265934Y761099D01*
Y759500D01*
Y760566D02*
X267000Y761633D01*
X263801Y764832D02*
X264334Y763765D01*
X265401Y762699D01*
X266467D01*
X267000Y763232D01*
Y764298D01*
X266467Y764832D01*
X265934D01*
X265401Y764298D01*
Y762699D01*
X264334Y765898D02*
X263801Y766431D01*
Y767497D01*
X264334Y768031D01*
X264867D01*
X265401Y767497D01*
Y766964D01*
Y767497D01*
X265934Y768031D01*
X266467D01*
X267000Y767497D01*
Y766431D01*
X266467Y765898D01*
X329000Y608699D02*
Y606033D01*
X329533Y605500D01*
X330599D01*
X331133Y606033D01*
Y608699D01*
X332199Y605500D02*
X333265D01*
X332732D01*
Y608699D01*
X332199Y608166D01*
X334865D02*
X335398Y608699D01*
X336464D01*
X336997Y608166D01*
Y606033D01*
X336464Y605500D01*
X335398D01*
X334865Y606033D01*
Y608166D01*
X289000Y873801D02*
Y877000D01*
X286867D01*
X285801Y874334D02*
X285268Y873801D01*
X284202D01*
X283668Y874334D01*
Y874867D01*
X284202Y875401D01*
X284735D01*
X284202D01*
X283668Y875934D01*
Y876467D01*
X284202Y877000D01*
X285268D01*
X285801Y876467D01*
X323133Y631666D02*
X322600Y632199D01*
X321533D01*
X321000Y631666D01*
Y629533D01*
X321533Y629000D01*
X322600D01*
X323133Y629533D01*
X324199Y631666D02*
X324732Y632199D01*
X325799D01*
X326332Y631666D01*
Y631133D01*
X325799Y630599D01*
X325265D01*
X325799D01*
X326332Y630066D01*
Y629533D01*
X325799Y629000D01*
X324732D01*
X324199Y629533D01*
X327398Y631666D02*
X327931Y632199D01*
X328997D01*
X329531Y631666D01*
Y629533D01*
X328997Y629000D01*
X327931D01*
X327398Y629533D01*
Y631666D01*
X277001Y559399D02*
X276401Y558799D01*
Y557600D01*
X277001Y557000D01*
X277601D01*
X278201Y557600D01*
Y558799D01*
X278800Y559399D01*
X279400D01*
X280000Y558799D01*
Y557600D01*
X279400Y557000D01*
X276401Y560599D02*
X280000D01*
Y562398D01*
X279400Y562998D01*
X277001D01*
X276401Y562398D01*
Y560599D01*
X280000Y564198D02*
X277601D01*
X276401Y565397D01*
X277601Y566597D01*
X280000D01*
X278201D01*
Y564198D01*
X618301Y780133D02*
Y778000D01*
X619901D01*
X619367Y779066D01*
Y779600D01*
X619901Y780133D01*
X620967D01*
X621500Y779600D01*
Y778533D01*
X620967Y778000D01*
X618301Y781199D02*
X620434D01*
X621500Y782265D01*
X620434Y783332D01*
X618301D01*
X618401Y728899D02*
Y726500D01*
X620201D01*
X619601Y727700D01*
Y728299D01*
X620201Y728899D01*
X621400D01*
X622000Y728299D01*
Y727100D01*
X621400Y726500D01*
X618401Y730099D02*
X620800D01*
X622000Y731298D01*
X620800Y732498D01*
X618401D01*
X570401Y561000D02*
X572800D01*
X574000Y562200D01*
X572800Y563399D01*
X570401D01*
X572201Y564599D02*
Y566998D01*
X571001Y565798D02*
X573400D01*
X581501Y564899D02*
X580901Y564299D01*
Y563100D01*
X581501Y562500D01*
X582101D01*
X582701Y563100D01*
Y564299D01*
X583300Y564899D01*
X583900D01*
X584500Y564299D01*
Y563100D01*
X583900Y562500D01*
X592501Y560399D02*
X591901Y559799D01*
Y558600D01*
X592501Y558000D01*
X594900D01*
X595500Y558600D01*
Y559799D01*
X594900Y560399D01*
X593701D01*
Y559200D01*
X595500Y561599D02*
X591901D01*
X595500Y563998D01*
X591901D01*
Y565198D02*
X595500D01*
Y566997D01*
X594900Y567597D01*
X592501D01*
X591901Y566997D01*
Y565198D01*
X482401Y561000D02*
X484800D01*
X486000Y562200D01*
X484800Y563399D01*
X482401D01*
X484201Y564599D02*
Y566998D01*
X483001Y565798D02*
X485400D01*
X493501Y564899D02*
X492901Y564299D01*
Y563100D01*
X493501Y562500D01*
X494101D01*
X494701Y563100D01*
Y564299D01*
X495300Y564899D01*
X495900D01*
X496500Y564299D01*
Y563100D01*
X495900Y562500D01*
X504501Y560399D02*
X503901Y559799D01*
Y558600D01*
X504501Y558000D01*
X506900D01*
X507500Y558600D01*
Y559799D01*
X506900Y560399D01*
X505701D01*
Y559200D01*
X507500Y561599D02*
X503901D01*
X507500Y563998D01*
X503901D01*
Y565198D02*
X507500D01*
Y566997D01*
X506900Y567597D01*
X504501D01*
X503901Y566997D01*
Y565198D01*
X427401Y561000D02*
X429800D01*
X431000Y562200D01*
X429800Y563399D01*
X427401D01*
X429201Y564599D02*
Y566998D01*
X428001Y565798D02*
X430400D01*
X438501Y564899D02*
X437901Y564299D01*
Y563100D01*
X438501Y562500D01*
X439101D01*
X439701Y563100D01*
Y564299D01*
X440300Y564899D01*
X440900D01*
X441500Y564299D01*
Y563100D01*
X440900Y562500D01*
X449501Y560399D02*
X448901Y559799D01*
Y558600D01*
X449501Y558000D01*
X451900D01*
X452500Y558600D01*
Y559799D01*
X451900Y560399D01*
X450701D01*
Y559200D01*
X452500Y561599D02*
X448901D01*
X452500Y563998D01*
X448901D01*
Y565198D02*
X452500D01*
Y566997D01*
X451900Y567597D01*
X449501D01*
X448901Y566997D01*
Y565198D01*
X365001Y560399D02*
X364401Y559799D01*
Y558600D01*
X365001Y558000D01*
X367400D01*
X368000Y558600D01*
Y559799D01*
X367400Y560399D01*
X366201D01*
Y559200D01*
X368000Y561599D02*
X364401D01*
X368000Y563998D01*
X364401D01*
Y565198D02*
X368000D01*
Y566997D01*
X367400Y567597D01*
X365001D01*
X364401Y566997D01*
Y565198D01*
X354001Y564899D02*
X353401Y564299D01*
Y563100D01*
X354001Y562500D01*
X354601D01*
X355201Y563100D01*
Y564299D01*
X355800Y564899D01*
X356400D01*
X357000Y564299D01*
Y563100D01*
X356400Y562500D01*
X342901Y561000D02*
X345300D01*
X346500Y562200D01*
X345300Y563399D01*
X342901D01*
X344701Y564599D02*
Y566998D01*
X343501Y565798D02*
X345900D01*
X245001Y616899D02*
X244401Y616299D01*
Y615100D01*
X245001Y614500D01*
X247400D01*
X248000Y615100D01*
Y616299D01*
X247400Y616899D01*
X246201D01*
Y615700D01*
X248000Y618099D02*
X244401D01*
Y619898D01*
X245001Y620498D01*
X246201D01*
X246800Y619898D01*
Y618099D01*
X244401Y621698D02*
Y622897D01*
Y622297D01*
X248000D01*
Y621698D01*
Y622897D01*
X244401Y626496D02*
Y625296D01*
X245001Y624697D01*
X247400D01*
X248000Y625296D01*
Y626496D01*
X247400Y627096D01*
X245001D01*
X244401Y626496D01*
X248000Y630695D02*
Y628296D01*
X245601Y630695D01*
X245001D01*
X244401Y630095D01*
Y628895D01*
X245001Y628296D01*
X252001Y616899D02*
X251401Y616299D01*
Y615100D01*
X252001Y614500D01*
X254400D01*
X255000Y615100D01*
Y616299D01*
X254400Y616899D01*
X253201D01*
Y615700D01*
X255000Y618099D02*
X251401D01*
Y619898D01*
X252001Y620498D01*
X253201D01*
X253800Y619898D01*
Y618099D01*
X251401Y621698D02*
Y622897D01*
Y622297D01*
X255000D01*
Y621698D01*
Y622897D01*
X251401Y626496D02*
Y625296D01*
X252001Y624697D01*
X254400D01*
X255000Y625296D01*
Y626496D01*
X254400Y627096D01*
X252001D01*
X251401Y626496D01*
X255000Y628296D02*
Y629495D01*
Y628895D01*
X251401D01*
X252001Y628296D01*
X301500Y614500D02*
X297901D01*
Y616299D01*
X298501Y616899D01*
X299701D01*
X300300Y616299D01*
Y614500D01*
X297901Y618099D02*
X301500D01*
X300300Y619298D01*
X301500Y620498D01*
X297901D01*
X301500Y621698D02*
X297901D01*
X299101Y622897D01*
X297901Y624097D01*
X301500D01*
Y627696D02*
Y625296D01*
X299101Y627696D01*
X298501D01*
X297901Y627096D01*
Y625896D01*
X298501Y625296D01*
X309000Y614500D02*
X305401D01*
Y616299D01*
X306001Y616899D01*
X307201D01*
X307800Y616299D01*
Y614500D01*
X305401Y618099D02*
X309000D01*
X307800Y619298D01*
X309000Y620498D01*
X305401D01*
X309000Y621698D02*
X305401D01*
X306601Y622897D01*
X305401Y624097D01*
X309000D01*
Y625296D02*
Y626496D01*
Y625896D01*
X305401D01*
X306001Y625296D01*
X288501Y559899D02*
X287901Y559299D01*
Y558100D01*
X288501Y557500D01*
X289101D01*
X289701Y558100D01*
Y559299D01*
X290300Y559899D01*
X290900D01*
X291500Y559299D01*
Y558100D01*
X290900Y557500D01*
X288501Y563498D02*
X287901Y562898D01*
Y561699D01*
X288501Y561099D01*
X290900D01*
X291500Y561699D01*
Y562898D01*
X290900Y563498D01*
X287901Y564698D02*
X291500D01*
Y567097D01*
X407001Y606000D02*
X406401Y606600D01*
Y607799D01*
X407001Y608399D01*
X407601D01*
X408201Y607799D01*
Y607200D01*
Y607799D01*
X408800Y608399D01*
X409400D01*
X410000Y607799D01*
Y606600D01*
X409400Y606000D01*
X406401Y609599D02*
X408800D01*
X410000Y610798D01*
X408800Y611998D01*
X406401D01*
X407001Y613198D02*
X406401Y613798D01*
Y614997D01*
X407001Y615597D01*
X407601D01*
X408201Y614997D01*
Y614397D01*
Y614997D01*
X408800Y615597D01*
X409400D01*
X410000Y614997D01*
Y613798D01*
X409400Y613198D01*
X385401Y608399D02*
Y606000D01*
X387201D01*
X386601Y607200D01*
Y607799D01*
X387201Y608399D01*
X388400D01*
X389000Y607799D01*
Y606600D01*
X388400Y606000D01*
X385401Y609599D02*
X387800D01*
X389000Y610798D01*
X387800Y611998D01*
X385401D01*
X395901Y606000D02*
X398300D01*
X399500Y607200D01*
X398300Y608399D01*
X395901D01*
X397701Y609599D02*
Y611998D01*
X396501Y610798D02*
X398900D01*
X522901Y609399D02*
Y607000D01*
X524701D01*
X524101Y608200D01*
Y608799D01*
X524701Y609399D01*
X525900D01*
X526500Y608799D01*
Y607600D01*
X525900Y607000D01*
X522901Y610599D02*
X525300D01*
X526500Y611798D01*
X525300Y612998D01*
X522901D01*
X533901Y607000D02*
X536300D01*
X537500Y608200D01*
X536300Y609399D01*
X533901D01*
X535701Y610599D02*
Y612998D01*
X534501Y611798D02*
X536900D01*
X544501Y606500D02*
X543901Y607100D01*
Y608299D01*
X544501Y608899D01*
X545101D01*
X545701Y608299D01*
Y607700D01*
Y608299D01*
X546300Y608899D01*
X546900D01*
X547500Y608299D01*
Y607100D01*
X546900Y606500D01*
X543901Y610099D02*
X546300D01*
X547500Y611298D01*
X546300Y612498D01*
X543901D01*
X544501Y613698D02*
X543901Y614297D01*
Y615497D01*
X544501Y616097D01*
X545101D01*
X545701Y615497D01*
Y614897D01*
Y615497D01*
X546300Y616097D01*
X546900D01*
X547500Y615497D01*
Y614297D01*
X546900Y613698D01*
X619501Y667899D02*
X618901Y667299D01*
Y666100D01*
X619501Y665500D01*
X621900D01*
X622500Y666100D01*
Y667299D01*
X621900Y667899D01*
X620701D01*
Y666700D01*
X622500Y669099D02*
X618901D01*
X622500Y671498D01*
X618901D01*
Y672698D02*
X622500D01*
Y674497D01*
X621900Y675097D01*
X619501D01*
X618901Y674497D01*
Y672698D01*
X619501Y706899D02*
X618901Y706299D01*
Y705100D01*
X619501Y704500D01*
X621900D01*
X622500Y705100D01*
Y706299D01*
X621900Y706899D01*
X620701D01*
Y705700D01*
X622500Y708099D02*
X618901D01*
X622500Y710498D01*
X618901D01*
Y711698D02*
X622500D01*
Y713497D01*
X621900Y714097D01*
X619501D01*
X618901Y713497D01*
Y711698D01*
X619001Y758399D02*
X618401Y757799D01*
Y756600D01*
X619001Y756000D01*
X621400D01*
X622000Y756600D01*
Y757799D01*
X621400Y758399D01*
X620201D01*
Y757200D01*
X622000Y759599D02*
X618401D01*
X622000Y761998D01*
X618401D01*
Y763198D02*
X622000D01*
Y764997D01*
X621400Y765597D01*
X619001D01*
X618401Y764997D01*
Y763198D01*
X622500Y690500D02*
X618901D01*
Y692299D01*
X619501Y692899D01*
X620701D01*
X621300Y692299D01*
Y690500D01*
X618901Y694099D02*
X622500D01*
X621300Y695298D01*
X622500Y696498D01*
X618901D01*
X622500Y697698D02*
X618901D01*
X620101Y698897D01*
X618901Y700097D01*
X622500D01*
Y651000D02*
X618901D01*
Y652799D01*
X619501Y653399D01*
X620701D01*
X621300Y652799D01*
Y651000D01*
X618901Y654599D02*
X622500D01*
X621300Y655798D01*
X622500Y656998D01*
X618901D01*
X622500Y658198D02*
X618901D01*
X620101Y659397D01*
X618901Y660597D01*
X622500D01*
X618501Y807899D02*
X617901Y807299D01*
Y806100D01*
X618501Y805500D01*
X620900D01*
X621500Y806100D01*
Y807299D01*
X620900Y807899D01*
X619701D01*
Y806700D01*
X621500Y809099D02*
X617901D01*
X621500Y811498D01*
X617901D01*
Y812698D02*
X621500D01*
Y814497D01*
X620900Y815097D01*
X618501D01*
X617901Y814497D01*
Y812698D01*
X619201Y838000D02*
Y840399D01*
X618001Y839200D02*
X620400D01*
X618701Y851500D02*
Y853899D01*
X619201Y881500D02*
Y883899D01*
X618001Y882700D02*
X620400D01*
X619201Y922500D02*
Y924899D01*
X618001Y923700D02*
X620400D01*
X619201Y964000D02*
Y966399D01*
X618001Y965200D02*
X620400D01*
X618701Y1006500D02*
Y1008899D01*
X617501Y1007700D02*
X619900D01*
X618701Y1048000D02*
Y1050399D01*
X617501Y1049200D02*
X619900D01*
X618701Y895000D02*
Y897399D01*
Y935500D02*
Y937899D01*
Y977000D02*
Y979399D01*
X618201Y1020000D02*
Y1022399D01*
Y1061000D02*
Y1063399D01*
X561500Y1150000D02*
X557901D01*
Y1151799D01*
X558501Y1152399D01*
X559701D01*
X560300Y1151799D01*
Y1150000D01*
X557901Y1153599D02*
X561500D01*
X560300Y1154799D01*
X561500Y1155998D01*
X557901D01*
X561500Y1157198D02*
X557901D01*
X559101Y1158397D01*
X557901Y1159597D01*
X561500D01*
X547001Y1152399D02*
X546401Y1151799D01*
Y1150600D01*
X547001Y1150000D01*
X549400D01*
X550000Y1150600D01*
Y1151799D01*
X549400Y1152399D01*
X548201D01*
Y1151200D01*
X550000Y1153599D02*
X546401D01*
X550000Y1155998D01*
X546401D01*
Y1157198D02*
X550000D01*
Y1158997D01*
X549400Y1159597D01*
X547001D01*
X546401Y1158997D01*
Y1157198D01*
X602000Y1150500D02*
X598401D01*
Y1152299D01*
X599001Y1152899D01*
X600201D01*
X600800Y1152299D01*
Y1150500D01*
X598401Y1154099D02*
X602000D01*
X600800Y1155299D01*
X602000Y1156498D01*
X598401D01*
X602000Y1157698D02*
X598401D01*
X599601Y1158897D01*
X598401Y1160097D01*
X602000D01*
X587501Y1152899D02*
X586901Y1152299D01*
Y1151100D01*
X587501Y1150500D01*
X589900D01*
X590500Y1151100D01*
Y1152299D01*
X589900Y1152899D01*
X588701D01*
Y1151700D01*
X590500Y1154099D02*
X586901D01*
X590500Y1156498D01*
X586901D01*
Y1157698D02*
X590500D01*
Y1159497D01*
X589900Y1160097D01*
X587501D01*
X586901Y1159497D01*
Y1157698D01*
X379000Y779899D02*
Y777500D01*
X376601Y779899D01*
X376001D01*
X375401Y779299D01*
Y778100D01*
X376001Y777500D01*
X379000Y782898D02*
X375401D01*
X377201Y781099D01*
Y783498D01*
X375401Y784698D02*
X377800D01*
X379000Y785897D01*
X377800Y787097D01*
X375401D01*
X379000Y792899D02*
Y790500D01*
X376601Y792899D01*
X376001D01*
X375401Y792299D01*
Y791100D01*
X376001Y790500D01*
Y794099D02*
X375401Y794699D01*
Y795898D01*
X376001Y796498D01*
X378400D01*
X379000Y795898D01*
Y794699D01*
X378400Y794099D01*
X376001D01*
X375401Y797698D02*
X377800D01*
X379000Y798897D01*
X377800Y800097D01*
X375401D01*
X379000Y804000D02*
Y805200D01*
Y804600D01*
X375401D01*
X376001Y804000D01*
X375401Y809398D02*
X376001Y808199D01*
X377201Y806999D01*
X378400D01*
X379000Y807599D01*
Y808798D01*
X378400Y809398D01*
X377800D01*
X377201Y808798D01*
Y806999D01*
X375401Y810598D02*
X377800D01*
X379000Y811798D01*
X377800Y812997D01*
X375401D01*
X381500Y900899D02*
Y898500D01*
X379101Y900899D01*
X378501D01*
X377901Y900299D01*
Y899100D01*
X378501Y898500D01*
X381500Y903898D02*
X377901D01*
X379701Y902099D01*
Y904498D01*
X377901Y905698D02*
X380300D01*
X381500Y906897D01*
X380300Y908097D01*
X377901D01*
X381500Y913899D02*
Y911500D01*
X379101Y913899D01*
X378501D01*
X377901Y913299D01*
Y912100D01*
X378501Y911500D01*
Y915099D02*
X377901Y915699D01*
Y916898D01*
X378501Y917498D01*
X380900D01*
X381500Y916898D01*
Y915699D01*
X380900Y915099D01*
X378501D01*
X377901Y918698D02*
X380300D01*
X381500Y919897D01*
X380300Y921097D01*
X377901D01*
X381500Y925000D02*
Y926200D01*
Y925600D01*
X377901D01*
X378501Y925000D01*
X377901Y930398D02*
X378501Y929199D01*
X379701Y927999D01*
X380900D01*
X381500Y928599D01*
Y929799D01*
X380900Y930398D01*
X380300D01*
X379701Y929799D01*
Y927999D01*
X377901Y931598D02*
X380300D01*
X381500Y932798D01*
X380300Y933997D01*
X377901D01*
X385901Y887500D02*
X388300D01*
X389500Y888700D01*
X388300Y889899D01*
X385901D01*
X389500Y891699D02*
Y892898D01*
X388900Y893498D01*
X387701D01*
X387101Y892898D01*
Y891699D01*
X387701Y891099D01*
X388900D01*
X389500Y891699D01*
Y894698D02*
Y895897D01*
Y895298D01*
X385901D01*
Y894698D01*
X386501Y898297D02*
X387101D01*
Y897697D01*
Y898896D01*
Y898297D01*
X388900D01*
X389500Y898896D01*
X387101Y901296D02*
Y902495D01*
X387701Y903095D01*
X389500D01*
Y901296D01*
X388900Y900696D01*
X388300Y901296D01*
Y903095D01*
X390700Y905494D02*
Y906094D01*
X390100Y906694D01*
X387101D01*
Y904894D01*
X387701Y904295D01*
X388900D01*
X389500Y904894D01*
Y906694D01*
Y909693D02*
Y908493D01*
X388900Y907893D01*
X387701D01*
X387101Y908493D01*
Y909693D01*
X387701Y910293D01*
X388300D01*
Y907893D01*
X386501Y917490D02*
X385901Y916891D01*
Y915691D01*
X386501Y915091D01*
X387101D01*
X387701Y915691D01*
Y916891D01*
X388300Y917490D01*
X388900D01*
X389500Y916891D01*
Y915691D01*
X388900Y915091D01*
X389500Y920489D02*
Y919290D01*
X388900Y918690D01*
X387701D01*
X387101Y919290D01*
Y920489D01*
X387701Y921089D01*
X388300D01*
Y918690D01*
X389500Y922289D02*
Y923488D01*
Y922889D01*
X385901D01*
Y922289D01*
X389500Y927087D02*
Y925888D01*
X388900Y925288D01*
X387701D01*
X387101Y925888D01*
Y927087D01*
X387701Y927687D01*
X388300D01*
Y925288D01*
X387101Y931286D02*
Y929486D01*
X387701Y928887D01*
X388900D01*
X389500Y929486D01*
Y931286D01*
X386501Y933085D02*
X387101D01*
Y932485D01*
Y933685D01*
Y933085D01*
X388900D01*
X389500Y933685D01*
Y936084D02*
Y937284D01*
X388900Y937884D01*
X387701D01*
X387101Y937284D01*
Y936084D01*
X387701Y935485D01*
X388900D01*
X389500Y936084D01*
X387101Y939083D02*
X389500D01*
X388300D01*
X387701Y939683D01*
X387101Y940283D01*
Y940883D01*
Y942682D02*
Y943282D01*
X387701D01*
Y942682D01*
X387101D01*
X388900D02*
Y943282D01*
X389500D01*
Y942682D01*
X388900D01*
X385901Y949280D02*
X388300D01*
X389500Y950480D01*
X388300Y951679D01*
X385901D01*
X389500Y955278D02*
Y952879D01*
X387101Y955278D01*
X386501D01*
X385901Y954678D01*
Y953479D01*
X386501Y952879D01*
X383401Y766000D02*
X385800D01*
X387000Y767200D01*
X385800Y768399D01*
X383401D01*
X387000Y770199D02*
Y771398D01*
X386400Y771998D01*
X385201D01*
X384601Y771398D01*
Y770199D01*
X385201Y769599D01*
X386400D01*
X387000Y770199D01*
Y773198D02*
Y774397D01*
Y773798D01*
X383401D01*
Y773198D01*
X384001Y776796D02*
X384601D01*
Y776197D01*
Y777396D01*
Y776796D01*
X386400D01*
X387000Y777396D01*
X384601Y779796D02*
Y780995D01*
X385201Y781595D01*
X387000D01*
Y779796D01*
X386400Y779196D01*
X385800Y779796D01*
Y781595D01*
X388200Y783994D02*
Y784594D01*
X387600Y785194D01*
X384601D01*
Y783394D01*
X385201Y782795D01*
X386400D01*
X387000Y783394D01*
Y785194D01*
Y788193D02*
Y786993D01*
X386400Y786393D01*
X385201D01*
X384601Y786993D01*
Y788193D01*
X385201Y788793D01*
X385800D01*
Y786393D01*
X384001Y795990D02*
X383401Y795391D01*
Y794191D01*
X384001Y793591D01*
X384601D01*
X385201Y794191D01*
Y795391D01*
X385800Y795990D01*
X386400D01*
X387000Y795391D01*
Y794191D01*
X386400Y793591D01*
X387000Y798989D02*
Y797790D01*
X386400Y797190D01*
X385201D01*
X384601Y797790D01*
Y798989D01*
X385201Y799589D01*
X385800D01*
Y797190D01*
X387000Y800789D02*
Y801988D01*
Y801389D01*
X383401D01*
Y800789D01*
X387000Y805587D02*
Y804388D01*
X386400Y803788D01*
X385201D01*
X384601Y804388D01*
Y805587D01*
X385201Y806187D01*
X385800D01*
Y803788D01*
X384601Y809786D02*
Y807987D01*
X385201Y807387D01*
X386400D01*
X387000Y807987D01*
Y809786D01*
X384001Y811585D02*
X384601D01*
Y810985D01*
Y812185D01*
Y811585D01*
X386400D01*
X387000Y812185D01*
Y814584D02*
Y815784D01*
X386400Y816384D01*
X385201D01*
X384601Y815784D01*
Y814584D01*
X385201Y813984D01*
X386400D01*
X387000Y814584D01*
X384601Y817583D02*
X387000D01*
X385800D01*
X385201Y818183D01*
X384601Y818783D01*
Y819383D01*
Y821182D02*
Y821782D01*
X385201D01*
Y821182D01*
X384601D01*
X386400D02*
Y821782D01*
X387000D01*
Y821182D01*
X386400D01*
X383401Y827780D02*
X385800D01*
X387000Y828980D01*
X385800Y830179D01*
X383401D01*
X387000Y831379D02*
Y832578D01*
Y831979D01*
X383401D01*
X384001Y831379D01*
X372900Y1085000D02*
X373500Y1085600D01*
Y1086799D01*
X372900Y1087399D01*
X370501D01*
X369901Y1086799D01*
Y1085600D01*
X370501Y1085000D01*
X371101D01*
X371701Y1085600D01*
Y1087399D01*
X369901Y1088599D02*
X372300D01*
X373500Y1089799D01*
X372300Y1090998D01*
X369901D01*
X373500Y1094500D02*
Y1095700D01*
Y1095100D01*
X369901D01*
X370501Y1094500D01*
X373500Y1099898D02*
Y1097499D01*
X371101Y1099898D01*
X370501D01*
X369901Y1099298D01*
Y1098099D01*
X370501Y1097499D01*
X369901Y1101098D02*
X372300D01*
X373500Y1102297D01*
X372300Y1103497D01*
X369901D01*
X487500Y1085500D02*
Y1086700D01*
Y1086100D01*
X483901D01*
X484501Y1085500D01*
X487500Y1090898D02*
Y1088499D01*
X485101Y1090898D01*
X484501D01*
X483901Y1090298D01*
Y1089099D01*
X484501Y1088499D01*
X483901Y1092098D02*
X486300D01*
X487500Y1093297D01*
X486300Y1094497D01*
X483901D01*
X432500Y1084500D02*
Y1085700D01*
Y1085100D01*
X428901D01*
X429501Y1084500D01*
X432500Y1089898D02*
Y1087499D01*
X430101Y1089898D01*
X429501D01*
X428901Y1089299D01*
Y1088099D01*
X429501Y1087499D01*
X428901Y1091098D02*
X431300D01*
X432500Y1092297D01*
X431300Y1093497D01*
X428901D01*
X428401Y1097000D02*
X430800D01*
X432000Y1098200D01*
X430800Y1099399D01*
X428401D01*
X432000Y1102998D02*
Y1100599D01*
X429601Y1102998D01*
X429001D01*
X428401Y1102398D01*
Y1101199D01*
X429001Y1100599D01*
X484401Y1098500D02*
X486800D01*
X488000Y1099700D01*
X486800Y1100899D01*
X484401D01*
X488000Y1102099D02*
Y1103298D01*
Y1102699D01*
X484401D01*
X485001Y1102099D01*
X381001Y1152899D02*
X380401Y1152299D01*
Y1151100D01*
X381001Y1150500D01*
X383400D01*
X384000Y1151100D01*
Y1152299D01*
X383400Y1152899D01*
X382201D01*
Y1151700D01*
X384000Y1154099D02*
X380401D01*
X384000Y1156498D01*
X380401D01*
Y1157698D02*
X384000D01*
Y1159497D01*
X383400Y1160097D01*
X381001D01*
X380401Y1159497D01*
Y1157698D01*
X420501Y1152899D02*
X419901Y1152299D01*
Y1151100D01*
X420501Y1150500D01*
X422900D01*
X423500Y1151100D01*
Y1152299D01*
X422900Y1152899D01*
X421701D01*
Y1151700D01*
X423500Y1154099D02*
X419901D01*
X423500Y1156498D01*
X419901D01*
Y1157698D02*
X423500D01*
Y1159497D01*
X422900Y1160097D01*
X420501D01*
X419901Y1159497D01*
Y1157698D01*
X462001Y1152899D02*
X461401Y1152299D01*
Y1151100D01*
X462001Y1150500D01*
X464400D01*
X465000Y1151100D01*
Y1152299D01*
X464400Y1152899D01*
X463201D01*
Y1151700D01*
X465000Y1154099D02*
X461401D01*
X465000Y1156498D01*
X461401D01*
Y1157698D02*
X465000D01*
Y1159497D01*
X464400Y1160097D01*
X462001D01*
X461401Y1159497D01*
Y1157698D01*
X501501Y1152899D02*
X500901Y1152299D01*
Y1151100D01*
X501501Y1150500D01*
X503900D01*
X504500Y1151100D01*
Y1152299D01*
X503900Y1152899D01*
X502701D01*
Y1151700D01*
X504500Y1154099D02*
X500901D01*
X504500Y1156498D01*
X500901D01*
Y1157698D02*
X504500D01*
Y1159497D01*
X503900Y1160097D01*
X501501D01*
X500901Y1159497D01*
Y1157698D01*
X205201Y777500D02*
Y779899D01*
X204001Y778700D02*
X206400D01*
X204701Y789000D02*
Y791399D01*
X204201Y1090000D02*
Y1092399D01*
X203001Y1091200D02*
X205400D01*
X204201Y1103000D02*
Y1105399D01*
X233101Y1130001D02*
X233701Y1129401D01*
X234900D01*
X235500Y1130001D01*
Y1132400D01*
X234900Y1133000D01*
X233701D01*
X233101Y1132400D01*
Y1131201D01*
X234300D01*
X231901Y1133000D02*
Y1129401D01*
X229502Y1133000D01*
Y1129401D01*
X228302D02*
Y1133000D01*
X226503D01*
X225903Y1132400D01*
Y1130001D01*
X226503Y1129401D01*
X228302D01*
X248101Y1129501D02*
X248701Y1128901D01*
X249900D01*
X250500Y1129501D01*
Y1130101D01*
X249900Y1130701D01*
X248701D01*
X248101Y1131300D01*
Y1131900D01*
X248701Y1132500D01*
X249900D01*
X250500Y1131900D01*
X246901Y1128901D02*
Y1132500D01*
X245102D01*
X244502Y1131900D01*
Y1129501D01*
X245102Y1128901D01*
X246901D01*
X243302Y1132500D02*
Y1130101D01*
X242103Y1128901D01*
X240903Y1130101D01*
Y1132500D01*
Y1130701D01*
X243302D01*
X262601Y1129501D02*
X263201Y1128901D01*
X264400D01*
X265000Y1129501D01*
Y1130101D01*
X264400Y1130701D01*
X263201D01*
X262601Y1131300D01*
Y1131900D01*
X263201Y1132500D01*
X264400D01*
X265000Y1131900D01*
X259002Y1129501D02*
X259602Y1128901D01*
X260801D01*
X261401Y1129501D01*
Y1131900D01*
X260801Y1132500D01*
X259602D01*
X259002Y1131900D01*
X257802Y1128901D02*
Y1132500D01*
X255403D01*
D72*
X315390Y1036598D02*
Y1038173D01*
X312634Y1036598D02*
Y1038173D01*
X303634Y1036598D02*
Y1038173D01*
X306390Y1036598D02*
Y1038173D01*
X338390Y929445D02*
X339965D01*
X338390Y932201D02*
X339965D01*
X338390Y924327D02*
X339965D01*
X338390Y921571D02*
X339965D01*
X338390Y916453D02*
X339965D01*
X338390Y913697D02*
X339965D01*
X338390Y908579D02*
X339965D01*
X338390Y905823D02*
X339965D01*
X412104Y1031254D02*
Y1032829D01*
X409348Y1031254D02*
Y1032829D01*
X406199Y1031254D02*
Y1032829D01*
X403443Y1031254D02*
Y1032829D01*
X400293Y1031254D02*
Y1032829D01*
X397537Y1031254D02*
Y1032829D01*
X416041Y1015506D02*
Y1017081D01*
X413285Y1015506D02*
Y1017081D01*
X407380Y1015506D02*
Y1017081D01*
X410136Y1015506D02*
Y1017081D01*
X416041Y1001726D02*
Y1003301D01*
X413285Y1001726D02*
Y1003301D01*
X407380Y1001726D02*
Y1003301D01*
X410136Y1001726D02*
Y1003301D01*
X416136Y987837D02*
Y989412D01*
X413380Y987837D02*
Y989412D01*
X407380Y987837D02*
Y989412D01*
X410136Y987837D02*
Y989412D01*
X416041Y973183D02*
Y974758D01*
X413285Y973183D02*
Y974758D01*
X407380Y973183D02*
Y974758D01*
X410136Y973183D02*
Y974758D01*
X465254Y1031254D02*
Y1032829D01*
X462498Y1031254D02*
Y1032829D01*
X471159Y1031254D02*
Y1032829D01*
X468403Y1031254D02*
Y1032829D01*
X468403Y1015506D02*
Y1017081D01*
X471159Y1015506D02*
Y1017081D01*
X477065Y1015506D02*
Y1017081D01*
X474309Y1015506D02*
Y1017081D01*
X468403Y1001726D02*
Y1003301D01*
X471159Y1001726D02*
Y1003301D01*
X477065Y1001726D02*
Y1003301D01*
X474309Y1001726D02*
Y1003301D01*
X468403Y987947D02*
Y989522D01*
X471159Y987947D02*
Y989522D01*
X477065Y987947D02*
Y989522D01*
X474309Y987947D02*
Y989522D01*
X468403Y974167D02*
Y975742D01*
X471159Y974167D02*
Y975742D01*
X477065Y974167D02*
Y975742D01*
X474309Y974167D02*
Y975742D01*
X477065Y1031254D02*
Y1032829D01*
X474309Y1031254D02*
Y1032829D01*
X482971Y1031254D02*
Y1032829D01*
X480215Y1031254D02*
Y1032829D01*
X428665Y666622D02*
X430240D01*
X428665Y669378D02*
X430240D01*
X475996Y671461D02*
X477571D01*
X475996Y674217D02*
X477571D01*
X520701Y668504D02*
X522276D01*
X520701Y671260D02*
X522276D01*
X570083Y673429D02*
X571657D01*
X570083Y676185D02*
X571657D01*
X399961Y656783D02*
Y658358D01*
X402716Y656783D02*
Y658358D01*
X447846Y662677D02*
Y664252D01*
X450602Y662677D02*
Y664252D01*
X492551Y661221D02*
Y662795D01*
X495307Y661221D02*
Y662795D01*
X539964Y666146D02*
Y667721D01*
X542720Y666146D02*
Y667721D01*
X417677Y715839D02*
Y717413D01*
X420433Y715839D02*
Y717413D01*
X465563Y719764D02*
Y721339D01*
X468319Y719764D02*
Y721339D01*
X510268Y718307D02*
Y719882D01*
X513024Y718307D02*
Y719882D01*
X559650Y725201D02*
Y726776D01*
X562405Y725201D02*
Y726776D01*
X422205Y705406D02*
X423779D01*
X422205Y708161D02*
X423779D01*
X470090Y709331D02*
X471665D01*
X470090Y712087D02*
X471665D01*
X514795Y707874D02*
X516370D01*
X514795Y710630D02*
X516370D01*
X564177Y714768D02*
X565752D01*
X564177Y717524D02*
X565752D01*
X406457Y671941D02*
X408032D01*
X406457Y674697D02*
X408032D01*
X454343Y677835D02*
X455917D01*
X454343Y680591D02*
X455917D01*
X499047Y676378D02*
X500622D01*
X499047Y679134D02*
X500622D01*
X548429Y681303D02*
X550004D01*
X548429Y684059D02*
X550004D01*
X406457Y668791D02*
X408032D01*
X406457Y666035D02*
X408032D01*
X454343Y674685D02*
X455917D01*
X454343Y671929D02*
X455917D01*
X499047Y673228D02*
X500622D01*
X499047Y670472D02*
X500622D01*
X548429Y678154D02*
X550004D01*
X548429Y675398D02*
X550004D01*
X414331Y702256D02*
X415906D01*
X414331Y699500D02*
X415906D01*
X462217Y706181D02*
X463791D01*
X462217Y703425D02*
X463791D01*
X506921Y704724D02*
X508496D01*
X506921Y701968D02*
X508496D01*
X556303Y711618D02*
X557878D01*
X556303Y708862D02*
X557878D01*
X394646Y666035D02*
X396220D01*
X394646Y668791D02*
X396220D01*
X442531Y671929D02*
X444106D01*
X442531Y674685D02*
X444106D01*
X487236Y670472D02*
X488811D01*
X487236Y673228D02*
X488811D01*
X536618Y675398D02*
X538193D01*
X536618Y678154D02*
X538193D01*
X421378Y662165D02*
Y663740D01*
X418622Y662165D02*
Y663740D01*
X469787Y666114D02*
Y667689D01*
X467031Y666114D02*
Y667689D01*
X514748Y665461D02*
Y667035D01*
X511992Y665461D02*
Y667035D01*
X564374Y670083D02*
Y671658D01*
X561618Y670083D02*
Y671658D01*
X498665Y789024D02*
Y790598D01*
X501421Y789024D02*
Y790598D01*
X504571Y789024D02*
Y790598D01*
X507327Y789024D02*
Y790598D01*
X409378Y808713D02*
Y810287D01*
X406622Y808713D02*
Y810287D01*
X246878Y659213D02*
Y660787D01*
X244122Y659213D02*
Y660787D01*
X260378Y769213D02*
Y770787D01*
X257622Y769213D02*
Y770787D01*
X434707Y987010D02*
X451242D01*
X434707D02*
Y1028349D01*
X451242Y987010D02*
Y1028349D01*
X434707D02*
X451242D01*
X338205Y784205D02*
X339779D01*
X338205Y786961D02*
X339779D01*
X338205Y792079D02*
X339779D01*
X338205Y794835D02*
X339779D01*
X338205Y799953D02*
X339779D01*
X338205Y802709D02*
X339779D01*
X338205Y810583D02*
X339779D01*
X338205Y807827D02*
X339779D01*
X528783Y766780D02*
X530358D01*
X528783Y769535D02*
X530358D01*
X528783Y774653D02*
X530358D01*
X528783Y777410D02*
X530358D01*
X489413Y766280D02*
X490988D01*
X489413Y769035D02*
X490988D01*
X489413Y774653D02*
X490988D01*
X489413Y777410D02*
X490988D01*
X532917Y789555D02*
Y791130D01*
X530161Y789555D02*
Y791130D01*
X527012Y789555D02*
Y791130D01*
X524256Y789555D02*
Y791130D01*
X484465Y786511D02*
Y788085D01*
X481709Y786511D02*
Y788085D01*
X418470Y1032199D02*
X420045D01*
X418470Y1029443D02*
X420045D01*
X454888Y1033380D02*
X456463D01*
X454888Y1036136D02*
X456463D01*
X431266Y1036136D02*
X432840D01*
X431266Y1033380D02*
X432840D01*
X517095Y1031854D02*
X518669D01*
X517095Y1034610D02*
X518669D01*
X516067Y996819D02*
X517642D01*
X516067Y999575D02*
X517642D01*
X516067Y961386D02*
X517642D01*
X516067Y964142D02*
X517642D01*
X516067Y927921D02*
X517642D01*
X516067Y930677D02*
X517642D01*
X493323Y1040461D02*
X494898D01*
X493323Y1037705D02*
X494898D01*
X493323Y1005028D02*
X494898D01*
X493323Y1002272D02*
X494898D01*
X493323Y969594D02*
X494898D01*
X493323Y966839D02*
X494898D01*
X493323Y936130D02*
X494898D01*
X493323Y933374D02*
X494898D01*
X530661Y575039D02*
X532236D01*
X530661Y572284D02*
X532236D01*
X542614Y583764D02*
X544189D01*
X542614Y586520D02*
X544189D01*
X392362Y574299D02*
X393937D01*
X392362Y571543D02*
X393937D01*
X404413Y583894D02*
X405988D01*
X404413Y586650D02*
X405988D01*
D73*
X486809Y813826D02*
X498806D01*
X492522D02*
X491379Y814968D01*
X490808Y816111D01*
Y817825D01*
X491379Y818967D01*
X492522Y820110D01*
X494236Y820681D01*
X495378D01*
X497092Y820110D01*
X498235Y818967D01*
X498806Y817825D01*
Y816111D01*
X498235Y814968D01*
X497092Y813826D01*
X490808Y823823D02*
X498806Y827251D01*
X490808Y830679D02*
X498806Y827251D01*
X501091Y826109D01*
X502234Y824966D01*
X502805Y823823D01*
Y823252D01*
X486809Y842105D02*
X498806D01*
X490808Y847475D02*
X491379Y846333D01*
X492522Y845190D01*
X494236Y844619D01*
X495378D01*
X497092Y845190D01*
X498235Y846333D01*
X498806Y847475D01*
Y849189D01*
X498235Y850332D01*
X497092Y851475D01*
X495378Y852046D01*
X494236D01*
X492522Y851475D01*
X491379Y850332D01*
X490808Y849189D01*
Y847475D01*
X486809Y854674D02*
X498806Y857530D01*
X486809Y860387D02*
X498806Y857530D01*
X486809Y860387D02*
X498806Y863243D01*
X486809Y866100D02*
X498806Y863243D01*
X486809Y877926D02*
X498806D01*
Y884782D01*
X490808Y892951D02*
X498806D01*
X492522D02*
X491379Y891809D01*
X490808Y890666D01*
Y888952D01*
X491379Y887810D01*
X492522Y886667D01*
X494236Y886096D01*
X495378D01*
X497092Y886667D01*
X498235Y887810D01*
X498806Y888952D01*
Y890666D01*
X498235Y891809D01*
X497092Y892951D01*
X486809Y896151D02*
X498806D01*
X492522D02*
X491379Y897293D01*
X490808Y898436D01*
Y900150D01*
X491379Y901293D01*
X492522Y902435D01*
X494236Y903006D01*
X495378D01*
X497092Y902435D01*
X498235Y901293D01*
X498806Y900150D01*
Y898436D01*
X498235Y897293D01*
X497092Y896151D01*
X492522Y911862D02*
X491379Y911290D01*
X490808Y909576D01*
Y907862D01*
X491379Y906149D01*
X492522Y905577D01*
X493665Y906149D01*
X494236Y907291D01*
X494807Y910148D01*
X495378Y911290D01*
X496521Y911862D01*
X497092D01*
X498235Y911290D01*
X498806Y909576D01*
Y907862D01*
X498235Y906149D01*
X497092Y905577D01*
D74*
X426953Y817115D02*
X446948D01*
X426953D02*
Y829493D01*
X436474Y817115D02*
Y824732D01*
X426953Y831778D02*
X446948D01*
X433618Y835968D02*
X443140D01*
X445996Y836920D01*
X446948Y838824D01*
Y841681D01*
X445996Y843585D01*
X443140Y846442D01*
X433618D02*
X446948D01*
X426953Y857392D02*
X427905Y855487D01*
X429809Y853583D01*
X431714Y852631D01*
X434570Y851678D01*
X439331D01*
X442188Y852631D01*
X444092Y853583D01*
X445996Y855487D01*
X446948Y857392D01*
Y861200D01*
X445996Y863105D01*
X444092Y865009D01*
X442188Y865961D01*
X439331Y866913D01*
X434570D01*
X431714Y865961D01*
X429809Y865009D01*
X427905Y863105D01*
X426953Y861200D01*
Y857392D01*
X433618Y871579D02*
X453614D01*
X436474D02*
X434570Y873483D01*
X433618Y875388D01*
Y878244D01*
X434570Y880149D01*
X436474Y882053D01*
X439331Y883005D01*
X441235D01*
X444092Y882053D01*
X445996Y880149D01*
X446948Y878244D01*
Y875388D01*
X445996Y873483D01*
X444092Y871579D01*
X426953Y890147D02*
X443140D01*
X445996Y891099D01*
X446948Y893003D01*
Y894907D01*
X433618Y887290D02*
Y893955D01*
X426953Y899668D02*
X427905Y900620D01*
X426953Y901573D01*
X426000Y900620D01*
X426953Y899668D01*
X433618Y900620D02*
X446948D01*
M02*
