M48
;Layer_Color=9474304
;FILE_FORMAT=2:5
INCH,LZ
;TYPE=PLATED
T1F00S00C0.01000
T3F00S00C0.03598
T4F00S00C0.03937
T5F00S00C0.04331
T6F00S00C0.04724
T7F00S00C0.09449
T8F00S00C0.12598
%
T01
X0483Y0613
X05075Y06125
X0507992Y0623984
X0559492Y0606484
X0569992Y0615984
X0595992Y0611484
X05995Y0601
X06115Y0617
X0458492Y0618984
X0437Y06115
X03955Y062
X03435Y06135
X0337Y06245
X03185Y05995
X0278Y06245
X025Y06075
X0221Y0592
X0236405Y06285
X0237Y06395
X0249Y06435
X0251Y0663
X02335
X0232Y06545
X02655Y06815
X02695Y0696
X0262343Y0703402
X0252126Y0703118
X0261Y07135
X0252126Y0738685
X02455Y07725
X0265Y0774
X0287492Y0769484
X0303492Y0763984
X0292Y063
X0318Y0627
X032Y0635
X0313122Y0666157
X0313323Y0672858
X0313028Y0679563
X0355Y0677
X03575Y06875
X03545Y0697
X0366Y06935
X03655Y07025
X03755Y0696
X03735Y0685
X03745Y0673
X0363776Y0661815
X03535Y06615
X0343783Y0649827
X0382Y0657
X03965Y06615
X04015Y06505
X0419976Y0655476
X0425Y06365
X0461
X0468409Y0659091
X0449Y06555
X0437Y0679
X0433681Y0683949
X0423Y06795
X0415Y0687
X04Y069
X0402874Y0694256
X04055Y0711
X0397Y0721
X0377Y0713
X03535Y0715
X0329528Y0728063
X0319992Y0760484
X0338492Y0764984
X0365492Y0760984
X03595Y07485
X03825Y07465
X0419874Y0735256
X0432874Y0731256
X044276Y0719004
X045276
X0448Y07045
X0442819Y0704563
X0426Y07015
X0462835Y0691665
X0467728Y0736004
X0467866Y0767736
X0467531Y0776031
X04435Y0773
X0434085Y0758915
X0490957Y0763071
X0483Y074
X0488Y0719
X0498Y07185
X0494965Y0701965
X0488024Y0702024
X04895Y06965
X0508Y06905
X0515177Y0682677
X05315Y0682
X05295Y06975
X0537346Y0702307
X0543346
X0547248Y0717209
X0537Y07185
X0518465Y0704465
X05125Y07345
X05165Y07515
X05265Y0742
X0529Y0763394
X05355Y0772
X0549342Y0768157
X0549469Y0776031
X051Y07755
X0511957Y0779571
X0578Y0762
X0576346Y0742807
X0561846Y0740807
X0566539Y071
X0557346Y0696307
X0564846Y0687807
X0562846Y0663307
X0541346Y0659807
X05385Y06355
X0513465Y0658965
X04945Y0654
X0484Y06635
X0470346Y0684346
X0473831Y0705965
X0584Y06785
X0594992Y0628484
X0578Y0782
X0579Y0805
X05775Y08175
X0554Y08135
X0564Y0797
X05395Y07935
X0541Y07875
X05215Y0788
X05115Y07855
X0513035Y0796492
X0515Y08065
X05275
X05285Y0819
X0524Y08375
X05385Y08335
X05415Y08655
X05335Y08715
X0523Y0881
X05105Y0897
X0519882Y0924575
X0483Y09195
X04705Y09065
X04805Y0885
X04775Y08715
X04725Y0831
X0476Y08175
X04705Y0806
X0476087Y0791345
X0474Y07845
X0495764Y0792764
X05205Y0854
X06105Y08205
X04595Y08065
X0442Y07925
X0447Y0787
X0433248Y0790721
X0427Y0790575
X0426Y0798
X04225Y08015
X0413Y08135
X03925Y08125
X04085Y08335
X0411971Y08455
X0397
X0395Y0862
X03865Y0854
X03875Y08775
X0397Y0882
X041Y08725
X0408Y0857
X04085Y09015
X04265Y0911
X0428677Y0931283
X0433677Y0931311
X0438677Y0930783
X0443677
X0448677Y0930811
X0453677Y0930783
X0458677
X0463677Y0931283
X0453Y091
X03745Y0885
X0369661Y0875346
X035948Y0878102
X035474Y0867984
X0344342Y0824402
X0348Y0818
X0343342Y0814902
X0346646Y0809205
X035474Y0813862
X0354992Y0935484
X0345874Y0936902
X0346492Y0930984
X0279Y092598
X0250492Y0925484
X0241374Y0926402
X0238374Y0934902
X0241992Y0909984
X0243492Y0895484
X0257992Y0888984
X02645Y09025
X0223492Y0900984
Y0913984
X0222992Y0883484
X0215992Y0865484
X0220492Y0850984
X0252378Y0846846
Y0811173
X0253343Y0803902
X0242843Y0803402
X0242342Y0812902
X0224342Y0816402
X0226842Y0804402
X0243342Y0792402
X0281492Y0782484
X0280279Y0810437
X0294Y08275
X0284Y08665
X0239689Y0870106
X0250492Y0959984
X0218992Y0952984
Y0980484
X0217992Y1002984
X0230492Y0997984
X0237374Y0985941
X0274992Y0987484
X0269342Y1007402
X0257Y1006
X02975
X0296012Y1029512
X0305Y10295
X028776Y1054701
X0287409Y1068051
X0267Y1076114
X02585Y10755
X0227492Y1048484
X0215992Y1052984
X0215492Y1031484
X0226992Y1030984
X02965Y0944
X0346374Y0944402
X0350374Y0938402
X0354992Y0969484
X03595Y0996
X0371
X0372Y1007
X0398Y10085
Y10135
Y10215
Y09975
Y0991
Y0982
Y09755
Y0969
X0423665Y0967421
X0428665
X0433665
X0438665
X0443665
X0448665
X0453665
X0458665
X0463665
X04505Y09835
X0435
X0437943Y0991045
X0438Y10205
X0442Y10165
X0449045Y1024372
X0457Y10295
X04585Y10455
X04525Y1049
X04665Y10495
X0459Y10575
X0464Y1075
X04505Y10745
X0438Y1072
X0427Y10485
X04215Y10465
X0421Y10425
X04215Y1036
X0416305Y1035805
X0405Y107
X03965Y108
X0416197Y1086772
X0382Y10655
X0348043Y1069701
Y1079201
X0342043Y1086701
X03295Y1085
X0329043Y1078201
X0328543Y1069701
Y1060201
X0348543Y1060701
X0343Y10505
X0350638Y1035244
X0314Y10295
X0316Y1007
X0322Y1092
X04755Y10585
X04815
X04955Y10455
X0515Y1047
X0516Y10635
X0507Y1079
X0532Y1083
X05475
X0588Y10815
X0517Y1027
X0516Y10085
X0498976Y1009024
X0499Y1014
X0486Y1013
Y1009
Y10025
Y1023
X0499Y09835
Y09785
Y09735
Y095
Y0945
Y094
X0519882Y0958138
X052Y0993
X04965Y11155
X0487Y1123
X0529Y1149
X04685Y11255
X0448Y11525
X0412191Y111398
X03635Y111
X0358Y11225
X03675Y1136
X0350992Y1142484
X0331886Y1144516
X0292Y1127
X02705Y1139
T03
X0223189Y0778201
X0564Y0840158
Y0851968
X05625Y0883657
Y0895469
X0561921Y092409
Y0935902
X0599323Y0935902
Y092409
X05995Y0894969
Y0883158
X06005Y0851874
Y0840063
X0223189Y0790012
X0223Y1091094
X0561421Y1061079
Y1049268
X05605Y1019468
Y1007658
X0561Y0977468
Y0965658
X06005
Y0977468
X0599Y1008158
Y1019969
X0598823Y1049268
Y1061079
X0515406Y1133
X0503594
X0475406
X0463594
X0433405
X0421594
X0393406Y11335
X0381594
X0223Y1102905
T04
X0260248Y0585362
X0270248
X0279748
X0289748
X0290248Y0595362
X0279748
X0270248
X0260248
X0235Y07745
X0211378
X0552189Y0836457
X0575811
X0588689Y0836362
X0612311
X0611311Y0879457
X0587689
X0574311Y0879957
X0550689
X055011Y092039
X0573732
X0587512Y092039
X0611134
X0234811Y1087394
X0211189
X054961Y1045567
X0573232
X0587012Y1045567
X0610634
X0610811Y1004457
X0587189
X0572311Y1003957
X0548689
X0549189Y0961957
X0572811
X0588689
X0612311
X0519106Y1121189
Y1144811
X0479106
Y1121189
X0437106
Y1144811
X0397106Y1145311
Y1121689
T05
X0240315Y068624
Y069624
X03535Y0649827
X03635
X0417224Y0766059
X0427224
X03085Y0784
X02985
X0299492Y0898984
X0309492
X0359417Y1035244
X0369417
X0472Y10995
X05175
X05275
X0462
X04135Y1098
X04035
T06
X0484189Y0585142
X0494189
X0504189
X0525528Y0598921
X0535528
X0545528
X0572772Y0585142
X0582772
X0592772
X0450634Y0585272
X0440634
X0430634
X0407327Y0599051
X0397327
X0387327
X0365988Y0585272
X0355988
X0345988
X0599228Y0657929
Y0667929
X0599228Y0697299
Y0707299
X0597335Y0736071
Y0746071
Y0756071
X0597335Y0785284
Y0795284
Y0805284
X0367614Y0805425
Y0795425
Y0785425
X0357614
Y0795425
Y0805425
X0359768Y0907043
X0369768
Y0917043
Y0927043
X0359768
Y0917043
X0381Y109
X0391
X04395
X04495
X0495Y10895
X0505
Y10995
X0495
X0548598Y1097425
X0558598
X0590098Y1097925
X0600098
Y1130925
X0590098
X0558598Y1130425
X0548598
X04495Y11
X04395
X0391
X0381
X02555Y11455
X02455
X02355
T07
X0246232Y0585362
X0304264
T08
X061811Y0566929
X0208661
X061811Y1153543
X0208661
M30
