G04 #@! TF.GenerationSoftware,KiCad,Pcbnew,7.0.5-7.0.5~ubuntu20.04.1*
G04 #@! TF.CreationDate,2023-12-18T21:42:52-03:00*
G04 #@! TF.ProjectId,LEDS,4c454453-2e6b-4696-9361-645f70636258,rev?*
G04 #@! TF.SameCoordinates,Original*
G04 #@! TF.FileFunction,Soldermask,Top*
G04 #@! TF.FilePolarity,Negative*
%FSLAX46Y46*%
G04 Gerber Fmt 4.6, Leading zero omitted, Abs format (unit mm)*
G04 Created by KiCad (PCBNEW 7.0.5-7.0.5~ubuntu20.04.1) date 2023-12-18 21:42:52*
%MOMM*%
%LPD*%
G01*
G04 APERTURE LIST*
%ADD10O,4.000000X2.000000*%
%ADD11R,1.800000X1.800000*%
%ADD12C,1.800000*%
G04 APERTURE END LIST*
D10*
X155750000Y-112250000D03*
X155750000Y-107250000D03*
D11*
X65000000Y-143500000D03*
D12*
X67540000Y-143500000D03*
D11*
X50000000Y-100000000D03*
D12*
X52540000Y-100000000D03*
D11*
X115000000Y-108700000D03*
D12*
X117540000Y-108700000D03*
D11*
X100000000Y-100000000D03*
D12*
X102540000Y-100000000D03*
D11*
X85000000Y-143500000D03*
D12*
X87540000Y-143500000D03*
D11*
X120000000Y-47800000D03*
D12*
X122540000Y-47800000D03*
D11*
X60000000Y-65200000D03*
D12*
X62540000Y-65200000D03*
D11*
X75000000Y-108700000D03*
D12*
X77540000Y-108700000D03*
D11*
X75000000Y-73900000D03*
D12*
X77540000Y-73900000D03*
D11*
X80000000Y-152200000D03*
D12*
X82540000Y-152200000D03*
D11*
X80000000Y-134800000D03*
D12*
X82540000Y-134800000D03*
D11*
X90000000Y-117400000D03*
D12*
X92540000Y-117400000D03*
D11*
X95000000Y-73900000D03*
D12*
X97540000Y-73900000D03*
D11*
X135000000Y-143500000D03*
D12*
X137540000Y-143500000D03*
D11*
X55000000Y-91300000D03*
D12*
X57540000Y-91300000D03*
D11*
X70000000Y-100000000D03*
D12*
X72540000Y-100000000D03*
D11*
X50000000Y-117400000D03*
D12*
X52540000Y-117400000D03*
D11*
X150000000Y-82600000D03*
D12*
X152540000Y-82600000D03*
D11*
X125000000Y-91300000D03*
D12*
X127540000Y-91300000D03*
D11*
X90000000Y-100000000D03*
D12*
X92540000Y-100000000D03*
D11*
X85000000Y-91300000D03*
D12*
X87540000Y-91300000D03*
D11*
X120000000Y-152200000D03*
D12*
X122540000Y-152200000D03*
D11*
X115000000Y-56500000D03*
D12*
X117540000Y-56500000D03*
D11*
X95000000Y-56500000D03*
D12*
X97540000Y-56500000D03*
D11*
X90000000Y-47800000D03*
D12*
X92540000Y-47800000D03*
D11*
X60000000Y-117400000D03*
D12*
X62540000Y-117400000D03*
D11*
X130000000Y-117400000D03*
D12*
X132540000Y-117400000D03*
D11*
X145000000Y-91300000D03*
D12*
X147540000Y-91300000D03*
D11*
X50000000Y-82600000D03*
D12*
X52540000Y-82600000D03*
D11*
X110000000Y-82600000D03*
D12*
X112540000Y-82600000D03*
D11*
X125000000Y-126100000D03*
D12*
X127540000Y-126100000D03*
D11*
X65000000Y-126100000D03*
D12*
X67540000Y-126100000D03*
D11*
X65000000Y-73900000D03*
D12*
X67540000Y-73900000D03*
D11*
X105000000Y-108700000D03*
D12*
X107540000Y-108700000D03*
D11*
X110000000Y-152200000D03*
D12*
X112540000Y-152200000D03*
D11*
X110000000Y-47800000D03*
D12*
X112540000Y-47800000D03*
D11*
X70000000Y-117400000D03*
D12*
X72540000Y-117400000D03*
D11*
X75000000Y-91300000D03*
D12*
X77540000Y-91300000D03*
D11*
X85000000Y-126100000D03*
D12*
X87540000Y-126100000D03*
D11*
X120000000Y-134800000D03*
D12*
X122540000Y-134800000D03*
D11*
X90000000Y-134800000D03*
D12*
X92540000Y-134800000D03*
D11*
X65000000Y-91300000D03*
D12*
X67540000Y-91300000D03*
D11*
X80000000Y-82600000D03*
D12*
X82540000Y-82600000D03*
D11*
X105000000Y-91300000D03*
D12*
X107540000Y-91300000D03*
D11*
X80000000Y-65200000D03*
D12*
X82540000Y-65200000D03*
D11*
X125000000Y-73900000D03*
D12*
X127540000Y-73900000D03*
D11*
X110000000Y-65200000D03*
D12*
X112540000Y-65200000D03*
D11*
X110000000Y-100000000D03*
D12*
X112540000Y-100000000D03*
D11*
X125000000Y-143500000D03*
D12*
X127540000Y-143500000D03*
D11*
X100000000Y-117400000D03*
D12*
X102540000Y-117400000D03*
D11*
X55000000Y-108700000D03*
D12*
X57540000Y-108700000D03*
D11*
X45000000Y-108700000D03*
D12*
X47540000Y-108700000D03*
D11*
X65000000Y-108700000D03*
D12*
X67540000Y-108700000D03*
D11*
X85000000Y-56500000D03*
D12*
X87540000Y-56500000D03*
D11*
X115000000Y-91300000D03*
D12*
X117540000Y-91300000D03*
D11*
X120000000Y-65200000D03*
D12*
X122540000Y-65200000D03*
D11*
X130000000Y-100000000D03*
D12*
X132540000Y-100000000D03*
D11*
X60000000Y-100000000D03*
D12*
X62540000Y-100000000D03*
D11*
X70000000Y-134800000D03*
D12*
X72540000Y-134800000D03*
D11*
X75000000Y-126100000D03*
D12*
X77540000Y-126100000D03*
D11*
X115000000Y-126100000D03*
D12*
X117540000Y-126100000D03*
D11*
X100000000Y-65200000D03*
D12*
X102540000Y-65200000D03*
D11*
X95000000Y-91300000D03*
D12*
X97540000Y-91300000D03*
D11*
X140000000Y-82600000D03*
D12*
X142540000Y-82600000D03*
D11*
X70000000Y-82600000D03*
D12*
X72540000Y-82600000D03*
D11*
X90000000Y-65200000D03*
D12*
X92540000Y-65200000D03*
D11*
X135000000Y-91300000D03*
D12*
X137540000Y-91300000D03*
D11*
X80000000Y-47800000D03*
D12*
X82540000Y-47800000D03*
D11*
X110000000Y-117400000D03*
D12*
X112540000Y-117400000D03*
D11*
X125000000Y-108700000D03*
D12*
X127540000Y-108700000D03*
D11*
X60000000Y-134800000D03*
D12*
X62540000Y-134800000D03*
D11*
X120000000Y-100000000D03*
D12*
X122540000Y-100000000D03*
D11*
X130000000Y-65200000D03*
D12*
X132540000Y-65200000D03*
D11*
X115000000Y-143500000D03*
D12*
X117540000Y-143500000D03*
D11*
X100000000Y-134800000D03*
D12*
X102540000Y-134800000D03*
D11*
X135000000Y-73900000D03*
D12*
X137540000Y-73900000D03*
D11*
X135000000Y-56500000D03*
D12*
X137540000Y-56500000D03*
D11*
X110000000Y-134800000D03*
D12*
X112540000Y-134800000D03*
D11*
X60000000Y-82600000D03*
D12*
X62540000Y-82600000D03*
D11*
X90000000Y-152200000D03*
D12*
X92540000Y-152200000D03*
D11*
X105000000Y-126100000D03*
D12*
X107540000Y-126100000D03*
D11*
X75000000Y-56500000D03*
D12*
X77540000Y-56500000D03*
D11*
X115000000Y-73900000D03*
D12*
X117540000Y-73900000D03*
D11*
X140000000Y-134800000D03*
D12*
X142540000Y-134800000D03*
D11*
X120000000Y-117400000D03*
D12*
X122540000Y-117400000D03*
D11*
X80000000Y-117400000D03*
D12*
X82540000Y-117400000D03*
D11*
X130000000Y-82600000D03*
D12*
X132540000Y-82600000D03*
D11*
X95000000Y-126100000D03*
D12*
X97540000Y-126100000D03*
D11*
X85000000Y-74550000D03*
D12*
X87540000Y-74550000D03*
D11*
X75000000Y-143500000D03*
D12*
X77540000Y-143500000D03*
D11*
X100000000Y-47800000D03*
D12*
X102540000Y-47800000D03*
D11*
X100000000Y-82600000D03*
D12*
X102540000Y-82600000D03*
D11*
X65000000Y-56500000D03*
D12*
X67540000Y-56500000D03*
D11*
X105000000Y-56500000D03*
D12*
X107540000Y-56500000D03*
D11*
X140000000Y-100000000D03*
D12*
X142540000Y-100000000D03*
D11*
X135000000Y-108700000D03*
D12*
X137540000Y-108700000D03*
D11*
X150000000Y-100000000D03*
D12*
X152540000Y-100000000D03*
D11*
X100000000Y-152200000D03*
D12*
X102540000Y-152200000D03*
D11*
X70000000Y-65200000D03*
D12*
X72540000Y-65200000D03*
D11*
X155000000Y-91300000D03*
D12*
X157540000Y-91300000D03*
D11*
X130000000Y-134800000D03*
D12*
X132540000Y-134800000D03*
D11*
X80000000Y-100000000D03*
D12*
X82540000Y-100000000D03*
D11*
X85000000Y-108700000D03*
D12*
X87540000Y-108700000D03*
D11*
X145000000Y-108700000D03*
D12*
X147540000Y-108700000D03*
D11*
X125000000Y-56500000D03*
D12*
X127540000Y-56500000D03*
D11*
X90000000Y-82600000D03*
D12*
X92540000Y-82600000D03*
D11*
X140000000Y-117400000D03*
D12*
X142540000Y-117400000D03*
D11*
X120000000Y-82600000D03*
D12*
X122540000Y-82600000D03*
D11*
X45000000Y-91300000D03*
D12*
X47540000Y-91300000D03*
D11*
X140000000Y-65200000D03*
D12*
X142540000Y-65200000D03*
D11*
X95000000Y-143500000D03*
D12*
X97540000Y-143500000D03*
D11*
X105000000Y-73900000D03*
D12*
X107540000Y-73900000D03*
D11*
X135000000Y-126100000D03*
D12*
X137540000Y-126100000D03*
D11*
X95000000Y-108700000D03*
D12*
X97540000Y-108700000D03*
D11*
X105000000Y-143500000D03*
D12*
X107540000Y-143500000D03*
M02*
