M48
; DRILL file {KiCad 7.0.5-7.0.5~ubuntu20.04.1} date lun 18 dic 2023 21:43:05
; FORMAT={-:-/ absolute / metric / decimal}
; #@! TF.CreationDate,2023-12-18T21:43:05-03:00
; #@! TF.GenerationSoftware,Kicad,Pcbnew,7.0.5-7.0.5~ubuntu20.04.1
; #@! TF.FileFunction,Plated,1,2,PTH
FMAT,2
METRIC
; #@! TA.AperFunction,Plated,PTH,ViaDrill
T1C0.400
; #@! TA.AperFunction,Plated,PTH,ComponentDrill
T2C0.900
; #@! TA.AperFunction,Plated,PTH,ComponentDrill
T3C1.200
; #@! TA.AperFunction,Plated,PTH,ViaDrill
T4C3.200
%
G90
G05
T1
X96.5Y-119.1
T2
X45.0Y-91.3
X45.0Y-108.7
X47.54Y-91.3
X47.54Y-108.7
X50.0Y-82.6
X50.0Y-100.0
X50.0Y-117.4
X52.54Y-82.6
X52.54Y-100.0
X52.54Y-117.4
X55.0Y-91.3
X55.0Y-108.7
X57.54Y-91.3
X57.54Y-108.7
X60.0Y-65.2
X60.0Y-82.6
X60.0Y-100.0
X60.0Y-117.4
X60.0Y-134.8
X62.54Y-65.2
X62.54Y-82.6
X62.54Y-100.0
X62.54Y-117.4
X62.54Y-134.8
X65.0Y-56.5
X65.0Y-73.9
X65.0Y-91.3
X65.0Y-108.7
X65.0Y-126.1
X65.0Y-143.5
X67.54Y-56.5
X67.54Y-73.9
X67.54Y-91.3
X67.54Y-108.7
X67.54Y-126.1
X67.54Y-143.5
X70.0Y-65.2
X70.0Y-82.6
X70.0Y-100.0
X70.0Y-117.4
X70.0Y-134.8
X72.54Y-65.2
X72.54Y-82.6
X72.54Y-100.0
X72.54Y-117.4
X72.54Y-134.8
X75.0Y-56.5
X75.0Y-73.9
X75.0Y-91.3
X75.0Y-108.7
X75.0Y-126.1
X75.0Y-143.5
X77.54Y-56.5
X77.54Y-73.9
X77.54Y-91.3
X77.54Y-108.7
X77.54Y-126.1
X77.54Y-143.5
X80.0Y-47.8
X80.0Y-65.2
X80.0Y-82.6
X80.0Y-100.0
X80.0Y-117.4
X80.0Y-134.8
X80.0Y-152.2
X82.54Y-47.8
X82.54Y-65.2
X82.54Y-82.6
X82.54Y-100.0
X82.54Y-117.4
X82.54Y-134.8
X82.54Y-152.2
X85.0Y-56.5
X85.0Y-74.55
X85.0Y-91.3
X85.0Y-108.7
X85.0Y-126.1
X85.0Y-143.5
X87.54Y-56.5
X87.54Y-74.55
X87.54Y-91.3
X87.54Y-108.7
X87.54Y-126.1
X87.54Y-143.5
X90.0Y-47.8
X90.0Y-65.2
X90.0Y-82.6
X90.0Y-100.0
X90.0Y-117.4
X90.0Y-134.8
X90.0Y-152.2
X92.54Y-47.8
X92.54Y-65.2
X92.54Y-82.6
X92.54Y-100.0
X92.54Y-117.4
X92.54Y-134.8
X92.54Y-152.2
X95.0Y-56.5
X95.0Y-73.9
X95.0Y-91.3
X95.0Y-108.7
X95.0Y-126.1
X95.0Y-143.5
X97.54Y-56.5
X97.54Y-73.9
X97.54Y-91.3
X97.54Y-108.7
X97.54Y-126.1
X97.54Y-143.5
X100.0Y-47.8
X100.0Y-65.2
X100.0Y-82.6
X100.0Y-100.0
X100.0Y-117.4
X100.0Y-134.8
X100.0Y-152.2
X102.54Y-47.8
X102.54Y-65.2
X102.54Y-82.6
X102.54Y-100.0
X102.54Y-117.4
X102.54Y-134.8
X102.54Y-152.2
X105.0Y-56.5
X105.0Y-73.9
X105.0Y-91.3
X105.0Y-108.7
X105.0Y-126.1
X105.0Y-143.5
X107.54Y-56.5
X107.54Y-73.9
X107.54Y-91.3
X107.54Y-108.7
X107.54Y-126.1
X107.54Y-143.5
X110.0Y-47.8
X110.0Y-65.2
X110.0Y-82.6
X110.0Y-100.0
X110.0Y-117.4
X110.0Y-134.8
X110.0Y-152.2
X112.54Y-47.8
X112.54Y-65.2
X112.54Y-82.6
X112.54Y-100.0
X112.54Y-117.4
X112.54Y-134.8
X112.54Y-152.2
X115.0Y-56.5
X115.0Y-73.9
X115.0Y-91.3
X115.0Y-108.7
X115.0Y-126.1
X115.0Y-143.5
X117.54Y-56.5
X117.54Y-73.9
X117.54Y-91.3
X117.54Y-108.7
X117.54Y-126.1
X117.54Y-143.5
X120.0Y-47.8
X120.0Y-65.2
X120.0Y-82.6
X120.0Y-100.0
X120.0Y-117.4
X120.0Y-134.8
X120.0Y-152.2
X122.54Y-47.8
X122.54Y-65.2
X122.54Y-82.6
X122.54Y-100.0
X122.54Y-117.4
X122.54Y-134.8
X122.54Y-152.2
X125.0Y-56.5
X125.0Y-73.9
X125.0Y-91.3
X125.0Y-108.7
X125.0Y-126.1
X125.0Y-143.5
X127.54Y-56.5
X127.54Y-73.9
X127.54Y-91.3
X127.54Y-108.7
X127.54Y-126.1
X127.54Y-143.5
X130.0Y-65.2
X130.0Y-82.6
X130.0Y-100.0
X130.0Y-117.4
X130.0Y-134.8
X132.54Y-65.2
X132.54Y-82.6
X132.54Y-100.0
X132.54Y-117.4
X132.54Y-134.8
X135.0Y-56.5
X135.0Y-73.9
X135.0Y-91.3
X135.0Y-108.7
X135.0Y-126.1
X135.0Y-143.5
X137.54Y-56.5
X137.54Y-73.9
X137.54Y-91.3
X137.54Y-108.7
X137.54Y-126.1
X137.54Y-143.5
X140.0Y-65.2
X140.0Y-82.6
X140.0Y-100.0
X140.0Y-117.4
X140.0Y-134.8
X142.54Y-65.2
X142.54Y-82.6
X142.54Y-100.0
X142.54Y-117.4
X142.54Y-134.8
X145.0Y-91.3
X145.0Y-108.7
X147.54Y-91.3
X147.54Y-108.7
X150.0Y-82.6
X150.0Y-100.0
X152.54Y-82.6
X152.54Y-100.0
X155.0Y-91.3
X157.54Y-91.3
T3
X155.75Y-107.25
X155.75Y-112.25
T4
X55.0Y-74.5
X55.0Y-125.5
X150.0Y-74.5
X150.0Y-125.5
T0
M30
