M48
;Layer_Color=9474304
;FILE_FORMAT=2:5
INCH,LZ
;TYPE=PLATED
T1F00S00C0.01181
T2F00S00C0.03543
T3F00S00C0.03937
T4F00S00C0.04331
T5F00S00C0.05906
T6F00S00C0.12000
;TYPE=NON_PLATED
%
T01
X0312992Y0218504
X034252Y0213583
X0359449Y0229921
X0360236Y0250394
X0330709Y0270866
X0329724Y0287402
X0322835Y0298228
X0323819Y0312008
X0330709Y0306102
X0307087Y0308071
X0306102Y0299213
X0294882Y0281496
X0281496Y0290354
X0231299Y0299213
Y0280512
X022126Y0270472
X0208661
X0207874Y0263386
X0219488Y0236221
X0227362Y0231299
X0216535Y0218504
X0242126
X0246063Y0236221
X0252953Y0231299
X0266142Y0236221
X029252Y0234646
X0311811Y0208661
X0262205Y0211024
X0190945Y021752
X0193898Y0237205
X0200787Y0231299
X0175197
X0168307Y0236221
X0166339Y021752
X017126Y0304134
X0190945Y0295276
X0194882
X0213779Y0306299
X0240158Y0312008
X0128937Y025689
X0098425
X0077953Y0264961
X0064961Y0253937
X007441Y0223622
X0068504Y0211024
X0112598Y023189
X0135039Y0227953
X0109843Y0275197
X0073622Y0290945
X0065945Y029626
X0106299Y0164173
X0125984Y0162992
X0140748Y032185
X0145669Y0343504
X0098425Y0373031
X0161417Y0347441
X0169291Y0352362
X017815Y0353346
X0189961Y0346457
X0194882Y0333661
X0204331Y032874
X0180118Y0324803
X0165354Y0323819
X0230315Y0322835
X0244488Y0327953
X0248031Y0313976
X0253937Y0312992
X0258858Y0315531
X0297244Y0319882
X0309055Y0331693
X0306102Y0346457
X0288583Y0353543
X0271654Y0347441
X0256693Y0362598
X0237795Y0355118
X022441Y0341535
X0235827Y0404331
X0180709Y040748
X0316929Y0405118
X0324803Y0350394
X032874
X0341732Y0356693
X0354331Y0355512
X0329724Y0323819
X0314961Y033563
T02
X01415Y03824
X01515
Y03924
X01415
X01615
X01715
X01815
X01915
X02015
X02115
X02215
X02315
X02415
X02515
X02615
X02715
X02815
X02915
X03015
Y03824
X03115
Y03924
X02915Y03824
X02815
X02715
X02615
X02515
X02415
X02315
X02215
X02115
X02015
X01915
X01815
X01715
X01615
X03215
Y03924
X03315
Y03824
T03
X0354331Y0285433
Y0295433
X0260984Y0169291
X0250984
X022941
X0219409
X0197402Y0169291
X0187402
X0165118Y0169291
X0155118
X0087598Y0173071
Y0183071
X0061024
Y0173071
X0354331Y0319803
Y0329803
T04
X0060039Y0392638
Y0402638
X007204
Y0392638
X0084041Y0392638
Y0402638
T05
X0064961Y0336457
Y0356457
T06
X0350906Y0194441
X0122559
Y0387354
X0350906
M30
